<svg width="512" height="512" viewBox="0 0 512 512" xmlns="http://www.w3.org/2000/svg"><g  fill-rule="evenodd"><path d="M228.8 216H260v44h-31.2zM177.6 216h31.2v44h-31.2zM126.4 216h31.2v44h-31.2zM75.2 216h31.2v44H75.2zM24 216h31.2v44H24zM228.8 152H260v44h-31.2zM177.6 152h31.2v44h-31.2zM126.4 152h31.2v44h-31.2zM75.2 152h31.2v44H75.2zM24 152h31.2v44H24zM228.8 88H260v44h-31.2zM177.6 88h31.2v44h-31.2zM126.4 88h31.2v44h-31.2zM75.2 88h31.2v44H75.2zM24 88h31.2v44H24zM228.8 24H260v44h-31.2zM177.6 24h31.2v44h-31.2zM126.4 24h31.2v44h-31.2zM75.2 24h31.2v44H75.2zM24 24h31.2v44H24z"/></g></svg>