<svg width="512" height="512" viewBox="0 0 512 512" xmlns="http://www.w3.org/2000/svg"><g  fill-rule="evenodd"><path d="M216 228.8h44V260h-44zM152 228.8h44V260h-44zM88 228.8h44V260H88zM24 228.8h44V260H24zM216 177.6h44v31.2h-44zM152 177.6h44v31.2h-44zM88 177.6h44v31.2H88zM24 177.6h44v31.2H24zM216 126.4h44v31.2h-44zM152 126.4h44v31.2h-44zM88 126.4h44v31.2H88zM24 126.4h44v31.2H24zM216 75.2h44v31.2h-44zM152 75.2h44v31.2h-44zM88 75.2h44v31.2H88zM24 75.2h44v31.2H24zM216 24h44v31.2h-44zM152 24h44v31.2h-44zM88 24h44v31.2H88zM24 24h44v31.2H24z"/></g></svg>