<svg xmlns="http://www.w3.org/2000/svg" viewBox="-107.9 -58 629.8 512"><path d="M237.779 142.187c-54.631 0-95.965 42.468-95.965 95.012 0 55.43 43.06 95.011 95.965 95.011s95.836-39.607 95.836-95.011c0-52.544-41.18-95.012-95.836-95.012zm0 50.225c23.605-.18 42.931 19.945 42.931 44.838 0 24.713-19.326 44.839-42.931 44.839s-42.932-20.126-42.932-44.839c0-24.893 19.353-44.838 42.932-44.838zM511.242 299.02c0 18.373-14.868 33.267-33.268 33.267s-33.268-14.868-33.268-33.268 14.869-33.268 33.268-33.268c18.348 0 33.268 14.869 33.268 33.268zM414.401 325.948h-52.285V89.928h52.26v235.994h.025zM46.932 89.927h-49.09L-97.17 325.922h66.536l11.107-33.268H62.83l11.107 33.268h66.485L46.932 89.927zM-2.158 243.59l24.557-79.19 24.558 79.19H-2.159z"/></svg>