<svg xmlns="http://www.w3.org/2000/svg" viewBox="0 0 512 512"><path d="M256 49C141.7 49 49 141.7 49 256s92.7 207 207 207 207-92.7 207-207S370.3 49 256 49zm106.2 137.8l-128.5 165c-1 1-2.7 3.2-4.7 3.2-2.1 0-3.5-1.5-4.7-2.7-1.2-1.2-72.9-70.1-72.9-70.1l-1.4-1.4c-.6-.8-1-1.8-1-3s.5-2.1 1-3c.4-.4.6-.6 1-1.1 7.1-7.5 21.5-22.6 22.5-23.6 1.2-1.2 2.2-2.8 4.4-2.8 2.3 0 3.8 1.9 4.9 3 1.1 1.1 41.6 40 41.6 40l102.9-132.1c.9-.7 2-1.3 3.2-1.3s2.3.5 3.2 1.2l28.3 22.3c.7.9 1.2 2 1.2 3.2 0 1.3-.5 2.4-1 3.2z"/><path d="M256 28c125.9 0 228 102.1 228 228S381.9 484 256 484 28 381.9 28 256 130.1 28 256 28m0-25c-34.2 0-67.3 6.7-98.5 19.9-30.1 12.7-57.2 31-80.4 54.2s-41.5 50.3-54.2 80.4C9.7 188.7 3 221.8 3 256s6.7 67.3 19.9 98.5c12.7 30.1 31 57.2 54.2 80.4s50.3 41.5 80.4 54.2c31.2 13.2 64.3 19.9 98.5 19.9s67.3-6.7 98.5-19.9c30.1-12.7 57.2-31 80.4-54.2s41.5-50.3 54.2-80.4c13.2-31.2 19.9-64.3 19.9-98.5s-6.7-67.3-19.9-98.5c-12.7-30.1-31-57.2-54.2-80.4s-50.3-41.5-80.4-54.2C323.3 9.7 290.2 3 256 3z"/></svg>