<svg xmlns="http://www.w3.org/2000/svg" width="512" height="512" viewBox="0 0 512 512"><path d="M153.7 396.6L-13.5 222.5c-4.2-4.3-4.1-11.4.2-15.8l29.9-30.6c4.3-4.4 11.3-4.5 15.5-.2l204.2 212.7c2.2 2.2 3.2 5.2 3 8.1.1 3-.9 5.9-3 8.1L32.1 617.4c-4.2 4.3-11.2 4.2-15.5-.2l-29.9-30.6c-4.3-4.4-4.4-11.5-.2-15.8l167.2-174.2z"/><path d="M345.7 396.6L178.5 222.5c-4.2-4.3-4.1-11.4.2-15.8l29.9-30.6c4.3-4.4 11.3-4.5 15.5-.2l204.2 212.7c2.2 2.2 3.2 5.2 3 8.1.1 3-.9 5.9-3 8.1L224.1 617.4c-4.2 4.3-11.2 4.2-15.5-.2l-29.9-30.6c-4.3-4.4-4.4-11.5-.2-15.8l167.2-174.2z"/></svg>