<svg xmlns="http://www.w3.org/2000/svg" viewBox="-49 -58 512 512"><path d="M104.9 382.5h79.6v-55h47.8v55h79.5V88.7H104.9v293.8zm143.3-263h34.5V154h-34.5v-34.5zm0 69.5h34.5v34.5h-34.5V189zm0 69.5h34.5V293h-34.5v-34.5zm-57.1-139h34.5V154h-34.5v-34.5zm0 69.5h34.5v34.5h-34.5V189zm0 69.5h34.5V293h-34.5v-34.5zm-57-139h34.5V154h-34.5v-34.5zm0 69.5h34.5v34.5h-34.5V189zm0 69.5h34.5V293h-34.5v-34.5zM-11.9 382.5h93.2V161.9h-93.2v220.6zM17.5 189H52v34.5H17.5V189zm0 69.5H52V293H17.5v-34.5zM336.1 161.9v220.6h93.2V161.9h-93.2zM399.9 293h-34.5v-34.5h34.5V293zm0-69.5h-34.5V189h34.5v34.5zM134 52.6h148.6v23.7H134zM165.2 16.5h86.2v23.7h-86.2z"/></svg>