<svg xmlns="http://www.w3.org/2000/svg" viewBox="0 0 512 512"><path d="M409.6 424.1c-8.2 0-15.2-3-21.2-8.9-5.9-5.9-8.9-13-8.9-21.2 0-8.5 3-15.6 8.9-21.4 5.9-5.8 13-8.7 21.2-8.7 8.5 0 15.6 2.9 21.4 8.7 5.8 5.8 8.7 12.9 8.7 21.4 0 8.2-2.9 15.2-8.7 21.2-5.8 6-12.9 8.9-21.4 8.9zm-151.5 0c-8.2 0-15.2-3-21.2-8.9-5.9-5.9-8.9-13-8.9-21.2 0-8.5 3-15.6 8.9-21.4 5.9-5.8 13-8.7 21.2-8.7s15.2 2.9 21.2 8.7c5.9 5.8 8.9 12.9 8.9 21.4 0 8.2-3 15.2-8.9 21.2-6 6-13 8.9-21.2 8.9zm-151.5 0c-8.5 0-15.6-3-21.4-8.9s-8.7-13-8.7-21.2c0-8.5 2.9-15.6 8.7-21.4 5.8-5.8 12.9-8.7 21.4-8.7 8.2 0 15.2 2.9 21 8.7 5.8 5.8 8.7 12.9 8.7 21.4 0 8.2-2.9 15.2-8.7 21.2-5.9 6-12.8 8.9-21 8.9zM258.1 60.5c8.2 0 15.2 2.9 21.2 8.7 5.9 5.8 8.9 12.9 8.9 21.4 0 8.2-3 15.2-8.9 21.2-5.9 5.9-13 8.9-21.2 8.9s-15.2-3-21.2-8.9c-5.9-5.9-8.9-13-8.9-21.2 0-8.5 3-15.6 8.9-21.4 6-5.8 13-8.7 21.2-8.7zm173.6 286.2v-50.4c0-20.9-7.4-38.7-22.2-53.5s-32.8-22.2-54-22.2h-43.2c-9 0-16.7-3.2-23.1-9.5-6.3-6.3-9.5-14-9.5-23.1v-50.4c9-4 16.4-10.2 22-18.6s8.5-17.9 8.5-28.4c0-14.4-5.1-26.7-15.2-36.8-10.2-10.2-22.4-15.2-36.8-15.2-14.4 0-26.7 5.1-36.8 15.2C211.1 63.9 206 76.2 206 90.6c0 10.4 2.8 19.9 8.5 28.4s13 14.7 22 18.6V188c0 9-3.2 16.7-9.5 23.1-6.3 6.3-14 9.5-23.1 9.5h-43.2c-21.2 0-39.2 7.4-54 22.2-14.8 14.8-22.2 32.7-22.2 53.5v50.4c-8.7 4.2-15.9 10.5-21.6 18.8-5.6 8.3-8.5 17.8-8.5 28.6 0 14.4 5.1 26.6 15.2 36.6s22.4 15 36.8 15c14.4 0 26.6-5.1 36.6-15.2 10-10.2 15-22.3 15-36.4 0-10.7-2.8-20.2-8.5-28.6-5.6-8.3-12.8-14.6-21.6-18.8v-50.4c0-9 3.2-16.7 9.5-23.1 6.3-6.3 14-9.5 23.1-9.5h43.2c5.9 0 11.6-.6 16.9-1.9 5.4-1.3 10.6-3.2 15.7-5.7v90.6c-9 4.2-16.4 10.5-22 18.8-5.6 8.3-8.5 17.8-8.5 28.6 0 14.4 5.1 26.6 15.2 36.6 10.2 10 22.4 15 36.8 15 14.4 0 26.7-5.1 36.8-15.2 10.2-10.2 15.2-22.3 15.2-36.4 0-10.7-2.8-20.2-8.5-28.6-5.6-8.3-13-14.6-22-18.8v-90.6c5.1 2.5 10.3 4.4 15.7 5.7 5.4 1.3 11 1.9 16.9 1.9h43.2c9 0 16.7 3.2 23.1 9.5 6.3 6.3 9.5 14 9.5 23.1v50.4c-8.7 4.2-15.9 10.5-21.6 18.8-5.6 8.3-8.5 17.8-8.5 28.6 0 14.4 5 26.6 15 36.6s22.2 15 36.6 15c14.4 0 26.7-5.1 36.8-15.2s15.2-22.3 15.2-36.4c0-10.7-2.8-20.2-8.5-28.6-5.1-8.3-12.3-14.6-21-18.8z"/></svg>