<svg xmlns="http://www.w3.org/2000/svg" viewBox="0 0 48 48"><path d="M39.5 39.3c0 2.1-1.7 3.8-3.8 3.8H12.3c-2 0-3.5-1.2-3.9-3.2-.1-.5-.1-1-.1-1.6v-25c0-2 1.4-3.7 3.4-4 1-.1 2 0 3.1 0V13.2h-2.6v25.9h23.3V13.2H33V9.3h.8c.8 0 1.7 0 2.5.1 1.8.3 3.1 1.9 3.1 3.8v16.7c.1 3.2.1 6.3.1 9.4z"/><path d="M31.4 9.3c-.4-.1-.9-.3-1.3-.4C29 8.7 28.3 8 27.7 7c-1.8-2.9-5.8-2.9-7.7 0-.2.4-.4.7-.7 1.1-.1.2-.3.3-.5.4-.8.3-1.6.5-2.4.8-.2.1-.3.2-.3.4v5c0 .8.4 1.2 1.2 1.2h13.2c.7 0 1.1-.4 1.1-1.1V9.7c.1-.2 0-.3-.2-.4zm-7.5 2.3c-1.3 0-2.2-.9-2.2-2.2 0-1.2 1-2.2 2.2-2.2 1.2 0 2.1 1 2.1 2.2 0 1.2-.9 2.2-2.1 2.2zM16.1 18.6v7.7h7.7v-7.7h-7.7zm6.5 6.4h-5.1v-5.1h5.1V25zM16.1 36.7h7.7v-3.5c-.6.7-1.6 1.1-1.2 2.2h-5.2v-5.2h3.4c.1 0 .3 0 .4-.1l1.2-1.2h-6.3v7.8z"/><path d="M24.6 28l-4.1 4.1c-.4-.5-.9-.9-1.3-1.4l-1.4 1.4 2.7 2.7 5.4-5.4c-.3-.4-.7-.9-1.3-1.4zM26.5 22.4v1.3h5.1v-1.3h-5.1zM26.5 34.1h5.1v-1.2h-5.1v1.2z"/></svg>