<svg id="Layer_1" data-name="Layer 1" xmlns="http://www.w3.org/2000/svg" viewBox="0 0 106.12 116.38"><defs><style>.cls-1{fill:#231f20}</style></defs><path class="cls-1" d="M650.29 470.39c19.29 4.67 32.83 22.34 32.89 42.17.07 23.6-19.72 41.56-39.84 42.29l-6.81 15.53c32.78-.1 56.56-25.32 56.47-52.33-.07-24-19.56-45.7-41.91-49.31zM629.6 554c-19.29-4.67-32.84-22.34-32.9-42.17-.07-23.6 19.72-41.56 39.84-42.29l6.82-15.54c-34 .1-56.56 25.32-56.48 52.33.07 24 19.57 45.7 41.92 49.31z" transform="translate(-586.88 -454)"/><circle class="cls-1" cx="639.94" cy="512.13" r="25.43" transform="rotate(-8.67 -2647.715 4156.369)"/></svg>