<?xml version="1.0" encoding="UTF-8"?>
<svg id="Layer_1" xmlns="http://www.w3.org/2000/svg" version="1.1" viewBox="0 0 500 500">
  <!-- Generator: Adobe Illustrator 29.1.0, SVG Export Plug-In . SVG Version: 2.1.0 Build 142)  -->
  <path d="M415.5,269.1h59.5v205.9h-59.5v-205.9ZM317.9,269.1h59.5v205.9h-59.5v-205.9ZM220.2,269.1h59.5v205.9h-59.5v-205.9ZM122.6,269.1h59.5v205.9h-59.5v-205.9ZM25,269.1h59.5v205.9H25v-205.9ZM415.5,25h59.5v205.9h-59.5V25ZM317.9,25h59.5v205.9h-59.5V25ZM220.2,25h59.5v205.9h-59.5V25ZM122.6,25h59.5v205.9h-59.5V25ZM25,25h59.5v205.9H25V25Z"/>
</svg>