<svg xmlns="http://www.w3.org/2000/svg" width="512" height="512" viewBox="0 0 512 512">
  <path d="M345.25,345.25h110.75v110.75h-110.75v-110.75ZM200.625,345.25h110.75v110.75h-110.75v-110.75h0ZM56,345.25h110.75v110.75H56s0-110.75,0-110.75ZM345.25,200.625h110.75v110.75h-110.75v-110.75h0ZM200.625,200.625h110.75v110.75h-110.75v-110.75h0ZM56,200.625h110.75v110.75H56v-110.75h0ZM345.25,56h110.75v110.75h-110.75V56ZM200.625,56h110.75v110.75h-110.75V56h0ZM56,56h110.75v110.75H56s0-110.75,0-110.75Z"/>
</svg>