<?xml version="1.0" encoding="UTF-8"?>
<svg width="512px" height="512px" viewBox="0 0 512 512" version="1.1" xmlns="http://www.w3.org/2000/svg" xmlns:xlink="http://www.w3.org/1999/xlink">
    <!-- Generator: Sketch 62 (91390) - https://sketch.com -->
    <title>3x3</title>
    <desc>Created with Sketch.</desc>
    <g id="3x3" stroke="none" stroke-width="1" fill="none" fill-rule="evenodd">
        <path d="M327.4,320.9 L416,320.9 L416,409.5 L327.4,409.5 L327.4,320.9 Z M211.7,320.9 L300.3,320.9 L300.3,409.5 L211.7,409.5 L211.7,320.9 L211.7,320.9 Z M96,320.9 L184.6,320.9 L184.6,409.5 L96,409.5 L96,320.9 Z M327.4,205.2 L416,205.2 L416,293.8 L327.4,293.8 L327.4,205.2 Z M211.7,205.2 L300.3,205.2 L300.3,293.8 L211.7,293.8 L211.7,205.2 L211.7,205.2 Z M96,205.2 L184.6,205.2 L184.6,293.8 L96,293.8 L96,205.2 Z M327.4,89.5 L416,89.5 L416,178.1 L327.4,178.1 L327.4,89.5 Z M211.7,89.5 L300.3,89.5 L300.3,178.1 L211.7,178.1 L211.7,89.5 L211.7,89.5 Z M96,89.5 L184.6,89.5 L184.6,178.1 L96,178.1 L96,89.5 Z" id="Shape" fill="#000000" fill-rule="nonzero"></path>
    </g>
</svg>