<?xml version="1.0" encoding="UTF-8"?>
<svg id="Layer_1" xmlns="http://www.w3.org/2000/svg" version="1.1" viewBox="0 0 500 500">
  <!-- Generator: Adobe Illustrator 29.1.0, SVG Export Plug-In . SVG Version: 2.1.0 Build 142)  -->
  <path d="M391,350.4h84v124.6h-84v-124.6ZM269.1,350.4h84v124.6h-84v-124.6ZM147.1,350.4h84v124.6h-84v-124.6ZM25,350.4h84v124.6H25v-124.6ZM391,187.7h84v124.6h-84v-124.6ZM269.1,187.7h84v124.6h-84v-124.6ZM147.1,187.7h84v124.6h-84v-124.6ZM25,187.7h84v124.6H25v-124.6ZM391,25h84v124.6h-84V25ZM269.1,25h84v124.6h-84V25ZM147.1,25h84v124.6h-84V25ZM25,25h84v124.6H25V25Z"/>
</svg>