<svg xmlns="http://www.w3.org/2000/svg" width="512" height="512" viewBox="0 0 512 512">
  <path d="M381.375,345.25h74.625v110.75h-74.625v-110.75ZM273,345.25h74.625v110.75h-74.625v-110.75ZM164.5,345.25h74.625v110.75h-74.625v-110.75ZM56,345.25h74.625v110.75H56v-110.75ZM381.375,200.625h74.625v110.75h-74.625v-110.75h0ZM273,200.625h74.625v110.75h-74.625v-110.75h0ZM164.5,200.625h74.625v110.75h-74.625v-110.75h0ZM56,200.625h74.625v110.75H56v-110.75h0ZM381.375,56h74.625v110.75h-74.625V56ZM273,56h74.625v110.75h-74.625V56ZM164.5,56h74.625v110.75h-74.625V56ZM56,56h74.625v110.75H56V56Z"/>
</svg>