<svg xmlns="http://www.w3.org/2000/svg" width="512" height="512" viewBox="0 0 512 512">
  <path d="M403.125,345.25h52.875v110.75h-52.875v-110.75ZM316.375,345.25h52.875v110.75h-52.875v-110.75ZM229.5,345.25h52.875v110.75h-52.875v-110.75ZM142.75,345.25h52.875v110.75h-52.875v-110.75ZM56,345.25h52.875v110.75h-52.875v-110.75ZM403.125,200.625h52.875v110.75h-52.875v-110.75h0ZM316.375,200.625h52.875v110.75h-52.875v-110.75h0ZM229.5,200.625h52.875v110.75h-52.875v-110.75h0ZM142.75,200.625h52.875v110.75h-52.875v-110.75h0ZM56,200.625h52.875v110.75h-52.875v-110.75h0ZM403.125,56h52.875v110.75h-52.875V56ZM316.375,56h52.875v110.75h-52.875V56ZM229.5,56h52.875v110.75h-52.875V56ZM142.75,56h52.875v110.75h-52.875V56ZM56,56h52.875v110.75h-52.875V56Z"/>
</svg>