<svg width="512" height="512" viewBox="0 0 512 512" xmlns="http://www.w3.org/2000/svg"><g  fill-rule="evenodd"><path d="M228.8 194.667H260V260h-31.2zM177.6 194.667h31.2V260h-31.2zM126.4 194.667h31.2V260h-31.2zM75.2 194.667h31.2V260H75.2zM24 194.667h31.2V260H24zM228.8 109.333H260v65.333h-31.2zM177.6 109.333h31.2v65.333h-31.2zM126.4 109.333h31.2v65.333h-31.2zM75.2 109.333h31.2v65.333H75.2zM24 109.333h31.2v65.333H24zM228.8 24H260v65.333h-31.2zM177.6 24h31.2v65.333h-31.2zM126.4 24h31.2v65.333h-31.2zM75.2 24h31.2v65.333H75.2zM24 24h31.2v65.333H24z"/></g></svg>