<svg xmlns="http://www.w3.org/2000/svg" width="512" height="512" viewBox="0 0 512 512">
    <path d="M373.7 271.4H416V360h-42.3v-88.6zm-69.4 0h42.3V360h-42.3v-88.6zm-69.5 0h42.3V360h-42.3v-88.6zm-69.4 0h42.3V360h-42.3v-88.6zm-69.4 0h42.3V360H96v-88.6zm277.7-115.7H416v88.6h-42.3v-88.6zm-69.4 0h42.3v88.6h-42.3v-88.6zm-69.5 0h42.3v88.6h-42.3v-88.6zm-69.4 0h42.3v88.6h-42.3v-88.6zm-69.4 0h42.3v88.6H96v-88.6zM373.7 40H416v88.6h-42.3V40zm-69.4 0h42.3v88.6h-42.3V40zm-69.5 0h42.3v88.6h-42.3V40zm-69.4 0h42.3v88.6h-42.3V40zM96 40h42.3v88.6H96V40z"/>
</svg>
