<?xml version="1.0" encoding="UTF-8"?>
<svg id="Layer_1" xmlns="http://www.w3.org/2000/svg" version="1.1" viewBox="0 0 500 500">
  <!-- Generator: Adobe Illustrator 29.1.0, SVG Export Plug-In . SVG Version: 2.1.0 Build 142)  -->
  <path d="M415.5,350.4h59.5v124.6h-59.5v-124.6ZM317.9,350.4h59.5v124.6h-59.5v-124.6ZM220.2,350.4h59.5v124.6h-59.5v-124.6ZM122.6,350.4h59.5v124.6h-59.5v-124.6ZM25,350.4h59.5v124.6H25v-124.6ZM415.5,187.7h59.5v124.6h-59.5v-124.6ZM317.9,187.7h59.5v124.6h-59.5v-124.6ZM220.2,187.7h59.5v124.6h-59.5v-124.6ZM122.6,187.7h59.5v124.6h-59.5v-124.6ZM25,187.7h59.5v124.6H25v-124.6ZM415.5,25h59.5v124.6h-59.5V25ZM317.9,25h59.5v124.6h-59.5V25ZM220.2,25h59.5v124.6h-59.5V25ZM122.6,25h59.5v124.6h-59.5V25ZM25,25h59.5v124.6H25V25Z"/>
</svg>