<svg xmlns="http://www.w3.org/2000/svg" width="512" height="512" viewBox="0 0 512 512">
    <path fill-rule="nonzero" d="M327.4 349.8H416v59.7h-88.6v-59.7zm-115.7 0h88.6v59.7h-88.6v-59.7zm-115.7 0h88.6v59.7H96v-59.7zm231.4-86.7H416v59.7h-88.6v-59.7zm-115.7 0h88.6v59.7h-88.6v-59.7zm-115.7 0h88.6v59.7H96v-59.7zm231.4-86.8H416V236h-88.6v-59.7zm-115.7 0h88.6V236h-88.6v-59.7zm-115.7 0h88.6V236H96v-59.7zm231.4-86.8H416v59.7h-88.6V89.5zm-115.7 0h88.6v59.7h-88.6V89.5zM96 89.5h88.6v59.7H96V89.5z"/>
</svg>
