<?xml version="1.0" encoding="UTF-8"?>
<svg width="512px" height="512px" viewBox="0 0 512 512" version="1.1" xmlns="http://www.w3.org/2000/svg" xmlns:xlink="http://www.w3.org/1999/xlink">
    <!-- Generator: Sketch 62 (91390) - https://sketch.com -->
    <title>4x3</title>
    <desc>Created with Sketch.</desc>
    <g id="4x3" stroke="none" stroke-width="1" fill="none" fill-rule="evenodd">
        <path d="M327.4,349.8 L416,349.8 L416,409.5 L327.4,409.5 L327.4,349.8 Z M211.7,349.8 L300.3,349.8 L300.3,409.5 L211.7,409.5 L211.7,349.8 L211.7,349.8 Z M96,349.8 L184.6,349.8 L184.6,409.5 L96,409.5 L96,349.8 Z M327.4,263.1 L416,263.1 L416,322.8 L327.4,322.8 L327.4,263.1 Z M211.7,263.1 L300.3,263.1 L300.3,322.8 L211.7,322.8 L211.7,263.1 L211.7,263.1 Z M96,263.1 L184.6,263.1 L184.6,322.8 L96,322.8 L96,263.1 Z M327.4,176.3 L416,176.3 L416,236 L327.4,236 L327.4,176.3 Z M211.7,176.3 L300.3,176.3 L300.3,236 L211.7,236 L211.7,176.3 L211.7,176.3 Z M96,176.3 L184.6,176.3 L184.6,236 L96,236 L96,176.3 Z M327.4,89.5 L416,89.5 L416,149.2 L327.4,149.2 L327.4,89.5 Z M211.7,89.5 L300.3,89.5 L300.3,149.2 L211.7,149.2 L211.7,89.5 L211.7,89.5 Z M96,89.5 L184.6,89.5 L184.6,149.2 L96,149.2 L96,89.5 Z" id="Shape" fill="#000000" fill-rule="nonzero"></path>
    </g>
</svg>