<?xml version="1.0" encoding="UTF-8"?>
<svg id="Layer_1" xmlns="http://www.w3.org/2000/svg" version="1.1" viewBox="0 0 500 500">
  <!-- Generator: Adobe Illustrator 29.1.0, SVG Export Plug-In . SVG Version: 2.1.0 Build 142)  -->
  <path d="M350.4,391h124.6v84h-124.6v-84ZM187.7,391h124.6v84h-124.6v-84ZM25,391h124.6v84H25v-84ZM350.4,269.1h124.6v84h-124.6v-84ZM187.7,269.1h124.6v84h-124.6v-84ZM25,269.1h124.6v84H25v-84ZM350.4,147.1h124.6v84h-124.6v-84ZM187.7,147.1h124.6v84h-124.6v-84ZM25,147.1h124.6v84H25v-84ZM350.4,25h124.6v84h-124.6V25ZM187.7,25h124.6v84h-124.6V25ZM25,25h124.6v84H25V25Z"/>
</svg>