<svg xmlns="http://www.w3.org/2000/svg" width="512" height="512" viewBox="0 0 512 512">
  <path d="M345.25,381.375h110.75v74.625h-110.75v-74.625ZM200.625,381.375h110.75v74.625h-110.75v-74.625ZM56,381.375h110.75v74.625H56v-74.625ZM345.25,273h110.75v74.625h-110.75v-74.625ZM200.625,273h110.75v74.625h-110.75v-74.625ZM56,273h110.75v74.625H56v-74.625ZM345.25,164.5h110.75v74.625h-110.75v-74.625ZM200.625,164.5h110.75v74.625h-110.75v-74.625ZM56,164.5h110.75v74.625H56v-74.625ZM345.25,56h110.75v74.625h-110.75V56ZM200.625,56h110.75v74.625h-110.75V56ZM56,56h110.75v74.625H56V56Z"/>
</svg>