<svg xmlns="http://www.w3.org/2000/svg" width="512" height="512" viewBox="0 0 512 512">
    <path d="M356.3 349.8H416v59.7h-59.7v-59.7zm-86.7 0h59.7v59.7h-59.7v-59.7zm-86.8 0h59.7v59.7h-59.7v-59.7zm-86.8 0h59.7v59.7H96v-59.7zm260.3-86.7H416v59.7h-59.7v-59.7zm-86.7 0h59.7v59.7h-59.7v-59.7zm-86.8 0h59.7v59.7h-59.7v-59.7zm-86.8 0h59.7v59.7H96v-59.7zm260.3-86.8H416V236h-59.7v-59.7zm-86.7 0h59.7V236h-59.7v-59.7zm-86.8 0h59.7V236h-59.7v-59.7zm-86.8 0h59.7V236H96v-59.7zm260.3-86.8H416v59.7h-59.7V89.5zm-86.7 0h59.7v59.7h-59.7V89.5zm-86.8 0h59.7v59.7h-59.7V89.5zm-86.8 0h59.7v59.7H96V89.5z"/>
</svg>
