<svg xmlns="http://www.w3.org/2000/svg" width="512" height="512" viewBox="0 0 512 512">
  <path d="M381.375,381.375h74.625v74.625h-74.625v-74.625ZM273,381.375h74.625v74.625h-74.625v-74.625ZM164.5,381.375h74.625v74.625h-74.625v-74.625ZM56,381.375h74.625v74.625H56v-74.625ZM381.375,273h74.625v74.625h-74.625v-74.625ZM273,273h74.625v74.625h-74.625v-74.625ZM164.5,273h74.625v74.625h-74.625v-74.625ZM56,273h74.625v74.625H56v-74.625ZM381.375,164.5h74.625v74.625h-74.625v-74.625ZM273,164.5h74.625v74.625h-74.625v-74.625ZM164.5,164.5h74.625v74.625h-74.625v-74.625ZM56,164.5h74.625v74.625H56v-74.625ZM381.375,56h74.625v74.625h-74.625V56ZM273,56h74.625v74.625h-74.625V56ZM164.5,56h74.625v74.625h-74.625V56ZM56,56h74.625v74.625H56V56Z"/>
</svg>