<?xml version="1.0" encoding="UTF-8"?>
<svg id="Layer_1" xmlns="http://www.w3.org/2000/svg" version="1.1" viewBox="0 0 500 500">
  <!-- Generator: Adobe Illustrator 29.1.0, SVG Export Plug-In . SVG Version: 2.1.0 Build 142)  -->
  <path d="M391,391h84v84h-84v-84ZM269.1,391h84v84h-84v-84ZM147.1,391h84v84h-84v-84ZM25,391h84v84H25v-84ZM391,269.1h84v84h-84v-84ZM269.1,269.1h84v84h-84v-84ZM147.1,269.1h84v84h-84v-84ZM25,269.1h84v84H25v-84ZM391,147.1h84v84h-84v-84ZM269.1,147.1h84v84h-84v-84ZM147.1,147.1h84v84h-84v-84ZM25,147.1h84v84H25v-84ZM391,25h84v84h-84V25ZM269.1,25h84v84h-84V25ZM147.1,25h84v84h-84V25ZM25,25h84v84H25V25Z"/>
</svg>