<svg xmlns="http://www.w3.org/2000/svg" width="512" height="512" viewBox="0 0 512 512">
    <path d="M373.7 349.8H416v59.7h-42.3zm-69.4 0h42.3v59.7h-42.3zm-69.5 0h42.3v59.7h-42.3zm-69.4 0h42.3v59.7h-42.3zm-69.4 0h42.3v59.7H96zm277.7-86.7H416v59.7h-42.3zm-69.4 0h42.3v59.7h-42.3zm-69.5 0h42.3v59.7h-42.3zm-69.4 0h42.3v59.7h-42.3zm-69.4 0h42.3v59.7H96zm277.7-86.8H416V236h-42.3zm-69.4 0h42.3V236h-42.3zm-69.5 0h42.3V236h-42.3zm-69.4 0h42.3V236h-42.3zm-69.4 0h42.3V236H96zm277.7-86.8H416v59.7h-42.3zm-69.4 0h42.3v59.7h-42.3zm-69.5 0h42.3v59.7h-42.3zm-69.4 0h42.3v59.7h-42.3zm-69.4 0h42.3v59.7H96z"/>
</svg>
