<?xml version="1.0" encoding="UTF-8"?>
<svg id="Layer_1" xmlns="http://www.w3.org/2000/svg" version="1.1" viewBox="0 0 500 500">
  <!-- Generator: Adobe Illustrator 29.1.0, SVG Export Plug-In . SVG Version: 2.1.0 Build 142)  -->
  <path d="M415.5,391h59.5v84h-59.5v-84ZM317.9,391h59.5v84h-59.5v-84ZM220.2,391h59.5v84h-59.5v-84ZM122.6,391h59.5v84h-59.5v-84ZM25,391h59.5v84H25v-84ZM415.5,269.1h59.5v84h-59.5v-84ZM317.9,269.1h59.5v84h-59.5v-84ZM220.2,269.1h59.5v84h-59.5v-84ZM122.6,269.1h59.5v84h-59.5v-84ZM25,269.1h59.5v84H25v-84ZM415.5,147.1h59.5v84h-59.5v-84ZM317.9,147.1h59.5v84h-59.5v-84ZM220.2,147.1h59.5v84h-59.5v-84ZM122.6,147.1h59.5v84h-59.5v-84ZM25,147.1h59.5v84H25v-84ZM415.5,25h59.5v84h-59.5V25ZM317.9,25h59.5v84h-59.5V25ZM220.2,25h59.5v84h-59.5V25ZM122.6,25h59.5v84h-59.5V25ZM25,25h59.5v84H25V25Z"/>
</svg>