<svg xmlns="http://www.w3.org/2000/svg" width="512" height="512" viewBox="0 0 512 512">
  <path d="M403.125,381.375h52.875v74.625h-52.875v-74.625ZM316.375,381.375h52.875v74.625h-52.875v-74.625ZM229.5,381.375h52.875v74.625h-52.875v-74.625ZM142.75,381.375h52.875v74.625h-52.875v-74.625ZM56,381.375h52.875v74.625h-52.875v-74.625ZM403.125,273h52.875v74.625h-52.875v-74.625ZM316.375,273h52.875v74.625h-52.875v-74.625ZM229.5,273h52.875v74.625h-52.875v-74.625ZM142.75,273h52.875v74.625h-52.875v-74.625ZM56,273h52.875v74.625h-52.875v-74.625ZM403.125,164.5h52.875v74.625h-52.875v-74.625ZM316.375,164.5h52.875v74.625h-52.875v-74.625ZM229.5,164.5h52.875v74.625h-52.875v-74.625ZM142.75,164.5h52.875v74.625h-52.875v-74.625ZM56,164.5h52.875v74.625h-52.875v-74.625ZM403.125,56h52.875v74.625h-52.875V56ZM316.375,56h52.875v74.625h-52.875V56ZM229.5,56h52.875v74.625h-52.875V56ZM142.75,56h52.875v74.625h-52.875V56ZM56,56h52.875v74.625h-52.875V56Z"/>
</svg>