<svg xmlns="http://www.w3.org/2000/svg" width="512" height="512" viewBox="0 0 512 512"><path fill-rule="evenodd" d="M228.8 216H260v44h-31.2zm-51.2 0h31.2v44h-31.2zm-51.2 0h31.2v44h-31.2zm-51.2 0h31.2v44H75.2zM24 216h31.2v44H24zm204.8-64H260v44h-31.2zm-51.2 0h31.2v44h-31.2zm-51.2 0h31.2v44h-31.2zm-51.2 0h31.2v44H75.2zM24 152h31.2v44H24zm204.8-64H260v44h-31.2zm-51.2 0h31.2v44h-31.2zm-51.2 0h31.2v44h-31.2zm-51.2 0h31.2v44H75.2zM24 88h31.2v44H24zm204.8-64H260v44h-31.2zm-51.2 0h31.2v44h-31.2zm-51.2 0h31.2v44h-31.2zm-51.2 0h31.2v44H75.2zM24 24h31.2v44H24z"/></svg>