<svg xmlns="http://www.w3.org/2000/svg" width="512" height="512" viewBox="0 0 512 512">
    <path fill-rule="evenodd" d="M194.667 228.8H260V260h-65.333zm-85.334 0h65.333V260h-65.333zM24 228.8h65.333V260H24zm170.667-51.2H260v31.2h-65.333zm-85.334 0h65.333v31.2h-65.333zM24 177.6h65.333v31.2H24zm170.667-51.2H260v31.2h-65.333zm-85.334 0h65.333v31.2h-65.333zM24 126.4h65.333v31.2H24zm170.667-51.2H260v31.2h-65.333zm-85.334 0h65.333v31.2h-65.333zM24 75.2h65.333v31.2H24zM194.667 24H260v31.2h-65.333zm-85.334 0h65.333v31.2h-65.333zM24 24h65.333v31.2H24z"/>
</svg>
