<svg xmlns="http://www.w3.org/2000/svg" width="512" height="512" viewBox="0 0 512 512">
    <path d="M327.4 367.2H416v42.3h-88.6v-42.3zm-115.7 0h88.6v42.3h-88.6v-42.3zm-115.7 0h88.6v42.3H96v-42.3zm231.4-69.4H416v42.3h-88.6v-42.3zm-115.7 0h88.6v42.3h-88.6v-42.3zm-115.7 0h88.6v42.3H96v-42.3zm231.4-69.5H416v42.3h-88.6v-42.3zm-115.7 0h88.6v42.3h-88.6v-42.3zm-115.7 0h88.6v42.3H96v-42.3zm231.4-69.4H416v42.3h-88.6v-42.3zm-115.7 0h88.6v42.3h-88.6v-42.3zm-115.7 0h88.6v42.3H96v-42.3zm231.4-69.4H416v42.3h-88.6V89.5zm-115.7 0h88.6v42.3h-88.6V89.5zM96 89.5h88.6v42.3H96V89.5z"/>
</svg>
