<?xml version="1.0" encoding="UTF-8"?>
<svg id="Layer_1" xmlns="http://www.w3.org/2000/svg" version="1.1" viewBox="0 0 500 500">
  <!-- Generator: Adobe Illustrator 29.1.0, SVG Export Plug-In . SVG Version: 2.1.0 Build 142)  -->
  <path d="M350.4,415.5h124.6v59.5h-124.6v-59.5ZM187.7,415.5h124.6v59.5h-124.6v-59.5ZM25,415.5h124.6v59.5H25v-59.5ZM350.4,317.9h124.6v59.5h-124.6v-59.5ZM187.7,317.9h124.6v59.5h-124.6v-59.5ZM25,317.9h124.6v59.5H25v-59.5ZM350.4,220.2h124.6v59.5h-124.6v-59.5ZM187.7,220.2h124.6v59.5h-124.6v-59.5ZM25,220.2h124.6v59.5H25v-59.5ZM350.4,122.6h124.6v59.5h-124.6v-59.5ZM187.7,122.6h124.6v59.5h-124.6v-59.5ZM25,122.6h124.6v59.5H25v-59.5ZM350.4,25h124.6v59.5h-124.6V25ZM187.7,25h124.6v59.5h-124.6V25ZM25,25h124.6v59.5H25V25Z"/>
</svg>