<svg xmlns="http://www.w3.org/2000/svg" width="512" height="512" viewBox="0 0 512 512">
  <path d="M345.25,403.125h110.75v52.875h-110.75v-52.875ZM200.625,403.125h110.75v52.875h-110.75v-52.875ZM56,403.125h110.75v52.875H56v-52.875ZM345.25,316.375h110.75v52.875h-110.75v-52.875ZM200.625,316.375h110.75v52.875h-110.75v-52.875ZM56,316.375h110.75v52.875H56v-52.875ZM345.25,229.5h110.75v52.875h-110.75v-52.875ZM200.625,229.5h110.75v52.875h-110.75v-52.875ZM56,229.5h110.75v52.875H56v-52.875ZM345.25,142.75h110.75v52.875h-110.75v-52.875ZM200.625,142.75h110.75v52.875h-110.75v-52.875ZM56,142.75h110.75v52.875H56v-52.875ZM345.25,56h110.75v52.875h-110.75v-52.875ZM200.625,56h110.75v52.875h-110.75v-52.875ZM56,56h110.75v52.875H56v-52.875Z"/>
</svg>