<svg width="512" height="512" viewBox="0 0 512 512" xmlns="http://www.w3.org/2000/svg"><g  fill-rule="evenodd"><path d="M194.667 228.8H260V260h-65.333zM109.333 228.8h65.333V260h-65.333zM24 228.8h65.333V260H24zM194.667 177.6H260v31.2h-65.333zM109.333 177.6h65.333v31.2h-65.333zM24 177.6h65.333v31.2H24zM194.667 126.4H260v31.2h-65.333zM109.333 126.4h65.333v31.2h-65.333zM24 126.4h65.333v31.2H24zM194.667 75.2H260v31.2h-65.333zM109.333 75.2h65.333v31.2h-65.333zM24 75.2h65.333v31.2H24zM194.667 24H260v31.2h-65.333zM109.333 24h65.333v31.2h-65.333zM24 24h65.333v31.2H24z"/></g></svg>