<svg xmlns="http://www.w3.org/2000/svg" width="512" height="512" viewBox="0 0 512 512">
  <path d="M381.375,403.125h74.625v52.875h-74.625v-52.875ZM273,403.125h74.625v52.875h-74.625v-52.875ZM164.5,403.125h74.625v52.875h-74.625v-52.875ZM56,403.125h74.625v52.875H56v-52.875ZM381.375,316.375h74.625v52.875h-74.625v-52.875ZM273,316.375h74.625v52.875h-74.625v-52.875ZM164.5,316.375h74.625v52.875h-74.625v-52.875ZM56,316.375h74.625v52.875H56v-52.875ZM381.375,229.5h74.625v52.875h-74.625v-52.875ZM273,229.5h74.625v52.875h-74.625v-52.875ZM164.5,229.5h74.625v52.875h-74.625v-52.875ZM56,229.5h74.625v52.875H56v-52.875ZM381.375,142.75h74.625v52.875h-74.625v-52.875ZM273,142.75h74.625v52.875h-74.625v-52.875ZM164.5,142.75h74.625v52.875h-74.625v-52.875ZM56,142.75h74.625v52.875H56v-52.875ZM381.375,56h74.625v52.875h-74.625v-52.875ZM273,56h74.625v52.875h-74.625v-52.875ZM164.5,56h74.625v52.875h-74.625v-52.875ZM56,56h74.625v52.875H56v-52.875Z"/>
</svg>