<?xml version="1.0" encoding="UTF-8"?>
<svg id="Layer_1" xmlns="http://www.w3.org/2000/svg" version="1.1" viewBox="0 0 500 500">
  <!-- Generator: Adobe Illustrator 29.1.0, SVG Export Plug-In . SVG Version: 2.1.0 Build 142)  -->
  <path d="M391,415.5h84v59.5h-84v-59.5ZM269.1,415.5h84v59.5h-84v-59.5ZM147.1,415.5h84v59.5h-84v-59.5ZM25,415.5h84v59.5H25v-59.5ZM391,317.9h84v59.5h-84v-59.5ZM269.1,317.9h84v59.5h-84v-59.5ZM147.1,317.9h84v59.5h-84v-59.5ZM25,317.9h84v59.5H25v-59.5ZM391,220.2h84v59.5h-84v-59.5ZM269.1,220.2h84v59.5h-84v-59.5ZM147.1,220.2h84v59.5h-84v-59.5ZM25,220.2h84v59.5H25v-59.5ZM391,122.6h84v59.5h-84v-59.5ZM269.1,122.6h84v59.5h-84v-59.5ZM147.1,122.6h84v59.5h-84v-59.5ZM25,122.6h84v59.5H25v-59.5ZM391,25h84v59.5h-84V25ZM269.1,25h84v59.5h-84V25ZM147.1,25h84v59.5h-84V25ZM25,25h84v59.5H25V25Z"/>
</svg>