<svg xmlns="http://www.w3.org/2000/svg" width="512" height="512" viewBox="0 0 512 512">
    <path d="M356.3 317.7H416V360h-59.7v-42.3zm-86.7 0h59.7V360h-59.7v-42.3zm-86.8 0h59.7V360h-59.7v-42.3zm-86.8 0h59.7V360H96v-42.3zm260.3-69.4H416v42.3h-59.7v-42.3zm-86.7 0h59.7v42.3h-59.7v-42.3zm-86.8 0h59.7v42.3h-59.7v-42.3zm-86.8 0h59.7v42.3H96v-42.3zm260.3-69.5H416v42.3h-59.7v-42.3zm-86.7 0h59.7v42.3h-59.7v-42.3zm-86.8 0h59.7v42.3h-59.7v-42.3zm-86.8 0h59.7v42.3H96v-42.3zm260.3-69.4H416v42.3h-59.7v-42.3zm-86.7 0h59.7v42.3h-59.7v-42.3zm-86.8 0h59.7v42.3h-59.7v-42.3zm-86.8 0h59.7v42.3H96v-42.3zM356.3 40H416v42.3h-59.7V40zm-86.7 0h59.7v42.3h-59.7V40zm-86.8 0h59.7v42.3h-59.7V40zM96 40h59.7v42.3H96V40z"/>
</svg>
