<svg xmlns="http://www.w3.org/2000/svg" width="512" height="512" viewBox="0 0 512 512"><path fill-rule="evenodd" d="M216 228.8h44V260h-44zm-64 0h44V260h-44zm-64 0h44V260H88zm-64 0h44V260H24zm192-51.2h44v31.2h-44zm-64 0h44v31.2h-44zm-64 0h44v31.2H88zm-64 0h44v31.2H24zm192-51.2h44v31.2h-44zm-64 0h44v31.2h-44zm-64 0h44v31.2H88zm-64 0h44v31.2H24zm192-51.2h44v31.2h-44zm-64 0h44v31.2h-44zm-64 0h44v31.2H88zm-64 0h44v31.2H24zM216 24h44v31.2h-44zm-64 0h44v31.2h-44zm-64 0h44v31.2H88zm-64 0h44v31.2H24z"/></svg>