<svg width="512" height="512" viewBox="0 0 512 512" xmlns="http://www.w3.org/2000/svg"><g  fill-rule="evenodd"><path d="M228.8 228.8H260V260h-31.2zM177.6 228.8h31.2V260h-31.2zM126.4 228.8h31.2V260h-31.2zM75.2 228.8h31.2V260H75.2zM24 228.8h31.2V260H24zM228.8 177.6H260v31.2h-31.2zM177.6 177.6h31.2v31.2h-31.2zM126.4 177.6h31.2v31.2h-31.2zM75.2 177.6h31.2v31.2H75.2zM24 177.6h31.2v31.2H24zM228.8 126.4H260v31.2h-31.2zM177.6 126.4h31.2v31.2h-31.2zM126.4 126.4h31.2v31.2h-31.2zM75.2 126.4h31.2v31.2H75.2zM24 126.4h31.2v31.2H24zM228.8 75.2H260v31.2h-31.2zM177.6 75.2h31.2v31.2h-31.2zM126.4 75.2h31.2v31.2h-31.2zM75.2 75.2h31.2v31.2H75.2zM24 75.2h31.2v31.2H24zM228.8 24H260v31.2h-31.2zM177.6 24h31.2v31.2h-31.2zM126.4 24h31.2v31.2h-31.2zM75.2 24h31.2v31.2H75.2zM24 24h31.2v31.2H24z"/></g></svg>