<svg xmlns="http://www.w3.org/2000/svg" width="512" height="512" viewBox="0 0 512 512">
  <path d="M403.125,403.125h52.875v52.875h-52.875v-52.875ZM316.375,403.125h52.875v52.875h-52.875v-52.875ZM229.5,403.125h52.875v52.875h-52.875v-52.875ZM142.75,403.125h52.875v52.875h-52.875v-52.875ZM56,403.125h52.875v52.875h-52.875v-52.875ZM403.125,316.375h52.875v52.875h-52.875v-52.875ZM316.375,316.375h52.875v52.875h-52.875v-52.875ZM229.5,316.375h52.875v52.875h-52.875v-52.875ZM142.75,316.375h52.875v52.875h-52.875v-52.875ZM56,316.375h52.875v52.875h-52.875v-52.875ZM403.125,229.5h52.875v52.875h-52.875v-52.875ZM316.375,229.5h52.875v52.875h-52.875v-52.875ZM229.5,229.5h52.875v52.875h-52.875v-52.875ZM142.75,229.5h52.875v52.875h-52.875v-52.875ZM56,229.5h52.875v52.875h-52.875v-52.875ZM403.125,142.75h52.875v52.875h-52.875v-52.875ZM316.375,142.75h52.875v52.875h-52.875v-52.875ZM229.5,142.75h52.875v52.875h-52.875v-52.875ZM142.75,142.75h52.875v52.875h-52.875v-52.875ZM56,142.75h52.875v52.875h-52.875v-52.875ZM403.125,56h52.875v52.875h-52.875v-52.875ZM316.375,56h52.875v52.875h-52.875v-52.875ZM229.5,56h52.875v52.875h-52.875v-52.875ZM142.75,56h52.875v52.875h-52.875v-52.875ZM56,56h52.875v52.875h-52.875v-52.875Z"/>
</svg>