<?xml version="1.0" encoding="UTF-8"?>
<svg id="Layer_1" xmlns="http://www.w3.org/2000/svg" version="1.1" viewBox="0 0 500 500">
  <!-- Generator: Adobe Illustrator 29.1.0, SVG Export Plug-In . SVG Version: 2.1.0 Build 142)  -->
  <path d="M415.5,415.5h59.5v59.5h-59.5v-59.5ZM317.9,415.5h59.5v59.5h-59.5v-59.5ZM220.2,415.5h59.5v59.5h-59.5v-59.5ZM122.6,415.5h59.5v59.5h-59.5v-59.5ZM25,415.5h59.5v59.5H25v-59.5ZM415.5,317.9h59.5v59.5h-59.5v-59.5ZM317.9,317.9h59.5v59.5h-59.5v-59.5ZM220.2,317.9h59.5v59.5h-59.5v-59.5ZM122.6,317.9h59.5v59.5h-59.5v-59.5ZM25,317.9h59.5v59.5H25v-59.5ZM415.5,220.2h59.5v59.5h-59.5v-59.5ZM317.9,220.2h59.5v59.5h-59.5v-59.5ZM220.2,220.2h59.5v59.5h-59.5v-59.5ZM122.6,220.2h59.5v59.5h-59.5v-59.5ZM25,220.2h59.5v59.5H25v-59.5ZM415.5,122.6h59.5v59.5h-59.5v-59.5ZM317.9,122.6h59.5v59.5h-59.5v-59.5ZM220.2,122.6h59.5v59.5h-59.5v-59.5ZM122.6,122.6h59.5v59.5h-59.5v-59.5ZM25,122.6h59.5v59.5H25v-59.5ZM415.5,25h59.5v59.5h-59.5V25ZM317.9,25h59.5v59.5h-59.5V25ZM220.2,25h59.5v59.5h-59.5V25ZM122.6,25h59.5v59.5h-59.5V25ZM25,25h59.5v59.5H25V25Z"/>
</svg>