<svg xmlns="http://www.w3.org/2000/svg" width="512" height="512" viewBox="0 0 512 512"><path fill-rule="evenodd" d="M228.8 228.8H260V260h-31.2zm-51.2 0h31.2V260h-31.2zm-51.2 0h31.2V260h-31.2zm-51.2 0h31.2V260H75.2zm-51.2 0h31.2V260H24zm204.8-51.2H260v31.2h-31.2zm-51.2 0h31.2v31.2h-31.2zm-51.2 0h31.2v31.2h-31.2zm-51.2 0h31.2v31.2H75.2zm-51.2 0h31.2v31.2H24zm204.8-51.2H260v31.2h-31.2zm-51.2 0h31.2v31.2h-31.2zm-51.2 0h31.2v31.2h-31.2zm-51.2 0h31.2v31.2H75.2zm-51.2 0h31.2v31.2H24zm204.8-51.2H260v31.2h-31.2zm-51.2 0h31.2v31.2h-31.2zm-51.2 0h31.2v31.2h-31.2zm-51.2 0h31.2v31.2H75.2zm-51.2 0h31.2v31.2H24zM228.8 24H260v31.2h-31.2zm-51.2 0h31.2v31.2h-31.2zm-51.2 0h31.2v31.2h-31.2zm-51.2 0h31.2v31.2H75.2zM24 24h31.2v31.2H24z"/></svg>