<svg xmlns="http://www.w3.org/2000/svg" width="512" height="512" viewBox="0 0 512 512">
    <path d="M373.7 317.7H416V360h-42.3v-42.3zm-69.4 0h42.3V360h-42.3v-42.3zm-69.5 0h42.3V360h-42.3v-42.3zm-69.4 0h42.3V360h-42.3v-42.3zm-69.4 0h42.3V360H96v-42.3zm277.7-69.4H416v42.3h-42.3v-42.3zm-69.4 0h42.3v42.3h-42.3v-42.3zm-69.5 0h42.3v42.3h-42.3v-42.3zm-69.4 0h42.3v42.3h-42.3v-42.3zm-69.4 0h42.3v42.3H96v-42.3zm277.7-69.5H416v42.3h-42.3v-42.3zm-69.4 0h42.3v42.3h-42.3v-42.3zm-69.5 0h42.3v42.3h-42.3v-42.3zm-69.4 0h42.3v42.3h-42.3v-42.3zm-69.4 0h42.3v42.3H96v-42.3zm277.7-69.4H416v42.3h-42.3v-42.3zm-69.4 0h42.3v42.3h-42.3v-42.3zm-69.5 0h42.3v42.3h-42.3v-42.3zm-69.4 0h42.3v42.3h-42.3v-42.3zm-69.4 0h42.3v42.3H96v-42.3zM373.7 40H416v42.3h-42.3V40zm-69.4 0h42.3v42.3h-42.3V40zm-69.5 0h42.3v42.3h-42.3V40zm-69.4 0h42.3v42.3h-42.3V40zM96 40h42.3v42.3H96V40z"/>
</svg>
