<svg xmlns="http://www.w3.org/2000/svg" width="512" height="512" viewBox="0 0 512 512">
  <path d="M277.396,234.194c24.915-34.797,24.915-81.594,0-116.391,11.372-7.762,24.837-11.876,38.604-11.796,18.569,0,36.364,7.378,49.493,20.507s20.507,30.933,20.507,49.493-7.378,36.373-20.507,49.493c-13.126,13.128-30.929,20.505-49.493,20.507-13.769.081-27.236-4.037-38.604-11.804v-.009ZM126,175.999c0-13.849,4.107-27.378,11.796-38.889,7.69-11.512,18.622-20.483,31.413-25.778,26.156-10.835,56.265-4.846,76.284,15.173,9.787,9.791,16.452,22.263,19.156,35.84,2.702,13.579,1.316,27.653-3.982,40.444-5.295,12.791-14.266,23.724-25.778,31.413-11.513,7.689-25.045,11.793-38.889,11.796-18.569,0-36.373-7.378-49.493-20.507-13.128-13.126-20.505-30.929-20.507-49.493M166,175.999c0,5.938,1.76,11.733,5.058,16.667s7.982,8.782,13.467,11.049c5.483,2.268,11.514,2.861,17.333,1.707,5.822-1.156,11.164-4.018,15.36-8.213,4.195-4.196,7.052-9.541,8.213-15.36,1.156-5.822.56-11.849-1.707-17.333-4.642-11.212-15.58-18.524-27.716-18.524-7.956,0-15.591,3.164-21.209,8.791-5.628,5.624-8.79,13.253-8.791,21.209l-.009.009h0ZM336,365.999v40H56v-40s0-80,140-80,140,80,140,80M296,365.999c-2.8-15.6-26.604-40-100-40s-98.596,26.196-100,40M335.004,285.999c12.257,9.535,22.278,21.637,29.36,35.458,7.085,13.82,11.057,29.023,11.636,44.542v40h80v-40s0-72.596-121.2-80h.204Z"/>
</svg>