<svg xmlns="http://www.w3.org/2000/svg" width="512" height="512" viewBox="0 0 512 512">
  <path d="M256,56c-110,0-200,90-200,200s90,200,200,200,200-90,200-200S366,56,256,56M216.16,139.164c10.569-10.569,24.898-16.498,39.84-16.498s29.271,5.938,39.84,16.498c10.56,10.569,16.498,24.898,16.498,39.84s-5.938,29.271-16.498,39.84c-10.56,10.569-24.898,16.498-39.84,16.498s-29.271-5.938-39.84-16.498c-10.569-10.569-16.498-24.898-16.498-39.84s5.938-29.271,16.498-39.84M256,389.333c-46.951,0-88.453-24.036-112.676-60.098.56-37.556,75.12-58.213,112.676-58.213s112.116,20.658,112.676,58.213c-24.222,36.053-65.724,60.098-112.676,60.098"/>
</svg>