<svg xmlns="http://www.w3.org/2000/svg" width="500" height="500" viewBox="0 0 500 500">
    <path d="M274.07 225.47a112.46 112.46 0 0 0 0-130.94 76.25 76.25 0 0 1 43.43-13.27c20.89 0 40.91 8.3 55.68 23.07s23.07 34.8 23.07 55.68-8.3 40.92-23.07 55.68a78.75 78.75 0 0 1-55.68 23.07 76.2 76.2 0 0 1-43.43-13.28ZM103.75 160c0-15.58 4.62-30.8 13.27-43.75a78.7 78.7 0 0 1 35.34-29 78.75 78.75 0 0 1 85.82 17.07 78.8 78.8 0 0 1 21.55 40.32 78.74 78.74 0 0 1-4.48 45.5 78.7 78.7 0 0 1-29 35.34 78.8 78.8 0 0 1-43.75 13.27c-20.89 0-40.92-8.3-55.68-23.07A78.75 78.75 0 0 1 103.75 160m45 0c0 6.68 1.98 13.2 5.69 18.75s8.98 9.88 15.15 12.43a33.8 33.8 0 0 0 19.5 1.92c6.55-1.3 12.56-4.52 17.28-9.24a33.8 33.8 0 0 0 9.24-17.28c1.3-6.55.63-13.33-1.92-19.5a33.75 33.75 0 0 0-31.18-20.84c-8.95 0-17.54 3.56-23.86 9.89a33.74 33.74 0 0 0-9.89 23.86ZM340 373.75v45H25v-45s0-90 157.5-90 157.5 90 157.5 90m-45 0c-3.15-17.55-29.93-45-112.5-45s-110.92 29.47-112.5 45m268.88-90a119.7 119.7 0 0 1 33.03 39.89A119.6 119.6 0 0 1 385 373.75v45h90v-45s0-81.67-136.35-90z"/>
</svg>
