<svg xmlns="http://www.w3.org/2000/svg" width="512" height="512" viewBox="0 0 512 512">
  <path id="content" d="M256,56c-26.264,0-52.271,5.173-76.537,15.224-24.265,10.051-46.313,24.783-64.884,43.355-37.508,37.508-58.579,88.378-58.579,141.421s21.071,103.915,58.579,141.421c18.572,18.571,40.62,33.304,64.884,43.355,24.266,10.051,50.273,15.224,76.537,15.224,53.043,0,103.915-21.072,141.421-58.579s58.579-88.379,58.579-141.421c0-26.264-5.173-52.271-15.224-76.537-10.051-24.265-24.784-46.313-43.355-64.884-18.571-18.572-40.619-33.304-64.885-43.355-24.264-10.051-50.272-15.224-76.536-15.224ZM157.4,381.6c8.6-18,61-35.6,98.6-35.6s90,17.6,98.6,35.6c-27.2,21.6-61.4,34.4-98.6,34.4s-71.4-12.8-98.6-34.4h0ZM383.2,352.6c-28.6-34.8-98-46.6-127.2-46.6s-98.6,11.8-127.2,46.6c-20.4-26.6-32.8-60.2-32.8-96.6,0-88.2,71.8-160,160-160s160,71.8,160,160c0,36.4-12.4,70-32.8,96.6ZM256,136c-38.8,0-70,31.2-70,70s31.2,70,70,70,70-31.2,70-70-31.2-70-70-70ZM256,236c-7.956,0-15.588-3.161-21.213-8.787-5.626-5.626-8.787-13.257-8.787-21.213s3.161-15.588,8.787-21.213c5.626-5.626,13.257-8.787,21.213-8.787s15.588,3.161,21.213,8.787c5.627,5.626,8.787,13.257,8.787,21.213s-3.16,15.588-8.787,21.213c-5.626,5.626-13.257,8.787-21.213,8.787h0Z"/>
</svg>