<svg xmlns="http://www.w3.org/2000/svg" width="500" height="500" viewBox="0 0 500 500">
  <path id="content" d="M250,25c-29.547,0-58.805,5.82-86.104,17.127-27.298,11.307-52.102,27.881-72.995,48.774C48.705,133.097,25,190.326,25,250s23.705,116.904,65.901,159.099c20.893,20.892,45.697,37.467,72.995,48.774,27.299,11.307,56.557,17.127,86.104,17.127,59.673,0,116.904-23.706,159.099-65.901s65.901-99.426,65.901-159.099c0-29.547-5.82-58.805-17.127-86.104-11.307-27.298-27.882-52.102-48.774-72.995-20.892-20.893-45.696-37.467-72.996-48.774-27.297-11.307-56.556-17.127-86.103-17.127ZM139.075,391.3c9.675-20.25,68.625-40.05,110.925-40.05s101.25,19.8,110.925,40.05c-30.6,24.3-69.075,38.7-110.925,38.7s-80.325-14.4-110.925-38.7ZM393.1,358.675c-32.175-39.15-110.25-52.425-143.1-52.425s-110.925,13.275-143.1,52.425c-22.95-29.925-36.9-67.725-36.9-108.675,0-99.225,80.775-180,180-180s180,80.775,180,180c0,40.95-13.95,78.75-36.9,108.675ZM250,115c-43.65,0-78.75,35.1-78.75,78.75s35.1,78.75,78.75,78.75,78.75-35.1,78.75-78.75-35.1-78.75-78.75-78.75ZM250,227.5c-8.951,0-17.536-3.556-23.865-9.885-6.329-6.329-9.885-14.914-9.885-23.865s3.556-17.536,9.885-23.865c6.329-6.329,14.914-9.885,23.865-9.885s17.536,3.556,23.865,9.885c6.33,6.329,9.885,14.914,9.885,23.865s-3.555,17.536-9.885,23.865c-6.329,6.329-14.914,9.885-23.865,9.885Z"/>
</svg>