<svg xmlns="http://www.w3.org/2000/svg" width="500" height="500" viewBox="0 0 500 500">
    <path d="M250 25C126.25 25 25 126.25 25 250s101.25 225 225 225 225-101.25 225-225S373.75 25 250 25m-44.82 93.56C217.07 106.67 233.19 100 250 100s32.93 6.68 44.82 18.56c11.88 11.89 18.56 28.01 18.56 44.82s-6.68 32.93-18.56 44.82-28.01 18.56-44.82 18.56-32.93-6.68-44.82-18.56c-11.89-11.89-18.56-28.01-18.56-44.82s6.68-32.93 18.56-44.82M250 400c-52.82 0-99.51-27.04-126.76-67.61.63-42.25 84.51-65.49 126.76-65.49s126.13 23.24 126.76 65.49C349.51 372.95 302.82 400 250 400"/>
</svg>
