<svg xmlns="http://www.w3.org/2000/svg" width="512" height="512" viewBox="0 0 512 512">
    <path d="M285.2 472V297.6h177.4v137.3c0 20.5-16.6 37.1-37.1 37.1H285.2zM425.5 59.3H287.2v26.1c11.3 20.3 17.8 43.7 17.8 68.6s-6.5 48.3-17.8 68.6v28.1h175.4V96.4c0-20.5-16.6-37.1-37.1-37.1zM76.6 297.6H51.2v137.3c0 20.5 16.6 37.1 37.1 37.1h154.3V297.6h-33.5c-19.8 10.5-42.3 16.5-66.3 16.5-23.9 0-46.4-6-66.2-16.5zM260.5 153.2c0 66.7-54.1 120.6-120.6 120.6s-120.6-54-120.6-120.6 54-120.7 120.6-120.7 120.6 54 120.6 120.7zm-105.3-15.1v-55H125v54.8H70.2v30.2H125v54.8h30.2v-54.8H210v-30.2c0 .1-54.8.2-54.8.2z"/>
</svg>
