<svg xmlns="http://www.w3.org/2000/svg" width="512" height="512" viewBox="0 0 512 512">
    <path d="M384.2 469.7v-35h47.5v35-6 6h-47.5zm-50.4 0h-50.4v-35h50.4v35zm-100.7 0h-50.4v-35h50.4v35zm-100.8 0H81.9v-35h50.4v35zm-56.5-35.6l-28.5-.3h-6.5v-47.4h35v47.7zm391.7-5.6h-35v-50.4h35v50.4zM75.9 336h-35v-50.4h35V336zm391.6-8.2h-35v-50.4h35v50.4zM75.9 235.2h-35v-40.4h35v40.4zm391.6-8.2h-35v-50.4h35V227zm0-100.8h-35V78.9l35-.1v47.4zM426.4 78H376V43h50.4v35zm-100.8 0h-50.4V43h50.4v35zm-100.7 0h-40.4V43h40.4v35zm-36.3 35.9c0 46.6-37.8 84.3-84.3 84.3S20 160.5 20 113.9s37.8-84.3 84.3-84.3 84.3 37.7 84.3 84.3zM115 103.4V65H93.9v38.3H55.6v21.1h38.3v38.3H115v-38.3h38.3v-21.1l-38.3.1z"/>
</svg>
