<svg xmlns="http://www.w3.org/2000/svg" width="512" height="512" viewBox="0 0 512 512">
    <path d="M137.9 305.8c1.2 2.2 2 4.7 2 7.6l-9 46.6 41.7-16.4c2-.9 4.2-1.2 6.4-1.2 2 0 4.1.3 5.8 1.1h.1c.3.1.7.2.9.3 13.2 5.5 27.8 8.4 43 8.4 34.3 0 65-15.2 85.2-39-10.5 2.7-21.5 4.2-32.7 4.2-71-.1-128.8-55.8-128.8-124.4 0-8.8 1-17.2 2.8-25.4-22.3 19.5-36.2 47.4-36.2 78.5 0 21 6.3 40.9 17.4 57.5.5.7 1 1.5 1.4 2.2z"/>
    <path d="M299 51.2c-62.1 0-114.1 42.5-126.2 98.8-1.8 8.2-2.8 16.8-2.8 25.4 0 68.6 57.7 124.3 128.9 124.3 11.4 0 22.3-1.6 32.7-4.2 6-1.6 11.9-3.4 17.7-5.7.3-.1.7-.3 1.1-.5.1 0 .1 0 .1-.1 2.1-.9 4.5-1.2 6.9-1.2 2.7 0 5.2.6 7.5 1.5l51 19.1-12.7-54.8c0-3.3.9-6.3 2.5-9 .5-.9 1.1-1.6 1.6-2.2 12.8-19.5 20.4-42.5 20.4-67.2.3-68.5-57.3-124.2-128.7-124.2zM124.3 0h38.9v118.9h-38.9V0z"/>
    <path d="M84.4 79V40h118.9v38.9L84.4 79z"/>
</svg>
