<svg xmlns="http://www.w3.org/2000/svg" width="512" height="512" viewBox="0 0 512 512">
    <path d="M384.2 469.7v-35h47.5v35-6 6zm-100.8-35h50.4v35h-50.4zm-50.3 35h-50.4v-35h50.4v35zm-100.8 0H81.9v-35h50.4v35zm-56.5-35.6l-28.5-.3h-6.5v-47.4h35v47.7zm356.7-56h35v50.4h-35zM40.9 285.6h35V336h-35zm391.6-8.2h35v50.4h-35zm0-100.8h35V227h-35zm35-50.4h-35V78.9l35-.1zM376 43h50.4v35H376zm-100.8 0h50.4v35h-50.4zm18.4 136.6c0 66.7-54.1 120.6-120.6 120.6s-120.6-54-120.6-120.6S106.4 58.9 173 58.9s120.6 54 120.6 120.7zm-105.3-15.1v-55h-30.2v54.8h-54.8v30.2h54.8v54.8h30.2v-54.8h54.8v-30.2c0 .1-54.8.2-54.8.2z"/>
</svg>
