<?xml version="1.0" encoding="UTF-8"?>
<svg id="Layer_1" xmlns="http://www.w3.org/2000/svg" version="1.1" viewBox="0 0 500 500">
  <!-- Generator: Adobe Illustrator 29.1.0, SVG Export Plug-In . SVG Version: 2.1.0 Build 142)  -->
  <path d="M141.9,224.9c-2.2,10-3.4,20.3-3.4,31.1,0,83.9,70.7,152,157.5,152.1,13.7,0,27.1-1.8,40-5.1-24.7,29.1-62.2,47.7-104.2,47.7s-36.4-3.5-52.6-10.3c-.2-.1-.7-.2-1.1-.4h-.1c-2.1-1-4.6-1.3-7.1-1.3s-5.4.4-7.8,1.5l-51,20.1,11-57c0-3.5-1-6.6-2.4-9.3-.5-.9-1.1-1.8-1.7-2.7-13.6-20.3-21.3-44.6-21.3-70.3,0-38,17-72.1,44.3-96M317.6,85.3c87.3,0,157.7,68.1,157.4,151.9,0,30.2-9.3,58.3-24.9,82.2-.6.7-1.3,1.6-2,2.7-2,3.3-3.1,7-3.1,11l15.5,67-62.4-23.4c-2.8-1.1-5.9-1.8-9.2-1.8s-5.9.4-8.4,1.5q0,.1-.1.1c-.5.2-1,.5-1.3.6-7.1,2.8-14.3,5-21.6,7-12.7,3.2-26,5.1-40,5.1-87.1,0-157.6-68.1-157.6-152s1.2-21,3.4-31.1c14.8-68.8,78.4-120.8,154.3-120.8M121.3,39.9v46.5h49v47.6h-49v51.4h-47.6v-51.3H25s0-47.6,0-47.6h48.8v-46.5h47.6Z"/>
</svg>