<svg xmlns="http://www.w3.org/2000/svg" width="512" height="512" viewBox="0 0 512 512">
    <path d="M197.7 291.9V404H85.6V291.9h112.1m8.4-30H77.2c-11.9 0-21.6 9.7-21.6 21.6v128.9c0 11.9 9.7 21.6 21.6 21.6h128.9c11.9 0 21.6-9.7 21.6-21.6V283.5c0-12-9.7-21.6-21.6-21.6zM197.7 95v112.1H85.6V95h112.1m8.4-30H77.2c-11.9 0-21.6 9.7-21.6 21.6v128.9c0 11.9 9.7 21.6 21.6 21.6h128.9c11.9 0 21.6-9.7 21.6-21.6V86.6c0-11.9-9.7-21.6-21.6-21.6zM275 415.8l53-17.9 139.1-138.2-35.8-35.7-138.5 138.8-17.8 53zm16-208.7V95h112.1v56.1h30V86.6c0-11.9-9.7-21.6-21.6-21.6H282.6c-11.9 0-21.6 9.7-21.6 21.6v128.9c0 11.9 9.7 21.6 21.6 21.6h64.5v-30H291z"/>
</svg>
