<?xml version="1.0" encoding="UTF-8"?>
<svg id="Layer_1" xmlns="http://www.w3.org/2000/svg" version="1.1" viewBox="0 0 500 500">
  <!-- Generator: Adobe Illustrator 29.1.0, SVG Export Plug-In . SVG Version: 2.1.0 Build 142)  -->
  <path d="M180.4,296.4v122.6H57.8v-122.6h122.6ZM189.6,263.6H48.6c-13,0-23.6,10.6-23.6,23.6v141c0,13,10.6,23.6,23.6,23.6h141c13,0,23.6-10.6,23.6-23.6v-141c0-13.1-10.6-23.6-23.6-23.6M180.4,81v122.6H57.8v-122.6h122.6ZM189.6,48.2H48.6c-13,0-23.6,10.6-23.6,23.6v141c0,13,10.6,23.6,23.6,23.6h141c13,0,23.6-10.6,23.6-23.6V71.9c0-13-10.6-23.6-23.6-23.6M264.9,431.9l58-19.6,152.1-151.1-39.1-39-151.5,151.8-19.5,58ZM282.4,203.6v-122.6h122.6v61.3h32.8v-70.5c0-13-10.6-23.6-23.6-23.6h-141c-13,0-23.6,10.6-23.6,23.6v141c0,13,10.6,23.6,23.6,23.6h70.5v-32.8h-61.3Z"/>
</svg>