<svg xmlns="http://www.w3.org/2000/svg" width="512" height="512" viewBox="0 0 512 512">
    <g fill-rule="nonzero">
        <path d="M167.624 235.45c-1.8 8.2-2.8 16.6-2.8 25.4 0 68.6 57.8 124.3 128.8 124.4 11.2 0 22.2-1.5 32.7-4.2-20.2 23.8-50.9 39-85.2 39-15.2 0-29.8-2.9-43-8.4-.2-.1-.6-.2-.9-.3h-.1c-1.7-.8-3.8-1.1-5.8-1.1-2.2 0-4.4.3-6.4 1.2l-41.7 16.4 9-46.6c0-2.9-.8-5.4-2-7.6-.4-.7-.9-1.5-1.4-2.2-11.1-16.6-17.4-36.5-17.4-57.5 0-31.1 13.9-59 36.2-78.5zm143.7-114.15c71.4 0 129 55.7 128.701 124.2 0 24.7-7.601 47.7-20.401 67.2-.5.6-1.1 1.3-1.6 2.2-1.6 2.7-2.5 5.7-2.5 9l12.7 54.8-51-19.1c-2.3-.9-4.8-1.5-7.5-1.5-2.4 0-4.8.3-6.9 1.2 0 .1 0 .1-.1.1-.4.2-.8.4-1.1.5-5.8 2.3-11.7 4.1-17.7 5.7-10.4 2.6-21.3 4.2-32.7 4.2-71.2 0-128.9-55.7-128.9-124.3 0-8.6 1-17.2 2.8-25.4 12.1-56.3 64.1-98.8 126.2-98.8zM150.774 84.15v38h40.1v38.9l-40.1.034v41.966h-38.9v-41.934l-39.9.034v-39h39.9v-38h38.9z"/>
    </g>
</svg>
