<?xml version="1.0" encoding="UTF-8"?>
<svg width="512px" height="512px" viewBox="0 0 512 512" version="1.1" xmlns="http://www.w3.org/2000/svg" xmlns:xlink="http://www.w3.org/1999/xlink">
    <!-- Generator: Sketch 62 (91390) - https://sketch.com -->
    <title>add-chatbubbles</title>
    <desc>Created with Sketch.</desc>
    <g id="add-chatbubbles" stroke="none" stroke-width="1" fill="none" fill-rule="evenodd">
        <g id="Group" transform="translate(71.973838, 84.150000)" fill="#000000" fill-rule="nonzero">
            <path d="M95.65,151.3 C93.85,159.5 92.85,167.9 92.85,176.7 C92.85,245.3 150.65,301 221.65,301.1 C232.85,301.1 243.85,299.6 254.35,296.9 C234.15,320.7 203.45,335.9 169.15,335.9 C153.95,335.9 139.35,333 126.15,327.5 C125.95,327.4 125.55,327.3 125.25,327.2 L125.25,327.2 L125.15,327.2 C123.45,326.4 121.35,326.1 119.35,326.1 C117.15,326.1 114.95,326.4 112.95,327.3 L112.95,327.3 L71.25,343.7 L80.25,297.1 C80.25,294.2 79.45,291.7 78.25,289.5 C77.85,288.8 77.35,288 76.85,287.3 C65.75,270.7 59.45,250.8 59.45,229.8 C59.45,198.7 73.35,170.8 95.65,151.3 Z M239.35,37.15 C310.75,37.15 368.35,92.85 368.051167,161.35 C368.051167,186.05 360.45,209.05 347.65,228.55 C347.15,229.15 346.55,229.85 346.05,230.75 C344.45,233.45 343.55,236.45 343.55,239.75 L343.55,239.75 L356.25,294.55 L305.25,275.45 C302.95,274.55 300.45,273.95 297.75,273.95 C295.35,273.95 292.95,274.25 290.85,275.15 C290.85,275.25 290.85,275.25 290.75,275.25 C290.35,275.45 289.95,275.65 289.65,275.75 C283.85,278.05 277.95,279.85 271.95,281.45 C261.55,284.05 250.65,285.65 239.25,285.65 C168.05,285.65 110.35,229.95 110.35,161.35 C110.35,152.75 111.35,144.15 113.15,135.95 C125.25,79.65 177.25,37.15 239.35,37.15 Z" id="Combined-Shape"></path>
            <path d="M78.8,-1.42108547e-13 L78.8,38 L118.9,38 L118.9,76.9 L78.8,76.934 L78.8,118.9 L39.9,118.9 L39.9,76.966 L-3.69482223e-13,77 L-3.69482223e-13,38 L39.9,38 L39.9,-1.42108547e-13 L78.8,-1.42108547e-13 Z" id="Combined-Shape"></path>
        </g>
    </g>
</svg>