<svg xmlns="http://www.w3.org/2000/svg" width="512" height="512" viewBox="0 0 512 512">
  <path d="M194.129,297.215v108.967h-108.967v-108.967h108.967ZM202.294,268.053h-125.298c-11.567,0-20.996,9.429-20.996,20.996v125.298c0,11.567,9.429,20.996,20.996,20.996h125.298c11.567,0,20.996-9.429,20.996-20.996v-125.298c0-11.665-9.429-20.996-20.996-20.996M194.129,105.818v108.967h-108.967v-108.967h108.967ZM202.294,76.656h-125.298c-11.567,0-20.996,9.429-20.996,20.996v125.298c0,11.567,9.429,20.996,20.996,20.996h125.298c11.567,0,20.996-9.429,20.996-20.996v-125.298c0-11.567-9.429-20.996-20.996-20.996M269.268,417.652l51.519-17.4,135.212-134.338-34.799-34.702-134.629,134.921-17.302,51.519h0ZM284.821,214.785v-108.967h108.967v54.532h29.162v-62.698c0-11.567-9.429-20.996-20.996-20.996h-125.298c-11.567,0-20.996,9.429-20.996,20.996v125.298c0,11.567,9.429,20.996,20.996,20.996h62.698v-29.162h-54.532Z"/>
</svg>