<svg xmlns="http://www.w3.org/2000/svg" width="512" height="512" viewBox="0 0 512 512">
    <path d="M316.3 315.35v-41.4c0-3.7-1.9-6.9-5.7-9.4l-51.8-24.4c13.2-8.2 19.8-21.3 19.8-39.6 0-12.5-3.7-23.2-11.3-32-7.6-8.8-16.7-13.2-27.3-13.2-10.7 0-19.8 4.4-27.3 13.2-7.6 8.8-11.3 19.5-11.3 32 0 17.6 6.9 30.8 20.7 39.6l-52.8 24.3c-3.1 1.9-4.7 5-4.7 9.4v41.4c0 6.9 2.8 10.4 8.5 10.4h133.7c6.3 0 9.5-3.4 9.5-10.3zm90.3-155.4H384v28.3h22.6c6.3 0 9.4 3.1 9.4 9.4v28.3c0 6.3-3.1 9.4-9.4 9.4H384v27.3h22.6c6.3 0 9.4 3.4 9.4 10.4v28.3c0 6.3-3.1 9.4-9.4 9.4H384v27.2h22.6c6.3 0 9.4 3.4 9.4 10.4v28.3c0 6.3-3.1 9.4-9.4 9.4H384v8.5c0 10-5 15-15 15H111c-10 0-15-5-15-15v-290.1c0-10 5-15 15-15h257.9c10 0 15 5 15 15v8.5h22.6c6.3 0 9.4 3.1 9.4 9.4v28.3c.1 6.2-3 9.3-9.3 9.3z"/>
</svg>
