<?xml version="1.0" encoding="UTF-8"?>
<svg id="Layer_1" xmlns="http://www.w3.org/2000/svg" version="1.1" viewBox="0 0 500 500">
  <!-- Generator: Adobe Illustrator 29.1.0, SVG Export Plug-In . SVG Version: 2.1.0 Build 142)  -->
  <path d="M334.8,342.6v-58.2c0-5.2-2.7-9.7-8-13.2l-72.8-34.3c18.6-11.5,27.8-29.9,27.8-55.7s-5.2-32.6-15.9-45c-10.7-12.4-23.5-18.6-38.4-18.6s-27.8,6.2-38.4,18.6c-10.7,12.4-15.9,27.4-15.9,45s9.7,43.3,29.1,55.7l-74.2,34.2c-4.4,2.7-6.6,7-6.6,13.2v58.2c0,9.7,3.9,14.6,11.9,14.6h188c8.9,0,13.4-4.8,13.4-14.5M461.7,124.1h-31.8v39.8h31.8c8.9,0,13.2,4.4,13.2,13.2v39.8c0,8.9-4.4,13.2-13.2,13.2h-31.8v38.4h31.8c8.9,0,13.2,4.8,13.2,14.6v39.8c0,8.9-4.4,13.2-13.2,13.2h-31.8v38.2h31.8c8.9,0,13.2,4.8,13.2,14.6v39.8c0,8.9-4.4,13.2-13.2,13.2h-31.8v11.9c0,14.1-7,21.1-21.1,21.1H46.2c-14.1,0-21.1-7-21.1-21.1V46.1c0-14.1,7-21.1,21.1-21.1h362.6c14.1,0,21.1,7,21.1,21.1v11.9h31.8c8.9,0,13.2,4.4,13.2,13.2v39.8c.1,8.7-4.2,13.1-13.1,13.1"/>
</svg>