<svg xmlns="http://www.w3.org/2000/svg" width="512" height="512" viewBox="0 0 512 512">
  <path d="M331.375,338.313v-51.75c0-4.625-2.375-8.625-7.125-11.75l-64.75-30.5c16.5-10.25,24.75-26.625,24.75-49.5,0-15.625-4.625-29-14.125-40-9.5-11-20.875-16.5-34.125-16.5-13.375,0-24.75,5.5-34.125,16.5-9.5,11-14.125,24.375-14.125,40,0,22,8.625,38.5,25.875,49.5l-66,30.375c-3.875,2.375-5.875,6.25-5.875,11.75v51.75c0,8.625,3.5,13,10.625,13h167.125c7.875,0,11.875-4.25,11.875-12.875M444.25,144.063h-28.25v35.375h28.25c7.875,0,11.75,3.875,11.75,11.75v35.375c0,7.875-3.875,11.75-11.75,11.75h-28.25v34.125h28.25c7.875,0,11.75,4.25,11.75,13v35.375c0,7.875-3.875,11.75-11.75,11.75h-28.25v34h28.25c7.875,0,11.75,4.25,11.75,13v35.375c0,7.875-3.875,11.75-11.75,11.75h-28.25v10.625c0,12.5-6.25,18.75-18.75,18.75H74.75c-12.5,0-18.75-6.25-18.75-18.75V74.688c0-12.5,6.25-18.75,18.75-18.75h322.375c12.5,0,18.75,6.25,18.75,18.75v10.625h28.25c7.875,0,11.75,3.875,11.75,11.75v35.375c.125,7.75-3.75,11.625-11.625,11.625"/>
</svg>