<?xml version="1.0" encoding="UTF-8"?>
<svg width="512px" height="512px" viewBox="0 0 512 512" version="1.1" xmlns="http://www.w3.org/2000/svg" xmlns:xlink="http://www.w3.org/1999/xlink">
    <!-- Generator: Sketch 62 (91390) - https://sketch.com -->
    <title>alert-circled</title>
    <desc>Created with Sketch.</desc>
    <g id="alert-circled" stroke="none" stroke-width="1" fill="none" fill-rule="evenodd">
        <path d="M439.9,388 L267.8,96.7 C265.3,92.5 260.9,89.5 256,89.5 C251.1,89.5 246.6,92.5 244.2,96.7 L72.1,388 C69.8,392.2 68.1,398.8 70.5,402.9 C73,407 77.3,409.5 82.1,409.5 L429.7,409.5 C434.5,409.5 438.9,407 441.3,402.9 C444,398.9 442.2,392.1 439.9,388 L439.9,388 Z M282.7,369.6 L229.4,369.6 L229.4,329.6 L282.7,329.6 L282.7,369.6 Z M282.7,302.9 L229.4,302.9 L229.4,182.8 L282.7,182.8 L282.7,302.9 L282.7,302.9 Z" id="Shape" fill="#000000" fill-rule="nonzero"></path>
    </g>
</svg>