<svg xmlns="http://www.w3.org/2000/svg" width="512" height="512" viewBox="0 0 512 512">
  <path id="error--alert-circle" d="M236,316h40v40h-40v-40ZM236,156h40v120h-40v-120ZM256,56c-110.6,0-200,90-200,200s21.1,103.9,58.6,141.4c18.6,18.6,40.6,33.3,64.9,43.4,24.3,10.1,50.3,15.2,76.5,15.2,53,0,103.9-21.1,141.4-58.6,37.5-37.5,58.6-88.4,58.6-141.4s-5.2-52.3-15.2-76.5c-10.1-24.3-24.8-46.3-43.4-64.9-18.6-18.6-40.6-33.3-64.9-43.4-24.3-10.1-50.3-15.2-76.5-15.2ZM256,416c-42.4,0-83.1-16.9-113.1-46.9-30-30-46.9-70.7-46.9-113.1s16.9-83.1,46.9-113.1c30-30,70.7-46.9,113.1-46.9s83.1,16.9,113.1,46.9c30,30,46.9,70.7,46.9,113.1s-16.9,83.1-46.9,113.1c-30,30-70.7,46.9-113.1,46.9Z"/>
</svg>