<svg xmlns="http://www.w3.org/2000/svg" width="512" height="512" viewBox="0 0 512 512">
    <path d="M238.4 269.7H267v64.5h-28.6zm0 78.9H267v21.5h-28.6z"/>
    <path d="M374.2 212.9c-28.6-30-66.6-48.2-107.6-51.5V65.1l83.9 75.4c2.6 2.3 5.9 3.6 9.3 3.6 3.9 0 7.7-1.7 10.4-4.6 5.1-5.7 4.7-14.5-1-19.7l-107-96.2-.6-.6-.2-.1c-.1-.1-.2-.2-.4-.3 0 0-.1 0-.1-.1l-.3-.3-.6-.3c-.1-.1-.2-.1-.3-.2l-1.1-1.1h-1.1c-.3-.1-.6-.2-1-.3-.4-.1-.8-.2-1.2-.2-.3-.1-.8-.1-1.3-.1h-2.6c-.6 0-1 .1-1.3.1-.2 0-.3 0-.4.1h-.7l-.6.3h-.5l-1.8.9c-.3.1-.5.3-.7.4l-.2.1h-.4L136 119.5c-2.8 2.5-4.4 5.9-4.6 9.6-.2 3.7 1.1 7.3 3.6 10.1 2.7 2.9 6.4 4.6 10.4 4.6 3.4 0 6.7-1.3 9.3-3.6l83.9-75.4V161C152.1 168.5 85 241.1 85 328.5c0 92.5 75.3 167.8 167.8 167.8 92.5 0 167.8-75.3 167.8-167.8-.1-43.2-16.6-84.2-46.4-115.6zm-28.1 178.7H159.4c-2.6 0-4.9-1.4-6.2-3.5-1.3-2.3-.4-5.8.9-8l92.5-156.4c1.3-2.3 3.6-3.9 6.3-3.9 2.6 0 5 1.6 6.3 3.9L351.6 380c1.3 2.3 2.1 5.9.8 8-1.3 2.2-3.7 3.6-6.3 3.6z"/>
</svg>
