<svg xmlns="http://www.w3.org/2000/svg" width="512" height="512" viewBox="0 0 512 512">
    <path d="M257.288 69.55c.232.003.637.025.812.2.2 0 .6 0 .9.1.4.1.6.1.8.2h.8l.8.8c.1 0 .1 0 .2.1l.4.2.4.3c0 .1.1.1.1.1.2.1.2.1.3.2l.5.5 80.7 72.7c4.4 3.9 4.7 10.5.8 14.8-2.2 2.3-5 3.5-7.9 3.5-2.7 0-5.1-1-7.1-2.7l-63.4-56.9v72.6c31 2.5 59.7 16.3 81.3 38.9 22.5 23.7 34.8 54.7 35.4 87.6 0 69.8-56.9 126.7-126.7 126.7s-126.7-56.9-126.7-126.7c0-66.1 50.7-120.9 115.9-126.5v-72.6l-63.4 56.9c-2 1.8-4.5 2.7-7.1 2.7-3.1 0-5.9-1.3-7.9-3.5-1.9-2.1-2.8-4.8-2.7-7.6.1-2.9 1.4-5.4 3.5-7.3l82.3-73.8h.3l.1-.1.6-.3 1.3-.7h.4l.4-.2h.6c.1-.1.2-.1.3-.1s.5-.1.9-.1zm-1.388 150.8c-2 0-3.8 1.2-4.7 2.9l-69.8 118.1c-1 1.7-1.6 4.4-.7 6.1 1 1.6 2.7 2.6 4.7 2.6h141c2 0 3.8-1 4.7-2.6.9-1.7.2-4.4-.7-6.1l-69.8-118.1c-.9-1.7-2.7-2.9-4.7-2.9m9.7 88.65v14.4h-19.2V309zm0-53v43.3h-19.2V256z"/>
</svg>
