<svg xmlns="http://www.w3.org/2000/svg" width="512" height="512" viewBox="0 0 512 512">
    <path d="M246.4 187.6h19.2v43.3h-19.2v-43.3zm0 53h19.2V255h-19.2v-14.4z"/>
    <path d="M347.7 145.6c-21.6-22.6-50.3-36.4-81.3-38.9V34.1L329.8 91c2 1.7 4.4 2.7 7.1 2.7 2.9 0 5.7-1.2 7.9-3.5 3.9-4.3 3.6-10.9-.8-14.8L263.3 2.7l-.4-.4-.1-.1c-.1-.1-.1-.1-.3-.2 0 0-.1 0-.1-.1l-.4-.3-.4-.2c-.1-.1-.1-.1-.2-.1l-.8-.8h-.8c-.2-.1-.4-.1-.8-.2-.3-.1-.7-.1-.9-.1-.2-.2-.7-.2-.9-.2h-2c-.4 0-.8.1-.9.1-.1 0-.2 0-.3.1h-.6l-.4.2h-.4l-1.3.7-.6.3-.1.1h-.3L168 75.3c-2.1 1.9-3.4 4.4-3.5 7.3-.1 2.8.8 5.5 2.7 7.6 2 2.2 4.8 3.5 7.9 3.5 2.6 0 5.1-.9 7.1-2.7l63.4-56.9v72.6c-65.2 5.6-115.9 60.4-115.9 126.5 0 69.8 56.9 126.7 126.7 126.7S383.1 303 383.1 233.2c-.6-32.9-12.9-63.9-35.4-87.6zm-21.3 134.9h-141c-2 0-3.7-1-4.7-2.6-.9-1.7-.3-4.4.7-6.1l69.8-118.1c.9-1.7 2.7-2.9 4.7-2.9s3.8 1.2 4.7 2.9l69.8 118.1c.9 1.7 1.6 4.4.7 6.1-.9 1.6-2.7 2.6-4.7 2.6z"/>
</svg>
