<svg xmlns="http://www.w3.org/2000/svg" width="512" height="512" viewBox="0 0 512 512">
  <path d="M256.989,56.002c.258.004.708.028.902.222.222,0,.667,0,1,.111.444.111.667.111.889.222h.889l.889.889c.074,0,.148.037.222.111l.444.222.444.333c0,.111.111.111.111.111.148.074.259.148.333.222l.556.556,89.692,80.8c4.891,4.334,5.224,11.67.889,16.449-2.445,2.556-5.557,3.89-8.78,3.89-3.001,0-5.668-1.111-7.891-3.001l-70.464-63.24v80.689c34.454,2.779,66.352,18.116,90.358,43.235,25.007,26.34,38.677,60.795,39.344,97.36,0,77.577-63.24,140.817-140.817,140.817s-140.817-63.24-140.817-140.817c0-73.465,56.349-134.371,128.813-140.595v-80.689l-70.464,63.24c-2.223,2.001-5.002,3.001-7.891,3.001-3.445,0-6.557-1.444-8.78-3.89-2.112-2.334-3.112-5.335-3.001-8.447.111-3.223,1.556-6.002,3.89-8.114l91.47-82.023h.333l.111-.111.667-.333,1.444-.778h.444l.444-.222h.667c.111-.111.222-.111.333-.111s.556-.111,1-.111h2.321l.004.002ZM255.447,223.604c-2.223,0-4.223,1.333-5.224,3.223l-77.577,131.259c-1.111,1.89-1.779,4.891-.778,6.78,1.111,1.779,3.001,2.89,5.224,2.89h156.71c2.223,0,4.223-1.111,5.224-2.89,1-1.89.222-4.891-.778-6.78l-77.577-131.259c-1-1.89-3.001-3.223-5.224-3.223M266.228,322.132v16.004h-21.34v-16.004h21.34ZM266.228,263.226v48.124h-21.34v-48.124h21.34Z"/>
</svg>