<?xml version="1.0" encoding="UTF-8"?>
<svg width="512px" height="512px" viewBox="0 0 512 512" version="1.1" xmlns="http://www.w3.org/2000/svg" xmlns:xlink="http://www.w3.org/1999/xlink">
    <!-- Generator: Sketch 62 (91390) - https://sketch.com -->
    <title>alert-send</title>
    <desc>Created with Sketch.</desc>
    <g id="alert-send" stroke="none" stroke-width="1" fill="none" fill-rule="evenodd">
        <path d="M257.287891,69.5503906 C257.520312,69.553125 257.925,69.575 258.1,69.75 C258.3,69.75 258.7,69.75 259,69.85 C259.4,69.95 259.6,69.95 259.8,70.05 L259.8,70.05 L260.6,70.05 L261.4,70.85 C261.5,70.85 261.5,70.85 261.6,70.95 L261.6,70.95 L262,71.15 L262.4,71.45 C262.4,71.55 262.5,71.55 262.5,71.55 C262.7,71.65 262.7,71.65 262.8,71.75 L263.3,72.25 L344,144.95 C348.4,148.85 348.7,155.45 344.8,159.75 C342.6,162.05 339.8,163.25 336.9,163.25 C334.2,163.25 331.8,162.25 329.8,160.55 L329.8,160.55 L266.4,103.65 L266.4,176.25 C297.4,178.75 326.1,192.55 347.7,215.15 C370.2,238.85 382.5,269.85 383.1,302.75 C383.1,372.55 326.2,429.45 256.4,429.45 C186.6,429.45 129.7,372.55 129.7,302.75 C129.7,236.65 180.4,181.85 245.6,176.25 L245.6,176.25 L245.6,103.65 L182.2,160.55 C180.2,162.35 177.7,163.25 175.1,163.25 C172,163.25 169.2,161.95 167.2,159.75 C165.3,157.65 164.4,154.95 164.5,152.15 C164.6,149.25 165.9,146.75 168,144.85 L168,144.85 L250.3,71.05 L250.6,71.05 L250.7,70.95 L251.3,70.65 L252.6,69.95 L253,69.95 L253.4,69.75 L254,69.75 C254.1,69.65 254.2,69.65 254.3,69.65 C254.4,69.65 254.8,69.55 255.2,69.55 L255.2,69.55 Z M255.9,220.35 C253.9,220.35 252.1,221.55 251.2,223.25 L251.2,223.25 L181.4,341.35 C180.4,343.05 179.8,345.75 180.7,347.45 C181.7,349.05 183.4,350.05 185.4,350.05 L185.4,350.05 L326.4,350.05 C328.4,350.05 330.2,349.05 331.1,347.45 C332,345.75 331.3,343.05 330.4,341.35 L330.4,341.35 L260.6,223.25 C259.7,221.55 257.9,220.35 255.9,220.35 Z M265.6,309 L265.6,323.4 L246.4,323.4 L246.4,309 L265.6,309 Z M265.6,256 L265.6,299.3 L246.4,299.3 L246.4,256 L265.6,256 Z" id="Combined-Shape" fill="#000000" fill-rule="nonzero"></path>
    </g>
</svg>