<?xml version="1.0" encoding="UTF-8"?>
<svg id="Layer_1" xmlns="http://www.w3.org/2000/svg" version="1.1" viewBox="0 0 500 500">
  <!-- Generator: Adobe Illustrator 29.1.0, SVG Export Plug-In . SVG Version: 2.1.0 Build 142)  -->
  <path d="M251.1,25c.3,0,.8,0,1,.3.3,0,.8,0,1.1.1.5.1.8.1,1,.3h1l1,1q.1,0,.3.1l.5.3.5.4c0,.1.1.1.1.1q.3.1.4.3l.6.6,100.9,90.9c5.5,4.9,5.9,13.1,1,18.5-2.8,2.9-6.3,4.4-9.9,4.4s-6.4-1.3-8.9-3.4l-79.3-71.1v90.8c38.8,3.1,74.6,20.4,101.7,48.6,28.1,29.6,43.5,68.4,44.3,109.5,0,87.3-71.1,158.4-158.4,158.4s-158.4-71.1-158.4-158.4,63.4-151.2,144.9-158.2v-90.8l-79.3,71.1c-2.5,2.3-5.6,3.4-8.9,3.4s-7.4-1.6-9.9-4.4c-2.4-2.6-3.5-6-3.4-9.5.1-3.6,1.8-6.8,4.4-9.1L242.4,26.9h.5c0-.1.8-.5.8-.5l1.6-.9h.5l.5-.3h.8c.1-.1.3-.1.4-.1s.6-.1,1.1-.1h2.6ZM249.4,213.6c-2.5,0-4.8,1.5-5.9,3.6l-87.3,147.7c-1.3,2.1-2,5.5-.9,7.6,1.3,2,3.4,3.3,5.9,3.3h176.3c2.5,0,4.8-1.3,5.9-3.3,1.1-2.1.3-5.5-.9-7.6l-87.3-147.7c-1.1-2.1-3.4-3.6-5.9-3.6M261.5,324.4v18h-24v-18h24ZM261.5,258.1v54.1h-24v-54.1h24Z"/>
</svg>