<?xml version="1.0" encoding="UTF-8"?>
<svg id="Layer_1" xmlns="http://www.w3.org/2000/svg" version="1.1" viewBox="0 0 500 500">
  <!-- Generator: Adobe Illustrator 29.1.0, SVG Export Plug-In . SVG Version: 2.1.0 Build 142)  -->
  <path d="M351.2,42.4c-39.4,0-76.5,18.1-101.2,47.5-24.8-29.4-61.9-47.5-101.2-47.5-69.8,0-123.8,54.3-123.8,124.5s76.5,155.1,192.4,261.4l32.6,29.4,32.6-29.4c115.9-106.3,192.4-175.4,192.4-261.4s-54-124.5-123.8-124.5M263.9,398.4l-4.5,4.2-9.3,8.4-9.3-8.4-4.5-4.2c-54.6-50.1-101.7-93.2-132.8-131.9-30.2-37.5-43.7-68.3-43.7-99.7s9.1-47.5,25.6-64.1c16.5-16.6,39.1-25.7,63.4-25.7s56.2,13.2,74.8,35.2l26.3,31.4,26.4-31.5c18.6-21.9,46.5-35,74.8-35s47,9.1,63.4,25.7c16.6,16.6,25.6,39.4,25.6,64.1s-13.5,62.2-43.7,99.7c-31.1,38.5-78,81.8-132.6,131.9"/>
</svg>