<?xml version="1.0" encoding="UTF-8"?>
<svg width="512px" height="512px" viewBox="0 0 512 512" version="1.1" xmlns="http://www.w3.org/2000/svg" xmlns:xlink="http://www.w3.org/1999/xlink">
    <!-- Generator: Sketch 62 (91390) - https://sketch.com -->
    <title>android-favorite-outline</title>
    <desc>Created with Sketch.</desc>
    <g id="android-favorite-outline" stroke="none" stroke-width="1" fill="none" fill-rule="evenodd">
        <path d="M328,101.85 C300,101.85 273.6,114.75 256,135.65 C238.4,114.75 212,101.85 184,101.85 C134.4,101.85 96,140.45 96,190.35 C96,251.55 150.4,300.65 232.8,376.25 L256,397.15 L279.2,376.25 C361.6,300.65 416,251.55 416,190.35 C416,140.45 377.6,101.85 328,101.85 Z M265.9,355.05 L262.7,358.05 L256.1,364.05 L249.5,358.05 L246.3,355.05 C207.5,319.45 174,288.75 151.9,261.25 C130.4,234.55 120.8,212.65 120.8,190.35 C120.8,172.75 127.3,156.55 139,144.75 C150.7,132.95 166.8,126.45 184.1,126.45 C204.2,126.45 224.1,135.85 237.3,151.45 L256,173.75 L274.8,151.35 C288,135.75 307.9,126.45 328,126.45 C345.4,126.45 361.4,132.95 373.1,144.75 C384.9,156.55 391.3,172.75 391.3,190.35 C391.3,212.65 381.7,234.55 360.2,261.25 C338.1,288.65 304.7,319.45 265.9,355.05 L265.9,355.05 Z" id="Shape" fill="#000000" fill-rule="nonzero"></path>
    </g>
</svg>