<?xml version="1.0" encoding="UTF-8"?>
<svg width="512px" height="512px" viewBox="0 0 512 512" version="1.1" xmlns="http://www.w3.org/2000/svg" xmlns:xlink="http://www.w3.org/1999/xlink">
    <!-- Generator: Sketch 62 (91390) - https://sketch.com -->
    <title>android-download</title>
    <desc>Created with Sketch.</desc>
    <g id="android-download" stroke="none" stroke-width="1" fill="none" fill-rule="evenodd">
        <path d="M378.5,217.1 C366.9,159.6 316.9,116.2 256,116.2 C207.6,116.2 166,143.7 145.1,183.7 C95.1,188.7 56,231.2 56,282.8 C56,337.8 101,382.8 156,382.8 L372.6,382.8 C418.5,382.8 456,345.3 456,299.4 C456,255.3 421.9,219.7 378.5,217.1 Z M229.4,259.6 L229.4,196.2 L282.8,196.2 L282.8,259.6 L339.4,259.6 L256,342.8 L172.6,259.6 L229.4,259.6 L229.4,259.6 Z" id="Shape" fill="#000000" fill-rule="nonzero"></path>
    </g>
</svg>