<svg xmlns="http://www.w3.org/2000/svg" width="512" height="512" viewBox="0 0 512 512">
    <path fill-rule="nonzero" d="M362.5 323.2c-13.4 0-25.9 4.4-34.8 13.3l-127.4-73.7c.9-4.4 1.8-8 1.8-12.4s-.9-8-1.8-12.4L326 165.1c9.8 8.9 22.3 14.2 36.5 14.2 29.4 0 53.5-24 53.5-53.3 0-29.2-24.1-53.2-53.5-53.2s-53.5 24-53.5 53.3c0 4.4.9 8 1.8 12.4l-125.7 72.8c-9.8-8.9-22.3-14.2-36.5-14.2-29.4 0-52.6 24-52.6 53.3 0 29.3 24.1 53.3 53.5 53.3 14.3 0 26.7-5.3 36.5-14.2l126.6 73.7c-.9 3.5-1.8 7.1-1.8 11.5 0 28.4 23.2 51.5 51.7 51.5 28.5 0 51.7-23.1 51.7-51.5 0-28.5-23.2-51.5-51.7-51.5z"/>
</svg>
