<?xml version="1.0" encoding="UTF-8"?>
<svg id="Layer_1" xmlns="http://www.w3.org/2000/svg" version="1.1" viewBox="0 0 500 500">
  <!-- Generator: Adobe Illustrator 29.1.0, SVG Export Plug-In . SVG Version: 2.1.0 Build 142)  -->
  <path d="M293.3,25h-129.3c-23.9,0-43.8,18.8-43.8,42.7v9.2h-8.1c-23.9,0-43.8,18.8-43.8,42.7v311.5c0,23.9,19.9,43.8,43.8,43.8h225c23.9,0,42.7-19.9,42.7-43.8v-8.1h9.2c23.9,0,42.7-19.9,42.7-43.8v-215.8L293.3,25ZM293.3,73.2l90.2,90.2h-90.2v-90.2ZM345.2,431.2c0,5.1-3.7,9.2-8.1,9.2H112.1c-4.8,0-9.2-4.4-9.2-9.2V119.7c0-4.4,4.1-8.1,9.2-8.1h8.1v276.4c0,23.9,11.2,35.2,35.2,35.2h189.8v8.1ZM397.1,379.3c0,5.1-3.7,9.2-8.1,9.2h-225c-4.8,0-9.2-4.4-9.2-9.2V67.7c0-4.4,4.1-8.1,9.2-8.1h94.7v138.5h138.5v181.2Z"/>
</svg>