<?xml version="1.0" encoding="UTF-8"?>
<svg width="512px" height="512px" viewBox="0 0 512 512" version="1.1" xmlns="http://www.w3.org/2000/svg" xmlns:xlink="http://www.w3.org/1999/xlink">
    <!-- Generator: Sketch 62 (91390) - https://sketch.com -->
    <title>android-time</title>
    <desc>Created with Sketch.</desc>
    <g id="android-time" stroke="none" stroke-width="1" fill="none" fill-rule="evenodd" fill-opacity="0.9">
        <path d="M255.8,41.5 C141,41.5 48,134.7 48,249.5 C48,364.3 141,457.5 255.8,457.5 C370.8,457.5 464,364.3 464,249.5 C464,134.7 370.8,41.5 255.8,41.5 Z M256,415.9 C164.1,415.9 89.6,341.4 89.6,249.5 C89.6,157.6 164.1,83.1 256,83.1 C347.9,83.1 422.4,157.6 422.4,249.5 C422.4,341.4 347.9,415.9 256,415.9 Z" id="Shape" fill="#000000" fill-rule="nonzero"></path>
        <polygon id="Path" fill="#000000" fill-rule="nonzero" points="266.4 154.35 235.2 154.35 235.2 279.15 344.4 344.65 360 319.05 266.4 263.55"></polygon>
    </g>
</svg>