<?xml version="1.0" encoding="UTF-8"?>
<svg id="Layer_1" xmlns="http://www.w3.org/2000/svg" version="1.1" viewBox="0 0 500 500">
  <!-- Generator: Adobe Illustrator 29.1.0, SVG Export Plug-In . SVG Version: 2.1.0 Build 142)  -->
  <path d="M362.4,349l-26.7-26.6-9.5-9.5-4.7-4.7-140.8-140.4v.4L69.3,56.9l-24.1,24.1,135.5,135.4v29c0,38,31.3,69,69.2,69s16.7-1.5,24.7-4.6l32.5,32.4c-17.5,8.9-37,13.9-57,13.9-63.3,0-121.9-48.8-121.9-117h-39.1c0,77.4,62.4,143.3,137.8,153.8v82.2h46.3v-82.4c22.2-3.4,43.3-11.3,61.9-22.6l95.6,95.5,24.2-24.2-33.9-33.9h-.2c0-.1-58.4-58.4-58.4-58.4ZM319.1,245.3V94c0-38-31.4-69-69.4-69s-69.4,31-69.4,69v25.2l137.6,137.5c1-3.6,1.1-7.5,1.1-11.5M411,238.9h-39.1c0,20.6-5.5,39.7-15,56.5l27.8,27.8c16.5-24.4,26.4-53.1,26.4-84.2M454.8,441.3l-34-33.9,34,33.9Z"/>
</svg>