<svg xmlns="http://www.w3.org/2000/svg" width="512" height="512" viewBox="0 0 512 512">
  <path d="M355.889,344l-23.778-23.667-8.444-8.444-4.222-4.222-125.111-124.778v.333l-99-98.889-21.444,21.444,120.444,120.333v25.778c0,33.778,27.778,61.333,61.556,61.333,7.444,0,14.889-1.333,22-4.111l28.889,28.778c-15.556,7.889-32.889,12.333-50.667,12.333-56.222,0-108.333-43.333-108.333-104h-34.778c0,68.778,55.444,127.333,122.444,136.667v73.111h41.111v-73.222c19.778-3,38.444-10,55-20.111l85,84.889,21.556-21.556-30.111-30.111-.222-.111-51.889-51.778ZM317.444,251.778V117.333c0-33.778-27.889-61.333-61.667-61.333s-61.667,27.556-61.667,61.333v22.444l122.333,122.222c.889-3.222,1-6.667,1-10.222M399.111,246.111h-34.778c0,18.333-4.889,35.333-13.333,50.222l24.667,24.667c14.667-21.667,23.444-47.222,23.444-74.889M438,426l-30.222-30.111,30.222,30.111Z"/>
</svg>