<?xml version="1.0" encoding="UTF-8"?>
<svg id="Layer_1" xmlns="http://www.w3.org/2000/svg" version="1.1" viewBox="0 0 500 500">
  <!-- Generator: Adobe Illustrator 29.1.0, SVG Export Plug-In . SVG Version: 2.1.0 Build 142)  -->
  <path d="M385.6,343.8c-17.1,0-33,5.6-44.3,16.9l-162.2-93.8c1.1-5.6,2.3-10.2,2.3-15.8s-1.1-10.2-2.3-15.8l160.1-92.8c12.5,11.3,28.4,18.1,46.5,18.1,37.4,0,68.1-30.6,68.1-67.9s-30.7-67.7-68.1-67.7-68.1,30.6-68.1,67.9,1.1,10.2,2.3,15.8l-160.1,92.7c-12.5-11.3-28.4-18.1-46.5-18.1-37.4,0-67,30.6-67,67.9s30.7,67.9,68.1,67.9,34-6.7,46.5-18.1l161.2,93.8c-1.1,4.5-2.3,9-2.3,14.6,0,36.2,29.5,65.6,65.8,65.6s65.8-29.4,65.8-65.6-29.5-65.6-65.8-65.6"/>
</svg>