<?xml version="1.0" encoding="UTF-8"?>
<svg width="512px" height="512px" viewBox="0 0 512 512" version="1.1" xmlns="http://www.w3.org/2000/svg" xmlns:xlink="http://www.w3.org/1999/xlink">
    <!-- Generator: Sketch 62 (91390) - https://sketch.com -->
    <title>android-share-alt</title>
    <desc>Created with Sketch.</desc>
    <g id="android-share-alt" stroke="none" stroke-width="1" fill="none" fill-rule="evenodd">
        <path d="M362.5,323.2 C349.1,323.2 336.6,327.6 327.7,336.5 L200.3,262.8 C201.2,258.4 202.1,254.8 202.1,250.4 C202.1,246 201.2,242.4 200.3,238 L326,165.1 C335.8,174 348.3,179.3 362.5,179.3 C391.9,179.3 416,155.3 416,126 C416,96.8 391.9,72.8 362.5,72.8 C333.1,72.8 309,96.8 309,126.1 C309,130.5 309.9,134.1 310.8,138.5 L185.1,211.3 C175.3,202.4 162.8,197.1 148.6,197.1 C119.2,197.1 96,221.1 96,250.4 C96,279.7 120.1,303.7 149.5,303.7 C163.8,303.7 176.2,298.4 186,289.5 L312.6,363.2 C311.7,366.7 310.8,370.3 310.8,374.7 C310.8,403.1 334,426.2 362.5,426.2 C391,426.2 414.2,403.1 414.2,374.7 C414.2,346.2 391,323.2 362.5,323.2 Z" id="Path" fill="#000000" fill-rule="nonzero"></path>
    </g>
</svg>