<svg xmlns="http://www.w3.org/2000/svg" width="512" height="512" viewBox="0 0 512 512">
    <path d="M328 101.85c-28 0-54.4 12.9-72 33.8-17.6-20.9-44-33.8-72-33.8-49.6 0-88 38.6-88 88.5 0 61.2 54.4 110.3 136.8 185.9l23.2 20.9 23.2-20.9c82.4-75.6 136.8-124.7 136.8-185.9 0-49.9-38.4-88.5-88-88.5m-62.1 253.2-3.2 3-6.6 6-6.6-6-3.2-3c-38.8-35.6-72.3-66.3-94.4-93.8-21.5-26.7-31.1-48.6-31.1-70.9 0-17.6 6.5-33.8 18.2-45.6s27.8-18.3 45.1-18.3c20.1 0 40 9.4 53.2 25l18.7 22.3 18.8-22.4c13.2-15.6 33.1-24.9 53.2-24.9 17.4 0 33.4 6.5 45.1 18.3 11.8 11.8 18.2 28 18.2 45.6 0 22.3-9.6 44.2-31.1 70.9-22.1 27.4-55.5 58.2-94.3 93.8"/>
</svg>
