<svg xmlns="http://www.w3.org/2000/svg" width="512" height="512" viewBox="0 0 512 512">
  <path d="M389.125,348.127c-16.75,0-32.375,5.5-43.5,16.625l-159.25-92.126c1.125-5.5,2.25-10,2.25-15.5s-1.125-10-2.25-15.5l157.125-91.125c12.25,11.125,27.875,17.75,45.625,17.75,36.75,0,66.875-30,66.875-66.625s-30.125-66.5-66.875-66.5-66.875,30-66.875,66.625c0,5.5,1.125,10,2.25,15.5l-157.125,91c-12.25-11.125-27.875-17.75-45.625-17.75-36.75,0-65.75,30-65.75,66.625s30.125,66.625,66.875,66.625c17.875,0,33.375-6.625,45.625-17.751l158.25,92.126c-1.125,4.375-2.25,8.875-2.25,14.375,0,35.5,29,64.375,64.625,64.375s64.625-28.875,64.625-64.375-29-64.375-64.625-64.375"/>
</svg>