<svg xmlns="http://www.w3.org/2000/svg" width="512" height="512" viewBox="0 0 512 512">
    <path d="M296 41.5H176.5C154.4 41.5 136 58.9 136 81v8.5h-7.5C106.4 89.5 88 106.9 88 129v288c0 22.1 18.4 40.5 40.5 40.5h208c22.1 0 39.5-18.4 39.5-40.5v-7.5h8.5c22.1 0 39.5-18.4 39.5-40.5V169.5l-128-128zm0 44.6l83.4 83.4H296V86.1zM344 417c0 4.7-3.4 8.5-7.5 8.5h-208c-4.4 0-8.5-4.1-8.5-8.5V129c0-4.1 3.8-7.5 8.5-7.5h7.5V377c0 22.1 10.4 32.5 32.5 32.5H344v7.5zm48-48c0 4.7-3.4 8.5-7.5 8.5h-208c-4.4 0-8.5-4.1-8.5-8.5V81c0-4.1 3.8-7.5 8.5-7.5H264v128h128V369z"/>
</svg>
