<svg xmlns="http://www.w3.org/2000/svg" width="512" height="512" viewBox="0 0 512 512">
  <path d="M294.462,56h-114.904c-21.25,0-38.942,16.731-38.942,37.981v8.173h-7.212c-21.25,0-38.942,16.731-38.942,37.981v276.923c0,21.25,17.692,38.942,38.942,38.942h200c21.25,0,37.981-17.692,37.981-38.942v-7.212h8.173c21.25,0,37.981-17.692,37.981-38.942v-191.827l-123.077-123.077ZM294.462,98.885l80.192,80.192h-80.192s0-80.192,0-80.192ZM340.616,417.059c0,4.519-3.269,8.173-7.212,8.173h-200c-4.231,0-8.173-3.942-8.173-8.173V140.134c0-3.942,3.654-7.212,8.173-7.212h7.212v245.673c0,21.25,10,31.25,31.25,31.25h168.751v7.212h0ZM386.77,370.905c0,4.519-3.269,8.173-7.212,8.173h-200c-4.231,0-8.173-3.942-8.173-8.173V93.981c0-3.942,3.654-7.212,8.173-7.212h84.134v123.078h123.078v161.058Z"/>
</svg>