<?xml version="1.0" encoding="UTF-8"?>
<svg id="Layer_1" xmlns="http://www.w3.org/2000/svg" version="1.1" viewBox="0 0 500 500">
  <!-- Generator: Adobe Illustrator 29.1.0, SVG Export Plug-In . SVG Version: 2.1.0 Build 142)  -->
  <path d="M250,25C125.1,25,25,126.2,25,250s100.1,225,225,225,225-101.2,225-225S373.8,25,250,25M250,430c-99,0-180-81-180-180S151,70,250,70s180,81,180,180-81,180-180,180M328.8,227.5c19.1,0,33.8-14.6,33.8-33.8s-14.6-33.8-33.8-33.8-33.8,14.6-33.8,33.8,14.6,33.8,33.8,33.8M171.2,227.5c19.1,0,33.8-14.6,33.8-33.8s-14.6-33.8-33.8-33.8-33.8,14.6-33.8,33.8,14.6,33.8,33.8,33.8M250,373.8c52.9,0,96.7-32.6,114.8-78.8h-229.5c18,46.1,61.9,78.8,114.8,78.8"/>
</svg>