<svg xmlns="http://www.w3.org/2000/svg" width="512" height="512" viewBox="0 0 512 512">
  <path d="M346,71.437c-35,0-68,16.125-90,42.25-22-26.125-55-42.25-90-42.25-62,0-110,48.25-110,110.625,0,76.5,68,137.875,171,232.375l29,26.125,29-26.125c103-94.5,171-155.875,171-232.375,0-62.375-48-110.625-110-110.625M268.375,387.938l-4,3.75-8.25,7.5-8.25-7.5-4-3.75c-48.5-44.5-90.375-82.875-118-117.25-26.875-33.375-38.875-60.75-38.875-88.625,0-22,8.125-42.25,22.75-57s34.75-22.875,56.375-22.875c25.125,0,50,11.75,66.5,31.25l23.375,27.875,23.5-28c16.5-19.5,41.375-31.125,66.5-31.125,21.75,0,41.75,8.125,56.375,22.875,14.75,14.75,22.75,35,22.75,57,0,27.875-12,55.25-38.875,88.625-27.625,34.25-69.375,72.75-117.875,117.25"/>
</svg>