<svg xmlns="http://www.w3.org/2000/svg" width="512" height="512" viewBox="0 0 512 512">
    <path fill-rule="nonzero" d="M345.9 328.7l-21.4-21.3-7.6-7.6-3.8-3.8-112.6-112.3v.3l-89.1-89-19.3 19.3 108.4 108.3v23.2c0 30.4 25 55.2 55.4 55.2 6.7 0 13.4-1.2 19.8-3.7l26 25.9c-14 7.1-29.6 11.1-45.6 11.1-50.6 0-97.5-39-97.5-93.6h-31.3c0 61.9 49.9 114.6 110.2 123v65.8h37v-65.9c17.8-2.7 34.6-9 49.5-18.1l76.5 76.4 19.4-19.4-27.1-27.1-46.9-46.7 46.7 46.6-46.7-46.6zm-34.6-83v-121c0-30.4-25.1-55.2-55.5-55.2s-55.5 24.8-55.5 55.2v20.2l110.1 110c.8-2.9.9-6 .9-9.2zm73.5-5.1h-31.3c0 16.5-4.4 31.8-12 45.2l22.2 22.2c13.2-19.5 21.1-42.5 21.1-67.4zm35 161.9l-27.2-27.1 27.2 27.1z"/>
</svg>
