<?xml version="1.0" encoding="UTF-8"?>
<svg width="512px" height="512px" viewBox="0 0 512 512" version="1.1" xmlns="http://www.w3.org/2000/svg" xmlns:xlink="http://www.w3.org/1999/xlink">
    <!-- Generator: Sketch 62 (91390) - https://sketch.com -->
    <title>android-microphone-off</title>
    <desc>Created with Sketch.</desc>
    <g id="android-microphone-off" stroke="none" stroke-width="1" fill="none" fill-rule="evenodd">
        <path d="M345.9,328.7 L324.5,307.4 L316.9,299.8 L313.1,296 L200.5,183.7 L200.5,184 L111.4,95 L92.1,114.3 L200.5,222.6 L200.5,245.8 C200.5,276.2 225.5,301 255.9,301 C262.6,301 269.3,299.8 275.7,297.3 L301.7,323.2 C287.7,330.3 272.1,334.3 256.1,334.3 C205.5,334.3 158.6,295.3 158.6,240.7 L127.3,240.7 C127.3,302.6 177.2,355.3 237.5,363.7 L237.5,429.5 L274.5,429.5 L274.5,363.6 C292.3,360.9 309.1,354.6 324,345.5 L400.5,421.9 L419.9,402.5 L392.8,375.4 L345.9,328.7 L392.6,375.3 L345.9,328.7 Z M311.3,245.7 L311.3,124.7 C311.3,94.3 286.2,69.5 255.8,69.5 C225.4,69.5 200.3,94.3 200.3,124.7 L200.3,144.9 L310.4,254.9 C311.2,252 311.3,248.9 311.3,245.7 Z M384.8,240.6 L353.5,240.6 C353.5,257.1 349.1,272.4 341.5,285.8 L363.7,308 C376.9,288.5 384.8,265.5 384.8,240.6 Z M419.8,402.5 L392.6,375.4 L419.8,402.5 Z" id="Shape" fill="#000000" fill-rule="nonzero"></path>
    </g>
</svg>