<svg xmlns="http://www.w3.org/2000/svg" width="512" height="512" viewBox="0 0 512 512">
    <path fill-rule="evenodd" d="M429.287 31.544c2.13 0 4.123.917 5.609 2.581 3.054 3.42 6.005 11.11 2.33 59.384-.42 5.52-.894 11.154-1.4 16.777l-.192 2.108-.194 2.106c-1.922 20.688-4.202 40.82-5.72 54.213-.405 3.585-.748 6.61-1.002 8.926l2.677 58.365 34.35 88.518-106.896 57.183-102.99 98.84-102.992-98.84L45.97 324.522l34.351-88.518 2.676-58.365c-.253-2.316-.596-5.34-1.001-8.925-1.723-15.21-4.43-39.108-6.48-62.645l-.18-2.106c-.3-3.509-.584-7.003-.847-10.453-3.674-48.273-.723-55.965 2.332-59.385 1.486-1.664 3.477-2.58 5.608-2.58 21.298 0 74.089 37.96 97.958 55.99 23.815-3.764 51.395-5.335 70.145-5.588v-.045l5.322.007 5.34-.007.001.045c18.749.254 46.324 1.825 70.133 5.588 23.87-18.03 76.662-55.99 97.959-55.99zm-307.814 131.66l-5.216 86.962-20.81 57.214 80.335 45.767 64.064 59.283v-28.893l-33.872-40.45 33.022-.628V259c0-30.721-12.024-54.916-35.738-71.912-20.7-14.835-48.884-23.05-81.785-23.883zm268.77.004c-32.537.864-61.441 9.266-81.867 23.881-23.764 17.004-35.814 41.197-35.814 71.91v83.46l33.386.632-33.386 38.854v27.874c19.458-18.508 57.636-51.674 63.013-56.335l.443-.386 80.252-45.718-20.812-57.214-5.215-86.958zM136.69 261.157l71.331 48.972-4.412 10.767-76.336-13.586 9.417-46.153zm239.5.032l9.436 46.245-74.278 11.65-4.274-10.798 69.117-47.097zm-226.483-45.444c15.594.754 70.93 27.164 75.457 37.979-.374.22-.748.438-1.122.655l-.562.326c-6.753 3.89-13.95 7.32-29.505 7.32-4.196 0-8.843-1.793-13.509-4.755.176-1.471 1.262-4.865 2.526-8.471l.247-.7c1.948-5.497 4.197-11.227 4.197-11.227s-4.817 2.548-9.533 5.326l-.642.38c-3.523 2.096-6.863 4.262-7.945 5.52-11.475-10-17.565-21.507-19.609-32.353zm212.303 0c-2.093 11.115-8.686 23.276-20.506 33.244-1.338-1.338-3.719-3.25-6.183-5.124l-.57-.432c-3.993-3.013-8.011-5.806-8.011-5.806s1.359 4.97 2.524 10.132l.157.704c.78 3.525 1.438 7.039 1.48 9.027-4.547 2.83-9.067 4.535-13.158 4.535-16.852 0-23.894-4.025-31.188-8.3 4.527-10.816 59.861-37.225 75.455-37.98zM257.523 115.298c-.541 0-1.085.001-1.627.005-32.208.195-56.869 4.875-66.894 8.549 4.089 2.404 10.402 5.553 15.827 8.258 17.948 8.952 39.537 19.72 50.871 32.8 11.307-13.712 33.52-24.527 50.5-32.792 5.167-2.516 11.176-5.442 15.11-7.712-11.519-4.753-36.133-9.108-63.787-9.108zm-151.748-41.77l4.084 52.325 30.374-24.758-34.458-27.567zm300.165 0l-34.457 27.567 30.375 24.758 4.082-52.325z"/>
</svg>
