<svg xmlns="http://www.w3.org/2000/svg" width="512" height="512" viewBox="0 0 512 512">
  <defs>
    <style>
      .st0 {
        fill-rule: evenodd;
      }
    </style>
  </defs>
  <path class="st0" d="M410.502,56c1.898,0,3.673.817,4.996,2.3,2.721,3.047,5.349,9.898,2.076,52.903-.374,4.917-.796,9.937-1.247,14.946l-.171,1.878-.172,1.876c-1.712,18.43-3.743,36.365-5.096,48.297-.361,3.194-.667,5.889-.892,7.952l2.385,51.995,30.601,78.858-95.23,50.942-91.75,88.053-91.752-88.053-95.231-50.942,30.602-78.858,2.384-51.995c-.226-2.063-.531-4.757-.892-7.951-1.535-13.55-3.947-34.84-5.772-55.808l-.16-1.876c-.268-3.126-.52-6.239-.755-9.312-3.273-43.004-.644-49.858,2.077-52.904,1.324-1.483,3.098-2.299,4.996-2.299,18.973,0,66.003,33.817,87.267,49.88,21.216-3.353,45.786-4.753,62.49-4.978v-.04l4.741.006,4.757-.006v.04c16.704.227,41.269,1.626,62.48,4.978,21.265-16.062,68.296-49.88,87.268-49.88h0v-.002ZM136.282,173.291l-4.647,77.471-18.539,50.97,71.568,40.772,57.073,52.813v-25.74l-30.175-36.035,29.418-.559v-74.351c0-27.368-10.712-48.923-31.838-64.064-18.441-13.216-43.549-20.534-72.859-21.276h0ZM375.719,173.295c-28.986.77-54.736,8.255-72.932,21.275-21.171,15.148-31.906,36.701-31.906,64.062v74.352l29.742.563-29.742,34.613v24.832c17.334-16.488,51.346-46.035,56.136-50.187l.395-.344,71.494-40.729-18.54-50.97-4.646-77.467ZM149.838,260.554l63.547,43.627-3.931,9.592-68.005-12.103,8.389-41.116h0ZM363.2,260.583l8.406,41.198-66.171,10.379-3.807-9.62,61.573-41.957h0ZM161.434,220.098c13.892.672,63.189,24.199,67.222,33.835-.333.196-.667.39-.999.583l-.5.291c-6.016,3.466-12.428,6.521-26.285,6.521-3.738,0-7.878-1.597-12.035-4.236.156-1.31,1.124-4.334,2.251-7.547l.22-.624c1.735-4.897,3.739-10.002,3.739-10.002,0,0-4.292,2.27-8.492,4.745l-.572.339c-3.139,1.868-6.114,3.796-7.078,4.917-10.223-8.908-15.648-19.16-17.469-28.822M350.568,220.098c-1.865,9.902-7.738,20.736-18.268,29.616-1.192-1.192-3.313-2.895-5.508-4.564l-.508-.385c-3.557-2.684-7.137-5.172-7.137-5.172,0,0,1.211,4.428,2.249,9.027l.14.628c.695,3.14,1.281,6.271,1.318,8.042-4.051,2.521-8.077,4.04-11.722,4.04-15.012,0-21.286-3.586-27.784-7.394,4.033-9.636,53.328-33.163,67.22-33.835M257.484,130.613c-.483,0-.966.002-1.45.004-28.693.173-50.663,4.343-59.594,7.616,3.643,2.141,9.267,4.947,14.1,7.356,15.989,7.975,35.222,17.568,45.319,29.22,10.073-12.216,29.862-21.851,44.988-29.213,4.603-2.242,9.956-4.848,13.461-6.87-10.262-4.235-32.189-8.114-56.826-8.114M122.298,93.402l3.638,46.614,27.059-22.056-30.698-24.558ZM389.703,93.402l-30.697,24.558,27.06,22.056,3.636-46.614Z"/>
</svg>