<svg xmlns="http://www.w3.org/2000/svg" width="512" height="512" viewBox="0 0 512 512">
    <path d="M290.7 408.2c3.7 7.3 2.6 13.5-3.3 18.6v1.1l-28.5 15.3-2.2 2.2c-7.3 5.1-13.9 3.3-19.7-5.5l-1.1-1.1-53.7-93.1v-1.1c-.7 0-1.1-.4-1.1-1.1-5.1-8.8-3.3-15.7 5.5-20.8 2.9-1.5 5.1-2.2 6.6-2.2h40.5c3.7 0 6.9 2.2 9.9 6.6l47.1 80v1.1zM467 54.4v312.2c0 10.2-5.1 15.3-15.3 15.3-3.7 0-6.9-1.5-9.9-4.4L295 293.2H187.7c-8.8 0-13.9-4.7-15.3-14.2V134.4c0-10.2 5.1-15.3 15.3-15.3h120.5l134.7-76.7c2.2-2.2 5.1-3.3 8.8-3.3 10.2 0 15.3 5.1 15.3 15.3zm-338.4 68c10.2 0 15.3 5.1 15.3 15.3v139.1c-1.5 8.8-6.6 13.1-15.3 13.1-22.6 0-42.2-8.2-58.6-24.6-16.4-16.4-24.6-36.3-24.6-59.7s8-43.1 24.1-59.1 35.7-24.1 59.1-24.1z"/>
</svg>
