<?xml version="1.0" encoding="UTF-8"?>
<svg id="Layer_1" xmlns="http://www.w3.org/2000/svg" version="1.1" viewBox="0 0 500 500">
  <!-- Generator: Adobe Illustrator 29.1.0, SVG Export Plug-In . SVG Version: 2.1.0 Build 142)  -->
  <path d="M286.9,425.6c4,7.7,2.8,14.4-3.5,19.9v1.2l-30.5,16.3-2.4,2.4c-7.7,5.5-14.9,3.5-21-5.9l-1.2-1.2-57.4-99.4v-1.2c-.6,0-1.2-.4-1.2-1.2-5.5-9.4-3.5-16.7,5.9-22.2,3.1-1.5,5.5-2.4,7.1-2.4h43.1c4,0,7.3,2.4,10.5,7.1l50.2,85.3v1.3h.4ZM475,47.9v333.2c0,10.8-5.5,16.3-16.3,16.3s-7.3-1.5-10.5-4.6l-156.7-89.9h-114.6c-9.4,0-14.9-5-16.3-15.1v-154.5c0-10.8,5.5-16.3,16.3-16.3h128.7l143.7-81.9c2.4-2.4,5.5-3.5,9.4-3.5,10.9,0,16.3,5.5,16.3,16.3M113.8,120.6c10.8,0,16.3,5.5,16.3,16.3v148.5c-1.5,9.4-7.1,13.9-16.3,13.9-24.1,0-45-8.7-62.6-26.3-17.6-17.6-26.2-38.6-26.2-63.5s8.6-45.9,25.8-63.1,38.1-25.7,63-25.7"/>
</svg>