<svg xmlns="http://www.w3.org/2000/svg" width="512" height="512" viewBox="0 0 512 512">
  <path d="M288.791,412.052c3.536,6.844,2.509,12.774-3.08,17.679v1.027l-27.146,14.485-2.167,2.167c-6.844,4.905-13.231,3.08-18.706-5.246l-1.027-1.027-50.984-88.394v-1.027c-.571,0-1.027-.342-1.027-1.027-4.905-8.326-3.079-14.828,5.246-19.732,2.738-1.369,4.905-2.167,6.273-2.167h38.323c3.536,0,6.501,2.167,9.353,6.273l44.596,75.848v1.14h.344ZM455.999,76.382v296.207c0,9.58-4.905,14.485-14.485,14.485-3.536,0-6.501-1.369-9.353-4.106l-139.264-79.954h-101.853c-8.326,0-13.231-4.448-14.485-13.459v-137.325c0-9.58,4.905-14.485,14.485-14.485h114.4l127.745-72.769c2.167-2.167,4.905-3.079,8.326-3.079,9.695,0,14.485,4.905,14.485,14.485M134.928,140.938c9.58,0,14.485,4.905,14.485,14.485v131.964c-1.369,8.326-6.273,12.318-14.485,12.318-21.443,0-40.034-7.756-55.66-23.382-15.626-15.626-23.268-34.331-23.268-56.459s7.642-40.833,22.925-56.116,33.875-22.812,56.003-22.812"/>
</svg>