<svg xmlns="http://www.w3.org/2000/svg" width="512" height="512" viewBox="0 0 512 512">
    <path fill-rule="nonzero" d="M284.7 386.32c3.1 6 2.2 11.2-2.7 15.5v.9l-23.8 12.7-1.9 1.9c-6 4.3-11.6 2.7-16.4-4.6l-.9-.9-44.7-77.5v-.9c-.5 0-.9-.3-.9-.9-4.3-7.3-2.7-13 4.6-17.3 2.4-1.2 4.3-1.9 5.5-1.9h33.6c3.1 0 5.7 1.9 8.2 5.5l39.1 66.5v1h.3zm146.6-294.3v259.7c0 8.4-4.3 12.7-12.7 12.7-3.1 0-5.7-1.2-8.2-3.6l-122.1-70.1H199c-7.3 0-11.6-3.9-12.7-11.8v-120.4c0-8.4 4.3-12.7 12.7-12.7h100.3l112-63.8c1.9-1.9 4.3-2.7 7.3-2.7 8.5 0 12.7 4.3 12.7 12.7zm-281.5 56.6c8.4 0 12.7 4.3 12.7 12.7v115.7c-1.2 7.3-5.5 10.8-12.7 10.8-18.8 0-35.1-6.8-48.8-20.5-13.7-13.7-20.4-30.1-20.4-49.5s6.7-35.8 20.1-49.2c13.4-13.4 29.7-20 49.1-20z"/>
</svg>
