<?xml version="1.0" encoding="UTF-8"?>
<svg width="512px" height="512px" viewBox="0 0 512 512" version="1.1" xmlns="http://www.w3.org/2000/svg" xmlns:xlink="http://www.w3.org/1999/xlink">
    <!-- Generator: Sketch 62 (91390) - https://sketch.com -->
    <title>announcement</title>
    <desc>Created with Sketch.</desc>
    <g id="announcement" stroke="none" stroke-width="1" fill="none" fill-rule="evenodd">
        <path d="M284.7,386.319904 C287.8,392.319904 286.9,397.519904 282,401.819904 L282,402.719904 L258.2,415.419904 L256.3,417.319904 C250.3,421.619904 244.7,420.019904 239.9,412.719904 L239,411.819904 L194.3,334.319904 L194.3,333.419904 C193.8,333.419904 193.4,333.119904 193.4,332.519904 C189.1,325.219904 190.7,319.519904 198,315.219904 C200.4,314.019904 202.3,313.319904 203.5,313.319904 L237.1,313.319904 C240.2,313.319904 242.8,315.219904 245.3,318.819904 L284.4,385.319904 L284.4,386.319904 L284.7,386.319904 Z M431.3,92.0199037 L431.3,351.719904 C431.3,360.119904 427,364.419904 418.6,364.419904 C415.5,364.419904 412.9,363.219904 410.4,360.819904 L288.3,290.719904 L199,290.719904 C191.7,290.719904 187.4,286.819904 186.3,278.919904 L186.3,158.519904 C186.3,150.119904 190.6,145.819904 199,145.819904 L299.3,145.819904 L411.3,82.0199037 C413.2,80.1199037 415.6,79.3199037 418.6,79.3199037 C427.1,79.3199037 431.3,83.6199037 431.3,92.0199037 Z M149.8,148.619904 C158.2,148.619904 162.5,152.919904 162.5,161.319904 L162.5,277.019904 C161.3,284.319904 157,287.819904 149.8,287.819904 C131,287.819904 114.7,281.019904 101,267.319904 C87.3,253.619904 80.6,237.219904 80.6,217.819904 C80.6,198.419904 87.3,182.019904 100.7,168.619904 C114.1,155.219904 130.4,148.619904 149.8,148.619904 Z" id="Shape" fill="#000000" fill-rule="nonzero"></path>
    </g>
</svg>