<svg xmlns="http://www.w3.org/2000/svg" width="512" height="512" viewBox="0 0 512 512">
    <path d="M247.1 179.8c-40.3 0-70.8 31.3-70.8 70.1 0 40.8 31.8 70.1 70.8 70.1s70.7-29.2 70.7-70.1c0-38.8-30.4-70.1-70.7-70.1zm0 36.9c17.4-.2 31.7 14.7 31.7 33.1 0 18.2-14.1 33.1-31.7 33.1-17.4 0-31.7-14.8-31.7-33.1s14.4-33 31.7-33.1zm201.7 78.7c0 13.6-11 24.6-24.6 24.6-13.6 0-24.6-11-24.6-24.6 0-13.6 11-24.6 24.6-24.6 13.6.1 24.6 11.1 24.6 24.6zm-71.4 20h-38.6V141.1h38.6v174.3zM106.3 141.1H70.1L0 315.4h49.1l8.2-24.6H118l8.2 24.6h49.1l-69-174.3zM70.1 254.6l18.1-58.3 18.1 58.3H70.1z"/>
</svg>
