<svg xmlns="http://www.w3.org/2000/svg" width="512" height="512" viewBox="0 0 512 512">
  <path d="M276.232,210.768c-35.918,0-63.101,27.897-63.101,62.477,0,36.364,28.342,62.477,63.101,62.477s63.012-26.025,63.012-62.477c0-34.581-27.094-62.477-63.012-62.477M276.232,243.656c15.508-.179,28.253,13.101,28.253,29.501,0,16.221-12.567,29.501-28.253,29.501-15.508,0-28.253-13.191-28.253-29.501s12.834-29.412,28.253-29.501M456,313.798c0,12.121-9.804,21.925-21.925,21.925s-21.925-9.804-21.925-21.925,9.804-21.925,21.925-21.925c12.121.089,21.925,9.893,21.925,21.925M392.364,331.624h-34.403v-155.348h34.403v155.348ZM150.741,176.276h-32.264l-62.477,155.348h43.761l7.308-21.925h54.1l7.308,21.925h43.761l-61.497-155.348h0ZM118.477,277.435l16.132-51.961,16.132,51.961h-32.264,0Z"/>
</svg>