<?xml version="1.0" encoding="UTF-8"?>
<svg id="Layer_1" xmlns="http://www.w3.org/2000/svg" version="1.1" viewBox="0 0 500 500">
  <!-- Generator: Adobe Illustrator 29.1.0, SVG Export Plug-In . SVG Version: 2.1.0 Build 142)  -->
  <path d="M272.8,199.1c-40.4,0-71,31.4-71,70.3s31.9,70.3,71,70.3,70.9-29.3,70.9-70.3-30.5-70.3-70.9-70.3M272.8,236.1c17.4-.2,31.8,14.7,31.8,33.2s-14.1,33.2-31.8,33.2-31.8-14.8-31.8-33.2,14.4-33.1,31.8-33.2M475,315c0,13.6-11,24.7-24.7,24.7s-24.7-11-24.7-24.7,11-24.7,24.7-24.7c13.6.1,24.7,11.1,24.7,24.7M403.4,335.1h-38.7v-174.8h38.7v174.8ZM131.6,160.3h-36.3L25,335.1h49.2l8.2-24.7h60.9l8.2,24.7h49.2l-69.2-174.8ZM95.3,274.1l18.1-58.5,18.1,58.5h-36.3Z"/>
</svg>