<?xml version="1.0" encoding="UTF-8"?>
<svg width="512px" height="512px" viewBox="0 0 512 512" version="1.1" xmlns="http://www.w3.org/2000/svg" xmlns:xlink="http://www.w3.org/1999/xlink">
    <!-- Generator: Sketch 62 (91390) - https://sketch.com -->
    <title>aol</title>
    <desc>Created with Sketch.</desc>
    <g id="aol" stroke="none" stroke-width="1" fill="none" fill-rule="evenodd">
        <path d="M247.1,198.75 C206.8,198.75 176.3,230.05 176.3,268.85 C176.3,309.65 208.1,338.95 247.1,338.95 C286.1,338.95 317.8,309.75 317.8,268.85 C317.8,230.05 287.4,198.75 247.1,198.75 L247.1,198.75 Z M247.1,235.65 C264.5,235.45 278.8,250.35 278.8,268.75 C278.8,286.95 264.7,301.85 247.1,301.85 C229.7,301.85 215.4,287.05 215.4,268.75 C215.4,250.45 229.8,235.75 247.1,235.65 L247.1,235.65 Z M448.8,314.35 C448.8,327.95 437.8,338.95 424.2,338.95 C410.6,338.95 399.6,327.95 399.6,314.35 C399.6,300.75 410.6,289.75 424.2,289.75 C437.8,289.85 448.8,300.85 448.8,314.35 Z M377.4,334.35 L338.8,334.35 L338.8,160.05 L377.4,160.05 L377.4,334.35 L377.4,334.35 Z M106.3,160.05 L70.1,160.05 L0,334.35 L49.1,334.35 L57.3,309.75 L118,309.75 L126.2,334.35 L175.3,334.35 L106.3,160.05 Z M70.1,273.55 L88.2,215.25 L106.3,273.55 L70.1,273.55 L70.1,273.55 Z" id="Shape" fill="#000000" fill-rule="nonzero"></path>
    </g>
</svg>