<svg xmlns="http://www.w3.org/2000/svg" width="512" height="512" viewBox="0 0 512 512">
    <path d="M275.2 189.5c-43.9 0-77.1 34.1-77.1 76.3 0 44.5 34.6 76.3 77.1 76.3s77-31.8 77-76.3c0-42.2-33.1-76.3-77-76.3zm0 40.3c19-.1 34.5 16 34.5 36 0 19.9-15.5 36-34.5 36s-34.5-16.2-34.5-36c0-19.9 15.6-36 34.5-36zm219.7 85.7c0 14.8-11.9 26.7-26.7 26.7s-26.7-11.9-26.7-26.7 11.9-26.7 26.7-26.7c14.8 0 26.7 11.9 26.7 26.7zm-77.8 21.6h-42V147.5h42v189.6zM121.9 147.5H82.4L6.1 337.1h53.5l8.9-26.7h66.2l8.9 26.7H197l-75.1-189.6zM82.4 271l19.7-63.6 19.7 63.6H82.4z"/>
</svg>
