<?xml version="1.0" encoding="UTF-8"?>
<svg id="Layer_1" xmlns="http://www.w3.org/2000/svg" version="1.1" viewBox="0 0 500 500">
  <!-- Generator: Adobe Illustrator 29.1.0, SVG Export Plug-In . SVG Version: 2.1.0 Build 142)  -->
  <path d="M472.1,243.1h0s-112.5-140.6-112.5-140.6c-1.8-2.3-4.3-3.9-7.1-4.7-2.4-2.6-5.9-4.3-9.7-4.3h-185.3c-3.8,0-7.3,1.7-9.7,4.3-2.8.8-5.3,2.4-7.1,4.7L28,243.1c-2,2.5-3,5.6-3,8.7v126.6c0,15.6,12.7,28.1,28.1,28.1h393.8c15.6,0,28.1-12.7,28.1-28.1v-126.7c.3-2.9-.9-6.4-2.9-8.6ZM158.3,125.3h183.3l16.9,21.2h-217.2l16.9-21.2ZM446.9,266h-98.5l-56.3,56.3h-84.3l-56.3-56.3H53.1v-9.1l69.5-86.9c2.3,1.9,5.2,3,8.3,3h238.4c3.1,0,5.9-1.1,8.1-2.9l69.4,86.8v9.1Z"/>
</svg>