<svg xmlns="http://www.w3.org/2000/svg" width="512" height="512" viewBox="0 0 512 512">
    <path d="M481.2 247.1L367.1 104.4c-2.7-3.4-6.8-5.4-11.1-5.4H156.1c-4.3 0-8.4 2-11.1 5.4L30.8 247.1c-2 2.5-3.1 5.7-3.1 8.9v128.5c0 15.8 12.8 28.5 28.5 28.5h399.6c15.8 0 28.5-12.8 28.5-28.5V256c.1-3.2-1-6.4-3.1-8.9zm-25.4 23.2h-99.9l-57.1 57.1h-85.6l-57.1-57.1H56.2V261L163 127.5h186.1L455.8 261v9.3z"/>
    <path d="M355.9 184.6H156.1c-7.9 0-14.3-6.4-14.3-14.3s6.4-14.3 14.3-14.3h199.8c7.9 0 14.3 6.4 14.3 14.3s-6.4 14.3-14.3 14.3zm28.6 57.1h-257c-7.9 0-14.3-6.4-14.3-14.3s6.4-14.3 14.3-14.3h256.9c7.9 0 14.3 6.4 14.3 14.3s-6.4 14.3-14.2 14.3z"/>
</svg>
