<svg xmlns="http://www.w3.org/2000/svg" width="512" height="512" viewBox="0 0 512 512">
    <path d="m423.7 242.9-85-106.2c-2-2.5-5.1-4-8.3-4H181.6c-3.2 0-6.3 1.5-8.3 4l-85 106.2c-1.5 1.9-2.3 4.2-2.3 6.6v95.6c0 11.8 9.6 21.2 21.2 21.2h297.5c11.8 0 21.2-9.6 21.2-21.2v-95.7c.2-2.2-.7-4.8-2.2-6.5m-19 17.3h-74.4l-42.5 42.5h-63.7l-42.5-42.5h-74.4v-6.9l79.5-99.4h138.5l79.5 99.4z"/>
    <path d="M326 149.9H186c-5.5 0-10-4.5-10-10s4.5-10 10-10h140c5.5 0 10 4.5 10 10s-4.4 10-10 10m20.1 40H166c-5.5 0-10-4.5-10-10s4.5-10 10-10h180c5.5 0 10 4.5 10 10s-4.4 10-9.9 10"/>
</svg>
