<svg xmlns="http://www.w3.org/2000/svg" width="512" height="512" viewBox="0 0 512 512">
  <path d="M453.378,249.881h0l-100.021-124.968c-1.617-2.021-3.852-3.469-6.309-4.188-2.154-2.336-5.227-3.813-8.636-3.813h-164.741c-3.409,0-6.481,1.477-8.636,3.813-2.458.719-4.692,2.167-6.309,4.188l-100.019,124.968c-1.765,2.236-2.707,4.942-2.707,7.766v112.494c0,13.885,11.297,24.947,24.947,24.947h350.074c13.885,0,24.947-11.297,24.947-24.947v-112.612c.236-2.588-.824-5.648-2.588-7.649h0ZM174.496,145.154h162.976l15.058,18.828h-193.092l15.058-18.828h0ZM431.021,270.239h-87.547l-50.011,50.011h-74.957l-50.011-50.011h-87.548v-8.119l61.784-77.25c2.027,1.651,4.605,2.645,7.407,2.645h211.927c2.748,0,5.259-.962,7.243-2.556l61.713,77.161v8.119h0Z"/>
</svg>