<?xml version="1.0" encoding="UTF-8"?>
<svg width="512px" height="512px" viewBox="0 0 512 512" version="1.1" xmlns="http://www.w3.org/2000/svg" xmlns:xlink="http://www.w3.org/1999/xlink">
    <!-- Generator: Sketch 62 (91390) - https://sketch.com -->
    <title>arrow-up-c</title>
    <desc>Created with Sketch.</desc>
    <g id="arrow-up-c" stroke="none" stroke-width="1" fill="none" fill-rule="evenodd">
        <path d="M140,188.9 L235.5,97.7 C240.8,92.3 247.9,89.5 255.9,89.5 C263.8,89.5 270.9,92.2 276.3,97.7 L372,188.9 C383.4,199.7 383.4,217.4 372,228.2 C360.6,239 342.2,239 330.9,228.2 L285,184.4 L285,381.7 C285,397.1 272,409.5 255.9,409.5 C239.8,409.5 226.8,397 226.8,381.7 L226.8,184.4 L180.9,228.3 C169.5,239.1 151.1,239.1 139.8,228.3 C128.6,217.3 128.6,199.8 140,188.9 Z" id="Path" fill="#000000" fill-rule="nonzero"></path>
    </g>
</svg>