<?xml version="1.0" encoding="UTF-8"?>
<svg id="Layer_1" xmlns="http://www.w3.org/2000/svg" version="1.1" viewBox="0 0 500 500">
  <!-- Generator: Adobe Illustrator 29.1.0, SVG Export Plug-In . SVG Version: 2.1.0 Build 142)  -->
  <defs>
    <style>
      .st0 {
        opacity: .5;
      }

      .st0, .st1 {
        fill-rule: evenodd;
        isolation: isolate;
      }

      .st1 {
        opacity: .1;
      }
    </style>
  </defs>
  <path class="st1" d="M250,475c124.3,0,225-100.7,225-225S374.3,25,250,25,25,125.7,25,250s100.7,225,225,225M250,434.1c101.7,0,184.1-82.4,184.1-184.1s-82.4-184.1-184.1-184.1S65.9,148.3,65.9,250s82.4,184.1,184.1,184.1"/>
  <path class="st0" d="M250,393.2c79.1,0,143.2-64.1,143.2-143.2s-64.1-143.2-143.2-143.2S106.8,170.9,106.8,250s64.1,143.2,143.2,143.2M250,352.3c56.5,0,102.3-45.8,102.3-102.3s-45.8-102.3-102.3-102.3-102.3,45.8-102.3,102.3,45.8,102.3,102.3,102.3"/>
  <circle cx="250" cy="250" r="61.4"/>
</svg>