<svg xmlns="http://www.w3.org/2000/svg" width="512" height="512" viewBox="0 0 512 512">
  <defs>
    <style>
      .st0 {
        opacity: .5;
      }

      .st0, .st1 {
        fill-rule: evenodd;
        isolation: isolate;
      }

      .st1 {
        opacity: .1;
      }
    </style>
  </defs>
  <path class="st1" d="M256,456c110.457,0,200-89.543,200-200S366.457,56,256,56,56,145.543,56,256s89.543,200,200,200M256,419.636c90.373,0,163.636-73.262,163.636-163.636s-73.262-163.636-163.636-163.636-163.636,73.262-163.636,163.636,73.262,163.636,163.636,163.636"/>
  <path class="st0" d="M256,383.272c70.291,0,127.273-56.981,127.273-127.273s-56.982-127.273-127.273-127.273-127.274,56.982-127.274,127.274,56.983,127.273,127.274,127.273M256,346.911c50.208,0,90.908-40.701,90.908-90.909s-40.7-90.909-90.908-90.909-90.909,40.701-90.909,90.909,40.701,90.909,90.909,90.909"/>
  <circle cx="256" cy="256" r="54.545"/>
</svg>