<svg xmlns="http://www.w3.org/2000/svg" width="512" height="512" viewBox="0 0 512 512">
    <path fill-rule="evenodd" d="M256 512c141.385 0 256-114.615 256-256S397.385 0 256 0 0 114.615 0 256s114.615 256 256 256m0-46.546c115.678 0 209.454-93.776 209.454-209.454S371.678 46.545 256 46.545 46.545 140.321 46.545 256c0 115.678 93.776 209.454 209.455 209.454" clip-rule="evenodd" opacity=".1"/>
    <path fill-rule="evenodd" d="M256.008 418.908c89.972 0 162.909-72.936 162.909-162.909S345.98 93.09 256.008 93.09 93.098 166.027 93.098 256s72.938 162.909 162.91 162.909m0-46.545c64.266 0 116.363-52.098 116.363-116.364s-52.097-116.364-116.363-116.364S139.644 191.734 139.644 256s52.098 116.364 116.364 116.364" clip-rule="evenodd" opacity=".5"/>
    <circle cx="256" cy="256" r="69.818"/>
</svg>
