<svg xmlns="http://www.w3.org/2000/svg" width="512" height="512" viewBox="0 0 512 512">
    <path d="M164.9 153.25v179.3c0 7.1 6.3 13.2 13.4 13.2h166.9c7.1 0 12.3-6.2 12.3-13.2v-179.3zm173.3 121.5c0 3.6-2.9 6.4-6.5 6.4s-6.4-2.9-6.4-6.4v-38.5c0-3.6 2.9-6.4 6.5-6.4s6.4 2.9 6.4 6.4zm-5.9-57.8c-3.6 0-6.5-2.9-6.5-6.4 0-3.6 2.9-6.5 6.4-6.5 3.6 0 6.4 2.9 6.4 6.5.1 3.5-2.7 6.4-6.3 6.4"/>
    <path d="M399.6 79.5H159.2c-41.3 0-49 20.8-49 30.2 23 3.2 24.1 3.6 24.1 27.9v233c0 26.8 22.2 48.9 49.1 48.9H341c26.8 0 48.2-22.1 48.2-48.9V116c0-15.4 9.3-29.1 10.3-30.5.9-1.5 2.3-2.9 2.3-3.7 0-1-.3-2.3-2.2-2.3M365 116v254.7c0 13.6-9.5 24.7-22.6 24.7h-159c-13.4 0-24.8-11.3-24.8-24.7V137.5c0-8.9.8-28.2-2.9-33.4.7-.6 2.4-.5 3.5-.5h207c-.8.2-1.2 8.3-1.2 12.4"/>
</svg>
