<?xml version="1.0" encoding="UTF-8"?>
<svg id="Layer_1" xmlns="http://www.w3.org/2000/svg" version="1.1" viewBox="0 0 500 500">
  <!-- Generator: Adobe Illustrator 29.1.0, SVG Export Plug-In . SVG Version: 2.1.0 Build 142)  -->
  <path d="M147.2,377.4h220.9c9.4,0,16.3-8.2,16.3-17.5V122.6h-254.9v237.3c0,9.4,8.3,17.5,17.7,17.5ZM350.9,189.8c4.8,0,8.5,3.8,8.5,8.6.1,4.6-3.6,8.5-8.3,8.5s-8.6-3.8-8.6-8.5,3.8-8.6,8.5-8.6ZM341.7,232.5c0-4.8,3.8-8.5,8.6-8.5s8.5,3.8,8.5,8.5v51c0,4.8-3.8,8.5-8.6,8.5s-8.5-3.8-8.5-8.5v-51ZM440.1,25H121.9c-54.7,0-64.9,27.5-64.9,40,30.4,4.2,31.9,4.8,31.9,36.9v308.4c0,35.5,29.4,64.7,65,64.7h208.6c35.5,0,63.8-29.2,63.8-64.7V73.3c0-20.4,12.3-38.5,13.6-40.4,1.2-2,3-3.8,3-4.9s-.4-3-2.9-3ZM394.3,73.3v337.1c0,18-12.6,32.7-29.9,32.7h-210.4c-17.7,0-32.8-15-32.8-32.7V101.8c0-11.8,1.1-37.3-3.8-44.2.9-.8,3.2-.7,4.6-.7h274c-1.1.3-1.6,11-1.6,16.4Z"/>
</svg>