<svg xmlns="http://www.w3.org/2000/svg" width="512" height="512" viewBox="0 0 512 512">
  <path d="M148.824,142.764v210.941c0,8.353,7.412,15.53,15.764,15.53h196.353c8.353,0,14.47-7.294,14.47-15.53v-210.941h-226.588,0ZM352.707,285.706c0,4.236-3.412,7.53-7.647,7.53s-7.53-3.412-7.53-7.53v-45.294c0-4.236,3.412-7.53,7.647-7.53s7.53,3.412,7.53,7.53v45.294ZM345.765,217.706c-4.236,0-7.647-3.412-7.647-7.53,0-4.236,3.412-7.647,7.53-7.647,4.236,0,7.53,3.412,7.53,7.647.117,4.117-3.177,7.53-7.412,7.53M424.942,56H142.118c-48.588,0-57.647,24.47-57.647,35.53,27.059,3.764,28.353,4.236,28.353,32.823v274.117c0,31.53,26.117,57.53,57.764,57.53h185.412c31.53,0,56.706-26,56.706-57.53V98.941c0-18.117,10.941-34.236,12.117-35.883,1.059-1.764,2.706-3.412,2.706-4.353,0-1.177-.353-2.706-2.588-2.706M384.236,98.941v299.647c0,16-11.177,29.059-26.588,29.059h-187.059c-15.764,0-29.177-13.294-29.177-29.059V124.236c0-10.47.941-33.177-3.412-39.294.823-.706,2.823-.588,4.117-.588h243.53c-.941.236-1.412,9.764-1.412,14.588"/>
</svg>