<?xml version="1.0" encoding="UTF-8"?>
<svg width="512px" height="512px" viewBox="0 0 512 512" version="1.1" xmlns="http://www.w3.org/2000/svg" xmlns:xlink="http://www.w3.org/1999/xlink">
    <!-- Generator: Sketch 62 (91390) - https://sketch.com -->
    <title>beaker</title>
    <desc>Created with Sketch.</desc>
    <g id="beaker" stroke="none" stroke-width="1" fill="none" fill-rule="evenodd">
        <path d="M164.9,153.25 L164.9,332.55 C164.9,339.65 171.2,345.75 178.3,345.75 L345.2,345.75 C352.3,345.75 357.5,339.55 357.5,332.55 L357.5,153.25 L164.9,153.25 Z M338.2,274.75 C338.2,278.35 335.3,281.15 331.7,281.15 C328.1,281.15 325.3,278.25 325.3,274.75 L325.3,236.25 C325.3,232.65 328.2,229.85 331.8,229.85 C335.4,229.85 338.2,232.75 338.2,236.25 L338.2,274.75 Z M332.3,216.95 C328.7,216.95 325.8,214.05 325.8,210.55 C325.8,206.95 328.7,204.05 332.2,204.05 C335.8,204.05 338.6,206.95 338.6,210.55 C338.7,214.05 335.9,216.95 332.3,216.95 L332.3,216.95 Z" id="Shape" fill="#000000" fill-rule="nonzero"></path>
        <path d="M399.6,79.5 L159.2,79.5 C117.9,79.5 110.2,100.3 110.2,109.7 C133.2,112.9 134.3,113.3 134.3,137.6 L134.3,370.6 C134.3,397.4 156.5,419.5 183.4,419.5 L341,419.5 C367.8,419.5 389.2,397.4 389.2,370.6 L389.2,116 C389.2,100.6 398.5,86.9 399.5,85.5 C400.4,84 401.8,82.6 401.8,81.8 C401.8,80.8 401.5,79.5 399.6,79.5 Z M365,116 L365,370.7 C365,384.3 355.5,395.4 342.4,395.4 L183.4,395.4 C170,395.4 158.6,384.1 158.6,370.7 L158.6,137.5 C158.6,128.6 159.4,109.3 155.7,104.1 C156.4,103.5 158.1,103.6 159.2,103.6 L366.2,103.6 C365.4,103.8 365,111.9 365,116 L365,116 Z" id="Shape" fill="#000000" fill-rule="nonzero"></path>
    </g>
</svg>