<?xml version="1.0" encoding="UTF-8"?>
<svg id="content" xmlns="http://www.w3.org/2000/svg" version="1.1" viewBox="0 0 512 512">
  <!-- Generator: Adobe Illustrator 30.1.0, SVG Export Plug-In . SVG Version: 2.1.1 Build 136)  -->
  <path id="bell-outline" d="M217.9,417.9h76.2c0,21-17.1,38.1-38.1,38.1s-38.1-17.1-38.1-38.1h0ZM427.4,379.8v19H84.6v-19l38.1-38.1v-114.3c0-59,38.1-110.5,95.2-127.6v-5.7c0-21,17.1-38.1,38.1-38.1s38.1,17.1,38.1,38.1v5.7c57.1,17.1,95.2,68.6,95.2,127.6v114.3l38.1,38.1ZM351.2,227.4c0-53.3-41.9-95.2-95.2-95.2s-95.2,41.9-95.2,95.2v133.3h190.5v-133.3h0Z"/>
</svg>