<svg xmlns="http://www.w3.org/2000/svg" width="512" height="512" viewBox="0 0 512 512">
    <path fill-rule="evenodd" d="M369.559 200.774l-6.357-.422c-1.209 18.226-14.591 33.27-32.545 36.586l1.158 6.266c20.82-3.847 36.342-21.294 37.744-42.43m-150.07 0l-6.356-.422c-1.21 18.226-14.593 33.27-32.545 36.586l1.158 6.266c20.82-3.847 36.342-21.294 37.743-42.43m155.699 138.89c7.247-4.088 9.806-13.279 5.716-20.526-4.09-7.247-13.277-9.806-20.527-5.716-32.265 18.21-69.011 27.833-106.261 27.833-35.864 0-71.39-8.948-102.74-25.877-7.323-3.956-16.462-1.223-20.417 6.097-3.955 7.322-1.223 16.463 6.099 20.418 35.733 19.297 76.212 29.497 117.058 29.497 42.43 0 84.295-10.972 121.072-31.726M230.912 203.156c0-27.476-22.273-49.75-49.75-49.75-27.474 0-49.747 22.274-49.747 49.75 0 27.475 22.273 49.748 49.748 49.748 27.476 0 49.75-22.273 49.75-49.748m149.67 0c0-27.476-22.272-49.75-49.747-49.75-27.477 0-49.748 22.274-49.748 49.75 0 27.475 22.271 49.748 49.748 49.748 27.475 0 49.748-22.273 49.748-49.748M129.808 90.5h252.384c31.48 0 57 25.52 57 57v217c0 31.48-25.52 57-57 57H129.808c-31.48 0-57-25.52-57-57v-217c0-31.48 25.52-57 57-57z"/>
</svg>
