<?xml version="1.0" encoding="UTF-8"?>
<svg id="Layer_1" xmlns="http://www.w3.org/2000/svg" version="1.1" viewBox="0 0 500 500">
  <!-- Generator: Adobe Illustrator 29.1.0, SVG Export Plug-In . SVG Version: 2.1.0 Build 142)  -->
  <path d="M343.1,234.3l-1.4-7.7c22.1-4.1,38.5-22.6,40-44.9l7.8.5h0c-1.7,26-20.8,47.4-46.4,52.1ZM205.2,182.2l-7.8-.5c-1.5,22.4-17.9,40.9-40,44.9l1.4,7.7c25.6-4.7,44.6-26.2,46.4-52.1ZM475,116.7v266.5c0,38.7-31.3,70-70,70H95c-38.7,0-70-31.3-70-70V116.7c0-38.7,31.3-70,70-70h310c38.7,0,70,31.3,70,70ZM280.8,185.1c0,33.7,27.4,61.1,61.1,61.1s61.1-27.4,61.1-61.1h0c0-33.7-27.4-61.1-61.1-61.1s-61.1,27.4-61.1,61.1ZM97,185.1c0,33.7,27.4,61.1,61.1,61.1s61.1-27.4,61.1-61.1h0c0-33.7-27.4-61.1-61.1-61.1s-61.1,27.4-61.1,61.1ZM403.4,327.5c-5-8.9-16.3-12-25.2-7-39.6,22.4-84.8,34.2-130.5,34.2s-87.7-11-126.2-31.8c-9-4.9-20.2-1.5-25.1,7.5-4.9,9-1.5,20.2,7.5,25.1,43.9,23.7,93.6,36.2,143.8,36.2s103.5-13.5,148.7-39h0c8.9-5,12-16.3,7-25.2Z"/>
</svg>