<svg xmlns="http://www.w3.org/2000/svg" width="512" height="512" viewBox="0 0 512 512">
  <defs>
    <style>
      .st0 {
        fill-rule: evenodd;
      }
    </style>
  </defs>
  <path class="st0" d="M379.977,195.706l-6.94-.46c-1.32,19.899-15.93,36.323-35.531,39.943l1.264,6.841c22.731-4.2,39.676-23.248,41.207-46.323M216.138,195.706l-6.94-.46c-1.321,19.899-15.932,36.323-35.531,39.943l1.264,6.841c22.731-4.2,39.676-23.248,41.206-46.323M386.123,347.34c7.912-4.463,10.706-14.498,6.241-22.409-4.465-7.911-14.495-10.706-22.411-6.241-35.226,19.881-75.343,30.387-116.01,30.387-39.155,0-77.94-9.769-112.166-28.251-7.995-4.319-17.972-1.335-22.291,6.656-4.318,7.994-1.335,17.973,6.659,22.292,39.011,21.067,83.204,32.203,127.798,32.203,46.323,0,92.029-11.979,132.18-34.637M228.609,198.307c0-29.997-24.316-54.315-54.315-54.315s-54.311,24.317-54.311,54.315,24.316,54.312,54.312,54.312,54.315-24.316,54.315-54.312M392.013,198.307c0-29.997-24.316-54.315-54.311-54.315s-54.312,24.317-54.312,54.315,24.315,54.312,54.312,54.312,54.312-24.316,54.312-54.312M118.23,75.316h275.54c34.368,0,62.23,27.861,62.23,62.23v236.91c0,34.368-27.861,62.23-62.23,62.23H118.23c-34.368,0-62.23-27.861-62.23-62.23v-236.911c0-34.368,27.861-62.23,62.23-62.23"/>
</svg>