<svg xmlns="http://www.w3.org/2000/svg" width="512" height="512" viewBox="0 0 512 512">
  <path id="content" d="M411.556,411.556V100.444H100.444v311.111h311.111ZM411.556,56c11.787,0,23.091,4.682,31.427,13.018,8.336,8.335,13.018,19.64,13.018,31.427v311.111c0,11.787-4.682,23.091-13.018,31.427-8.336,8.336-19.64,13.018-31.427,13.018H100.444c-11.787,0-23.092-4.682-31.427-13.018-8.335-8.336-13.018-19.64-13.018-31.427V100.444c0-24.667,20-44.444,44.444-44.444h311.111ZM233.778,144.889h44.444v88.889h88.889v44.444h-88.889v88.889h-44.444v-88.889h-88.889v-44.444h88.889v-88.889Z"/>
</svg>