<svg xmlns="http://www.w3.org/2000/svg" width="512" height="512" viewBox="0 0 512 512">
  <path id="content" d="M411.556,56H100.444c-11.787,0-23.092,4.682-31.427,13.018-8.335,8.335-13.018,19.64-13.018,31.427v311.111c0,11.787,4.682,23.091,13.018,31.427,8.335,8.336,19.64,13.018,31.427,13.018h311.111c11.787,0,23.091-4.682,31.427-13.018,8.336-8.336,13.018-19.64,13.018-31.427V100.444c0-11.787-4.682-23.092-13.018-31.427-8.336-8.335-19.64-13.018-31.427-13.018ZM411.556,100.444v311.111H100.444V100.444h311.111ZM211.556,367.111l-88.889-88.889,31.333-31.556,57.556,57.556,146.444-146.444,31.333,31.556"/>
</svg>