<?xml version="1.0" encoding="UTF-8"?>
<svg id="Layer_1" xmlns="http://www.w3.org/2000/svg" version="1.1" viewBox="0 0 500 500">
  <!-- Generator: Adobe Illustrator 29.1.0, SVG Export Plug-In . SVG Version: 2.1.0 Build 142)  -->
  <path d="M470,80.3c-5-11.6-13-21.3-23.3-28.2-5.1-3.4-10.7-6.2-16.8-8.2-6-1.9-12.5-2.9-19.1-2.9H89.3c-8.8,0-17.3,1.8-25,5-11.6,5-21.3,13-28.2,23.3-3.4,5.1-6.2,10.7-8.2,16.8-1.9,6-2.9,12.5-2.9,19.1v289.3c0,8.8,1.8,17.3,5,25,5,11.6,13,21.3,23.3,28.2,5.1,3.4,10.7,6.2,16.8,8.2,6,1.9,12.5,2.9,19.1,2.9h321.5c8.8,0,17.3-1.8,25-5,11.6-5,21.3-13,28.2-23.3,3.4-5.1,6.2-10.7,8.2-16.8,1.9-6,2.9-12.5,2.9-19.1V105.3c0-8.8-1.8-17.3-5-25ZM442.9,394.7c0,4.5-.9,8.7-2.6,12.5-2.4,5.7-6.5,10.7-11.6,14.2-2.6,1.7-5.5,3.1-8.4,4.1-3.1.9-6.2,1.4-9.6,1.4H89.3c-4.5,0-8.7-.9-12.5-2.6-5.7-2.4-10.7-6.5-14.2-11.6-1.7-2.6-3.1-5.5-4.1-8.4-.9-3.1-1.4-6.2-1.4-9.6v-224.9c0-16.1,16.1-32.1,32.1-32.1h321.5c16.1,0,32.1,16.1,32.1,32.1v224.9Z"/>
</svg>