<svg xmlns="http://www.w3.org/2000/svg" width="512" height="512" viewBox="0 0 512 512">
    <path d="M96 64v16h320c4.5 0 8.6.9 12.5 2.5 5.7 2.4 10.6 6.5 14.1 11.6 1.7 2.6 3.1 5.4 4 8.4.9 3 1.4 6.2 1.4 9.5v288c0 4.5-.9 8.6-2.5 12.5-2.4 5.7-6.5 10.6-11.6 14.1-2.6 1.7-5.4 3.1-8.4 4-3 .9-6.2 1.4-9.5 1.4H96c-4.5 0-8.6-.9-12.5-2.5-5.7-2.4-10.6-6.5-14.1-11.6-1.7-2.6-3.1-5.4-4-8.4-.9-3-1.4-6.2-1.4-9.5V112c0-4.5.9-8.6 2.5-12.5 2.4-5.7 6.5-10.6 11.6-14.1 2.6-1.7 5.4-3.1 8.4-4 3-.9 6.2-1.4 9.5-1.4V48c-8.8 0-17.3 1.8-24.9 5C59.6 57.9 49.9 66 43 76.2c-3.4 5.1-6.2 10.7-8.1 16.8-1.9 6-2.9 12.4-2.9 19v288c0 8.8 1.8 17.3 5 24.9 4.9 11.5 13 21.2 23.2 28.1 5.1 3.4 10.7 6.2 16.8 8.1 6 1.9 12.4 2.9 19 2.9h320c8.8 0 17.3-1.8 24.9-5 11.5-4.9 21.2-13 28.1-23.2 3.4-5.1 6.2-10.7 8.1-16.8 1.9-6 2.9-12.4 2.9-19V112c0-8.8-1.8-17.3-5-24.9-4.9-11.5-13-21.2-23.2-28.1-5.1-3.4-10.7-6.2-16.8-8.1-6-1.9-12.4-2.9-19-2.9H96v16z"/>
    <path d="M397.8 64H114.2C77.7 64 48 94.1 48 131.2V176h16c0-16 16-32 32-32h320c16 0 32 16 32 32h16v-44.8c0-37.1-29.7-67.2-66.2-67.2z"/>
</svg>
