<svg xmlns="http://www.w3.org/2000/svg" width="512" height="512" viewBox="0 0 512 512">
    <path d="M129.9 94.6v12.6H382c3.5 0 6.8.7 9.8 2 4.5 1.9 8.4 5.1 11.1 9.1 1.3 2 2.4 4.3 3.2 6.6.7 2.4 1.1 4.9 1.1 7.5v226.9c0 3.5-.7 6.8-2 9.8-1.9 4.5-5.1 8.4-9.1 11.1-2 1.3-4.3 2.4-6.6 3.2-2.4.7-4.9 1.1-7.5 1.1H129.9c-3.5 0-6.8-.7-9.8-2-4.5-1.9-8.4-5.1-11.1-9.1-1.3-2-2.4-4.3-3.2-6.6-.7-2.4-1.1-4.9-1.1-7.5V132.4c0-3.5.7-6.8 2-9.8 1.9-4.5 5.1-8.4 9.1-11.1 2-1.3 4.3-2.4 6.6-3.2 2.4-.7 4.9-1.1 7.5-1.1V82c-6.9 0-13.6 1.4-19.6 3.9-9.1 3.9-16.7 10.2-22.1 18.3-2.7 4-4.9 8.4-6.4 13.2-1.5 4.7-2.3 9.8-2.3 15v226.9c0 6.9 1.4 13.6 3.9 19.6 3.9 9.1 10.2 16.7 18.3 22.1 4 2.7 8.4 4.9 13.2 6.4 4.7 1.5 9.8 2.3 15 2.3H382c6.9 0 13.6-1.4 19.6-3.9 9.1-3.9 16.7-10.2 22.1-18.3 2.7-4 4.9-8.4 6.4-13.2 1.5-4.7 2.3-9.8 2.3-15V132.4c0-6.9-1.4-13.6-3.9-19.6-3.9-9.1-10.2-16.7-18.3-22.1-4-2.7-8.4-4.9-13.2-6.4-4.7-1.5-9.8-2.3-15-2.3H129.9v12.6z"/>
    <path d="M367.7 94.6H144.3c-28.8 0-52.2 23.7-52.2 53v35.3h12.6c0-12.6 12.6-25.2 25.2-25.2H382c12.6 0 25.2 12.6 25.2 25.2h12.6v-35.3c.1-29.3-23.3-53-52.1-53z"/>
</svg>
