<?xml version="1.0" encoding="UTF-8"?>
<svg id="Layer_1" xmlns="http://www.w3.org/2000/svg" version="1.1" viewBox="0 0 500 500">
  <!-- Generator: Adobe Illustrator 29.1.0, SVG Export Plug-In . SVG Version: 2.1.0 Build 142)  -->
  <path d="M368.8,101c-29.4-38.9-71.8-63.5-119-63.5s-89.7,24.6-119,63.5c6.4,15.8,15.9,30.1,28.3,42.4,24.3,24.3,56.5,37.7,90.8,37.7s66.6-13.4,90.8-37.7c12.2-12.2,21.8-26.6,28.1-42.4M120,156.2c-1.7,2.8-3.4,5.8-5.1,8.7-3-1.8-5.3-3.9-7.7-5.8-1.1-1-3-4-4.5-7.3,5.5-11.4,1.1-25.2-10-31.3-11.7-6.5-26.3-2.4-32.8,9.3s-2.4,26.3,9.3,32.8c1.3.7,2.5,1.3,3.9,1.7,2.8,6.4,7.3,14.3,13.6,19.6,4.2,3.5,8.9,7.2,15.3,10.7-7.2,20.4-11.7,42.4-12.6,65.6-11.1.1-18.7,2.2-25.5,4.1-4.2,1.3-8.3,3.4-11.8,5.9-1-.1-1.9-.1-3-.1-13.4,0-24.1,10.8-24.1,24.1s10.8,24.1,24.1,24.1,23.6-10.2,24.1-23.2c5.1-1.6,10-2.6,17.1-2.8,3.3,33.1,13.4,63.7,28.7,89.5-14.2,11.1-22.9,23-26.7,36.4,0,0-.7.5-1.8,1.4-1,.8-1.9,1.7-2.8,2.6-8.9,9.9-8.2,25.2,1.8,34,9.9,8.9,25.2,8.2,34-1.8,8.2-9,8.2-22.5.6-31.4,3.1-5.7,6.4-9,13.7-15.1,27.1,31.8,63.7,52.3,104.2,54.7v-225.8c-53.6-3-99.5-34.9-121.9-80.5M450.5,269.9c-1,0-1.9,0-3,.1-3.6-2.5-7.7-4.7-11.8-5.9-6.9-1.9-14.5-4-25.5-4.1-1-23.2-5.3-45.4-12.6-65.6,6.5-3.5,11.1-7.2,15.3-10.7,6.1-5.2,10.8-13.4,13.6-19.6,1.4-.5,2.6-1,3.9-1.7,11.7-6.5,15.8-21.2,9.3-32.8-6.5-11.7-21.2-15.8-32.8-9.3-11.1,6.1-15.3,20-10,31.3-1.6,3.4-3.4,6.4-4.5,7.3-2.4,2.2-4.8,4-7.7,5.8-1.6-3-3.3-5.8-5.1-8.7-22.5,45.5-68.2,77.4-121.5,80.5v226c40.5-2.4,76.8-22.9,104.2-54.7,7.5,5.9,10.7,9.4,13.7,15.1-7.6,9-7.6,22.5.6,31.4,8.9,9.9,24.2,10.7,34,1.8,9.8-8.9,10.7-24.2,1.8-34-.8-1-1.8-1.8-2.8-2.6-1.1-1-1.8-1.4-1.8-1.4-3.9-13.4-12.5-25.4-26.7-36.4,15.3-25.9,25.5-56.4,28.7-89.5,7.2.1,12,1.3,17.1,2.8.6,12.8,11.1,23.2,24.1,23.2s24.1-10.8,24.1-24.1c-.1-13.2-11.2-24.2-24.5-24.2"/>
</svg>