<svg xmlns="http://www.w3.org/2000/svg" width="512" height="512" viewBox="0 0 512 512">
  <path d="M361.566,123.542c-26.124-34.582-63.812-56.424-105.781-56.424s-79.764,21.842-105.781,56.424c5.675,14.026,14.132,26.766,25.161,37.687,21.628,21.628,50.214,33.512,80.728,33.512s59.208-11.884,80.728-33.512c10.813-10.813,19.379-23.661,24.947-37.687M140.475,172.611c-1.499,2.462-2.998,5.14-4.497,7.708-2.676-1.606-4.711-3.426-6.852-5.14-.964-.857-2.676-3.533-3.962-6.531,4.925-10.172.964-22.377-8.886-27.837-10.386-5.781-23.34-2.141-29.122,8.244-5.781,10.386-2.141,23.34,8.244,29.122,1.178.643,2.248,1.178,3.426,1.499,2.462,5.675,6.531,12.741,12.099,17.452,3.748,3.105,7.923,6.424,13.597,9.529-6.424,18.094-10.386,37.687-11.242,58.351-9.85.107-16.596,1.927-22.698,3.64-3.748,1.178-7.388,2.998-10.492,5.246-.857-.107-1.713-.107-2.676-.107-11.884,0-21.413,9.636-21.413,21.413,0,11.884,9.636,21.413,21.413,21.413,11.456,0,20.985-9.1,21.413-20.664,4.497-1.392,8.886-2.356,15.204-2.462,2.891,29.444,11.884,56.638,25.482,79.55-12.634,9.85-20.342,20.45-23.769,32.334,0,0-.643.428-1.606,1.284-.857.749-1.713,1.499-2.462,2.356-7.923,8.78-7.281,22.377,1.606,30.193,8.78,7.923,22.377,7.281,30.193-1.606,7.281-8.03,7.281-20.021.535-27.944,2.784-5.032,5.675-8.03,12.205-13.383,24.09,28.266,56.638,46.467,92.612,48.608v-200.749c-47.644-2.676-88.436-31.049-108.351-71.52M434.265,273.682c-.857,0-1.713,0-2.676.107-3.212-2.248-6.852-4.176-10.492-5.246-6.103-1.713-12.848-3.533-22.698-3.64-.857-20.664-4.711-40.364-11.242-58.351,5.781-3.105,9.85-6.424,13.597-9.529,5.46-4.604,9.636-11.884,12.099-17.452,1.284-.428,2.356-.857,3.426-1.499,10.386-5.781,14.026-18.844,8.244-29.122-5.781-10.386-18.844-14.026-29.122-8.244-9.85,5.46-13.597,17.773-8.886,27.837-1.392,2.998-2.998,5.675-3.962,6.531-2.141,1.927-4.283,3.533-6.852,5.14-1.392-2.676-2.891-5.14-4.497-7.708-20.021,40.471-60.6,68.844-108.03,71.52v200.857c35.974-2.141,68.308-20.342,92.612-48.608,6.638,5.246,9.529,8.351,12.205,13.383-6.745,8.03-6.745,20.021.535,27.944,7.923,8.78,21.52,9.529,30.193,1.606,8.672-7.923,9.529-21.52,1.606-30.193-.749-.857-1.606-1.606-2.462-2.356-.964-.857-1.606-1.284-1.606-1.284-3.426-11.884-11.135-22.591-23.769-32.334,13.597-23.02,22.698-50.107,25.482-79.55,6.424.107,10.707,1.178,15.204,2.462.535,11.349,9.85,20.664,21.413,20.664,11.884,0,21.413-9.636,21.413-21.413-.107-11.777-9.957-21.52-21.734-21.52"/>
</svg>