<svg xmlns="http://www.w3.org/2000/svg" width="512" height="512" viewBox="0 0 512 512">
    <path d="M354.8 92.7C330.4 60.4 295.2 40 256 40c-39.2 0-74.5 20.4-98.8 52.7 5.3 13.1 13.2 25 23.5 35.2 20.2 20.2 46.9 31.3 75.4 31.3 28.5 0 55.3-11.1 75.4-31.3 10.1-10.1 18.1-22.1 23.3-35.2zm-206.5 45.831c-1.4 2.3-2.8 4.8-4.2 7.2-2.5-1.5-4.4-3.2-6.4-4.8-.9-.8-2.5-3.3-3.7-6.1 4.6-9.5.9-20.9-8.3-26-9.7-5.4-21.8-2-27.2 7.7-5.4 9.7-2 21.8 7.7 27.2 1.1.6 2.1 1.1 3.2 1.4 2.3 5.3 6.1 11.9 11.3 16.3 3.5 2.9 7.4 6 12.7 8.9-6 16.9-9.7 35.2-10.5 54.5-9.2.1-15.5 1.8-21.2 3.4-3.5 1.1-6.9 2.8-9.8 4.9-.8-.1-1.6-.1-2.5-.1-11.1 0-20 9-20 20 0 11.1 9 20 20 20 10.7 0 19.6-8.5 20-19.3 4.2-1.3 8.3-2.2 14.2-2.3 2.7 27.5 11.1 52.9 23.8 74.3-11.8 9.2-19 19.1-22.2 30.2 0 0-.6.4-1.5 1.2-.8.7-1.6 1.4-2.3 2.2-7.4 8.2-6.8 20.9 1.5 28.2 8.2 7.4 20.9 6.8 28.2-1.5 6.8-7.5 6.8-18.7.5-26.1 2.6-4.7 5.3-7.5 11.4-12.5 22.5 26.4 52.9 43.4 86.5 45.4v-187.5c-44.5-2.5-82.6-29-101.2-66.8zm274.4 94.4c-.8 0-1.6 0-2.5.1-3-2.1-6.4-3.9-9.8-4.9-5.7-1.6-12-3.3-21.2-3.4-.8-19.3-4.4-37.7-10.5-54.5 5.4-2.9 9.2-6 12.7-8.9 5.1-4.3 9-11.1 11.3-16.3 1.2-.4 2.2-.8 3.2-1.4 9.7-5.4 13.1-17.6 7.7-27.2-5.4-9.7-17.6-13.1-27.2-7.7-9.2 5.1-12.7 16.6-8.3 26-1.3 2.8-2.8 5.3-3.7 6.1-2 1.8-4 3.3-6.4 4.8-1.3-2.5-2.7-4.8-4.2-7.2-18.7 37.8-56.6 64.3-100.9 66.8v187.6c33.6-2 63.8-19 86.5-45.4 6.2 4.9 8.9 7.8 11.4 12.5-6.3 7.5-6.3 18.7.5 26.1 7.4 8.2 20.1 8.9 28.2 1.5 8.1-7.4 8.9-20.1 1.5-28.2-.7-.8-1.5-1.5-2.3-2.2-.9-.8-1.5-1.2-1.5-1.2-3.2-11.1-10.4-21.1-22.2-30.2 12.7-21.5 21.2-46.8 23.8-74.3 6 .1 10 1.1 14.2 2.3.5 10.6 9.2 19.3 20 19.3 11.1 0 20-9 20-20-.1-11-9.3-20.1-20.3-20.1z"/>
</svg>
