<?xml version="1.0" encoding="UTF-8"?>
<svg id="content" xmlns="http://www.w3.org/2000/svg" version="1.1" viewBox="0 0 512 512">
  <!-- Generator: Adobe Illustrator 30.1.0, SVG Export Plug-In . SVG Version: 2.1.1 Build 136)  -->
  <path id="calendar-month" d="M196,236v40h-40v-40h40ZM276,236v40h-40v-40h40ZM356,236v40h-40v-40h40ZM396,96c10.6,0,20.8,4.2,28.3,11.7s11.7,17.7,11.7,28.3v280c0,10.6-4.2,20.8-11.7,28.3s-17.7,11.7-28.3,11.7H116c-22.2,0-40-18-40-40V136c0-10.6,4.2-20.8,11.7-28.3s17.7-11.7,28.3-11.7h20v-40h40v40h160v-40h40v40h20ZM396,416v-220H116v220h280ZM196,316v40h-40v-40h40ZM276,316v40h-40v-40h40ZM356,316v40h-40v-40h40Z"/>
</svg>