<?xml version="1.0" encoding="UTF-8"?>
<svg id="Layer_1" xmlns="http://www.w3.org/2000/svg" version="1.1" viewBox="0 0 500 500">
  <!-- Generator: Adobe Illustrator 29.1.0, SVG Export Plug-In . SVG Version: 2.1.0 Build 142)  -->
  <path d="M438.6,132.2h-73l-43.7-44.2-.3-.3-.3-.3c-6.5-6.5-15.2-10.5-25.2-10.5h-90.8c-10.5,0-20,4.5-26.6,11.8h0c0,.1-42.7,43.5-42.7,43.5H61.3c-20.1,0-36.3,15.7-36.3,35.9v218.7c0,20.1,16.2,36.4,36.3,36.4h377.4c20,0,36.3-16.3,36.3-36.4v-218.5c-.1-20.1-16.5-36-36.4-36M249.9,368.5c-55.1,0-100-45-100-100.1s44.9-100.1,100-100.1,100,44.9,100,100.1-44.9,100.1-100,100.1M431.7,190.1c-8.3,0-15.2-6.8-15.2-15.2s6.7-15.2,15.2-15.2,15.2,6.8,15.2,15.2-6.9,15.2-15.2,15.2M249.9,193c-41.8,0-75.5,33.9-75.5,75.7s33.8,75.7,75.5,75.7,75.5-33.9,75.5-75.7-33.9-75.7-75.5-75.7"/>
</svg>