<svg xmlns="http://www.w3.org/2000/svg" width="512" height="512" viewBox="0 0 512 512">
  <path d="M423.624,151.25h-64.875l-38.875-39.25-.25-.25-.25-.25c-5.75-5.75-13.5-9.375-22.375-9.375h-80.75c-9.375,0-17.75,4-23.625,10.5v.125l-38,38.5h-66.375c-17.875,0-32.25,14-32.25,31.875v194.375c0,17.875,14.375,32.375,32.25,32.375h335.5c17.75,0,32.25-14.5,32.25-32.375v-194.25c-.125-17.875-14.625-32-32.375-32M255.874,361.375c-49,0-88.875-40-88.875-89s39.875-89,88.875-89,88.875,39.875,88.875,89-39.875,89-88.875,89M417.5,202.75c-7.375,0-13.5-6-13.5-13.5s6-13.5,13.5-13.5c7.375,0,13.5,6,13.5,13.5,0,7.375-6.125,13.5-13.5,13.5M255.874,205.375c-37.125,0-67.125,30.125-67.125,67.25s30,67.25,67.125,67.25,67.125-30.125,67.125-67.25-30.125-67.25-67.125-67.25"/>
</svg>