<svg xmlns="http://www.w3.org/2000/svg" width="512" height="512" viewBox="0 0 512 512">
    <path d="M390.2 165.7h-51.9l-31.1-31.4-.2-.2-.2-.2c-4.6-4.6-10.8-7.5-17.9-7.5h-64.6c-7.5 0-14.2 3.2-18.9 8.4v.1L175 165.7h-53.1c-14.3 0-25.8 11.2-25.8 25.5v155.5c0 14.3 11.5 25.9 25.8 25.9h268.4c14.2 0 25.8-11.6 25.8-25.9V191.3c-.1-14.3-11.7-25.6-25.9-25.6zM256 333.8c-39.2 0-71.1-32-71.1-71.2 0-39.3 31.9-71.2 71.1-71.2 39.2 0 71.1 31.9 71.1 71.2 0 39.2-31.9 71.2-71.1 71.2zm129.3-126.9c-5.9 0-10.8-4.8-10.8-10.8 0-6 4.8-10.8 10.8-10.8 5.9 0 10.8 4.8 10.8 10.8 0 5.9-4.9 10.8-10.8 10.8z"/>
    <path d="M256 159.2c-29.7 0-53.7 24.1-53.7 53.8 0 29.7 24 53.8 53.7 53.8 29.6 0 53.7-24.1 53.7-53.8 0-29.7-24.1-53.8-53.7-53.8z"/>
</svg>
