<svg xmlns="http://www.w3.org/2000/svg" width="512" height="512" viewBox="0 0 512 512">
  <path d="M413.142,156h-52.678c-2.678,0-6-1.732-8.589-4.464l-23.161-36.554c-.366-.58-.775-1.132-1.223-1.652-8-9.331-18.812-14.473-30.42-14.473h-82.143c-11.607,0-22.42,5.143-30.42,14.473-.448.519-.857,1.072-1.223,1.652l-23.161,36.607c-1.982,2.161-4.768,4.464-7.696,4.464v-7.143c0-7.89-6.396-14.285-14.285-14.285h-21.428c-7.89,0-14.285,6.396-14.285,14.285v7.143h-3.572c-23.66.025-42.833,19.198-42.857,42.857v171.375c.025,23.66,19.198,42.833,42.857,42.857h314.286c23.66-.025,42.833-19.198,42.857-42.857v-171.429c-.025-23.66-19.198-42.833-42.857-42.857M310.321,336.625c-36.669,29.985-90.704,24.566-120.689-12.104-9.588-11.725-15.9-25.78-18.293-40.736-7.471,2.535-15.583-1.467-18.118-8.938-1.742-5.135-.428-10.814,3.396-14.66l17.857-17.857c5.578-5.574,14.619-5.574,20.196,0l17.857,17.857c5.577,5.58,5.574,14.626-.006,20.203-2.677,2.676-6.307,4.179-10.092,4.18-.597-.006-1.194-.048-1.786-.125,7.856,30.601,39.032,49.04,69.634,41.183,8.067-2.071,15.585-5.878,22.028-11.156,6.095-5.01,15.097-4.131,20.108,1.964,5.01,6.095,4.131,15.097-1.964,20.108-.033.027-.066.053-.099.08h-.027v.002ZM355.383,280.375l-17.857,17.857c-5.578,5.574-14.619,5.574-20.196,0l-17.857-17.857c-5.571-5.588-5.557-14.632.029-20.203,3.067-3.058,7.354-4.559,11.658-4.083-7.824-30.574-38.952-49.016-69.526-41.192-8.157,2.087-15.752,5.952-22.242,11.317-5.909,5.228-14.937,4.676-20.165-1.233-5.228-5.909-4.676-14.937,1.233-20.165.236-.209.478-.41.727-.602,36.482-30.167,90.511-25.047,120.678,11.435,9.785,11.833,16.212,26.077,18.608,41.245,7.432-2.649,15.604,1.229,18.252,8.661,1.847,5.182.554,10.964-3.324,14.866l-.018-.044v-.002Z"/>
</svg>