<?xml version="1.0" encoding="UTF-8"?>
<svg id="Layer_1" xmlns="http://www.w3.org/2000/svg" version="1.1" viewBox="0 0 500 500">
  <!-- Generator: Adobe Illustrator 29.1.0, SVG Export Plug-In . SVG Version: 2.1.0 Build 142)  -->
  <path d="M426.8,137.5h-59.3c-3,0-6.8-1.9-9.7-5l-26.1-41.1c-.4-.7-.9-1.3-1.4-1.9-9-10.5-21.2-16.3-34.2-16.3h-92.4c-13.1,0-25.2,5.8-34.2,16.3-.5.6-1,1.2-1.4,1.9l-26.1,41.2c-2.2,2.4-5.4,5-8.7,5v-8c0-8.9-7.2-16.1-16.1-16.1h-24.1c-8.9,0-16.1,7.2-16.1,16.1v8h-4c-26.6,0-48.2,21.6-48.2,48.2v192.8c0,26.6,21.6,48.2,48.2,48.2h353.6c26.6,0,48.2-21.6,48.2-48.2v-192.9c0-26.6-21.6-48.2-48.2-48.2M311.1,340.7c-41.3,33.7-102,27.6-135.8-13.6-10.8-13.2-17.9-29-20.6-45.8-8.4,2.9-17.5-1.6-20.4-10.1-2-5.8-.5-12.2,3.8-16.5l20.1-20.1c6.3-6.3,16.4-6.3,22.7,0l20.1,20.1c6.3,6.3,6.3,16.5,0,22.7-3,3-7.1,4.7-11.4,4.7-.7,0-1.3,0-2-.1,8.8,34.4,43.9,55.2,78.3,46.3,9.1-2.3,17.5-6.6,24.8-12.6,6.9-5.6,17-4.6,22.6,2.2,5.6,6.9,4.6,17-2.2,22.6,0,0,0,0-.1,0h0ZM361.8,277.4l-20.1,20.1c-6.3,6.3-16.4,6.3-22.7,0l-20.1-20.1c-6.3-6.3-6.3-16.5,0-22.7,3.4-3.4,8.3-5.1,13.1-4.6-8.8-34.4-43.8-55.1-78.2-46.3-9.2,2.3-17.7,6.7-25,12.7-6.6,5.9-16.8,5.3-22.7-1.4-5.9-6.6-5.3-16.8,1.4-22.7.3-.2.5-.5.8-.7,41-33.9,101.8-28.2,135.8,12.9,11,13.3,18.2,29.3,20.9,46.4,8.4-3,17.6,1.4,20.5,9.7,2.1,5.8.6,12.3-3.7,16.7h0Z"/>
</svg>