<svg xmlns="http://www.w3.org/2000/svg" width="512" height="512" viewBox="0 0 512 512">
  <defs>
  <style>
      .st0 {fill: %23d3976e;}
      .st1 {fill: %2383bf4f;}
      .st2 {fill: %23ffdd7d;}
      .st3 {fill: %2342ade2;}
      .st4 {fill: %23c28fef;}
      .st5 {fill: %23594640;}
      .st6 {fill: %23ed4c5c;}
    </style>
  </defs>
  <g id="celebration">
    <path class="st0" d="M338.9,162.6h-15.1c0-6.9-1-13.6-3.1-20.1-8.8-28.4-34.8-47.5-64.5-47.5s-55.6,19.1-64.5,47.4c-2.1,6.6-3.1,13.3-3.1,20.2h-15c0-8.5,1.3-16.9,3.8-24.8,5.3-16.7,15.4-31.1,29.5-41.5,14.4-10.7,31.4-16.4,49.4-16.4s35,5.7,49.4,16.4c13.9,10.4,24.3,25.2,29.5,41.6,2.5,7.9,3.7,16.3,3.7,24.6h0Z"/>
    <path class="st2" d="M241.9,125c-16.6-33.1-49.4-55.9-87.2-55.9-54.4,0-98.7,46.8-98.7,104.7s9.5,51.2,25.1,69.6c0,0,40-104.8,160.9-118.5h-.1Z"/>
    <path class="st5" d="M241.9,125c-120.7,13.6-160.9,118.5-160.9,118.5,74.5-7.2,136.2-54.4,160.9-118.5Z"/>
    <path class="st2" d="M270.3,125c16.6-33.1,49.4-55.9,87.2-55.9,54.4,0,98.5,46.8,98.5,104.7s-9.5,51.2-25.1,69.6c0,0-40.2-104.8-160.9-118.5h.3Z"/>
    <path class="st5" d="M270.3,125c120.7,13.6,160.9,118.5,160.9,118.5-74.5-7.2-136.2-54.4-160.9-118.5Z"/>
    <path class="st3" d="M325.5,442.4l-22.4-10.4c8.7-21,4.7-27.7-1.5-37.8-6.9-11.6-16.4-27.6-3.4-58.9,3.8-8.9,1.9-12.2-3.2-20.5-6.7-11.1-16-26.4-7.5-55.1,8.8-29.9-11.3-65.5-11.4-65.8l20.8-13.6c1,1.9,26.2,45.7,14.1,87.2-5,17.3-.9,24,4.7,33.4,6,9.8,14.1,23.3,5,45.2-7.8,18.8-4.3,24.6,1.6,34.6,7.2,12,17,28.6,3.2,62.2v-.5Z"/>
    <path class="st6" d="M204.5,442c-14.7-33.1-5.3-50,1.6-62.2,5.7-10.1,9.1-16.1.9-34.6-9.5-21.6-1.8-35.2,4-45.2,5.4-9.5,9.4-16.6,4-33.6-13.2-41.2,10.9-85.8,11.9-87.7l21.1,13-10.6-6.6,10.6,6.5c-.1.3-19.5,36.4-9.8,66.1,9.1,28.6.3,44-6.2,55.4-4.8,8.5-6.7,11.7-2.8,20.7,13.8,30.9,4.7,47.2-1.9,59.1-5.9,10.3-9.7,17.2-.4,37.8l-22.1,11h-.1l-.2.3Z"/>
    <path class="st4" d="M81.1,425.7c-5.6-35.9,7.9-49.6,17.7-59.7,8.1-8.2,12.9-13.2,9.8-33.3-3.7-23.3,7.3-34.5,15.5-42.7,7.8-7.8,13.3-13.5,12.5-31.4-2.1-43.3,32.7-80.1,34.2-81.5l17,18-8.5-9.1,8.5,9.1c-.3.3-28.2,30.1-26.7,61.4,1.5,29.9-11.1,42.7-20.2,51.9-6.9,7-9.5,9.7-7.9,19.2,5.4,33.6-7.6,46.8-17.2,56.6-8.4,8.5-13.8,14.1-10.3,36.4l-24.2,5h-.3.1Z"/>
    <path class="st1" d="M439.7,425.7c5.6-35.9-7.9-49.6-17.7-59.7-8.1-8.2-12.9-13.2-9.8-33.3,3.7-23.3-7.3-34.5-15.4-42.7-7.8-7.8-13.3-13.5-12.5-31.4,2.1-43.3-32.7-80.1-34.2-81.5l-17,18,8.5-9.1-8.5,9.1c.3.3,28.2,30.1,26.7,61.4-1.5,29.9,11.1,42.7,20.2,51.9,6.9,7,9.5,9.7,8.1,19.2-5.4,33.6,7.6,46.8,17.2,56.6,8.4,8.5,13.8,14.1,10.3,36.4l24.2,5h-.1Z"/>
    <rect class="st3" x="171.9" y="263.8" width="26.7" height="26.7" transform="translate(-141.7 212.1) rotate(-45)"/>
    <rect class="st3" x="359.2" y="402.4" width="26.7" height="26.7" transform="translate(-184.8 385.2) rotate(-45)"/>
    <rect class="st1" x="154.6" y="329.2" width="26.7" height="26.7" transform="translate(-193.1 219.1) rotate(-45)"/>
    <rect class="st1" x="247" y="221" width="26.7" height="26.7" transform="translate(-89.5 252.7) rotate(-45)"/>
    <rect class="st6" x="135.8" y="402.2" width="26.7" height="26.7" transform="translate(-250.2 227.2) rotate(-45)"/>
    <rect class="st6" x="343.2" y="332.7" width="26.7" height="26.7" transform="translate(-140.3 353.4) rotate(-45)"/>
    <rect class="st4" x="247.1" y="399.3" width="26.7" height="26.7" transform="translate(-215.5 305) rotate(-45)"/>
    <rect class="st4" x="324.3" y="266.4" width="26.7" height="26.7" transform="translate(-98.9 320.7) rotate(-45)"/>
    <rect class="st6" x="251.8" y="316.2" width="26.7" height="26.7" transform="translate(-155.4 284) rotate(-45)"/>
  </g>
</svg>