<?xml version="1.0" encoding="UTF-8"?>
<svg id="Layer_1" xmlns="http://www.w3.org/2000/svg" version="1.1" viewBox="0 0 500 500">
  <!-- Generator: Adobe Illustrator 29.1.0, SVG Export Plug-In . SVG Version: 2.1.0 Build 142)  -->
  <path d="M315.4,322.7v68.2H81.9v-153.8h75.6v85.6h157.8ZM81.9,205.2h75.6v20.5h-75.6v-20.5ZM190.1,155.5h227.8v135.9h-227.8v-135.9ZM190.1,118.8h227.8v23.3h-227.8v-23.3ZM139.4,143v-27.6c-31.2,5.3-52.5,30.8-54.6,55.3-.2,2.5,0,4.9,0,7.2v19.8H25v-27.2c3.1-63.4,54.4-109.6,114.5-115.1v-30.9l68.5,59.5-68.6,59ZM161.9,193.1l-.6.5v-.9l.6.5ZM474.9,325.2c0,2.9.2,5.6,0,8.5-3.2,61.8-43.3,102.5-101.4,107.3v34.5l-53.2-49.4-17-13.9,17-13.9,53.2-52.6v36.3c24.9-3.7,38.5-20.1,40.9-48.5.2-2.8.3-5.5.3-8.5v-24.8h60.3v24.9Z"/>
</svg>