<svg xmlns="http://www.w3.org/2000/svg" width="512" height="512" viewBox="0 0 512 512">
    <path d="M31.1 80.9c0-13.4 5.2-26 14.6-35.3C55.1 36.2 67.8 31 81 31h350.1c13.2 0 26 5.2 35.3 14.6S481 67.7 481 80.9V431c0 13.2-5.2 26-14.6 35.3s-22.1 14.6-35.3 14.6H81c-27.7 0-49.9-22.5-49.9-49.9zm100 325.3H181l8.7-49.9h100l-8.7 49.9h49.9l8.7-49.9h49.9l9-49.9h-49.9l17.6-100h49.9l8.7-49.9h-49.9l9-49.9H334l-9 49.9H225l9-49.9h-49.9l-9 49.9h-49.9l-8.7 49.9h49.9l-17.6 100H98.9l-9 49.9h49.9zm85.2-200.1h100l-17.6 100h-100z"/>
</svg>
