<svg xmlns="http://www.w3.org/2000/svg" width="512" height="512" viewBox="0 0 512 512">
    <path d="M326.1 276.15v73.8H73.6v-166.4h81.8v92.6h170.7zM73.6 149.05h81.8v22.2H73.6v-22.2z"/>
    <path d="M190.6 147.3H437v147H190.6v-147zm0-39.7H437v25.2H190.6v-25.2zm-54.8 26.2v-29.9c-33.8 5.7-56.8 33.3-59.1 59.8-.2 2.7 0 5.3 0 7.8v21.4H12v-29.4C15.4 94.9 70.9 44.9 135.9 39V5.6L210 70l-74.2 63.8zm24.3 54.2l-.6.5v-1l.6.5zm338.6 142.8c0 3.1.2 6.1 0 9.2-3.5 66.8-46.8 110.9-109.7 116.1v37.3L331.5 440l-18.4-15 18.4-15 57.5-56.9v39.3c26.9-4 41.7-21.7 44.2-52.5.2-3 .3-5.9.3-9.2v-26.8h65.2v26.9z"/>
</svg>
