<svg xmlns="http://www.w3.org/2000/svg" width="512" height="512" viewBox="0 0 512 512">
  <path d="M56,100.365c0-11.914,4.623-23.116,12.98-31.385,8.357-8.357,19.649-12.98,31.385-12.98h311.269c11.736,0,23.116,4.623,31.385,12.98s12.98,19.649,12.98,31.385v311.269c0,11.736-4.623,23.116-12.98,31.385s-19.649,12.98-31.385,12.98H100.365c-24.628,0-44.365-20.004-44.365-44.365,0,0,0-311.269,0-311.269ZM144.908,389.585h44.365l7.735-44.365h88.908l-7.735,44.365h44.365l7.735-44.365h44.365l8.002-44.365h-44.365l15.648-88.908h44.365l7.735-44.365h-44.365l8.002-44.365h-44.365l-8.002,44.365h-88.908l8.002-44.365h-44.365l-8.002,44.365h-44.365l-7.735,44.365h44.365l-15.648,88.908h-44.365l-8.002,44.365h44.365l-7.735,44.365ZM220.659,211.679h88.908l-15.648,88.908h-88.908l15.648-88.908Z"/>
</svg>