<?xml version="1.0" encoding="UTF-8"?>
<svg id="Layer_1" xmlns="http://www.w3.org/2000/svg" version="1.1" viewBox="0 0 500 500">
  <!-- Generator: Adobe Illustrator 29.1.0, SVG Export Plug-In . SVG Version: 2.1.0 Build 142)  -->
  <path d="M25,74.9c0-13.4,5.2-26,14.6-35.3,9.4-9.4,22.1-14.6,35.3-14.6h350.1c13.2,0,26,5.2,35.3,14.6,9.3,9.4,14.6,22.1,14.6,35.3v350.1c0,13.2-5.2,26-14.6,35.3-9.4,9.3-22.1,14.6-35.3,14.6H74.9c-27.7,0-49.9-22.5-49.9-49.9V74.9ZM125,400.2h49.9l8.7-49.9h100l-8.7,49.9h49.9l8.7-49.9h49.9l9-49.9h-49.9l17.6-100h49.9l8.7-49.9h-49.9l9-49.9h-49.9l-9,49.9h-100l9-49.9h-49.9l-9,49.9h-49.9l-8.7,49.9h49.9l-17.6,100h-49.9l-9,49.9h49.9l-8.7,49.9ZM210.3,200.1h100l-17.6,100h-100l17.6-100Z"/>
</svg>