<svg xmlns="http://www.w3.org/2000/svg" width="512" height="512" data-name="Layer 1" viewBox="0 0 512 512">
    <path d="M96 131.5c0-9.5 3.7-18.5 10.4-25.1 6.7-6.7 15.7-10.4 25.1-10.4h248.9c9.4 0 18.5 3.7 25.1 10.4s10.4 15.7 10.4 25.1v248.9c0 9.4-3.7 18.5-10.4 25.1s-15.7 10.4-25.1 10.4H131.5c-19.7 0-35.5-16-35.5-35.5zm71.1 231.2h35.5l6.2-35.5h71.1l-6.2 35.5h35.5l6.2-35.5h35.5l6.4-35.5h-35.5l12.5-71.1h35.5l6.2-35.5h-35.5l6.4-35.5h-35.5l-6.4 35.5h-71.1l6.4-35.5h-35.5l-6.4 35.5h-35.5l-6.2 35.5h35.5l-12.5 71.1h-35.5l-6.4 35.5h35.5zm60.6-142.2h71.1l-12.5 71.1h-71.1z" class="cls-1"/>
</svg>
