<svg xmlns="http://www.w3.org/2000/svg" width="512" height="512" viewBox="0 0 512 512">
  <path d="M314.1,320.627v60.642H106.618v-136.733h67.216v76.09h140.266ZM106.618,216.187h67.216v18.242h-67.216v-18.242ZM202.758,172.021h202.469v120.791h-202.469v-120.791h0ZM202.758,139.399h202.469v20.707h-202.469v-20.707h0ZM157.728,160.928v-24.569c-27.774,4.683-46.674,27.363-48.563,49.138-.164,2.219,0,4.355,0,6.41v17.585h-53.165v-24.158c2.794-56.369,48.399-97.455,101.81-102.302v-27.445l60.889,52.918-60.971,52.425h0ZM177.696,205.465l-.493.411v-.822l.493.411h0ZM455.927,322.805c0,2.547.165,5.012,0,7.56-2.876,54.891-38.456,91.127-90.141,95.4v30.65l-47.248-43.879-15.119-12.326,15.119-12.326,47.248-46.755v32.294c22.104-3.287,34.266-17.831,36.32-43.14.165-2.466.247-4.848.247-7.56v-22.022h53.576v22.104h0Z"/>
</svg>