<?xml version="1.0" encoding="UTF-8"?>
<svg width="512px" height="512px" viewBox="0 0 512 512" version="1.1" xmlns="http://www.w3.org/2000/svg" xmlns:xlink="http://www.w3.org/1999/xlink">
    <!-- Generator: Sketch 62 (91390) - https://sketch.com -->
    <title>change-screen</title>
    <desc>Created with Sketch.</desc>
    <g id="change-screen" stroke="none" stroke-width="1" fill="none" fill-rule="evenodd">
        <path d="M326.1,276.15 L326.1,349.95 L73.6,349.95 L73.6,183.55 L155.4,183.55 L155.4,276.15 L326.1,276.15 Z M73.6,149.05 L155.4,149.05 L155.4,171.25 L73.6,171.25 L73.6,149.05 Z" id="Shape" fill="#000000" fill-rule="nonzero"></path>
        <path d="M190.6,147.3 L437,147.3 L437,294.3 L190.6,294.3 L190.6,147.3 Z M190.6,107.6 L437,107.6 L437,132.8 L190.6,132.8 L190.6,107.6 Z M135.8,133.8 L135.8,103.9 C102,109.6 79,137.2 76.7,163.7 C76.5,166.4 76.7,169 76.7,171.5 L76.7,192.9 L12,192.9 L12,163.5 C15.4,94.9 70.9,44.9 135.9,39 L135.9,5.6 L210,70 L135.8,133.8 Z M160.1,188 L159.5,188.5 L159.5,187.5 L160.1,188 Z M498.7,330.8 C498.7,333.9 498.9,336.9 498.7,340 C495.2,406.8 451.9,450.9 389,456.1 L389,493.4 L331.5,440 L313.1,425 L331.5,410 L389,353.1 L389,392.4 C415.9,388.4 430.7,370.7 433.2,339.9 C433.4,336.9 433.5,334 433.5,330.7 L433.5,303.9 L498.7,303.9 L498.7,330.8 L498.7,330.8 Z" id="Shape" fill="#000000" fill-rule="nonzero"></path>
    </g>
</svg>