<svg xmlns="http://www.w3.org/2000/svg" width="512" height="512" viewBox="0 0 512 512">
    <path d="M326.1 331.2V405H73.6V238.6h81.8v92.6zM73.6 204.1h81.8v22.2H73.6z"/>
    <path d="M190.6 152.9H437v147H190.6zm0-39.7H437v25.2H190.6zm-54.8 26.2v-29.9c-33.8 5.7-56.8 33.3-59.1 59.8-.2 2.7 0 5.3 0 7.8v21.4H12v-29.4c3.4-68.6 58.9-118.6 123.9-124.5V11.2L210 75.6l-74.2 63.8zm24.3 54.2l-.6.5v-1zm338.6 142.8c0 3.1.2 6.1 0 9.2-3.5 66.8-46.8 110.9-109.7 116.1V499l-57.5-53.4-18.4-15 18.4-15 57.5-56.9V398c26.9-4 41.7-21.7 44.2-52.5.2-3 .3-5.9.3-9.2v-26.8h65.2v26.9z"/>
</svg>
