<svg xmlns="http://www.w3.org/2000/svg" width="512" height="512" viewBox="0 0 512 512">
  <path d="M103.376,206.25c-2.25,10.625-3.5,21.625-3.5,33,0,89,74.875,161.124,167.124,161.124,14.625,0,28.75-2,42.375-5.5-26.25,30.875-66,50.625-110.499,50.625-19.75,0-38.625-4-55.75-11-.375-.25-.75-.25-1.125-.5h-.25c-2.5-.875-5-1.375-7.75-1.375-3,0-5.75.625-8.375,1.625l-54.125,21.25,11.625-60.375c0-3.75-1-7-2.75-9.875-.625-.875-1.125-2-1.75-2.75-14.375-21.5-22.625-47.25-22.625-74.625,0-40.375,18.125-76.625,47.375-101.625M289.125,56.501c92.375,0,167.124,72.125,166.874,160.874,0,32.125-9.75,62-26.5,87.124-.625,1-1.375,2-2,3-2,3.5-3.125,7.5-3.125,11.75l16.375,71-66-24.875c-3-1.25-6.25-1.875-9.75-1.875-3.125,0-6.25.625-9,1.625,0,.125-.125.125-.25.125-.5.25-.875.375-1.375.625-7.375,3-15.125,5.375-22.875,7.375-13.5,3.5-27.625,5.5-42.375,5.5-92.375,0-167.124-72.125-167.124-161.124,0-11.375,1.25-22.375,3.5-33,15.876-73.125,83.125-128.125,163.625-128.125"/>
</svg>