<svg xmlns="http://www.w3.org/2000/svg" width="386" height="422" fill="none" viewBox="0 0 386 422">
    <g clip-path="url(#a)">
        <path fill="#000" d="M339.901 323.6v-75.1c0-7.8-5.2-11.3-11.7-7.7-23.5 13.3-47 26.7-70.6 39.8-3.8 2.1-5.4 5-5.4 9.4.1 22.5.1 45.1 0 67.5 0 4 1.6 6.7 5.1 8.6 23.4 13.2 46.8 26.5 70.1 39.6 7.2 4 12.4 1.1 12.4-7.2.2-24.9.2-50 .1-74.9Zm-134.3-98.1c-37.6.1-159.3-.1-182.4.2-11.3.1-20.2 7.2-22.4 17.6-.9 3.6-.7 7.7-.7 11.5v142.1c0 14.8 9.5 24.4 24.2 24.5 30.5.1 61 0 91.5 0v.1h92.2c14.3 0 24-10 24-24.3V251.5c.1-16.9-9.4-26-26.4-26Z"/>
    </g>
    <g clip-path="url(#b)">
        <path fill="#000" d="M216.363 72.192a76.342 76.342 0 0 0-1.681 15.856c0 42.763 35.976 77.417 80.3 77.417 7.027 0 13.814-.961 20.36-2.642-12.612 14.835-31.711 24.324-53.093 24.324a70.777 70.777 0 0 1-26.787-5.285c-.18-.12-.36-.12-.54-.24h-.12c-1.201-.421-2.403-.661-3.724-.661-1.441 0-2.763.3-4.024.781l-26.006 10.21 5.586-29.009a8.93 8.93 0 0 0-1.322-4.745c-.3-.42-.54-.961-.841-1.321a64.377 64.377 0 0 1-10.87-35.856c0-19.399 8.708-36.817 22.762-48.829ZM305.613.24c44.384 0 80.3 34.655 80.18 77.297 0 15.436-4.685 29.79-12.733 41.862-.3.481-.661.961-.961 1.442a11.323 11.323 0 0 0-1.501 5.645l7.867 34.115-31.711-11.952c-1.442-.601-3.003-.901-4.685-.901-1.501 0-3.003.3-4.324.78 0 .061-.06.061-.12.061-.241.12-.421.18-.661.3-3.544 1.441-7.267 2.582-10.991 3.543-6.487 1.682-13.273 2.643-20.36 2.643-44.385 0-80.301-34.655-80.301-77.417 0-5.466.601-10.751 1.682-15.856C234.622 26.667 266.934.24 305.613.24Z"/>
    </g>
    <defs>
        <clipPath id="a">
            <path fill="#fff" d="M0 226h340v196H0z"/>
        </clipPath>
        <clipPath id="b">
            <path fill="#fff" d="M193 0h192.793v200H193z"/>
        </clipPath>
    </defs>
</svg>
