<svg xmlns="http://www.w3.org/2000/svg" width="512" height="512" viewBox="0 0 512 512">
    <path d="M115.5 304c1.4 2.3 2.2 4.9 2.2 7.9l-9.3 48.3 43.3-17c2.1-.8 4.3-1.3 6.7-1.3 2.2 0 4.2.4 6.2 1.1h.2c.3.2.6.2.9.4 13.7 5.6 28.8 8.8 44.6 8.8 35.6 0 67.4-15.8 88.4-40.5-10.9 2.8-22.2 4.4-33.9 4.4-73.8 0-133.7-57.7-133.7-128.9 0-9.1 1-17.9 2.8-26.4-23.4 20-37.9 49-37.9 81.3 0 21.9 6.6 42.5 18.1 59.7.5.6.9 1.5 1.4 2.2z"/>
    <path d="M282.5 40c-64.4 0-118.2 44-130.9 102.5-1.8 8.5-2.8 17.3-2.8 26.4 0 71.2 59.8 128.9 133.7 128.9 11.8 0 23.1-1.6 33.9-4.4 6.2-1.6 12.4-3.5 18.3-5.9.4-.2.7-.3 1.1-.5.1 0 .2 0 .2-.1 2.2-.8 4.7-1.3 7.2-1.3 2.8 0 5.4.5 7.8 1.5l52.8 19.9-13.1-56.8c0-3.4.9-6.6 2.5-9.4.5-.8 1.1-1.6 1.6-2.4 13.4-20.1 21.2-44 21.2-69.7.2-71-59.6-128.7-133.5-128.7z"/>
</svg>
