<?xml version="1.0" encoding="UTF-8"?>
<svg width="512px" height="512px" viewBox="0 0 512 512" version="1.1" xmlns="http://www.w3.org/2000/svg" xmlns:xlink="http://www.w3.org/1999/xlink">
    <!-- Generator: Sketch 62 (91390) - https://sketch.com -->
    <title>chatbubbles</title>
    <desc>Created with Sketch.</desc>
    <g id="chatbubbles" stroke="none" stroke-width="1" fill="none" fill-rule="evenodd">
        <path d="M133.9,216.2 C132.1,224.7 131.1,233.5 131.1,242.6 C131.1,313.8 191,371.5 264.8,371.5 C276.5,371.5 287.8,369.9 298.7,367.1 C277.7,391.8 245.9,407.6 210.3,407.6 C194.5,407.6 179.4,404.4 165.7,398.8 C165.4,398.6 165.1,398.6 164.8,398.4 L164.8,398.4 L164.6,398.4 C162.6,397.7 160.6,397.3 158.4,397.3 C156,397.3 153.8,397.8 151.7,398.6 L151.7,398.6 L108.4,415.6 L117.7,367.3 C117.7,364.3 116.9,361.7 115.5,359.4 C115,358.7 114.6,357.8 114.1,357.2 C102.6,340 96,319.4 96,297.5 C96,265.2 110.5,236.2 133.9,216.2 Z M282.5,96.4 C356.4,96.4 416.2,154.1 416.0005,225.1 C416.0005,250.8 408.2,274.7 394.8,294.8 C394.3,295.6 393.7,296.4 393.2,297.2 C391.6,300 390.7,303.2 390.7,306.6 L390.7,306.6 L403.8,363.4 L351,343.5 C348.6,342.5 346,342 343.2,342 C340.7,342 338.2,342.5 336,343.3 C336,343.4 335.9,343.4 335.8,343.4 C335.4,343.6 335.1,343.7 334.7,343.9 C328.8,346.3 322.6,348.2 316.4,349.8 C305.6,352.6 294.3,354.2 282.5,354.2 C208.6,354.2 148.8,296.5 148.8,225.3 C148.8,216.2 149.8,207.4 151.6,198.9 C164.3,140.4 218.1,96.4 282.5,96.4 Z" id="Combined-Shape" fill="#000000" fill-rule="nonzero"></path>
    </g>
</svg>