<svg xmlns="http://www.w3.org/2000/svg" width="512" height="512" viewBox="0 0 512 512">
  <path id="content" d="M274.303,72.032c-100.347,0-181.696,81.348-181.696,181.696,0,25.555,5.308,49.92,14.866,72.032l-32.041,71.091,23.664,10.666h0l36.961-82.006c-11.176-21.48-17.493-45.893-17.493-71.782,0-86.012,69.727-155.739,155.739-155.739s155.739,69.727,155.739,155.739-69.726,155.739-155.739,155.739c-25.522,0-49.611-6.14-70.868-17.022h0l-104.338,15.072-23.664-10.667-19.433,43.117,46.808-6.761,96.534-13.945c22.883,10.376,48.275,16.162,74.963,16.162,100.348,0,181.696-81.347,181.696-181.696s-81.349-181.696-181.697-181.696Z"/>
</svg>