<svg xmlns="http://www.w3.org/2000/svg" width="500" height="500" viewBox="0 0 500 500">
  <path id="content" d="M271.092,43.036c-112.891,0-204.408,91.517-204.408,204.408,0,28.75,5.971,56.16,16.724,81.036l-36.046,79.977,26.622,11.999h0s41.581-92.257,41.581-92.257c-12.573-24.165-19.68-51.63-19.68-80.755,0-96.764,78.443-175.207,175.207-175.207s175.207,78.443,175.207,175.207-78.442,175.207-175.207,175.207c-28.712,0-55.812-6.907-79.727-19.15h0s0,0,0,0l-117.38,16.956-26.622-12-21.862,48.507,52.659-7.606,108.601-15.688c25.743,11.673,54.309,18.182,84.333,18.182,112.892,0,204.408-91.516,204.408-204.408S383.984,43.036,271.092,43.036Z"/>
</svg>