<svg xmlns="http://www.w3.org/2000/svg" width="512" height="512" viewBox="0 0 512 512">
    <path d="M133.9 216.2c-1.8 8.5-2.8 17.3-2.8 26.4 0 71.2 59.9 128.9 133.7 128.9 11.7 0 23-1.6 33.9-4.4-21 24.7-52.8 40.5-88.4 40.5-15.8 0-30.9-3.2-44.6-8.8-.3-.2-.6-.2-.9-.4h-.2c-2-.7-4-1.1-6.2-1.1-2.4 0-4.6.5-6.7 1.3l-43.3 17 9.3-48.3c0-3-.8-5.6-2.2-7.9-.5-.7-.9-1.6-1.4-2.2C102.6 340 96 319.4 96 297.5c0-32.3 14.5-61.3 37.9-81.3M282.5 96.4c73.9 0 133.7 57.7 133.5 128.7 0 25.7-7.8 49.6-21.2 69.7-.5.8-1.1 1.6-1.6 2.4-1.6 2.8-2.5 6-2.5 9.4l13.1 56.8-52.8-19.9c-2.4-1-5-1.5-7.8-1.5-2.5 0-5 .5-7.2 1.3 0 .1-.1.1-.2.1-.4.2-.7.3-1.1.5-5.9 2.4-12.1 4.3-18.3 5.9-10.8 2.8-22.1 4.4-33.9 4.4-73.9 0-133.7-57.7-133.7-128.9 0-9.1 1-17.9 2.8-26.4 12.7-58.5 66.5-102.5 130.9-102.5"/>
</svg>
