<svg xmlns="http://www.w3.org/2000/svg" width="512" height="512" viewBox="0 0 512 512">
  <path d="M432.493,449.561H79.632c-13.004,0-23.632-10.503-23.632-23.632V86.071c.125-13.129,10.628-23.632,23.632-23.632h352.736c13.004,0,23.632,10.503,23.632,23.632v339.857c0,13.129-10.503,23.632-23.508,23.632M400.358,158.094l-38.012-30.01c-1.125-1-2.751-1.5-4.252-1.5s-3.251.625-4.252,1.75l-138.044,177.181s-54.267-52.141-55.767-53.767-3.501-4.126-6.502-4.126-4.376,2.251-6.127,3.751c-1.125,1.251-20.381,21.632-30.01,31.76-.5.5-.876,1-1.375,1.375-.876,1.125-1.375,2.5-1.375,3.876s.5,2.876,1.375,4.001l2.001,1.876s96.28,92.529,97.906,94.03c1.5,1.375,3.501,3.501,6.377,3.501s5.126-3.001,6.377-4.252l172.054-221.194c.876-1.125,1.375-2.5,1.375-4.001-.25-1.375-.75-3.126-1.75-4.252"/>
</svg>