<svg xmlns="http://www.w3.org/2000/svg" width="512" height="512" viewBox="0 0 512 512">
  <path d="M453.75,115.188l-52.75-41.625c-1.625-1.375-3.625-2.25-6-2.25-2.25,0-4.375,1-6,2.375l-192.25,246.751s-75.501-72.625-77.625-74.75-4.875-5.625-9.125-5.625-6.125,3-8.375,5.25c-1.625,1.75-28.625,30-41.875,44-.75.875-1.25,1.375-1.875,2-1.125,1.625-1.875,3.5-1.875,5.5,0,2.125.75,3.875,1.875,5.5l2.75,2.5s134,128.625,136.126,130.875c2.25,2.25,4.875,5,8.875,5,3.875,0,7-4.125,8.875-6L454.125,126.813c1.125-1.625,1.875-3.5,1.875-5.625,0-2.25-1-4.375-2.25-6"/>
</svg>