<?xml version="1.0" encoding="UTF-8"?>
<svg id="Layer_1" xmlns="http://www.w3.org/2000/svg" version="1.1" viewBox="0 0 500 500">
  <!-- Generator: Adobe Illustrator 29.1.0, SVG Export Plug-In . SVG Version: 2.1.0 Build 142)  -->
  <path d="M250,65.9c-101.7,0-184.1,82.4-184.1,184.1s82.4,184.1,184.1,184.1,184.1-82.4,184.1-184.1-82.4-184.1-184.1-184.1M344.5,188.4l-114.3,146.7c-.8.8-2.4,2.8-4.2,2.8s-3.1-1.3-4.2-2.4-64.8-62.3-64.8-62.3l-1.3-1.3c-.6-.7-.8-1.5-.8-2.7s.4-1.8.8-2.7c.4-.4.6-.6.8-1,6.3-6.6,19.1-20.1,20-21s2-2.5,3.9-2.5,3.4,1.7,4.4,2.7,37,35.6,37,35.6l91.5-117.4c.8-.6,1.8-1.1,2.8-1.1s2.1.4,2.8,1.1l25.2,19.8c.6.8,1.1,1.8,1.1,2.8.1,1.1-.3,2.1-.7,2.8"/>
  <path d="M250,47.2c111.9,0,202.8,90.8,202.8,202.8s-90.8,202.8-202.8,202.8S47.2,361.9,47.2,250,138.1,47.2,250,47.2M250,25c-30.4,0-59.9,5.9-87.6,17.7-26.7,11.3-50.9,27.6-71.4,48.2-20.7,20.7-36.8,44.7-48.2,71.4-11.8,27.7-17.7,57.2-17.7,87.6s5.9,59.9,17.7,87.6c11.3,26.7,27.6,50.9,48.2,71.4,20.7,20.5,44.7,36.8,71.4,48.2,27.7,11.7,57.2,17.7,87.6,17.7s59.9-5.9,87.6-17.7c26.7-11.3,50.9-27.6,71.4-48.2,20.5-20.7,36.8-44.7,48.2-71.4,11.7-27.7,17.7-57.2,17.7-87.6s-5.9-59.9-17.7-87.6c-11.3-26.7-27.6-50.9-48.2-71.4s-44.7-36.8-71.4-48.2c-27.7-11.8-57.2-17.7-87.6-17.7"/>
</svg>