<svg xmlns="http://www.w3.org/2000/svg" width="512" height="512" viewBox="0 0 512 512">
    <path d="M397.1 404.3H114.9c-10.4 0-18.9-8.4-18.9-18.9V113.6c.1-10.5 8.5-18.9 18.9-18.9H397c10.4 0 18.9 8.4 18.9 18.9v271.8c0 10.5-8.4 18.9-18.8 18.9zm-25.7-233.1-30.4-24c-.9-.8-2.2-1.2-3.4-1.2-1.2 0-2.6.5-3.4 1.4L223.8 289.1s-43.4-41.7-44.6-43c-1.2-1.3-2.8-3.3-5.2-3.3-2.4 0-3.5 1.8-4.9 3-.9 1-16.3 17.3-24 25.4-.4.4-.7.8-1.1 1.1-.7.9-1.1 2-1.1 3.1s.4 2.3 1.1 3.2l1.6 1.5s77 74 78.3 75.2c1.2 1.1 2.8 2.8 5.1 2.8s4.1-2.4 5.1-3.4l137.6-176.9c.7-.9 1.1-2 1.1-3.2-.2-1.1-.6-2.5-1.4-3.4z"/>
</svg>
