<svg xmlns="http://www.w3.org/2000/svg" width="512" height="512" viewBox="0 0 512 512">
  <path d="M256,56c-110.5,0-200,89.5-200,200s89.5,200,200,200,200-89.5,200-200S366.5,56,256,56M358.625,189.125l-124.25,159.375c-1,1-2.625,3.125-4.5,3.125-2,0-3.375-1.375-4.5-2.625s-70.5-67.75-70.5-67.75l-1.375-1.375c-.5-.75-1-1.75-1-2.875s.5-2,1-2.875c.375-.375.625-.625,1-1.125,6.875-7.25,20.75-21.875,21.75-22.75,1.125-1.125,2.125-2.625,4.25-2.625,2.25,0,3.625,1.875,4.75,3s40.125,38.625,40.125,38.625l99.375-127.625c.875-.75,2-1.25,3.125-1.25s2.25.5,3.125,1.125l27.375,21.5c.75.875,1.125,2,1.125,3.125.125,1.25-.375,2.25-.875,3"/>
</svg>