<?xml version="1.0" encoding="UTF-8"?>
<svg width="512px" height="512px" viewBox="0 0 512 512" version="1.1" xmlns="http://www.w3.org/2000/svg" xmlns:xlink="http://www.w3.org/1999/xlink">
    <!-- Generator: Sketch 62 (91390) - https://sketch.com -->
    <title>checkmark-circled-outlined</title>
    <desc>Created with Sketch.</desc>
    <g id="checkmark-circled-outlined" stroke="none" stroke-width="1" fill="none" fill-rule="evenodd">
        <path d="M256,118.6 C183.7,118.6 125.1,177.2 125.1,249.5 C125.1,321.8 183.7,380.4 256,380.4 C328.3,380.4 386.9,321.8 386.9,249.5 C386.9,177.2 328.3,118.6 256,118.6 Z M323.2,205.7 L241.9,310 C241.3,310.6 240.2,312 238.9,312 C237.6,312 236.7,311.1 235.9,310.3 C235.1,309.5 189.8,266 189.8,266 L188.9,265.1 C188.5,264.6 188.3,264 188.3,263.2 C188.3,262.4 188.6,261.9 188.9,261.3 C189.2,261 189.3,260.9 189.5,260.6 C194,255.9 203.1,246.3 203.7,245.7 C204.5,244.9 205.1,243.9 206.5,243.9 C208,243.9 208.9,245.1 209.6,245.8 C210.3,246.5 235.9,271.1 235.9,271.1 L301,187.6 C301.6,187.2 302.3,186.8 303,186.8 C303.8,186.8 304.5,187.1 305,187.6 L322.9,201.7 C323.3,202.3 323.7,203 323.7,203.7 C323.8,204.5 323.5,205.2 323.2,205.7 Z" id="Shape" fill="#000000" fill-rule="nonzero"></path>
        <path d="M256,105.3 C335.6,105.3 400.2,169.9 400.2,249.5 C400.2,329.1 335.6,393.7 256,393.7 C176.4,393.7 111.8,329.1 111.8,249.5 C111.8,169.9 176.4,105.3 256,105.3 M256,89.5 C234.4,89.5 213.4,93.7 193.7,102.1 C174.7,110.1 157.5,121.7 142.9,136.4 C128.2,151.1 116.7,168.2 108.6,187.2 C100.2,206.9 96,227.9 96,249.5 C96,271.1 100.2,292.1 108.6,311.8 C116.6,330.8 128.2,348 142.9,362.6 C157.6,377.2 174.7,388.8 193.7,396.9 C213.4,405.2 234.4,409.5 256,409.5 C277.6,409.5 298.6,405.3 318.3,396.9 C337.3,388.9 354.5,377.3 369.1,362.6 C383.7,347.9 395.3,330.8 403.4,311.8 C411.7,292.1 416,271.1 416,249.5 C416,227.9 411.8,206.9 403.4,187.2 C395.4,168.2 383.8,151 369.1,136.4 C354.4,121.8 337.3,110.2 318.3,102.1 C298.6,93.7 277.6,89.5 256,89.5 Z" id="Shape" fill="#000000" fill-rule="nonzero"></path>
    </g>
</svg>