<svg xmlns="http://www.w3.org/2000/svg" width="512" height="512" viewBox="0 0 512 512">
    <path d="M256 69.1c-72.3 0-130.9 58.6-130.9 130.9S183.7 330.9 256 330.9 386.9 272.3 386.9 200 328.3 69.1 256 69.1zm67.2 87.1l-81.3 104.3c-.6.6-1.7 2-3 2s-2.2-.9-3-1.7c-.8-.8-46.1-44.3-46.1-44.3l-.9-.9c-.4-.5-.6-1.1-.6-1.9 0-.8.3-1.3.6-1.9.3-.3.4-.4.6-.7 4.5-4.7 13.6-14.3 14.2-14.9.8-.8 1.4-1.8 2.8-1.8 1.5 0 2.4 1.2 3.1 1.9.7.7 26.3 25.3 26.3 25.3l65.1-83.5c.6-.4 1.3-.8 2-.8.8 0 1.5.3 2 .8l17.9 14.1c.4.6.8 1.3.8 2 .1.8-.2 1.5-.5 2z"/>
    <path d="M256 55.8c79.6 0 144.2 64.6 144.2 144.2S335.6 344.2 256 344.2 111.8 279.6 111.8 200 176.4 55.8 256 55.8m0-15.8c-21.6 0-42.6 4.2-62.3 12.6-19 8-36.2 19.6-50.8 34.3-14.7 14.7-26.2 31.8-34.3 50.8C100.2 157.4 96 178.4 96 200s4.2 42.6 12.6 62.3c8 19 19.6 36.2 34.3 50.8s31.8 26.2 50.8 34.3c19.7 8.3 40.7 12.6 62.3 12.6s42.6-4.2 62.3-12.6c19-8 36.2-19.6 50.8-34.3s26.2-31.8 34.3-50.8c8.3-19.7 12.6-40.7 12.6-62.3s-4.2-42.6-12.6-62.3c-8-19-19.6-36.2-34.3-50.8s-31.8-26.2-50.8-34.3C298.6 44.2 277.6 40 256 40z"/>
</svg>
