<?xml version="1.0" encoding="UTF-8"?>
<svg id="Layer_1" xmlns="http://www.w3.org/2000/svg" version="1.1" viewBox="0 0 500 500">
  <!-- Generator: Adobe Illustrator 29.1.0, SVG Export Plug-In . SVG Version: 2.1.0 Build 142)  -->
  <path d="M250,25C125.7,25,25,125.7,25,250s100.7,225,225,225,225-100.7,225-225S374.3,25,250,25M365.5,174.8l-139.8,179.3c-1.1,1.1-3,3.5-5.1,3.5s-3.8-1.5-5.1-3-79.3-76.2-79.3-76.2l-1.5-1.5c-.6-.8-1.1-2-1.1-3.2s.6-2.3,1.1-3.2c.4-.4.7-.7,1.1-1.3,7.7-8.2,23.3-24.6,24.5-25.6,1.3-1.3,2.4-3,4.8-3s4.1,2.1,5.3,3.4,45.1,43.5,45.1,43.5l111.8-143.6c1-.8,2.3-1.4,3.5-1.4s2.5.6,3.5,1.3l30.8,24.2c.8,1,1.3,2.3,1.3,3.5.1,1.4-.4,2.5-1,3.4"/>
</svg>