<svg xmlns="http://www.w3.org/2000/svg" width="512" height="512" viewBox="0 0 512 512">
  <path d="M256,92.375c-90.375,0-163.625,73.25-163.625,163.625s73.25,163.625,163.625,163.625,163.625-73.25,163.625-163.625-73.25-163.625-163.625-163.625M340.001,201.25l-101.625,130.375c-.75.75-2.125,2.5-3.75,2.5s-2.75-1.125-3.75-2.125-57.625-55.375-57.625-55.375l-1.125-1.125c-.5-.625-.75-1.375-.75-2.375s.375-1.625.75-2.375c.375-.375.5-.5.75-.875,5.625-5.875,17-17.875,17.75-18.625,1-1,1.75-2.25,3.5-2.25,1.875,0,3,1.5,3.875,2.375s32.875,31.625,32.875,31.625l81.375-104.375c.75-.5,1.625-1,2.5-1,1,0,1.875.375,2.5,1l22.375,17.625c.5.75,1,1.625,1,2.5.125,1-.25,1.875-.625,2.5M256,75.75c99.501,0,180.25,80.75,180.25,180.25s-80.75,180.25-180.25,180.25-180.25-80.75-180.25-180.25,80.75-180.25,180.25-180.25M256,56c-27,0-53.25,5.25-77.875,15.75-23.75,10-45.25,24.5-63.501,42.875-18.375,18.375-32.75,39.75-42.875,63.501-10.5,24.625-15.75,50.875-15.75,77.875s5.25,53.25,15.75,77.875c10,23.75,24.5,45.25,42.875,63.5,18.375,18.25,39.75,32.75,63.501,42.875,24.625,10.375,50.875,15.75,77.875,15.75s53.25-5.25,77.875-15.75c23.75-10,45.25-24.5,63.5-42.875,18.25-18.375,32.75-39.75,42.875-63.5,10.375-24.625,15.75-50.875,15.75-77.875s-5.25-53.25-15.75-77.875c-10-23.75-24.5-45.25-42.875-63.501-18.374-18.251-39.75-32.75-63.5-42.875-24.625-10.5-50.875-15.75-77.875-15.75"/>
</svg>