<?xml version="1.0" encoding="UTF-8"?>
<svg id="Layer_1" xmlns="http://www.w3.org/2000/svg" version="1.1" viewBox="0 0 500 500">
  <!-- Generator: Adobe Illustrator 29.1.0, SVG Export Plug-In . SVG Version: 2.1.0 Build 142)  -->
  <path d="M448.6,467.8H51.6c-14.6,0-26.6-11.8-26.6-26.6V58.8c.1-14.8,12-26.6,26.6-26.6h396.8c14.6,0,26.6,11.8,26.6,26.6v382.3c0,14.8-11.8,26.6-26.4,26.6M412.4,139.9l-42.8-33.8c-1.3-1.1-3.1-1.7-4.8-1.7s-3.7.7-4.8,2l-155.3,199.3s-61.1-58.7-62.7-60.5-3.9-4.6-7.3-4.6-4.9,2.5-6.9,4.2c-1.3,1.4-22.9,24.3-33.8,35.7-.6.6-1,1.1-1.5,1.5-1,1.3-1.5,2.8-1.5,4.4s.6,3.2,1.5,4.5l2.3,2.1s108.3,104.1,110.1,105.8c1.7,1.5,3.9,3.9,7.2,3.9s5.8-3.4,7.2-4.8l193.6-248.8c1-1.3,1.5-2.8,1.5-4.5-.3-1.5-.8-3.5-2-4.8"/>
</svg>