<svg xmlns="http://www.w3.org/2000/svg" width="512" height="512" viewBox="0 0 512 512">
    <path d="M256 118.6c-72.3 0-130.9 58.6-130.9 130.9 0 72.3 58.6 130.9 130.9 130.9 72.3 0 130.9-58.6 130.9-130.9 0-72.3-58.6-130.9-130.9-130.9zm67.2 87.1L241.9 310c-.6.6-1.7 2-3 2s-2.2-.9-3-1.7c-.8-.8-46.1-44.3-46.1-44.3l-.9-.9c-.4-.5-.6-1.1-.6-1.9 0-.8.3-1.3.6-1.9.3-.3.4-.4.6-.7 4.5-4.7 13.6-14.3 14.2-14.9.8-.8 1.4-1.8 2.8-1.8 1.5 0 2.4 1.2 3.1 1.9.7.7 26.3 25.3 26.3 25.3l65.1-83.5c.6-.4 1.3-.8 2-.8.8 0 1.5.3 2 .8l17.9 14.1c.4.6.8 1.3.8 2 .1.8-.2 1.5-.5 2z"/>
    <path d="M256 105.3c79.6 0 144.2 64.6 144.2 144.2S335.6 393.7 256 393.7s-144.2-64.6-144.2-144.2S176.4 105.3 256 105.3m0-15.8c-21.6 0-42.6 4.2-62.3 12.6-19 8-36.2 19.6-50.8 34.3-14.7 14.7-26.2 31.8-34.3 50.8-8.4 19.7-12.6 40.7-12.6 62.3 0 21.6 4.2 42.6 12.6 62.3 8 19 19.6 36.2 34.3 50.8 14.7 14.6 31.8 26.2 50.8 34.3 19.7 8.3 40.7 12.6 62.3 12.6 21.6 0 42.6-4.2 62.3-12.6 19-8 36.2-19.6 50.8-34.3 14.6-14.7 26.2-31.8 34.3-50.8 8.3-19.7 12.6-40.7 12.6-62.3 0-21.6-4.2-42.6-12.6-62.3-8-19-19.6-36.2-34.3-50.8-14.7-14.6-31.8-26.2-50.8-34.3-19.7-8.4-40.7-12.6-62.3-12.6z"/>
</svg>
