<?xml version="1.0" encoding="UTF-8"?>
<svg width="512px" height="512px" viewBox="0 0 512 512" version="1.1" xmlns="http://www.w3.org/2000/svg" xmlns:xlink="http://www.w3.org/1999/xlink">
    <!-- Generator: Sketch 62 (91390) - https://sketch.com -->
    <title>checkmark-circled</title>
    <desc>Created with Sketch.</desc>
    <g id="checkmark-circled" stroke="none" stroke-width="1" fill="none" fill-rule="evenodd">
        <path d="M256,89.5 C167.6,89.5 96,161.1 96,249.5 C96,337.9 167.6,409.5 256,409.5 C344.4,409.5 416,337.9 416,249.5 C416,161.1 344.4,89.5 256,89.5 Z M338.1,196 L238.7,323.5 C237.9,324.3 236.6,326 235.1,326 C233.5,326 232.4,324.9 231.5,323.9 C230.6,322.9 175.1,269.7 175.1,269.7 L174,268.6 C173.6,268 173.2,267.2 173.2,266.3 C173.2,265.4 173.6,264.7 174,264 C174.3,263.7 174.5,263.5 174.8,263.1 C180.3,257.3 191.4,245.6 192.2,244.9 C193.1,244 193.9,242.8 195.6,242.8 C197.4,242.8 198.5,244.3 199.4,245.2 C200.3,246.1 231.5,276.1 231.5,276.1 L311,174 C311.7,173.4 312.6,173 313.5,173 C314.4,173 315.3,173.4 316,173.9 L337.9,191.1 C338.5,191.8 338.8,192.7 338.8,193.6 C338.9,194.6 338.5,195.4 338.1,196 L338.1,196 Z" id="Shape" fill="#000000" fill-rule="nonzero"></path>
    </g>
</svg>