<svg xmlns="http://www.w3.org/2000/svg" width="512" height="512" viewBox="0 0 512 512">
    <path d="M256 89.5c-88.4 0-160 71.6-160 160s71.6 160 160 160 160-71.6 160-160-71.6-160-160-160M338.1 196l-99.4 127.5c-.8.8-2.1 2.5-3.6 2.5-1.6 0-2.7-1.1-3.6-2.1s-56.4-54.2-56.4-54.2l-1.1-1.1c-.4-.6-.8-1.4-.8-2.3s.4-1.6.8-2.3c.3-.3.5-.5.8-.9 5.5-5.8 16.6-17.5 17.4-18.2.9-.9 1.7-2.1 3.4-2.1 1.8 0 2.9 1.5 3.8 2.4s32.1 30.9 32.1 30.9L311 174c.7-.6 1.6-1 2.5-1s1.8.4 2.5.9l21.9 17.2c.6.7.9 1.6.9 2.5.1 1-.3 1.8-.7 2.4"/>
</svg>
