<svg xmlns="http://www.w3.org/2000/svg" width="512" height="512" viewBox="0 0 512 512">
  <path id="content" d="M411.556,56H100.444c-11.787,0-23.092,4.682-31.427,13.018-8.335,8.335-13.018,19.64-13.018,31.427v311.111c0,11.787,4.682,23.091,13.018,31.427,8.335,8.336,19.64,13.018,31.427,13.018h311.111c11.787,0,23.091-4.682,31.427-13.018,8.336-8.336,13.018-19.64,13.018-31.427V100.444c0-11.787-4.682-23.092-13.018-31.427-8.336-8.335-19.64-13.018-31.427-13.018ZM411.556,411.556H100.444V100.444h311.111v311.111ZM367.111,367.111h-222.222v-222.222h222.222v222.222Z"/>
</svg>