<?xml version="1.0" encoding="UTF-8"?>
<svg id="Layer_1" xmlns="http://www.w3.org/2000/svg" version="1.1" viewBox="0 0 500 500">
  <!-- Generator: Adobe Illustrator 29.1.0, SVG Export Plug-In . SVG Version: 2.1.0 Build 142)  -->
  <path d="M472.5,91.6l-59.3-46.8c-1.8-1.5-4.1-2.5-6.7-2.5s-4.9,1.1-6.7,2.7l-216.3,277.6s-84.9-81.7-87.3-84.1-5.5-6.3-10.3-6.3-6.9,3.4-9.4,5.9c-1.8,2-32.2,33.7-47.1,49.5-.8,1-1.4,1.5-2.1,2.3-1.3,1.8-2.1,3.9-2.1,6.2s.8,4.4,2.1,6.2l3.1,2.8s150.7,144.7,153.1,147.2c2.5,2.5,5.5,5.6,10,5.6s7.9-4.6,10-6.7L472.9,104.7c1.3-1.8,2.1-3.9,2.1-6.3s-1.1-4.9-2.5-6.8"/>
</svg>