<svg xmlns="http://www.w3.org/2000/svg" viewBox="0 0 423.2 409.6"><path d="M347.2 396.6H76c-10 0-18.2-8.1-18.2-18.2V117.2C57.9 107.1 66 99 76 99h271.2c10 0 18.2 8.1 18.2 18.2v261.3c-.1 10-8.2 18.1-18.2 18.1zm-24.7-224.1l-29.2-23c-.9-.8-2.1-1.2-3.3-1.2-1.2 0-2.5.5-3.3 1.3L180.6 285.9s-41.7-40.1-42.9-41.3-2.7-3.2-5-3.2-3.4 1.7-4.7 2.9c-.9 1-15.7 16.6-23.1 24.4-.4.4-.7.8-1.1 1.1-.7.9-1.1 1.9-1.1 3s.4 2.2 1.1 3.1l1.5 1.4s74 71.1 75.3 72.3c1.2 1.1 2.7 2.7 4.9 2.7s3.9-2.3 4.9-3.3l132.3-170c.7-.9 1.1-1.9 1.1-3.1-.1-1.2-.5-2.5-1.3-3.4z"/></svg>