<?xml version="1.0" encoding="UTF-8"?>
<svg width="512px" height="512px" viewBox="0 0 512 512" version="1.1" xmlns="http://www.w3.org/2000/svg" xmlns:xlink="http://www.w3.org/1999/xlink">
    <!-- Generator: Sketch 62 (91390) - https://sketch.com -->
    <title>checkmark-box-checked</title>
    <desc>Created with Sketch.</desc>
    <g id="checkmark-box-checked" stroke="none" stroke-width="1" fill="none" fill-rule="evenodd">
        <path d="M397.1,404.3 L114.9,404.3 C104.5,404.3 96,395.9 96,385.4 L96,113.6 C96.1,103.1 104.5,94.7 114.9,94.7 L397,94.7 C407.4,94.7 415.9,103.1 415.9,113.6 L415.9,385.4 C415.9,395.9 407.5,404.3 397.1,404.3 L397.1,404.3 Z M371.4,171.2 L341,147.2 C340.1,146.4 338.8,146 337.6,146 C336.4,146 335,146.5 334.2,147.4 L223.8,289.1 C223.8,289.1 180.4,247.4 179.2,246.1 C178,244.8 176.4,242.8 174,242.8 C171.6,242.8 170.5,244.6 169.1,245.8 C168.2,246.8 152.8,263.1 145.1,271.2 C144.7,271.6 144.4,272 144,272.3 C143.3,273.2 142.9,274.3 142.9,275.4 C142.9,276.5 143.3,277.7 144,278.6 L145.6,280.1 C145.6,280.1 222.6,354.1 223.9,355.3 C225.1,356.4 226.7,358.1 229,358.1 C231.3,358.1 233.1,355.7 234.1,354.7 L371.7,177.8 C372.4,176.9 372.8,175.8 372.8,174.6 C372.6,173.5 372.2,172.1 371.4,171.2 L371.4,171.2 Z" id="Shape" fill="#000000" fill-rule="nonzero"></path>
    </g>
</svg>