<?xml version="1.0" encoding="UTF-8"?>
<svg id="Layer_1" xmlns="http://www.w3.org/2000/svg" version="1.1" viewBox="0 0 500 500">
  <!-- Generator: Adobe Illustrator 29.1.0, SVG Export Plug-In . SVG Version: 2.1.0 Build 142)  -->
  <path d="M196.2,249.9L28.1,75.1c-4.2-4.4-4.1-11.4.1-15.9l30.1-30.8c4.4-4.4,11.4-4.5,15.6-.1l205.1,213.7c2.2,2.2,3.2,5.2,3,8.2.1,3-.8,5.9-3,8.2l-205.1,213.4c-4.2,4.4-11.2,4.2-15.6-.1l-30.1-30.8c-4.4-4.4-4.4-11.5-.1-15.9l168-175ZM388.9,249.9L221,75.1c-4.2-4.4-4.1-11.4.1-15.9l30.1-30.8c4.4-4.4,11.4-4.5,15.6-.1l205.1,213.7c2.2,2.2,3.2,5.2,3,8.2.1,3-.8,5.9-3,8.2l-205.1,213.4c-4.2,4.4-11.2,4.2-15.6-.1l-30.1-30.8c-4.4-4.4-4.4-11.5-.1-15.9l167.9-175Z"/>
</svg>