<?xml version="1.0" encoding="UTF-8"?>
<svg width="512px" height="512px" viewBox="0 0 512 512" version="1.1" xmlns="http://www.w3.org/2000/svg" xmlns:xlink="http://www.w3.org/1999/xlink">
    <!-- Generator: Sketch 62 (91390) - https://sketch.com -->
    <title>chevron-left-double</title>
    <desc>Created with Sketch.</desc>
    <g id="chevron-left-double" stroke="none" stroke-width="1" fill="none" fill-rule="evenodd">
        <path d="M413.8,374 C416.8,377.1 416.7,382.1 413.7,385.3 L392.3,407.2 C389.2,410.3 384.2,410.4 381.2,407.3 L235.3,255.3 C233.8,253.7 233.1,251.7 233.2,249.5 C233.1,247.4 233.8,245.3 235.3,243.7 L381.2,91.7 C384.2,88.6 389.2,88.7 392.3,91.8 L413.7,113.7 C416.8,116.8 416.8,121.9 413.8,125 L294.3,249.4 L413.8,374 Z" id="Path" fill="#000000" fill-rule="nonzero"></path>
        <path d="M276.6,373.95 C279.6,377.05 279.5,382.05 276.5,385.25 L255.1,407.15 C252,410.25 247,410.35 244,407.25 L98.1,255.25 C96.6,253.65 95.9,251.65 96,249.45 C95.9,247.35 96.6,245.25 98.1,243.65 L244,91.75 C247,88.65 252,88.75 255.1,91.85 L276.5,113.75 C279.6,116.85 279.6,121.95 276.6,125.05 L157.2,249.35 L276.6,373.95 Z" id="Path" fill="#000000" fill-rule="nonzero"></path>
    </g>
</svg>