<?xml version="1.0" encoding="UTF-8"?>
<svg id="Layer_1" xmlns="http://www.w3.org/2000/svg" version="1.1" viewBox="0 0 500 500">
  <!-- Generator: Adobe Illustrator 29.1.0, SVG Export Plug-In . SVG Version: 2.1.0 Build 142)  -->
  <path d="M471.9,425.1c4.2,4.4,4.1,11.4-.1,15.9l-30.1,30.8c-4.4,4.4-11.4,4.5-15.6.1l-205.1-213.7c-2.1-2.2-3.1-5.1-3-8.2-.1-3,.8-5.9,3-8.2L426,28.1c4.2-4.4,11.2-4.2,15.6.1l30.1,30.8c4.4,4.4,4.4,11.5.1,15.9l-168,174.9,168,175.2ZM278.9,425c4.2,4.4,4.1,11.4-.1,15.9l-30.1,30.8c-4.4,4.4-11.4,4.5-15.6.1L28,258.1c-2.1-2.2-3.1-5.1-3-8.2-.1-3,.8-5.9,3-8.2L233.1,28.2c4.2-4.4,11.2-4.2,15.6.1l30.1,30.8c4.4,4.4,4.4,11.5.1,15.9L111.1,249.8l167.9,175.2Z"/>
</svg>