<svg xmlns="http://www.w3.org/2000/svg" width="512" height="512" viewBox="0 0 512 512">
  <path d="M453.203,411.602c3.749,3.875,3.625,10.124-.125,14.123l-26.746,27.371c-3.875,3.875-10.124,3.999-13.873.125l-182.348-189.972c-1.875-2-2.749-4.5-2.625-7.249-.125-2.625.75-5.249,2.625-7.249L412.46,58.779c3.749-3.875,9.998-3.749,13.873.125l26.746,27.371c3.875,3.875,3.875,10.249.125,14.123l-149.353,155.477,149.353,155.727h0ZM281.729,411.54c3.749,3.875,3.625,10.124-.125,14.123l-26.746,27.371c-3.875,3.875-10.124,3.999-13.873.125L58.637,263.187c-1.875-2-2.749-4.5-2.625-7.249-.125-2.625.75-5.249,2.625-7.249L240.985,58.843c3.749-3.875,9.998-3.749,13.873.125l26.746,27.371c3.875,3.875,3.875,10.249.125,14.123l-149.228,155.352,149.228,155.727Z"/>
</svg>