<svg xmlns="http://www.w3.org/2000/svg" width="512" height="512" viewBox="0 0 512 512">
  <path d="M208.139,255.875L58.796,100.534c-3.749-3.874-3.624-10.123.125-14.122l26.744-27.369c3.874-3.874,10.123-3.999,13.872-.125l182.334,189.958c2,2,2.875,4.624,2.624,7.248.125,2.624-.75,5.249-2.624,7.248l-182.334,189.708c-3.749,3.874-9.998,3.749-13.872-.125l-26.744-27.369c-3.874-3.874-3.874-10.248-.125-14.122l149.342-155.59h0ZM379.476,255.875L230.259,100.534c-3.749-3.874-3.624-10.123.125-14.122l26.744-27.369c3.874-3.874,10.123-3.999,13.872-.125l182.334,189.958c2,2,2.875,4.624,2.624,7.248.125,2.624-.75,5.249-2.624,7.248l-182.334,189.708c-3.749,3.874-9.998,3.749-13.872-.125l-26.744-27.369c-3.874-3.874-3.874-10.248-.125-14.122l149.217-155.59h0Z"/>
</svg>