<svg xmlns="http://www.w3.org/2000/svg" width="512" height="512" viewBox="0 0 512 512">
    <path d="M217.7 249.4L98.2 125.1c-3-3.1-2.9-8.1.1-11.3l21.4-21.9c3.1-3.1 8.1-3.2 11.1-.1l145.9 152c1.6 1.6 2.3 3.7 2.1 5.8.1 2.1-.6 4.2-2.1 5.8L130.8 407.2c-3 3.1-8 3-11.1-.1l-21.4-21.9c-3.1-3.1-3.1-8.2-.1-11.3l119.5-124.5z"/>
    <path d="M354.8 249.4L235.4 125.1c-3-3.1-2.9-8.1.1-11.3l21.4-21.9c3.1-3.1 8.1-3.2 11.1-.1l145.9 152c1.6 1.6 2.3 3.7 2.1 5.8.1 2.1-.6 4.2-2.1 5.8L268 407.2c-3 3.1-8 3-11.1-.1l-21.4-21.9c-3.1-3.1-3.1-8.2-.1-11.3l119.4-124.5z"/>
</svg>
