<svg xmlns="http://www.w3.org/2000/svg" width="512" height="512" viewBox="0 0 512 512">
    <path d="M413.8 324.5c3 3.1 2.9 8.1-.1 11.3l-21.4 21.9c-3.1 3.1-8.1 3.2-11.1.1l-145.9-152c-1.5-1.6-2.2-3.6-2.1-5.8-.1-2.1.6-4.2 2.1-5.8l145.9-152c3-3.1 8-3 11.1.1l21.4 21.9c3.1 3.1 3.1 8.2.1 11.3L294.3 199.9l119.5 124.6z"/>
    <path d="M276.6 324.5c3 3.1 2.9 8.1-.1 11.3l-21.4 21.9c-3.1 3.1-8.1 3.2-11.1.1l-145.9-152c-1.5-1.6-2.2-3.6-2.1-5.8-.1-2.1.6-4.2 2.1-5.8L244 42.3c3-3.1 8-3 11.1.1l21.4 21.9c3.1 3.1 3.1 8.2.1 11.3L157.2 199.9l119.4 124.6z"/>
</svg>
