<svg xmlns="http://www.w3.org/2000/svg" width="512" height="512" viewBox="0 0 512 512">
    <path d="M183.2 127.4h145.5c-1.3-15.2-7.3-26.8-21.2-30.6-.3-.1-.8-.3-1.2-.4-9.1-2.6-15.9-5.8-15.9-15.8V65c0-19.3-15.6-35-34.9-35s-34.9 15.7-34.9 35v15.6c0 9.9-6.5 13-15.6 15.6-.3.1-.6.5-1 .6-13.6 3.7-19.3 15.4-20.8 30.6M256 54.5c5.8 0 10.4 4.7 10.4 10.5s-4.7 10.5-10.4 10.5-10.4-4.7-10.4-10.5c0-5.7 4.6-10.5 10.4-10.5"/>
    <path d="M369 91.45h-56.2v10.6c0 8 7 14.4 14.8 14.4h28.2c5.1 0 9.2 4.1 9.4 9.3l.1 248c-.3 4.8-4 8.8-8.8 9.1H156.1c-4.7-.3-8.4-4.3-8.7-9.2l-.1-247.9c.3-5.1 4.4-9.3 9.5-9.3h28.3c7.8 0 14-6.4 14-14.4v-10.6h-55.4c-11.4 0-21.1 9.6-21.1 21.3v273.1c0 11.8 9.7 21.7 21.1 21.7H369c11.5 0 20.3-9.9 20.3-21.7v-273c.1-11.8-8.8-21.4-20.3-21.4"/>
    <path d="M177.2 164.55h84.9v24.3h-84.9zm0 145.6h121.3v24.3H177.2zm0-48.5H275v24.3h-97.8zm0-48.5h157.7v24.3H177.2z"/>
</svg>
