<?xml version="1.0" encoding="UTF-8"?>
<svg id="Layer_1" xmlns="http://www.w3.org/2000/svg" version="1.1" viewBox="0 0 500 500">
  <!-- Generator: Adobe Illustrator 29.1.0, SVG Export Plug-In . SVG Version: 2.1.0 Build 142)  -->
  <path d="M384.7,98.2h-67v8.8c-1.9-1-4-1.8-6.3-2.4-.4-.1-1-.4-1.4-.5-10.8-3.1-19-6.9-19-18.8v-18.6c0-23-18.6-41.7-41.6-41.7s-41.6,18.7-41.6,41.7v18.6c0,11.8-7.7,15.5-18.6,18.6-.4.1-.7.6-1.2.7-2.1.6-4,1.3-5.8,2.2v-8.6h-66c-13.6,0-25.1,11.4-25.1,25.4v325.5c0,14.1,11.6,25.9,25.1,25.9h268.5c13.7,0,24.2-11.8,24.2-25.9V123.7c.1-14.1-10.5-25.5-24.2-25.5ZM250.1,54.2c6.9,0,12.4,5.6,12.4,12.5s-5.6,12.5-12.4,12.5-12.4-5.6-12.4-12.5,5.5-12.5,12.4-12.5ZM369.8,445.6h-238.9c-5.6-.4-10-5.1-10.4-11V139.1c.2-6.1,5.1-11.1,11.2-11.1h33.7c0,0,.1,0,.2,0-1.2,4-2,8.4-2.5,13.1h173.4c-.4-4.7-1.2-9.1-2.4-13.1.4,0,.7,0,1.1,0h33.6c6.1,0,11,4.9,11.2,11.1v295.6c-.2,5.7-4.6,10.5-10.4,10.8Z"/>
  <rect x="156.1" y="185.4" width="101.2" height="29"/>
  <rect x="156.1" y="358.9" width="144.6" height="29"/>
  <rect x="156.1" y="243.3" width="188" height="29"/>
  <rect x="156.1" y="301.1" width="116.6" height="29"/>
</svg>