<svg xmlns="http://www.w3.org/2000/svg" width="512" height="512" viewBox="0 0 512 512">
  <path d="M178.924,159.192h154.152c-1.377-16.104-7.734-28.394-22.46-32.42-.318-.106-.848-.318-1.271-.424-9.641-2.755-16.845-6.145-16.845-16.74v-16.528c0-20.448-16.528-37.081-36.975-37.081s-36.975,16.634-36.975,37.081v16.528c0,10.489-6.886,13.773-16.528,16.528-.318.106-.636.53-1.06.636-14.409,3.92-20.448,16.316-22.036,32.42M256.053,81.956c6.145,0,11.019,4.98,11.019,11.124s-4.98,11.124-11.019,11.124-11.019-4.98-11.019-11.124c0-6.039,4.874-11.124,11.019-11.124M375.772,121.104h-59.542v11.23c0,8.476,7.416,15.256,15.68,15.256h29.876c5.404,0,9.747,4.344,9.959,9.853l.106,262.747c-.318,5.085-4.238,9.324-9.324,9.641h-212.316c-4.98-.318-8.9-4.556-9.217-9.747l-.106-262.641c.318-5.404,4.661-9.853,10.065-9.853h29.983c8.264,0,14.833-6.78,14.833-15.256v-11.23h-58.694c-12.078,0-22.355,10.171-22.355,22.566v289.34c0,12.501,10.276,22.99,22.355,22.99h238.697c12.184,0,21.507-10.489,21.507-22.99V143.777c.106-12.501-9.324-22.673-21.507-22.673M172.568,198.55h89.948v25.745h-89.948v-25.745h0ZM172.568,352.808h128.513v25.745h-128.513v-25.745ZM172.568,301.425h103.615v25.745h-103.615v-25.745h0ZM172.568,250.041h167.077v25.745h-167.077v-25.745Z"/>
</svg>