<?xml version="1.0" encoding="UTF-8"?>
<svg width="512px" height="512px" viewBox="0 0 512 512" version="1.1" xmlns="http://www.w3.org/2000/svg" xmlns:xlink="http://www.w3.org/1999/xlink">
    <!-- Generator: Sketch 62 (91390) - https://sketch.com -->
    <title>close</title>
    <desc>Created with Sketch.</desc>
    <g id="close" stroke="none" stroke-width="1" fill="none" fill-rule="evenodd">
        <path d="M412.4,358.45 L303,248.65 L412.6,140.35 C417.1,135.85 417.1,128.55 412.6,124.05 L381.4,92.75 C379.2,90.55 376.3,89.45 373.2,89.45 C370.1,89.45 367.2,90.65 365,92.75 L256,200.65 L146.8,92.75 C144.6,90.55 141.7,89.45 138.6,89.45 C135.5,89.45 132.6,90.65 130.4,92.75 L99.4,124.15 C94.9,128.65 94.9,135.95 99.4,140.45 L209,248.75 L99.7,358.45 C97.5,360.65 96.3,363.55 96.3,366.65 C96.3,369.75 97.5,372.65 99.7,374.85 L130.9,406.15 C133.1,408.35 136.1,409.55 139.1,409.55 C142,409.55 145,408.45 147.3,406.15 L256,296.75 L365,406.05 C367.3,408.25 370.2,409.45 373.2,409.45 C376.1,409.45 379.1,408.35 381.4,406.05 L412.6,374.75 C414.8,372.55 416,369.65 416,366.55 C415.8,363.55 414.5,360.65 412.4,358.45 L412.4,358.45 Z" id="Path" fill="#000000" fill-rule="nonzero"></path>
    </g>
</svg>