<?xml version="1.0" encoding="UTF-8"?>
<svg id="Layer_1" xmlns="http://www.w3.org/2000/svg" version="1.1" viewBox="0 0 500 500">
  <!-- Generator: Adobe Illustrator 29.1.0, SVG Export Plug-In . SVG Version: 2.1.0 Build 142)  -->
  <path d="M408.4,221.7h-42.6v-14.2h-56.7v85h56.7v-14.2h42.6v28.3c0,7.5-3,14.8-8.3,20.1s-12.5,8.3-20.1,8.3h-85c-7.5,0-14.8-3-20.1-8.3-5.3-5.3-8.3-12.5-8.3-20.1v-113.3c0-7.5,3-14.8,8.3-20.1,5.3-5.3,12.5-8.3,20.1-8.3h85c7.5,0,14.8,3,20.1,8.3,5.3,5.3,8.3,12.5,8.3,20.1M233.4,221.7h-42.6v-14.2h-56.7v85h56.7v-14.2h42.6v28.3c0,7.5-3,14.8-8.3,20.1-5.3,5.3-12.5,8.3-20.1,8.3h-85c-7.5,0-14.8-3-20.1-8.3-5.3-5.3-8.3-12.5-8.3-20.1v-113.3c0-7.5,3-14.8,8.3-20.1,5.3-5.3,12.5-8.3,20.1-8.3h85c7.5,0,14.8,3,20.1,8.3,5.3,5.3,8.3,12.5,8.3,20.1M425,50H75c-27.8,0-50,22.2-50,50v300c0,13.2,5.3,25.9,14.6,35.3,9.4,9.4,22.1,14.6,35.3,14.6h350c13.2,0,25.9-5.3,35.3-14.6,9.4-9.4,14.6-22.1,14.6-35.3V100c0-27.8-22.5-50-50-50"/>
</svg>