<?xml version="1.0" encoding="UTF-8"?>
<svg id="Layer_1" xmlns="http://www.w3.org/2000/svg" version="1.1" viewBox="0 0 500 500">
  <!-- Generator: Adobe Illustrator 29.1.0, SVG Export Plug-In . SVG Version: 2.1.0 Build 142)  -->
  <path d="M469.9,403.2l-153.9-154.4,154.1-152.3c6.3-6.3,6.3-16.6,0-22.9l-43.9-44c-3.1-3.1-7.2-4.6-11.5-4.6s-8.4,1.7-11.5,4.6l-153.3,151.7L96.4,29.6c-3.1-3.1-7.2-4.6-11.5-4.6s-8.4,1.7-11.5,4.6l-43.6,44.2c-6.3,6.3-6.3,16.6,0,22.9l154.1,152.3L30.2,403.2c-3.1,3.1-4.8,7.2-4.8,11.5s1.7,8.4,4.8,11.5l43.9,44c3.1,3.1,7.3,4.8,11.5,4.8s8.3-1.5,11.5-4.8l152.9-153.9,153.3,153.7c3.2,3.1,7.3,4.8,11.5,4.8s8.3-1.5,11.5-4.8l43.9-44c3.1-3.1,4.8-7.2,4.8-11.5-.3-4.2-2.1-8.3-5.1-11.4"/>
</svg>