<svg xmlns="http://www.w3.org/2000/svg" width="512" height="512" viewBox="0 0 512 512">
  <path d="M451.499,392.198l-136.761-137.261,137.011-135.386c5.625-5.625,5.625-14.751,0-20.377l-39.003-39.128c-2.75-2.75-6.376-4.125-10.251-4.125s-7.501,1.5-10.251,4.125l-136.261,134.886L119.474,60.048c-2.75-2.75-6.376-4.125-10.251-4.125s-7.501,1.5-10.251,4.125l-38.753,39.253c-5.625,5.625-5.625,14.751,0,20.377l137.011,135.386L60.594,392.198c-2.75,2.75-4.25,6.376-4.25,10.251s1.5,7.501,4.25,10.251l39.003,39.128c2.75,2.75,6.501,4.25,10.251,4.25,3.625,0,7.376-1.375,10.251-4.25l135.886-136.761,136.261,136.636c2.875,2.75,6.501,4.25,10.251,4.25,3.625,0,7.376-1.375,10.251-4.25l39.003-39.128c2.75-2.75,4.25-6.376,4.25-10.251-.25-3.75-1.875-7.376-4.5-10.126"/>
</svg>