<svg xmlns="http://www.w3.org/2000/svg" width="512" height="512" viewBox="0 0 512 512">
    <path fill-rule="nonzero" d="M412.4 358.45L303 248.65l109.6-108.3c4.5-4.5 4.5-11.8 0-16.3l-31.2-31.3c-2.2-2.2-5.1-3.3-8.2-3.3-3.1 0-6 1.2-8.2 3.3l-109 107.9-109.2-107.9c-2.2-2.2-5.1-3.3-8.2-3.3-3.1 0-6 1.2-8.2 3.3l-31 31.4c-4.5 4.5-4.5 11.8 0 16.3L209 248.75 99.7 358.45c-2.2 2.2-3.4 5.1-3.4 8.2 0 3.1 1.2 6 3.4 8.2l31.2 31.3c2.2 2.2 5.2 3.4 8.2 3.4 2.9 0 5.9-1.1 8.2-3.4L256 296.75l109 109.3c2.3 2.2 5.2 3.4 8.2 3.4 2.9 0 5.9-1.1 8.2-3.4l31.2-31.3c2.2-2.2 3.4-5.1 3.4-8.2-.2-3-1.5-5.9-3.6-8.1z"/>
</svg>
