<svg xmlns="http://www.w3.org/2000/svg" width="512" height="512" viewBox="0 0 512 512">
    <path d="M412.7 229.9h-39.2v-13.1h-52.2v78.3h52.2V282h39.2v26.1c0 6.9-2.8 13.6-7.6 18.5s-11.5 7.6-18.5 7.6h-78.3c-6.9 0-13.6-2.8-18.5-7.6-4.9-4.9-7.6-11.5-7.6-18.5V203.7c0-6.9 2.8-13.6 7.6-18.5 4.9-4.9 11.5-7.6 18.5-7.6h78.3c6.9 0 13.6 2.8 18.5 7.6 4.9 4.9 7.6 11.5 7.6 18.5m-182.8 26.2h-39.2v-13.1h-52.2v78.3h52.2V282h39.2v26.1c0 6.9-2.8 13.6-7.6 18.5-4.9 4.9-11.5 7.6-18.5 7.6h-78.3c-6.9 0-13.6-2.8-18.5-7.6-4.9-4.9-7.6-11.5-7.6-18.5V203.7c0-6.9 2.8-13.6 7.6-18.5 4.9-4.9 11.5-7.6 18.5-7.6h78.3c6.9 0 13.6 2.8 18.5 7.6 4.9 4.9 7.6 11.5 7.6 18.5M438.8 47.1H73.2c-29 0-52.2 23.2-52.2 52.2v313.3c0 13.8 5.5 27.1 15.3 36.9s23.1 15.3 36.9 15.3h365.6c13.8 0 27.1-5.5 36.9-15.3s15.3-23.1 15.3-36.9V99.3c0-29-23.5-52.2-52.2-52.2"/>
</svg>
