<svg xmlns="http://www.w3.org/2000/svg" width="512" height="512" viewBox="0 0 512 512">
  <path d="M389.362,233.83h-33.362v-11.149h-44.426v66.638h44.426v-11.149h33.362v22.213c0,5.872-2.383,11.574-6.468,15.745s-9.787,6.468-15.745,6.468h-66.638c-5.872,0-11.574-2.383-15.745-6.468-4.17-4.17-6.468-9.787-6.468-15.745v-88.851c0-5.872,2.383-11.574,6.468-15.745,4.17-4.17,9.787-6.468,15.745-6.468h66.638c5.872,0,11.574,2.383,15.745,6.468,4.17,4.17,6.468,9.787,6.468,15.745M233.787,233.83h-33.362v-11.149h-44.426v66.638h44.426v-11.149h33.362v22.213c0,5.872-2.383,11.574-6.468,15.745-4.17,4.17-9.787,6.468-15.745,6.468h-66.638c-5.872,0-11.574-2.383-15.745-6.468-4.17-4.17-6.468-9.787-6.468-15.745v-88.851c0-5.872,2.383-11.574,6.468-15.745,4.17-4.17,9.787-6.468,15.745-6.468h66.638c5.872,0,11.574,2.383,15.745,6.468,4.17,4.17,6.468,9.787,6.468,15.745M411.574,78.255H100.426c-24.681,0-44.426,19.745-44.426,44.426v266.638c0,11.745,4.681,23.064,13.021,31.404,8.34,8.34,19.66,13.021,31.404,13.021h311.149c11.745,0,23.064-4.681,31.404-13.021,8.34-8.34,13.021-19.66,13.021-31.404V122.681c0-24.681-20-44.426-44.426-44.426"/>
</svg>