<svg xmlns="http://www.w3.org/2000/svg" width="512" height="512" viewBox="0 0 512 512">
    <path d="M412.4 309.1L303 199.3 412.6 91c4.5-4.5 4.5-11.8 0-16.3l-31.2-31.3c-2.2-2.2-5.1-3.3-8.2-3.3-3.1 0-6 1.2-8.2 3.3L256 151.3 146.8 43.4c-2.2-2.2-5.1-3.3-8.2-3.3-3.1 0-6 1.2-8.2 3.3l-31 31.4c-4.5 4.5-4.5 11.8 0 16.3L209 199.4 99.7 309.1c-2.2 2.2-3.4 5.1-3.4 8.2 0 3.1 1.2 6 3.4 8.2l31.2 31.3c2.2 2.2 5.2 3.4 8.2 3.4 2.9 0 5.9-1.1 8.2-3.4L256 247.4l109 109.3c2.3 2.2 5.2 3.4 8.2 3.4 2.9 0 5.9-1.1 8.2-3.4l31.2-31.3c2.2-2.2 3.4-5.1 3.4-8.2-.2-3-1.5-5.9-3.6-8.1z"/>
</svg>
