<?xml version="1.0" encoding="UTF-8"?>
<svg width="512px" height="512px" viewBox="0 0 512 512" version="1.1" xmlns="http://www.w3.org/2000/svg" xmlns:xlink="http://www.w3.org/1999/xlink">
    <!-- Generator: Sketch 62 (91390) - https://sketch.com -->
    <title>cloud</title>
    <desc>Created with Sketch.</desc>
    <g id="cloud" stroke="none" stroke-width="1" fill="none" fill-rule="evenodd">
        <path d="M376.6,230.15 C376.6,229.05 376.7,228.15 376.7,227.05 C376.7,171.95 332.8,127.35 278.5,127.35 C239.4,127.35 205.8,150.65 190,184.25 C183.1,180.85 175.4,178.75 167.3,178.75 C142.2,178.75 121.3,197.25 117.4,221.65 C87.4,231.85 65.9,260.55 65.9,294.45 C65.9,337.05 99.9,371.55 141.8,371.65 L376.6,371.65 C415,371.45 446.00024,339.75 446.00024,300.85 C446.1,261.85 415,230.25 376.6,230.15 L376.6,230.15 Z" id="Path" fill="#000000" fill-rule="nonzero"></path>
    </g>
</svg>