<svg xmlns="http://www.w3.org/2000/svg" width="512" height="512" viewBox="0 0 512 512">
  <path id="content" d="M156,400.546c-27.637,0-51.213-9.516-70.727-28.546-19.516-19.151-29.273-42.485-29.273-70,0-23.637,7.091-44.727,21.273-63.273,14.303-18.546,32.97-30.364,56-35.455,5.212-21.818,18.121-42.545,38.727-62.181,20.484-19.757,42.424-29.637,65.818-29.637,10.06,0,18.606,3.576,25.636,10.727,7.151,7.151,10.727,15.697,10.727,25.636v110l29.091-28.181,25.454,25.454-72.727,72.727-72.727-72.727,25.454-25.454,29.091,28.181v-110c-23.03,4.243-40.909,15.394-53.637,33.454-12.727,18.06-19.091,36.606-19.091,55.637h-9.091c-17.576,0-32.546,6.242-44.909,18.727-12.484,12.364-18.727,27.333-18.727,44.909s6.243,32.727,18.727,45.454c12.364,12.121,27.333,18.182,44.909,18.182h218.183c12.727,0,23.454-4.424,32.182-13.273,8.849-8.727,13.273-19.454,13.273-32.182s-4.424-23.454-13.273-32.182c-8.727-8.849-19.454-13.273-32.182-13.273h-27.273v-36.364c0-14.546-3.333-28.121-10-40.727-6.667-12.484-15.454-23.151-26.364-32v-42.182c22.424,10.546,40.182,26.182,53.273,46.909,12.97,21.091,19.454,43.757,19.454,68,20.97,2.424,38.303,11.515,52,27.273,13.818,15.516,20.727,33.697,20.727,54.546,0,22.788-7.94,42.121-23.818,58-15.879,15.879-35.213,23.818-58,23.818"/>
</svg>