<svg xmlns="http://www.w3.org/2000/svg" width="500" height="500" viewBox="0 0 500 500">
  <path id="content" d="M137.5,412.614c-31.091,0-57.614-10.705-79.568-32.114-21.955-21.545-32.932-47.795-32.932-78.75,0-26.591,7.977-50.318,23.932-71.182,16.091-20.864,37.091-34.159,63-39.887,5.864-24.545,20.386-47.863,43.568-69.954,23.045-22.227,47.727-33.341,74.045-33.341,11.318,0,20.932,4.023,28.841,12.068,8.045,8.045,12.068,17.659,12.068,28.841v123.75l32.727-31.704,28.636,28.636-81.818,81.818-81.818-81.818,28.636-28.636,32.727,31.704v-123.75c-25.909,4.773-46.023,17.318-60.341,37.636-14.318,20.318-21.477,41.182-21.477,62.591h-10.227c-19.773,0-36.614,7.022-50.523,21.068-14.045,13.909-21.068,30.75-21.068,50.523s7.023,36.818,21.068,51.136c13.909,13.636,30.75,20.455,50.523,20.455h245.455c14.318,0,26.386-4.977,36.205-14.932,9.955-9.818,14.932-21.886,14.932-36.205s-4.977-26.386-14.932-36.205c-9.818-9.955-21.886-14.932-36.205-14.932h-30.682v-40.909c0-16.364-3.75-31.636-11.25-45.818-7.5-14.045-17.386-26.045-29.659-36v-47.455c25.227,11.864,45.205,29.455,59.932,52.773,14.591,23.727,21.886,49.227,21.886,76.5,23.591,2.727,43.091,12.954,58.5,30.682,15.545,17.455,23.318,37.909,23.318,61.364,0,25.636-8.932,47.386-26.795,65.25-17.864,17.864-39.614,26.795-65.25,26.795"/>
</svg>