<?xml version="1.0" encoding="UTF-8"?>
<svg id="content" xmlns="http://www.w3.org/2000/svg" version="1.1" viewBox="0 0 512 512">
  <!-- Generator: Adobe Illustrator 30.1.0, SVG Export Plug-In . SVG Version: 2.1.1 Build 136)  -->
  <path id="cloud-check-outline" d="M275.6,365.8c0,6.2.7,12.3,1.6,18.3h-120.6c-27.4,0-51.4-9.1-71.2-28.7-19.6-19.2-29.5-42.8-29.5-70.4s7.1-45,21.4-63.7,33.5-30.6,56.4-35.7c7.7-28,22.9-50.7,45.7-68.1,22.9-17.4,48.9-26.2,77.8-26.2s65.9,12.4,90.8,37.3c24.9,24.9,37.3,55.1,37.3,90.8,21,2.4,38.4,11.5,52.3,27.4,9.3,10.4,15.4,22.1,18.3,35.1-19-16.1-43.2-26-70.6-26h-36.6v-36.6c0-25.3-9.1-46.8-26.7-64.8-17.9-17.6-39.5-26.7-64.8-26.7s-46.8,9.1-64.8,26.7c-17.6,17.9-26.7,39.5-26.7,64.8h-9.1c-17.7,0-32.8,6.2-45.2,18.8-12.6,12.4-18.8,27.4-18.8,45.2s6.2,32.8,18.8,45.7c12.4,12.1,27.4,18.3,45.2,18.3h120.6c-.9,6-1.6,12.1-1.6,18.3v.2ZM362.5,373.7l-29.1-29.1-21.2,21.2,50.3,54.9,86.9-86.9-21.2-25.8-65.7,65.7h0Z"/>
</svg>