<?xml version="1.0" encoding="UTF-8"?>
<svg width="512px" height="512px" viewBox="0 0 512 512" version="1.1" xmlns="http://www.w3.org/2000/svg" xmlns:xlink="http://www.w3.org/1999/xlink">
    <!-- Generator: Sketch 62 (91390) - https://sketch.com -->
    <title>code</title>
    <desc>Created with Sketch.</desc>
    <g id="code" stroke="none" stroke-width="1" fill="none" fill-rule="evenodd">
        <path d="M168,385.475 C161.6,385.475 155.5,382.975 151,378.475 L39,266.475 C29.6,257.075 29.6,241.875 39,232.575 L151,120.575 C160.4,111.175 175.6,111.175 184.9,120.575 C194.3,129.975 194.3,145.175 184.9,154.475 L89.9,249.475 L184.9,344.475 C194.3,353.875 194.3,369.075 184.9,378.375 C180.5,382.975 174.4,385.475 168,385.475 Z M344,385.475 C350.4,385.475 356.5,382.975 361,378.475 L473,266.475 C482.4,257.075 482.4,241.875 473,232.575 L361,120.575 C351.6,111.175 336.4,111.175 327.1,120.575 C317.7,129.975 317.7,145.175 327.1,154.475 L422.1,249.475 L327.1,344.475 C317.7,353.875 317.7,369.075 327.1,378.375 C331.5,382.975 337.6,385.475 344,385.475 Z" id="Shape" fill="#000000" fill-rule="nonzero"></path>
    </g>
</svg>