<svg xmlns="http://www.w3.org/2000/svg" width="512" height="512" viewBox="0 0 512 512">
  <path d="M177.446,377.379c-5.713,0-11.158-2.232-15.175-6.249l-99.978-99.978c-8.391-8.391-8.391-21.959,0-30.261l99.978-99.978c8.391-8.391,21.959-8.391,30.261,0,8.391,8.391,8.391,21.959,0,30.261l-84.803,84.803,84.803,84.803c8.391,8.391,8.391,21.959,0,30.261-3.928,4.106-9.373,6.338-15.086,6.338M334.554,377.379c5.713,0,11.158-2.232,15.175-6.249l99.978-99.978c8.391-8.391,8.391-21.959,0-30.261l-99.978-99.978c-8.391-8.391-21.959-8.391-30.261,0-8.391,8.391-8.391,21.959,0,30.261l84.803,84.803-84.803,84.803c-8.391,8.391-8.391,21.959,0,30.261,3.928,4.106,9.373,6.338,15.086,6.338"/>
</svg>