<?xml version="1.0" encoding="UTF-8"?>
<svg id="Layer_1" xmlns="http://www.w3.org/2000/svg" version="1.1" viewBox="0 0 500 500">
  <!-- Generator: Adobe Illustrator 29.1.0, SVG Export Plug-In . SVG Version: 2.1.0 Build 142)  -->
  <path d="M399,251.7c.7-6.3,1.1-11.7,1.1-16.2,0-23-3.9-23.1-18.8-23.1h-88.5c8.6-14.1,13.5-28.6,13.5-43.4,0-44.4-67.2-66.1-67.2-103.2s6-25,10.9-40.9c-31.1,8.2-55.6,39.3-55.6,72.2,0,56.6,66,57.1,66,99.4s-1.6,10-2.5,15.8h-65.5c.9-3.5,1.5-7.3,1.5-10.9,0-26.7-45.8-39.7-45.8-61.9s1.2-15,3.8-24.6c-15.1,6-33.2,23.4-33.2,43.1,0,31.3,37.4,34.3,43.1,54.3H43.7c-14.9,0-18.8.1-18.8,23.1s9,71.9,33.2,130.1,52,83.9,71.7,101v-.2c6.1,5.4,13.9,8.6,22.6,8.6h120c8.7,0,16.5-3.2,22.5-8.6v.2c10.7-9.1,23.6-20.9,36.9-38.6,5.5,2.3,11.5,4.3,18.1,5.9,9.8,2.3,19.7,3.5,29.1,3.5,28.1,0,53.5-10.8,71.3-30.2,15.7-17.1,24.7-40.3,24.7-63.5,0-45.6-32.8-83.7-76.1-92M379.1,400.3c-10.1,0-18.3-1.4-25.9-4.9,4.7-9.4,9.3-18.6,13.7-29.4,11.8-28.6,20-55.1,25.3-77.1,25.8,5,45.4,27.9,45.4,55.2s-20.2,56.3-58.5,56.3"/>
</svg>