<?xml version="1.0" encoding="UTF-8"?>
<svg width="512px" height="512px" viewBox="0 0 512 512" version="1.1" xmlns="http://www.w3.org/2000/svg" xmlns:xlink="http://www.w3.org/1999/xlink">
    <!-- Generator: Sketch 62 (91390) - https://sketch.com -->
    <title>coffee</title>
    <desc>Created with Sketch.</desc>
    <g id="coffee" stroke="none" stroke-width="1" fill="none" fill-rule="evenodd">
        <path d="M383.1,250.95 C383.7,245.55 384,240.95 384,237.15 C384,217.55 380.7,217.45 368,217.45 L292.5,217.45 C299.8,205.45 304,193.05 304,180.45 C304,142.55 246.7,124.05 246.7,92.45 C246.7,80.75 251.8,71.15 256,57.55 C229.5,64.55 208.6,91.05 208.6,119.15 C208.6,167.45 264.9,167.85 264.9,203.95 C264.9,208.45 263.5,212.45 262.8,217.45 L206.9,217.45 C207.7,214.45 208.2,211.25 208.2,208.15 C208.2,185.35 169.1,174.25 169.1,155.35 C169.1,148.35 170.1,142.55 172.3,134.35 C159.4,139.45 144,154.35 144,171.15 C144,197.85 175.9,200.45 180.8,217.45 L80,217.45 C67.3,217.45 64,217.55 64,237.15 C64,256.75 71.7,298.45 92.3,348.15 C112.9,397.85 136.7,419.75 153.5,434.35 L153.6,434.15 C158.7,438.75 165.4,441.45 172.8,441.45 L275.2,441.45 C282.6,441.45 289.3,438.75 294.4,434.15 L294.5,434.35 C303.5,426.55 314.5,416.55 325.9,401.45 C330.6,403.45 335.7,405.15 341.3,406.45 C349.7,408.45 358.1,409.45 366.1,409.45 C390.1,409.45 411.7,400.25 426.9,383.65 C440.3,369.05 448,349.25 448,329.45 C448,290.55 420,258.05 383.1,250.95 Z M366.1,377.75 C357.5,377.75 350.5,376.55 344,373.55 C348,365.55 351.9,357.65 355.7,348.45 C365.8,324.05 372.8,301.45 377.3,282.65 C399.3,286.95 416,306.45 416,329.75 C416,352.45 398.8,377.75 366.1,377.75 Z" id="Shape" fill="#000000" fill-rule="nonzero"></path>
    </g>
</svg>