<svg xmlns="http://www.w3.org/2000/svg" width="512" height="512" viewBox="0 0 512 512">
  <path d="M388.396,257.51c.625-5.625.937-10.417.937-14.375,0-20.417-3.437-20.521-16.667-20.521h-78.646c7.604-12.5,11.979-25.417,11.979-38.542,0-39.479-59.688-58.75-59.688-91.667,0-12.187,5.313-22.188,9.688-36.354-27.604,7.292-49.375,34.896-49.375,64.167,0,50.313,58.646,50.729,58.646,88.333,0,4.688-1.458,8.854-2.188,14.062h-58.229c.833-3.125,1.354-6.458,1.354-9.688,0-23.75-40.729-35.312-40.729-55,0-7.292,1.042-13.333,3.333-21.875-13.437,5.313-29.479,20.833-29.479,38.333,0,27.812,33.229,30.521,38.333,48.229h-105c-13.229,0-16.667.104-16.667,20.521s8.021,63.854,29.479,115.625c21.458,51.771,46.25,74.583,63.75,89.792l.104-.208c5.313,4.792,12.292,7.604,20,7.604h106.667c7.708,0,14.688-2.813,20-7.604l.104.208c9.375-8.125,20.833-18.542,32.708-34.271,4.896,2.083,10.208,3.854,16.042,5.208,8.75,2.083,17.5,3.125,25.833,3.125,25,0,47.5-9.583,63.333-26.875,13.958-15.208,21.979-35.833,21.979-56.458,0-40.521-29.167-74.375-67.604-81.771M370.688,389.594c-8.958,0-16.25-1.25-23.021-4.375,4.167-8.333,8.229-16.562,12.188-26.146,10.521-25.417,17.813-48.958,22.5-68.542,22.917,4.479,40.313,24.792,40.313,49.063,0,23.646-17.917,50-51.979,50"/>
</svg>