<svg xmlns="http://www.w3.org/2000/svg" width="500" height="500" viewBox="0 0 500 500">
    <path d="M250 160a89.995 89.995 0 0 1 90 90 89.995 89.995 0 0 1-90 90 89.995 89.995 0 0 1-90-90 89.995 89.995 0 0 1 90-90m0 45c-11.93 0-23.38 4.74-31.82 13.18S205 238.07 205 250s4.74 23.38 13.18 31.82S238.07 295 250 295s23.38-4.74 31.82-13.18S295 261.93 295 250s-4.74-23.38-13.18-31.82A45 45 0 0 0 250 205m-45 270c-5.63 0-10.35-4.05-11.25-9.45l-8.33-59.62c-14.18-5.63-26.33-13.28-38.03-22.28l-56.03 22.72c-4.95 1.8-11.02 0-13.72-4.95l-45-77.85c-2.92-4.95-1.57-11.03 2.7-14.4l47.48-37.35-1.58-21.83 1.58-22.5-47.48-36.68c-4.27-3.38-5.62-9.45-2.7-14.4l45-77.85c2.7-4.95 8.78-6.98 13.72-4.95l56.03 22.5c11.7-8.78 23.85-16.43 38.03-22.05l8.33-59.62c.9-5.4 5.62-9.45 11.25-9.45h90c5.62 0 10.35 4.05 11.25 9.45l8.33 59.62c14.17 5.63 26.32 13.28 38.03 22.05l56.03-22.5c4.95-2.03 11.03 0 13.73 4.95l45 77.85c2.93 4.95 1.58 11.03-2.7 14.4l-47.48 36.68 1.58 22.5-1.58 22.5 47.48 36.68c4.28 3.38 5.63 9.45 2.7 14.4l-45 77.85c-2.7 4.95-8.78 6.98-13.73 4.95l-56.03-22.5c-11.7 8.78-23.85 16.43-38.03 22.05l-8.33 59.62c-.9 5.4-5.63 9.45-11.25 9.45h-90Zm28.12-405-8.32 58.73c-27 5.63-50.85 20.02-68.18 40.05l-54.23-23.4-16.88 29.25 47.48 34.87c-9 26.33-9 54.9 0 81l-47.7 35.1 16.88 29.25 54.68-23.4c17.33 19.8 40.95 34.2 67.73 39.6l8.33 58.95h34.2l8.33-58.73c26.77-5.63 50.4-20.02 67.73-39.83l54.68 23.4 16.88-29.25-47.7-34.88c9-26.33 9-54.9 0-81.23l47.47-34.87-16.88-29.25-54.22 23.4c-17.33-20.03-41.18-34.43-68.18-39.83l-8.33-58.95h-33.75Z"/>
</svg>
