<svg xmlns="http://www.w3.org/2000/svg" width="512" height="512" viewBox="0 0 512 512">
  <path d="M255.992,173.785c45.406-.003,82.217,36.805,82.22,82.211v.009c.003,45.406-36.805,82.217-82.211,82.22h-.009c-45.406.003-82.217-36.805-82.22-82.211v-.009c-.003-45.406,36.805-82.217,82.211-82.22h.009M255.992,214.895c-10.899,0-21.359,4.33-29.069,12.041-7.71,7.71-12.041,18.171-12.041,29.069s4.33,21.359,12.041,29.069,18.171,12.041,29.069,12.041,21.359-4.33,29.069-12.041,12.041-18.171,12.041-29.069-4.33-21.359-12.041-29.069c-7.71-7.71-18.166-12.041-29.069-12.041M214.882,461.554c-5.143,0-9.455-3.7-10.277-8.633l-7.61-54.466c-12.954-5.143-24.054-12.132-34.742-20.354l-51.186,20.756c-4.522,1.644-10.067,0-12.534-4.522l-41.11-71.12c-2.668-4.522-1.434-10.077,2.467-13.155l43.376-34.121-1.443-19.943,1.443-20.555-43.376-33.509c-3.901-3.088-5.134-8.633-2.467-13.155l41.11-71.12c2.467-4.522,8.021-6.377,12.534-4.522l51.186,20.555c10.689-8.021,21.788-15.01,34.742-20.144l7.61-54.466c.822-4.933,5.134-8.633,10.277-8.633h82.22c5.134,0,9.455,3.7,10.277,8.633l7.61,54.466c12.945,5.143,24.045,12.132,34.742,20.144l51.186-20.555c4.522-1.855,10.077,0,12.543,4.522l41.11,71.12c2.677,4.522,1.443,10.077-2.467,13.155l-43.376,33.509,1.443,20.555-1.443,20.555,43.376,33.509c3.91,3.088,5.143,8.633,2.467,13.155l-41.11,71.12c-2.467,4.522-8.021,6.377-12.543,4.522l-51.186-20.555c-10.689,8.021-21.788,15.01-34.742,20.144l-7.61,54.466c-.822,4.933-5.143,8.633-10.277,8.633h-82.22v.009ZM240.571,91.565l-7.601,53.653c-24.666,5.143-46.454,18.289-62.286,36.588l-49.542-21.377-15.421,26.721,43.376,31.856c-8.222,24.054-8.222,50.154,0,73.998l-43.577,32.066,15.421,26.721,49.953-21.377c15.832,18.088,37.41,31.244,61.875,36.177l7.61,53.854h31.244l7.61-53.653c24.456-5.143,46.043-18.289,61.875-36.387l49.953,21.377,15.421-26.721-43.577-31.865c8.222-24.054,8.222-50.154,0-74.208l43.366-31.856-15.421-26.721-49.533,21.377c-15.832-18.299-37.62-31.454-62.286-36.387l-7.61-53.854h-30.832l-.018.018Z"/>
</svg>