<?xml version="1.0" encoding="UTF-8"?>
<svg id="Layer_1" xmlns="http://www.w3.org/2000/svg" version="1.1" viewBox="0 0 500 500">
  <!-- Generator: Adobe Illustrator 29.1.0, SVG Export Plug-In . SVG Version: 2.1.0 Build 142)  -->
  <path d="M144.1,430.1h81.1v-56.1h48.8v56.1h81.1V130.5h-211v299.6ZM290.3,161.9h35.1v35.1h-35.1v-35.1ZM290.3,232.7h35.1v35.1h-35.1v-35.1ZM290.3,303.6h35.1v35.1h-35.1v-35.1ZM232,161.9h35.1v35.1h-35.1v-35.1ZM232,232.7h35.1v35.1h-35.1v-35.1ZM232,303.6h35.1v35.1h-35.1v-35.1ZM173.9,161.9h35.1v35.1h-35.1v-35.1ZM173.9,232.7h35.1v35.1h-35.1v-35.1ZM173.9,303.6h35.1v35.1h-35.1v-35.1ZM25,430.1h95.1v-225H25v225ZM55,232.7h35.1v35.1h-35.1v-35.1ZM55,303.6h35.1v35.1h-35.1v-35.1ZM380,205.1v225h95v-225h-95ZM445,338.8h-35.1v-35.1h35.1v35.1ZM445,267.9h-35.1v-35.1h35.1v35.1ZM173.8,93.6h151.6v24.1h-151.6v-24.1ZM205.5,56.9h88v24.1h-87.9v-24.1h-.1Z"/>
</svg>