<svg xmlns="http://www.w3.org/2000/svg" width="512" height="512" viewBox="0 0 512 512">
  <path d="M161.889,421.889h72.111v-49.889h43.333v49.889h72.111V155.556h-187.556v266.333ZM291.778,183.444h31.222v31.222h-31.222v-31.222ZM291.778,246.444h31.222v31.222h-31.222v-31.222ZM291.778,309.444h31.222v31.222h-31.222v-31.222ZM240,183.444h31.222v31.222h-31.222v-31.222ZM240,246.444h31.222v31.222h-31.222v-31.222ZM240,309.444h31.222v31.222h-31.222v-31.222ZM188.333,183.444h31.222v31.222h-31.222v-31.222ZM188.333,246.444h31.222v31.222h-31.222v-31.222ZM188.333,309.444h31.222v31.222h-31.222v-31.222ZM56,421.889h84.556v-200H56v200ZM82.667,246.444h31.222v31.222h-31.222v-31.222ZM82.667,309.444h31.222v31.222h-31.222v-31.222ZM371.556,221.889v200h84.444v-200h-84.444ZM429.333,340.667h-31.222v-31.222h31.222v31.222ZM429.333,277.667h-31.222v-31.222h31.222v31.222ZM188.222,122.778h134.778v21.444h-134.778v-21.444ZM216.444,90.111h78.222v21.444h-78.111v-21.444h-.111Z"/>
</svg>