<svg xmlns="http://www.w3.org/2000/svg" width="512" height="512" viewBox="0 0 512 512">
    <path d="M171.3 349.3h64.9v-44.9h39v44.9h64.9V109.6H171.3v239.7zm116.9-214.6h28.1v28.1h-28.1v-28.1zm0 56.7h28.1v28.1h-28.1v-28.1zm0 56.7h28.1v28.1h-28.1v-28.1zm-46.6-113.4h28.1v28.1h-28.1v-28.1zm0 56.7h28.1v28.1h-28.1v-28.1zm0 56.7h28.1v28.1h-28.1v-28.1zm-46.5-113.4h28.1v28.1h-28.1v-28.1zm0 56.7h28.1v28.1h-28.1v-28.1zm0 56.7h28.1v28.1h-28.1v-28.1zM76 349.3h76.1v-180H76v180zm24-157.9h28.1v28.1H100v-28.1zm0 56.7h28.1v28.1H100v-28.1zm260-78.8v180h76v-180h-76zm52 106.9h-28.1v-28.1H412v28.1zm0-56.7h-28.1v-28.1H412v28.1zM195 80.1h121.3v19.3H195V80.1zm25.4-29.4h70.4V70h-70.3V50.7h-.1z"/>
</svg>
