<svg xmlns="http://www.w3.org/2000/svg" width="512" height="512" viewBox="0 0 512 512">
    <path fill-rule="nonzero" d="M171.3 398.8h64.9v-44.9h39v44.9h64.9V159.1H171.3v239.7zm116.9-214.6h28.1v28.1h-28.1v-28.1zm0 56.7h28.1V269h-28.1v-28.1zm0 56.7h28.1v28.1h-28.1v-28.1zm-46.6-113.4h28.1v28.1h-28.1v-28.1zm0 56.7h28.1V269h-28.1v-28.1zm0 56.7h28.1v28.1h-28.1v-28.1zm-46.5-113.4h28.1v28.1h-28.1v-28.1zm0 56.7h28.1V269h-28.1v-28.1zm0 56.7h28.1v28.1h-28.1v-28.1zM76 398.8h76.1v-180H76v180zm24-157.9h28.1V269H100v-28.1zm0 56.7h28.1v28.1H100v-28.1zm260-78.8v180h76v-180h-76zm52 106.9h-28.1v-28.1H412v28.1zm0-56.7h-28.1v-28.1H412V269zM195 129.6h121.3v19.3H195v-19.3zm25.4-29.4h70.4v19.3h-70.3v-19.3h-.1z"/>
</svg>
