<svg xmlns="http://www.w3.org/2000/svg" width="512" height="512" viewBox="0 0 512 512">
  <path id="content-copy" d="M392.5,419.7h-200.1v-254.6h200.1M392.5,128.7h-200.1c-9.6,0-18.9,3.8-25.7,10.7-6.8,6.8-10.7,16.1-10.7,25.7v254.6c0,9.6,3.8,18.9,10.7,25.7,6.8,6.8,16.1,10.6,25.7,10.6h200.1c9.6,0,18.9-3.8,25.7-10.6s10.6-16.1,10.6-25.7v-254.6c0-9.6-3.8-18.9-10.6-25.7-6.8-6.8-16.1-10.7-25.7-10.7h0ZM337.9,56H119.6c-9.6,0-18.9,3.8-25.7,10.7-6.8,6.8-10.7,16.1-10.7,25.7v254.6h36.4V92.4h218.3v-36.4Z"/>
</svg>