<?xml version="1.0" encoding="UTF-8"?>
<svg id="Layer_1" xmlns="http://www.w3.org/2000/svg" version="1.1" viewBox="0 0 500 500">
  <!-- Generator: Adobe Illustrator 29.1.0, SVG Export Plug-In . SVG Version: 2.1.0 Build 142)  -->
  <path d="M415.3,362.5c8.1,0,14.7,5.9,14.7,13.2v41c0,7.3-6.6,13.2-14.7,13.2H84.7c-8.1,0-14.7-5.9-14.7-13.2v-41c0-7.3,6.6-13.2,14.7-13.2h330.6ZM252.4,70c16,0,29,13.3,29,29.7,0,7.6-2.9,14.9-8,20.5,0,0,0,0,0,0l62,85c9.7,13.3,12.5,21.2,28.7,21.2s15.8-5.5,25.6-15.5l38.2-39.2c-6.6-5.4-10.8-13.8-10.8-23.1,0-16.4,13-29.7,29-29.7s29,13.3,29,29.7-8.1,23.9-19.4,28c0,1.4,0,2.8-.4,4.2l-25.3,147.6c-1.5,6.3-7,10.7-13.3,10.7l-163.8.9H82.9c-6.3,0-11.9-4.4-13.4-10.7l-23.9-148.1c-.3-1.4-.5-2.9-.4-4.3-11.7-3.8-20.3-15-20.3-28.3s13-29.7,29-29.7,29,13.3,29,29.7-4.1,17.5-10.6,22.9l38,39.2c9.6,9.9,15.3,15.6,29,15.6s20.4-7.8,30.1-21l62.5-84.8c-5.2-5.4-8.5-12.8-8.5-21,0-16.4,13-29.7,29-29.7"/>
</svg>