<svg xmlns="http://www.w3.org/2000/svg" width="512" height="512" viewBox="0 0 512 512">
    <path d="M406.927 340c7.22 0 13.073 5.272 13.073 11.776v36.448c0 6.504-5.853 11.776-13.073 11.776H113.073c-7.22 0-13.073-5.272-13.073-11.776v-36.448c0-6.504 5.853-11.776 13.073-11.776zM262.122 80c14.202 0 25.754 11.832 25.754 26.378a26.602 26.602 0 0 1-7.154 18.194c.015.02.033.037.048.059l55.112 75.545c8.602 11.79 11.139 18.83 25.51 18.83 12.232 0 14.08-4.879 22.728-13.739l33.993-34.815c-5.859-4.84-9.622-12.239-9.622-20.53 0-14.546 11.553-26.378 25.755-26.378 14.201 0 25.754 11.832 25.754 26.377 0 11.474-7.203 21.233-17.21 24.854a12.82 12.82 0 0 1-.324 3.733L420 309.73c-1.36 5.57-6.233 9.485-11.836 9.515l-145.57.837H111.51c-5.632 0-10.54-3.929-11.9-9.526l-21.257-131.64c-.31-1.28-.4-2.57-.322-3.834C67.592 171.714 60 161.71 60 149.922c0-14.546 11.553-26.378 25.754-26.378 14.202 0 25.755 11.832 25.755 26.377 0 8.192-3.665 15.52-9.403 20.362l33.78 34.859c8.537 8.81 13.621 13.862 25.741 13.862 14.33 0 18.173-6.97 26.777-18.649l55.515-75.337c-4.663-4.773-7.551-11.369-7.551-18.64C236.368 91.832 247.92 80 262.122 80z"/>
</svg>
