<svg xmlns="http://www.w3.org/2000/svg" width="512" height="512" viewBox="0 0 512 512">
    <path d="m103.573 359.035 139.409 80.487a26.1 26.1 0 0 0 26.035 0l139.41-80.488a26.11 26.11 0 0 0 13.018-22.547V175.512a26.11 26.11 0 0 0-13.018-22.547l-139.41-80.488a26.1 26.1 0 0 0-26.034 0l-139.41 80.488a26.11 26.11 0 0 0-13.018 22.547v160.976a26.11 26.11 0 0 0 13.018 22.547M269.017 102.54l126.392 72.972v144.314l-126.392-71.44zm-13.06 168.37 127.86 72.27-127.815 73.794-127.862-73.818 127.818-72.245zM116.59 175.513l126.392-72.972v145.796L116.59 319.778V175.512z"/>
</svg>
