<svg xmlns="http://www.w3.org/2000/svg" width="512" height="512" viewBox="0 0 512 512">
  <path d="M92.977,366.198l149.1,86.082c8.619,4.96,19.226,4.96,27.845,0l149.101-86.083c8.603-4.986,13.906-14.171,13.923-24.114v-172.165c-.017-9.944-5.32-19.128-13.923-24.114l-149.101-86.083c-8.619-4.959-19.225-4.959-27.844,0l-149.101,86.083c-8.603,4.986-13.906,14.171-13.923,24.114v172.166c.017,9.944,5.32,19.128,13.923,24.114M269.922,91.872l135.178,78.045v154.346l-135.178-76.406V91.872ZM255.954,271.947l136.748,77.294-136.7,78.924-136.751-78.95,136.703-77.267h-.001ZM106.899,169.918l135.178-78.045v155.931l-135.178,76.407v-154.295h0Z"/>
</svg>