<svg xmlns="http://www.w3.org/2000/svg" width="512" height="512" viewBox="0 0 512 512">
    <path d="M103.573 359.035l139.409 80.487a26.102 26.102 0 0026.035 0l139.41-80.488a26.11 26.11 0 0013.018-22.547V175.512a26.11 26.11 0 00-13.018-22.547l-139.41-80.488a26.105 26.105 0 00-26.034 0l-139.41 80.488a26.108 26.108 0 00-13.018 22.547v160.976a26.108 26.108 0 0013.018 22.547zM269.017 102.54l126.392 72.972v144.314l-126.392-71.44V102.54zm-13.06 168.37l127.86 72.27-127.815 73.794-127.862-73.818 127.818-72.245zM116.59 175.513l126.392-72.972v145.796L116.59 319.778V175.512z"/>
</svg>
