<?xml version="1.0" encoding="UTF-8"?>
<svg id="Layer_1" xmlns="http://www.w3.org/2000/svg" version="1.1" viewBox="0 0 500 500">
  <!-- Generator: Adobe Illustrator 29.1.0, SVG Export Plug-In . SVG Version: 2.1.0 Build 142)  -->
  <path d="M66.6,374l167.7,96.8c9.7,5.6,21.6,5.6,31.3,0l167.7-96.8c9.7-5.6,15.6-15.9,15.7-27.1v-193.7c0-11.2-6-21.5-15.7-27.1L265.7,29.2c-9.7-5.6-21.6-5.6-31.3,0L66.6,126c-9.7,5.6-15.6,15.9-15.7,27.1v193.7c0,11.2,6,21.5,15.7,27.1M265.7,65.4l152.1,87.8v173.6l-152.1-86V65.4ZM249.9,267.9l153.8,87-153.8,88.8-153.8-88.8,153.8-86.9h0ZM82.3,153.2l152.1-87.8v175.4l-152.1,86v-173.6h0Z"/>
</svg>