<svg xmlns="http://www.w3.org/2000/svg" width="512" height="512" viewBox="0 0 512 512">
    <path fill-rule="nonzero" d="M86 333.265c.9-3.9 1.7-7.9 2.9-11.9 2.9-9.1 7.9-17 14.7-23.7l69.5-69.5c.4-.4.8-.7 1-.9l18.1 18.1c-.6.6-1.4 1.5-2.3 2.4l-67.1 67.1c-8.3 8.3-12.3 18-10.3 29.8 2 11.9 8.8 20.4 19.8 24.7 11.2 4.5 22.1 3.1 31.9-4.4 2.1-1.6 4.1-3.4 5.9-5.3l77.7-77.7c1.3-1.4 2.6-2.7 4.3-4.5-9.4-2.9-17.6-7-24.8-13.4-7.1-6.4-11.9-14.5-16.5-23.1 7.4-4.1 14.8-8.3 22.5-12.6 5.5 11 12.1 20.8 25.4 23.9-2.4-12-8.9-20.4-19.9-25-11.1-4.6-21.6-2-32.3 2.7-2.9-8.2-5.8-16.1-8.6-23.9 31.1-16.8 77.7-2.7 86.4 41.7.9-.4 1.8-.9 2.6-1.3 31.8-17.9 63.6-35.6 95.4-53.6 11.5-6.5 17.7-16.4 17.6-29.8-.1-23.1-25.2-39-45.9-28.6-15 7.5-29.4 16.2-44.1 24.4-21.6 12.1-43.2 24.2-64.8 36.4-.9.5-1.9 1.1-3.2 1.7-4.1-7.4-8.3-14.7-12.5-22.2.9-.6 1.6-1.1 2.4-1.6 35.3-19.8 70.5-39.8 105.8-59.3 21.9-12.1 43.6-11.5 64 3.1 18 12.9 26.1 31.1 23.6 53.3-2.2 20.3-12.8 35.2-30.4 45.1-32.9 18.6-65.9 37.1-98.9 55.4-3.9 2.2-8.3 3.6-12.4 5.5-1.2.6-2.6 1.7-3.1 2.9-3.4 8.1-8.5 14.9-14.6 21.1-26.4 26.4-52.8 52.7-79.1 79.1-12.4 12.5-27.4 18.6-45.1 18.1-27.1-.9-51.2-22.4-54.9-49.3-.1-1.1-.5-2.1-.7-3.2v-11.7zm30.8-115.7c-3.4 0-5.9-2-6.3-5-.5-3.4 1.2-6 4.9-6.8 8-1.6 16.1-3.1 24.1-4.5l43.1-7.7c4-.7 7 1.1 7.7 4.4.7 3.5-1.2 6.4-5.1 7.1-22.5 4.1-45 8.2-67.5 12.2-.4.3-.8.3-.9.3zm74.5-109.6c0-3.5 2.1-5.9 5.1-6.4 3.1-.4 5.9 1.3 6.6 4.7 1.4 6.5 2.4 13 3.6 19.6 2.9 16 5.8 31.9 8.6 47.9.7 3.9-1.2 7-4.6 7.6-3.5.6-6.4-1.3-7.1-5.3-4.1-22.3-8.1-44.6-12.1-66.8-.1-.5-.1-1.1-.1-1.3z"/>
</svg>
