<svg xmlns="http://www.w3.org/2000/svg" width="512" height="512" viewBox="0 0 512 512">
  <path d="M56,354.65c1.06-4.593,2.002-9.304,3.415-14.015,3.415-10.717,9.304-20.021,17.312-27.912l81.851-81.851c.471-.471.942-.824,1.178-1.06l21.316,21.316c-.707.707-1.649,1.767-2.709,2.826l-79.024,79.024c-9.775,9.775-14.486,21.199-12.13,35.096,2.355,14.015,10.364,24.025,23.319,29.089,13.19,5.3,26.027,3.651,37.569-5.182,2.473-1.884,4.829-4.004,6.948-6.242l91.508-91.508c1.531-1.649,3.062-3.18,5.064-5.3-11.07-3.415-20.728-8.244-29.207-15.781-8.362-7.537-14.015-17.077-19.432-27.205,8.715-4.829,17.43-9.775,26.498-14.839,6.477,12.955,14.25,24.496,29.914,28.147-2.826-14.132-10.482-24.025-23.436-29.443-13.073-5.417-25.438-2.355-38.04,3.18-3.415-9.657-6.831-18.961-10.128-28.147,36.627-19.785,91.508-3.18,101.754,49.11,1.06-.471,2.12-1.06,3.062-1.531,37.451-21.081,74.902-41.926,112.353-63.125,13.544-7.655,20.845-19.314,20.728-35.096-.118-27.205-29.678-45.931-54.057-33.682-17.666,8.833-34.625,19.079-51.937,28.736-25.438,14.25-50.877,28.5-76.315,42.869-1.06.589-2.238,1.295-3.769,2.002-4.829-8.715-9.775-17.312-14.721-26.145,1.06-.707,1.884-1.295,2.826-1.884,41.573-23.319,83.028-46.873,124.601-69.838,25.792-14.25,51.348-13.544,75.373,3.651,21.199,15.192,30.738,36.627,27.794,62.772-2.591,23.907-15.075,41.455-35.802,53.115-38.747,21.905-77.611,43.693-116.475,65.245-4.593,2.591-9.775,4.24-14.604,6.477-1.413.707-3.062,2.002-3.651,3.415-4.004,9.539-10.01,17.548-17.195,24.85-31.091,31.091-62.183,62.065-93.157,93.157-14.604,14.721-32.269,21.905-53.115,21.316-31.916-1.06-60.299-26.381-64.656-58.061-.118-1.295-.589-2.473-.824-3.769v-13.779ZM92.273,218.389c-4.004,0-6.948-2.355-7.42-5.889-.589-4.004,1.413-7.066,5.771-8.008,9.422-1.884,18.961-3.651,28.383-5.3l50.759-9.068c4.711-.824,8.244,1.295,9.068,5.182.824,4.122-1.413,7.537-6.006,8.362-26.498,4.829-52.997,9.657-79.495,14.368-.471.353-.942.353-1.06.353M180.012,89.313c0-4.122,2.473-6.948,6.006-7.537,3.651-.471,6.948,1.531,7.773,5.535,1.649,7.655,2.826,15.31,4.24,23.083,3.415,18.843,6.831,37.569,10.128,56.412.824,4.593-1.413,8.244-5.417,8.951-4.122.707-7.537-1.531-8.362-6.242-4.829-26.263-9.539-52.526-14.25-78.671-.118-.589-.118-1.295-.118-1.531"/>
</svg>