<?xml version="1.0" encoding="UTF-8"?>
<svg id="Layer_1" xmlns="http://www.w3.org/2000/svg" version="1.1" viewBox="0 0 500 500">
  <!-- Generator: Adobe Illustrator 29.1.0, SVG Export Plug-In . SVG Version: 2.1.0 Build 142)  -->
  <path d="M250,152.4c-53.9,0-97.6,43.7-97.6,97.6s43.7,97.5,97.6,97.5,97.6-43.7,97.6-97.5-43.7-97.6-97.6-97.6M250,293.6c-24.1,0-43.7-19.6-43.7-43.7s19.6-43.7,43.7-43.7,43.7,19.6,43.7,43.7-19.6,43.7-43.7,43.7"/>
  <path d="M250,25C125.7,25,25,125.7,25,250s100.7,225,225,225,225-100.7,225-225S374.3,25,250,25M250,373.3c-68.1,0-123.3-55.2-123.3-123.3s55.2-123.3,123.3-123.3,123.3,55.2,123.3,123.3-55.2,123.3-123.3,123.3"/>
</svg>