<svg xmlns="http://www.w3.org/2000/svg" width="512" height="512" viewBox="0 0 512 512">
  <path d="M256,169.644c-47.733,0-86.4,38.667-86.4,86.4s38.667,86.311,86.4,86.311,86.4-38.667,86.4-86.311-38.667-86.4-86.4-86.4M256,294.622c-21.333,0-38.667-17.333-38.667-38.667s17.333-38.667,38.667-38.667,38.667,17.333,38.667,38.667-17.333,38.667-38.667,38.667M256,56c-110.446,0-200,89.554-200,200s89.554,200,200,200,200-89.554,200-200S366.446,56,256,56M256,365.643c-60.536,0-109.643-49.107-109.643-109.643s49.107-109.643,109.643-109.643,109.643,49.107,109.643,109.643-49.107,109.643-109.643,109.643"/>
</svg>