<?xml version="1.0" encoding="UTF-8"?>
<svg id="Layer_1" xmlns="http://www.w3.org/2000/svg" version="1.1" viewBox="0 0 500 500">
  <!-- Generator: Adobe Illustrator 29.1.0, SVG Export Plug-In . SVG Version: 2.1.0 Build 142)  -->
  <path d="M417.9,451c-9.1,0-16.9-3.4-23.5-9.8-6.5-6.5-9.8-14.3-9.8-23.5s3.4-17.3,9.8-23.6c6.5-6.5,14.3-9.6,23.5-9.6s17.3,3.2,23.6,9.6,9.6,14.2,9.6,23.6-3.2,16.9-9.6,23.5c-6.3,6.7-14.2,9.8-23.6,9.8M250.4,451c-9.1,0-16.9-3.4-23.5-9.8-6.5-6.5-9.8-14.3-9.8-23.5s3.4-17.3,9.8-23.6c6.5-6.3,14.3-9.6,23.5-9.6s16.9,3.2,23.5,9.6c6.5,6.5,9.8,14.2,9.8,23.6s-3.4,16.9-9.8,23.5c-6.6,6.7-14.3,9.8-23.5,9.8M83,451c-9.4,0-17.3-3.4-23.6-9.8-6.5-6.5-9.6-14.3-9.6-23.5s3.2-17.3,9.6-23.6c6.3-6.3,14.2-9.6,23.6-9.6s16.9,3.2,23.2,9.6c6.5,6.5,9.6,14.2,9.6,23.6s-3.2,16.9-9.6,23.5c-6.6,6.7-14.2,9.8-23.2,9.8M250.4,49c9.1,0,16.9,3.2,23.5,9.6,6.5,6.5,9.8,14.2,9.8,23.6s-3.4,16.9-9.8,23.5c-6.5,6.5-14.3,9.8-23.5,9.8s-16.9-3.4-23.5-9.8c-6.5-6.5-9.8-14.3-9.8-23.5s3.4-17.3,9.8-23.6c6.7-6.3,14.5-9.6,23.5-9.6M442.4,365.5v-55.7c0-23-8.2-42.7-24.6-59.2-16.4-16.4-36.3-24.6-59.7-24.6h-47.8c-10,0-18.4-3.5-25.6-10.5-7-7-10.5-15.5-10.5-25.6v-55.7c10-4.4,18.1-11.2,24.3-20.5,6.2-9.3,9.4-19.8,9.4-31.3s-5.6-29.5-16.9-40.6c-11.2-11.2-24.7-16.9-40.6-16.9s-29.5,5.6-40.6,16.9c-11.4,11.1-17,24.7-17,40.6s3.1,22.1,9.4,31.3c6.3,9.4,14.3,16.3,24.3,20.5v55.7c0,10-3.5,18.4-10.5,25.6-7,7-15.5,10.5-25.6,10.5h-47.8c-23.5,0-43.3,8.2-59.7,24.6-16.3,16.3-24.6,36.1-24.6,59.2v55.7c-9.6,4.6-17.6,11.7-23.9,20.8-6.2,9.1-9.4,19.7-9.4,31.6s5.6,29.4,16.9,40.5c11.2,11.1,24.7,16.6,40.6,16.6s29.4-5.6,40.5-16.9c11.1-11.2,16.6-24.6,16.6-40.2s-3.1-22.3-9.4-31.6c-6.2-9.1-14.2-16.2-23.9-20.8v-55.7c0-10,3.5-18.4,10.5-25.6,7-7,15.5-10.5,25.6-10.5h47.8c6.5,0,12.8-.7,18.7-2.1s11.7-3.5,17.4-6.3v100.2c-10,4.6-18.1,11.7-24.3,20.8s-9.4,19.7-9.4,31.6,5.6,29.4,16.9,40.5c11.2,11.1,24.7,16.6,40.6,16.6s29.5-5.6,40.6-16.9c11.2-11.2,16.9-24.6,16.9-40.2s-3.1-22.3-9.4-31.6c-6.2-9.1-14.3-16.2-24.3-20.8v-100.2c5.6,2.8,11.4,4.9,17.4,6.3,5.9,1.4,12.2,2.1,18.7,2.1h47.8c10,0,18.4,3.5,25.6,10.5,7,7,10.5,15.5,10.5,25.6v55.7c-9.6,4.6-17.6,11.7-23.9,20.8-6.2,9.1-9.4,19.7-9.4,31.6s5.5,29.4,16.6,40.5c11.1,11.1,24.6,16.6,40.5,16.6s29.5-5.6,40.6-16.9c11.1-11.1,16.9-24.6,16.9-40.2s-3.1-22.3-9.4-31.6c-5.6-9.3-13.6-16.2-23.2-20.8"/>
</svg>