<svg xmlns="http://www.w3.org/2000/svg" width="512" height="512" viewBox="0 0 512 512">
  <path d="M405.282,434.638c-8.12,0-14.991-2.998-20.862-8.745-5.746-5.746-8.745-12.742-8.745-20.862,0-8.37,2.998-15.365,8.745-20.987,5.746-5.746,12.742-8.495,20.862-8.495,8.37,0,15.365,2.873,20.987,8.495,5.746,5.746,8.495,12.617,8.495,20.987,0,8.12-2.873,14.991-8.495,20.862-5.621,5.996-12.617,8.745-20.987,8.745M256.375,434.638c-8.12,0-14.991-2.998-20.862-8.745-5.746-5.746-8.745-12.742-8.745-20.862,0-8.37,2.998-15.365,8.745-20.987s12.742-8.495,20.862-8.495,14.991,2.873,20.862,8.495c5.746,5.746,8.745,12.617,8.745,20.987,0,8.12-2.998,14.991-8.745,20.862-5.871,5.996-12.742,8.745-20.862,8.745M107.593,434.638c-8.37,0-15.365-2.998-20.987-8.745-5.746-5.746-8.495-12.742-8.495-20.862,0-8.37,2.873-15.365,8.495-20.987s12.617-8.495,20.987-8.495c8.12,0,14.991,2.873,20.612,8.495,5.746,5.746,8.495,12.617,8.495,20.987,0,8.12-2.873,14.991-8.495,20.862-5.871,5.996-12.617,8.745-20.612,8.745M256.375,77.362c8.12,0,14.991,2.873,20.862,8.495,5.746,5.746,8.745,12.617,8.745,20.987,0,8.12-2.998,14.991-8.745,20.862-5.746,5.746-12.742,8.745-20.862,8.745s-14.991-2.998-20.862-8.745c-5.746-5.746-8.745-12.742-8.745-20.862,0-8.37,2.998-15.365,8.745-20.987,5.996-5.621,12.867-8.495,20.862-8.495M427.018,358.686v-49.469c0-20.487-7.245-37.976-21.861-52.592s-32.23-21.861-53.092-21.861h-42.473c-8.869,0-16.365-3.123-22.736-9.369-6.246-6.246-9.369-13.741-9.369-22.736v-49.469c8.869-3.873,16.115-9.994,21.611-18.239s8.37-17.614,8.37-27.858c0-14.116-4.997-26.234-14.991-36.102-9.994-9.994-21.986-14.991-36.102-14.991s-26.234,4.997-36.102,14.991c-10.119,9.869-15.116,21.986-15.116,36.102,0,10.244,2.748,19.613,8.37,27.858,5.621,8.37,12.742,14.491,21.611,18.239v49.469c0,8.869-3.123,16.365-9.369,22.736-6.246,6.246-13.741,9.369-22.736,9.369h-42.473c-20.862,0-38.476,7.245-53.092,21.861-14.491,14.491-21.861,32.105-21.861,52.592v49.469c-8.495,4.122-15.615,10.369-21.237,18.488-5.497,8.12-8.37,17.489-8.37,28.107,0,14.116,4.997,26.109,14.991,35.978,9.994,9.869,21.986,14.741,36.102,14.741s26.109-4.997,35.978-14.991,14.741-21.861,14.741-35.728c0-10.493-2.748-19.863-8.37-28.107-5.497-8.12-12.617-14.366-21.237-18.488v-49.469c0-8.869,3.123-16.365,9.369-22.736,6.246-6.246,13.741-9.369,22.736-9.369h42.473c5.746,0,11.368-.625,16.615-1.874s10.369-3.123,15.49-5.621v89.069c-8.869,4.122-16.115,10.369-21.611,18.488-5.497,8.12-8.37,17.489-8.37,28.107,0,14.116,4.997,26.109,14.991,35.978s21.986,14.741,36.102,14.741,26.234-4.997,36.102-14.991c9.994-9.994,14.991-21.861,14.991-35.728,0-10.493-2.748-19.863-8.37-28.107-5.497-8.12-12.742-14.366-21.611-18.488v-89.069c4.997,2.498,10.119,4.372,15.49,5.621,5.247,1.249,10.868,1.874,16.615,1.874h42.473c8.869,0,16.365,3.123,22.736,9.369,6.246,6.246,9.369,13.741,9.369,22.736v49.469c-8.495,4.122-15.615,10.369-21.237,18.488-5.497,8.12-8.37,17.489-8.37,28.107,0,14.116,4.872,26.109,14.741,35.978,9.869,9.869,21.861,14.741,35.978,14.741s26.234-4.997,36.102-14.991c9.869-9.869,14.991-21.861,14.991-35.728,0-10.493-2.748-19.863-8.37-28.107-4.997-8.245-12.117-14.366-20.612-18.488"/>
</svg>