<svg xmlns="http://www.w3.org/2000/svg" width="512" height="512" viewBox="0 0 512 512">
  <path d="M404.706,164.824c-.706-3.059-2.118-5.176-3.647-7.059l-87.176-95.529c-2-2.235-4.235-3.176-6.824-4.588-3.059-1.529-6.353-1.647-9.765-1.647h-166.588c-12.941,0-24.706,10-24.706,23.882v349.176c0,14,11.765,26.941,24.706,26.941h253.177c12.941,0,22.118-13.059,22.118-26.941v-254.353c0-3.647-.471-6.471-1.294-9.882M307.059,104.588l60.471,66.118h-60.471v-66.118ZM139.294,422.824V89.412h134.353v85.059c0,15.412,14,29.529,29.294,29.529h69.647v218.706h-233.294v.118Z"/>
</svg>