<?xml version="1.0" encoding="UTF-8"?>
<svg id="Layer_1" xmlns="http://www.w3.org/2000/svg" version="1.1" viewBox="0 0 500 500">
  <!-- Generator: Adobe Illustrator 29.1.0, SVG Export Plug-In . SVG Version: 2.1.0 Build 142)  -->
  <path d="M417.3,147.4c-.8-3.4-2.4-5.8-4.1-7.9l-98.1-107.5c-2.3-2.5-4.8-3.6-7.7-5.2-3.4-1.7-7.1-1.9-11-1.9H109c-14.6,0-27.8,11.3-27.8,26.9v392.8c0,15.7,13.2,30.3,27.8,30.3h284.8c14.6,0,24.9-14.7,24.9-30.3V158.5c0-4.1-.5-7.3-1.5-11.1M307.4,79.7l68,74.4h-68v-74.4ZM118.7,437.7V62.6h151.1v95.7c0,17.3,15.7,33.2,33,33.2h78.4v246H118.7Z"/>
</svg>