<svg xmlns="http://www.w3.org/2000/svg" width="512" height="512" viewBox="0 0 512 512">
  <path d="M256,356c27.5,0,50,22.5,50,50s-22.5,50-50,50-50-22.5-50-50,22.5-50,50-50M256,206c27.5,0,50,22.5,50,50s-22.5,50-50,50-50-22.5-50-50,22.5-50,50-50M256,56c27.5,0,50,22.5,50,50s-22.5,50-50,50-50-22.5-50-50,22.5-50,50-50M106,356c27.5,0,50,22.5,50,50s-22.5,50-50,50-50-22.5-50-50,22.5-50,50-50M106,206c27.5,0,50,22.5,50,50s-22.5,50-50,50-50-22.5-50-50,22.5-50,50-50M106,56c27.5,0,50,22.5,50,50s-22.5,50-50,50-50-22.5-50-50,22.5-50,50-50M406,356c27.5,0,50,22.5,50,50s-22.5,50-50,50-50-22.5-50-50,22.5-50,50-50M406,206c27.5,0,50,22.5,50,50s-22.5,50-50,50-50-22.5-50-50,22.5-50,50-50M406,56c27.5,0,50,22.5,50,50s-22.5,50-50,50-50-22.5-50-50,22.5-50,50-50"/>
</svg>