<svg xmlns="http://www.w3.org/2000/svg" width="512" height="512" data-name="Layer 1" viewBox="0 0 512 512">
    <path d="M256 336c22 0 40 18 40 40s-18 40-40 40-40-18-40-40 18-40 40-40m0-120c22 0 40 18 40 40s-18 40-40 40-40-18-40-40 18-40 40-40m0-120c22 0 40 18 40 40s-18 40-40 40-40-18-40-40 18-40 40-40M136 336c22 0 40 18 40 40s-18 40-40 40-40-18-40-40 18-40 40-40m0-120c22 0 40 18 40 40s-18 40-40 40-40-18-40-40 18-40 40-40m0-120c22 0 40 18 40 40s-18 40-40 40-40-18-40-40 18-40 40-40m240 240c22 0 40 18 40 40s-18 40-40 40-40-18-40-40 18-40 40-40m0-120c22 0 40 18 40 40s-18 40-40 40-40-18-40-40 18-40 40-40m0-120c22 0 40 18 40 40s-18 40-40 40-40-18-40-40 18-40 40-40" class="cls-1"/>
</svg>
