<?xml version="1.0" encoding="UTF-8"?>
<svg id="Layer_1" data-name="Layer 1" xmlns="http://www.w3.org/2000/svg" version="1.1" viewBox="0 0 512 512">
  <path class="cls-1" d="M256,336c22,0,40,18,40,40s-18,40-40,40-40-18-40-40,18-40,40-40h0ZM256,216c22,0,40,18,40,40s-18,40-40,40-40-18-40-40,18-40,40-40h0ZM256,96c22,0,40,18,40,40s-18,40-40,40-40-18-40-40,18-40,40-40h0ZM136,336c22,0,40,18,40,40s-18,40-40,40-40-18-40-40,18-40,40-40ZM136,216c22,0,40,18,40,40s-18,40-40,40-40-18-40-40,18-40,40-40h0ZM136,96c22,0,40,18,40,40s-18,40-40,40-40-18-40-40,18-40,40-40ZM376,336c22,0,40,18,40,40s-18,40-40,40-40-18-40-40,18-40,40-40ZM376,216c22,0,40,18,40,40s-18,40-40,40-40-18-40-40,18-40,40-40h0ZM376,96c22,0,40,18,40,40s-18,40-40,40-40-18-40-40,18-40,40-40Z"/>
</svg>