<svg xmlns="http://www.w3.org/2000/svg" width="512" height="512" data-name="Layer 1" viewBox="0 0 512 512">
    <path d="M256 373.5c32.3 0 58.8 26.4 58.8 58.8s-26.4 58.8-58.8 58.8-58.8-26.4-58.8-58.8 26.4-58.8 58.8-58.8m0-176.3c32.3 0 58.8 26.4 58.8 58.8s-26.4 58.8-58.8 58.8-58.8-26.4-58.8-58.8 26.4-58.8 58.8-58.8M256 21c32.3 0 58.8 26.4 58.8 58.8s-26.4 58.8-58.8 58.8-58.8-26.4-58.8-58.8S223.6 21 256 21M79.8 373.5c32.3 0 58.8 26.4 58.8 58.8s-26.4 58.8-58.8 58.8S21 464.7 21 432.3s26.4-58.8 58.8-58.8m0-176.3c32.3 0 58.8 26.4 58.8 58.8s-26.4 58.8-58.8 58.8S21 288.4 21 256s26.4-58.8 58.8-58.8m0-176.2c32.3 0 58.8 26.4 58.8 58.8s-26.4 58.8-58.8 58.8S21 112.2 21 79.8 47.4 21 79.8 21m352.4 352.5c32.3 0 58.8 26.4 58.8 58.8s-26.4 58.8-58.8 58.8-58.8-26.4-58.8-58.8 26.4-58.8 58.8-58.8m0-176.3c32.3 0 58.8 26.4 58.8 58.8s-26.4 58.8-58.8 58.8-58.8-26.4-58.8-58.8 26.4-58.8 58.8-58.8m0-176.2c32.3 0 58.8 26.4 58.8 58.8s-26.4 58.8-58.8 58.8-58.8-26.4-58.8-58.8S399.8 21 432.2 21"/>
</svg>
