<?xml version="1.0" encoding="UTF-8"?>
<svg id="Layer_1" xmlns="http://www.w3.org/2000/svg" version="1.1" viewBox="0 0 500 500">
  <!-- Generator: Adobe Illustrator 29.1.0, SVG Export Plug-In . SVG Version: 2.1.0 Build 142)  -->
  <path d="M250,362.5c30.9,0,56.2,25.3,56.2,56.2s-25.3,56.2-56.2,56.2-56.2-25.3-56.2-56.2,25.3-56.2,56.2-56.2M250,193.8c30.9,0,56.2,25.3,56.2,56.2s-25.3,56.2-56.2,56.2-56.2-25.3-56.2-56.2,25.3-56.2,56.2-56.2M250,25c30.9,0,56.2,25.3,56.2,56.2s-25.3,56.2-56.2,56.2-56.2-25.3-56.2-56.2,25.3-56.2,56.2-56.2M81.2,362.5c30.9,0,56.2,25.3,56.2,56.2s-25.3,56.2-56.2,56.2-56.2-25.3-56.2-56.2,25.3-56.2,56.2-56.2M81.2,193.8c30.9,0,56.2,25.3,56.2,56.2s-25.3,56.2-56.2,56.2-56.2-25.3-56.2-56.2,25.3-56.2,56.2-56.2M81.2,25c30.9,0,56.2,25.3,56.2,56.2s-25.3,56.2-56.2,56.2-56.2-25.3-56.2-56.2,25.3-56.2,56.2-56.2M418.8,362.5c30.9,0,56.2,25.3,56.2,56.2s-25.3,56.2-56.2,56.2-56.2-25.3-56.2-56.2,25.3-56.2,56.2-56.2M418.8,193.8c30.9,0,56.2,25.3,56.2,56.2s-25.3,56.2-56.2,56.2-56.2-25.3-56.2-56.2,25.3-56.2,56.2-56.2M418.8,25c30.9,0,56.2,25.3,56.2,56.2s-25.3,56.2-56.2,56.2-56.2-25.3-56.2-56.2,25.3-56.2,56.2-56.2"/>
</svg>