<svg xmlns="http://www.w3.org/2000/svg" width="500" height="500" viewBox="0 0 500 500">
    <path d="M334.37 362.5c30.94 0 56.25 25.31 56.25 56.25S365.31 475 334.37 475s-56.25-25.31-56.25-56.25 25.31-56.25 56.25-56.25m0-168.75c30.94 0 56.25 25.31 56.25 56.25s-25.31 56.25-56.25 56.25-56.25-25.31-56.25-56.25 25.31-56.25 56.25-56.25m0-168.75c30.94 0 56.25 25.31 56.25 56.25s-25.31 56.25-56.25 56.25-56.25-25.31-56.25-56.25S303.43 25 334.37 25M165.63 362.5c30.94 0 56.25 25.31 56.25 56.25S196.57 475 165.63 475s-56.25-25.31-56.25-56.25 25.31-56.25 56.25-56.25m0-168.75c30.94 0 56.25 25.31 56.25 56.25s-25.31 56.25-56.25 56.25-56.25-25.31-56.25-56.25 25.31-56.25 56.25-56.25m0-168.75c30.94 0 56.25 25.31 56.25 56.25s-25.31 56.25-56.25 56.25-56.25-25.31-56.25-56.25S134.69 25 165.63 25"/>
</svg>
