<?xml version="1.0" encoding="UTF-8"?>
<svg width="512px" height="512px" viewBox="0 0 512 512" version="1.1" xmlns="http://www.w3.org/2000/svg" xmlns:xlink="http://www.w3.org/1999/xlink">
    <!-- Generator: Sketch 62 (91390) - https://sketch.com -->
    <title>drag</title>
    <desc>Created with Sketch.</desc>
    <g id="drag" stroke="none" stroke-width="1" fill="none" fill-rule="evenodd">
        <path d="M96,179 L416,179 L416,199 L96,199 L96,179 L96,179 Z M96,239 L416,239 L416,259 L96,259 L96,239 Z M96,299 L416,299 L416,319 L96,319 L96,299 Z M221.4,366.2 L221.8,366.7 L252.2,401.8 C253.2,403 254.8,403.7 256.5,403.7 C258.2,403.7 259.7,402.9 260.8,401.8 L291.2,366.8 L291.7,366.2 C292.1,365.6 292.3,365 292.3,364.3 C292.3,362.4 290.6,360.7 288.6,360.7 L224.4,360.7 C222.3,360.7 220.7,362.3 220.7,364.3 C220.8,364.9 221.1,365.6 221.4,366.2 L221.4,366.2 Z M291.8,132.8 L291.4,132.3 L261,97.2 C260,96 258.4,95.3 256.7,95.3 C255,95.3 253.5,96.1 252.4,97.2 L222,132.2 L221.5,132.8 C221.1,133.4 220.9,134 220.9,134.7 C220.9,136.6 222.6,138.3 224.6,138.3 L288.8,138.3 C290.9,138.3 292.5,136.7 292.5,134.7 C292.4,134.1 292.2,133.4 291.8,132.8 L291.8,132.8 Z" id="Shape" fill="#000000" fill-rule="nonzero"></path>
    </g>
</svg>