<svg xmlns="http://www.w3.org/2000/svg" width="512" height="512" viewBox="0 0 512 512">
    <path fill-rule="nonzero" d="M96 179h320v20H96v-20zm0 60h320v20H96v-20zm0 60h320v20H96v-20zm125.4 67.2l.4.5 30.4 35.1c1 1.2 2.6 1.9 4.3 1.9 1.7 0 3.2-.8 4.3-1.9l30.4-35 .5-.6c.4-.6.6-1.2.6-1.9 0-1.9-1.7-3.6-3.7-3.6h-64.2c-2.1 0-3.7 1.6-3.7 3.6.1.6.4 1.3.7 1.9zm70.4-233.4l-.4-.5L261 97.2c-1-1.2-2.6-1.9-4.3-1.9-1.7 0-3.2.8-4.3 1.9l-30.4 35-.5.6c-.4.6-.6 1.2-.6 1.9 0 1.9 1.7 3.6 3.7 3.6h64.2c2.1 0 3.7-1.6 3.7-3.6-.1-.6-.3-1.3-.7-1.9z"/>
</svg>
