<svg xmlns="http://www.w3.org/2000/svg" width="512" height="512" viewBox="0 0 512 512">
  <path d="M330.996,356c27.502,0,50,22.498,50,50s-22.498,50-50,50-50-22.498-50-50,22.498-50,50-50M330.996,206c27.502,0,50,22.498,50,50s-22.498,50-50,50-50-22.498-50-50,22.498-50,50-50M330.996,56c27.502,0,50,22.498,50,50s-22.498,50-50,50-50-22.498-50-50,22.498-50,50-50M181.004,356c27.502,0,50,22.498,50,50s-22.498,50-50,50-50-22.498-50-50,22.498-50,50-50M181.004,206c27.502,0,50,22.498,50,50s-22.498,50-50,50-50-22.498-50-50,22.498-50,50-50M181.004,56c27.502,0,50,22.498,50,50s-22.498,50-50,50-50-22.498-50-50,22.498-50,50-50"/>
</svg>