<svg xmlns="http://www.w3.org/2000/svg" width="512" height="512" viewBox="0 0 512 512">
  <path d="M246.936,346.894h-127.319c-9.617,0-18.894-3.83-25.702-10.638-6.809-6.809-10.638-16.085-10.638-25.702V92.34c0-9.617,3.83-18.894,10.638-25.702,6.809-6.809,16.085-10.638,25.702-10.638h218.213v36.34H119.617v218.213h127.234v-36.34l72.766,54.553-72.766,54.553v-36.34l.085-.085ZM392.383,419.66v-254.553h-200v109.106h-36.34v-109.106c0-9.617,3.83-18.894,10.638-25.702s16.085-10.638,25.702-10.638h200c9.617,0,18.894,3.83,25.702,10.638s10.638,16.085,10.638,25.702v254.553c0,9.617-3.83,18.894-10.638,25.702s-16.085,10.638-25.702,10.638h-200c-9.617,0-18.894-3.83-25.702-10.638s-10.638-16.085-10.638-25.702v-36.34h36.34v36.34h200Z"/>
</svg>