<svg xmlns="http://www.w3.org/2000/svg" width="512" height="512" data-name="Layer 1" viewBox="0 0 512 512">
    <path d="M245 362.8H95.4c-11.3 0-22.2-4.5-30.2-12.5s-12.5-18.9-12.5-30.2V63.7c0-11.3 4.5-22.2 12.5-30.2S84.1 21 95.4 21h256.4v42.7H95.4v256.4h149.5v-42.7l85.5 64.1-85.5 64.1v-42.7Zm170.9 85.5V149.2h-235v128.2h-42.7V149.2c0-11.3 4.5-22.2 12.5-30.2s18.9-12.5 30.2-12.5h235c11.3 0 22.2 4.5 30.2 12.5s12.5 18.9 12.5 30.2v299.1c0 11.3-4.5 22.2-12.5 30.2S427.2 491 415.9 491h-235c-11.3 0-22.2-4.5-30.2-12.5s-12.5-18.9-12.5-30.2v-42.7h42.7v42.7z" class="cls-1"/>
</svg>
