<?xml version="1.0" encoding="UTF-8"?>
<svg id="Layer_1" xmlns="http://www.w3.org/2000/svg" version="1.1" viewBox="0 0 500 500">
  <!-- Generator: Adobe Illustrator 29.1.0, SVG Export Plug-In . SVG Version: 2.1.0 Build 142)  -->
  <path d="M239.8,352.3H96.6c-10.8,0-21.3-4.3-28.9-12-7.7-7.7-12-18.1-12-28.9V65.9c0-10.8,4.3-21.3,12-28.9s18.1-12,28.9-12h245.5v40.9H96.6v245.5h143.1v-40.9l81.9,61.4-81.9,61.4v-40.9h0ZM403.4,434.1V147.7h-225v122.7h-40.9v-122.7c0-10.8,4.3-21.3,12-28.9s18.1-12,28.9-12h225c10.8,0,21.3,4.3,28.9,12,7.7,7.7,12,18.1,12,28.9v286.4c0,10.8-4.3,21.3-12,28.9s-18.1,12-28.9,12h-225c-10.8,0-21.3-4.3-28.9-12-7.7-7.7-12-18.1-12-28.9v-40.9h40.9v40.9h225Z"/>
</svg>