<?xml version="1.0" encoding="UTF-8"?>
<svg id="Layer_1" xmlns="http://www.w3.org/2000/svg" version="1.1" viewBox="0 0 500 500">
  <!-- Generator: Adobe Illustrator 29.1.0, SVG Export Plug-In . SVG Version: 2.1.0 Build 142)  -->
  <path d="M258.8,248.3c-2.3-3.9-9.6-12-14.1-13.4-6-1-2.4,4.5-2.4,6.8-1.5,1.1-3.9,2.5-5.1,4.1-.7.6,1.7,6.2,6.3,4.4s2,1.8,5.2,8.9,9.7,7.2,12.5,5.1c3.7-2.8-.6-12.1-2.5-15.7"/>
  <path d="M250,25C125.7,25,25,125.7,25,250s100.7,225,225,225,225-100.7,225-225S374.3,25,250,25M167,424.2c-5.5-3.1-9.4-7.6-11-16-3.9-21-.3-32.2,18-44.4,8.6-5.8,10.1-12.8,17-19.7,1.7-2.1,6.2-10.4,9.3-10.8,3.7-.8,13.8-2.5,15.7-6.5,3.8-5.2,12.2-27.6,15.9-29.7,6-3.9,14.5-16,8.3-23.2-7-8.7-16.9-8.9-26-13.4-8-4.1-11.7-22.4-17.7-28.7-12-12.2-30.1-19.3-45.1-26.9-8.2-3.2-7.3-4.2-13.8,2.1-8.2,8.2-20.2-2.1-21.4-10.5-.1-2.8-3.4-18.3-1.4-19.5,18-11.2-8.3-8.7-10.5-13.9-5.3-15,13.1-27,25.5-28.3,13.9-1.7,16.9,21.9,22.2,20,2.5-1.3,2.5-12.5,3-14.9,1.3-8,3.7-9.3,11.4-12.2,9.1-3.4,16.2-7.6,25.9-9.3,11.1-3.2,20.4-1.5,29-8.6,3.9-3,6.8,1.5,10.4,2.4,8,1.5,9.7-11.1,9.7-16s1.3-8.7-4.8-13.6c-7.9-6-19.1-.8-25.5,5.5-7.6,7-16.5,6.6-13.9-5.6.7-4.5,10.3-9.6,14.1-12.1,3.7-2.2,5.9,2.5,10.4,1.4,6.6-1.4,9.1,4.8,16.9,4.8,3.2-.7,14.9-6.9,8.7-19.4h2.8c1.8,0,3.7,0,5.6.1,2.8,8.9-6,16.5-1.5,27.7,8.9,21.5,16,3.1,24.8-7,2.8-2.8,4.6-2.2,9.3-3.1,3-.4,7-9.3,8.4-12.1,20.1,4.9,39.4,13.2,56.8,24.3-7.5.8-9.4-1.4-9.3,7.5,0,3.4.3,13.4,5.3,14.2,8.3,1,6.7,6.9,14.6,7.9,7.5,1,2.8,7.6,5.9,14.1,3.4,10.3-19.8,13.4-24.5,14.9-13.6,4.6,6.3,24.5,15.3,22.4,2.8-.7,12.2-2,12.9-5.1,0-.3-1.8-11.1-.8-12.2,1.5-2,5.2-3,10.8.3,13.5,7.6,20.2,25.9,36,29.4,2.1.4,5.9-.1,8.6,2.1,2.3,3.1,8,8.4,1.1,8.4-9-2-13.8.8-21.2-4.9-7.7-6-12.7-11-22.8-11.1-8.9-.1-16.7-3.8-25.9-2.4-5.1.8-10.1,2.8-15,4.4-4.6,1.5-5.5,9.8-10.3,10.7-19.5,4.6-15.3,23.2-18.8,38.1-1.4,5.6-6,21.1-1,26.2,9.1,8.9,19.8,21.1,33.3,23.1,7.2,1,23.1-4.6,28,2.8,2.1,4.1,7.5-3.1,9,.6,3.7,11-4.2,18.3-4.4,28.7-.1,15.3,9.3,20.7-3.2,34.3-13.6,13.6-4.4,30.9-12,47.3-4.1,8.4-4.8,20-11,23.9-13.4,8.6-27.8,15.5-42.9,20.5-26.7,8.9-55.4,11.7-83.4,8.4-14.8-1.7-29.1-5.1-43-10.1-3.8-1.4-7.3-2.5-10.5-3.7-2.5-1.1-4.9-2.1-7.3-3.2M125.1,397c-.4-.4-1-.8-1.4-1.3-3.5-3-6.9-6.2-10.1-9.4-3.4-3.4-6.6-6.9-9.8-10.5h-.1c-.7-.8-1.3-1.7-1.8-2.4-51.9-62.7-59.5-154.5-16-224.9,6,6-4.1,18.1,7.6,26.2,5.2,3.7,10.1,2.1,9,8.9-1,6.5,5.3,6.3,6.3,12.1,2.8,12.5,19.3,18.7,10,32.8-9.1,12.7-17,26.9-10.1,43,2.3,5.9,8,12,12.2,16.3,7.9,8,7.5,3.2,7.5,13.4-.1,4.4,5.3,9,4.8,11.8-1,8-3,16-3.9,24-1.8,28.8-.1,57,21.4,78.5-8-4.8-15.7-10.3-23.1-16.3-.7-.8-1.5-1.4-2.3-2.1"/>
</svg>