<svg xmlns="http://www.w3.org/2000/svg" width="512" height="512" viewBox="0 0 512 512">
  <path d="M236.1,106.8c-1.6-2.8-6.8-8.5-10-9.5-4.3-.7-1.7,3.2-1.7,4.8-1.1.8-2.8,1.8-3.6,2.9-.5.4,1.2,4.4,4.5,3.1s1.4,1.3,3.7,6.3,6.9,5.1,8.9,3.6c2.6-2-.4-8.6-1.8-11.2"/>
  <path d="M256,56c-110.5,0-200,89.5-200,200s89.5,200,200,200,200-89.5,200-200S366.5,56,256,56M182.25,410.875c-4.875-2.75-8.375-6.75-9.75-14.25-3.5-18.625-.25-28.625,16-39.5,7.625-5.125,9-11.375,15.125-17.5,1.5-1.875,5.5-9.25,8.25-9.625,3.25-.75,12.25-2.25,14-5.75,3.375-4.625,10.875-24.5,14.125-26.375,5.375-3.5,12.875-14.25,7.375-20.625-6.25-7.75-15-7.875-23.125-11.875-7.125-3.625-10.375-19.875-15.75-25.5-10.625-10.875-26.75-17.125-40.125-23.875-7.25-2.875-6.5-3.75-12.25,1.875-7.25,7.25-18-1.875-19-9.375-.125-2.5-3-16.25-1.25-17.375,16-10-7.375-7.75-9.375-12.375-4.75-13.375,11.625-24,22.625-25.125,12.375-1.5,15,19.5,19.75,17.75,2.25-1.125,2.25-11.125,2.625-13.25,1.125-7.125,3.25-8.25,10.125-10.875,8.125-3,14.375-6.75,23-8.25,9.875-2.875,18.125-1.375,25.75-7.625,3.5-2.625,6,1.375,9.25,2.125,7.125,1.375,8.625-9.875,8.625-14.25,0-4.125,1.125-7.75-4.25-12.125-7-5.375-17-.75-22.625,4.875-6.75,6.25-14.625,5.875-12.375-5,.625-4,9.125-8.5,12.5-10.75,3.25-2,5.25,2.25,9.25,1.25,5.875-1.25,8.125,4.25,15,4.25,2.875-.625,13.25-6.125,7.75-17.25h2.5c1.625,0,3.25,0,5,.125,2.5,7.875-5.375,14.625-1.375,24.625,7.875,19.125,14.25,2.75,22-6.25,2.5-2.5,4.125-2,8.25-2.75,2.625-.375,6.25-8.25,7.5-10.75,17.875,4.375,35,11.75,50.5,21.625-6.625.75-8.375-1.25-8.25,6.625,0,3,.25,11.875,4.75,12.625,7.375.875,6,6.125,13,7,6.625.875,2.5,6.75,5.25,12.5,3,9.125-17.625,11.875-21.75,13.25-12.125,4.125,5.625,21.75,13.625,19.875,2.5-.625,10.875-1.75,11.5-4.5,0-.25-1.625-9.875-.75-10.875,1.375-1.75,4.625-2.625,9.625.25,12,6.75,18,23,32,26.125,1.875.375,5.25-.125,7.625,1.875,2,2.75,7.125,7.5,1,7.5-8-1.75-12.25.75-18.875-4.375-6.875-5.375-11.25-9.75-20.25-9.875-7.875-.125-14.875-3.375-23-2.125-4.5.75-9,2.5-13.375,3.875-4.125,1.375-4.875,8.75-9.125,9.5-17.375,4.125-13.625,20.625-16.75,33.875-1.25,5-5.375,18.75-.875,23.25,8.125,7.875,17.625,18.75,29.625,20.5,6.375.875,20.5-4.125,24.875,2.5,1.875,3.625,6.625-2.75,8,.5,3.25,9.75-3.75,16.25-3.875,25.5-.125,13.625,8.25,18.375-2.875,30.5-12.125,12.125-3.875,27.5-10.625,42-3.625,7.5-4.25,17.75-9.75,21.25-11.875,7.625-24.75,13.75-38.125,18.25-23.75,7.875-49.25,10.375-74.125,7.5-13.125-1.5-25.875-4.5-38.25-9-3.375-1.25-6.5-2.25-9.375-3.25-2.25-1-4.375-1.875-6.5-2.875M145,386.625c-.375-.375-.875-.75-1.25-1.125-3.125-2.625-6.125-5.5-9-8.375-3-3-5.875-6.125-8.75-9.375l-.125-.125c-.625-.625-1.125-1.375-1.625-2-46.125-55.75-52.875-137.375-14.25-199.875,5.375,5.375-3.625,16.125,6.75,23.25,4.625,3.25,9,1.875,8,7.875-.875,5.75,4.75,5.625,5.625,10.75,2.5,11.125,17.125,16.625,8.875,29.125-8.125,11.25-15.125,23.875-9,38.25,2,5.25,7.125,10.625,10.875,14.5,7,7.125,6.625,2.875,6.625,11.875-.125,3.875,4.75,8,4.25,10.5-.875,7.125-2.625,14.25-3.5,21.375-1.625,25.625-.125,50.625,19,69.75-7.125-4.25-14-9.125-20.5-14.5-.625-.75-1.375-1.25-2-1.875"/>
</svg>