<?xml version="1.0" encoding="UTF-8"?>
<svg id="Layer_1" xmlns="http://www.w3.org/2000/svg" version="1.1" viewBox="0 0 500 500">
  <!-- Generator: Adobe Illustrator 29.1.0, SVG Export Plug-In . SVG Version: 2.1.0 Build 142)  -->
  <path d="M133.7,394.7l-28.3,80.3h-32.2l29-80.3h31.5ZM397.9,394.7l29,80.3h-32.2l-28.3-80.3h31.5ZM266.2,394.7v48.2h-32.2v-48.2h32.2ZM459,89.3c8.9,0,16,7.2,16,16v257.2c0,8.9-7.2,16-16,16H40.9c-8.9,0-15.9-7.2-15.9-16V105.3c0-8.9,7.2-16,16-16h417.9ZM442.9,121.5H57.2v225h385.7V121.5ZM410.3,148.8v168.7H89.7v-168.8h320.6ZM264.9,25l17.3,48.2h-64.3l17.4-48.2h29.5Z"/>
</svg>