<svg xmlns="http://www.w3.org/2000/svg" width="512" height="512" viewBox="0 0 512 512">
  <path d="M152.625,384.625l-25.125,71.375h-28.625l25.75-71.375h28ZM387.5,384.625l25.75,71.375h-28.625l-25.125-71.375h28ZM270.375,384.625v42.875h-28.625v-42.875h28.625ZM441.75,113.125c7.875,0,14.25,6.375,14.25,14.25v228.625c0,7.875-6.375,14.25-14.25,14.25H70.125c-7.875,0-14.125-6.375-14.125-14.25V127.375c0-7.875,6.375-14.25,14.25-14.25h371.5ZM427.5,141.75H84.625v200h342.875v-200ZM398.5,166.063v150H113.5v-150h285ZM269.25,56l15.375,42.875h-57.125l15.5-42.875h26.25Z"/>
</svg>