<?xml version="1.0" encoding="UTF-8"?>
<svg width="512px" height="512px" viewBox="0 0 512 512" version="1.1" xmlns="http://www.w3.org/2000/svg" xmlns:xlink="http://www.w3.org/1999/xlink">
    <!-- Generator: Sketch 62 (91390) - https://sketch.com -->
    <title>easel</title>
    <desc>Created with Sketch.</desc>
    <g id="easel" stroke="none" stroke-width="1" fill="none" fill-rule="evenodd">
        <path d="M173.3,352.4 L153.2,409.5 L130.3,409.5 L150.9,352.4 L173.3,352.4 Z M361.2,352.4 L381.8,409.5 L358.9,409.5 L338.8,352.4 L361.2,352.4 Z M267.5,352.4 L267.5,386.7 L244.6,386.7 L244.6,352.4 L267.5,352.4 Z M404.6,135.2 C410.9,135.2 416,140.3 416,146.6 L416,146.6 L416,329.5 C416,335.8 410.9,340.9 404.6,340.9 L404.6,340.9 L107.3,340.9 C101,340.9 96,335.8 96,329.5 L96,329.5 L96,146.6 C96,140.3 101.1,135.2 107.4,135.2 L107.4,135.2 Z M393.2,158.1 L118.9,158.1 L118.9,318.1 L393.2,318.1 L393.2,158.1 Z M370,177.55 L370,297.55 L142,297.55 L142,177.55 L370,177.55 Z M266.6,89.5 L278.9,123.8 L233.2,123.8 L245.6,89.5 L266.6,89.5 Z" id="Combined-Shape" fill="#000000" fill-rule="nonzero"></path>
    </g>
</svg>