<?xml version="1.0" encoding="UTF-8"?>
<svg id="Layer_1" xmlns="http://www.w3.org/2000/svg" version="1.1" viewBox="0 0 500 500">
  <!-- Generator: Adobe Illustrator 29.1.0, SVG Export Plug-In . SVG Version: 2.1.0 Build 142)  -->
  <path d="M83.2,306.2c-32.2,0-58.2-25-58.2-56.2s26.1-56.2,58.2-56.2,58.4,25.1,58.4,56.2-26.1,56.2-58.4,56.2M250,306.2c-32.2,0-58.4-25-58.4-56.2s26.2-56.2,58.4-56.2,58.2,25.1,58.2,56.2-26.1,56.2-58.2,56.2M416.6,306.2c-32.2,0-58.4-25-58.4-56.2s26.1-56.2,58.4-56.2,58.4,25.1,58.4,56.2-26.1,56.2-58.4,56.2"/>
</svg>