<svg xmlns="http://www.w3.org/2000/svg" width="512" height="512" viewBox="0 0 512 512">
  <path d="M448.128,157.875c8.588-4.471,8,.588,7.765,4.706v197.182c0,8.824-11.177,20.118-20.589,20.118H78.589c-9.412,0-22.589-11.177-22.589-20.118v-197.338c.016-3.973.7-8.846,9.177-4.55,7.883,4.118,79.414,54.472,126.239,84.708l-78.943,88.943c-1.882,1.882-2.824,4.471-1.647,5.412,1.177,1.059,3.765.471,5.647-1.412l94.708-80.002c14.236,9.177,24.236,15.53,26.118,16.471,7.53,3.765,12.589,4.235,19.765,4.235s12.353-.471,19.765-4.235c1.765-.824,11.765-7.177,26.118-16.471l94.708,80.002c2,1.882,4.471,2.353,5.647,1.412.941-1.177.118-3.53-1.765-5.412l-78.943-88.943c46.942-30.354,117.65-80.708,125.533-84.708M440.01,132.12c10.589,0,13.294,2.824,10.824,10.118-1.412,4.118-8,7.765-12,9.765-10.589,5.53-157.416,85.649-162.945,88.473s-10.941,4.235-19.765,4.235-14.236-1.412-19.765-4.235c-5.412-2.824-152.357-82.826-162.945-88.473-3.882-2-10.589-5.412-12-9.765-2.588-7.294.235-10.118,10.824-10.118h367.774Z"/>
</svg>