<?xml version="1.0" encoding="UTF-8"?>
<svg id="Layer_1" xmlns="http://www.w3.org/2000/svg" version="1.1" viewBox="0 0 500 500">
  <!-- Generator: Adobe Illustrator 29.1.0, SVG Export Plug-In . SVG Version: 2.1.0 Build 142)  -->
  <path d="M466.1,139.6c9.7-5,9,.7,8.7,5.3v221.8c0,9.9-12.6,22.6-23.2,22.6H50.4c-10.6,0-25.4-12.6-25.4-22.6v-222c0-4.5.8-10,10.3-5.1,8.9,4.6,89.3,61.3,142,95.3l-88.8,100.1c-2.1,2.1-3.2,5-1.9,6.1,1.3,1.2,4.2.5,6.4-1.6l106.5-90c16,10.3,27.3,17.5,29.4,18.5,8.5,4.2,14.2,4.8,22.2,4.8s13.9-.5,22.2-4.8c2-.9,13.2-8.1,29.4-18.5l106.5,90c2.3,2.1,5,2.6,6.4,1.6,1.1-1.3.1-4-2-6.1l-88.8-100.1c52.8-34.1,132.4-90.8,141.2-95.3M457,110.6c11.9,0,15,3.2,12.2,11.4-1.6,4.6-9,8.7-13.5,11-11.9,6.2-177.1,96.4-183.3,99.5s-12.3,4.8-22.2,4.8-16-1.6-22.2-4.8c-6.1-3.2-171.4-93.2-183.3-99.5-4.4-2.3-11.9-6.1-13.5-11-2.9-8.2.3-11.4,12.2-11.4h413.7Z"/>
</svg>