<svg xmlns="http://www.w3.org/2000/svg" width="512" height="512" viewBox="0 0 512 512">
    <path d="M419.2 155.891c7.3-3.8 6.8.5 6.6 4v167.6c0 7.5-9.5 17.1-17.5 17.1H105.1c-8 0-19.2-9.5-19.2-17.1V159.758c.014-3.377.595-7.519 7.8-3.867 6.7 3.5 67.5 46.3 107.3 72l-67.1 75.6c-1.6 1.6-2.4 3.8-1.4 4.6 1 .9 3.2.4 4.8-1.2l80.5-68c12.1 7.8 20.6 13.2 22.2 14 6.4 3.2 10.7 3.6 16.8 3.6 6.1 0 10.5-.4 16.8-3.6 1.5-.7 10-6.1 22.2-14l80.5 68c1.7 1.6 3.8 2 4.8 1.2.8-1 .1-3-1.5-4.6l-67.1-75.6c39.9-25.8 100-68.6 106.7-72zM412.3 134c9 0 11.3 2.4 9.2 8.6-1.2 3.5-6.8 6.6-10.2 8.3-9 4.7-133.8 72.8-138.5 75.2-4.7 2.4-9.3 3.6-16.8 3.6s-12.1-1.2-16.8-3.6c-4.6-2.4-129.5-70.4-138.5-75.2-3.3-1.7-9-4.6-10.2-8.3-2.2-6.2.2-8.6 9.2-8.6z"/>
</svg>
