<svg xmlns="http://www.w3.org/2000/svg" width="512" height="512" viewBox="0 0 512 512">
  <path d="M411.625,56.063H100.5c-24.625,0-44.375,19.75-44.375,44.375v88.875h44.375v-88.875h311.125v311.125H100.5v-88.875h-44.375v88.875c0,11.75,4.625,23.125,13,31.375s19.625,13,31.375,13h311.125c11.75,0,23.125-4.625,31.375-13s13-19.625,13-31.375V100.438c0-24.625-20-44.375-44.375-44.375M213.375,335.688l31.625,31.625,111.125-111.125-111.25-111.125-31.625,31.375,57.5,57.5H56v44.375h214.875l-57.5,57.375Z"/>
</svg>