<?xml version="1.0" encoding="UTF-8"?>
<svg id="Layer_1" xmlns="http://www.w3.org/2000/svg" version="1.1" viewBox="0 0 500 500">
  <!-- Generator: Adobe Illustrator 29.1.0, SVG Export Plug-In . SVG Version: 2.1.0 Build 142)  -->
  <path d="M425.1,25.1H75.1c-27.7,0-49.9,22.2-49.9,49.9v100h49.9v-100h350v350H75.1v-100H25.1v100c0,13.2,5.2,26,14.6,35.3s22.1,14.6,35.3,14.6h350c13.2,0,26-5.2,35.3-14.6s14.6-22.1,14.6-35.3V75c0-27.7-22.5-49.9-49.9-49.9M202,339.6l35.6,35.6,125-125-125.2-125-35.6,35.3,64.7,64.7H25v49.9h241.7l-64.7,64.5Z"/>
</svg>