<svg xmlns="http://www.w3.org/2000/svg" width="512" height="512" viewBox="0 0 512 512">
    <path d="M367.892 5.82C365.132 2.952 360.168 2 356.244 2h-85.14C263.416 2 256 7.5 256 15.188v10.956C256 34.092 263.148 42 271.104 42h32.208L185.908 159.148 69.012 42h32.6C109.3 42 116 34.344 116 26.652V15.704C116 7.744 109.564 2 101.612 2h-86.74C11.048 2 7.436 3.14 4.7 5.872l-.384.12C1.584 8.728 0 12.156 0 15.98v84.96c0 3.84 1.584 6.78 4.316 9.512C7.048 113.184 10.752 114 14.592 114H25.54c7.696 0 10.46-5.372 10.46-13.06V68.344l119.256 117.78L40 302.852v-32.6c0-3.844-.992-8.376-3.72-11.1-2.732-2.736-5.836-5.152-9.68-5.152H15.648C7.96 254 0 262.572 0 270.248v86.744c0 3.928 2.188 6.76 4.944 9.416C7.708 369.272 12 370 15.928 370h84.956c7.692 0 11.112-5.044 11.112-12.732v-10.952c0-3.84.156-8.412-2.572-11.136-2.736-2.736-4.704-5.18-8.544-5.18H68.284L185.9 214.292 303.7 334h-34.016c-7.688 0-17.684 4.812-17.684 12.5v10.952c0 3.84 3.132 6.52 5.864 9.252 2.728 2.728 7.98 3.292 11.82 3.292h86.088c3.824 0 7.432-.568 10.256-3.388.008-.024-1.064.292-1.04.268 2.744-2.744 3.008-5.884 3.008-9.708V270.54c0-3.844-.264-6.516-2.992-9.244-2.732-2.744-5.116-3.296-8.956-3.296h-10.952c-7.684 0-17.096 4.852-17.096 12.54v32.204l-115.6-116.62L332 67.548v34.016c0 3.836 1.824 6.468 4.552 9.196 2.736 2.732 6.672 3.244 10.512 3.244h10.956c7.688 0 13.98-4.756 13.98-12.436v-86.1c0-3.928-1.356-6.992-4.108-9.648z"/>
</svg>
