<?xml version="1.0" encoding="UTF-8"?>
<svg id="Layer_1" xmlns="http://www.w3.org/2000/svg" version="1.1" viewBox="0 0 500 500">
  <!-- Generator: Adobe Illustrator 29.1.0, SVG Export Plug-In . SVG Version: 2.1.0 Build 142)  -->
  <path d="M470.1,31.8c-3.2-3.5-9.2-4.5-14.1-4.5h-103c-9.2,0-18.3,6.6-18.3,16v13.2c0,9.7,8.6,19.1,18.3,19.1h39.1l-142.2,141.7L108.2,75.6h39.5c9.2,0,17.5-9.2,17.5-18.4v-13.2c0-9.7-7.8-16.6-17.5-16.6H42.8c-4.5,0-9.1,1.4-12.3,4.8l-.5.2c-3.2,3.2-5.1,7.4-5.1,12.1v102.9c0,4.8,1.8,8.3,5.1,11.5s7.8,4.3,12.3,4.3h13.2c9.2,0,12.8-6.6,12.8-15.8v-39.5l144.4,142.5-139.4,141.3v-39.5c0-4.8-1.2-10.1-4.5-13.4s-6.9-6.1-11.7-6.1h-13.2c-9.2,0-18.9,10.3-18.9,19.7v104.9c0,4.8,2.6,8.3,6,11.4,3.2,3.5,8.6,4.3,13.4,4.3h102.9c9.2,0,13.4-6.1,13.4-15.4v-13.2c0-4.8.2-10.1-3.1-13.5-3.2-3.2-5.7-6.1-10.3-6.1h-39.5l142.4-140.1,142.5,144.8h-41.2c-9.2,0-21.4,5.7-21.4,15.2v13.2c0,4.8,3.7,7.8,6.9,11.1s9.7,3.8,14.5,3.8h104.1c4.5,0,9.1-.6,12.3-4.2l-1.2.5c3.2-3.2,3.7-7.2,3.7-11.7v-104.9c0-4.8-.5-7.8-3.7-11.1s-6.1-3.8-10.9-3.8h-13.2c-9.2,0-20.8,6-20.8,15.2v38.7l-139.9-141.1,144.8-143.6v41.2c0,4.8,2.3,7.8,5.5,11.1s8,3.8,12.8,3.8h13.2c9.2,0,16.9-5.7,16.9-15.1V43.6c0-4.8-1.7-8.5-4.9-11.8"/>
</svg>