<svg xmlns="http://www.w3.org/2000/svg" width="512" height="512" viewBox="0 0 512 512">
    <path d="M399.2 114.1c-2.1-2.3-6-2.9-9.2-2.9h-67c-6 0-11.9 4.3-11.9 10.4v8.6c0 6.3 5.6 12.4 11.9 12.4h25.4l-92.5 92.2-92.1-92.2h25.7c6 0 11.4-6 11.4-12V122c0-6.3-5.1-10.8-11.4-10.8h-68.2c-2.9 0-5.9.9-8 3.1l-.3.1c-2.1 2.1-3.3 4.8-3.3 7.9v66.9c0 3.1 1.2 5.4 3.3 7.5s5.1 2.8 8 2.8h8.6c6 0 8.3-4.3 8.3-10.3v-25.7l93.9 92.7-90.7 91.9v-25.7c0-3.1-.8-6.6-2.9-8.7s-4.5-4-7.6-4H122c-6 0-12.3 6.7-12.3 12.8v68.2c0 3.1 1.7 5.4 3.9 7.4 2.1 2.3 5.6 2.8 8.7 2.8h66.9c6 0 8.7-4 8.7-10v-8.6c0-3.1.1-6.6-2-8.8-2.1-2.1-3.7-4-6.7-4h-25.7l92.6-91.1 92.7 94.2H322c-6 0-13.9 3.7-13.9 9.9v8.6c0 3.1 2.4 5.1 4.5 7.2s6.3 2.5 9.4 2.5h67.7c2.9 0 5.9-.4 8-2.7l-.8.3c2.1-2.1 2.4-4.7 2.4-7.6v-68.2c0-3.1-.3-5.1-2.4-7.2s-4-2.5-7.1-2.5h-8.6c-6 0-13.5 3.9-13.5 9.9V348l-91-91.8 94.2-93.4v26.8c0 3.1 1.5 5.1 3.6 7.2s5.2 2.5 8.3 2.5h8.6c6 0 11-3.7 11-9.8v-67.7c0-3.1-1.1-5.5-3.2-7.7"/>
</svg>
