<svg xmlns="http://www.w3.org/2000/svg" width="512" height="512" viewBox="0 0 512 512">
  <path d="M451.627,62.013c-2.87-3.143-8.2-3.963-12.573-3.963h-91.561c-8.2,0-16.262,5.876-16.262,14.213v11.753c0,8.61,7.653,16.946,16.262,16.946h34.711l-126.409,125.999-125.863-125.999h35.121c8.2,0,15.579-8.2,15.579-16.399v-11.753c0-8.61-6.97-14.759-15.579-14.759h-93.201c-3.963,0-8.063,1.23-10.933,4.236l-.41.137c-2.87,2.87-4.51,6.56-4.51,10.796v91.425c0,4.236,1.64,7.38,4.51,10.249s6.97,3.826,10.933,3.826h11.753c8.2,0,11.343-5.876,11.343-14.076v-35.121l128.322,126.683-123.949,125.589v-35.121c0-4.236-1.093-9.019-3.963-11.889s-6.15-5.466-10.386-5.466h-11.753c-8.2,0-16.809,9.156-16.809,17.492v93.201c0,4.236,2.323,7.38,5.33,10.113,2.87,3.143,7.653,3.826,11.889,3.826h91.425c8.2,0,11.889-5.466,11.889-13.666v-11.753c0-4.236.137-9.019-2.733-12.026-2.87-2.87-5.056-5.466-9.156-5.466h-35.121l126.546-124.496,126.683,128.732h-36.625c-8.2,0-18.996,5.056-18.996,13.529v11.753c0,4.236,3.28,6.97,6.15,9.839s8.609,3.416,12.846,3.416h92.518c3.963,0,8.063-.547,10.933-3.69l-1.093.41c2.87-2.87,3.28-6.423,3.28-10.386v-93.201c0-4.236-.41-6.97-3.28-9.839s-5.466-3.416-9.703-3.416h-11.753c-8.2,0-18.449,5.33-18.449,13.529v34.438l-124.359-125.453,128.732-127.639v36.625c0,4.236,2.05,6.97,4.92,9.839s7.106,3.416,11.343,3.416h11.753c8.2,0,15.032-5.056,15.032-13.393v-92.518c0-4.236-1.503-7.516-4.373-10.523"/>
</svg>