<svg xmlns="http://www.w3.org/2000/svg" width="512" height="512" viewBox="0 0 512 512">
    <path fill-rule="nonzero" d="M347.4 175.4l54.3-54.4-17.1-17.2-58.9 58.9c-21.1-10.6-44.2-17.2-69.7-17.2-62.2 0-110.6 39.6-170 104 26.5 28.4 50.7 55.1 78.4 74.5l-54.1 54.1 17.1 17.1 58.3-58.3c20.6 10.4 43.3 16.6 70.3 16.6 75.9 0 131.6-62 170-102.8-21.2-25.9-47.4-54.6-78.6-75.3zm-159.4 74c0-38.2 30.5-69.3 68-69.3 14.7 0 28.3 4.7 39.3 12.9l-38.5 38.5c-.5-2-.8-4.1-.8-6.3 0-5.9 2.2-11.5 5.7-15.7-1.9-.3-3.8-.4-5.7-.4-21.9 0-39.7 18.2-39.7 40.5 0 6.5 1.5 12.8 4.2 18.2l-20.7 20.7c-7.4-11.1-11.8-24.6-11.8-39.1zm68 69.4c-14.7 0-28.3-4.7-39.3-12.9l20.8-20.8c5.5 3.1 11.8 4.7 18.5 4.7 21.9 0 39.7-18.2 39.7-40.5 0-1.7-.1-3.5-.3-5.2-4.1 3.3-9.4 5.2-15 5.2-2.2 0-4.2-.3-6.3-.9l38.1-38.1c7.4 11.1 11.8 24.5 11.8 39 0 38.4-30.5 69.5-68 69.5z"/>
</svg>
