<svg xmlns="http://www.w3.org/2000/svg" width="512" height="512" viewBox="0 0 512 512">
  <path d="M363.529,168.824l63.882-64-20.118-20.235-69.294,69.294c-24.824-12.471-52-20.235-82-20.235-73.176,0-130.118,46.588-200,122.353,31.176,33.412,59.647,64.824,92.235,87.647l-63.647,63.647,20.118,20.118,68.588-68.588c24.235,12.235,50.941,19.529,82.706,19.529,89.294,0,154.824-72.941,200-120.941-24.941-30.471-55.765-64.235-92.471-88.588M176,255.882c0-44.941,35.882-81.529,80-81.529,17.294,0,33.294,5.529,46.235,15.176l-45.294,45.294c-.588-2.353-.941-4.824-.941-7.412,0-6.941,2.588-13.529,6.706-18.471-2.235-.353-4.471-.471-6.706-.471-25.765,0-46.706,21.412-46.706,47.647,0,7.647,1.765,15.059,4.941,21.412l-24.353,24.353c-8.706-13.059-13.882-28.941-13.882-46M256,337.529c-17.294,0-33.294-5.529-46.235-15.176l24.471-24.471c6.471,3.647,13.882,5.529,21.765,5.529,25.765,0,46.706-21.412,46.706-47.647,0-2-.118-4.118-.353-6.118-4.824,3.882-11.059,6.118-17.647,6.118-2.588,0-4.941-.353-7.412-1.059l44.824-44.824c8.706,13.059,13.882,28.824,13.882,45.882,0,45.176-35.882,81.765-80,81.765"/>
</svg>