<?xml version="1.0" encoding="UTF-8"?>
<svg id="Layer_1" xmlns="http://www.w3.org/2000/svg" version="1.1" viewBox="0 0 500 500">
  <!-- Generator: Adobe Illustrator 29.1.0, SVG Export Plug-In . SVG Version: 2.1.0 Build 142)  -->
  <path d="M371,151.9l71.9-72-22.6-22.8-78,78c-27.9-14-58.5-22.8-92.2-22.8-82.3,0-146.4,52.4-225,137.6,35.1,37.6,67.1,72.9,103.8,98.6l-71.6,71.6,22.6,22.6,77.2-77.2c27.3,13.8,57.3,22,93,22,100.5,0,174.2-82.1,225-136.1-28.1-34.3-62.7-72.3-104-99.7M160,249.9c0-50.6,40.4-91.7,90-91.7s37.5,6.2,52,17.1l-51,51c-.7-2.6-1.1-5.4-1.1-8.3,0-7.8,2.9-15.2,7.5-20.8-2.5-.4-5-.5-7.5-.5-29,0-52.5,24.1-52.5,53.6s2,16.9,5.6,24.1l-27.4,27.4c-9.8-14.7-15.6-32.6-15.6-51.8M250,341.7c-19.5,0-37.5-6.2-52-17.1l27.5-27.5c7.3,4.1,15.6,6.2,24.5,6.2,29,0,52.5-24.1,52.5-53.6s-.1-4.6-.4-6.9c-5.4,4.4-12.4,6.9-19.9,6.9s-5.6-.4-8.3-1.2l50.4-50.4c9.8,14.7,15.6,32.4,15.6,51.6,0,50.8-40.4,92-90,92"/>
</svg>