<svg xmlns="http://www.w3.org/2000/svg" width="512" height="512" viewBox="0 0 512 512">
  <path d="M74.186,115.461l23.271-23.093,303.993,303.993-23.093,23.271-55.999-55.999c-20.906,6.907-43.092,10.542-66.363,10.542-90.905,0-168.538-56.55-199.996-136.361,12.542-31.999,32.541-60.176,57.999-82.54l-39.821-39.821.009.009ZM256.004,183.273c14.462,0,28.337,5.742,38.568,15.973,10.228,10.229,15.974,24.103,15.973,38.568,0,6.364-1.093,12.542-3.093,18.177l-69.634-69.634c5.635-2,11.822-3.093,18.177-3.093l.009.009ZM256.004,101.461c90.905,0,168.538,56.541,199.996,136.361-14.906,37.821-40.177,70.541-72.727,94.362l-25.813-25.999c24.728-17.093,45.092-40.364,58.905-68.363-29.999-61.092-91.998-99.998-160.361-99.998-19.822,0-39.27,3.271-57.456,9.093l-27.999-27.822c26.177-11.271,55.092-17.635,85.456-17.635M95.644,237.823c29.999,61.092,91.998,99.998,160.361,99.998,12.542,0,24.906-1.271,36.364-3.822l-41.457-41.635c-25.999-2.729-46.728-23.457-49.457-49.457l-61.821-61.999c-18,15.457-33.093,34.728-43.999,56.905l.009.009Z"/>
</svg>