<svg xmlns="http://www.w3.org/2000/svg" width="512" height="512" viewBox="0 0 512 512">
  <path d="M256,201.458c14.462,0,28.338,5.742,38.569,15.973,10.231,10.231,15.973,24.107,15.973,38.569s-5.751,28.338-15.973,38.569c-10.231,10.231-24.107,15.973-38.569,15.973s-28.338-5.742-38.569-15.973c-10.231-10.231-15.973-24.107-15.973-38.569s5.742-28.338,15.973-38.569c10.229-10.228,24.103-15.974,38.569-15.973M256,119.636c90.907,0,168.542,56.542,200,136.364-31.458,79.822-109.093,136.364-200,136.364s-168.542-56.542-200-136.364c31.458-79.822,109.093-136.364,200-136.364M95.636,256c30,61.093,92,100,160.364,100s130.364-38.907,160.364-100c-30-61.093-92-100-160.364-100s-130.364,38.907-160.364,100"/>
</svg>