<?xml version="1.0" encoding="UTF-8"?>
<svg width="512px" height="512px" viewBox="0 0 512 512" version="1.1" xmlns="http://www.w3.org/2000/svg" xmlns:xlink="http://www.w3.org/1999/xlink">
    <!-- Generator: Sketch 62 (91390) - https://sketch.com -->
    <title>eye-disabled</title>
    <desc>Created with Sketch.</desc>
    <g id="eye-disabled" stroke="none" stroke-width="1" fill="none" fill-rule="evenodd">
        <path d="M347.4,175.4 L401.7,121 L384.6,103.8 L325.7,162.7 C304.6,152.1 281.5,145.5 256,145.5 C193.8,145.5 145.4,185.1 86,249.5 C112.5,277.9 136.7,304.6 164.4,324 L110.3,378.1 L127.4,395.2 L185.7,336.9 C206.3,347.3 229,353.5 256,353.5 C331.9,353.5 387.6,291.5 426,250.7 C404.8,224.8 378.6,196.1 347.4,175.4 Z M188,249.4 C188,211.2 218.5,180.1 256,180.1 C270.7,180.1 284.3,184.8 295.3,193 L256.8,231.5 C256.3,229.5 256,227.4 256,225.2 C256,219.3 258.2,213.7 261.7,209.5 C259.8,209.2 257.9,209.1 256,209.1 C234.1,209.1 216.3,227.3 216.3,249.6 C216.3,256.1 217.8,262.4 220.5,267.8 L199.8,288.5 C192.4,277.4 188,263.9 188,249.4 L188,249.4 Z M256,318.8 C241.3,318.8 227.7,314.1 216.7,305.9 L237.5,285.1 C243,288.2 249.3,289.8 256,289.8 C277.9,289.8 295.7,271.6 295.7,249.3 C295.7,247.6 295.6,245.8 295.4,244.1 C291.3,247.4 286,249.3 280.4,249.3 C278.2,249.3 276.2,249 274.1,248.4 L312.2,210.3 C319.6,221.4 324,234.8 324,249.3 C324,287.7 293.5,318.8 256,318.8 L256,318.8 Z" id="Shape" fill="#000000" fill-rule="nonzero"></path>
    </g>
</svg>