<svg xmlns="http://www.w3.org/2000/svg" width="500" height="500" viewBox="0 0 500 500">
    <path d="m45.45 91.89 26.18-25.98 342 342-25.98 26.18-63-63c-23.52 7.77-48.48 11.86-74.66 11.86-102.27 0-189.61-63.62-225-153.41 14.11-36 36.61-67.7 65.25-92.86l-44.8-44.8ZM250 168.18c16.27 0 31.88 6.46 43.39 17.97a61.36 61.36 0 0 1 17.97 43.39c0 7.16-1.23 14.11-3.48 20.45l-78.34-78.34c6.34-2.25 13.3-3.48 20.45-3.48Zm0-92.04c102.27 0 189.61 63.61 225 153.41-16.77 42.55-45.2 79.36-81.82 106.16l-29.04-29.25c27.82-19.23 50.73-45.41 66.27-76.91-33.75-68.73-103.5-112.5-180.41-112.5-22.3 0-44.18 3.68-64.64 10.23l-31.5-31.3C183.31 83.3 215.84 76.14 250 76.14M69.59 229.55c33.75 68.73 103.5 112.5 180.41 112.5 14.11 0 28.02-1.43 40.91-4.3l-46.64-46.84c-29.25-3.07-52.57-26.39-55.64-55.64l-69.55-69.75c-20.25 17.39-37.23 39.07-49.5 64.02Z"/>
</svg>
