<svg xmlns="http://www.w3.org/2000/svg" width="500" height="500" viewBox="0 0 500 500">
    <path d="M250 188.64c16.27 0 31.88 6.46 43.39 17.97s17.97 27.12 17.97 43.39-6.47 31.88-17.97 43.39c-11.51 11.51-27.12 17.97-43.39 17.97s-31.88-6.46-43.39-17.97-17.97-27.12-17.97-43.39 6.46-31.88 17.97-43.39A61.36 61.36 0 0 1 250 188.64m0-92.05c102.27 0 189.61 63.61 225 153.41-35.39 89.8-122.73 153.41-225 153.41S60.39 339.8 25 250C60.39 160.2 147.73 96.59 250 96.59M69.59 250c33.75 68.73 103.5 112.5 180.41 112.5S396.66 318.73 430.41 250C396.66 181.27 326.91 137.5 250 137.5S103.34 181.27 69.59 250"/>
</svg>
