<?xml version="1.0" encoding="UTF-8"?>
<svg id="Layer_1" xmlns="http://www.w3.org/2000/svg" version="1.1" viewBox="0 0 500 500">
  <!-- Generator: Adobe Illustrator 29.1.0, SVG Export Plug-In . SVG Version: 2.1.0 Build 142)  -->
  <path d="M250,121.5c-82.3,0-146.4,49.1-225,128.5,67.6,68,124.5,128.5,225,128.5s174.2-76.8,225-127.1c-52-59.2-125.7-130-225-130M250,341.7c-49.6,0-90-41.2-90-91.7s40.4-91.7,90-91.7,90,41.2,90,91.7-40.4,91.7-90,91.7"/>
  <path d="M250,217.7c0-7.8,2.9-15.2,7.5-20.8-2.5-.4-5-.5-7.5-.5-29,0-52.5,24.1-52.5,53.6s23.6,53.6,52.5,53.6,52.5-24.1,52.5-53.6-.1-4.6-.4-6.9c-5.4,4.4-12.4,6.9-19.9,6.9-18-.3-32.3-14.6-32.3-32.3"/>
</svg>