<svg xmlns="http://www.w3.org/2000/svg" width="512" height="512" viewBox="0 0 512 512">
    <path d="M256 152.4c-62.2 0-110.6 37.1-170 97.1 51.1 51.4 94.1 97.1 170 97.1s131.6-58 170-96c-39.3-44.7-95-98.2-170-98.2m0 166.4c-37.5 0-68-31.1-68-69.3s30.5-69.3 68-69.3 68 31.1 68 69.3c0 38.3-30.5 69.3-68 69.3"/>
    <path d="M256 225.1c0-5.9 2.2-11.5 5.7-15.7-1.9-.3-3.8-.4-5.7-.4-21.9 0-39.7 18.2-39.7 40.5S234.1 290 256 290s39.7-18.2 39.7-40.5c0-1.7-.1-3.5-.3-5.2-4.1 3.3-9.4 5.2-15 5.2-13.6-.2-24.4-11-24.4-24.4"/>
</svg>
