<svg xmlns="http://www.w3.org/2000/svg" width="512" height="512" viewBox="0 0 512 512">
  <path d="M256,141.765c-73.176,0-130.118,43.647-200,114.235,60.118,60.471,110.706,114.235,200,114.235s154.824-68.235,200-112.941c-46.235-52.588-111.765-115.529-200-115.529M256,337.529c-44.118,0-80-36.588-80-81.529s35.882-81.529,80-81.529,80,36.588,80,81.529-35.882,81.529-80,81.529M256,227.294c0-6.941,2.588-13.529,6.706-18.471-2.235-.353-4.471-.471-6.706-.471-25.765,0-46.706,21.412-46.706,47.647s20.941,47.647,46.706,47.647,46.706-21.412,46.706-47.647c0-2-.118-4.118-.353-6.118-4.824,3.882-11.059,6.118-17.647,6.118-16-.235-28.706-12.941-28.706-28.706"/>
</svg>