<?xml version="1.0" encoding="UTF-8"?>
<svg width="512px" height="512px" viewBox="0 0 512 512" version="1.1" xmlns="http://www.w3.org/2000/svg" xmlns:xlink="http://www.w3.org/1999/xlink">
    <!-- Generator: Sketch 62 (91390) - https://sketch.com -->
    <title>eye</title>
    <desc>Created with Sketch.</desc>
    <g id="eye" stroke="none" stroke-width="1" fill="none" fill-rule="evenodd">
        <path d="M256,152.4 C193.8,152.4 145.4,189.5 86,249.5 C137.1,300.9 180.1,346.6 256,346.6 C331.9,346.6 387.6,288.6 426,250.6 C386.7,205.9 331,152.4 256,152.4 Z M256,318.8 C218.5,318.8 188,287.7 188,249.5 C188,211.3 218.5,180.2 256,180.2 C293.5,180.2 324,211.3 324,249.5 C324,287.8 293.5,318.8 256,318.8 Z" id="Shape" fill="#000000" fill-rule="nonzero"></path>
        <path d="M256,175.8 C256,169.9 258.2,164.3 261.7,160.1 C259.8,159.8 257.9,159.7 256,159.7 C234.1,159.7 216.3,177.9 216.3,200.2 C216.3,222.5 234.1,240.7 256,240.7 C277.9,240.7 295.7,222.5 295.7,200.2 C295.7,198.5 295.6,196.7 295.4,195 C291.3,198.3 286,200.2 280.4,200.2 C266.8,200 256,189.2 256,175.8 L256,175.8 Z" id="Path" fill="#000000" fill-rule="nonzero"></path>
    </g>
</svg>