<?xml version="1.0" encoding="utf-8"?>
<!-- Generator: Adobe Illustrator 27.2.0, SVG Export Plug-In . SVG Version: 6.00 Build 0)  -->
<svg version="1.1" id="Layer_1" xmlns="http://www.w3.org/2000/svg" xmlns:xlink="http://www.w3.org/1999/xlink" x="0px" y="0px"
	 viewBox="0 0 512 512" style="enable-background:new 0 0 512 512;" xml:space="preserve">
<path d="M256,152.4c-62.2,0-110.6,37.1-170,97.1c51.1,51.4,94.1,97.1,170,97.1s131.6-58,170-96C386.7,205.9,331,152.4,256,152.4
	L256,152.4z M256,318.8c-37.5,0-68-31.1-68-69.3s30.5-69.3,68-69.3s68,31.1,68,69.3C324,287.8,293.5,318.8,256,318.8z"/>
<path d="M256,225.1c0-5.9,2.2-11.5,5.7-15.7c-1.9-0.3-3.8-0.4-5.7-0.4c-21.9,0-39.7,18.2-39.7,40.5S234.1,290,256,290
	s39.7-18.2,39.7-40.5c0-1.7-0.1-3.5-0.3-5.2c-4.1,3.3-9.4,5.2-15,5.2C266.8,249.3,256,238.5,256,225.1L256,225.1z"/>
</svg>
