<svg xmlns="http://www.w3.org/2000/svg" width="512" height="512" viewBox="0 0 512 512">
    <path fill-rule="evenodd" d="M36.39 36.86c-.017-.03-.45-.795-1.082-3.643l-.05-.228-.073-.219c-.182-.545-.108-.782-.08-.869.551-1.769.737-2.647.737-3.48v-.28l-.033-.278c-.285-2.27-.567-4.607-.836-6.883-.18-2.041.917-4.502 3.252-7.317 2.258-2.716 5.88-4.038 11.074-4.038 5.193 0 8.817 1.322 11.072 4.038 1.085 1.31 1.876 2.53 2.422 3.666l3.3-3.3a24.28 24.28 0 0 0-2.263-3.238c-3.133-3.774-7.977-5.663-14.53-5.663-6.557 0-11.399 1.889-14.534 5.663-3.136 3.777-4.56 7.302-4.275 10.579.284 2.422.57 4.772.854 7.05 0 .288-.177.999-.534 2.138-.356 1.142-.32 2.353.108 3.633.57 2.566 1.14 4.275 1.71 5.13.569.854.997 1.996 1.282 3.42.18 1.037.375 1.996.59 2.878l3.805-3.804c-.405-2.003-1.037-3.637-1.915-4.956m53.941 50.333l-.429-8.55c-.57-2.848-6.337-6.337-17.31-10.471a8.202 8.202 0 0 1-1.067-.426c-6.697-2.422-10.19-3.777-10.474-4.062-.855-.57-1.28-2.991-1.28-7.266 0-1.709.641-3.382 1.921-5.022 1.283-1.636 2.281-4.523 2.992-8.654.285-1.424.713-2.566 1.283-3.42.378-.567.759-1.55 1.136-2.875L59.94 43.61c-.71 3.343-1.466 4.605-1.786 5.016-1.91 2.44-2.878 5.063-2.878 7.79 0 5.127.485 8.742 2.827 10.67.758.707 1.9 1.27 11.685 4.811.387.18.816.348 1.295.51 10.916 4.119 13.716 6.538 14.372 7.287l.15 3.001H20.853l-4.497 4.497h73.976zm-7.097-74.483L7.107 88.834 3 84.727 79.128 8.602z"/>
</svg>
