<svg xmlns="http://www.w3.org/2000/svg" width="512" height="512" viewBox="0 0 512 512">
    <path d="M256.002 96.5c-24.437 0-42.499 7.038-54.193 21.114-11.68 14.086-16.994 27.23-15.932 39.451a3947.98 3947.98 0 003.184 26.298c0 1.062-.671 3.714-2 7.96-1.319 4.26-1.184 8.773.401 13.545 2.126 9.57 4.246 15.941 6.367 19.13 2.135 3.178 3.724 7.443 4.787 12.752 2.657 15.4 6.38 26.167 11.154 32.268 4.787 6.115 7.178 12.352 7.178 18.723v4.782c0 11.695-1.063 18.728-3.184 21.115-2.125 2.396-9.303 5.714-21.52 9.96a1338.68 1338.68 0 01-23.118 7.97c-40.905 15.415-62.42 28.428-64.546 39.05-1.063 7.444-1.594 18.062-1.594 31.882h306.028l-1.599-31.881c-2.125-10.618-23.64-23.632-64.545-39.05a30.632 30.632 0 01-3.99-1.585c-24.974-9.033-37.987-14.086-39.05-15.148-3.184-2.126-4.782-11.159-4.782-27.1 0-6.366 2.395-12.607 7.178-18.723 4.772-6.106 8.492-16.868 11.158-32.268 1.063-5.309 2.647-9.574 4.782-12.752 2.126-3.189 4.251-9.56 6.372-19.13 1.59-4.772 1.72-9.289.391-13.544-1.319-4.25-1.99-6.898-1.99-7.961a3722.118 3722.118 0 003.188-26.297c1.058-12.222-4.25-25.366-15.931-39.451-11.695-14.072-29.76-21.11-54.194-21.11m0 16.761c19.371 0 32.88 4.931 41.292 15.055 8.707 10.497 12.79 19.674 12.184 26.782a4180.6 4180.6 0 01-3.179 26.167l-.135 1.035v1.053c0 3.095.695 6.372 2.76 12.967.102.326.382 1.203-.299 3.24l-.28.815-.177.849c-2.358 10.617-3.966 13.456-3.966 13.456-3.38 5.071-5.757 11.214-7.346 19.203-2.95 17.106-6.474 23.035-7.84 24.797-7.131 9.098-10.739 18.877-10.739 29.047 0 19.115 1.818 32.6 10.544 39.787 2.824 2.624 7.084 4.735 43.57 17.935 1.446.671 3.044 1.296 4.839 1.902 40.69 15.363 51.131 24.377 53.592 27.174l.56 11.186h-271.28c.2-4.214.484-7.868.848-10.916 1.976-2.424 11.68-11.55 53.792-27.435a1472.507 1472.507 0 0023.016-7.933c18.691-6.507 24.783-10.431 28.535-14.654 5.342-6.013 7.42-15.055 7.42-32.264v-4.782c0-10.17-3.607-19.949-10.739-29.047-1.365-1.762-4.884-7.69-7.914-25.235-1.505-7.555-3.887-13.694-7.197-18.644-.065-.112-1.668-2.96-4.036-13.582l-.177-.848-.28-.816c-.68-2.037-.4-2.918-.303-3.244 2.065-6.59 2.76-9.867 2.76-12.967v-1.053l-.136-1.035a4487.659 4487.659 0 01-3.118-25.664c-.662-7.616 3.421-16.789 12.128-27.285 8.423-10.115 21.93-15.046 41.301-15.046"/>
</svg>
