<?xml version="1.0" encoding="UTF-8"?>
<svg width="512px" height="512px" viewBox="0 0 512 512" version="1.1" xmlns="http://www.w3.org/2000/svg" xmlns:xlink="http://www.w3.org/1999/xlink">
    <!-- Generator: Sketch 62 (91390) - https://sketch.com -->
    <title>face-hide</title>
    <desc>Created with Sketch.</desc>
    <g id="face-hide" stroke="none" stroke-width="1" fill="none" fill-rule="evenodd">
        <path d="M218.3,212.45 C218.2,212.35 216.7,209.55 214.3,199.15 L214.1,198.35 L213.8,197.55 C213.1,195.55 213.4,194.65 213.5,194.35 C215.5,187.85 216.2,184.65 216.2,181.55 L216.2,180.55 L216.1,179.55 C215.1,171.25 214,162.65 213,154.35 C212.3,146.85 216.4,137.85 224.9,127.55 C233.2,117.55 246.4,112.75 265.5,112.75 C284.5,112.75 297.8,117.55 306.1,127.55 C310.1,132.35 313,136.85 315,140.95 L327.1,128.85 C324.7,124.65 321.9,120.75 318.8,116.95 C307.4,103.05 289.7,96.15 265.7,96.15 C241.7,96.15 223.9,103.05 212.4,116.95 C200.9,130.75 195.7,143.75 196.7,155.75 C197.7,164.65 198.8,173.25 199.8,181.55 C199.8,182.65 199.2,185.25 197.8,189.35 C196.5,193.55 196.6,197.95 198.2,202.65 C200.3,212.05 202.4,218.35 204.5,221.45 C206.6,224.55 208.2,228.75 209.2,233.95 C209.9,237.75 210.6,241.25 211.4,244.45 L225.3,230.55 C223.9,223.25 221.6,217.25 218.3,212.45 M416,396.85 L414.4,365.55 C412.3,355.15 391.2,342.35 351,327.15 C349.7,326.75 348.4,326.25 347.1,325.55 C322.6,316.65 309.8,311.75 308.7,310.65 C305.6,308.55 304,299.65 304,284.05 C304,277.75 306.3,271.65 311,265.65 C315.7,259.65 319.4,249.05 322,233.95 C323,228.75 324.6,224.55 326.7,221.45 C328.1,219.35 329.5,215.75 330.9,210.95 L304.6,237.15 C302,249.35 299.2,254.05 298.1,255.55 C291.1,264.45 287.6,274.15 287.6,284.05 C287.6,302.85 289.4,316.05 298,323.15 C300.8,325.75 305,327.85 340.8,340.75 C342.2,341.45 343.8,342.05 345.5,342.65 C385.5,357.75 395.8,366.65 398.2,369.35 L398.7,380.35 L161.4,380.35 L144.9,396.85 L416,396.85 Z M390,123.95 L111,402.85 L96,387.85 L374.9,108.85 L390,123.95 Z" id="Shape" fill="#000000" fill-rule="nonzero"></path>
    </g>
</svg>