<?xml version="1.0" encoding="UTF-8"?>
<svg id="Layer_1" xmlns="http://www.w3.org/2000/svg" version="1.1" viewBox="0 0 500 500">
  <!-- Generator: Adobe Illustrator 29.1.0, SVG Export Plug-In . SVG Version: 2.1.0 Build 142)  -->
  <path d="M197,197.9c-.1-.1-2.3-4.1-5.6-18.7l-.3-1.1-.4-1.1c-1-2.8-.6-4.1-.4-4.5,2.8-9.1,3.8-13.6,3.8-18v-2.8c-1.5-11.7-3.1-23.8-4.5-35.4-1-10.5,4.8-23.2,16.7-37.7,11.7-14.1,30.2-20.8,57.1-20.8s45.4,6.8,57.1,20.8c5.6,6.8,9.7,13.1,12.5,18.8l17-17c-3.4-5.9-7.3-11.4-11.7-16.7-16-19.5-40.9-29.2-74.7-29.2s-58.8,9.7-75,29.3c-16.2,19.4-23.5,37.7-22.1,54.6,1.4,12.5,3,24.6,4.4,36.3,0,1.5-.8,5.2-2.8,11-1.8,5.9-1.7,12.1.6,18.7,3,13.2,5.9,22.1,8.9,26.4s5.2,10.3,6.6,17.6c1,5.3,2,10.3,3.1,14.8l19.5-19.5c-2-10.3-5.2-18.7-9.8-25.5M475,457.2l-2.3-44c-3-14.6-32.6-32.6-89.2-54-1.8-.6-3.7-1.3-5.5-2.3-34.5-12.5-52.5-19.4-54-21-4.4-3-6.6-15.5-6.6-37.4s3.2-17.4,9.8-25.9,11.8-23.3,15.5-44.6c1.4-7.3,3.7-13.2,6.6-17.6,2-3,3.9-8,5.9-14.8l-37,36.8c-3.7,17.2-7.6,23.8-9.1,25.9-9.8,12.5-14.8,26.2-14.8,40.1,0,26.4,2.5,45,14.6,55,3.9,3.7,9.8,6.6,60.2,24.8,2,1,4.2,1.8,6.6,2.7,56.2,21.2,70.7,33.8,74.1,37.5l.7,15.5H117l-23.2,23.2h381.2ZM438.4,73.4L46.1,465.6l-21.1-21.1L417.2,52.2l21.2,21.2Z"/>
</svg>