<svg xmlns="http://www.w3.org/2000/svg" width="512" height="512" viewBox="0 0 512 512">
  <path d="M208.875,209.688c-.125-.125-2-3.625-5-16.625l-.25-1-.375-1c-.875-2.5-.5-3.625-.375-4,2.5-8.125,3.375-12.125,3.375-16v-1.25l-.125-1.25c-1.25-10.375-2.625-21.125-3.875-31.5-.875-9.375,4.25-20.625,14.875-33.5,10.375-12.5,26.875-18.5,50.75-18.5,23.75,0,40.375,6,50.75,18.5,5,6,8.625,11.625,11.125,16.75l15.125-15.125c-3-5.25-6.5-10.125-10.375-14.875-14.25-17.375-36.375-26-66.375-26s-52.25,8.625-66.625,26c-14.375,17.25-20.875,33.5-19.625,48.5,1.25,11.125,2.625,21.875,3.875,32.25,0,1.375-.75,4.625-2.5,9.75-1.625,5.25-1.5,10.75.5,16.625,2.625,11.75,5.25,19.625,7.875,23.5s4.625,9.125,5.875,15.625c.875,4.75,1.75,9.125,2.75,13.125l17.375-17.375c-1.75-9.125-4.625-16.625-8.75-22.625M456,440.188l-2-39.125c-2.625-13-29-29-79.25-48-1.625-.5-3.25-1.125-4.875-2-30.625-11.125-46.625-17.25-48-18.625-3.875-2.625-5.875-13.75-5.875-33.25,0-7.875,2.875-15.5,8.75-23s10.5-20.75,13.75-39.625c1.25-6.5,3.25-11.75,5.875-15.625,1.75-2.625,3.5-7.125,5.25-13.125l-32.875,32.75c-3.25,15.25-6.75,21.125-8.125,23-8.75,11.125-13.125,23.25-13.125,35.625,0,23.5,2.25,40,13,48.875,3.5,3.25,8.75,5.875,53.5,22,1.75.875,3.75,1.625,5.875,2.375,50,18.875,62.875,30,65.875,33.375l.625,13.75H137.75l-20.625,20.625h338.875ZM423.5,99.063L74.75,447.688l-18.75-18.75L404.625,80.188l18.875,18.875Z"/>
</svg>