<?xml version="1.0" encoding="UTF-8"?>
<svg id="Layer_1" xmlns="http://www.w3.org/2000/svg" version="1.1" viewBox="0 0 500 500">
  <!-- Generator: Adobe Illustrator 29.1.0, SVG Export Plug-In . SVG Version: 2.1.0 Build 142)  -->
  <path d="M250,25c-35.9,0-62.5,10.3-79.7,31-17.2,20.7-25,40-23.4,58,1.5,12.9,3.1,25.8,4.7,38.7,0,1.6-1,5.5-2.9,11.7-1.9,6.3-1.7,12.9.6,19.9,3.1,14.1,6.2,23.4,9.4,28.1,3.1,4.7,5.5,10.9,7,18.8,3.9,22.6,9.4,38.5,16.4,47.4,7,9,10.6,18.2,10.6,27.5v7c0,17.2-1.6,27.5-4.7,31-3.1,3.5-13.7,8.4-31.6,14.6-11.3,4-22.6,7.9-34,11.7-60.1,22.7-91.8,41.8-94.9,57.4-1.6,10.9-2.3,26.6-2.3,46.9h450l-2.4-46.9c-3.1-15.6-34.8-34.8-94.9-57.4-2-.6-4-1.4-5.9-2.3-36.7-13.3-55.9-20.7-57.4-22.3-4.7-3.1-7-16.4-7-39.8,0-9.4,3.5-18.5,10.6-27.5,7-9,12.5-24.8,16.4-47.4,1.6-7.8,3.9-14.1,7-18.8,3.1-4.7,6.3-14.1,9.4-28.1,2.3-7,2.5-13.7.6-19.9-1.9-6.2-2.9-10.1-2.9-11.7,1.6-12.9,3.2-25.8,4.7-38.7,1.6-18-6.2-37.3-23.4-58-17.2-20.7-43.8-31-79.7-31M250,49.7c28.5,0,48.3,7.3,60.7,22.1,12.8,15.4,18.8,28.9,17.9,39.4-1.5,12.8-3.1,25.7-4.7,38.5l-.2,1.5v1.5c0,4.6,1,9.4,4.1,19.1.1.5.6,1.8-.4,4.8l-.4,1.2-.3,1.2c-3.5,15.6-5.8,19.8-5.8,19.8-5,7.5-8.5,16.5-10.8,28.2-4.3,25.2-9.5,33.9-11.5,36.5-10.5,13.4-15.8,27.8-15.8,42.7,0,28.1,2.7,47.9,15.5,58.5,4.2,3.9,10.4,7,64.1,26.4,2.1,1,4.5,1.9,7.1,2.8,59.8,22.6,75.2,35.8,78.8,40l.8,16.4H50.2c.3-6.2.7-11.6,1.2-16.1,2.9-3.6,17.2-17,79.1-40.3,11.3-3.8,22.6-7.7,33.8-11.7,27.5-9.6,36.4-15.3,42-21.5,7.9-8.8,10.9-22.1,10.9-47.4v-7c0-15-5.3-29.3-15.8-42.7-2-2.6-7.2-11.3-11.6-37.1-2.2-11.1-5.7-20.1-10.6-27.4,0-.2-2.5-4.4-5.9-20l-.3-1.2-.4-1.2c-1-3-.6-4.3-.4-4.8,3-9.7,4.1-14.5,4.1-19.1v-1.5l-.2-1.5c-1.6-12.6-3.1-25.2-4.6-37.7-1-11.2,5-24.7,17.8-40.1,12.4-14.9,32.2-22.1,60.7-22.1"/>
</svg>