<svg xmlns="http://www.w3.org/2000/svg" width="512" height="512" viewBox="0 0 512 512">
    <path fill-rule="nonzero" d="M218.3 212.45c-.1-.1-1.6-2.9-4-13.3l-.2-.8-.3-.8c-.7-2-.4-2.9-.3-3.2 2-6.5 2.7-9.7 2.7-12.8v-1l-.1-1c-1-8.3-2.1-16.9-3.1-25.2-.7-7.5 3.4-16.5 11.9-26.8 8.3-10 21.5-14.8 40.6-14.8 19 0 32.3 4.8 40.6 14.8 4 4.8 6.9 9.3 8.9 13.4l12.1-12.1c-2.4-4.2-5.2-8.1-8.3-11.9-11.4-13.9-29.1-20.8-53.1-20.8s-41.8 6.9-53.3 20.8c-11.5 13.8-16.7 26.8-15.7 38.8 1 8.9 2.1 17.5 3.1 25.8 0 1.1-.6 3.7-2 7.8-1.3 4.2-1.2 8.6.4 13.3 2.1 9.4 4.2 15.7 6.3 18.8 2.1 3.1 3.7 7.3 4.7 12.5.7 3.8 1.4 7.3 2.2 10.5l13.9-13.9c-1.4-7.3-3.7-13.3-7-18.1M416 396.85l-1.6-31.3c-2.1-10.4-23.2-23.2-63.4-38.4-1.3-.4-2.6-.9-3.9-1.6-24.5-8.9-37.3-13.8-38.4-14.9-3.1-2.1-4.7-11-4.7-26.6 0-6.3 2.3-12.4 7-18.4 4.7-6 8.4-16.6 11-31.7 1-5.2 2.6-9.4 4.7-12.5 1.4-2.1 2.8-5.7 4.2-10.5l-26.3 26.2c-2.6 12.2-5.4 16.9-6.5 18.4-7 8.9-10.5 18.6-10.5 28.5 0 18.8 1.8 32 10.4 39.1 2.8 2.6 7 4.7 42.8 17.6 1.4.7 3 1.3 4.7 1.9 40 15.1 50.3 24 52.7 26.7l.5 11H161.4l-16.5 16.5H416zm-26-272.9l-279 278.9-15-15 278.9-279 15.1 15.1z"/>
</svg>
