<svg xmlns="http://www.w3.org/2000/svg" width="512" height="512" viewBox="0 0 512 512">
  <path d="M256.003,56c-31.942,0-55.556,9.2-70.841,27.6-15.268,18.413-22.214,35.595-20.826,51.57,1.349,11.463,2.736,22.922,4.162,34.376,0,1.388-.877,4.855-2.614,10.405-1.724,5.567-1.549,11.469.524,17.706,2.779,12.51,5.55,20.838,8.323,25.007,2.791,4.154,4.868,9.729,6.258,16.669,3.473,20.131,8.34,34.205,14.58,42.18,6.258,7.993,9.383,16.146,9.383,24.474v6.251c0,15.288-1.39,24.481-4.162,27.601-2.778,3.132-12.161,7.469-28.131,13.02-10.041,3.565-20.115,7.038-30.22,10.418-53.471,20.15-81.595,37.161-84.374,51.046-1.39,9.731-2.084,23.61-2.084,41.676h400.037l-2.09-41.675c-2.777-13.878-30.901-30.893-84.373-51.046-1.784-.569-3.527-1.262-5.216-2.072-32.646-11.808-49.656-18.413-51.046-19.801-4.162-2.779-6.251-14.587-6.251-35.425.002-8.322,3.129-16.48,9.383-24.474,6.238-7.982,11.101-22.05,14.586-42.18,1.39-6.94,3.46-12.515,6.251-16.669,2.779-4.169,5.557-12.497,8.329-25.007,2.078-6.24,2.249-12.141.511-17.705-1.724-5.556-2.601-9.017-2.601-10.407,1.43-11.453,2.819-22.912,4.167-34.375,1.383-15.976-5.556-33.158-20.825-51.57-15.288-18.396-38.902-27.594-70.842-27.595M256.003,77.91c25.322,0,42.98,6.446,53.976,19.68,11.382,13.722,16.719,25.718,15.927,35.009-1.349,11.406-2.734,22.808-4.156,34.205l-.176,1.353v1.376c0,4.046.909,8.329,3.608,16.95.133.426.499,1.573-.391,4.235l-.366,1.065-.231,1.11c-3.082,13.878-5.184,17.59-5.184,17.59-4.418,6.629-7.525,14.659-9.603,25.102-3.856,22.361-8.463,30.111-10.248,32.414-9.322,11.893-14.038,24.676-14.038,37.97,0,24.987,2.376,42.614,13.783,52.009,3.692,3.43,9.26,6.19,56.954,23.444,1.89.877,3.979,1.694,6.325,2.486,53.19,20.082,66.838,31.865,70.055,35.522l.732,14.622H78.356c.261-5.508.633-10.285,1.108-14.269,2.583-3.169,15.268-15.098,70.316-35.863,10.057-3.374,20.086-6.83,30.086-10.37,24.433-8.506,32.396-13.635,37.301-19.156,6.983-7.86,9.699-19.68,9.699-42.175v-6.251c0-13.294-4.715-26.077-14.038-37.97-1.784-2.303-6.384-10.052-10.345-32.987-1.967-9.876-5.081-17.901-9.408-24.371-.085-.146-2.18-3.869-5.276-17.754l-.231-1.109-.366-1.067c-.889-2.663-.523-3.814-.396-4.241,2.699-8.614,3.608-12.898,3.608-16.95v-1.376l-.178-1.353c-1.391-11.179-2.749-22.361-4.076-33.548-.865-9.956,4.472-21.946,15.854-35.667,11.01-13.222,28.667-19.668,53.988-19.668"/>
</svg>