<svg xmlns="http://www.w3.org/2000/svg" width="512" height="512" viewBox="0 0 512 512">
    <path fill-rule="evenodd" d="M41.427.232c-6.554 0-11.398 1.888-14.534 5.662-3.133 3.778-4.557 7.303-4.272 10.58.285 2.422.57 4.772.854 7.053 0 .285-.18.996-.536 2.135-.354 1.142-.318 2.353.108 3.633.57 2.566 1.139 4.275 1.708 5.13.573.853.999 1.996 1.284 3.42.713 4.13 1.711 7.017 2.991 8.654 1.284 1.64 1.925 3.313 1.925 5.021v1.283c0 3.136-.285 5.022-.854 5.663-.57.642-2.495 1.532-5.771 2.671a351.306 351.306 0 0 1-6.2 2.137C7.16 67.408 1.39 70.898.82 73.746c-.285 1.996-.428 4.844-.428 8.55h82.07l-.429-8.55c-.57-2.848-6.34-6.338-17.31-10.472a8.262 8.262 0 0 1-1.07-.425c-6.697-2.422-10.187-3.777-10.472-4.062-.854-.57-1.283-2.992-1.283-7.267 0-1.708.642-3.381 1.925-5.021 1.28-1.637 2.278-4.524 2.992-8.654.285-1.424.71-2.567 1.283-3.42.57-.855 1.14-2.564 1.709-5.13.426-1.28.461-2.491.105-3.633-.354-1.14-.534-1.85-.534-2.135.285-2.281.57-4.631.855-7.053.284-3.277-1.14-6.802-4.272-10.58C52.825 2.12 47.98.232 41.427.232m0 4.496c5.195 0 8.817 1.322 11.074 4.038 2.335 2.815 3.43 5.276 3.268 7.183-.285 2.41-.57 4.751-.852 7.018l-.036.278v.282c0 .83.186 1.709.74 3.478.028.087.103.323-.08.869l-.075.219-.048.228c-.633 2.848-1.064 3.609-1.064 3.609-.906 1.36-1.544 3.007-1.97 5.15-.791 4.587-1.736 6.178-2.102 6.65-1.912 2.44-2.88 5.062-2.88 7.79 0 5.126.488 8.742 2.827 10.67.758.704 1.9 1.27 11.685 4.81.387.18.816.348 1.298.51 10.913 4.12 13.713 6.538 14.372 7.288l.15 3H4.981c.054-1.13.13-2.11.228-2.928.53-.65 3.133-3.097 14.426-7.357a391.299 391.299 0 0 0 6.173-2.128c5.012-1.745 6.646-2.797 7.653-3.93 1.433-1.613 1.99-4.038 1.99-8.652V51.52c0-2.728-.967-5.35-2.88-7.79-.366-.472-1.31-2.063-2.123-6.767-.404-2.026-1.043-3.672-1.93-5-.018-.03-.447-.794-1.082-3.642l-.048-.228-.075-.219c-.183-.546-.108-.782-.081-.87.554-1.768.74-2.646.74-3.477v-.282l-.036-.278c-.282-2.267-.566-4.608-.836-6.883-.177-2.042.917-4.503 3.252-7.318 2.258-2.716 5.88-4.038 11.075-4.038" mask="url(#b)" transform="translate(7.872 4.896)"/>
</svg>
