<svg id="content" xmlns="http://www.w3.org/2000/svg" version="1.1" width="512" height="512" viewBox="0 0 512 512">
  <path d="M411.6,56H100.4c-24.4,0-44.4,20-44.4,44.4v311.1c0,24.4,20,44.4,44.4,44.4h311.1c24.4,0,44.4-20,44.4-44.4V100.4c0-24.4-20-44.4-44.4-44.4h.1ZM200.4,244.9c0,17.8-15.6,33.3-33.3,33.3h-22.2v44.4h-33.3v-133.3h55.6c17.8,0,33.3,15.6,33.3,33.3v22.2h0ZM311.6,289.3c0,17.8-15.6,33.3-33.3,33.3h-55.6v-133.3h55.6c17.8,0,33.3,15.6,33.3,33.3v66.7ZM400.4,222.7h-33.3v22.2h33.3v33.3h-33.3v44.4h-33.3v-133.3h66.7v33.3h-.1ZM256,222.7h22.2v66.7h-22.2v-66.7ZM144.9,222.7h22.2v22.2h-22.2v-22.2Z"/>
</svg>