<svg xmlns="http://www.w3.org/2000/svg" width="500" height="500" viewBox="0 0 500 500">
  <path id="content" d="M256.4,25H88.1c-11.2,0-21.9,4.4-29.8,12.3-7.9,7.9-12.3,18.6-12.3,29.8v336.6c0,11.2,4.4,21.9,12.3,29.8,7.9,7.9,18.6,12.3,29.8,12.3h147.3c-8.6-5.3-16.8-11.8-24-18.9-6.9-6.9-12.8-14.7-18.1-23.1h-105.2V67.1h147.3v105.2h105.2v24.8c14.9,3.4,29.2,9,42.1,17.3v-63.1l-126.2-126.2ZM389.2,380.5c28-44.4,14.5-103.1-29.5-130.9-44.4-28-103.3-14.3-130.9,29.5-28.2,44.4-14.5,102.9,29.5,130.9,30.7,19.6,69.8,19.6,100.8.4l65.6,64.6,29.2-29.2-64.8-65.2ZM309,382.6c-13.9,0-27.3-5.5-37.2-15.4-9.9-9.9-15.4-23.2-15.4-37.2s5.5-27.3,15.4-37.2c9.9-9.9,23.2-15.4,37.2-15.4s27.3,5.5,37.2,15.4c9.9,9.9,15.4,23.2,15.4,37.2s-5.5,27.3-15.4,37.2c-9.9,9.9-23.2,15.4-37.2,15.4Z"/>
</svg>