<svg xmlns="http://www.w3.org/2000/svg" width="512" height="512" viewBox="0 0 512 512">
  <path id="content" d="M261.733,56H112.133c-9.956,0-19.467,3.911-26.489,10.933-7.022,7.022-10.933,16.533-10.933,26.489v299.2c0,9.956,3.911,19.467,10.933,26.489s16.533,10.933,26.489,10.933h130.933c-7.644-4.711-14.933-10.489-21.333-16.8-6.133-6.133-11.378-13.067-16.089-20.533h-93.511V93.422h130.933v93.511h93.511v22.044c13.244,3.022,25.956,8,37.422,15.378v-56.089l-112.178-112.178-.089-.089ZM379.778,372c24.889-39.467,12.889-91.644-26.222-116.356-39.467-24.889-91.822-12.711-116.356,26.222-25.067,39.467-12.889,91.467,26.222,116.356,27.289,17.422,62.044,17.422,89.6.356l58.311,57.422,25.956-25.956-57.6-57.956.089-.089ZM308.489,373.867c-12.356,0-24.267-4.889-33.067-13.689-8.8-8.8-13.689-20.622-13.689-33.067s4.889-24.267,13.689-33.067c8.8-8.8,20.622-13.689,33.067-13.689s24.267,4.889,33.067,13.689c8.8,8.8,13.689,20.622,13.689,33.067s-4.889,24.267-13.689,33.067c-8.8,8.8-20.622,13.689-33.067,13.689Z"/>
</svg>