<svg xmlns="http://www.w3.org/2000/svg" width="512" height="512" viewBox="0 0 512 512">
  <path d="M196,276c0,15.875,6.25,31.125,17.5,42.5,11.25,11.25,26.5,17.5,42.5,17.5s31.125-6.25,42.5-17.5c11.25-11.25,17.5-26.5,17.5-42.5s-6.25-31.125-17.5-42.5c-11.25-11.25-26.5-17.5-42.5-17.5s-31.125,6.25-42.5,17.5c-11.25,11.25-17.5,26.5-17.5,42.5M416,407.875v-231.875l-120-120h-160c-10.625,0-20.75,4.25-28.25,11.75s-11.75,17.75-11.75,28.25v320c0,10.625,4.25,20.75,11.75,28.25s17.75,11.75,28.25,11.75h240c9,0,17-3,23.875-8l-88.625-88.625c-16,10.375-35.25,16.625-55.25,16.625s-51.875-10.5-70.75-29.25c-18.75-18.75-29.25-44.125-29.25-70.75s10.5-51.875,29.25-70.75c18.75-18.75,44.125-29.25,70.75-29.25s51.875,10.5,70.75,29.25c18.75,18.75,29.25,44.125,29.25,70.75s-6.25,39.25-16.625,55l76.625,76.75v.125Z"/>
</svg>