<?xml version="1.0" encoding="UTF-8"?>
<svg id="Layer_1" data-name="Layer 1" xmlns="http://www.w3.org/2000/svg" version="1.1" viewBox="0 0 512 512">
  <path class="cls-1" d="M208,272c0,12.7,5,24.9,14,34,9,9,21.2,14,34,14s24.9-5,34-14c9-9,14-21.2,14-34s-5-24.9-14-34c-9-9-21.2-14-34-14s-24.9,5-34,14c-9,9-14,21.2-14,34ZM384,377.5v-185.5l-96-96h-128c-8.5,0-16.6,3.4-22.6,9.4-6,6-9.4,14.2-9.4,22.6v256c0,8.5,3.4,16.6,9.4,22.6,6,6,14.2,9.4,22.6,9.4h192c7.2,0,13.6-2.4,19.1-6.4l-70.9-70.9c-12.8,8.3-28.2,13.3-44.2,13.3s-41.5-8.4-56.6-23.4c-15-15-23.4-35.3-23.4-56.6s8.4-41.5,23.4-56.6c15-15,35.3-23.4,56.6-23.4s41.5,8.4,56.6,23.4c15,15,23.4,35.3,23.4,56.6s-5,31.4-13.3,44l61.3,61.4h0Z"/>
</svg>