<svg xmlns="http://www.w3.org/2000/svg" data-name="Layer 1" viewBox="0 0 512 512" width="512" height="512">
    <path d="M208 272c0 12.7 5 24.9 14 34 9 9 21.2 14 34 14s24.9-5 34-14c9-9 14-21.2 14-34s-5-24.9-14-34c-9-9-21.2-14-34-14s-24.9 5-34 14c-9 9-14 21.2-14 34m176 105.5V192l-96-96H160c-8.5 0-16.6 3.4-22.6 9.4S128 119.6 128 128v256c0 8.5 3.4 16.6 9.4 22.6s14.2 9.4 22.6 9.4h192c7.2 0 13.6-2.4 19.1-6.4l-70.9-70.9C287.4 347 272 352 256 352s-41.5-8.4-56.6-23.4c-15-15-23.4-35.3-23.4-56.6s8.4-41.5 23.4-56.6c15-15 35.3-23.4 56.6-23.4s41.5 8.4 56.6 23.4c15 15 23.4 35.3 23.4 56.6s-5 31.4-13.3 44l61.3 61.4Z" class="cls-1"/>
</svg>
