<svg xmlns="http://www.w3.org/2000/svg" width="512" height="512" data-name="Layer 1" viewBox="0 0 512 512">
    <path d="M185.5 279.5c0 18.7 7.4 36.6 20.6 49.9 13.2 13.2 31.2 20.6 49.9 20.6s36.6-7.4 49.9-20.6c13.2-13.2 20.6-31.2 20.6-49.9s-7.4-36.6-20.6-49.9C292.7 216.4 274.7 209 256 209s-36.6 7.4-49.9 20.6c-13.2 13.2-20.6 31.2-20.6 49.9M444 434.4V162L303 21H115c-12.5 0-24.4 5-33.2 13.8S68 55.6 68 68v376c0 12.5 5 24.4 13.8 33.2S102.6 491 115 491h282c10.6 0 20-3.5 28-9.4L320.9 377.5C302.1 389.7 279.5 397 256 397s-61-12.4-83.1-34.4c-22-22-34.4-51.9-34.4-83.1s12.4-61 34.4-83.1c22-22 51.9-34.4 83.1-34.4s61 12.4 83.1 34.4c22 22 34.4 51.9 34.4 83.1s-7.3 46.1-19.5 64.6l90 90.2Z"/>
</svg>
