<svg xmlns="http://www.w3.org/2000/svg" width="512" height="512" viewBox="0 0 512 512">
  <path d="M322.681,56h-133.362c-18.298,0-33.362,14.979-33.362,33.362v266.638c0,18.298,14.979,33.362,33.362,33.362h200c18.298,0,33.362-14.979,33.362-33.362v-200l-100-100ZM389.404,356h-200V89.362h116.681v83.319h83.319v183.319ZM122.681,122.638v300h266.638v33.362H122.681c-18.298,0-33.362-14.979-33.362-33.362V122.638h33.362ZM222.681,222.638v33.362h133.362v-33.362h-133.362ZM222.681,289.362v33.362h83.319v-33.362h-83.319Z"/>
</svg>