<?xml version="1.0" encoding="UTF-8"?>
<svg id="Layer_1" xmlns="http://www.w3.org/2000/svg" version="1.1" viewBox="0 0 500 500">
  <!-- Generator: Adobe Illustrator 29.1.0, SVG Export Plug-In . SVG Version: 2.1.0 Build 142)  -->
  <path d="M182.5,272.5c0,17.9,7,35,19.7,47.8,12.7,12.7,29.8,19.7,47.8,19.7s35-7,47.8-19.7c12.7-12.7,19.7-29.8,19.7-47.8s-7-35-19.7-47.8c-12.7-12.7-29.8-19.7-47.8-19.7s-35,7-47.8,19.7c-12.7,12.7-19.7,29.8-19.7,47.8M430,420.9V160L295,25H115c-12,0-23.3,4.8-31.8,13.2s-13.2,20-13.2,31.8v360c0,12,4.8,23.3,13.2,31.8s20,13.2,31.8,13.2h270c10.1,0,19.1-3.4,26.9-9l-99.7-99.7c-18,11.7-39.7,18.7-62.2,18.7s-58.4-11.8-79.6-32.9c-21.1-21.1-32.9-49.6-32.9-79.6s11.8-58.4,32.9-79.6c21.1-21.1,49.6-32.9,79.6-32.9s58.4,11.8,79.6,32.9c21.1,21.1,32.9,49.6,32.9,79.6s-7,44.2-18.7,61.9l86.2,86.3h0Z"/>
</svg>