<svg xmlns="http://www.w3.org/2000/svg" width="512" height="512" viewBox="0 0 512 512">
  <path d="M441,209.943H110.25l328.125-65.375c8.125-1.5,13.5-9.375,11.875-17.375l-8.5-43.625c-1.5-8.125-9.375-13.25-17.625-11.75L68.25,142.443c-8.125,1.5-13.5,9.375-11.875,17.25l8.5,43.625c.625,2.75,2,5,3.75,6.875-7.125,1.125-12.625,6.875-12.625,14.375v201.125c0,8.125,6.75,14.75,15,14.75h370c8.25,0,15-6.625,15-14.75v-201c0-8.125-6.75-14.75-15-14.75M303.125,396.818l-48.75-34.875-48.75,34.875,18.75-56.125-48.875-34.625h60.25l18.5-56.125,18.5,56.125h60.25l-48.875,34.625,19,56.125Z"/>
</svg>