<?xml version="1.0" encoding="UTF-8"?>
<svg id="Layer_1" xmlns="http://www.w3.org/2000/svg" version="1.1" viewBox="0 0 500 500">
  <!-- Generator: Adobe Illustrator 29.1.0, SVG Export Plug-In . SVG Version: 2.1.0 Build 142)  -->
  <path d="M458.1,198.2H86l369.1-73.5c9.1-1.7,15.2-10.5,13.4-19.5l-9.6-49.1c-1.7-9.1-10.5-14.9-19.8-13.2L38.8,122.2c-9.1,1.7-15.2,10.5-13.4,19.4l9.6,49.1c.7,3.1,2.2,5.6,4.2,7.7-8,1.3-14.2,7.7-14.2,16.2v226.3c0,9.1,7.6,16.6,16.9,16.6h416.3c9.3,0,16.9-7.5,16.9-16.6v-226.1c0-9.1-7.6-16.6-16.9-16.6M303,408.4l-54.8-39.2-54.8,39.2,21.1-63.1-55-39h67.8l20.8-63.1,20.8,63.1h67.8l-55,39,21.4,63.1Z"/>
</svg>