<svg xmlns="http://www.w3.org/2000/svg" width="512" height="512" viewBox="0 0 512 512">
  <defs>
    <style>
      .st0 {
        fill-rule: evenodd;
      }
    </style>
  </defs>
  <path class="st0" d="M421.861,83.791c-38.315-14.756-61.388,23.741-95.812,23.741-40.412,0-58.116-51.532-135.093-51.532-30.149,0-55.01,15.151-57.981,31.272v195.511c4.87-14.463,32.257-28.397,59.643-28.397,66.439,0,87.13,56.275,145.454,56.275,27.994,0,56.823-6.306,71.184-20.153,16.369-52.655-20.048-150.199,12.604-206.717M111.558,56h-14.244c-3.963,0-7.175,3.213-7.175,7.175v385.649c0,3.963,3.213,7.175,7.175,7.175h14.244c3.963,0,7.175-3.213,7.175-7.175V63.175c0-3.963-3.213-7.175-7.175-7.175"/>
</svg>