<?xml version="1.0" encoding="UTF-8"?>
<svg width="512px" height="512px" viewBox="0 0 512 512" version="1.1" xmlns="http://www.w3.org/2000/svg" xmlns:xlink="http://www.w3.org/1999/xlink">
    <!-- Generator: Sketch 62 (91390) - https://sketch.com -->
    <title>flag</title>
    <desc>Created with Sketch.</desc>
    <g id="flag" stroke="none" stroke-width="1" fill="none" fill-rule="evenodd">
        <path d="M398.1,188.15 C368.3,193.05 319.6,194.45 287.2,133.05 C252.5,67.15 196.5,65.15 163.8,71.15 C147.9,74.05 136,87.45 136,100.35 L136,264.25 C145.4,267.85 155.5,264.05 158.1,263.55 C158.8,263.35 159.4,263.25 160.1,263.15 C180.9,258.55 202.9,256.35 257.5,282.55 C325.9,315.35 385.7,254.95 408.9,212.95 C410.6,210.05 416.2,196.15 416.2,182.75 C407.9,186.15 398.1,188.15 398.1,188.15 L398.1,188.15 Z M116,62.75 L102.7,62.75 C99,62.75 96,65.75 96,69.45 L96,429.55 C96,433.25 99,436.25 102.7,436.25 L116,436.25 C119.7,436.25 122.7,433.25 122.7,429.55 L122.7,69.45 C122.7,65.75 119.7,62.75 116,62.75 Z" id="Shape" fill="#000000" fill-rule="nonzero"></path>
    </g>
</svg>