<?xml version="1.0" encoding="UTF-8"?>
<svg id="Layer_1" xmlns="http://www.w3.org/2000/svg" version="1.1" viewBox="0 0 500 500">
  <!-- Generator: Adobe Illustrator 29.1.0, SVG Export Plug-In . SVG Version: 2.1.0 Build 142)  -->
  <defs>
    <style>
      .st0 {
        fill-rule: evenodd;
      }
    </style>
  </defs>
  <path class="st0" d="M436.6,56.3c-43.1-16.6-69.1,26.7-107.8,26.7s-65.4-58-152-58-61.9,17-65.2,35.2v219.9c5.5-16.3,36.3-31.9,67.1-31.9,74.7,0,98,63.3,163.6,63.3s63.9-7.1,80.1-22.7c18.4-59.2-22.6-169,14.2-232.6M87.5,25h-16c-4.5,0-8.1,3.6-8.1,8.1v433.9c0,4.5,3.6,8.1,8.1,8.1h16c4.5,0,8.1-3.6,8.1-8.1V33.1c0-4.5-3.6-8.1-8.1-8.1"/>
</svg>