<svg xmlns="http://www.w3.org/2000/svg" width="512" height="512" viewBox="0 0 512 512">
    <path fill-rule="nonzero" d="M398.1 188.15c-29.8 4.9-78.5 6.3-110.9-55.1-34.7-65.9-90.7-67.9-123.4-61.9-15.9 2.9-27.8 16.3-27.8 29.2v163.9c9.4 3.6 19.5-.2 22.1-.7.7-.2 1.3-.3 2-.4 20.8-4.6 42.8-6.8 97.4 19.4 68.4 32.8 128.2-27.6 151.4-69.6 1.7-2.9 7.3-16.8 7.3-30.2-8.3 3.4-18.1 5.4-18.1 5.4zM116 62.75h-13.3c-3.7 0-6.7 3-6.7 6.7v360.1c0 3.7 3 6.7 6.7 6.7H116c3.7 0 6.7-3 6.7-6.7V69.45c0-3.7-3-6.7-6.7-6.7z"/>
</svg>
