<?xml version="1.0" encoding="UTF-8"?>
<svg id="Layer_1" xmlns="http://www.w3.org/2000/svg" version="1.1" viewBox="0 0 500 500">
  <!-- Generator: Adobe Illustrator 29.1.0, SVG Export Plug-In . SVG Version: 2.1.0 Build 142)  -->
  <path d="M231.6,106.9l39,43.8h165.4c21.5,0,39,17.5,39,39v170.4c0,13.9-7.3,26.1-18.1,33,6-8.4,8.7-18.7,7.5-29.1l-8.2-170.3c0-15.7-9.3-28.7-29.1-28.7H66.2v-19c0-21.5,17.5-39,38.8-39h126.6ZM359.1,260.2c20.2,0,28.5,6.3,38.1,23.8l58.9,75.6c1.7,17.1-10.9,31.2-28.7,33.2-1.4.1-2.9.3-4.5.3H111.8c-20.2,0-34.4-16.2-40.1-33.3l-45-60.3c-6.5-19.2,6-39.1,27.6-39.1s1.8-.1,2.7-.1h302.1ZM425.3,201.8l25,117.1-38.1-65.5c-7-18.8-19.7-28.1-42.7-28.1H54.4l-13.3-23.5h384.1Z"/>
</svg>