<svg xmlns="http://www.w3.org/2000/svg" width="512" height="512" viewBox="0 0 512 512">
    <path fill-rule="nonzero" d="M224.5 137.5l30.5 34.3h129.5c16.8 0 30.5 13.7 30.5 30.5v133.4c0 10.9-5.7 20.4-14.2 25.8 4.7-6.6 6.8-14.6 5.9-22.8l-6.4-133.3c0-12.3-7.3-22.5-22.8-22.5H95V168c0-16.8 13.7-30.5 30.4-30.5h99.1zm99.8 120c15.8 0 22.3 4.9 29.8 18.6l46.1 59.2c1.3 13.4-8.5 24.4-22.5 26-1.1.1-2.3.2-3.5.2H130.7c-15.8 0-26.9-12.7-31.4-26.1l-35.2-47.2c-5.1-15 4.7-30.6 21.6-30.6.7 0 1.4-.1 2.1-.1h236.5zm51.8-45.7l19.6 91.7-29.8-51.3c-5.5-14.7-15.4-22-33.4-22H85.8l-10.4-18.4h300.7z"/>
</svg>
