<?xml version="1.0" encoding="UTF-8"?>
<svg width="512px" height="512px" viewBox="0 0 512 512" version="1.1" xmlns="http://www.w3.org/2000/svg" xmlns:xlink="http://www.w3.org/1999/xlink">
    <!-- Generator: Sketch 62 (91390) - https://sketch.com -->
    <title>folder-open</title>
    <desc>Created with Sketch.</desc>
    <g id="folder-open" stroke="none" stroke-width="1" fill="none" fill-rule="evenodd">
        <path d="M224.5,137.5 L255,171.8 L384.5,171.8 C401.3,171.8 415,185.5 415,202.3 L415,202.3 L415,335.7 C415,346.6 409.3,356.1 400.8,361.5 C405.5,354.9 407.6,346.9 406.7,338.7 L406.7,338.7 L400.3,205.4 C400.3,193.1 393,182.9 377.5,182.9 L377.5,182.9 L95,182.9 L95,168 C95,151.2 108.7,137.5 125.4,137.5 L125.4,137.5 L224.5,137.5 Z M324.3,257.5 C340.1,257.5 346.6,262.4 354.1,276.1 L400.2,335.3 C401.5,348.7 391.7,359.7 377.7,361.3 C376.6,361.4 375.4,361.5 374.2,361.5 L130.7,361.5 C114.9,361.5 103.8,348.8 99.3,335.4 L64.1,288.2 C59,273.2 68.8,257.6 85.7,257.6 C86.4,257.6 87.1,257.5 87.8,257.5 L324.3,257.5 Z M376.1,211.8 L395.7,303.5 L365.9,252.2 C360.4,237.5 350.5,230.2 332.5,230.2 L332.5,230.2 L85.8,230.2 L75.4,211.8 L376.1,211.8 Z" id="Combined-Shape" fill="#000000" fill-rule="nonzero"></path>
    </g>
</svg>