<svg xmlns="http://www.w3.org/2000/svg" width="512" height="512" viewBox="0 0 512 512">
  <path d="M239.677,128.818l34.634,38.949h147.054c19.077,0,34.634,15.557,34.634,34.634v151.483c0,12.378-6.473,23.165-16.125,29.297,5.337-7.495,7.722-16.579,6.7-25.891l-7.268-151.369c0-13.967-8.29-25.55-25.891-25.55H92.623v-16.92c0-19.077,15.557-34.634,34.521-34.634h112.533ZM353.005,265.084c17.942,0,25.323,5.564,33.839,21.121l52.349,67.225c1.476,15.216-9.652,27.707-25.55,29.524-1.249.114-2.612.227-3.974.227H133.162c-17.942,0-30.546-14.422-35.656-29.638l-39.971-53.598c-5.791-17.033,5.337-34.748,24.528-34.748.795,0,1.59-.114,2.385-.114h268.558ZM411.827,213.19l22.257,104.13-33.839-58.254c-6.246-16.693-17.488-24.982-37.927-24.982H82.176l-11.81-20.894h341.461Z"/>
</svg>