<svg xmlns="http://www.w3.org/2000/svg" width="512" height="512" viewBox="0 0 512 512">
  <path id="content" d="M265.511,358.933c0,6.4.8,12.533,1.689,18.756H94.133c-20.978,0-38.133-16.622-38.133-37.422V115.644c0-20.8,16.978-37.422,38.133-37.422h114.311l38.133,37.422h152.356c20.978,0,38.133,16.622,38.133,37.422v108.711c-11.644-6.578-24.356-11.022-38.133-13.511v-95.289H94.133v187.111h173.156c-.978,6.133-1.689,12.356-1.689,18.756l-.089.089ZM398.844,340.178v-56.178h-38.133v56.178h-57.156v37.422h57.156v56.178h38.133v-56.178h57.156v-37.422h-57.156Z"/>
</svg>