<?xml version="1.0" encoding="UTF-8"?>
<svg id="Layer_1" xmlns="http://www.w3.org/2000/svg" version="1.1" viewBox="0 0 500 500">
  <!-- Generator: Adobe Illustrator 29.1.0, SVG Export Plug-In . SVG Version: 2.1.0 Build 142)  -->
  <path d="M268.3,475c23,0,44.3-2,64-6.1,19.6-4.1,36.7-11.6,51.1-22.6,12.8-9.6,23.5-21.4,32.1-35.4,13.4-21.2,20.1-45.1,20.1-71.7s-5.9-47.8-17.6-65.9-29.1-31.3-52.1-39.7c15.1-7.7,26.5-16.3,34.2-25.6,13.8-16.7,20.8-38.8,20.8-66.2s-6.9-49.6-20.8-68.7c-23-31.1-62.1-47.1-117.2-47.9H64.4v450h203.9ZM264.7,202.4h-110.5v-99.2h98.9c21.8,0,39.7,2.3,53.7,7,16.3,6.7,24.4,20.6,24.4,41.5,0,18.9-6.2,32.1-18.5,39.5-12.3,7.4-28.3,11.1-48.1,11.1M264.7,396.8h-110.5v-120h112c19.5.2,34.7,2.7,45.5,7.6,19.3,8.8,29,24.8,29,48.2s-10,46.4-29.9,56.2c-11,5.3-26.4,7.9-46.1,7.9"/>
</svg>