<?xml version="1.0" encoding="UTF-8"?>
<svg id="Layer_1" xmlns="http://www.w3.org/2000/svg" version="1.1" viewBox="0 0 500 500">
  <!-- Generator: Adobe Illustrator 29.1.0, SVG Export Plug-In . SVG Version: 2.1.0 Build 142)  -->
  <defs>
    <style>
      .st0 {
        fill-rule: evenodd;
      }
    </style>
  </defs>
  <path d="M250.1,354.2c65.1,0,109.2-20.4,132.3-61.3,12.4-22.3,18.6-53.4,18.6-93.4V25h-79.8v174.5c0,25.9-3.1,44.8-9.2,56.7-9.5,21.1-30.2,31.6-61.9,31.6s-52.7-10.5-62.2-31.6c-6.1-11.9-9.2-30.8-9.2-56.7V25h-79.8v174.5c0,40,6.2,71.1,18.6,93.4,23.3,40.8,67.5,61.3,132.5,61.3"/>
  <path class="st0" d="M99,407.3h302v67.7H99v-67.7Z"/>
</svg>