<svg xmlns="http://www.w3.org/2000/svg" width="512" height="512" viewBox="0 0 512 512">
    <path d="M278.476 425.704q26.019 0 48.24-4.605 22.22-4.605 38.57-17.04 14.506-10.822 24.177-26.71 15.197-23.948 15.197-54.112 0-29.244-13.24-49.737t-39.26-29.934q17.04-8.75 25.79-19.342 15.658-18.882 15.658-49.967 0-30.165-15.658-51.81-26.02-35.23-88.421-36.15H124.66v339.407zm-2.763-205.625h-83.355v-74.836h74.605q24.638 0 40.526 5.296 18.42 7.6 18.421 31.316 0 21.415-13.93 29.82-13.932 8.404-36.267 8.404m0 146.678h-83.355v-90.494h84.506q22.105.231 34.31 5.757 21.874 9.9 21.874 36.381 0 31.316-22.565 42.369-12.435 5.987-34.77 5.987"/>
</svg>
