<svg xmlns="http://www.w3.org/2000/svg" width="512" height="512" viewBox="0 0 512 512">
  <defs>
    <style>
      .st0 {
        fill-rule: evenodd;
      }
    </style>
  </defs>
  <path d="M371.967,304.889c.181.345.359.692.536,1.041,7.052,13.916,10.578,28.49,10.578,43.722,0,28.962-11.236,53.927-33.709,74.896-22.473,20.968-51.387,31.452-86.742,31.452-11.096,0-21.533-.846-31.311-2.539-5.83-.941-17.913-4.373-36.249-10.296-18.336-5.924-29.948-8.887-34.838-8.887-4.701,0-8.416,1.411-11.142,4.232-2.727,2.82-4.748,8.65-6.064,17.489h-10.438v-131.171h10.438l.204,1.14c4.867,26.887,11.381,47.052,19.541,60.497,8.275,13.633,20.922,24.964,37.941,33.991,17.019,9.027,35.684,13.541,55.994,13.54,23.507,0,42.078-6.206,55.711-18.618,13.635-12.411,20.452-27.08,20.452-44.006,0-9.403-2.586-18.9-7.758-28.49-5.171-9.591-13.21-18.524-24.118-26.799-3.241-2.493-8.959-6.224-17.156-11.194h88.129ZM357.693,56v132.3h-10.437l-.163-1.206c-3.415-24.824-9.425-44.639-18.031-59.444-8.745-15.044-21.204-26.986-37.378-35.824-16.173-8.839-32.91-13.259-50.211-13.259-19.558,0-35.731,5.971-48.519,17.913-12.789,11.941-19.183,25.529-19.182,40.761,0,11.659,4.043,22.284,12.13,31.876,8.019,9.7,23.643,21.624,46.872,35.772h-90.384c-.96-1.554-1.877-3.136-2.75-4.742-7.147-13.164-10.72-27.645-10.719-43.441,0-27.457,10.531-51.105,31.593-70.944,21.061-19.841,47.859-29.762,80.393-29.761,20.311,0,41.844,4.984,64.599,14.951,10.531,4.701,17.959,7.051,22.284,7.052,4.889,0,8.885-1.458,11.989-4.373s5.596-8.792,7.476-17.63h10.438Z"/>
  <path class="st0" d="M56,237.111h400v37.778H56v-37.778Z"/>
</svg>