<?xml version="1.0" encoding="UTF-8"?>
<svg id="Layer_1" xmlns="http://www.w3.org/2000/svg" version="1.1" viewBox="0 0 500 500">
  <!-- Generator: Adobe Illustrator 29.1.0, SVG Export Plug-In . SVG Version: 2.1.0 Build 142)  -->
  <path d="M295.8,92.9c9.3,0,17.3-3.3,23.9-10,6.7-6.7,10-14.6,10-23.9,0-9.5-3.3-17.5-9.8-24.1-6.6-6.6-14.6-9.8-24.1-9.8s-17.5,3.3-24.1,9.8c-6.6,6.6-9.8,14.6-9.8,24.1,0,9.3,3.3,17.3,10,23.9,6.7,6.7,14.6,10,23.9,10M201.8,475c14,0,28.7-6,44.1-18,20.8-16.1,38.9-35.9,54.3-59.4l-11.9-7.8c-13.1,18.8-26.1,33.3-39,43.4-4.8,3.6-8.8,5.4-12.2,5.4s-5.5-1.1-7.6-3.4c-2.1-2.3-3.2-5.2-3.2-8.8s2.3-12.8,6.8-28.8l67.2-237.9-117.1,19v13.2c15.6-2.5,25.9-3.7,30.9-3.7,6.1,0,10.9,1.6,14.4,4.8,3.5,3.2,5.3,7.2,5.3,12.2s-3.6,21.9-10.9,46.8l-44.1,152c-5.7,19.5-8.5,33.4-8.5,41.7,0,8.4,2.9,15.3,8.8,20.9,5.9,5.5,13.5,8.3,22.7,8.3"/>
</svg>