<svg xmlns="http://www.w3.org/2000/svg" width="512" height="512" viewBox="0 0 512 512">
  <path d="M272.283,456c20.443,0,39.393-1.809,56.852-5.427,17.458-3.618,32.61-10.312,45.456-20.082,11.397-8.503,20.895-18.995,28.493-31.478,11.94-18.816,17.91-40.073,17.91-63.772,0-22.977-5.201-42.515-15.604-58.616s-25.825-27.86-46.269-35.278c13.388-6.875,23.519-14.473,30.394-22.795,12.302-14.835,18.453-34.464,18.453-58.887,0-23.7-6.151-44.053-18.453-61.059-20.443-27.68-55.179-41.881-104.206-42.604H91.006v400h181.276ZM269.026,213.666h-98.236v-88.196h87.924c19.358,0,35.278,2.08,47.761,6.241,14.472,5.971,21.709,18.273,21.71,36.907,0,16.825-5.472,28.54-16.417,35.144-10.946,6.603-25.193,9.904-42.742,9.904M269.026,386.529h-98.236v-106.65h99.593c17.368.181,30.846,2.443,40.435,6.785,17.186,7.778,25.779,22.07,25.779,42.876,0,24.605-8.864,41.249-26.593,49.933-9.77,4.704-23.429,7.056-40.977,7.056"/>
</svg>