<svg xmlns="http://www.w3.org/2000/svg" width="512" height="512" viewBox="0 0 512 512">
    <path d="M293.873 126.109q11.502-.001 19.779-8.276t8.276-19.779q0-11.782-8.136-19.918T293.873 70t-19.918 8.136-8.136 19.918q0 11.502 8.276 19.779t19.778 8.276M216.163 442q17.394 0 36.47-14.869 25.811-19.918 44.887-49.095l-9.819-6.452q-16.27 23.284-32.262 35.91-5.892 4.488-10.1 4.488-3.646 0-6.312-2.806-2.665-2.805-2.665-7.294 0-3.927 5.61-23.846l55.548-196.66-96.787 15.71v10.941q19.358-3.086 25.53-3.086 7.575 0 11.923 3.928t4.348 10.1q0 7.854-8.977 38.714l-36.471 125.684q-7.014 24.126-7.014 34.506t7.295 17.254Q204.66 442 216.163 442"/>
</svg>
