<svg xmlns="http://www.w3.org/2000/svg" width="512" height="512" viewBox="0 0 512 512">
    <g fill-rule="evenodd">
        <path fill-rule="nonzero" d="M360.37 300c.163.311.323.623.482.937 6.347 12.524 9.52 25.641 9.52 39.35 0 26.066-10.112 48.534-30.338 67.406C319.808 426.564 293.786 436 261.966 436c-9.986 0-19.38-.762-28.18-2.285-5.247-.846-16.122-3.935-32.624-9.266-16.502-5.332-26.953-7.998-31.354-7.998-4.231 0-7.574 1.27-10.028 3.809-2.454 2.538-4.274 7.785-5.458 15.74h-9.394V317.946h9.394l.184 1.026c4.381 24.198 10.243 42.347 17.587 54.447 7.447 12.27 18.83 22.468 34.147 30.592 15.317 8.124 32.115 12.186 50.395 12.186 21.156 0 37.87-5.585 50.14-16.756 12.272-11.17 18.407-24.372 18.407-39.605 0-8.462-2.327-17.01-6.982-25.641-4.654-8.632-11.89-16.672-21.706-24.119-2.917-2.243-8.063-5.602-15.44-10.075zM347.524 76v119.07h-9.393l-.147-1.085c-3.074-22.341-8.483-40.175-16.228-53.5-7.87-13.54-19.084-24.288-33.64-32.242-14.555-7.955-29.619-11.933-45.19-11.933-17.602 0-32.158 5.374-43.667 16.122-11.51 10.747-17.264 22.976-17.264 36.685 0 10.494 3.64 20.056 10.917 28.688 7.217 8.73 21.279 19.462 42.185 32.195l-81.346.001a88.639 88.639 0 0 1-2.475-4.269c-6.432-11.848-9.647-24.88-9.647-39.097 0-24.711 9.478-45.995 28.434-63.85C189.018 84.927 213.137 76 242.417 76c18.28 0 37.66 4.485 58.139 13.456 9.478 4.23 16.163 6.347 20.056 6.347 4.4 0 7.997-1.312 10.79-3.936 2.793-2.623 5.035-7.912 6.728-15.867h9.393z"/>
        <path d="M76 239h360v34H76z"/>
    </g>
</svg>
