<?xml version="1.0" encoding="UTF-8"?>
<svg id="Layer_1" xmlns="http://www.w3.org/2000/svg" version="1.1" viewBox="0 0 500 500">
  <!-- Generator: Adobe Illustrator 29.1.0, SVG Export Plug-In . SVG Version: 2.1.0 Build 142)  -->
  <defs>
    <style>
      .st0 {
        fill-rule: evenodd;
      }
    </style>
  </defs>
  <path d="M380.5,305c.2.4.4.8.6,1.2,7.9,15.7,11.9,32.1,11.9,49.2,0,32.6-12.6,60.7-37.9,84.3s-57.8,35.4-97.6,35.4-24.2-1-35.2-2.9c-6.6-1.1-20.2-4.9-40.8-11.6-20.6-6.7-33.7-10-39.2-10s-9.5,1.6-12.5,4.8c-3.1,3.2-5.3,9.7-6.8,19.7h-11.7v-147.6h11.7l.2,1.3c5.5,30.2,12.8,52.9,22,68.1,9.3,15.3,23.5,28.1,42.7,38.2,19.1,10.2,40.1,15.2,63,15.2,26.4,0,47.3-7,62.7-20.9,15.3-14,23-30.5,23-49.5s-2.9-21.3-8.7-32.1c-5.8-10.8-14.9-20.8-27.1-30.1-3.6-2.8-10.1-7-19.3-12.6h99.1ZM364.4,25v148.8h-11.7l-.2-1.4c-3.8-27.9-10.6-50.2-20.3-66.9-9.8-16.9-23.9-30.4-42.1-40.3-18.2-9.9-37-14.9-56.5-14.9s-40.2,6.7-54.6,20.2c-14.4,13.4-21.6,28.7-21.6,45.9,0,13.1,4.5,25.1,13.6,35.9,9,10.9,26.6,24.3,52.7,40.2h-101.7c-1.1-1.7-2.1-3.5-3.1-5.3-8-14.8-12.1-31.1-12.1-48.9,0-30.9,11.8-57.5,35.5-79.8,23.7-22.3,53.8-33.5,90.4-33.5,22.8,0,47.1,5.6,72.7,16.8,11.8,5.3,20.2,7.9,25.1,7.9,5.5,0,10-1.6,13.5-4.9,3.5-3.3,6.3-9.9,8.4-19.8h11.7Z"/>
  <path class="st0" d="M25,228.8h450v42.5H25v-42.5Z"/>
</svg>