<svg xmlns="http://www.w3.org/2000/svg" width="512" height="512" viewBox="0 0 512 512">
    <path d="M278.476 425.704c17.346 0 33.426-1.535 48.24-4.605 14.814-3.07 27.67-8.75 38.57-17.04 9.67-7.215 17.73-16.118 24.177-26.71 10.131-15.965 15.197-34.003 15.197-54.112 0-19.496-4.413-36.075-13.24-49.737-8.827-13.662-21.913-23.64-39.26-29.934 11.36-5.834 19.956-12.28 25.79-19.342 10.438-12.588 15.658-29.244 15.658-49.967 0-20.11-5.22-37.38-15.658-51.81-17.347-23.486-46.82-35.537-88.421-36.15H124.66v339.407zm-2.763-205.625h-83.355v-74.836h74.605c16.425 0 29.934 1.766 40.526 5.296 12.28 5.066 18.421 15.505 18.421 31.316 0 14.277-4.643 24.216-13.93 29.82-9.288 5.602-21.377 8.404-36.267 8.404m0 146.678h-83.355v-90.494h84.506c14.737.154 26.173 2.073 34.31 5.757 14.583 6.6 21.874 18.728 21.874 36.381 0 20.878-7.522 35-22.565 42.369-8.29 3.991-19.88 5.987-34.77 5.987"/>
</svg>
