<svg xmlns="http://www.w3.org/2000/svg" width="512" height="512" viewBox="0 0 512 512">
  <path d="M296.724,116.332c8.245,0,15.334-2.967,21.268-8.899,5.933-5.932,8.9-13.021,8.899-21.268,0-8.446-2.916-15.585-8.748-21.417s-12.972-8.748-21.418-8.748-15.586,2.916-21.417,8.748c-5.832,5.832-8.748,12.971-8.748,21.417,0,8.245,2.966,15.334,8.899,21.268,5.933,5.933,13.021,8.9,21.267,8.899M213.165,456c12.469,0,25.54-5.329,39.215-15.988,18.503-14.278,34.591-31.875,48.266-52.79l-10.558-6.938c-11.663,16.691-23.227,29.562-34.69,38.613-4.224,3.217-7.844,4.826-10.86,4.826-2.614,0-4.876-1.006-6.787-3.017-1.91-2.011-2.866-4.625-2.866-7.843,0-2.815,2.011-11.362,6.032-25.641l59.729-211.462-104.072,16.892v11.765c13.877-2.212,23.027-3.318,27.452-3.318,5.43,0,9.704,1.408,12.82,4.224,3.117,2.816,4.675,6.436,4.675,10.86,0,5.63-3.218,19.506-9.653,41.628l-39.216,135.144c-5.028,17.295-7.542,29.662-7.542,37.103,0,7.441,2.615,13.625,7.844,18.553,5.228,4.927,11.965,7.39,20.211,7.39"/>
</svg>