<svg xmlns="http://www.w3.org/2000/svg" width="512" height="512" viewBox="0 0 512 512">
  <defs>
    <style>
      .st0 {
        fill-rule: evenodd;
      }
    </style>
  </defs>
  <path d="M256.114,348.625c57.848,0,97.042-18.15,117.582-54.45,11.026-19.814,16.539-47.492,16.539-83.036V56h-70.912v155.139c0,22.991-2.719,39.78-8.157,50.367-8.458,18.755-26.809,28.132-55.053,28.132-28.395,0-46.822-9.377-55.28-28.132-5.437-10.588-8.156-27.377-8.156-50.366V56h-70.912v155.139c0,35.545,5.513,63.224,16.539,83.037,20.691,36.3,59.961,54.45,117.809,54.45"/>
  <path class="st0" d="M121.756,395.823h268.487v60.177H121.756v-60.177Z"/>
</svg>