<svg xmlns="http://www.w3.org/2000/svg" width="512" height="512" viewBox="0 0 512 512">
    <g fill-rule="evenodd">
        <path fill-rule="nonzero" d="M256.105 335c49.026 0 82.243-15.382 99.651-46.146 9.344-16.792 14.017-40.25 14.017-70.373V87h-60.098v131.48c0 19.485-2.304 33.713-6.913 42.686-7.168 15.895-22.72 23.842-46.657 23.842-24.065 0-39.681-7.947-46.85-23.842-4.608-8.973-6.912-23.201-6.912-42.685V87h-60.098v131.48c0 30.124 4.672 53.582 14.017 70.374C173.798 319.618 207.079 335 256.105 335"/>
        <path d="M142.237 375H369.78v51H142.237z"/>
    </g>
</svg>
