<svg xmlns="http://www.w3.org/2000/svg" width="512" height="512" viewBox="0 0 512 512">
    <g fill-rule="evenodd">
        <path fill-rule="nonzero" d="M360.37 300q.244.466.482.937 9.52 18.786 9.52 39.35 0 39.099-30.338 67.406T261.966 436q-14.98 0-28.18-2.285-7.87-1.27-32.624-9.266-24.753-7.998-31.354-7.998-6.347 0-10.028 3.809-3.681 3.807-5.458 15.74h-9.394V317.946h9.394l.184 1.026q6.571 36.297 17.587 54.447 11.171 18.405 34.147 30.592t50.395 12.186q31.735 0 50.14-16.756 18.407-16.755 18.407-39.605 0-12.694-6.982-25.641-6.981-12.948-21.706-24.119-4.375-3.365-15.44-10.075zM347.524 76v119.07h-9.393l-.147-1.085q-4.61-33.512-16.228-53.5-11.806-20.31-33.64-32.242-21.833-11.933-45.19-11.933-26.403 0-43.667 16.122-17.265 16.121-17.264 36.685 0 15.74 10.917 28.688Q203.738 190.9 235.097 210l-81.346.001a89 89 0 0 1-2.475-4.269q-9.648-17.772-9.647-39.097 0-37.067 28.434-63.85Q198.496 75.999 242.417 76q27.42 0 58.139 13.456 14.217 6.346 20.056 6.347 6.6 0 10.79-3.936T338.13 76z"/>
        <path d="M76 239h360v34H76z"/>
    </g>
</svg>
