<svg xmlns="http://www.w3.org/2000/svg" width="512" height="512" viewBox="0 0 512 512">
    <path d="M293.873 126.109c7.668 0 14.261-2.76 19.779-8.276 5.517-5.518 8.276-12.11 8.276-19.779 0-7.855-2.712-14.494-8.136-19.918C308.368 72.712 301.729 70 293.873 70c-7.855 0-14.494 2.712-19.918 8.136-5.424 5.424-8.136 12.063-8.136 19.918 0 7.668 2.759 14.261 8.276 19.779 5.517 5.517 12.11 8.276 19.778 8.276zM216.163 442c11.596 0 23.753-4.956 36.47-14.869 17.207-13.279 32.17-29.644 44.887-49.095l-9.819-6.452c-10.847 15.523-21.601 27.493-32.262 35.91-3.928 2.992-7.294 4.488-10.1 4.488-2.431 0-4.535-.935-6.312-2.806-1.777-1.87-2.665-4.301-2.665-7.294 0-2.618 1.87-10.567 5.61-23.846l55.548-196.66-96.787 15.71v10.941c12.905-2.057 21.415-3.086 25.53-3.086 5.05 0 9.024 1.31 11.923 3.928 2.898 2.618 4.348 5.985 4.348 10.1 0 5.236-2.993 18.141-8.977 38.714l-36.471 125.684c-4.676 16.084-7.014 27.586-7.014 34.506 0 6.92 2.432 12.671 7.295 17.254 4.862 4.582 11.128 6.873 18.796 6.873z"/>
</svg>
