<svg xmlns="http://www.w3.org/2000/svg" width="500" height="500" viewBox="0 0 500 500">
    <path d="M362.5 137.5H475v225H362.5v45c0 5.97 2.37 11.69 6.59 15.91S379.03 430 385 430h45v45h-56.25c-12.37 0-33.75-10.12-33.75-22.5 0 12.37-21.37 22.5-33.75 22.5H250v-45h45c5.97 0 11.69-2.37 15.91-6.59s6.59-9.94 6.59-15.91v-315c0-5.97-2.37-11.69-6.59-15.91A22.5 22.5 0 0 0 295 70h-45V25h56.25C318.63 25 340 35.13 340 47.5c0-12.37 21.38-22.5 33.75-22.5H430v45h-45c-5.97 0-11.69 2.37-15.91 6.59a22.5 22.5 0 0 0-6.59 15.91zm-337.5 0h247.5v45H70v135h202.5v45H25zm405 180v-135h-67.5v135z"/>
</svg>
