<svg xmlns="http://www.w3.org/2000/svg" width="512" height="512" viewBox="0 0 512 512">
  <path d="M356,156h100v200h-100v40c0,5.307,2.107,10.391,5.858,14.142,3.751,3.751,8.836,5.858,14.142,5.858h40v40h-50c-10.996,0-30-8.996-30-20,0,10.996-18.996,20-30,20h-50v-40h40c5.307,0,10.391-2.107,14.142-5.858,3.751-3.751,5.858-8.836,5.858-14.142V116c0-5.307-2.107-10.391-5.858-14.142-3.751-3.751-8.838-5.858-14.142-5.858h-40v-40h50c11.004,0,30,9.004,30,20,0-10.996,19.004-20,30-20h50v40h-40c-5.307,0-10.391,2.107-14.142,5.858-3.751,3.751-5.858,8.838-5.858,14.142v40ZM56,156h220v40H96v120h180v40H56v-200ZM416,316v-120h-60v120h60Z"/>
</svg>