<svg xmlns="http://www.w3.org/2000/svg" width="512" height="512" viewBox="0 0 512 512">
    <path fill-rule="evenodd" d="M420 140v220h-68.047c-8.41-8.068-20.194-12.599-25.376-14.452-8.489-3.036-20.696-4.09-28.441-5.763-4.462-.991-10.968-3.47-13.137-6.072-1.038-1.246-1.28-7.477-1.252-13.634l.005-.82c.055-6.413.38-12.5.38-12.5s4.027-6.321 6.196-11.836c2.169-5.515 4.524-20.696 4.524-20.696h.027c.378-.017 4.508-.36 6.045-7.808 1.735-8.55 4.338-12.083 4.028-18.527-.31-5.949-3.408-6.258-3.78-6.258-.372 0 3.222-8.985 3.656-27.946.558-22.37-16.607-44.49-48.89-44.49s-49.386 22.059-48.89 44.49c.33 16.777 3.004 25.79 3.6 27.603l.055.161c.04.121.063.182.063.182-.31 0-3.408.31-3.78 6.258-.31 6.382 2.355 9.79 4.028 18.341 1.561 7.568 5.8 7.917 6.06 7.931h.012s.834 5.374 1.966 10.902l.146.706.149.705.152.702c.663 3.033 1.397 5.909 2.11 7.744 2.17 5.577 6.197 11.835 6.197 11.835s.354 6.6.385 13.297l.002.82c.004 5.875-.262 11.619-1.254 12.838-2.169 2.602-8.675 5.08-13.137 6.072-7.807 1.735-19.952 2.85-28.441 5.887-5.161 1.846-16.872 6.348-25.26 14.328H100V140zM60 340v59.999l60 .001v40l-60-.001V440H20V340zm60-240H60.001L60 160H20l.001-60H20V60h100zm340 60v-59.999L400 100V60l60 .001V60h40v100zm-60 240h59.999l.001-60h40l-.001 60H500v40H400z"/>
</svg>
