<svg xmlns="http://www.w3.org/2000/svg" width="512" height="512" viewBox="0 0 512 512">
    <g fill-rule="evenodd">
        <path d="M58.706 406.405h394.293V107.459H58.706v298.946zm3.825 41.892h387.641c25.146 0 45.531-20.385 45.531-45.53V108.53c0-25.146-20.385-45.531-45.531-45.531H62.531C37.385 62.999 17 83.384 17 108.53v294.237c0 25.145 20.385 45.53 45.531 45.53z"/>
        <path d="M420.235 200L359 138.764h61.235zM155 138.764L93.764 200v-61.236zM359 373.736l61.235-61.236v61.236zM93.764 312.5L155 373.736H93.764z"/>
        <path d="M368.49 176.5v159h-45.814c-4.693-8.617-16.263-13.1-20.631-14.663-5.532-1.978-13.486-2.665-18.534-3.755-2.907-.646-7.147-2.261-8.56-3.957-.623-.748-.807-4.255-.817-7.94v-.74c.014-4.437.252-8.885.252-8.885s2.624-4.118 4.038-7.712c.55-1.4 1.12-3.759 1.61-6.115l.125-.614c.703-3.472 1.212-6.757 1.212-6.757h.013c.208-.008 2.935-.196 3.944-5.088 1.131-5.572 2.827-7.874 2.625-12.073-.202-3.876-2.22-4.078-2.463-4.078-.242 0 2.1-5.855 2.382-18.21.364-14.577-10.821-28.993-31.858-28.993s-32.182 14.375-31.859 28.992c.242 12.316 2.423 18.21 2.423 18.21-.202 0-2.22.203-2.463 4.079-.202 4.159 1.534 6.38 2.624 11.952 1.05 5.088 3.957 5.168 3.957 5.168s.572 3.684 1.338 7.38l.13.616.132.613c.425 1.929.893 3.748 1.348 4.918 1.413 3.634 4.038 7.712 4.038 7.712s.238 4.437.252 8.87v.738c-.01 3.682-.194 7.191-.817 7.957-1.414 1.696-5.653 3.311-8.56 3.957-5.088 1.13-13.002 1.857-18.534 3.836-4.362 1.56-15.9 6.031-20.59 14.581H143.51V176.5h224.98z"/>
    </g>
</svg>
