<svg xmlns="http://www.w3.org/2000/svg" width="512" height="512" viewBox="0 0 512 512">
  <defs>
    <style>
      .st0 {
        fill-rule: evenodd;
      }
    </style>
  </defs>
  <path class="st0" d="M389.333,164.333v183.333h-56.706c-7.008-6.723-16.828-10.499-21.147-12.043-7.074-2.53-17.247-3.408-23.701-4.803-3.718-.826-9.14-2.892-10.947-5.06-.865-1.038-1.067-6.231-1.043-11.362l.004-.683c.046-5.344.317-10.417.317-10.417,0,0,3.356-5.268,5.163-9.863s3.77-17.247,3.77-17.247h.023c.315-.014,3.757-.3,5.038-6.507,1.446-7.125,3.615-10.069,3.357-15.439-.258-4.958-2.84-5.215-3.15-5.215s2.685-7.488,3.047-23.288c.465-18.642-13.839-37.075-40.742-37.075s-41.155,18.383-40.742,37.075c.275,13.981,2.503,21.492,3,23.002l.046.134c.034.101.051.152.053.152-.258,0-2.84.258-3.15,5.215-.258,5.318,1.962,8.158,3.357,15.284,1.301,6.307,4.833,6.597,5.05,6.609h.01s.695,4.478,1.638,9.085l.122.588.124.587.127.585c.552,2.527,1.164,4.924,1.758,6.453,1.808,4.647,5.164,9.862,5.164,9.862,0,0,.295,5.5.321,11.081l.002.683c.003,4.896-.218,9.682-1.045,10.698-1.808,2.168-7.229,4.233-10.947,5.06-6.506,1.446-16.627,2.375-23.701,4.906-4.301,1.538-14.06,5.29-21.05,11.94h-50.084v-183.333h266.667ZM89.333,331v49.999h50v33.334h-50s0,0,0,0h-33.333v-83.333h33.333ZM139.333,131h-49.999v50h-33.334v-50s0,0,0,0v-33.333h83.333v33.333ZM422.667,181v-49.999h-50v-33.334h50s0,0,0,0h33.333v83.333h-33.333ZM372.667,381h49.999v-50h33.334v50s0,0,0,0v33.333h-83.333v-33.333Z"/>
</svg>