<?xml version="1.0" encoding="UTF-8"?>
<svg id="Layer_1" xmlns="http://www.w3.org/2000/svg" version="1.1" viewBox="0 0 500 500">
  <!-- Generator: Adobe Illustrator 29.1.0, SVG Export Plug-In . SVG Version: 2.1.0 Build 142)  -->
  <defs>
    <style>
      .st0 {
        fill-rule: evenodd;
      }
    </style>
  </defs>
  <path class="st0" d="M400,146.9v206.2h-63.8c-7.9-7.6-18.9-11.8-23.8-13.5-8-2.8-19.4-3.8-26.7-5.4-4.2-.9-10.3-3.3-12.3-5.7-1-1.2-1.2-7-1.2-12.8v-.8c0-6,.4-11.7.4-11.7,0,0,3.8-5.9,5.8-11.1s4.2-19.4,4.2-19.4h0c.4,0,4.2-.3,5.7-7.3,1.6-8,4.1-11.3,3.8-17.4-.3-5.6-3.2-5.9-3.5-5.9s3-8.4,3.4-26.2c.5-21-15.6-41.7-45.8-41.7s-46.3,20.7-45.8,41.7c.3,15.7,2.8,24.2,3.4,25.9v.2c0,.1.1.2.1.2-.3,0-3.2.3-3.5,5.9-.3,6,2.2,9.2,3.8,17.2,1.5,7.1,5.4,7.4,5.7,7.4h0s.8,5,1.8,10.2v.7c.1,0,.3.7.3.7v.7c.8,2.8,1.5,5.5,2.1,7.3,2,5.2,5.8,11.1,5.8,11.1,0,0,.3,6.2.4,12.5v.8c0,5.5-.2,10.9-1.2,12-2,2.4-8.1,4.8-12.3,5.7-7.3,1.6-18.7,2.7-26.7,5.5-4.8,1.7-15.8,6-23.7,13.4h-56.3v-206.2h300ZM62.5,334.4v56.2h56.2v37.5h-56.2s0,0,0,0H25v-93.8h37.5ZM118.8,109.4h-56.2v56.2H25v-56.2s0,0,0,0v-37.5h93.8v37.5ZM437.5,165.6v-56.2h-56.2v-37.5h56.2s0,0,0,0h37.5v93.8h-37.5ZM381.2,390.6h56.2v-56.2h37.5v56.2s0,0,0,0v37.5h-93.8v-37.5Z"/>
</svg>