<svg xmlns="http://www.w3.org/2000/svg" width="512" height="512" viewBox="0 0 512 512">
  <path d="M264.4,121.936c-22-2-41.4,14.2-43.4,36.4l-5,57.8h56.4v39.999h-60l-8.8,101.4c-4,44-42.8,76.6-86.8,72.6-25-2.2-47.6-16-60.8-37.4l30-30c6.6,21,29.2,32.8,50,26,15.6-4.8,26.6-18.6,28-34.8l8.4-97.8h-60v-39.999h63.6l5.4-61.4c3.8-44,42.4-76.6,86.6-73,25.2,2.2,48,16.2,61.2,37.8l-30,30c-5-15.4-18.6-26.2-34.8-27.6ZM456,289.135l-28.2-28.2-56.6,56.6-56.6-56.6-28.6,28.2,57,57-57,56.2,28.6,28.2,56.6-56.6,56.6,56.6,28.2-28.2-56.6-56.2,56.6-57Z"/>
</svg>