<svg xmlns="http://www.w3.org/2000/svg" width="512" height="512" viewBox="0 0 512 512">
    <path d="M385.2 249.5c0-19.9 12.3-35.7 30.8-46.5-3.3-11.1-7.8-21.8-13.2-31.8-20.8 5.4-37.5-2.7-51.7-16.8-14.1-14.1-18.4-30.9-13-51.7-10-5.4-20.7-9.8-31.8-13.2-10.8 18.5-30.3 30.8-50.3 30.8-19.9 0-39.5-12.2-50.3-30.8-11.2 3.3-21.8 7.8-31.8 13.2 5.4 20.8 1.1 37.5-13 51.7-14.1 14.1-30.9 22.2-51.6 16.8-5.5 10-9.9 20.7-13.2 31.8 18.5 10.8 30.8 26.6 30.8 46.5s-12.3 39.5-30.8 50.3c3.3 11.2 7.8 21.8 13.2 31.8 20.8-5.4 37.5-1.1 51.6 13 14.2 14.1 18.4 30.9 13 51.7 10.1 5.4 20.7 9.8 31.8 13.2 10.8-18.5 30.4-30.8 50.3-30.8s39.5 12.2 50.3 30.8c11.2-3.3 21.8-7.8 31.8-13.2-5.4-20.8-1.1-37.5 13-51.7 14.1-14.1 30.9-22.3 51.7-16.8 5.4-10.1 9.8-20.8 13.2-31.8-18.5-10.8-30.7-26.6-30.8-46.5zM256 331.4c-45.2 0-81.9-36.7-81.9-81.9s36.7-81.9 81.9-81.9 81.9 36.7 81.9 81.9-36.7 81.9-81.9 81.9z"/>
</svg>
