<svg xmlns="http://www.w3.org/2000/svg" width="512" height="512" viewBox="0 0 512 512">
  <path d="M417.438,256c0-24.875,15.375-44.625,38.5-58.125-4.125-13.875-9.75-27.25-16.5-39.75-26,6.75-46.875-3.375-64.625-21-17.625-17.625-23-38.625-16.25-64.625-12.5-6.75-25.875-12.25-39.75-16.5-13.5,23.125-37.875,38.5-62.875,38.5s-49.375-15.25-62.875-38.5c-14,4.125-27.25,9.75-39.75,16.5,6.75,26,1.375,46.875-16.25,64.625-17.625,17.625-38.625,27.75-64.5,21-6.875,12.5-12.375,25.875-16.5,39.75,23.125,13.5,38.5,33.25,38.5,58.125s-15.375,49.375-38.5,62.875c4.125,14,9.75,27.25,16.5,39.75,26-6.75,46.875-1.375,64.5,16.25,17.75,17.625,23,38.625,16.25,64.625,12.625,6.75,25.875,12.25,39.75,16.5,13.5-23.125,38-38.5,62.875-38.5s49.375,15.25,62.875,38.5c14-4.125,27.25-9.75,39.75-16.5-6.75-26-1.375-46.875,16.25-64.625,17.625-17.625,38.625-27.875,64.625-21,6.75-12.625,12.25-26,16.5-39.75-23.125-13.5-38.375-33.25-38.5-58.125M255.938,358.375c-56.5,0-102.375-45.875-102.375-102.375s45.875-102.375,102.375-102.375,102.375,45.875,102.375,102.375-45.875,102.375-102.375,102.375"/>
</svg>