<?xml version="1.0" encoding="UTF-8"?>
<svg id="Layer_1" xmlns="http://www.w3.org/2000/svg" version="1.1" viewBox="0 0 500 500">
  <!-- Generator: Adobe Illustrator 29.1.0, SVG Export Plug-In . SVG Version: 2.1.0 Build 142)  -->
  <path d="M431.6,250c0-28,17.3-50.2,43.3-65.4-4.6-15.6-11-30.7-18.6-44.7-29.2,7.6-52.7-3.8-72.7-23.6-19.8-19.8-25.9-43.5-18.3-72.7-14.1-7.6-29.1-13.8-44.7-18.6-15.2,26-42.6,43.3-70.7,43.3s-55.5-17.2-70.7-43.3c-15.7,4.6-30.7,11-44.7,18.6,7.6,29.3,1.5,52.7-18.3,72.7-19.8,19.8-43.5,31.2-72.6,23.6-7.7,14.1-13.9,29.1-18.6,44.7,26,15.2,43.3,37.4,43.3,65.4s-17.3,55.5-43.3,70.7c4.6,15.8,11,30.7,18.6,44.7,29.3-7.6,52.7-1.5,72.6,18.3,20,19.8,25.9,43.5,18.3,72.7,14.2,7.6,29.1,13.8,44.7,18.6,15.2-26,42.7-43.3,70.7-43.3s55.5,17.2,70.7,43.3c15.8-4.6,30.7-11,44.7-18.6-7.6-29.2-1.5-52.7,18.3-72.7,19.8-19.8,43.5-31.4,72.7-23.6,7.6-14.2,13.8-29.2,18.6-44.7-26-15.2-43.2-37.4-43.3-65.4M249.9,365.2c-63.6,0-115.2-51.6-115.2-115.2s51.6-115.2,115.2-115.2,115.2,51.6,115.2,115.2-51.6,115.2-115.2,115.2"/>
</svg>