<?xml version="1.0" encoding="UTF-8"?>
<svg width="512px" height="512px" viewBox="0 0 512 512" version="1.1" xmlns="http://www.w3.org/2000/svg" xmlns:xlink="http://www.w3.org/1999/xlink">
    <!-- Generator: Sketch 62 (91390) - https://sketch.com -->
    <title>gear-a</title>
    <desc>Created with Sketch.</desc>
    <g id="gear-a" stroke="none" stroke-width="1" fill="none" fill-rule="evenodd">
        <path d="M385.2,249.5 C385.2,229.6 397.5,213.8 416,203 C412.7,191.9 408.2,181.2 402.8,171.2 C382,176.6 365.3,168.5 351.1,154.4 C337,140.3 332.7,123.5 338.1,102.7 C328.1,97.3 317.4,92.9 306.3,89.5 C295.5,108 276,120.3 256,120.3 C236.1,120.3 216.5,108.1 205.7,89.5 C194.5,92.8 183.9,97.3 173.9,102.7 C179.3,123.5 175,140.2 160.9,154.4 C146.8,168.5 130,176.6 109.3,171.2 C103.8,181.2 99.4,191.9 96.1,203 C114.6,213.8 126.9,229.6 126.9,249.5 C126.9,269.4 114.6,289 96.1,299.8 C99.4,311 103.9,321.6 109.3,331.6 C130.1,326.2 146.8,330.5 160.9,344.6 C175.1,358.7 179.3,375.5 173.9,396.3 C184,401.7 194.6,406.1 205.7,409.5 C216.5,391 236.1,378.7 256,378.7 C275.9,378.7 295.5,390.9 306.3,409.5 C317.5,406.2 328.1,401.7 338.1,396.3 C332.7,375.5 337,358.8 351.1,344.6 C365.2,330.5 382,322.3 402.8,327.8 C408.2,317.7 412.6,307 416,296 C397.5,285.2 385.3,269.4 385.2,249.5 Z M256,331.4 C210.8,331.4 174.1,294.7 174.1,249.5 C174.1,204.3 210.8,167.6 256,167.6 C301.2,167.6 337.9,204.3 337.9,249.5 C337.9,294.7 301.2,331.4 256,331.4 L256,331.4 Z" id="Shape" fill="#000000" fill-rule="nonzero"></path>
    </g>
</svg>