<svg xmlns="http://www.w3.org/2000/svg" width="512" height="512" viewBox="0 0 512 512">
  <defs>
    <style>
      .st0 {
        fill: %2334a353;
      }

      .st1 {
        fill: %23e54335;
      }

      .st2 {
        fill: %23f6b704;
      }

      .st3 {
        fill: %234280ef;
      }
    </style>
  </defs>
  <g id="google">
    <path class="st3" d="M445.951,254.804c0-13.508-1.333-27.46-3.466-40.524h-188.665v77.137h108.063c-4.354,24.794-18.751,46.567-40.079,60.519l64.429,50.121c37.858-35.28,59.719-86.646,59.719-147.253h0Z"/>
    <path class="st0" d="M253.909,449.957c54.031,0,99.354-17.862,132.412-48.344l-64.429-49.677c-17.862,12.175-40.968,19.195-67.984,19.195-52.254,0-96.243-35.28-112.417-82.291l-66.206,51.01c33.947,67.539,102.82,110.196,178.623,110.196v-.089Z"/>
    <path class="st2" d="M141.492,288.307c-8.265-24.794-8.265-51.81,0-76.693l-66.206-51.365c-28.349,56.609-28.349,123.259,0,179.512l66.206-51.365v-.089Z"/>
    <path class="st1" d="M253.909,129.323c28.349-.444,56.164,10.486,76.693,30.037l57.053-57.497c-36.169-33.947-84.069-52.254-133.745-51.81-75.804,0-144.587,42.656-178.623,110.196l66.206,51.365c16.085-47.455,60.074-82.291,112.417-82.291h0Z"/>
  </g>
</svg>