<svg xmlns="http://www.w3.org/2000/svg" width="500" height="500" viewBox="0 0 500 500">
  <defs>
    <style>
      .st0 {fill: %2334a353;}
      .st1 {fill: %23e54335;}
      .st2 {fill: %23f6b704;}
      .st3 {fill: %234280ef;}
    </style>
  </defs>
  <path class="st3" d="M470.5,255.4c0-15.2-1.5-30.9-3.9-45.6h-212.3v86.8h121.6c-4.9,27.9-21.1,52.4-45.1,68.1l72.5,56.4c42.6-39.7,67.2-97.5,67.2-165.7h0Z"/>
  <path class="st0" d="M254.4,475c60.8,0,111.8-20.1,149-54.4l-72.5-55.9c-20.1,13.7-46.1,21.6-76.5,21.6-58.8,0-108.3-39.7-126.5-92.6l-74.5,57.4c38.2,76,115.7,124,201,124Z"/>
  <path class="st2" d="M127.9,293.1c-9.3-27.9-9.3-58.3,0-86.3l-74.5-57.8c-31.9,63.7-31.9,138.7,0,202l74.5-57.8Z"/>
  <path class="st1" d="M254.4,114.2c31.9-.5,63.2,11.8,86.3,33.8l64.2-64.7c-40.7-38.2-94.6-58.8-150.5-58.3-85.3,0-162.7,48-201,124l74.5,57.8c18.1-53.4,67.6-92.6,126.5-92.6Z"/>
</svg>
