<svg xmlns="http://www.w3.org/2000/svg" width="512" height="512" viewBox="0 0 512 512">
  <path d="M135.875,127.5c0,4.625-3.75,8.375-8.375,8.375h-63.125c-4.625,0-8.375-3.75-8.375-8.375v-63.125c0-4.625,3.75-8.375,8.375-8.375h63.125c4.625,0,8.375,3.75,8.375,8.375v63.125ZM296,127.5c0,4.625-3.75,8.375-8.375,8.375h-63.125c-4.625,0-8.375-3.75-8.375-8.375v-63.125c0-4.625,3.75-8.375,8.375-8.375h63.125c4.625,0,8.375,3.75,8.375,8.375v63.125ZM456,127.5c0,4.625-3.75,8.375-8.375,8.375h-63.125c-4.625,0-8.375-3.75-8.375-8.375v-63.125c0-4.625,3.75-8.375,8.375-8.375h63.125c4.625,0,8.375,3.75,8.375,8.375v63.125ZM135.875,287.625c0,4.625-3.75,8.375-8.375,8.375h-63.125c-4.625,0-8.375-3.75-8.375-8.375v-63.125c0-4.625,3.75-8.375,8.375-8.375h63.125c4.625,0,8.375,3.75,8.375,8.375v63.125ZM296,287.625c0,4.625-3.75,8.375-8.375,8.375h-63.125c-4.625,0-8.375-3.75-8.375-8.375v-63.125c0-4.625,3.75-8.375,8.375-8.375h63.125c4.625,0,8.375,3.75,8.375,8.375v63.125ZM456,287.625c0,4.625-3.75,8.375-8.375,8.375h-63.125c-4.625,0-8.375-3.75-8.375-8.375v-63.125c0-4.625,3.75-8.375,8.375-8.375h63.125c4.625,0,8.375,3.75,8.375,8.375v63.125ZM135.875,447.625c0,4.625-3.75,8.375-8.375,8.375h-63.125c-4.625,0-8.375-3.75-8.375-8.375v-63.125c0-4.625,3.75-8.375,8.375-8.375h63.125c4.625,0,8.375,3.75,8.375,8.375v63.125ZM296,447.625c0,4.625-3.75,8.375-8.375,8.375h-63.125c-4.625,0-8.375-3.75-8.375-8.375v-63.125c0-4.625,3.75-8.375,8.375-8.375h63.125c4.625,0,8.375,3.75,8.375,8.375v63.125ZM456,447.625c0,4.625-3.75,8.375-8.375,8.375h-63.125c-4.625,0-8.375-3.75-8.375-8.375v-63.125c0-4.625,3.75-8.375,8.375-8.375h63.125c4.625,0,8.375,3.75,8.375,8.375v63.125Z"/>
</svg>