<?xml version="1.0" encoding="UTF-8"?>
<svg id="Layer_1" xmlns="http://www.w3.org/2000/svg" version="1.1" viewBox="0 0 500 500">
  <!-- Generator: Adobe Illustrator 29.1.0, SVG Export Plug-In . SVG Version: 2.1.0 Build 142)  -->
  <path d="M114.9,105.4c0,5.2-4.2,9.4-9.4,9.4H34.4c-5.2,0-9.4-4.2-9.4-9.4V34.4c0-5.2,4.2-9.4,9.4-9.4h71c5.2,0,9.4,4.2,9.4,9.4v71ZM295,105.4c0,5.2-4.2,9.4-9.4,9.4h-71c-5.2,0-9.4-4.2-9.4-9.4V34.4c0-5.2,4.2-9.4,9.4-9.4h71c5.2,0,9.4,4.2,9.4,9.4v71ZM475,105.4c0,5.2-4.2,9.4-9.4,9.4h-71c-5.2,0-9.4-4.2-9.4-9.4V34.4c0-5.2,4.2-9.4,9.4-9.4h71c5.2,0,9.4,4.2,9.4,9.4v71ZM114.9,285.6c0,5.2-4.2,9.4-9.4,9.4H34.4c-5.2,0-9.4-4.2-9.4-9.4v-71c0-5.2,4.2-9.4,9.4-9.4h71c5.2,0,9.4,4.2,9.4,9.4v71ZM295,285.6c0,5.2-4.2,9.4-9.4,9.4h-71c-5.2,0-9.4-4.2-9.4-9.4v-71c0-5.2,4.2-9.4,9.4-9.4h71c5.2,0,9.4,4.2,9.4,9.4v71ZM475,285.6c0,5.2-4.2,9.4-9.4,9.4h-71c-5.2,0-9.4-4.2-9.4-9.4v-71c0-5.2,4.2-9.4,9.4-9.4h71c5.2,0,9.4,4.2,9.4,9.4v71ZM114.9,465.6c0,5.2-4.2,9.4-9.4,9.4H34.4c-5.2,0-9.4-4.2-9.4-9.4v-71c0-5.2,4.2-9.4,9.4-9.4h71c5.2,0,9.4,4.2,9.4,9.4v71ZM295,465.6c0,5.2-4.2,9.4-9.4,9.4h-71c-5.2,0-9.4-4.2-9.4-9.4v-71c0-5.2,4.2-9.4,9.4-9.4h71c5.2,0,9.4,4.2,9.4,9.4v71ZM475,465.6c0,5.2-4.2,9.4-9.4,9.4h-71c-5.2,0-9.4-4.2-9.4-9.4v-71c0-5.2,4.2-9.4,9.4-9.4h71c5.2,0,9.4,4.2,9.4,9.4v71Z"/>
</svg>