<svg id="content" xmlns="http://www.w3.org/2000/svg" version="1.1" width="512" height="512" viewBox="0 0 512 512">
  <defs>
    <style>
      .st0 {fill: %23161a1d;}
    </style>
  </defs>
  <path class="st0" d="M210.5,310.8l133-98.3c6.5-4.8,15.8-3,19,4.5,16.3,39.5,9,86.9-23.5,119.5s-77.8,39.7-119.1,23.4l-45.2,20.9c64.8,44.4,143.5,33.4,192.7-15.9,39-39.1,51.1-92.3,39.8-140.3h0c-16.4-70.4,4-98.6,45.8-156.3,1-1.4,2-2.7,3-4.1l-55,55.1v-.2l-190.5,191.6M183,334.7c-46.5-44.5-38.5-113.3,1.2-153.1,29.4-29.4,77.5-41.4,119.4-23.8l45.1-20.8c-9.4-6.9-19.6-12.5-30.5-16.7-27.3-11.2-57.3-14-86.2-8.2-28.9,5.8-55.5,20.1-76.3,41-42.2,42.3-55.5,107.3-32.7,162.7,17,41.4-10.9,70.8-39,100.4-10,10.5-20,21-28,32.1l127-113.6"/>
</svg>