<?xml version="1.0" encoding="UTF-8"?>
<svg width="512px" height="512px" viewBox="0 0 512 512" version="1.1" xmlns="http://www.w3.org/2000/svg" xmlns:xlink="http://www.w3.org/1999/xlink">
    <!-- Generator: Sketch 62 (91390) - https://sketch.com -->
    <title>hammer</title>
    <desc>Created with Sketch.</desc>
    <g id="hammer" stroke="none" stroke-width="1" fill="none" fill-rule="evenodd">
        <path d="M379.8,69.5 L338,69.5 C335.3,69.5 333.2,71.7 333.2,74.3 L333.2,78.8 C330,82 324.4,86.7 318.9,86.7 C310.5,86.7 307,73.5 297.9,71.9 C288.8,70.3 276,69.5 267.4,69.5 C258.8,69.5 225.6,70.1 185.4,86.8 C145.2,103.5 127.9,139 127.4,152.2 C127.2,159.2 129.6,169.2 135.4,161.1 C141.2,153 163.8,127.1 181.8,125.2 C199.7,123.4 218.5,125.8 233,139 C246.9,151.6 250.1,163.8 250.1,198.1 L244.8,199.7 C241.3,200.7 239.2,204.3 239.2,206.9 C239.2,206.9 239,212.1 239,263.5 C239,339.5 230.3,424.7 230.3,424.7 C230.3,427.4 232.5,429.5 235.1,429.5 L302.6,429.5 C305.3,429.5 307.4,427.3 307.4,424.7 C307.4,424.7 298.7,339.5 298.7,263.5 C298.7,212.1 298.5,206.9 298.5,206.9 C298.5,204.2 296.7,200.6 292.9,199.7 L286.5,198.1 C286.5,167.4 286.2,154.7 291.6,145.1 C297.2,135.1 309.5,126.7 315.5,124.9 C320.2,123.5 328.4,125.9 333.2,130.1 L333.2,141.8 C333.2,144.5 335.4,146.6 338,146.6 L379.8,146.6 C382.5,146.6 384.6,144.4 384.6,141.8 L384.6,74.3 C384.6,71.7 382.4,69.5 379.8,69.5 L379.8,69.5 Z" id="Path" fill="#000000" fill-rule="nonzero"></path>
    </g>
</svg>