<?xml version="1.0" encoding="UTF-8"?>
<svg id="Layer_1" xmlns="http://www.w3.org/2000/svg" version="1.1" viewBox="0 0 500 500">
  <!-- Generator: Adobe Illustrator 29.1.0, SVG Export Plug-In . SVG Version: 2.1.0 Build 142)  -->
  <path d="M404.8,25h-52.2c-3.4,0-6,2.7-6,6v5.6c-4,4-11,9.9-17.9,9.9-10.5,0-14.9-16.5-26.2-18.5s-27.4-3-38.1-3-52.3.7-102.5,21.6-71.9,65.2-72.5,81.8c-.2,8.8,2.7,21.2,10,11.1s35.5-42.5,58-44.9c22.4-2.3,45.9.7,64,17.2,17.4,15.8,21.4,31,21.4,73.9l-6.6,2c-4.4,1.2-7,5.8-7,9,0,0-.2,6.5-.2,70.7,0,95-10.9,201.5-10.9,201.5,0,3.4,2.7,6,6,6h84.4c3.4,0,6-2.8,6-6,0,0-10.9-106.5-10.9-201.5s-.3-70.8-.3-70.8c0-3.4-2.2-7.9-7-9l-8-2c0-38.4-.4-54.3,6.4-66.2,7-12.5,22.4-23,29.9-25.2,5.9-1.8,16.1,1.2,22.1,6.5v14.6c0,3.4,2.8,6,6,6h52.2c3.4,0,6-2.7,6-6V31c0-3.2-2.8-6-6-6"/>
</svg>