<svg xmlns="http://www.w3.org/2000/svg" width="512" height="512" viewBox="0 0 512 512">
    <path fill-rule="nonzero" d="M379.8 69.5H338c-2.7 0-4.8 2.2-4.8 4.8v4.5c-3.2 3.2-8.8 7.9-14.3 7.9-8.4 0-11.9-13.2-21-14.8-9.1-1.6-21.9-2.4-30.5-2.4-8.6 0-41.8.6-82 17.3s-57.5 52.2-58 65.4c-.2 7 2.2 17 8 8.9s28.4-34 46.4-35.9c17.9-1.8 36.7.6 51.2 13.8 13.9 12.6 17.1 24.8 17.1 59.1l-5.3 1.6c-3.5 1-5.6 4.6-5.6 7.2 0 0-.2 5.2-.2 56.6 0 76-8.7 161.2-8.7 161.2 0 2.7 2.2 4.8 4.8 4.8h67.5c2.7 0 4.8-2.2 4.8-4.8 0 0-8.7-85.2-8.7-161.2 0-51.4-.2-56.6-.2-56.6 0-2.7-1.8-6.3-5.6-7.2l-6.4-1.6c0-30.7-.3-43.4 5.1-53 5.6-10 17.9-18.4 23.9-20.2 4.7-1.4 12.9 1 17.7 5.2v11.7c0 2.7 2.2 4.8 4.8 4.8h41.8c2.7 0 4.8-2.2 4.8-4.8V74.3c0-2.6-2.2-4.8-4.8-4.8z"/>
</svg>
