<svg xmlns="http://www.w3.org/2000/svg" width="512" height="512" viewBox="0 0 512 512">
    <path fill-rule="evenodd" d="M347.077 135.692c3.615-4.218 8.134-6.327 13.558-6.327 5.423 0 9.942 1.959 13.557 5.875 3.616 3.917 5.423 8.286 5.423 13.106v210.596c0 24.706-6.477 44.891-19.432 60.558-12.956 15.667-29.978 23.5-51.068 23.5h-52.423c-6.628 0-12.955-.904-18.98-2.712-6.026-1.807-10.545-3.314-13.558-4.519l-3.616-2.711c-9.038-5.423-19.13-13.407-30.278-23.952-11.148-10.545-20.638-20.487-28.472-29.827a3846.085 3846.085 0 0 1-26.211-31.635c-9.641-11.75-15.366-18.83-17.173-21.24-18.68-20.487-28.02-34.045-28.02-40.673 0-2.41 1.206-4.82 3.616-7.231 13.859-13.256 33.743-8.436 59.654 14.462l25.307 21.692V116.71c0-4.82 1.808-9.038 5.424-12.653 3.615-3.616 8.134-5.423 13.557-5.423s9.943 1.807 13.558 5.423c3.615 3.615 5.423 7.833 5.423 12.653V231.5c0 5.423 2.712 8.135 8.135 8.135s8.134-2.712 8.134-8.135V85.98c0-4.82 1.808-9.188 5.423-13.105C242.231 68.958 246.75 67 252.173 67s9.942 1.958 13.558 5.875c3.615 3.917 5.423 8.285 5.423 13.106v130.154c0 4.82 2.711 7.23 8.134 7.23s8.135-2.41 8.135-7.23V101.346c0-4.82 1.808-9.189 5.423-13.106 3.616-3.916 8.135-5.875 13.558-5.875s9.942 1.959 13.557 5.875c3.616 3.917 5.424 8.286 5.424 13.106v145.52c0 5.422 2.711 8.134 8.134 8.134s8.135-2.712 8.135-8.135v-98.519c0-4.82 1.807-9.038 5.423-12.654z"/>
</svg>
