<svg xmlns="http://www.w3.org/2000/svg" width="512" height="512" viewBox="0 0 512 512">
  <defs>
    <style>
      .st0 {
        fill-rule: evenodd;
      }
    </style>
  </defs>
  <path class="st0" d="M259.853,62.251c-3.853,4.166-5.78,8.814-5.78,13.944v154.807c0,5.768-2.89,8.653-8.67,8.654-5.78,0-8.67-2.885-8.67-8.654v-122.115c0-5.129-1.927-9.616-5.78-13.462-3.853-3.847-8.67-5.77-14.449-5.77-8.67,0-10.596,1.924-14.449,5.77s-5.78,8.333-5.78,13.462v210.576l-26.972-23.077c-27.614-24.36-48.806-29.488-63.577-15.385-2.569,2.565-3.853,5.129-3.853,7.693,0,7.05,9.954,21.474,29.862,43.27,1.927,2.564,8.027,10.096,18.302,22.596,9.252,11.267,18.564,22.485,27.935,33.654,8.348,9.935,18.463,20.512,30.343,31.731,11.881,11.217,22.637,19.71,32.27,25.479l3.853,2.887c3.211,1.282,8.027,2.884,14.449,4.806,6.422,1.924,13.165,2.886,20.229,2.885h55.87c22.477,0,40.619-8.333,54.426-25,13.807-16.667,20.711-38.142,20.711-64.423v-224.039c0-5.127-1.927-9.775-5.78-13.944-3.853-4.166-8.67-6.249-14.449-6.249-8.67,0-10.596,2.244-14.449,6.732-3.853,3.845-5.78,8.332-5.781,13.461v104.808c0,5.77-2.89,8.655-8.67,8.655s-8.669-2.885-8.668-8.655V92.539c0-5.127-1.927-9.775-5.78-13.942-3.853-4.166-8.67-6.249-14.449-6.249s-10.596,2.083-14.449,6.249c-3.853,4.166-5.78,8.814-5.78,13.944v122.115c0,5.128-2.89,7.692-8.67,7.692-5.78,0-8.67-2.564-8.67-7.692V76.192c0-5.128-1.927-9.775-5.78-13.942-3.853-4.166-8.67-6.249-14.449-6.249-8.67,0-10.596,2.083-14.449,6.249h0Z"/>
</svg>