<svg xmlns="http://www.w3.org/2000/svg" width="512" height="512" viewBox="0 0 512 512">
    <path fill-rule="evenodd" d="M246.751 95.092c-3.2 3.46-4.8 7.32-4.8 11.58v128.566c0 4.79-2.4 7.187-7.2 7.187-4.8 0-7.2-2.396-7.2-7.187V133.822c0-4.259-1.6-7.986-4.8-11.18-3.2-3.194-7.2-4.792-12-4.792s-8.8 1.598-12 4.792c-3.2 3.194-4.8 6.921-4.8 11.18v174.882l-22.4-19.165c-22.934-20.23-40.533-24.49-52.8-12.777-2.134 2.13-3.2 4.26-3.2 6.389 0 5.856 8.266 17.833 24.8 35.935 1.6 2.13 6.667 8.384 15.2 18.766a3408.981 3408.981 0 0 0 23.2 27.949c6.933 8.25 15.333 17.035 25.2 26.352 9.866 9.316 18.8 16.37 26.8 21.16l3.2 2.398c2.667 1.064 6.667 2.395 12 3.991 5.334 1.598 10.933 2.396 16.8 2.396h46.4c18.666 0 33.733-6.92 45.2-20.762 11.467-13.842 17.2-31.676 17.2-53.503V161.77c0-4.258-1.6-8.118-4.8-11.58-3.2-3.459-7.2-5.19-12-5.19s-8.8 1.864-12 5.591c-3.2 3.193-4.801 6.92-4.801 11.179v87.042c0 4.792-2.399 7.188-7.2 7.188-4.8 0-7.199-2.396-7.199-7.188V120.246c0-4.258-1.6-8.118-4.8-11.579-3.2-3.46-7.201-5.19-12-5.19-4.8 0-8.8 1.73-12 5.19-3.2 3.46-4.8 7.321-4.8 11.58v101.416c0 4.258-2.4 6.388-7.2 6.388-4.8 0-7.2-2.13-7.2-6.388V106.67c0-4.259-1.6-8.118-4.8-11.579-3.2-3.46-7.2-5.19-12-5.19s-8.8 1.73-12 5.19z"/>
</svg>
