<svg xmlns="http://www.w3.org/2000/svg" width="512" height="512" viewBox="0 0 512 512">
    <path fill-rule="evenodd" d="M246.751 95.092q-4.8 5.19-4.8 11.58v128.566q0 7.186-7.2 7.187-7.2 0-7.2-7.187V133.822q0-6.389-4.8-11.18-4.8-4.792-12-4.792c-7.2 0-8.8 1.598-12 4.792q-4.8 4.791-4.8 11.18v174.882l-22.4-19.165q-34.4-30.346-52.8-12.777-3.2 3.195-3.2 6.389 0 8.783 24.8 35.935 2.4 3.194 15.2 18.766a3409 3409 0 0 0 23.2 27.949q10.4 12.376 25.2 26.352 14.8 13.974 26.8 21.16l3.2 2.398q4 1.597 12 3.991 8 2.397 16.8 2.396h46.4q28 0 45.2-20.762 17.2-20.763 17.2-53.503V161.77q0-6.387-4.8-11.58-4.8-5.19-12-5.19c-7.2 0-8.8 1.864-12 5.591q-4.8 4.79-4.801 11.179v87.042q0 7.188-7.2 7.188t-7.199-7.188V120.246q0-6.387-4.8-11.579-4.8-5.19-12-5.19t-12 5.19-4.8 11.58v101.416q0 6.388-7.2 6.388t-7.2-6.388V106.67q0-6.388-4.8-11.579-4.8-5.19-12-5.19c-7.2 0-8.8 1.73-12 5.19z"/>
</svg>
