<?xml version="1.0" encoding="UTF-8"?>
<svg id="Layer_1" xmlns="http://www.w3.org/2000/svg" version="1.1" viewBox="0 0 500 500">
  <!-- Generator: Adobe Illustrator 29.1.0, SVG Export Plug-In . SVG Version: 2.1.0 Build 142)  -->
  <defs>
    <style>
      .st0 {
        fill-rule: evenodd;
      }
    </style>
  </defs>
  <path class="st0" d="M254.3,32c-4.3,4.7-6.5,9.9-6.5,15.7v174.2c0,6.5-3.3,9.7-9.8,9.7-6.5,0-9.8-3.2-9.8-9.7V84.5c0-5.8-2.2-10.8-6.5-15.1-4.3-4.3-9.8-6.5-16.3-6.5-9.8,0-11.9,2.2-16.3,6.5-4.3,4.3-6.5,9.4-6.5,15.1v236.9l-30.3-26c-31.1-27.4-54.9-33.2-71.5-17.3-2.9,2.9-4.3,5.8-4.3,8.7,0,7.9,11.2,24.2,33.6,48.7,2.2,2.9,9,11.4,20.6,25.4,10.4,12.7,20.9,25.3,31.4,37.9,9.4,11.2,20.8,23.1,34.1,35.7,13.4,12.6,25.5,22.2,36.3,28.7l4.3,3.2c3.6,1.4,9,3.2,16.3,5.4,7.2,2.2,14.8,3.2,22.8,3.2h62.9c25.3,0,45.7-9.4,61.2-28.1,15.5-18.8,23.3-42.9,23.3-72.5V122.4c0-5.8-2.2-11-6.5-15.7-4.3-4.7-9.8-7-16.3-7-9.8,0-11.9,2.5-16.3,7.6-4.3,4.3-6.5,9.4-6.5,15.1v117.9c0,6.5-3.3,9.7-9.8,9.7s-9.8-3.2-9.8-9.7V66.1c0-5.8-2.2-11-6.5-15.7-4.3-4.7-9.8-7-16.3-7s-11.9,2.3-16.3,7c-4.3,4.7-6.5,9.9-6.5,15.7v137.4c0,5.8-3.3,8.7-9.8,8.7-6.5,0-9.8-2.9-9.8-8.7V47.7c0-5.8-2.2-11-6.5-15.7-4.3-4.7-9.8-7-16.3-7-9.8,0-11.9,2.3-16.3,7h0Z"/>
</svg>