<svg xmlns="http://www.w3.org/2000/svg" width="512" height="512" viewBox="0 0 512 512">
    <path d="M403.846 98.615c4.77-5.564 10.73-8.346 17.885-8.346 7.154 0 13.115 2.584 17.884 7.75 4.77 5.167 7.154 10.93 7.154 17.289v277.807c0 32.59-8.545 59.218-25.635 79.885-17.09 20.667-39.544 31-67.365 31h-69.154c-8.743 0-17.09-1.192-25.038-3.577-7.949-2.385-13.91-4.372-17.885-5.961l-4.769-3.577c-11.923-7.154-25.237-17.686-39.942-31.597-14.705-13.91-27.225-27.025-37.558-39.346-10.333-12.32-21.859-26.23-34.577-41.73-12.718-15.5-20.27-24.84-22.654-28.02-24.64-27.025-36.961-44.91-36.961-53.654 0-3.18 1.59-6.358 4.769-9.538 18.282-17.487 44.513-11.128 78.692 19.077l33.385 28.615V73.577c0-6.36 2.384-11.923 7.154-16.692 4.769-4.77 10.73-7.154 17.884-7.154s13.116 2.384 17.885 7.154c4.77 4.769 7.154 10.333 7.154 16.692V225c0 7.154 3.577 10.73 10.73 10.73 7.154 0 10.731-3.576 10.731-10.73V33.039c0-6.36 2.385-12.122 7.154-17.289C265.54 10.583 271.5 8 278.654 8c7.154 0 13.115 2.583 17.884 7.75 4.77 5.167 7.154 10.93 7.154 17.289V204.73c0 6.359 3.577 9.538 10.731 9.538s10.73-3.18 10.73-9.538V53.308c0-6.36 2.385-12.122 7.155-17.289 4.769-5.166 10.73-7.75 17.884-7.75s13.116 2.584 17.885 7.75c4.77 5.167 7.154 10.93 7.154 17.289v191.961c0 7.154 3.577 10.731 10.73 10.731 7.154 0 10.731-3.577 10.731-10.73V115.307c0-6.36 2.385-11.923 7.154-16.693z"/>
</svg>
