<?xml version="1.0" encoding="UTF-8"?>
<svg id="Layer_1" xmlns="http://www.w3.org/2000/svg" version="1.1" viewBox="0 0 500 500">
  <!-- Generator: Adobe Illustrator 29.1.0, SVG Export Plug-In . SVG Version: 2.1.0 Build 142)  -->
  <defs>
    <style>
      .st0 {
        fill-rule: evenodd;
      }
    </style>
  </defs>
  <path class="st0" d="M240.2,97.6c-3,3.3-4.5,6.9-4.5,11v121.8c0,4.5-2.3,6.8-6.8,6.8-4.5,0-6.8-2.3-6.8-6.8v-96.1c0-4-1.5-7.6-4.5-10.6-3-3-6.8-4.5-11.4-4.5-6.8,0-8.3,1.5-11.4,4.5s-4.5,6.6-4.5,10.6v165.7l-21.2-18.2c-21.7-19.2-38.4-23.2-50-12.1-2,2-3,4-3,6.1,0,5.5,7.8,16.9,23.5,34,1.5,2,6.3,7.9,14.4,17.8,7.3,8.9,14.6,17.7,22,26.5,6.6,7.8,14.5,16.1,23.9,25,9.3,8.8,17.8,15.5,25.4,20l3,2.3c2.5,1,6.3,2.3,11.4,3.8,5.1,1.5,10.4,2.3,15.9,2.3h44c17.7,0,32-6.6,42.8-19.7,10.9-13.1,16.3-30,16.3-50.7v-176.3c0-4-1.5-7.7-4.5-11-3-3.3-6.8-4.9-11.4-4.9-6.8,0-8.3,1.8-11.4,5.3-3,3-4.5,6.6-4.5,10.6v82.5c0,4.5-2.3,6.8-6.8,6.8s-6.8-2.3-6.8-6.8v-121.8c0-4-1.5-7.7-4.5-11-3-3.3-6.8-4.9-11.4-4.9s-8.3,1.6-11.4,4.9c-3,3.3-4.5,6.9-4.5,11v96.1c0,4-2.3,6.1-6.8,6.1-4.5,0-6.8-2-6.8-6.1v-108.9c0-4-1.5-7.7-4.5-11-3-3.3-6.8-4.9-11.4-4.9-6.8,0-8.3,1.6-11.4,4.9h0Z"/>
  <path class="st0" d="M102.5,330.2c-3.4,0-6.7-1.3-9.2-3.9-22.9-23.5-22.7-76.1.3-102.4,4.6-5.2,12.7-5.8,18-1.3,5.3,4.5,5.9,12.5,1.3,17.7-15.6,17.7-14,55.5-1.2,68.6,4.8,4.9,4.7,12.8-.2,17.6,0,0-.1.1-.2.2-2.4,2.2-5.5,3.5-8.8,3.5"/>
  <path class="st0" d="M58.5,352.9c-3.3,0-6.7-1.3-9.2-3.9-15.5-16-24.4-42.4-24.3-72.4,0-30,9.2-57.7,25-75.8,4.6-5.2,12.6-5.8,17.9-1.3,5.3,4.5,5.9,12.5,1.3,17.7-11.8,13.4-18.8,35.7-18.8,59.4,0,22.9,6.6,43.9,17.3,54.9,4.8,4.9,4.7,12.8-.2,17.6,0,0-.1.1-.2.2-2.4,2.2-5.5,3.5-8.8,3.5M396.8,331.2c-3.1,0-6-1.1-8.3-3.1-5.3-4.5-5.9-12.5-1.3-17.7,15.6-17.7,14-55.5,1.2-68.6-4.8-4.9-4.7-12.8.2-17.6,0,0,.1-.1.2-.2,5.1-4.8,13.2-4.6,18,.4,22.9,23.5,22.7,76.1-.3,102.4-2.5,2.9-6.1,4.4-9.7,4.4"/>
  <path class="st0" d="M440.3,345.7c-3,0-6-1.1-8.3-3-5.3-4.5-5.9-12.5-1.3-17.7,11.8-13.4,18.8-35.7,18.8-59.4,0-22.9-6.6-43.9-17.3-54.9-4.8-4.9-4.7-12.8.2-17.6,0,0,.1-.1.2-.2,5.1-4.8,13.1-4.6,18,.4,15.5,16,24.4,42.4,24.3,72.4,0,30-9.2,57.7-25,75.8-2.5,2.9-6.1,4.4-9.6,4.4"/>
</svg>