<svg xmlns="http://www.w3.org/2000/svg" width="512" height="512" viewBox="0 0 512 512">
    <g fill-rule="evenodd">
        <path d="M246.751 95.092q-4.8 5.19-4.8 11.58v128.566q0 7.186-7.2 7.187-7.2 0-7.2-7.187V133.822q0-6.389-4.8-11.18-4.8-4.792-12-4.792c-7.2 0-8.8 1.598-12 4.792q-4.8 4.791-4.8 11.18v174.882l-22.4-19.165q-34.4-30.346-52.8-12.777-3.2 3.195-3.2 6.389 0 8.783 24.8 35.935 2.4 3.194 15.2 18.766a3409 3409 0 0 0 23.2 27.949q10.4 12.376 25.2 26.352 14.8 13.974 26.8 21.16l3.2 2.398q4 1.597 12 3.991 8 2.397 16.8 2.396h46.4q28 0 45.2-20.762 17.2-20.763 17.2-53.503V161.77q0-6.387-4.8-11.58-4.8-5.19-12-5.19c-7.2 0-8.8 1.864-12 5.591q-4.8 4.79-4.801 11.179v87.042q0 7.188-7.2 7.188t-7.199-7.188V120.246q0-6.387-4.8-11.579-4.8-5.19-12-5.19t-12 5.19-4.8 11.58v101.416q0 6.388-7.2 6.388t-7.2-6.388V106.67q0-6.388-4.8-11.579-4.8-5.19-12-5.19c-7.2 0-8.8 1.73-12 5.19z"/>
        <path d="M101.307 340.627c-3.544 0-7.082-1.367-9.727-4.083-24.167-24.811-24.012-80.375.303-108.098 4.86-5.541 13.365-6.157 18.998-1.375 5.632 4.782 6.257 13.15 1.397 18.69-16.427 18.732-14.788 58.544-1.248 72.444a13.103 13.103 0 0 1-.405 18.738 13.55 13.55 0 0 1-9.318 3.684"/>
        <path d="M54.939 364.608c-3.532 0-7.058-1.366-9.696-4.082-16.388-16.88-25.752-44.719-25.693-76.38.062-31.71 9.686-60.868 26.408-79.996 4.845-5.541 13.323-6.157 18.938-1.375 5.614 4.781 6.237 13.15 1.393 18.691-12.404 14.188-19.837 37.638-19.886 62.729-.045 24.144 6.939 46.364 18.228 57.99a13.13 13.13 0 0 1-.404 18.738 13.48 13.48 0 0 1-9.288 3.685m357.075-22.862a13.55 13.55 0 0 1-8.794-3.22c-5.631-4.78-6.258-13.149-1.398-18.69 16.428-18.731 14.789-58.543 1.25-72.443a13.1 13.1 0 0 1 .404-18.737c5.372-5.066 13.9-4.887 19.044.398 24.168 24.81 24.012 80.374-.302 108.098-2.665 3.036-6.423 4.594-10.204 4.594"/>
        <path d="M457.97 357.041a13.48 13.48 0 0 1-8.765-3.219c-5.613-4.782-6.238-13.15-1.393-18.691 12.404-14.188 19.837-37.638 19.886-62.728.046-24.144-6.94-46.365-18.227-57.991a13.13 13.13 0 0 1 .403-18.739c5.354-5.063 13.854-4.885 18.983.399 16.389 16.88 25.754 44.718 25.693 76.38-.06 31.71-9.686 60.867-26.408 79.995-2.656 3.037-6.403 4.594-10.171 4.594"/>
    </g>
</svg>
