<svg xmlns="http://www.w3.org/2000/svg" width="512" height="512" viewBox="0 0 512 512">
  <defs>
    <style>
      .st0 {
        fill-rule: evenodd;
      }
    </style>
  </defs>
  <path class="st0" d="M247.327,120.499c-2.695,2.914-4.042,6.164-4.042,9.752v108.266c0,4.034-2.021,6.052-6.063,6.052-4.042,0-6.063-2.017-6.063-6.052v-85.403c0-3.587-1.347-6.725-4.042-9.415-2.695-2.69-6.063-4.035-10.105-4.035-6.063,0-7.411,1.346-10.105,4.035s-4.042,5.828-4.042,9.415v147.269l-18.863-16.139c-19.312-17.036-34.133-20.623-44.463-10.76-1.796,1.794-2.695,3.587-2.695,5.38,0,4.931,6.961,15.018,20.884,30.261,1.347,1.793,5.614,7.061,12.8,15.803,6.47,7.88,12.983,15.725,19.537,23.536,5.839,6.948,12.912,14.345,21.221,22.191,8.309,7.845,15.832,13.785,22.568,17.819l2.695,2.019c2.246.897,5.614,2.017,10.105,3.361,4.491,1.346,9.207,2.018,14.147,2.018h39.074c15.719,0,28.407-5.828,38.063-17.484,9.656-11.656,14.484-26.675,14.484-45.055v-156.684c0-3.586-1.347-6.836-4.042-9.752-2.695-2.914-6.063-4.371-10.105-4.371-6.063,0-7.411,1.57-10.105,4.708-2.695,2.689-4.042,5.827-4.043,9.414v73.298c0,4.035-2.021,6.053-6.063,6.053s-6.063-2.018-6.062-6.053v-108.266c0-3.586-1.347-6.836-4.042-9.751-2.695-2.914-6.063-4.371-10.105-4.371s-7.411,1.457-10.105,4.371c-2.695,2.914-4.042,6.164-4.042,9.752v85.403c0,3.586-2.021,5.379-6.063,5.379-4.042,0-6.063-1.793-6.063-5.379v-96.836c0-3.586-1.347-6.836-4.042-9.751-2.695-2.914-6.063-4.371-10.105-4.371-6.063,0-7.411,1.457-10.105,4.371h0Z"/>
  <path class="st0" d="M124.848,327.265c-2.984,0-5.964-1.151-8.191-3.438-20.351-20.893-20.221-67.684.255-91.03,4.093-4.666,11.255-5.185,15.998-1.158,4.743,4.027,5.269,11.074,1.176,15.739-13.833,15.774-12.453,49.3-1.051,61.005,4.265,4.352,4.195,11.338-.158,15.604-.06.059-.122.118-.183.176-2.123,1.999-4.931,3.109-7.847,3.102"/>
  <path class="st0" d="M85.801,347.46c-2.974,0-5.944-1.15-8.165-3.437-13.8-14.215-21.686-37.658-21.636-64.32.052-26.703,8.157-51.257,22.238-67.365,4.08-4.666,11.219-5.185,15.948-1.158,4.728,4.026,5.252,11.074,1.173,15.74-10.445,11.948-16.705,31.695-16.746,52.824-.038,20.332,5.843,39.043,15.35,48.834,4.265,4.37,4.18,11.37-.19,15.636-.05.048-.1.096-.15.144-2.113,1.998-4.913,3.109-7.821,3.103M386.496,328.207c-2.712.005-5.338-.956-7.405-2.712-4.742-4.025-5.27-11.073-1.177-15.739,13.834-15.773,12.454-49.299,1.053-61.005-4.265-4.35-4.196-11.335.154-15.6.061-.06.123-.12.186-.178,4.524-4.266,11.705-4.115,16.037.335,20.352,20.893,20.221,67.683-.254,91.03-2.244,2.557-5.409,3.869-8.593,3.869"/>
  <path class="st0" d="M425.196,341.087c-2.705.005-5.322-.957-7.381-2.711-4.727-4.027-5.253-11.074-1.173-15.74,10.445-11.948,16.705-31.695,16.746-52.824.039-20.332-5.844-39.044-15.349-48.834-4.266-4.37-4.181-11.37.188-15.636.05-.049.1-.097.151-.145,4.509-4.264,11.667-4.114,15.986.336,13.801,14.215,21.688,37.657,21.636,64.32-.051,26.703-8.157,51.256-22.238,67.364-2.237,2.557-5.392,3.869-8.565,3.869"/>
</svg>