<svg xmlns="http://www.w3.org/2000/svg" width="512" height="512" viewBox="0 0 512 512">
    <path fill-rule="nonzero" d="M333.5 93.888c-23.9-18.1-50.9-24.4-85.1-24.4-25.9 0-48.1 5.3-65.7 17.1-25.9 17.7-38 47.3-38 94.2h66.8c0-12.5-1.2-26 6.1-37.6 7.3-11.6 17.5-20.5 34.9-20.5 17.7 0 26.9 5.1 35.5 15.7 7.3 9 10.1 19.8 10.1 31.3 0 9.9-5 19.1-11.1 27.3-3.3 4.9-7.7 9.3-13.1 13.4 0 0-36.1 21.5-48.8 41.8-9.5 15.1-12.9 34.1-13.6 56.8-.1 1.7.6 5 6.3 5h53.7c5 0 6.1-3.8 6.2-5.4.3-8.3 1.4-20.9 2.9-25.7 2.9-9 8.4-17 17.1-23.7l18-12.5c16.3-12.7 29.2-23 35-31.2 9.8-13.4 16.7-29.9 16.7-49.5-.1-31.7-11.9-55.3-33.9-72.1zm-89.7 254.9c-22.5-.7-41.1 15-41.9 39.4-.7 24.5 17 40.6 39.6 41.3 23.5.7 41.7-14.5 42.4-38.9.7-24.4-16.6-41.1-40.1-41.8z"/>
</svg>
