<svg xmlns="http://www.w3.org/2000/svg" width="512" height="512" viewBox="0 0 512 512">
    <path d="M256 89.5c-88.4 0-160 71.6-160 160s71.6 160 160 160 160-71.6 160-160-71.6-160-160-160m14.4 233.4c-.4 12.7-9.8 20.6-22 20.2-11.7-.4-20.9-8.7-20.6-21.5.4-12.7 10.1-20.8 21.8-20.4 12.3.3 21.3 8.9 20.8 21.7m34.8-91c-3 4.2-9.7 9.6-18.1 16.2l-9.4 6.4c-4.6 3.5-7.4 7.6-8.9 12.4-.8 2.5-1.4 9-1.5 13.4-.1.9-.6 2.8-3.2 2.8h-27.9c-2.9 0-3.3-1.7-3.2-2.6.4-11.9 2.1-21.6 7.1-29.5 6.6-10.6 25.4-21.7 25.4-21.7 2.9-2.1 5.1-4.4 6.8-6.9 3.1-4.3 5.7-9.1 5.7-14.2 0-5.9-1.4-11.6-5.2-16.3-4.4-5.5-9.2-8.1-18.4-8.1-9.1 0-14.4 4.6-18.1 10.6-3.8 6-3.1 13.1-3.1 19.5h-34.8c0-24.3 6.4-39.8 19.8-48.9 9.1-6.2 20.6-8.9 34.1-8.9 17.7 0 31.8 3.3 44.2 12.7 11.5 8.7 17.6 21 17.6 37.6-.2 10-3.8 18.6-8.9 25.5"/>
</svg>
