<svg id="content" xmlns="http://www.w3.org/2000/svg" version="1.1" width="512" height="512" viewBox="0 0 512 512">
  <path d="M236,376h40v-40h-40v40ZM256,56c-26.264,0-52.272,5.173-76.537,15.224-24.265,10.051-46.313,24.783-64.885,43.355-37.507,37.507-58.579,88.378-58.579,141.421s21.071,103.914,58.579,141.422c18.572,18.572,40.62,33.302,64.885,43.354,24.265,10.05,50.273,15.224,76.537,15.224,53.044,0,103.914-21.072,141.422-58.578,37.506-37.508,58.578-88.378,58.578-141.422,0-26.264-5.174-52.272-15.224-76.537-10.052-24.265-24.782-46.313-43.354-64.885-18.572-18.572-40.62-33.304-64.886-43.355-24.264-10.051-50.272-15.224-76.536-15.224ZM256,416c-88.2,0-160-71.8-160-160s71.8-160,160-160,160,71.8,160,160-71.8,160-160,160ZM256,136c-21.218,0-41.566,8.429-56.569,23.431-15.003,15.003-23.431,35.351-23.431,56.569h40c0-10.609,4.214-20.783,11.716-28.284,7.502-7.502,17.676-11.716,28.284-11.716s20.782,4.214,28.284,11.716c7.502,7.501,11.716,17.676,11.716,28.284,0,40-60,35-60,100h40c0-45,60-50,60-100,0-21.217-8.428-41.566-23.432-56.569-15.002-15.003-35.35-23.431-56.568-23.431Z"/>
</svg>