<svg xmlns="http://www.w3.org/2000/svg" width="512" height="512" viewBox="0 0 512 512">
  <path d="M342.05,83.109c-26.554-20.11-56.552-27.109-94.549-27.109-28.776,0-53.441,5.889-72.995,18.999-28.776,19.665-42.22,52.552-42.22,104.66h74.217c0-13.888-1.333-28.887,6.777-41.775,8.111-12.888,19.443-22.776,38.775-22.776,19.665,0,29.887,5.666,39.442,17.443,8.111,9.999,11.222,21.999,11.222,34.776,0,10.999-5.555,21.221-12.333,30.331-3.666,5.444-8.555,10.333-14.555,14.888,0,0-40.109,23.887-54.219,46.441-10.555,16.777-14.332,37.886-15.11,63.107-.111,1.889.667,5.555,7,5.555h59.663c5.555,0,6.777-4.222,6.888-6,.333-9.222,1.555-23.221,3.222-28.554,3.222-9.999,9.333-18.888,18.999-26.332l19.999-13.888c18.11-14.11,32.442-25.554,38.886-34.664,10.888-14.888,18.554-33.22,18.554-54.996-.111-35.22-13.221-61.44-37.664-80.106M242.39,366.313c-24.998-.778-45.664,16.666-46.553,43.775-.778,27.22,18.888,45.108,43.997,45.886,26.109.778,46.33-16.11,47.108-43.219.778-27.109-18.443-45.664-44.553-46.441"/>
</svg>