<?xml version="1.0" encoding="UTF-8"?>
<svg id="Layer_1" xmlns="http://www.w3.org/2000/svg" version="1.1" viewBox="0 0 500 500">
  <!-- Generator: Adobe Illustrator 29.1.0, SVG Export Plug-In . SVG Version: 2.1.0 Build 142)  -->
  <path d="M250,25C125.7,25,25,125.7,25,250s100.7,225,225,225,225-100.7,225-225S374.3,25,250,25M270.2,353.2c-.6,17.9-13.8,29-30.9,28.4-16.5-.6-29.4-12.2-29-30.2.6-17.9,14.2-29.2,30.7-28.7,17.3.4,30,12.5,29.3,30.5M319.2,225.3c-4.2,5.9-13.6,13.5-25.5,22.8l-13.2,9c-6.5,4.9-10.4,10.7-12.5,17.4-1.1,3.5-2,12.7-2.1,18.8-.1,1.3-.8,3.9-4.5,3.9h-39.2c-4.1,0-4.6-2.4-4.5-3.7.6-16.7,3-30.4,10-41.5,9.3-14.9,35.7-30.5,35.7-30.5,4.1-3,7.2-6.2,9.6-9.7,4.4-6,8-12.8,8-20s-2-16.3-7.3-22.9c-6.2-7.7-12.9-11.4-25.9-11.4s-20.2,6.5-25.5,14.9c-5.3,8.4-4.4,18.4-4.4,27.4h-48.9c0-34.2,9-56,27.8-68.8,12.8-8.7,29-12.5,48-12.5s44.7,4.6,62.2,17.9c16.2,12.2,24.8,29.5,24.8,52.9-.3,14.1-5.3,26.2-12.5,35.9"/>
</svg>