<svg xmlns="http://www.w3.org/2000/svg" width="512" height="512" viewBox="0 0 512 512">
  <path d="M256,56c-110.5,0-200,89.5-200,200s89.5,200,200,200,200-89.5,200-200S366.5,56,256,56M274,347.75c-.5,15.875-12.25,25.75-27.5,25.25-14.625-.5-26.125-10.875-25.75-26.875.5-15.875,12.625-26,27.25-25.5,15.375.375,26.625,11.125,26,27.125M317.5,234c-3.75,5.25-12.125,12-22.625,20.25l-11.75,8c-5.75,4.375-9.25,9.5-11.125,15.5-1,3.125-1.75,11.25-1.875,16.75-.125,1.125-.75,3.5-4,3.5h-34.875c-3.625,0-4.125-2.125-4-3.25.5-14.875,2.625-27,8.875-36.875,8.25-13.25,31.75-27.125,31.75-27.125,3.625-2.625,6.375-5.5,8.5-8.625,3.875-5.375,7.125-11.375,7.125-17.75,0-7.375-1.75-14.5-6.5-20.375-5.5-6.875-11.5-10.125-23-10.125-11.375,0-18,5.75-22.625,13.25-4.75,7.5-3.875,16.375-3.875,24.375h-43.5c0-30.375,8-49.75,24.75-61.125,11.375-7.75,25.75-11.125,42.625-11.125,22.125,0,39.75,4.125,55.25,15.875,14.375,10.875,22,26.25,22,47-.25,12.5-4.75,23.25-11.125,31.875"/>
</svg>