<?xml version="1.0" encoding="UTF-8"?>
<svg id="Layer_1" xmlns="http://www.w3.org/2000/svg" version="1.1" viewBox="0 0 500 500">
  <!-- Generator: Adobe Illustrator 29.1.0, SVG Export Plug-In . SVG Version: 2.1.0 Build 142)  -->
  <path d="M346.8,55.5c-29.9-22.6-63.6-30.5-106.4-30.5s-60.1,6.6-82.1,21.4c-32.4,22.1-47.5,59.1-47.5,117.7h83.5c0-15.6-1.5-32.5,7.6-47s21.9-25.6,43.6-25.6,33.6,6.4,44.4,19.6c9.1,11.2,12.6,24.7,12.6,39.1s-6.2,23.9-13.9,34.1c-4.1,6.1-9.6,11.6-16.4,16.7,0,0-45.1,26.9-61,52.2-11.9,18.9-16.1,42.6-17,71-.1,2.1.7,6.2,7.9,6.2h67.1c6.2,0,7.6-4.7,7.7-6.7.4-10.4,1.7-26.1,3.6-32.1,3.6-11.2,10.5-21.2,21.4-29.6l22.5-15.6c20.4-15.9,36.5-28.7,43.7-39,12.2-16.7,20.9-37.4,20.9-61.9-.1-39.6-14.9-69.1-42.4-90.1M234.7,374.1c-28.1-.9-51.4,18.7-52.4,49.2-.9,30.6,21.2,50.7,49.5,51.6,29.4.9,52.1-18.1,53-48.6s-20.7-51.4-50.1-52.2"/>
</svg>