<?xml version="1.0" encoding="UTF-8"?>
<svg width="512px" height="512px" viewBox="0 0 512 512" version="1.1" xmlns="http://www.w3.org/2000/svg" xmlns:xlink="http://www.w3.org/1999/xlink">
    <!-- Generator: Sketch 62 (91390) - https://sketch.com -->
    <title>help-circled</title>
    <desc>Created with Sketch.</desc>
    <g id="help-circled" stroke="none" stroke-width="1" fill="none" fill-rule="evenodd">
        <path d="M256,89.5 C167.6,89.5 96,161.1 96,249.5 C96,337.9 167.6,409.5 256,409.5 C344.4,409.5 416,337.9 416,249.5 C416,161.1 344.4,89.5 256,89.5 Z M270.4,322.9 C270,335.6 260.6,343.5 248.4,343.1 C236.7,342.7 227.5,334.4 227.8,321.6 C228.2,308.9 237.9,300.8 249.6,301.2 C261.9,301.5 270.9,310.1 270.4,322.9 Z M305.2,231.9 C302.2,236.1 295.5,241.5 287.1,248.1 L277.7,254.5 C273.1,258 270.3,262.1 268.8,266.9 C268,269.4 267.4,275.9 267.3,280.3 C267.2,281.2 266.7,283.1 264.1,283.1 L236.2,283.1 C233.3,283.1 232.9,281.4 233,280.5 C233.4,268.6 235.1,258.9 240.1,251 C246.7,240.4 265.5,229.3 265.5,229.3 C268.4,227.2 270.6,224.9 272.3,222.4 C275.4,218.1 278,213.3 278,208.2 C278,202.3 276.6,196.6 272.8,191.9 C268.4,186.4 263.6,183.8 254.4,183.8 C245.3,183.8 240,188.4 236.3,194.4 C232.5,200.4 233.2,207.5 233.2,213.9 L198.4,213.9 C198.4,189.6 204.8,174.1 218.2,165 C227.3,158.8 238.8,156.1 252.3,156.1 C270,156.1 284.1,159.4 296.5,168.8 C308,177.5 314.1,189.8 314.1,206.4 C313.9,216.4 310.3,225 305.2,231.9 L305.2,231.9 Z" id="Shape" fill="#000000" fill-rule="nonzero"></path>
    </g>
</svg>