<?xml version="1.0" encoding="UTF-8"?>
<svg id="Layer_1" xmlns="http://www.w3.org/2000/svg" version="1.1" viewBox="0 0 500 500">
  <!-- Generator: Adobe Illustrator 29.1.0, SVG Export Plug-In . SVG Version: 2.1.0 Build 142)  -->
  <defs>
    <style>
      .st0 {
        fill-rule: evenodd;
      }
    </style>
  </defs>
  <path d="M346.4,316.9l-1.2,1.3-87,100.1c-2.9,3.4-7.4,5.5-12.3,5.5-4.7,0-9.2-2-12.3-5.5l-86.9-100-1.5-1.7c-1.1-1.6-1.7-3.5-1.7-5.5,0-5.6,4.7-10.1,10.6-10.1h183.4c5.9,0,10.6,4.5,10.6,10.1s-.7,4-1.9,5.7"/>
  <path class="st0" d="M455.3,76.1c6.8,0,9.3.7,11.8,2,2.5,1.3,4.5,3.3,5.8,5.8,1.3,2.5,2,5,2,11.8v144.8c0,6.8-.7,9.3-2,11.8-1.3,2.5-3.3,4.5-5.8,5.8-2.5,1.3-5,2-11.8,2H44.7c-6.8,0-9.3-.7-11.8-2-2.5-1.3-4.5-3.3-5.8-5.8-1.3-2.5-2-5-2-11.8V95.8c0-6.8.7-9.3,2-11.8,1.3-2.5,3.3-4.5,5.8-5.8,2.5-1.3,5-2,11.8-2h410.7ZM434.1,117h-163.6v102.3h39.1c2.9-1.7,5.8-2.8,7.3-3.3,3.9-1.4,9.4-1.9,12.9-2.6,2-.4,5-1.5,6-2.7.4-.5.6-2.9.6-5.4v-1.2c0-2.8-.2-5.4-.2-5.4,0,0-1.8-2.8-2.8-5.3-.4-.9-.7-2.4-1.1-4v-.5c-.6-2.4-1-4.8-1-4.8h0c-.2,0-2.1-.2-2.7-3.5-.8-3.8-2-5.3-1.8-8.2.2-2.7,1.6-2.8,1.7-2.8,0,0-1.5-4-1.7-12.5-.2-10,7.6-19.9,22.3-19.9s22.5,9.9,22.3,19.9c-.2,6.8-1.2,10.7-1.6,12v.2c0,.2-.1.2,0,.2.2,0,1.6.1,1.7,2.8.1,2.9-1,4.5-1.8,8.3-.7,3.3-2.6,3.5-2.7,3.5h0s-1.1,6.8-2.1,9.2c-1,2.5-2.8,5.3-2.8,5.3,0,0-.2,2.8-.2,5.7v.6c0,2.6.1,5.1.6,5.7,1,1.2,3.9,2.3,6,2.7,3.5.7,9.1,1.2,12.9,2.6,1.6.6,4.5,1.6,7.4,3.4h45.5v-102.3ZM229.6,116.9H66v102.3h40.5c3.4-2.3,7.2-3.7,9.1-4.4,3.9-1.3,9.4-1.8,13-2.6,2-.4,5-1.5,6-2.7,1-1.2.4-11.8.4-11.8,0,0-1.8-2.7-2.8-5.2-1-2.4-2.1-9.1-2.1-9.1,0,0-2,0-2.8-3.5-.8-3.7-2-5.2-1.8-8,.2-2.6,1.6-2.7,1.7-2.7,0,0-1.5-4-1.7-12.2-.2-9.8,7.6-19.5,22.3-19.5s22.5,9.7,22.3,19.5c-.2,8.3-1.8,12.2-1.7,12.2s1.6.1,1.7,2.7c.1,2.8-1,4.4-1.8,8.1-.7,3.2-2.6,3.4-2.8,3.4h0s-.4,2.5-.9,4.9v.5c-.4,1.4-.8,2.8-1.1,3.6-1,2.4-2.8,5.2-2.8,5.2,0,0-.6,10.7.4,11.8s4,2.2,6,2.7c3.5.7,9.1,1.2,13,2.5,1.9.7,5.8,2.1,9.2,4.4h40.5v-102.3h0Z"/>
</svg>