<svg xmlns="http://www.w3.org/2000/svg" width="512" height="512" viewBox="0 0 512 512">
    <g fill-rule="evenodd">
        <path fill-rule="nonzero" d="m354.239 395.446-1.126 1.313-85.044 97.863c-2.877 3.314-7.191 5.378-12.006 5.378a16.04 16.04 0 0 1-12.007-5.378l-84.981-97.738-1.439-1.626c-1.063-1.563-1.688-3.44-1.688-5.378 0-5.44 4.627-9.88 10.38-9.88h179.344c5.753 0 10.38 4.44 10.38 9.88 0 2.001-.688 3.94-1.813 5.566"/>
        <path d="M460.77 160c6.687 0 9.112.696 11.556 2.003a13.63 13.63 0 0 1 5.67 5.67c1.308 2.445 2.004 4.87 2.004 11.556v141.542c0 6.686-.696 9.11-2.003 11.555a13.63 13.63 0 0 1-5.67 5.67c-2.445 1.308-4.87 2.004-11.556 2.004H59.229c-6.686 0-9.11-.696-11.555-2.003a13.63 13.63 0 0 1-5.67-5.67C40.695 329.881 40 327.456 40 320.77V179.229c0-6.686.696-9.11 2.003-11.555a13.63 13.63 0 0 1 5.67-5.67c2.445-1.308 4.87-2.004 11.556-2.004zM440 199.985H280v100l38.243.001c2.823-1.677 5.653-2.73 7.186-3.268 3.778-1.325 9.184-1.812 12.659-2.57 1.985-.432 4.881-1.514 5.847-2.65.42-.507.548-2.812.557-5.249v-.611l-.004-.61c-.028-2.74-.167-5.295-.167-5.295s-1.793-2.731-2.758-5.166c-.357-.9-.725-2.371-1.047-3.87l-.112-.529c-.493-2.378-.855-4.66-.855-4.66l-.015-.002c-.185-.013-2.007-.228-2.687-3.46-.745-3.733-1.93-5.22-1.793-8.006.166-2.597 1.544-2.732 1.682-2.732 0 0-1.489-3.949-1.654-12.198-.221-9.79 7.39-19.419 21.76-19.419 14.368 0 22.008 9.656 21.76 19.42-.156 6.65-1.22 10.488-1.545 11.74l-.055.216c-.04.16-.051.24-.028.24.166 0 1.545.136 1.683 2.733.137 2.812-1.02 4.354-1.793 8.086-.68 3.233-2.503 3.4-2.688 3.408h-.015s-1.048 6.626-2.013 9.033c-.965 2.408-2.758 5.166-2.758 5.166s-.15 2.755-.17 5.61l-.002.612c0 2.55.12 5.027.558 5.543.965 1.136 3.861 2.218 5.847 2.65 3.447.73 8.88 1.19 12.659 2.516 1.547.543 4.418 1.612 7.27 3.321H440zm-199.917-.116h-160v100h39.634c3.331-2.285 7.059-3.654 8.905-4.289 3.78-1.3 9.19-1.778 12.667-2.52 1.987-.425 4.885-1.487 5.85-2.602.966-1.14.387-11.544.387-11.544s-1.794-2.68-2.76-5.068c-.966-2.389-2.014-8.89-2.014-8.89s-1.987-.054-2.705-3.397c-.745-3.663-1.932-5.122-1.794-7.856.166-2.547 1.546-2.68 1.684-2.68 0 0-1.49-3.875-1.656-11.969-.22-9.606 7.396-19.054 21.774-19.054s22.022 9.474 21.774 19.054c-.193 8.12-1.794 11.969-1.628 11.969.165 0 1.545.133 1.683 2.68.138 2.76-1.021 4.273-1.794 7.935-.68 3.172-2.504 3.335-2.689 3.343h-.015s-.389 2.41-.91 4.828l-.114.517c-.309 1.376-.655 2.698-.99 3.52-.967 2.362-2.76 5.068-2.76 5.068s-.58 10.43.386 11.544c.966 1.115 3.863 2.177 5.85 2.601 3.45.717 8.887 1.168 12.667 2.468 1.859.64 5.625 2.023 8.977 4.342h39.59v-100z"/>
    </g>
</svg>
