<svg width="113" height="113" viewBox="0 0 113 113" fill="none" xmlns="http://www.w3.org/2000/svg">
<path id="history-undo" fill-rule="evenodd" clip-rule="evenodd" d="M56.1333 0C41.3271 0.210896 27.2039 6.26368 16.84 16.84L0 0V49.1167H49.1167L26.6634 26.6633C34.4363 18.7311 45.0286 14.1915 56.1333 14.0333C67.2989 14.0333 78.0073 18.4689 85.9026 26.3641C93.7978 34.2594 98.2333 44.9677 98.2333 56.1333C98.2333 67.2989 93.7978 78.0073 85.9026 85.9025C78.0073 93.7978 67.2989 98.2333 56.1333 98.2333V112.267C71.0208 112.267 85.2986 106.353 95.8256 95.8256C106.353 85.2985 112.267 71.0208 112.267 56.1333C112.267 41.2458 106.353 26.9681 95.8256 16.4411C85.2986 5.91403 71.0208 0 56.1333 0Z" fill="black"/>
</svg>
