<svg width="113" height="113" viewBox="0 0 113 113" fill="none" xmlns="http://www.w3.org/2000/svg">
<path id="history-redo" fill-rule="evenodd" clip-rule="evenodd" d="M56.4666 0C71.2728 0.210896 85.396 6.26368 95.76 16.84L112.6 0V49.1167H63.4832L85.9366 26.6633C78.1636 18.7311 67.5713 14.1915 56.4666 14.0333C45.301 14.0333 34.5926 18.4689 26.6974 26.3641C18.8021 34.2594 14.3666 44.9677 14.3666 56.1333C14.3666 67.2989 18.8021 78.0073 26.6974 85.9025C34.5926 93.7978 45.301 98.2333 56.4666 98.2333V112.267C41.5791 112.267 27.3013 106.353 16.7743 95.8256C6.24724 85.2985 0.333252 71.0208 0.333252 56.1333C0.333252 41.2458 6.24724 26.9681 16.7743 16.4411C27.3013 5.91403 41.5791 0 56.4666 0Z" fill="black"/>
</svg>
