<svg xmlns="http://www.w3.org/2000/svg" width="512" height="512" viewBox="0 0 512 512">
    <path d="m153.3 249.5 102.8 180 102.8-180H153.3zm220.6-67.1c-.6-.3-1.2-.6-1.8-1-3.5-2.2-6.7-6.8-7-10.2l.1-.6c2.6-7.2 4-15.4 4-23.9 0-42.7-34.5-77.2-77.2-77.2-25.2 0-47.6 12-61.7 30.8 0 0-7.3 11.2-8.7 23.3 0 0 .9-15.6 3.4-25.3-5.9-2-12.4-3.1-19-3.1-33.5 0-60.7 27.1-60.7 60.7 0 5.1.6 10.1 1.8 14.9 0 .3-.1.6-.2.8-.7 4.1-3.2 7.6-6.7 9.9-.6.4-1.2.7-1.8 1-6.6 4-10.8 10.9-10.8 18.8 0 12.4 10.8 22.5 24 22.5h209.1c13.2 0 23.902-10 23.902-22.5.098-7.9-4.202-14.9-10.702-18.9z"/>
</svg>
