<?xml version="1.0" encoding="UTF-8"?>
<svg id="Layer_1" xmlns="http://www.w3.org/2000/svg" version="1.1" viewBox="0 0 500 500">
  <!-- Generator: Adobe Illustrator 29.1.0, SVG Export Plug-In . SVG Version: 2.1.0 Build 142)  -->
  <path d="M121.5,250l128.5,225,128.5-225H121.5ZM397.2,166.1c-.8-.4-1.5-.8-2.2-1.2-4.4-2.7-8.4-8.5-8.8-12.7v-.8c3.4-9,5.1-19.2,5.1-29.9,0-53.4-43.1-96.5-96.5-96.5s-59.5,15-77.1,38.5c0,0-9.1,14-10.9,29.1,0,0,1.1-19.5,4.2-31.6-7.4-2.5-15.5-3.9-23.8-3.9-41.9,0-75.9,33.9-75.9,75.9s.8,12.6,2.3,18.6c0,.4-.1.8-.2,1-.9,5.1-4,9.5-8.4,12.4-.8.5-1.5.9-2.3,1.2-8.3,5-13.5,13.6-13.5,23.5,0,15.5,13.5,28.1,30,28.1h261.4c16.5,0,29.9-12.5,29.9-28.1.1-9.9-5.3-18.6-13.4-23.6"/>
</svg>