<svg xmlns="http://www.w3.org/2000/svg" width="512" height="512" viewBox="0 0 512 512">
  <path d="M141.776,256l114.222,200,114.222-200h-228.444ZM386.887,181.444c-.667-.333-1.333-.667-2-1.111-3.889-2.444-7.444-7.556-7.778-11.333l.111-.667c2.889-8,4.444-17.111,4.444-26.556,0-47.444-38.333-85.778-85.778-85.778-28,0-52.889,13.333-68.556,34.222,0,0-8.111,12.444-9.667,25.889,0,0,1-17.333,3.778-28.111-6.556-2.222-13.778-3.444-21.111-3.444-37.222,0-67.444,30.111-67.444,67.444,0,5.667.667,11.222,2,16.556,0,.333-.111.667-.222.889-.778,4.556-3.556,8.444-7.444,11-.667.444-1.333.778-2,1.111-7.333,4.444-12,12.111-12,20.889,0,13.778,12,25,26.667,25h232.333c14.667,0,26.558-11.111,26.558-25,.109-8.778-4.669-16.556-11.891-21"/>
</svg>