<?xml version="1.0" encoding="UTF-8"?>
<svg width="512px" height="512px" viewBox="0 0 512 512" version="1.1" xmlns="http://www.w3.org/2000/svg" xmlns:xlink="http://www.w3.org/1999/xlink">
    <!-- Generator: Sketch 62 (91390) - https://sketch.com -->
    <title>icecream</title>
    <desc>Created with Sketch.</desc>
    <g id="icecream" stroke="none" stroke-width="1" fill="none" fill-rule="evenodd">
        <path d="M153.3,249.5 L256.1,429.5 L358.9,249.5 L153.3,249.5 Z M373.9,182.4 C373.3,182.1 372.7,181.8 372.1,181.4 C368.6,179.2 365.4,174.6 365.1,171.2 L365.2,170.6 C367.8,163.4 369.2,155.2 369.2,146.7 C369.2,104 334.7,69.5 292,69.5 C266.8,69.5 244.4,81.5 230.3,100.3 C230.3,100.3 223,111.5 221.6,123.6 C221.6,123.6 222.5,108 225,98.3 C219.1,96.3 212.6,95.2 206,95.2 C172.5,95.2 145.3,122.3 145.3,155.9 C145.3,161 145.9,166 147.1,170.8 C147.1,171.1 147,171.4 146.9,171.6 C146.2,175.7 143.7,179.2 140.2,181.5 C139.6,181.9 139,182.2 138.4,182.5 C131.8,186.5 127.6,193.4 127.6,201.3 C127.6,213.7 138.4,223.8 151.6,223.8 L360.7,223.8 C373.9,223.8 384.601708,213.8 384.601708,201.3 C384.7,193.4 380.4,186.4 373.9,182.4 L373.9,182.4 Z" id="Shape" fill="#000000" fill-rule="nonzero"></path>
    </g>
</svg>