<?xml version="1.0" encoding="UTF-8"?>
<svg id="Layer_1" xmlns="http://www.w3.org/2000/svg" version="1.1" viewBox="0 0 512 512">
  <!-- Generator: Adobe Illustrator 30.2.1, SVG Export Plug-In . SVG Version: 2.1.1 Build 1)  -->
  <defs>
    <style>
      .st0 {
        fill: #d97757;
      }

      .st1 {
        fill: #56a3dc;
      }

      .st2 {
        fill: #22b8cd;
      }

      .st3 {
        fill-rule: evenodd;
      }

      .st3, .st4 {
        fill: #161a1d;
      }
    </style>
  </defs>
  <path class="st4" d="M122.6,438.2l14.4-81H56l7.1-40.5h81l21.5-121.5h-81l7.1-40.5h81l14.4-81h40.5l-14.4,81h121.5l14.4-81h40.5l-14.4,81h81l-7.1,40.5h-81l-21.5,121.5h81l-7.1,40.5h-81l-14.4,81h-40.5l14.4-81h-121.5l-14.4,81h-40.5ZM206,195.3l-21.5,121.5h121.5l21.5-121.5h-121.5Z"/>
  <path class="st4" d="M316,116h60l-30,40-30-40ZM116,56h280c22.2,0,40,18,40,40v320c0,22.2-17.8,40-40,40H116c-22,0-40-17.8-40-40V96c0-22,18-40,40-40ZM116,96v80h280v-80H116ZM116,416h280v-200H116v200ZM156,256h200v40h-200v-40ZM156,336h200v40h-200v-40Z"/>
  <path class="st4" d="M456,230.7v50.5H153l138.9,138.9-35.9,35.9L56,256,256,56l35.9,35.9-138.9,138.9h303Z"/>
  <path class="st2" d="M385.8,56v121.2h45.2v172.5h-48.9v106.3l-117.3-103.2v102.4h-18.2v-102.5l-117.4,103.3v-107.7h-48.2v-172.5h48.1V56l117.6,108.2V59.2h18.2v108.2l121-111.3h-.1ZM264.8,206.7v122l99.1,87.2v-119.3l-99.1-89.9h0ZM246.5,205.4l-99.1,90v120.6l99.1-87.2v-123.3h0ZM382.1,331.7h30.7v-136.6h-132.5l101.8,92.3v44.2h0ZM232.4,193.7H99.2v136.6h30v-42.9l103.2-93.7h0ZM147.3,97.3v78.5h85.2l-85.2-78.5ZM367.6,97.3l-85.2,78.5h85.2v-78.5h0Z"/>
  <path class="st0" d="M134.5,321.9l78.7-44.1,1.3-3.8-1.3-2.1h-3.8l-13.2-.8-45-1.2-39-1.6-37.8-2-9.5-2-8.9-11.7.9-5.9,8-5.4,11.4,1,25.3,1.7,38,2.6,27.5,1.6,40.8,4.3h6.5l.9-2.6-2.2-1.6-1.7-1.6-39.3-26.6-42.5-28.1-22.3-16.2-12.1-8.2-6.1-7.7-2.6-16.8,10.9-12,14.7,1,3.7,1,14.9,11.4,31.8,24.6,41.5,30.6,6.1,5.1,2.4-1.7.3-1.2-2.7-4.6-22.6-40.8-24.1-41.5-10.7-17.2-2.8-10.3c-1.1-4-1.7-8-1.7-12.2l12.5-16.9,6.9-2.2,16.6,2.2,7,6.1,10.3,23.6,16.7,37.1,25.9,50.5,7.6,15,4,13.9,1.5,4.3h2.6v-2.4l2.1-28.4,3.9-34.9,3.8-44.9,1.3-12.7,6.3-15.2,12.4-8.2,9.7,4.7,8,11.4-1.1,7.4-4.8,30.8-9.3,48.4-6.1,32.4h3.5l4.1-4,16.4-21.8,27.5-34.4,12.2-13.7,14.2-15.1,9.1-7.2h17.2l12.7,18.8-5.7,19.4-17.7,22.4-14.7,19-21.1,28.3-13.2,22.7,1.2,1.8,3.1-.3,47.6-10.1,25.7-4.7,30.7-5.2,13.9,6.5,1.5,6.6-5.5,13.4-32.8,8.1-38.5,7.7-57.3,13.5-.7.5.8,1,25.8,2.4,11,.6h27l50.3,3.8,13.2,8.7,7.9,10.6-1.3,8.1-20.3,10.3-27.3-6.5-63.8-15.2-21.9-5.5h-3v1.8l18.2,17.8,33.4,30.2,41.8,38.8,2.1,9.6-5.4,7.6-5.7-.8-36.7-27.6-14.2-12.5-32.1-27h-2.1v2.8l7.4,10.8,39.1,58.7,2,18-2.8,5.9-10.1,3.6-11.1-2-22.9-32.1-23.6-36.1-19.1-32.4-2.3,1.3-11.2,120.9-5.3,6.2-12.2,4.7-10.1-7.7-5.4-12.4,5.4-24.6,6.5-32.1,5.3-25.5,4.8-31.7,2.8-10.5-.2-.7-2.3.3-23.9,32.8-36.3,49.1-28.8,30.7-6.9,2.7-11.9-6.2,1.1-11,6.7-9.8,39.8-50.6,24-31.4,15.5-18.1v-2.6h-1l-105.7,68.6-18.8,2.4-8.1-7.6,1-12.4,3.9-4.1,31.8-21.9h-.1l.4.2Z"/>
  <path class="st3" d="M209.4,200.3v-37.7c0-3.2,1.2-5.6,4-7.1l75.7-43.6c10.3-5.9,22.6-8.7,35.3-8.7,47.6,0,77.7,36.9,77.7,76.1s0,5.9-.4,9.1l-78.5-46c-2.1-1.4-4.6-2.1-7.1-2.1s-5,.7-7.1,2.1l-99.5,57.9h0ZM386.2,347v-90c0-5.6-2.4-9.5-7.1-12.3l-99.5-57.9,32.5-18.6c1.2-.8,2.6-1.2,4-1.2s2.8.4,4,1.2l75.7,43.6c21.8,12.7,36.5,39.6,36.5,65.8s-17.8,57.9-46,69.4h0ZM186,267.7l-32.5-19c-2.8-1.6-4-4-4-7.1v-87.2c0-42.4,32.5-74.5,76.5-74.5s32.1,5.6,45.2,15.5l-78.1,45.2c-4.8,2.8-7.1,6.7-7.1,12.3v115h0v-.2ZM256,308.1l-46.6-26.2v-55.5l46.6-26.2,46.6,26.2v55.5l-46.6,26.2ZM285.9,428.6c-16.7,0-32.1-5.5-45.2-15.5l78.1-45.2c4.8-2.8,7.1-6.7,7.1-12.3v-115l32.9,19c2.8,1.6,4,4,4,7.1v87.2c0,42.4-32.9,74.5-76.9,74.5v.2ZM192,340.3l-75.7-43.6c-21.8-12.7-36.5-39.6-36.5-65.8s4.3-29.4,12.6-41.8c8.3-12.4,20-22,33.8-27.6v90.4c0,5.6,2.4,9.5,7.1,12.3l99.1,57.5-32.5,18.6c-1.2.8-2.6,1.2-4,1.2s-2.8-.4-4-1.2h.1ZM187.6,405.3c-44.8,0-77.7-33.7-77.7-75.3s.4-6.3.8-9.5l78.1,45.2c4.8,2.8,9.5,2.8,14.3,0l99.5-57.5v37.7c0,3.2-1.2,5.6-3.9,7.1l-75.7,43.6c-10.3,6-22.6,8.7-35.3,8.7h-.1ZM285.9,452.4c22.9,0,45-7.9,62.7-22.3s29.9-34.5,34.4-56.9c44.4-11.5,73-53.2,73-95.6s-11.9-54.7-33.3-74.1c2-8.3,3.2-16.7,3.2-25,0-56.7-46-99.1-99.1-99.1s-21,1.6-31.3,5.2c-18.5-18.2-43.4-28.5-69.4-28.5s-45,7.9-62.7,22.3c-17.7,14.4-29.9,34.6-34.4,56.9-44.4,11.5-73,53.1-73,95.5s11.9,54.7,33.3,74.1c-2,8.3-3.2,16.7-3.2,25,0,56.7,46,99.1,99.1,99.1s21-1.6,31.3-5.2c18.5,18.2,43.4,28.5,69.4,28.6h0Z"/>
  <path class="st3" d="M210.5,310.8l133-98.3c6.5-4.8,15.8-3,19,4.5,16.3,39.5,9,86.9-23.5,119.5s-77.8,39.7-119.1,23.4l-45.2,20.9c64.8,44.4,143.5,33.4,192.7-15.9,39-39.1,51.1-92.3,39.8-140.3h0c-16.4-70.4,4-98.6,45.8-156.3,1-1.4,2-2.7,3-4.1l-55,55.1v-.2l-190.5,191.6M183,334.7c-46.5-44.5-38.5-113.3,1.2-153.1,29.4-29.4,77.5-41.4,119.4-23.8l45.1-20.8c-9.4-6.9-19.6-12.5-30.5-16.7-27.3-11.2-57.3-14-86.2-8.2-28.9,5.8-55.5,20.1-76.3,41-42.2,42.3-55.5,107.3-32.7,162.7,17,41.4-10.9,70.8-39,100.4-10,10.5-20,21-28,32.1l127-113.6"/>
  <path class="st4" d="M94.1,56c-21.1,0-38.1,17-38.1,38.1v209.5c0,21.1,17,38.1,38.1,38.1h209.5c21.1,0,38.1-17,38.1-38.1v-57.1h-38.1v57.1H94.1V94.1h209.5v38.1h38.1v-38.1c0-21.1-17-38.1-38.1-38.1M208.4,170.3c-21.1,0-38.1,17-38.1,38.1v57.1h38.1v-57.1h209.5v209.5h-209.5v-38.1h-38.1v38.1c0,21.1,17,38.1,38.1,38.1h209.5c21.1,0,38.1-17,38.1-38.1v-209.5c0-21.1-17-38.1-38.1-38.1h-209.5Z"/>
  <path class="st4" d="M67.8,247.6L247.8,67.6c7.5-7.4,17.6-11.6,28.2-11.6h140c10.6,0,20.8,4.2,28.3,11.7,7.5,7.5,11.7,17.7,11.7,28.3v140c0,5.3-1,10.5-3.1,15.4-2,4.9-5,9.3-8.7,13l-180,180c-7.5,7.4-17.6,11.6-28.2,11.6s-20.7-4.3-28.2-11.8l-140-140c-7.5-7.5-11.8-17.6-11.8-28.2s1-10.5,3.1-15.4c2-4.9,5-9.3,8.7-13h0ZM236,416l180-180V96h-140l-180,180M366,116c-5.9,0-11.7,1.8-16.7,5.1-4.9,3.3-8.8,8-11.1,13.5-2.3,5.5-2.9,11.5-1.7,17.3,1.2,5.8,4,11.2,8.2,15.4s9.5,7.1,15.4,8.2c5.8,1.2,11.9.6,17.3-1.7,5.5-2.3,10.2-6.1,13.5-11s5.1-10.7,5.1-16.7-3.2-15.6-8.8-21.2c-5.6-5.6-13.3-8.8-21.2-8.8h0Z"/>
  <path class="st4" d="M209.1,221.5c-2-6.7,4.2-13,10.9-10.9l228.3,69.5c7.7,2.4,8.4,13,1.1,16.4l-103.2,46.9c-1.9.9-3.5,2.4-4.4,4.4l-46.9,103.2c-3.3,7.3-14,6.6-16.4-1.1l-69.5-228.3h0ZM150.1,279.3l-80.9,29.4-11.8-32.4,80.9-29.5,11.8,32.4h0ZM185.6,168l-24.4,24.4-60.9-60.9,24.4-24.4,60.9,60.9ZM305.6,67.8l-29.4,80.9-32.4-11.8,29.5-80.9s32.3,11.8,32.3,11.8Z"/>
  <path class="st4" d="M233.8,322.7h133.3v44.4h-133.3v-44.4ZM189.3,144.9h-44.4v44.4h44.4v-44.4h0ZM233.8,278.2h133.3v-44.4h-133.3v44.4ZM233.8,189.3h133.3v-44.4h-133.3v44.4h0ZM189.3,233.8h-44.4v44.4h44.4v-44.4h0ZM456,100.4v311.1c0,24.4-20,44.4-44.4,44.4H100.4c-24.4,0-44.4-20-44.4-44.4V100.4c0-24.4,20-44.4,44.4-44.4h311.1c24.4,0,44.4,20,44.4,44.4h.1ZM411.6,100.4H100.4v311.1h311.1V100.4h.1ZM189.3,322.7h-44.4v44.4h44.4v-44.4h0Z"/>
  <path class="st4" d="M219.6,328.7l-90.9-90.9,25.6-25.8,65.3,65.3,138-138,25.6,25.8M383.3,56h-254.5c-20.2,0-36.4,16.2-36.4,36.4v235.1c0,12.5,6.4,23.6,16,30.2l147.6,98.4,147.5-98.4c9.6-6.5,16.2-17.6,16.2-30.2V92.4c0-20.2-16.4-36.4-36.4-36.4h0Z"/>
  <path class="st4" d="M56,56h133.3v88.9H56V56ZM322.7,211.6h133.3v88.9h-133.3v-88.9ZM322.7,367.1h133.3v88.9h-133.3v-88.9ZM278.2,278.2h-133.3v111.1h133.3v44.4H100.4v-244.4h44.4v44.4h133.3v44.4h.1Z"/>
  <path class="st4" d="M56,96c0-22.2,18-40,40-40h60v40h-60v60h-40v-60ZM456,96v60h-40v-60h-60v-40h60c10.6,0,20.8,4.2,28.3,11.7,7.5,7.5,11.7,17.7,11.7,28.3ZM416,416v-60h40v60c0,22.2-18,40-40,40h-60v-40h60ZM56,416v-60h40v60h60v40h-60c-10.6,0-20.8-4.2-28.3-11.7s-11.7-17.7-11.7-28.3ZM216,56h80v40h-80v-40ZM216,416h80v40h-80v-40ZM416,216h40v80h-40v-80ZM56,216h40v80h-40v-80Z"/>
  <path class="st4" d="M201.5,110.5l45.5,100,100,45.5-100,45.5-45.5,100-45.5-100-100-45.5,100-45.5,45.5-100ZM201.5,198.4l-18.2,39.5-39.5,18.2,39.5,18.2,18.2,39.5,18.2-39.5,39.5-18.2-39.5-18.2-18.2-39.5h0ZM383.3,201.5l-22.9-49.8-49.8-22.9,49.8-22.7,22.9-50,22.7,50,50,22.7-50,22.9-22.7,49.8ZM383.3,456l-22.9-49.8-49.8-22.9,49.8-22.7,22.9-50,22.7,50,50,22.7-50,22.9-22.7,49.8Z"/>
  <path class="st4" d="M456,122.7v44.4H56v-44.4s400,0,400,0ZM56,389.3h200v-44.4H56v44.4ZM56,278.2h400v-44.4H56v44.4Z"/>
  <path class="st4" d="M56,415.7L358.6,113.1h-188.3v-57.1h285.7v285.7h-57.1v-188.3L96.3,456s-40.3-40.3-40.3-40.3Z"/>
  <path class="st4" d="M411.6,56H100.4c-24.4,0-44.4,20-44.4,44.4v311.1c0,24.4,20,44.4,44.4,44.4h311.1c24.4,0,44.4-20,44.4-44.4V100.4c0-24.4-20-44.4-44.4-44.4h.1ZM200.4,244.9c0,17.8-15.6,33.3-33.3,33.3h-22.2v44.4h-33.3v-133.3h55.6c17.8,0,33.3,15.6,33.3,33.3v22.2h0ZM311.6,289.3c0,17.8-15.6,33.3-33.3,33.3h-55.6v-133.3h55.6c17.8,0,33.3,15.6,33.3,33.3v66.7ZM400.4,222.7h-33.3v22.2h33.3v33.3h-33.3v44.4h-33.3v-133.3h66.7v33.3h-.1ZM256,222.7h22.2v66.7h-22.2v-66.7ZM144.9,222.7h22.2v22.2h-22.2v-22.2Z"/>
  <path class="st1" d="M56,150l100,63.8,100-63.8-100-64-100,64ZM256,150l100,63.8,100-63.8-100-64-100,64ZM56,277l100,63.8,100-63.8-100-64-100,64ZM356,213l-100,64,100,63.8,100-63.8-100-64ZM156.6,362l100.2,64,100-64-100-63.8-100.2,63.8h0Z"/>
  <path class="st4" d="M236,376h40v-40h-40v40ZM256,56c-26.3,0-52.3,5.2-76.5,15.2-24.3,10.1-46.3,24.8-64.9,43.4-37.5,37.5-58.6,88.4-58.6,141.4s21.1,103.9,58.6,141.4c18.6,18.6,40.6,33.3,64.9,43.4,24.3,10,50.3,15.2,76.5,15.2,53,0,103.9-21.1,141.4-58.6s58.6-88.4,58.6-141.4-5.2-52.3-15.2-76.5c-10.1-24.3-24.8-46.3-43.4-64.9s-40.6-33.3-64.9-43.4c-24.3-10.1-50.3-15.2-76.5-15.2ZM256,416c-88.2,0-160-71.8-160-160s71.8-160,160-160,160,71.8,160,160-71.8,160-160,160ZM256,136c-21.2,0-41.6,8.4-56.6,23.4s-23.4,35.4-23.4,56.6h40c0-10.6,4.2-20.8,11.7-28.3s17.7-11.7,28.3-11.7,20.8,4.2,28.3,11.7,11.7,17.7,11.7,28.3c0,40-60,35-60,100h40c0-45,60-50,60-100s-8.4-41.6-23.4-56.6-35.3-23.4-56.6-23.4Z"/>
  <path class="st4" d="M281.3,456h-50.5V153l-138.9,138.9-35.9-35.9L256,56l200,200-35.9,35.9-138.9-138.9v303h0Z"/>
  <path class="st4" d="M230.7,56h50.5v303l138.9-138.9,35.9,35.9-200,200L56,256l35.9-35.9,138.9,138.9V56h0Z"/>
  <path class="st4" d="M197.1,314.9h117.9v-117.9l-117.9,117.9Z"/>
</svg>