<svg xmlns="http://www.w3.org/2000/svg" width="500" height="500" viewBox="0 0 500 500">
  <path id="content" d="M70,430.1h315v44.9H70c-11.9,0-23.4-4.7-31.8-13.2-8.4-8.4-13.2-19.8-13.2-31.7V115.8h45v314.3ZM475,69.9v269.4c0,11.9-4.7,23.3-13.2,31.8s-19.9,13.2-31.8,13.2H160c-11.9,0-23.4-4.7-31.8-13.2s-13.2-19.8-13.2-31.8V69.9c0-11.9,4.7-23.3,13.2-31.8,8.4-8.4,19.9-13.2,31.8-13.2h270c11.9,0,23.4,4.7,31.8,13.2,8.4,8.4,13.2,19.8,13.2,31.8ZM185.5,162.7c0,11.3,9.2,20.5,20.5,20.5s20.5-9.2,20.5-20.5-9.2-20.5-20.5-20.5-20.5,9.2-20.5,20.5ZM420.2,269.9l-96-127.8-40,53.2,30.4,40.5-17.1,12.8c-18-24-48-63.9-48-63.9l-64,85.2h234.8Z"/>
</svg>