<?xml version="1.0" encoding="utf-8"?>
<!-- Generator: Adobe Illustrator 27.2.0, SVG Export Plug-In . SVG Version: 6.00 Build 0)  -->
<svg version="1.1" id="Layer_1" xmlns="http://www.w3.org/2000/svg" xmlns:xlink="http://www.w3.org/1999/xlink" x="0px" y="0px"
	 viewBox="0 0 512 512" style="enable-background:new 0 0 512 512;" xml:space="preserve">
<path d="M409,161.7l-62.6-3.1l-3.6-40.8c-0.7-8.6-8.4-14.6-17.4-13.9l-224.6,18.5c-8.9,0.7-15.4,8-14.8,16.5l16,178.9
	c0.7,8.6,8.5,14.6,17.4,13.9l11.4-1l-1.8,34.7c-0.4,9.6,7,17.3,17,17.9l250.6,11.9c10,0.4,18.3-6.5,18.8-16l10.5-199.8
	C426.4,169.9,418.9,162.2,409,161.7L409,161.7z M139.6,165.8l-5.4,102.3L121,286.8l-12.2-135.1V151c0.4-3.8,3.3-6.8,7.2-7.1
	l198.1-16.3c3.9-0.3,7.3,2.2,8,6c0,0.1,0.2,0.1,0.2,0.3c0,0.1,0.2,0.1,0.2,0.3l2,23.4l-166.1-8C148.4,149.3,140.1,156.3,139.6,165.8
	L139.6,165.8z M393.2,345.6l-35.5-42l-20.8-24.9c-1.8-2.2-4.8-4-8.1-4.1c-3.3-0.1-5.7,1.2-8.4,3.1l-12.4,9c-2.7,1.6-4.7,2.7-7.5,2.6
	s-5.2-1.2-6.9-2.9c-0.6-0.6-1.7-1.7-2.7-2.6l-32.5-37.1c-2.3-3-6.3-4.9-10.5-5.1c-4.4-0.2-8.5,1.6-11.3,4.3l-76.7,82.6l-5.2,5.6
	l0.2-5.2l5.2-97.9l2.6-47.7v-0.7c1.1-4.1,4.7-7,9-6.8l154.9,7.4l21.8,1.1l44.2,2.1c4.4,0.2,7.9,3.6,7.9,7.8c0,0.1,0.2,0.2,0.2,0.4
	c0,0.1,0.2,0.2,0.2,0.4L393.2,345.6L393.2,345.6z"/>
</svg>
