<svg xmlns="http://www.w3.org/2000/svg" width="512" height="512" viewBox="0 0 512 512">
  <path d="M436.088,152.658l-73.655-3.647-4.236-48.005c-.824-10.119-9.883-17.178-20.473-16.355l-264.265,21.767c-10.472.824-18.12,9.413-17.414,19.414l18.826,210.494c.824,10.119,10.001,17.178,20.473,16.355l13.413-1.177-2.118,40.828c-.471,11.295,8.236,20.355,20.002,21.061l294.856,14.002c11.766.471,21.532-7.648,22.12-18.826l12.354-235.085c.588-11.178-8.236-20.238-19.885-20.826M119.111,157.482l-6.354,120.366-15.531,22.002-14.355-158.959v-.824c.471-4.471,3.883-8.001,8.472-8.354l233.085-19.179c4.589-.353,8.589,2.589,9.413,7.06,0,.118.235.118.235.353,0,.118.235.118.235.353l2.353,27.532-195.434-9.413c-11.766-.353-21.532,7.883-22.12,19.061M417.497,369.036l-41.769-49.417-24.473-29.297c-2.118-2.589-5.648-4.706-9.53-4.824s-6.707,1.412-9.883,3.647l-14.59,10.589c-3.177,1.883-5.53,3.177-8.825,3.059s-6.118-1.412-8.119-3.412c-.706-.706-2-2-3.177-3.059l-38.24-43.652c-2.706-3.53-7.413-5.765-12.354-6.001-5.177-.235-10.001,1.883-13.296,5.059l-90.245,97.187-6.118,6.589.235-6.118,6.118-115.189,3.059-56.124v-.824c1.294-4.824,5.53-8.236,10.589-8.001l182.256,8.707,25.65,1.294,52.006,2.471c5.177.235,9.295,4.236,9.295,9.178,0,.118.235.235.235.471,0,.118.235.235.235.471l-9.06,177.196Z"/>
</svg>