<?xml version="1.0" encoding="UTF-8"?>
<svg id="Layer_1" xmlns="http://www.w3.org/2000/svg" version="1.1" viewBox="0 0 500 500">
  <!-- Generator: Adobe Illustrator 29.1.0, SVG Export Plug-In . SVG Version: 2.1.0 Build 142)  -->
  <path d="M452.6,133.7l-82.9-4.1-4.8-54c-.9-11.4-11.1-19.3-23-18.4L44.6,81.7c-11.8.9-20.4,10.6-19.6,21.8l21.2,236.8c.9,11.4,11.3,19.3,23,18.4l15.1-1.3-2.4,45.9c-.5,12.7,9.3,22.9,22.5,23.7l331.7,15.8c13.2.5,24.2-8.6,24.9-21.2l13.9-264.5c.7-12.6-9.3-22.8-22.4-23.4M96,139.2l-7.1,135.4-17.5,24.8-16.1-178.8v-.9c.5-5,4.4-9,9.5-9.4l262.2-21.6c5.2-.4,9.7,2.9,10.6,7.9,0,.1.3.1.3.4s.3.1.3.4l2.6,31-219.9-10.6c-13.2-.4-24.2,8.9-24.9,21.4M431.7,377.2l-47-55.6-27.5-33c-2.4-2.9-6.4-5.3-10.7-5.4s-7.5,1.6-11.1,4.1l-16.4,11.9c-3.6,2.1-6.2,3.6-9.9,3.4s-6.9-1.6-9.1-3.8-2.3-2.3-3.6-3.4l-43-49.1c-3-4-8.3-6.5-13.9-6.8-5.8-.3-11.3,2.1-15,5.7l-101.5,109.3-6.9,7.4.3-6.9,6.9-129.6,3.4-63.1v-.9c1.5-5.4,6.2-9.3,11.9-9l205,9.8,28.9,1.5,58.5,2.8c5.8.3,10.5,4.8,10.5,10.3s.3.3.3.5.3.3.3.5l-10.2,199.3Z"/>
</svg>