<svg xmlns="http://www.w3.org/2000/svg" width="512" height="512" viewBox="0 0 512 512">
  <path id="content" d="M90,410.133h280v39.911H90c-10.578,0-20.8-4.178-28.267-11.733-7.467-7.467-11.733-17.6-11.733-28.178V130.756h40v279.378h0ZM450,89.956v239.467c0,10.578-4.178,20.711-11.733,28.267-7.556,7.556-17.689,11.733-28.267,11.733h-240c-10.578,0-20.8-4.178-28.267-11.733-7.467-7.556-11.733-17.6-11.733-28.267V89.956c0-10.578,4.178-20.711,11.733-28.267,7.467-7.467,17.689-11.733,28.267-11.733h240c10.578,0,20.8,4.178,28.267,11.733,7.467,7.467,11.733,17.6,11.733,28.267ZM192.667,172.444c0,10.044,8.178,18.222,18.222,18.222s18.222-8.178,18.222-18.222-8.178-18.222-18.222-18.222-18.222,8.178-18.222,18.222ZM401.289,267.733l-85.333-113.6-35.556,47.289,27.022,36-15.2,11.378c-16-21.333-42.667-56.8-42.667-56.8l-56.889,75.733h208.711-.089Z"/>
</svg>