<svg xmlns="http://www.w3.org/2000/svg" width="512" height="512" viewBox="0 0 512 512">
    <path d="m409 161.7-62.6-3.1-3.6-40.8c-.7-8.6-8.4-14.6-17.4-13.9l-224.6 18.5c-8.9.7-15.4 8-14.8 16.5l16 178.9c.7 8.6 8.5 14.6 17.4 13.9l11.4-1-1.8 34.7c-.4 9.6 7 17.3 17 17.9l250.6 11.9c10 .4 18.3-6.5 18.8-16l10.5-199.8c.5-9.5-7-17.2-16.9-17.7zm-269.4 4.1-5.4 102.3-13.2 18.7-12.2-135.1v-.7c.4-3.8 3.3-6.8 7.2-7.1l198.1-16.3c3.9-.3 7.3 2.2 8 6 0 .1.2.1.2.3 0 .1.2.1.2.3l2 23.4-166.1-8c-10-.3-18.3 6.7-18.8 16.2zm253.6 179.8-35.5-42-20.8-24.9c-1.8-2.2-4.8-4-8.1-4.1-3.3-.1-5.7 1.2-8.4 3.1l-12.4 9c-2.7 1.6-4.7 2.7-7.5 2.6s-5.2-1.2-6.9-2.9c-.6-.6-1.7-1.7-2.7-2.6l-32.5-37.1c-2.3-3-6.3-4.9-10.5-5.1-4.4-.2-8.5 1.6-11.3 4.3l-76.7 82.6-5.2 5.6.2-5.2 5.2-97.9 2.6-47.7v-.7c1.1-4.1 4.7-7 9-6.8l154.9 7.4 21.8 1.1 44.2 2.1c4.4.2 7.9 3.6 7.9 7.8 0 .1.2.2.2.4 0 .1.2.2.2.4l-7.7 150.6z"/>
</svg>
