<svg xmlns="http://www.w3.org/2000/svg" width="512" height="512" viewBox="0 0 512 512">
  <path d="M455.981,253.375c-1.5-110.365-92.242-198.733-202.607-197.233-110.365,1.5-198.733,92.117-197.358,202.482,1.5,110.365,92.242,198.733,202.607,197.233,110.49-1.375,198.858-92.117,197.358-202.482M255.999,127.386c15.749,0,28.623,12.749,28.623,28.623s-12.749,28.623-28.623,28.623-28.623-12.749-28.623-28.623,12.874-28.623,28.623-28.623M295.245,380.114h-78.618v-9.874h19.623v-142.863h-19.623v-10.749h58.87v153.487h19.623v9.999h.125Z"/>
</svg>