<svg xmlns="http://www.w3.org/2000/svg" width="500" height="500" viewBox="0 0 500 500">
    <path d="M189.13 461.5 168.76 475l-71.05-47.37L26.66 475V25h426.32v170.53c-14.92-6.39-32.21-6.39-47.37.47V72.37H74.03v314.05l23.68-15.63 71.05 47.37 20.37-14.21zm47.37-34.82L381.92 281.5 430 329.82 284.81 475h-48.32v-48.32Zm233.29-136.65-23.21 23.21-48.32-48.32 23.21-23.21.24-.24.24-.24c4.03-3.79 10.19-4.02 14.68-.95.71.24 1.42.95 1.9 1.42l31.26 31.26c4.74 4.74 4.74 12.55 0 17.05ZM358.24 167.11v-47.37H121.39v47.37h236.84Zm-47.37 94.73v-47.37H121.39v47.37h189.47Z"/>
</svg>
