<svg xmlns="http://www.w3.org/2000/svg" width="512" height="512" viewBox="0 0 512 512">
  <path d="M195.891,438l-18.107,12-63.156-42.107-63.156,42.107V50h378.951v151.582c-13.262-5.68-28.631-5.68-42.107.418v-109.893H93.58v279.156l21.049-13.893,63.156,42.107,18.107-12.631v51.156ZM237.998,407.049l129.262-129.049,42.738,42.951-129.058,129.049h-42.951v-42.951h.009ZM445.367,285.582l-20.631,20.631-42.951-42.951,20.631-20.631.213-.213.213-.213c3.582-3.369,9.058-3.573,13.049-.844.631.213,1.262.844,1.689,1.262l27.787,27.787c4.213,4.213,4.213,11.156,0,15.156v.018ZM346.211,176.32v-42.107h-210.533v42.107h210.533ZM304.104,260.524v-42.107h-168.427v42.107h168.427Z"/>
</svg>