<svg xmlns="http://www.w3.org/2000/svg" width="512" height="512" viewBox="0 0 512 512">
    <path d="M99.6 321.916c19.2.2 64.2-8.4 81.9-26 4.1-4.1 6.7-8.5 7.8-13.4 3.2-14.1 5.6-25.3 9.1-28.6 1.9-1.9 5.4-2.1 13.4-2.7l1.4-.1c22.1-1.5 27.3-1.5 36.7-1.3l2.4.1c1.6 0 3.3.1 4.6.1 8.1.1 14 .1 36 1.5l1.1.1c10.5.6 17.4 1.1 20.2 3.5 2.7 2.4 4.7 8.8 6.7 22.5 2.5 16.5 13.9 28.4 33.8 35.5 15.9 5.6 34.4 7.4 50.7 9.2l1.5.1c14.1 1.5 25.4-2.1 33.6-10.2 9.2-9.2 11.9-21.6 13.3-28.2.1-.5.1-1.2.4-1.6 3.3-14.7 2-29.1-3.5-39.5-8.4-15.6-21.4-33.8-71.4-48.4-43.3-12.7-75.9-17.6-120.5-18.2-42-.5-58.1 1.9-93.5 7.5-39.5 6.4-71.2 18.8-86.5 34.2-14.2 14.1-25.5 25.4-22.2 61 3.1 37.1 22.5 42.5 43 42.9"/>
</svg>
