<svg xmlns="http://www.w3.org/2000/svg" width="512" height="512" viewBox="0 0 512 512">
  <path d="M437.769,346.225c-16.62-16.995-63.732-48.986-94.599-48.986-7.123,0-13.371,1.625-18.495,4.874-15.121,9.622-27.118,17.12-32.991,17.12-3.124,0-6.623-2.874-14.121-9.372l-1.25-1.125c-20.744-18.12-25.243-22.744-33.241-31.116l-1.999-2.124c-1.5-1.5-2.749-2.874-3.999-4.124-6.998-7.248-12.122-12.497-30.242-32.991l-.75-.875c-8.623-9.747-14.371-16.121-14.621-20.744-.375-4.499,3.624-11.872,13.746-25.618,12.247-16.62,12.746-36.99,1.5-60.733-8.998-18.745-23.618-36.74-36.615-52.485l-1.125-1.375c-11.247-13.621-24.118-20.494-38.614-20.494-15.996,0-29.367,8.623-36.365,13.121-.625.375-1.125.75-1.75,1.125-15.746,9.997-27.242,23.743-31.616,37.74-6.498,20.994-10.747,48.237,20.244,104.971,26.868,49.111,51.111,81.977,89.725,121.716,36.365,37.24,52.485,49.236,88.6,75.479,40.239,29.117,78.853,45.737,105.846,45.737,25.118,0,44.863,0,72.98-33.991,29.742-35.74,17.495-57.484-.25-75.729"/>
</svg>