<svg xmlns="http://www.w3.org/2000/svg" width="512" height="512" viewBox="0 0 512 512">
  <path d="M132.923,248.308v192.308c0,8.462,6.923,15.385,15.385,15.385h215.385c8.462,0,15.385-6.923,15.385-15.385v-192.308c0-8.462-6.923-15.385-15.385-15.385h-215.385c-8.462,0-15.385,6.923-15.385,15.385M379.077,56h-246.154c-8.462,0-15.385,6.923-15.385,15.385v19.231c0,2.115,1.731,3.846,3.846,3.846h269.231c2.115,0,3.846-1.731,3.846-3.846v-19.231c0-8.462-6.923-15.385-15.385-15.385M425.712,118.981H87.25c-16.923,0-31.25,13.269-31.25,30.096v167.692c0,16.827,14.327,31.058,31.25,31.058h14.904c4.231,0,7.692-3.462,7.692-7.692v-101.923c0-14.904,12.019-26.923,26.923-26.923h238.462c14.904,0,26.923,12.019,26.923,26.923v101.923c0,4.231,3.462,7.692,7.692,7.692h15.865c16.923,0,30.288-14.231,30.288-31.058v-167.692c0-16.827-13.365-30.096-30.288-30.096"/>
</svg>