<svg xmlns="http://www.w3.org/2000/svg" width="512" height="512" viewBox="0 0 512 512">
    <path d="M128 265v200c0 8.8 7.2 16 16 16h224c8.8 0 16-7.2 16-16V265c0-8.8-7.2-16-16-16H144c-8.8 0-16 7.2-16 16M384 65H128c-8.8 0-16 7.2-16 16v20c0 2.2 1.8 4 4 4h280c2.2 0 4-1.8 4-4V81c0-8.8-7.2-16-16-16"/>
    <path d="M432.5 130.5h-352c-17.6 0-32.5 13.8-32.5 31.3v174.4c0 17.5 14.9 32.3 32.5 32.3H96c4.4 0 8-3.6 8-8v-106c0-15.5 12.5-28 28-28h248c15.5 0 28 12.5 28 28v106c0 4.4 3.6 8 8 8h16.5c17.6 0 31.5-14.8 31.5-32.3V161.8c0-17.5-13.9-31.3-31.5-31.3"/>
</svg>
