<svg xmlns="http://www.w3.org/2000/svg" width="512" height="512" viewBox="0 0 512 512"><path d="M86.7 313.1c20.9.3 70.1-9.2 89.4-28.4 4.5-4.5 7.4-9.3 8.5-14.6 3.4-15.4 6.2-27.6 9.8-31.2 2-2 5.9-2.3 14.6-3l1.5-.1c24.2-1.7 29.8-1.6 40.1-1.3l2.6.1c1.8 0 3.5.1 5 .1 8.9.1 15.3.2 39.3 1.7l1.1.1c11.5.7 19 1.1 22.1 3.8 3 2.6 5.2 9.7 7.4 24.5 2.7 18 15.1 31 36.9 38.7 17.3 6.1 37.5 8.1 55.4 9.9l1.6.1c15.4 1.6 27.7-2.3 36.7-11.2 10-10 12.9-23.6 14.4-30.8.1-.6.2-1.2.4-1.8 3.6-16.1 2.2-31.7-3.8-43.1-9.1-17.1-23.3-36.8-77.9-52.8-47.2-13.9-82.9-19.2-131.6-19.9-45.8-.6-63.4 2-102.1 8.2-43.1 6.9-77.6 20.6-94.4 37.4-15.6 15.6-27.9 27.9-24.3 66.6 3.7 40.7 24.9 46.6 47.3 47z"/></svg>