<?xml version="1.0" encoding="UTF-8"?>
<svg width="512px" height="512px" viewBox="0 0 512 512" version="1.1" xmlns="http://www.w3.org/2000/svg" xmlns:xlink="http://www.w3.org/1999/xlink">
    <!-- Generator: Sketch 62 (91390) - https://sketch.com -->
    <title>ios-telephone</title>
    <desc>Created with Sketch.</desc>
    <g id="ios-telephone" stroke="none" stroke-width="1" fill="none" fill-rule="evenodd">
        <path d="M401.4,321.7 C388.1,308.1 350.4,282.5 325.7,282.5 C320,282.5 315,283.8 310.9,286.4 C298.8,294.1 289.2,300.1 284.5,300.1 C282,300.1 279.2,297.8 273.2,292.6 L272.2,291.7 C255.6,277.2 252,273.5 245.6,266.8 L244,265.1 C242.8,263.9 241.8,262.8 240.8,261.8 C235.2,256 231.1,251.8 216.6,235.4 L216,234.7 C209.1,226.9 204.5,221.8 204.3,218.1 C204,214.5 207.2,208.6 215.3,197.6 C225.1,184.3 225.5,168 216.5,149 C209.3,134 197.6,119.6 187.2,107 L186.3,105.9 C177.3,95 167,89.5 155.4,89.5 C142.6,89.5 131.9,96.4 126.3,100 C125.8,100.3 125.4,100.6 124.9,100.9 C112.3,108.9 103.1,119.9 99.6,131.1 C94.4,147.9 91,169.7 115.8,215.1 C137.3,254.4 156.7,280.7 187.6,312.5 C216.7,342.3 229.6,351.9 258.5,372.9 C290.7,396.2 321.6,409.5 343.2,409.5 C363.3,409.5 379.1,409.5 401.6,382.3 C425.4,353.7 415.6,336.3 401.4,321.7 Z" id="Path" fill="#000000" fill-rule="nonzero"></path>
    </g>
</svg>