<svg xmlns="http://www.w3.org/2000/svg" width="512" height="512" viewBox="0 0 512 512">
    <path d="M233.8 282.2c11.8 4.2-11.8-4 0 0z"/>
    <path d="M330.9 282.2c-14-4.9-29.3-5.3-43.4-10.1-4.2-1.5-12.7-3.2-14.5-8.3-1.6-4.8-1.6-10.3-2.1-15.5-.1-3.9-.3-7.9-.3-11.8 0-2.6 6.8-8.2 8.3-10.4 5.6-9.4 6.2-22 7.1-32.5 9.1 2.4 10.2-14.3 11.8-19.4 1.1-3.6 8.2-27.9-2.8-24.5 2.6-4.6 3.7-10.2 4.4-15.4 2.1-13.3 2.9-27.9-1.1-41.1-8.5-27.1-34.4-42.2-61.7-43.2-27.9-.8-55.8 12.4-66.1 39.5-4.9 13.1-4.6 27.4-2.9 41.2.8 6.3 1.7 13.3 4.9 18.8-10.1-3.1-4.7 18.5-3.5 22.2 1.6 5.3 3.1 24.4 12.6 21.8.8 8.4 1.7 17.1 4 25.2 1.6 5.5 4.8 10.2 8.6 14.5 1.9 2.1 2.8 2.3 2.8 4.9-.1 8.3.1 17-2.1 24.8-2.1 7.9-19.5 11.2-26.4 12.7-18.8 3.8-36 5.6-51.7 17.3-18.2 13.4-27.8 34.4-27.8 57h289.8c-.2-30.4-18.7-57.4-47.9-67.7z"/>
    <path d="M232.9 269.6l1.6-.8-.8.5c-.2-.2-.6-.1-.8.3zm-116.7 0l.8-.5.8-.5c7.1-3.3 14.7-4.2 22.4-4.9 2.9-.3 4.2-2.3 2.1-5.2-4.2-5.3-18.6-6.4-24.5-8.7-3.8-1.5-4.8-2.8-5.2-7-.1-1.9-1.2-10.2.3-11.5.9-.9 7.6-.7 9.1-.8 6-.8 11.9-2.1 17.7-4.2 2.3-.8 4.7-2.1 6.8-3.5 2.4-1.9-1.9-6.4-3.1-8.8-3.5-7.9-5.2-16.3-5.6-24.9-.9-16.9 1.6-33.7-1.6-50.4-4.7-25.6-24.4-38.4-49.5-38.4-15.5 0-30.8 5.3-39.6 18.8-9.6 14.9-9.1 33.5-8.6 50.5.3 9.6.8 19.5-.7 29.3-.7 4.2-1.6 8.3-3.1 12.3-1.2 3.1-7 10.4-4.7 12.2 8.6 6.2 23.3 8.3 33.7 7.5.3 5.2 1.3 11.7-.7 16.5-2.9 7.5-24.8 9.5-31.2 11.7C13.6 264.7 0 279.5 0 300.4h82.9c1.3 0 6.5-9.6 8-11.2 7.3-8 15.8-14.8 25.3-19.6zm319-11.1c-8.4-2.8-24.8-3.5-30.8-10.8-3.1-3.7-1.3-13-.9-17.3 4.6.5 9.6-.3 14.3-.8 4.2-.7 8.4-1.5 12.6-2.9 1.9-.8 3.8-1.5 5.5-2.4 4-2.3 2.3-2.8.1-6.4-11.4-19.2-6.3-43.1-6.8-64.2-.5-17.3-4.9-36.5-20.9-46.2-14.3-8.8-35.5-9.2-50.8-2.9-44.3 17.7-18.1 76.3-33.3 109.9-2.6 5.6-6.4 7.6.1 11 3.7 1.9 7.6 3.1 11.5 4 6 1.5 12.3 2.3 18.6 2.4.9 0 .3 13.1 0 14.5-1.1 5.2-12.3 6.5-16.5 7.8-4.2 1.2-11.4 1.5-13.4 6-3.1 6.8 10.3 4.9 13.8 5.6 10.8 2.1 20.3 7.9 28.7 14.7 6.3 5.2 14.7 11.9 17 20.3h83.6c-.4-21.5-14.1-36.4-32.4-42.3z"/>
</svg>
