<svg xmlns="http://www.w3.org/2000/svg" width="512" height="512" viewBox="0 0 512 512">
    <path d="M426 80.6h-26.6V54h-14.9v26.6H358v14.9h26.6V122h14.9V95.4H426V80.6zm-56 224c-13.7-4.9-33.4-6.6-45.9-9.3-7.2-1.6-17.7-5.6-21.2-9.8-3.5-4.2-1.4-43.5-1.4-43.5s6.5-10.2 10-19.1c3.5-8.9 7.3-33.4 7.3-33.4s7.2 0 9.8-12.6c2.8-13.8 7-19.5 6.5-29.9-.5-9.6-5.5-10.1-6.1-10.1s5.2-14.5 5.9-45.1C335.8 55.7 308.1 20 256 20s-79.7 35.6-78.9 71.8c.6 30.5 6 45.1 6 45.1-.5 0-5.5.5-6.1 10.1-.5 10.3 3.8 15.8 6.5 29.6 2.6 12.6 9.8 12.8 9.8 12.8s3.8 24.5 7.3 33.5 10 19.1 10 19.1 2.1 39.2-1.4 43.5c-3.5 4.2-14 8.2-21.2 9.8-12.6 2.8-32.2 4.6-45.9 9.5-13.7 4.9-56 21.4-56 55.4h340c-.1-34.2-42.4-50.7-56.1-55.6z"/>
</svg>
