<svg xmlns="http://www.w3.org/2000/svg" width="512" height="512" viewBox="0 0 512 512">
  <path d="M431,89.333h-41.667v25c0,4.583-3.75,8.333-8.333,8.333h-16.667c-4.583,0-8.333-3.75-8.333-8.333v-25h-200v25c0,4.583-3.75,8.333-8.333,8.333h-16.667c-4.583,0-8.333-3.75-8.333-8.333v-25h-41.667c-22.917,0-41.667,18.75-41.667,41.667v283.333c0,22.917,18.75,41.667,41.667,41.667h350c22.917,0,41.667-18.75,41.667-41.667V131c0-22.917-18.75-41.667-41.667-41.667M439.333,401.833c0,11.458-9.375,20.833-20.833,20.833H93.5c-11.458,0-20.833-9.375-20.833-20.833v-187.5c0-4.583,3.75-8.333,8.333-8.333h350c4.583,0,8.333,3.75,8.333,8.333v187.5ZM156,64.333c0-4.583-3.75-8.333-8.333-8.333h-16.667c-4.583,0-8.333,3.75-8.333,8.333v25h33.333v-25ZM389.333,64.333c0-4.583-3.75-8.333-8.333-8.333h-16.667c-4.583,0-8.333,3.75-8.333,8.333v25h33.333v-25Z"/>
</svg>