<svg xmlns="http://www.w3.org/2000/svg" width="512" height="512" viewBox="0 0 512 512">
  <path d="M384.526,181.895c0-69.579-58.947-125.895-128.526-125.895s-128.526,56.316-128.526,125.895c0,27.684,11.789,52.632,27.053,74.105h-.211c9.789,13.474,19.158,24.737,28.105,40.211,19.579,33.789,16.632,66.316,16.632,72.842v1.368h114.211v-1.368c0-8-3.263-39.158,16.421-72.842,9.053-15.474,18.421-26.737,28.105-40.211h-.105c15.053-21.474,26.842-46.421,26.842-74.105M340.842,254.526c-.526.737-.947,1.368-1.579,2.105-7.263,9.789-14.632,19.895-22,32.211-15.474,26.526-18.211,51.684-18.526,66.947h-14.105v-99.789l28.526-57.158h-14.737l-28.105,57.158v100h-28.526v-100l-28-57.158h-14.737l28.526,57.158v100h-14.211c-.421-15.368-3.474-40.737-18.632-66.842-4-6.842-8.105-13.474-12.211-18.737h.105l-16.737-22.842c-14.105-19.368-24.211-42-24.211-65.789,0-29.789,14.316-57.895,35.368-78.842s49.158-32.737,78.842-32.737,57.895,11.789,78.842,32.737c21.053,21.053,35.368,49.158,35.368,78.842,0,23.684-10.105,46.316-24.211,65.684l-5.053,7.053ZM227.474,441.684h57.158v14.316h-57.158v-14.316ZM213.263,413.158h85.789v14.316h-85.789v-14.316ZM213.263,384.526h85.789v14.316h-85.789v-14.316Z"/>
</svg>