<?xml version="1.0" encoding="UTF-8"?>
<svg id="Layer_1" xmlns="http://www.w3.org/2000/svg" version="1.1" viewBox="0 0 500 500">
  <!-- Generator: Adobe Illustrator 29.1.0, SVG Export Plug-In . SVG Version: 2.1.0 Build 142)  -->
  <path d="M460.7,229c-9.3-26.4-22-48.6-35.7-62.2-2.8-2.8-6.5-4.3-10.5-4.3s-7.7,1.5-10.5,4.3c-.5.5-1,1.1-1.4,1.6-2.3-4.4-4.6-8.7-7.1-12.8,3.2-6.1,1.9-13.8-3.5-18.4-8-6.6-16.2-12.6-24.6-18-3.1-3.1-6.3-6.1-9.6-9h0c-29.5-25.6-65.7-39.2-104.6-39.2s-93.1,17-125.3,47.9c-3,1.9-6,3.9-8.9,6-3.2,2.3-5.3,5.7-5.9,9.6,0,.3,0,.6-.1.9-5.4,6.8-10.1,14-14.3,21.5-2.2-1.2-4.7-1.9-7.2-1.9-4.3,0-8.3,1.8-11.1,5.1-35.7,41-55.4,93.5-55.4,147.9s6.4,63.6,16.7,97.6c1.9,6.3,7.6,10.5,14.2,10.5s2.9-.2,4.3-.6c3.8-1.2,6.9-3.7,8.8-7.1s2.3-7.5,1.1-11.3c-9.5-31.4-15.4-57.1-15.4-89s9-67.6,25.7-96.9c-1.9,12.6-2.4,25.5-1.5,38.7,2.5,35.4,6.5,54.8,10.1,72,4.7,22.8,8.3,40.9,5.5,91-.4,7.2,4,13.7,10.8,15.8,1.3.4,2.5.5,3.9.5,7.8,0,14.3-6.2,14.8-14,3.1-54.5-.9-74.3-5.9-99.4-3.4-16.3-7.1-34.8-9.5-68.3-2.6-35.9,8.1-69.9,30-96.4-7.4,19.4-9.2,41.8-5,66,9.6,55.5,18.3,120.2,10.2,178.5-.5,4.1.5,8.3,3.1,11.6,2.5,3.2,6.2,5.2,10.2,5.5.4,0,.9.1,1.3.1,7.4,0,13.6-5.5,14.6-12.8,8.9-62.4-.2-130-10.3-188-4.4-25.7-.8-47.5,10.9-64.5h0c4-5.8,3.3-13.4-1.5-18.5,6.3-2.7,12.9-5,19.5-7,1.9.9,4,1.4,6.3,1.4s.2,0,.4,0c-.6.7-1.2,1.3-1.8,2-9,10.9-18.4,31.2-11.8,64.9,13.3,67.6,16.2,131.5,8.8,190-1.1,8.1,4.8,15.6,12.8,16.6.6.1,1.3.1,1.8.1,7.5,0,13.7-5.5,14.7-13,7.9-61.7,4.9-128.7-9-199.5-3.5-17.7-1.5-31.7,5.5-40.3,3.5-4.2,8.4-7.4,14.2-9.2-2.2,3.9-2.7,8.7-.9,13.1,7.1,17.3,12.8,50,15.3,89.6,2.6,39.9,1.8,83.2-2.2,118.6-.4,3.9.6,7.8,3.1,10.9,2.5,3.1,5.9,5,10,5.4.5.1,1.1.1,1.6.1,7.6,0,13.8-5.6,14.7-13.2,4.2-38.4,5-82.9,2.2-125.3-2.7-42.5-8.9-77.1-17.3-97.4h0c-.3-.8-.7-1.5-1.1-2.2,19.1,6.7,27.5,29.9,30.4,40.8,7.5,27.8,11.8,68.1,12.4,116.5.1,8,6.7,14.6,14.8,14.6h.2c3.9-.1,7.6-1.6,10.4-4.4,2.7-2.8,4.2-6.6,4.2-10.5-.8-50.8-5.4-93.6-13.5-123.7-4.3-16.2-10.9-29.6-19.5-40.1,5.2,3.7,10.1,8.1,14.7,13.1,17.4,19.3,29.5,47.2,34.7,80.7,5.1,32,7.6,57.9,7.7,79.1.2,42.9-5.2,78.6-5.2,79.1-.6,3.9.3,7.8,2.7,11s5.7,5.3,9.6,5.9c.8.1,1.5.2,2.3.2,7.4,0,13.5-5.3,14.6-12.5.2-1.5,5.8-38.1,5.6-83.8,0-23-2.6-50.3-7.9-83.7h0c-3.9-25.1-11.3-47.6-21.6-66.7,15.7,19,27.9,42.9,35.8,70.1,12.3,42.5,15.7,96.6,9.8,156.3-.8,8.1,5.2,15.4,13.3,16.2.4,0,1,.1,1.4.1,7.7,0,14-5.7,14.7-13.4,6.3-63.5,2.5-121.4-10.9-167.5-.5-1.6-.9-3.2-1.4-4.7,5.4,9.4,10.5,20.5,14.7,32.7,7.9,22.9,12.3,47.2,12.3,68.3s-.1,8.2-.2,10.9c-.2,4,1.2,7.7,3.9,10.6,2.7,2.9,6.3,4.7,10.3,4.8h.6c7.9,0,14.4-6.2,14.8-14.2.1-3.4.2-8.8.2-12.2,0-24.7-5.1-52.8-14.3-79Z"/>
  <path d="M316.5,347h-.5c-8.2.3-14.6,7.1-14.3,15.4,0,.2.6,19.4-2.8,37.5-1.4,7.5,2.8,14.8,9.8,17.1,1.5.4,3,.8,4.7.8,7.1,0,13.2-5.1,14.5-12,4.1-21.7,3.4-43.5,3.4-44.5-.2-8.1-6.7-14.3-14.7-14.3Z"/>
</svg>