<svg xmlns="http://www.w3.org/2000/svg" width="512" height="512" viewBox="0 0 512 512">
  <path d="M455.689,127.435h-31.275v-31.275h-17.503v31.275h-31.186v17.503h31.275v31.186h17.503v-31.275h31.186v-17.414ZM389.94,390.696c-16.082-5.775-39.271-7.73-53.932-10.928-8.441-1.866-20.791-6.575-24.878-11.55s-1.688-51.088-1.688-51.088c0,0,7.641-11.995,11.728-22.479,4.087-10.484,8.618-39.271,8.618-39.271,0,0,8.441,0,11.55-14.838,3.287-16.259,8.263-22.923,7.641-35.184-.622-11.284-6.486-11.906-7.197-11.906s6.131-17.059,6.93-53.043c1.066-42.47-31.453-84.407-92.759-84.407s-93.647,41.848-92.759,84.407c.711,35.806,7.019,53.043,7.019,53.043-.622,0-6.486.622-7.197,11.906-.622,12.084,4.442,18.57,7.641,34.829,3.021,14.838,11.55,15.016,11.55,15.016,0,0,4.442,28.787,8.618,39.36,4.176,10.573,11.728,22.479,11.728,22.479,0,0,2.488,46.113-1.688,51.088-4.087,4.976-16.437,9.596-24.878,11.55-14.838,3.287-37.85,5.42-53.932,11.195-16.082,5.775-65.837,25.144-65.837,65.127h399.556c-.089-40.16-49.845-59.618-65.926-65.304"/>
</svg>