<?xml version="1.0" encoding="UTF-8"?>
<svg id="Layer_1" xmlns="http://www.w3.org/2000/svg" version="1.1" viewBox="0 0 500 500">
  <!-- Generator: Adobe Illustrator 29.1.0, SVG Export Plug-In . SVG Version: 2.1.0 Build 142)  -->
  <path d="M456.3,43.7v412.5H43.7V43.7h412.6ZM475,25H25v450h450V25ZM175,128.2h225v18.7h-225v-18.7ZM175,240.7h225v18.7h-225v-18.7ZM175,353.2h225v18.7h-225v-18.7ZM118.8,118.8c10.3,0,18.7,8.4,18.7,18.7s-8.4,18.7-18.7,18.7-18.7-8.4-18.7-18.7,8.4-18.7,18.7-18.7ZM118.8,231.3c10.3,0,18.7,8.4,18.7,18.7s-8.4,18.7-18.7,18.7-18.7-8.4-18.7-18.7,8.4-18.7,18.7-18.7ZM118.8,343.8c10.3,0,18.7,8.4,18.7,18.7s-8.4,18.7-18.7,18.7-18.7-8.4-18.7-18.7,8.4-18.7,18.7-18.7Z"/>
</svg>