<svg xmlns="http://www.w3.org/2000/svg" width="512" height="512" viewBox="0 0 512 512">
  <path d="M99.581,328.421c19.201.2,64.204-8.401,81.906-26.002,4.1-4.1,6.7-8.501,7.801-13.401,3.2-14.101,5.6-25.302,9.101-28.602,1.9-1.9,5.4-2.1,13.401-2.7l1.4-.1c22.102-1.5,27.302-1.5,36.703-1.3l2.4.1c1.6,0,3.3.1,4.6.1,8.101.1,14.001.1,36.003,1.5l1.1.1c10.501.6,17.401,1.1,20.201,3.5,2.7,2.4,4.7,8.801,6.7,22.502,2.5,16.501,13.901,28.402,33.802,35.502,15.901,5.6,34.402,7.401,50.704,9.201l1.5.1c14.101,1.5,25.402-2.1,33.602-10.201,9.201-9.201,11.901-21.602,13.301-28.202.1-.5.1-1.2.4-1.6,3.3-14.701,2-29.102-3.5-39.503-8.401-15.601-21.401-33.802-71.405-48.403-43.303-12.701-75.905-17.601-120.508-18.201-42.003-.5-58.104,1.9-93.507,7.501-39.503,6.4-71.205,18.801-86.506,34.202-14.201,14.101-25.502,25.402-22.202,61.004,3.1,37.103,22.502,42.503,43.003,42.903"/>
</svg>