<svg xmlns="http://www.w3.org/2000/svg" width="512" height="512" viewBox="0 0 512 512">
  <path d="M339.022,326.46c-12-4.178-25.067-4.533-37.156-8.622-3.556-1.244-10.844-2.756-12.444-7.111-1.333-4.089-1.333-8.8-1.778-13.244,0-3.378-.267-6.756-.267-10.133s5.778-7.022,7.111-8.889c4.8-8,5.333-18.844,6.044-27.822,7.822,2.044,8.711-12.267,10.133-16.622.978-3.111,7.022-23.822-2.4-20.978,2.222-3.911,3.2-8.711,3.733-13.156,1.778-11.378,2.489-23.822-.978-35.2-7.289-23.2-29.422-36.089-52.8-36.978-23.822-.711-47.733,10.578-56.533,33.778-4.178,11.2-3.911,23.467-2.489,35.2.711,5.422,1.422,11.378,4.178,16.089-8.622-2.667-4,15.822-3.022,19.022,1.333,4.533,2.667,20.889,10.756,18.667.711,7.2,1.422,14.667,3.378,21.6,1.333,4.711,4.089,8.711,7.378,12.444,1.6,1.778,2.4,1.956,2.4,4.178,0,7.111,0,14.578-1.778,21.244-1.778,6.756-16.711,9.6-22.578,10.844-16.089,3.289-30.756,4.8-44.267,14.756-15.556,11.467-23.822,29.422-23.822,48.8h247.911c-.178-26.044-16-49.067-40.978-57.956M255.2,315.082l1.333-.711-.711.444c-.178-.178-.533,0-.711.267M155.378,315.082l.711-.444.711-.444c6.044-2.844,12.533-3.556,19.2-4.178,2.489-.267,3.556-1.956,1.778-4.444-3.556-4.533-15.911-5.511-20.978-7.467-3.289-1.244-4.089-2.4-4.444-5.956,0-1.6-1.067-8.711.267-9.867.8-.8,6.489-.622,7.822-.711,5.156-.711,10.222-1.778,15.111-3.556,1.956-.711,4-1.778,5.778-3.022,2.044-1.6-1.6-5.511-2.667-7.556-3.022-6.756-4.444-13.956-4.8-21.333-.8-14.489,1.333-28.8-1.333-43.111-4-21.867-20.889-32.889-42.311-32.889s-26.311,4.533-33.867,16.089c-8.178,12.711-7.822,28.622-7.378,43.2.267,8.178.711,16.711-.622,25.067-.622,3.556-1.333,7.111-2.667,10.489-1.067,2.667-5.956,8.889-4,10.4,7.378,5.333,19.911,7.111,28.8,6.4.267,4.444,1.156,10.044-.622,14.133-2.489,6.4-21.244,8.089-26.667,10.044-15.556,4.8-27.2,17.422-27.2,35.289h70.933c1.156,0,5.6-8.178,6.844-9.6,6.222-6.844,13.511-12.533,21.6-16.8M428.267,305.571c-7.2-2.4-21.244-3.022-26.311-9.244-2.667-3.2-1.156-11.111-.8-14.756,3.911.444,8.178-.267,12.267-.711,3.556-.622,7.2-1.244,10.756-2.489,1.6-.711,3.289-1.244,4.711-2.044,3.378-1.956,1.956-2.4,0-5.511-9.778-16.444-5.422-36.889-5.778-54.933-.444-14.756-4.178-31.2-17.867-39.556-12.267-7.556-30.4-7.911-43.467-2.489-37.867,15.111-15.467,65.244-28.444,94.044-2.222,4.8-5.511,6.489,0,9.422,3.2,1.6,6.489,2.667,9.867,3.378,5.156,1.244,10.489,1.956,15.911,2.044.8,0,.267,11.2,0,12.444-.978,4.444-10.489,5.6-14.133,6.667-3.556,1.067-9.778,1.244-11.467,5.156-2.667,5.778,8.8,4.178,11.822,4.8,9.244,1.778,17.333,6.756,24.533,12.533,5.422,4.444,12.533,10.222,14.578,17.333h71.556c-.356-18.311-12.089-31.022-27.733-36.178"/>
</svg>