<svg xmlns="http://www.w3.org/2000/svg" width="512" height="512" viewBox="0 0 512 512">
  <path d="M439.375,72.625v366.625H72.625V72.625h366.75ZM456,56H56v400h400V56ZM202.7,162.9h160v13.3h-160v-13.3h0ZM202.7,242.9h160v13.3h-160v-13.3h0ZM202.7,322.9h160v13.3h-160v-13.3h0ZM162.7,156.2c7.345,0,13.3,5.955,13.3,13.3s-5.955,13.3-13.3,13.3-13.3-5.955-13.3-13.3,5.955-13.3,13.3-13.3ZM162.7,236.2c7.345,0,13.3,5.955,13.3,13.3s-5.955,13.3-13.3,13.3-13.3-5.955-13.3-13.3,5.955-13.3,13.3-13.3ZM162.7,316.2c7.345,0,13.3,5.955,13.3,13.3s-5.955,13.3-13.3,13.3-13.3-5.955-13.3-13.3,5.955-13.3,13.3-13.3Z"/>
</svg>