<svg xmlns="http://www.w3.org/2000/svg" width="512" height="512" viewBox="0 0 512 512">
  <path d="M443.308,237.298c-8.269-23.462-19.519-43.173-31.731-55.288-2.5-2.5-5.769-3.846-9.327-3.846s-6.827,1.346-9.327,3.846c-5.096,5.096-5.096,13.462,0,18.654,9.519,9.519,18.846,26.346,25.769,46.25,7.019,20.385,10.962,41.923,10.962,60.673,0,2.885-.096,7.308-.192,9.712-.192,3.558,1.058,6.827,3.462,9.423s5.577,4.135,9.135,4.231h.577c7.019,0,12.788-5.481,13.173-12.596.096-2.981.192-7.788.192-10.865,0-21.923-4.519-46.923-12.692-70.192M147.346,168.644c2.788,0,5.385-.865,7.692-2.5,28.75-20.577,63.654-31.442,100.962-31.442,39.231,0,77.019,14.231,109.327,41.154,2.404,1.923,5.385,3.077,8.462,3.077,3.942,0,7.596-1.731,10.096-4.712,4.615-5.577,3.846-13.846-1.635-18.558-37.212-30.865-80.769-47.212-126.25-47.212-42.885,0-83.077,12.596-116.346,36.346-2.885,2.019-4.712,5.096-5.288,8.558s.192,6.923,2.308,9.808c2.404,3.462,6.442,5.481,10.673,5.481M82.346,307.49c0-42.019,15.192-82.5,42.788-114.135,2.308-2.692,3.462-6.058,3.173-9.519-.192-3.462-1.827-6.731-4.519-9.038-2.404-2.115-5.481-3.269-8.654-3.269-3.846,0-7.404,1.635-9.904,4.519-31.731,36.442-49.231,83.077-49.231,131.442,0,31.538,5.673,56.538,14.808,86.731,1.731,5.577,6.731,9.327,12.596,9.327,1.25,0,2.596-.192,3.846-.577,3.365-1.058,6.154-3.269,7.788-6.346s2.019-6.635.962-10c-8.462-27.885-13.654-50.769-13.654-79.135M351.865,131.673c-26.25-22.788-58.365-34.808-92.981-34.808-46.442,0-87.885,17.115-116.827,48.173-27.596,29.615-41.154,68.942-38.173,110.673,2.212,31.442,5.769,48.75,8.942,64.038,4.135,20.288,7.404,36.346,4.904,80.865-.385,6.442,3.558,12.212,9.615,14.038,1.154.385,2.212.481,3.462.481,6.923,0,12.692-5.481,13.173-12.404,2.788-48.462-.769-66.058-5.288-88.365-2.981-14.519-6.346-30.962-8.462-60.673-2.5-34.327,8.654-66.635,31.154-90.865,23.846-25.673,58.558-39.808,97.5-39.808,28.173,0,54.327,9.808,75.673,28.365,21.442,18.558,37.692,45.577,47.115,77.981,10.962,37.788,13.942,85.865,8.75,138.942-.673,7.212,4.615,13.654,11.827,14.423.385,0,.865.096,1.25.096,6.827,0,12.404-5.096,13.077-11.923,5.577-56.442,2.212-107.885-9.712-148.846-10.673-37.115-29.712-68.462-55-90.385M368.981,226.385c-5.673-36.058-19.135-66.154-39.038-87.115-20-21.154-45.577-32.404-73.942-32.404-18.269,0-36.25,3.942-52.019,11.538-3.558,1.731-6.154,4.904-7.115,8.75-.962,3.942-.096,7.981,2.404,11.154,2.5,3.269,6.25,5.096,10.385,5.096,2.019,0,3.846-.481,5.673-1.25,12.115-5.769,26.154-8.846,40.577-8.846,21.538,0,40.865,8.846,56.058,25.577,15.481,17.115,26.25,41.923,30.865,71.731,4.519,28.462,6.731,51.442,6.827,70.288.192,38.173-4.615,69.904-4.615,70.288-.577,3.462.288,6.923,2.404,9.808s5.096,4.712,8.558,5.288c.673.096,1.346.192,2.019.192,6.538,0,12.019-4.712,12.981-11.154.192-1.346,5.192-33.846,5-74.519,0-20.481-2.308-44.712-7.019-74.423M188.019,164.846c3.846-5.577,2.788-13.077-2.404-17.5-2.404-2.019-5.385-3.077-8.462-3.077-4.327,0-8.365,2.115-10.865,5.673-14.135,20.673-18.942,47.212-13.846,76.731,8.558,49.327,16.25,106.827,9.038,158.654-.481,3.654.481,7.404,2.788,10.288,2.212,2.885,5.481,4.615,9.038,4.904.385,0,.769.096,1.154.096,6.538,0,12.115-4.904,12.981-11.346,7.885-55.481-.192-115.577-9.135-167.115-3.942-22.885-.673-42.212,9.712-57.308M315.135,342.25h-.481c-7.308.288-12.981,6.346-12.692,13.654,0,.192.577,17.212-2.5,33.365-1.25,6.635,2.5,13.173,8.75,15.192,1.346.385,2.692.673,4.135.673,6.346,0,11.731-4.519,12.885-10.673,3.654-19.327,2.981-38.654,2.981-39.519-.192-7.212-5.962-12.692-13.077-12.692M293.115,140.952c-10.769-10.096-24.231-15.481-38.942-15.481-19.038,0-35.288,7.019-45.769,19.712-7.981,9.712-16.346,27.692-10.481,57.692,11.827,60.096,14.423,116.923,7.788,168.846-.962,7.212,4.231,13.846,11.346,14.712.577.096,1.154.096,1.635.096,6.635,0,12.212-4.904,13.077-11.538,7.019-54.808,4.327-114.423-7.981-177.308-3.077-15.769-1.346-28.173,4.904-35.865,5.385-6.538,14.423-10.096,25.385-10.096,24.038,0,33.75,26.538,36.827,37.885,6.635,24.712,10.481,60.577,11.058,103.558.096,7.115,5.962,12.981,13.173,12.981h.192c3.462-.096,6.731-1.442,9.231-3.942,2.404-2.5,3.75-5.865,3.75-9.327-.673-45.192-4.808-83.173-12.019-110-4.712-17.788-12.596-31.923-23.173-41.923M264.846,155.279c-2.019-4.904-6.827-8.173-12.212-8.173-1.731,0-3.462.385-5,.962-6.731,2.788-9.904,10.481-7.115,17.212,6.346,15.385,11.346,44.423,13.558,79.615,2.308,35.481,1.635,73.942-1.923,105.385-.385,3.462.577,6.923,2.788,9.712s5.288,4.423,8.846,4.808c.481.096.962.096,1.442.096,6.731,0,12.308-5,13.077-11.731,3.75-34.135,4.423-73.654,1.923-111.346-2.404-37.788-7.885-68.558-15.385-86.538"/>
</svg>