<svg xmlns="http://www.w3.org/2000/svg" width="512" height="512" viewBox="0 0 512 512">
  <path d="M110.642,150.76h29.048v14.524h-29.048v-14.524ZM67.07,238.022h377.86v217.978H67.07v-217.978ZM372.31,150.76h29.048v14.524h-29.048v-14.524ZM401.358,114.096v29.048h-29.048v-29.048h-43.572v-29.048c-.472-16.531-12.399-29.048-29.284-29.048h-89.978c-16.886,0-26.096,12.399-26.096,29.048v29.048h-43.572v29.048h-29.048v-29.048h-43.69v58.096h377.86v-58.096h-43.572ZM314.096,113.624v.472h-116.31v-27.159c0-9.21,2.598-16.413,12.399-16.413h88.325c9.446,0,15.587,6.967,15.587,16.413v26.686Z"/>
</svg>