<svg xmlns="http://www.w3.org/2000/svg" width="512" height="512" viewBox="0 0 512 512">
    <path fill-rule="nonzero" d="M378.1 179.1c0-66.1-56-119.6-122.1-119.6S133.9 113 133.9 179.1c0 26.3 11.2 50 25.7 70.4h-.2c9.3 12.8 18.2 23.5 26.7 38.2 18.6 32.1 15.8 63 15.8 69.2v1.3h108.5v-1.3c0-7.6-3.1-37.2 15.6-69.2 8.6-14.7 17.5-25.4 26.7-38.2h-.1c14.3-20.4 25.5-44.1 25.5-70.4zm-41.5 69c-.5.7-.9 1.3-1.5 2-6.9 9.3-13.9 18.9-20.9 30.6-14.7 25.2-17.3 49.1-17.6 63.6h-13.4v-94.8l27.1-54.3h-14l-26.7 54.3v95h-27.1v-95l-26.6-54.3h-14l27.1 54.3v95h-13.5c-.4-14.6-3.3-38.7-17.7-63.5-3.8-6.5-7.7-12.8-11.6-17.8h.1l-15.9-21.7c-13.4-18.4-23-39.9-23-62.5 0-28.3 13.6-55 33.6-74.9C201 84.2 227.7 73 255.9 73c28.2 0 55 11.2 74.9 31.1 20 20 33.6 46.7 33.6 74.9 0 22.5-9.6 44-23 62.4l-4.8 6.7zM228.9 425.9h54.3v13.6h-54.3v-13.6zm-13.5-27.1h81.5v13.6h-81.5v-13.6zm0-27.2h81.5v13.6h-81.5v-13.6z"/>
</svg>
