<?xml version="1.0" encoding="UTF-8"?>
<svg id="Layer_1" xmlns="http://www.w3.org/2000/svg" version="1.1" viewBox="0 0 512 512">
  <!-- Generator: Adobe Illustrator 29.1.0, SVG Export Plug-In . SVG Version: 2.1.0 Build 142)  -->
  <path d="M480.7,111.2h-35.2v-35.2h-19.7v35.2h-35.1v19.7h35.2v35.1h19.7v-35.2h35.1v-19.6ZM406.7,407.5c-18.1-6.5-44.2-8.7-60.7-12.3-9.5-2.1-23.4-7.4-28-13s-1.9-57.5-1.9-57.5c0,0,8.6-13.5,13.2-25.3,4.6-11.8,9.7-44.2,9.7-44.2,0,0,9.5,0,13-16.7,3.7-18.3,9.3-25.8,8.6-39.6-.7-12.7-7.3-13.4-8.1-13.4s6.9-19.2,7.8-59.7c1.2-47.8-35.4-95-104.4-95s-105.4,47.1-104.4,95c.8,40.3,7.9,59.7,7.9,59.7-.7,0-7.3.7-8.1,13.4-.7,13.6,5,20.9,8.6,39.2,3.4,16.7,13,16.9,13,16.9,0,0,5,32.4,9.7,44.3s13.2,25.3,13.2,25.3c0,0,2.8,51.9-1.9,57.5-4.6,5.6-18.5,10.8-28,13-16.7,3.7-42.6,6.1-60.7,12.6-18.1,6.5-74.1,28.3-74.1,73.3h449.7c-.1-45.2-56.1-67.1-74.2-73.5"/>
</svg>