<?xml version="1.0" encoding="UTF-8"?>
<svg id="Layer_1" xmlns="http://www.w3.org/2000/svg" version="1.1" viewBox="0 0 500 500">
  <!-- Generator: Adobe Illustrator 29.1.0, SVG Export Plug-In . SVG Version: 2.1.0 Build 142)  -->
  <path d="M394.6,166.6c0-78.3-66.3-141.6-144.6-141.6S105.4,88.4,105.4,166.6s13.3,59.2,30.4,83.4h-.2c11,15.2,21.6,27.8,31.6,45.2,22,38,18.7,74.6,18.7,81.9v1.5h128.5v-1.5c0-9-3.7-44.1,18.5-81.9,10.2-17.4,20.7-30.1,31.6-45.2h-.1c16.9-24.2,30.2-52.2,30.2-83.4M345.4,248.3c-.6.8-1.1,1.5-1.8,2.4-8.2,11-16.5,22.4-24.7,36.2-17.4,29.8-20.5,58.1-20.8,75.3h-15.9v-112.3l32.1-64.3h-16.6l-31.6,64.3v112.5h-32.1v-112.5l-31.5-64.3h-16.6l32.1,64.3v112.5h-16c-.5-17.3-3.9-45.8-21-75.2-4.5-7.7-9.1-15.2-13.7-21.1h.1l-18.8-25.7c-15.9-21.8-27.2-47.3-27.2-74s16.1-65.1,39.8-88.7c23.7-23.6,55.3-36.8,88.7-36.8s65.1,13.3,88.7,36.8c23.7,23.7,39.8,55.3,39.8,88.7s-11.4,52.1-27.2,73.9l-5.7,7.9ZM217.9,458.9h64.3v16.1h-64.3v-16.1ZM201.9,426.8h96.5v16.1h-96.5v-16.1ZM201.9,394.6h96.5v16.1h-96.5v-16.1Z"/>
</svg>