<?xml version="1.0" encoding="UTF-8"?>
<svg id="Layer_1" xmlns="http://www.w3.org/2000/svg" version="1.1" viewBox="0 0 500 500">
  <!-- Generator: Adobe Illustrator 29.1.0, SVG Export Plug-In . SVG Version: 2.1.0 Build 142)  -->
  <path d="M111.5,241.3v216.3c0,9.5,7.8,17.3,17.3,17.3h242.3c9.5,0,17.3-7.8,17.3-17.3v-216.3c0-9.5-7.8-17.3-17.3-17.3h-242.3c-9.5,0-17.3,7.8-17.3,17.3M388.5,25H111.5c-9.5,0-17.3,7.8-17.3,17.3v21.6c0,2.4,1.9,4.3,4.3,4.3h302.9c2.4,0,4.3-1.9,4.3-4.3v-21.6c0-9.5-7.8-17.3-17.3-17.3M440.9,95.9H60.2c-19,0-35.2,14.9-35.2,33.9v188.7c0,18.9,16.1,34.9,35.2,34.9h16.8c4.8,0,8.7-3.9,8.7-8.7v-114.7c0-16.8,13.5-30.3,30.3-30.3h268.3c16.8,0,30.3,13.5,30.3,30.3v114.7c0,4.8,3.9,8.7,8.7,8.7h17.8c19,0,34.1-16,34.1-34.9v-188.7c0-18.9-15-33.9-34.1-33.9"/>
</svg>