<?xml version="1.0" encoding="UTF-8"?>
<svg id="Layer_1" xmlns="http://www.w3.org/2000/svg" version="1.1" viewBox="0 0 500 500">
  <!-- Generator: Adobe Illustrator 29.1.0, SVG Export Plug-In . SVG Version: 2.1.0 Build 142)  -->
  <path d="M431.7,76.9h-43.3v26c0,4.8-3.9,8.7-8.7,8.7h-17.3c-4.8,0-8.7-3.9-8.7-8.7v-26h-207.7v26c0,4.8-3.9,8.7-8.7,8.7h-17.3c-4.8,0-8.7-3.9-8.7-8.7v-26h-43.3c-23.8,0-43.3,19.5-43.3,43.3v294.2c0,23.8,19.5,43.3,43.3,43.3h363.5c23.8,0,43.3-19.5,43.3-43.3V120.2c0-23.8-19.5-43.3-43.3-43.3M440.4,401.4c0,11.9-9.7,21.6-21.6,21.6H81.2c-11.9,0-21.6-9.7-21.6-21.6v-194.7c0-4.8,3.9-8.7,8.7-8.7h363.5c4.8,0,8.7,3.9,8.7,8.7v194.7ZM146.2,51c0-4.8-3.9-8.7-8.7-8.7h-17.3c-4.8,0-8.7,3.9-8.7,8.7v26h34.6v-26ZM388.5,51c0-4.8-3.9-8.7-8.7-8.7h-17.3c-4.8,0-8.7,3.9-8.7,8.7v26h34.6v-26Z"/>
</svg>