<?xml version="1.0" encoding="UTF-8"?>
<svg width="512px" height="512px" viewBox="0 0 512 512" version="1.1" xmlns="http://www.w3.org/2000/svg" xmlns:xlink="http://www.w3.org/1999/xlink">
    <!-- Generator: Sketch 62 (91390) - https://sketch.com -->
    <title>ios-lightbulb-outline</title>
    <desc>Created with Sketch.</desc>
    <g id="ios-lightbulb-outline" stroke="none" stroke-width="1" fill="none" fill-rule="evenodd">
        <path d="M378.1,179.1 C378.1,113 322.1,59.5 256,59.5 C189.9,59.5 133.9,113 133.9,179.1 C133.9,205.4 145.1,229.1 159.6,249.5 L159.4,249.5 C168.7,262.3 177.6,273 186.1,287.7 C204.7,319.8 201.9,350.7 201.9,356.9 L201.9,358.2 L310.4,358.2 L310.4,356.9 C310.4,349.3 307.3,319.7 326,287.7 C334.6,273 343.5,262.3 352.7,249.5 L352.6,249.5 C366.9,229.1 378.1,205.4 378.1,179.1 L378.1,179.1 Z M336.6,248.1 C336.1,248.8 335.7,249.4 335.1,250.1 C328.2,259.4 321.2,269 314.2,280.7 C299.5,305.9 296.9,329.8 296.6,344.3 L283.2,344.3 L283.2,249.5 L310.3,195.2 L296.3,195.2 L269.6,249.5 L269.6,344.5 L242.5,344.5 L242.5,249.5 L215.9,195.2 L201.9,195.2 L229,249.5 L229,344.5 L215.5,344.5 C215.1,329.9 212.2,305.8 197.8,281 C194,274.5 190.1,268.2 186.2,263.2 L186.3,263.2 L170.4,241.5 C157,223.1 147.4,201.6 147.4,179 C147.4,150.7 161,124 181,104.1 C201,84.2 227.7,73 255.9,73 C284.1,73 310.9,84.2 330.8,104.1 C350.8,124.1 364.4,150.8 364.4,179 C364.4,201.5 354.8,223 341.4,241.4 L336.6,248.1 Z M228.9,425.9 L283.2,425.9 L283.2,439.5 L228.9,439.5 L228.9,425.9 L228.9,425.9 Z M215.4,398.8 L296.9,398.8 L296.9,412.4 L215.4,412.4 L215.4,398.8 L215.4,398.8 Z M215.4,371.6 L296.9,371.6 L296.9,385.2 L215.4,385.2 L215.4,371.6 L215.4,371.6 Z" id="Shape" fill="#000000" fill-rule="nonzero"></path>
    </g>
</svg>