<svg xmlns="http://www.w3.org/2000/svg" width="512" height="512" viewBox="0 0 512 512">
    <path d="M401.4 321.7c-13.3-13.6-51-39.2-75.7-39.2-5.7 0-10.7 1.3-14.8 3.9-12.1 7.7-21.7 13.7-26.4 13.7-2.5 0-5.3-2.3-11.3-7.5l-1-.9c-16.6-14.5-20.2-18.2-26.6-24.9l-1.6-1.7c-1.2-1.2-2.2-2.3-3.2-3.3-5.6-5.8-9.7-10-24.2-26.4l-.6-.7c-6.9-7.8-11.5-12.9-11.7-16.6-.3-3.6 2.9-9.5 11-20.5 9.8-13.3 10.2-29.6 1.2-48.6-7.2-15-18.9-29.4-29.3-42l-.9-1.1c-9-10.9-19.3-16.4-30.9-16.4-12.8 0-23.5 6.9-29.1 10.5-.5.3-.9.6-1.4.9-12.6 8-21.8 19-25.3 30.2-5.2 16.8-8.6 38.6 16.2 84 21.5 39.3 40.9 65.6 71.8 97.4 29.1 29.8 42 39.4 70.9 60.4 32.2 23.3 63.1 36.6 84.7 36.6 20.1 0 35.9 0 58.4-27.2 23.8-28.6 14-46-.2-60.6"/>
</svg>
