<?xml version="1.0" encoding="UTF-8"?>
<svg id="Layer_1" xmlns="http://www.w3.org/2000/svg" version="1.1" viewBox="0 0 500 500">
  <!-- Generator: Adobe Illustrator 29.1.0, SVG Export Plug-In . SVG Version: 2.1.0 Build 142)  -->
  <path d="M74,331.5c21.6.2,72.2-9.5,92.1-29.3,4.6-4.6,7.5-9.6,8.8-15.1,3.6-15.9,6.3-28.5,10.2-32.2,2.1-2.1,6.1-2.4,15.1-3h1.6c24.9-1.8,30.7-1.8,41.3-1.6h2.7c1.8.1,3.7.2,5.2.2,9.1.1,15.8.1,40.5,1.7h1.2c11.8.8,19.6,1.4,22.7,4.1,3,2.7,5.3,9.9,7.5,25.3,2.8,18.6,15.6,32,38,39.9,17.9,6.3,38.7,8.3,57,10.4h1.7c15.9,1.8,28.6-2.3,37.8-11.4,10.4-10.4,13.4-24.3,15-31.7.1-.6.1-1.4.5-1.8,3.7-16.5,2.3-32.7-3.9-44.4-9.5-17.6-24.1-38-80.3-54.5-48.7-14.3-85.4-19.8-135.6-20.5-47.3-.6-65.4,2.1-105.2,8.4-44.4,7.2-80.1,21.2-97.3,38.5-16,15.9-28.7,28.6-25,68.6,3.5,41.7,25.3,47.8,48.4,48.3"/>
</svg>