<?xml version="1.0" encoding="UTF-8"?>
<svg id="Layer_1" xmlns="http://www.w3.org/2000/svg" version="1.1" viewBox="0 0 500 500">
  <!-- Generator: Adobe Illustrator 29.1.0, SVG Export Plug-In . SVG Version: 2.1.0 Build 142)  -->
  <path d="M454.5,351.5c-18.7-19.1-71.7-55.1-106.4-55.1s-15,1.8-20.8,5.5c-17,10.8-30.5,19.3-37.1,19.3s-7.5-3.2-15.9-10.5l-1.4-1.3c-23.3-20.4-28.4-25.6-37.4-35l-2.2-2.4c-1.7-1.7-3.1-3.2-4.5-4.6-7.9-8.2-13.6-14.1-34-37.1l-.8-1c-9.7-11-16.2-18.1-16.4-23.3-.4-5.1,4.1-13.4,15.5-28.8,13.8-18.7,14.3-41.6,1.7-68.3-10.1-21.1-26.6-41.3-41.2-59l-1.3-1.5c-12.7-15.3-27.1-23.1-43.4-23.1s-33,9.7-40.9,14.8c-.7.4-1.3.8-2,1.3-17.7,11.2-30.6,26.7-35.6,42.5-7.3,23.6-12.1,54.3,22.8,118.1,30.2,55.3,57.5,92.2,100.9,136.9,40.9,41.9,59,55.4,99.7,84.9,45.3,32.8,88.7,51.5,119.1,51.5s50.5,0,82.1-38.2c33.5-40.2,19.7-64.7-.3-85.2"/>
</svg>