<?xml version="1.0" encoding="UTF-8"?>
<svg width="512px" height="512px" viewBox="0 0 512 512" version="1.1" xmlns="http://www.w3.org/2000/svg" xmlns:xlink="http://www.w3.org/1999/xlink">
    <!-- Generator: Sketch 62 (91390) - https://sketch.com -->
    <title>ios-book</title>
    <desc>Created with Sketch.</desc>
    <g id="ios-book" stroke="none" stroke-width="1" fill="none" fill-rule="evenodd">
        <path d="M179.7,89.5 C133.7,89.5 96,111.2 96,155.3 L96,391.1 L114.5,391.1 C125.2,369.2 151.4,356.1 179.8,356.1 C213.3,356.1 241.4,379 247.8,409.4 L249.4,409.4 L249.4,115.6 C235,97.8 208.5,89.5 179.7,89.5 Z M332.4,89.5 C303.8,89.5 276.8,97.7 262.7,115.3 L262.7,409.5 L264.2,409.5 C270.6,379.1 298.8,356.2 332.3,356.2 C360.7,356.2 383.3,365.9 397.7,391.2 L416,391.2 L416,155.3 C416,111.1 378.4,89.5 332.4,89.5 Z" id="Shape" fill="#000000" fill-rule="nonzero"></path>
    </g>
</svg>