<svg xmlns="http://www.w3.org/2000/svg" width="512" height="512" viewBox="0 0 512 512">
    <g fill-rule="nonzero">
        <path d="M132.9 120.25h24.6v12.3h-24.6v-12.3zM96 194.15h320v184.6H96v-184.6zm258.5-73.9h24.6v12.3h-24.6v-12.3z"/>
        <path d="M379.1 89.2v24.6h-24.6V89.2h-36.9V64.6c-.4-14-10.5-24.6-24.8-24.6h-76.2c-14.3 0-22.1 10.5-22.1 24.6v24.6h-36.9v24.6H133V89.2H96v49.2h320V89.2h-36.9zm-73.9-.4v.4h-98.5v-23c0-7.8 2.2-13.9 10.5-13.9H292c8 0 13.2 5.9 13.2 13.9v22.6z"/>
    </g>
</svg>
