<?xml version="1.0" encoding="UTF-8"?>
<svg width="512px" height="512px" viewBox="0 0 512 512" version="1.1" xmlns="http://www.w3.org/2000/svg" xmlns:xlink="http://www.w3.org/1999/xlink">
    <!-- Generator: Sketch 62 (91390) - https://sketch.com -->
    <title>ios-calendar</title>
    <desc>Created with Sketch.</desc>
    <g id="ios-calendar" stroke="none" stroke-width="1" fill="none" fill-rule="evenodd">
        <path d="M424,89.5 L384,89.5 L384,113.5 C384,117.9 380.4,121.5 376,121.5 L360,121.5 C355.6,121.5 352,117.9 352,113.5 L352,89.5 L160,89.5 L160,113.5 C160,117.9 156.4,121.5 152,121.5 L136,121.5 C131.6,121.5 128,117.9 128,113.5 L128,89.5 L88,89.5 C66,89.5 48,107.5 48,129.5 L48,401.5 C48,423.5 66,441.5 88,441.5 L424,441.5 C446,441.5 464,423.5 464,401.5 L464,129.5 C464,107.5 446,89.5 424,89.5 Z M432,389.5 C432,400.5 423,409.5 412,409.5 L100,409.5 C89,409.5 80,400.5 80,389.5 L80,209.5 C80,205.1 83.6,201.5 88,201.5 L424,201.5 C428.4,201.5 432,205.1 432,209.5 L432,389.5 Z M160,65.5 C160,61.1 156.4,57.5 152,57.5 L136,57.5 C131.6,57.5 128,61.1 128,65.5 L128,89.5 L160,89.5 L160,65.5 Z M384,65.5 C384,61.1 380.4,57.5 376,57.5 L360,57.5 C355.6,57.5 352,61.1 352,65.5 L352,89.5 L384,89.5 L384,65.5 Z" id="Shape" fill="#000000" fill-rule="nonzero"></path>
    </g>
</svg>