<svg xmlns="http://www.w3.org/2000/svg" width="512" height="512" viewBox="0 0 512 512">
  <defs>
    <style>
      .st0 {
        fill-rule: evenodd;
      }
    </style>
  </defs>
  <path class="st0" d="M251.222,84.535v342.929l-195.222-59.686v-225.253l195.222-57.991ZM260.792,84.535l195.208,67.052h-4.512v208.519l-190.696,67.356V84.535ZM385.826,310.366l-29.88,4.486v42.946l29.88-7.752v-39.681ZM128.685,310.326v39.431l29.502,7.654v-42.655l-29.502-4.43ZM161.938,156.986c-1.908-.22-3.829-.298-5.749-.235-2.062.07-4.118.265-6.156.584-2.194.342-4.368.796-6.516,1.359-1.692.438-3.359.973-4.991,1.6-3.138,1.209-6.125,2.778-8.9,4.676-1.372.943-2.691,1.961-3.95,3.05-1.262,1.092-2.472,2.243-3.626,3.45-1.152,1.204-2.248,2.461-3.285,3.767-1.047,1.317-2.036,2.68-2.963,4.084-.946,1.432-1.832,2.903-2.655,4.408-.841,1.536-1.625,3.102-2.351,4.695-.74,1.623-1.423,3.271-2.049,4.941-.641,1.713-1.226,3.446-1.756,5.196-1.101,3.661-1.982,7.384-2.639,11.15-.34,1.952-.623,3.913-.851,5.881-.234,2.024-.413,4.054-.538,6.087-.13,2.102-.207,4.206-.231,6.311l23.541-1.98c0-1.146.021-2.275.063-3.386.08-2.168.251-4.332.512-6.485.128-1.051.278-2.086.449-3.107.175-1.02.372-2.011.591-2.975.22-.964.464-1.901.731-2.811s.559-1.794.876-2.652c.317-.858.66-1.689,1.027-2.493.364-.808.755-1.582,1.173-2.323.813-1.452,1.767-2.822,2.847-4.088.533-.62,1.093-1.208,1.681-1.762.582-.552,1.203-1.06,1.859-1.521.652-.457,1.337-.864,2.051-1.218.726-.36,1.478-.666,2.249-.914.803-.26,1.623-.464,2.455-.609,1.193-.218,2.406-.308,3.618-.267,1.151.047,2.236.23,3.257.55,1.027.325,1.985.788,2.874,1.39.924.633,1.757,1.388,2.478,2.245.76.893,1.427,1.944,2.001,3.153.575,1.211,1.056,2.578,1.442,4.102.386,1.527.676,3.209.872,5.046.193,1.838.29,3.827.291,5.967.033,1.255.017,2.463-.049,3.623-.061,1.116-.175,2.229-.343,3.335-.165,1.06-.377,2.073-.637,3.039-.251.932-.562,1.847-.931,2.739-.708,1.71-1.533,3.369-2.467,4.966-.92,1.58-1.949,3.094-3.08,4.531-1.139,1.449-2.308,2.875-3.506,4.275-.607.71-1.22,1.414-1.839,2.114-.621.699-1.251,1.398-1.891,2.096-.647.704-1.275,1.427-1.883,2.166-.625.76-1.23,1.536-1.815,2.327-.603.815-1.187,1.644-1.751,2.486-.583.868-1.147,1.749-1.692,2.642-.553.91-1.088,1.861-1.604,2.854-.514.993-1.01,2.027-1.488,3.104-.487,1.107-.944,2.226-1.369,3.358-.45,1.193-.871,2.398-1.261,3.612-.419,1.304-.782,2.626-1.089,3.961-.335,1.456-.618,2.923-.848,4.398-.253,1.607-.457,3.22-.613,4.839-.171,1.76-.298,3.525-.379,5.292v11.602l25.429,2.734v-10.473c.125-1.316.307-2.626.545-3.927.23-1.251.511-2.442.842-3.575.317-1.097.699-2.175,1.142-3.228.431-1.018.913-1.979,1.445-2.883,1.045-1.784,2.197-3.505,3.447-5.152,1.232-1.616,2.564-3.153,3.989-4.602,1.463-1.477,2.948-2.931,4.456-4.362,1.594-1.51,3.206-3,4.838-4.469,1.735-1.566,3.359-3.25,4.862-5.04.799-.948,1.566-1.923,2.3-2.922.768-1.043,1.504-2.109,2.208-3.197.743-1.143,1.44-2.316,2.089-3.515.689-1.27,1.332-2.565,1.929-3.881.634-1.396,1.223-2.812,1.767-4.245.564-1.476,1.097-3.01,1.598-4.602.528-1.68.971-3.386,1.329-5.11.396-1.906.714-3.827.952-5.759.254-2.027.445-4.158.573-6.393.128-2.237.192-4.576.192-7.015,0-1.471-.064-2.962-.192-4.474-.131-1.537-.322-3.067-.573-4.589-.259-1.574-.577-3.138-.952-4.688-.388-1.605-.831-3.197-1.329-4.772-.498-1.589-1.084-3.148-1.754-4.672-1.978-4.484-4.706-8.598-8.068-12.165-1.116-1.189-2.316-2.296-3.592-3.312-1.282-1.022-2.633-1.956-4.042-2.794-1.44-.854-2.933-1.616-4.469-2.281-1.586-.685-3.211-1.277-4.865-1.776-1.73-.516-3.502-.88-5.295-1.087h0ZM361.951,156.726c-1.64-.004-3.277.114-4.899.353-1.617.237-3.201.596-4.753,1.078-1.556.486-3.076,1.079-4.551,1.773-1.488.704-2.924,1.512-4.298,2.419-1.412.932-2.758,1.96-4.031,3.075-1.327,1.165-2.576,2.415-3.741,3.743-1.218,1.399-2.357,2.865-3.411,4.392-1.108,1.605-2.13,3.268-3.062,4.982-.986,1.814-1.884,3.674-2.69,5.575-.857,2.02-1.625,4.076-2.303,6.163-.716,2.204-1.338,4.438-1.866,6.695-.553,2.367-1.013,4.755-1.378,7.159-.384,2.522-.677,5.057-.88,7.6-.212,2.669-.336,5.344-.372,8.02l33.315,2.8c0-1.263.027-2.505.079-3.724.053-1.218.131-2.414.236-3.586.101-1.15.232-2.298.393-3.442.156-1.124.339-2.222.548-3.295.207-1.071.442-2.102.705-3.093.263-.99.554-1.94.871-2.851.318-.908.663-1.776,1.036-2.605.372-.826.77-1.613,1.195-2.36.423-.745.876-1.443,1.357-2.096.481-.651.988-1.255,1.523-1.814.535-.557,1.096-1.066,1.685-1.53.585-.459,1.202-.876,1.847-1.248.637-.367,1.308-.67,2.005-.906.692-.236,1.413-.407,2.164-.512.767-.107,1.543-.148,2.317-.123.796.025,1.619.111,2.468.259,1.205.208,2.385.538,3.523.985,1.092.432,2.112.97,3.062,1.614.944.641,1.817,1.387,2.62,2.238.823.879,1.558,1.835,2.196,2.856.688,1.107,1.267,2.277,1.73,3.495.515,1.354.925,2.746,1.226,4.163.341,1.595.585,3.209.731,4.834.168,1.837.249,3.68.243,5.524.031,1.102.02,2.204-.034,3.305-.054,1.048-.15,2.046-.287,2.993-.135.946-.314,1.841-.537,2.686-.21.812-.473,1.609-.787,2.387-.91,2.213-2.058,4.32-3.423,6.286-.458.655-.942,1.292-1.448,1.91-2.147,2.614-4.4,5.139-6.755,7.567-.635.655-1.25,1.329-1.845,2.02-.626.726-1.233,1.469-1.818,2.228-.616.797-1.212,1.608-1.788,2.434-.605.868-1.19,1.749-1.755,2.643-.597.95-1.161,1.921-1.691,2.91-.567,1.057-1.099,2.132-1.597,3.223-.519,1.127-1.019,2.306-1.5,3.538-.498,1.273-.964,2.56-1.397,3.857-.468,1.403-.875,2.826-1.218,4.264-.38,1.576-.702,3.165-.966,4.764-.287,1.743-.521,3.494-.702,5.251-.197,1.908-.343,3.82-.439,5.735v12.459l25.608-2.755v-9.82c.12-1.303.282-2.554.485-3.753.203-1.197.447-2.343.733-3.437.287-1.09.615-2.127.984-3.111.354-.953.763-1.884,1.226-2.789.866-1.693,1.822-3.339,2.865-4.93.507-.767,1.027-1.509,1.561-2.226.526-.707,1.074-1.398,1.641-2.072.559-.661,1.126-1.319,1.7-1.974,1.728-1.98,3.498-3.923,5.309-5.829.613-.644,1.202-1.31,1.767-1.997.582-.706,1.14-1.432,1.672-2.177.541-.754,1.067-1.54,1.578-2.357.509-.815,1.004-1.661,1.486-2.536.479-.875.937-1.794,1.374-2.755.436-.959.852-1.961,1.249-3.006.395-1.045.77-2.132,1.125-3.26.353-1.128.688-2.299,1.004-3.514.316-1.21.591-2.507.826-3.891.236-1.381.432-2.848.588-4.402.158-1.552.276-3.192.353-4.919.079-1.726.118-3.541.118-5.445,0-1.147-.039-2.322-.118-3.525-.081-1.236-.198-2.469-.353-3.698-.161-1.297-.357-2.59-.588-3.877-.243-1.36-.517-2.715-.825-4.062-.637-2.8-1.483-5.548-2.534-8.221-.538-1.37-1.125-2.721-1.76-4.05-.655-1.365-1.357-2.707-2.105-4.023-.766-1.346-1.592-2.658-2.475-3.93-.905-1.304-1.869-2.566-2.888-3.784-1.054-1.261-2.162-2.477-3.32-3.644-1.21-1.221-2.468-2.393-3.771-3.513-1.364-1.171-2.803-2.252-4.307-3.238-1.586-1.038-3.233-1.98-4.932-2.82-1.823-.902-3.693-1.703-5.604-2.398-2.079-.757-4.193-1.412-6.336-1.963-1.696-.444-3.416-.786-5.153-1.024-1.668-.23-3.35-.346-5.035-.347h0Z"/>
</svg>