<svg xmlns="http://www.w3.org/2000/svg" width="512" height="512" viewBox="0 0 512 512">
    <path fill-rule="evenodd" d="M252.153 104.5v304l-173.06-52.91V155.908l173.06-51.408zm8.484 0l173.048 59.44h-4v184.848l-169.048 59.71V104.5zm110.84 200.194l-26.488 3.977v38.071l26.488-6.872v-35.176zm-227.95-.035v34.955l26.153 6.785v-37.813l-26.152-3.927zm29.478-135.933a34.481 34.481 0 00-5.096-.208 44.739 44.739 0 00-5.457.518 58.29 58.29 0 00-5.776 1.205 40.687 40.687 0 00-4.424 1.418 38.461 38.461 0 00-7.89 4.145 39.545 39.545 0 00-3.502 2.704 46.88 46.88 0 00-3.214 3.058 48.382 48.382 0 00-2.912 3.339 50.93 50.93 0 00-2.627 3.62 55.409 55.409 0 00-2.354 3.908 63.128 63.128 0 00-2.084 4.162 68.155 68.155 0 00-1.816 4.38 76.125 76.125 0 00-1.557 4.606 84.567 84.567 0 00-2.339 9.884 91.528 91.528 0 00-.754 5.213 100.555 100.555 0 00-.477 5.396 112.398 112.398 0 00-.205 5.595l20.869-1.755c0-1.017.018-2.016.056-3.002a68.93 68.93 0 01.454-5.749c.113-.93.246-1.85.398-2.754.155-.904.33-1.783.524-2.637.195-.854.412-1.686.648-2.492.237-.807.496-1.59.777-2.351.282-.761.584-1.498.91-2.21.322-.716.67-1.402 1.04-2.059a22.562 22.562 0 012.524-3.624c.473-.55.969-1.07 1.49-1.562a14.527 14.527 0 011.648-1.348 13.932 13.932 0 011.818-1.08 14.418 14.418 0 011.994-.81 16.045 16.045 0 012.176-.54 15.006 15.006 0 013.207-.237c1.02.041 1.982.204 2.887.488.91.287 1.76.699 2.548 1.232a10.978 10.978 0 012.197 1.99c.673.792 1.265 1.723 1.774 2.795.51 1.073.936 2.285 1.278 3.636.342 1.353.6 2.844.773 4.473.171 1.629.258 3.393.258 5.29.03 1.112.015 2.184-.043 3.212a30.717 30.717 0 01-.304 2.956c-.146.94-.334 1.839-.565 2.694a19.879 19.879 0 01-.825 2.428 35.795 35.795 0 01-2.187 4.402 35.286 35.286 0 01-2.73 4.017 116.725 116.725 0 01-3.108 3.79 149.61 149.61 0 01-1.63 1.874c-.55.62-1.11 1.24-1.676 1.858a45.643 45.643 0 00-1.669 1.92 50.788 50.788 0 00-1.609 2.063 55.68 55.68 0 00-1.552 2.204 64.768 64.768 0 00-1.5 2.342c-.49.806-.965 1.65-1.422 2.53-.456.88-.896 1.797-1.319 2.752a58.425 58.425 0 00-1.214 2.977 67.53 67.53 0 00-1.118 3.202 42.637 42.637 0 00-.965 3.511 55.69 55.69 0 00-.752 3.899 71.474 71.474 0 00-.543 4.29 91.935 91.935 0 00-.336 4.691v10.285l22.542 2.424V284.4a40.6 40.6 0 01.483-3.481c.204-1.109.453-2.165.746-3.169a25.67 25.67 0 011.012-2.862c.382-.902.809-1.756 1.281-2.556a46.249 46.249 0 013.056-4.567 42.573 42.573 0 013.536-4.08 178.114 178.114 0 013.95-3.867 226.83 226.83 0 014.289-3.962 45.058 45.058 0 004.31-4.468 50.107 50.107 0 002.039-2.59 56.579 56.579 0 001.957-2.834 45.303 45.303 0 001.852-3.116 54.137 54.137 0 001.71-3.44 63.893 63.893 0 001.566-3.763c.5-1.308.972-2.67 1.417-4.08a46.991 46.991 0 001.178-4.53 62.7 62.7 0 00.844-5.105c.226-1.797.394-3.686.508-5.667.113-1.983.17-4.057.17-6.219 0-1.304-.057-2.626-.17-3.966a51.95 51.95 0 00-.508-4.068 57.132 57.132 0 00-.844-4.156 63.796 63.796 0 00-1.178-4.23 39.486 39.486 0 00-1.555-4.142 38.211 38.211 0 00-7.152-10.784 30.266 30.266 0 00-3.184-2.936 31.827 31.827 0 00-3.583-2.477 34.954 34.954 0 00-3.962-2.022 39.572 39.572 0 00-4.313-1.574 27.492 27.492 0 00-4.694-.964zm177.307-.23a29.39 29.39 0 00-4.343.313c-1.433.21-2.837.529-4.213.956a31.484 31.484 0 00-4.034 1.572 31.315 31.315 0 00-3.81 2.144 32.618 32.618 0 00-3.573 2.726 36.182 36.182 0 00-3.316 3.318 43.495 43.495 0 00-3.024 3.893 48.763 48.763 0 00-2.714 4.416 56.958 56.958 0 00-2.385 4.942 66.854 66.854 0 00-2.042 5.463 72.885 72.885 0 00-1.654 5.935 82.396 82.396 0 00-1.222 6.346 94.793 94.793 0 00-.78 6.737 107.81 107.81 0 00-.33 7.11l29.533 2.482c0-1.12.025-2.22.07-3.301.046-1.08.116-2.14.209-3.179a59.99 59.99 0 01.348-3.051c.138-.996.301-1.97.486-2.921.183-.95.392-1.863.625-2.742.234-.877.49-1.72.772-2.527.282-.804.588-1.575.918-2.309.33-.732.683-1.43 1.059-2.092.376-.66.776-1.28 1.203-1.858.426-.577.876-1.113 1.35-1.608.474-.494.972-.945 1.494-1.356a13.62 13.62 0 011.637-1.106 10.06 10.06 0 011.777-.803c.614-.21 1.253-.36 1.918-.454a12.242 12.242 0 012.054-.109c.706.022 1.435.098 2.188.23a16 16 0 013.123.873c.969.383 1.872.86 2.714 1.431.837.569 1.611 1.23 2.323 1.984a16.46 16.46 0 011.947 2.532 17.912 17.912 0 011.534 3.098 24.77 24.77 0 011.087 3.69 36.19 36.19 0 01.648 4.285 52.27 52.27 0 01.215 4.897 38.184 38.184 0 01-.03 2.93c-.048.93-.133 1.813-.254 2.653-.12.839-.279 1.632-.476 2.381a16.71 16.71 0 01-.698 2.116 29.296 29.296 0 01-3.034 5.572 27.87 27.87 0 01-1.284 1.693 108.84 108.84 0 01-5.988 6.708 41.434 41.434 0 00-1.636 1.791 46.79 46.79 0 00-1.612 1.975 53.967 53.967 0 00-1.585 2.158 62.955 62.955 0 00-1.556 2.343 43.348 43.348 0 00-1.499 2.58 50.36 50.36 0 00-1.416 2.857c-.46 1-.904 2.044-1.33 3.136a70.687 70.687 0 00-1.238 3.419 45.054 45.054 0 00-1.08 3.78 59.143 59.143 0 00-.856 4.223 76.558 76.558 0 00-.622 4.655 96.46 96.46 0 00-.389 5.084v11.045l22.701-2.442v-8.705c.106-1.155.25-2.263.43-3.327.18-1.061.396-2.077.65-3.047.255-.965.545-1.886.872-2.758a23.15 23.15 0 011.087-2.472 47.345 47.345 0 012.54-4.37c.45-.68.91-1.338 1.384-1.973a38.89 38.89 0 011.455-1.837c.496-.585.998-1.17 1.507-1.75a165.983 165.983 0 014.706-5.167 31.764 31.764 0 001.566-1.77 35.408 35.408 0 001.482-1.93c.48-.668.945-1.366 1.399-2.089.452-.722.89-1.472 1.317-2.248.425-.776.83-1.59 1.218-2.442.387-.85.756-1.739 1.107-2.665.35-.926.682-1.89.997-2.89.314-1 .61-2.038.89-3.115.28-1.072.524-2.223.732-3.449.209-1.224.383-2.525.521-3.902.14-1.376.244-2.83.313-4.361.07-1.53.105-3.139.105-4.827 0-1.017-.034-2.058-.105-3.125a55.13 55.13 0 00-.313-3.278 64.938 64.938 0 00-.521-3.437 77.188 77.188 0 00-.731-3.601 50.605 50.605 0 00-2.246-7.288 54.47 54.47 0 00-1.56-3.59 57.72 57.72 0 00-1.866-3.566 45.584 45.584 0 00-2.194-3.484 47.293 47.293 0 00-2.56-3.354 51.205 51.205 0 00-2.943-3.23 57.137 57.137 0 00-3.343-3.114 37.114 37.114 0 00-3.818-2.87 41.512 41.512 0 00-4.372-2.5 49.37 49.37 0 00-4.968-2.126 60.259 60.259 0 00-5.617-1.74 39.047 39.047 0 00-4.568-.908 33.21 33.21 0 00-4.463-.308z"/>
</svg>
