<svg xmlns="http://www.w3.org/2000/svg" width="512" height="512" viewBox="0 0 512 512">
    <path fill-rule="evenodd" d="M252.153 104.5v304l-173.06-52.91V155.908zm8.484 0 173.048 59.44h-4v184.848l-169.048 59.71zm110.84 200.194-26.488 3.977v38.071l26.488-6.872zm-227.95-.035v34.955l26.153 6.785v-37.813zm29.478-135.933a34.5 34.5 0 0 0-5.096-.208 45 45 0 0 0-5.457.518 58 58 0 0 0-5.776 1.205 41 41 0 0 0-4.424 1.418 38.5 38.5 0 0 0-7.89 4.145 40 40 0 0 0-3.502 2.704 47 47 0 0 0-3.214 3.058 48 48 0 0 0-2.912 3.339 51 51 0 0 0-2.627 3.62 55 55 0 0 0-2.354 3.908 63 63 0 0 0-2.084 4.162 68 68 0 0 0-1.816 4.38 76 76 0 0 0-1.557 4.606 85 85 0 0 0-2.339 9.884 92 92 0 0 0-.754 5.213 101 101 0 0 0-.477 5.396 112 112 0 0 0-.205 5.595l20.869-1.755q0-1.524.056-3.002a69 69 0 0 1 .454-5.749q.17-1.397.398-2.754.233-1.356.524-2.637.293-1.282.648-2.492t.777-2.351.91-2.21q.484-1.074 1.04-2.059a22.6 22.6 0 0 1 2.524-3.624q.709-.825 1.49-1.562a14.5 14.5 0 0 1 1.648-1.348 14 14 0 0 1 1.818-1.08 14.4 14.4 0 0 1 1.994-.81 16 16 0 0 1 2.176-.54 15 15 0 0 1 3.207-.237q1.53.062 2.887.488 1.365.432 2.548 1.232a11 11 0 0 1 2.197 1.99q1.01 1.188 1.774 2.795.765 1.61 1.278 3.636.513 2.03.773 4.473.257 2.444.258 5.29.044 1.669-.043 3.212a31 31 0 0 1-.304 2.956q-.219 1.41-.565 2.694a20 20 0 0 1-.825 2.428 36 36 0 0 1-2.187 4.402 35 35 0 0 1-2.73 4.017 117 117 0 0 1-3.108 3.79 150 150 0 0 1-1.63 1.874q-.826.93-1.676 1.858a46 46 0 0 0-1.669 1.92 51 51 0 0 0-1.609 2.063 56 56 0 0 0-1.552 2.204 65 65 0 0 0-1.5 2.342q-.736 1.21-1.422 2.53-.684 1.32-1.319 2.752a58 58 0 0 0-1.214 2.977 68 68 0 0 0-1.118 3.202 43 43 0 0 0-.965 3.511 56 56 0 0 0-.752 3.899 72 72 0 0 0-.543 4.29 92 92 0 0 0-.336 4.691v10.285l22.542 2.424V284.4a41 41 0 0 1 .483-3.481q.306-1.663.746-3.169a26 26 0 0 1 1.012-2.862q.573-1.354 1.281-2.556a46 46 0 0 1 3.056-4.567 43 43 0 0 1 3.536-4.08 178 178 0 0 1 3.95-3.867 227 227 0 0 1 4.289-3.962 45 45 0 0 0 4.31-4.468 50 50 0 0 0 2.039-2.59 57 57 0 0 0 1.957-2.834 45 45 0 0 0 1.852-3.116 54 54 0 0 0 1.71-3.44 64 64 0 0 0 1.566-3.763q.75-1.963 1.417-4.08a47 47 0 0 0 1.178-4.53 63 63 0 0 0 .844-5.105q.338-2.696.508-5.667.17-2.975.17-6.219 0-1.956-.17-3.966a52 52 0 0 0-.508-4.068 57 57 0 0 0-.844-4.156 64 64 0 0 0-1.178-4.23 40 40 0 0 0-1.555-4.142 38.2 38.2 0 0 0-7.152-10.784 30 30 0 0 0-3.184-2.936 32 32 0 0 0-3.583-2.477 35 35 0 0 0-3.962-2.022 40 40 0 0 0-4.313-1.574 27.5 27.5 0 0 0-4.694-.964zm177.307-.23a29.4 29.4 0 0 0-4.343.313q-2.15.315-4.213.956a31.5 31.5 0 0 0-4.034 1.572 31 31 0 0 0-3.81 2.144 33 33 0 0 0-3.573 2.726 36 36 0 0 0-3.316 3.318 44 44 0 0 0-3.024 3.893 49 49 0 0 0-2.714 4.416 57 57 0 0 0-2.385 4.942 67 67 0 0 0-2.042 5.463 73 73 0 0 0-1.654 5.935 82 82 0 0 0-1.222 6.346 95 95 0 0 0-.78 6.737 108 108 0 0 0-.33 7.11l29.533 2.482q.001-1.68.07-3.301.07-1.62.209-3.179a60 60 0 0 1 .348-3.051q.208-1.494.486-2.921.275-1.424.625-2.742.35-1.316.772-2.527.423-1.207.918-2.309.495-1.099 1.059-2.092.563-.99 1.203-1.858.639-.865 1.35-1.608.711-.74 1.494-1.356a14 14 0 0 1 1.637-1.106 10 10 0 0 1 1.777-.803q.92-.314 1.918-.454a12 12 0 0 1 2.054-.109q1.059.033 2.188.23a16 16 0 0 1 3.123.873q1.452.575 2.714 1.431 1.255.853 2.323 1.984a16.5 16.5 0 0 1 1.947 2.532 18 18 0 0 1 1.534 3.098 25 25 0 0 1 1.087 3.69 36 36 0 0 1 .648 4.285 52 52 0 0 1 .215 4.897 38 38 0 0 1-.03 2.93q-.072 1.394-.254 2.653-.18 1.258-.476 2.381a17 17 0 0 1-.698 2.116 29.3 29.3 0 0 1-3.034 5.572 28 28 0 0 1-1.284 1.693 109 109 0 0 1-5.988 6.708 41 41 0 0 0-1.636 1.791 47 47 0 0 0-1.612 1.975 54 54 0 0 0-1.585 2.158 63 63 0 0 0-1.556 2.343 43 43 0 0 0-1.499 2.58 50 50 0 0 0-1.416 2.857q-.69 1.499-1.33 3.136a71 71 0 0 0-1.238 3.419 45 45 0 0 0-1.08 3.78 59 59 0 0 0-.856 4.223 77 77 0 0 0-.622 4.655 97 97 0 0 0-.389 5.084v11.045l22.701-2.442v-8.705q.16-1.732.43-3.327.27-1.592.65-3.047.382-1.449.872-2.758a23 23 0 0 1 1.087-2.472 47 47 0 0 1 2.54-4.37q.674-1.02 1.384-1.973a39 39 0 0 1 1.455-1.837q.744-.879 1.507-1.75a166 166 0 0 1 4.706-5.167 32 32 0 0 0 1.566-1.77 35 35 0 0 0 1.482-1.93q.719-1.003 1.399-2.089.677-1.084 1.317-2.248.637-1.164 1.218-2.442.58-1.275 1.107-2.665.525-1.39.997-2.89.47-1.5.89-3.115.42-1.609.732-3.449.314-1.836.521-3.902.21-2.064.313-4.361.105-2.295.105-4.827 0-1.525-.105-3.125a55 55 0 0 0-.313-3.278 65 65 0 0 0-.521-3.437 77 77 0 0 0-.731-3.601 50.6 50.6 0 0 0-2.246-7.288 55 55 0 0 0-1.56-3.59 58 58 0 0 0-1.866-3.566 46 46 0 0 0-2.194-3.484 47 47 0 0 0-2.56-3.354 51 51 0 0 0-2.943-3.23 57 57 0 0 0-3.343-3.114 37 37 0 0 0-3.818-2.87 42 42 0 0 0-4.372-2.5 49 49 0 0 0-4.968-2.126 60 60 0 0 0-5.617-1.74 39 39 0 0 0-4.568-.908 33 33 0 0 0-4.463-.308z"/>
</svg>
