<?xml version="1.0" encoding="UTF-8"?>
<svg id="Layer_1" xmlns="http://www.w3.org/2000/svg" version="1.1" viewBox="0 0 500 500">
  <!-- Generator: Adobe Illustrator 29.1.0, SVG Export Plug-In . SVG Version: 2.1.0 Build 142)  -->
  <path d="M44.4,130.3c12,6.3,177.2,96.3,183.4,99.6,6.2,3.2,12.4,4.8,22.2,4.8s16-1.5,22.2-4.8,171.4-93.4,183.4-99.6c4.5-2.2,12-6.3,13.5-11,2.8-8.2-.3-11.4-12.2-11.4H43.1c-12,0-15,3.2-12.2,11.4,1.7,4.9,9.1,8.7,13.5,11M466,142.3c-8.9,4.5-88.5,61.2-141.2,95.3l88.9,100.1c2.1,2.1,3.1,4.8,2,6-1.3,1.1-4.1.6-6.3-1.5l-106.6-90c-16.2,10.4-27.4,17.6-29.4,18.6-8.3,4.2-14.2,4.8-22.2,4.8s-13.8-.6-22.2-4.8c-2.1-1.1-13.4-8.2-29.4-18.6l-106.6,90c-2.1,2.1-5.1,2.8-6.3,1.5-1.3-1.1-.3-3.9,1.8-6l88.9-100.1c-52.7-34-133.2-90.7-142-95.3-9.7-4.9-10.3.8-10.3,5.3v221.8c0,10.1,14.8,22.6,25.5,22.6h401.3c10.5,0,23.2-12.7,23.2-22.6v-221.8c0-4.6.7-10.4-9-5.3"/>
</svg>