<svg xmlns="http://www.w3.org/2000/svg" width="512" height="512" viewBox="0 0 512 512">
  <path d="M73.25,149.628c10.625,5.625,157.496,85.623,162.996,88.498s11,4.25,19.749,4.25c8.875,0,14.25-1.375,19.749-4.25s152.371-82.998,162.996-88.498c4-2,10.625-5.625,12-9.75,2.5-7.25-.25-10.125-10.875-10.125H72.125c-10.625,0-13.375,2.875-10.875,10.125,1.5,4.375,8.125,7.75,12,9.75M447.99,160.252c-7.875,4-78.623,54.374-125.497,84.748l78.998,88.998c1.875,1.875,2.75,4.25,1.75,5.375-1.125,1-3.625.5-5.625-1.375l-94.748-79.998c-14.375,9.25-24.374,15.625-26.124,16.5-7.375,3.75-12.625,4.25-19.749,4.25s-12.25-.5-19.75-4.25c-1.875-1-11.875-7.25-26.124-16.5l-94.748,79.998c-1.875,1.875-4.5,2.5-5.625,1.375-1.125-1-.25-3.5,1.625-5.375l78.998-88.998c-46.874-30.249-118.372-80.623-126.247-84.748-8.625-4.375-9.125.75-9.125,4.75v197.12c0,9,13.125,20.125,22.624,20.125h356.741c9.375,0,20.624-11.25,20.624-20.125v-197.12c0-4.125.625-9.25-8-4.75"/>
</svg>