<svg xmlns="http://www.w3.org/2000/svg" width="500" height="500" viewBox="0 0 500 500">
  <path id="content" d="M67.7,250c0-38.5,31.3-69.7,69.8-69.7h90v-42.8h-90c-29.8,0-58.5,11.9-79.5,33-21.1,21.1-33,49.7-33,79.5s11.9,58.5,33,79.6c21.1,21.1,49.7,32.9,79.5,32.9h90v-42.8h-90c-38.5,0-69.8-31.3-69.8-69.7ZM160,272.5h180v-45h-180v45ZM362.5,137.5h-90v42.8h90c38.5,0,69.7,31.3,69.7,69.7s-31.3,69.7-69.7,69.7h-90v42.8h90c29.8,0,58.5-11.9,79.6-32.9,21.1-21.1,32.9-49.7,32.9-79.6s-11.9-58.5-32.9-79.5c-21.1-21.1-49.7-33-79.6-33Z"/>
</svg>