<?xml version="1.0" encoding="UTF-8"?>
<svg id="Layer_1" xmlns="http://www.w3.org/2000/svg" version="1.1" viewBox="0 0 500 500">
  <!-- Generator: Adobe Illustrator 29.1.0, SVG Export Plug-In . SVG Version: 2.1.0 Build 142)  -->
  <path d="M250.6,193.7h-.6.6ZM381.9,137.5h-56.8s30.6,20,36.9,56.2h19.8c20.7,0,36.8,16.3,36.8,36.8v37.5c0,20.7-16.3,38.1-36.8,38.1h-131.1c-20.7,0-38.1-17.4-38.1-38.1v-36.9h-56.2v36.9c0,13.5,3,26.4,8.2,38.1,14.8,33,48,56.2,86.2,56.2h131.2c51.8,0,93.1-42.5,93.1-94.4v-37.5c0-51.7-41.3-93.1-93.1-93.1M336.2,193.8c-14.2-33.2-47-56.2-85.6-56.2H119.4c-51.9,0-94.4,41.3-94.4,93.1v37.5c0,51.8,42.5,94.4,94.4,94.4h55.7s-30.2-20-37.7-56.2h-18c-20.7,0-38.1-17.4-38.1-38.1v-37.5c0-20.7,17.4-36.8,38.1-36.8h131.2c20.7,0,36.8,16.3,36.8,36.8v38.1h56.2v-38.1c.1-13-2.5-25.6-7.5-36.8"/>
</svg>