<svg xmlns="http://www.w3.org/2000/svg" width="512" height="512" viewBox="0 0 512 512">
    <g fill-rule="nonzero">
        <path d="M216.5 202h-.5.5zm110.9-47.5h-48s25.8 16.9 31.2 47.5h16.7c17.5 0 31.1 13.8 31.1 31.1v31.7c0 17.5-13.8 32.2-31.1 32.2H216.6c-17.5 0-32.2-14.7-32.2-32.2v-31.2h-47.5v31.2c0 11.4 2.5 22.3 6.9 32.2 12.5 27.9 40.5 47.5 72.8 47.5h110.8c43.7 0 78.6-35.9 78.6-79.7v-31.7c0-43.7-34.9-78.6-78.6-78.6z"/>
        <path d="M288.8 202c-12-28-39.7-47.5-72.3-47.5H105.7c-43.8 0-79.7 34.9-79.7 78.6v31.7c0 43.7 35.9 79.7 79.7 79.7h47s-25.5-16.9-31.8-47.5h-15.2c-17.5 0-32.2-14.7-32.2-32.2v-31.7c0-17.5 14.7-31.1 32.2-31.1h110.8c17.5 0 31.1 13.8 31.1 31.1v32.2h47.5v-32.2c.1-11-2.1-21.6-6.3-31.1z"/>
    </g>
</svg>
