<svg xmlns="http://www.w3.org/2000/svg" width="512" height="512" viewBox="0 0 512 512">
  <path id="content" d="M87.956,250c0-34.222,27.822-61.956,62.044-61.956h80v-38.044h-80c-26.489,0-52,10.578-70.667,29.333-18.756,18.756-29.333,44.178-29.333,70.667s10.578,52,29.333,70.756,44.178,29.244,70.667,29.244h80v-38.044h-80c-34.222,0-62.044-27.822-62.044-61.956h0ZM170,270h160v-40h-160v40ZM350,150h-80v38.044h80c34.222,0,61.956,27.822,61.956,61.956s-27.822,61.956-61.956,61.956h-80v38.044h80c26.489,0,52-10.578,70.756-29.244,18.756-18.756,29.244-44.178,29.244-70.756s-10.578-52-29.244-70.667c-18.756-18.756-44.178-29.333-70.756-29.333Z"/>
</svg>