<svg xmlns="http://www.w3.org/2000/svg" width="512" height="512" viewBox="0 0 512 512">
  <path d="M232.961,168.892h218.627v31.373h-218.627v-31.373h0ZM232.961,74.775h218.627v31.373h-218.627v-31.373h0ZM237.373,405.951h218.627v31.373h-218.627v-31.373ZM237.373,311.833h218.627v31.373h-218.627v-31.373ZM118.157,74.676c34.328,0,62.157,27.829,62.157,62.157s-27.829,62.157-62.157,62.157-62.157-27.829-62.157-62.157,27.829-62.157,62.157-62.157ZM118.157,311.833c34.328,0,62.157,27.829,62.157,62.157s-27.829,62.157-62.157,62.157-62.157-27.829-62.157-62.157,27.829-62.157,62.157-62.157Z"/>
</svg>