<svg xmlns="http://www.w3.org/2000/svg" width="512" height="512" viewBox="0 0 512 512">
  <path d="M226.663,195.918h224.786v29.122h-224.786v-29.122h0ZM226.663,108.551h224.786v29.122h-224.786v-29.122h0ZM85.938,76.048c0-8.944,7.453-16.149,16.149-16.149,8.944,0,16.149,7.205,16.149,16.149s-7.205,16.148-16.149,16.148c-8.695,0-16.149-7.205-16.149-16.148ZM89.167,112.072h26.087v119.998h-26.087v-119.998ZM231.214,415.972h224.786v29.122h-224.786v-29.122ZM231.214,328.605h224.786v29.122h-224.786v-29.122ZM56,296.079c0-8.944,7.453-16.149,16.149-16.149,8.944,0,16.149,7.205,16.149,16.149s-7.205,16.148-16.149,16.148c-8.695,0-16.149-7.205-16.149-16.148ZM59.23,332.103h26.087v119.998h-26.087v-119.998h0ZM115.876,296.079c0-8.944,7.453-16.149,16.149-16.149,8.944,0,16.149,7.205,16.149,16.149s-7.205,16.148-16.149,16.148c-8.695,0-16.149-7.205-16.149-16.148ZM119.105,332.103h26.087v119.998h-26.087v-119.998h0Z"/>
</svg>