<?xml version="1.0" encoding="UTF-8"?>
<svg id="Layer_1" xmlns="http://www.w3.org/2000/svg" version="1.1" viewBox="0 0 500 500">
  <!-- Generator: Adobe Illustrator 29.1.0, SVG Export Plug-In . SVG Version: 2.1.0 Build 142)  -->
  <path d="M226.6,232.2h248.4v35.6h-248.4v-35.6ZM226.6,125.2h248.4v35.6h-248.4v-35.6ZM226.6,339.1h248.4v35.6h-248.4v-35.6ZM42.8,366.4l1.6-1.3,112.5-97.8c3.8-3.3,6.2-8.2,6.2-13.8s-2.5-10.5-6.2-13.8l-112.4-97.8-1.9-1.7c-1.8-1.2-4-1.9-6.2-1.9-6.2,0-11.4,5.3-11.4,11.9v206.3c0,6.6,5.1,11.9,11.4,11.9s4.6-.8,6.5-2"/>
</svg>