<?xml version="1.0" encoding="UTF-8"?>
<svg id="Layer_1" xmlns="http://www.w3.org/2000/svg" version="1.1" viewBox="0 0 500 500">
  <!-- Generator: Adobe Illustrator 29.1.0, SVG Export Plug-In . SVG Version: 2.1.0 Build 142)  -->
  <path d="M227.7,154.1h242.4v34.8h-242.4v-34.8ZM227.7,49.7h242.4v34.8h-242.4v-34.8ZM232.6,416.9h242.4v34.8h-242.4v-34.8ZM232.6,312.6h242.4v34.8h-242.4v-34.8ZM100.4,456.9c-41.6,0-75.4-33.8-75.4-75.4s33.8-75.4,75.4-75.4,75.4,33.8,75.4,75.4-33.8,75.4-75.4,75.4ZM100.4,319.1c-34.4,0-62.4,28-62.4,62.4s28,62.4,62.4,62.4,62.4-28,62.4-62.4-28-62.4-62.4-62.4ZM100.4,194c-41.6,0-75.4-33.8-75.4-75.4S58.8,43.1,100.4,43.1s75.4,33.8,75.4,75.4-33.8,75.4-75.4,75.4ZM100.4,56.1c-34.4,0-62.4,28-62.4,62.4s28,62.4,62.4,62.4,62.4-28,62.4-62.4-28-62.4-62.4-62.4Z"/>
</svg>