<svg xmlns="http://www.w3.org/2000/svg" width="512" height="512" viewBox="0 0 512 512">
  <path d="M235.208,240.158h220.792v31.683h-220.792v-31.683ZM235.208,145.109h220.792v31.683h-220.792v-31.683ZM235.208,335.208h220.792v31.683h-220.792v-31.683ZM162.931,158.475l-1.386,1.188-100,86.931c-3.366,2.97-5.545,7.327-5.545,12.277s2.178,9.307,5.545,12.277l99.901,86.931,1.683,1.485c1.584,1.089,3.564,1.683,5.545,1.683,5.545,0,10.099-4.752,10.099-10.594v-183.366c0-5.842-4.554-10.594-10.099-10.594-2.079,0-4.059.693-5.743,1.782"/>
</svg>