<svg xmlns="http://www.w3.org/2000/svg" width="512" height="512" viewBox="0 0 512 512">
  <path d="M239.344,201.177h201.866v28.967h-201.866v-28.967h0ZM239.344,114.275h201.866v28.967h-201.866v-28.967h0ZM136.919,97.278l-29.601,30.688-18.467-19.281,52.142-52.685h27.701v181.138h-31.774V97.278h-.001ZM243.417,420.062h201.866v28.967h-201.866v-28.967h0ZM243.417,333.16h201.866v28.967h-201.866v-28.967h0ZM69.163,431.015c70.337-53.227,97.766-76.854,97.766-102.926,0-19.01-16.295-27.7-32.861-27.7-21.182,0-37.477,8.69-48.883,21.726l-18.467-20.911c16.023-19.281,41.55-29.058,66.807-29.058,35.033,0,65.72,19.824,65.72,55.943,0,33.403-30.688,63.277-79.299,99.939h80.386v27.972H69.163v-24.985h0Z"/>
</svg>