<?xml version="1.0" encoding="UTF-8"?>
<svg id="Layer_1" xmlns="http://www.w3.org/2000/svg" version="1.1" viewBox="0 0 500 500">
  <!-- Generator: Adobe Illustrator 29.1.0, SVG Export Plug-In . SVG Version: 2.1.0 Build 142)  -->
  <path d="M225.3,153.2h244.8v35.1h-244.8v-35.1ZM225.3,47.8h244.8v35.1h-244.8v-35.1ZM131.7,179.7c-11.9,13.5-30.3,21.1-51.4,21.1s-55.3-17.5-55.3-52.7,29.3-51.7,55.3-51.7,39.8,6.9,51.4,20.4v-23.7c0-18.4-15.1-29.6-37.2-29.6s-33.3,6.6-47.1,20.1l-14.2-24c18.4-17.5,41.5-25.7,66.9-25.7s66.2,14.8,66.2,57.6v105.4h-34.6v-17.1ZM131.7,136.6c-7.9-10.9-22.7-16.5-37.9-16.5s-33.9,11.2-33.9,28.6,14.5,28.3,33.9,28.3,30-5.6,37.9-16.5v-24ZM230.2,418.6h244.8v35.1h-244.8v-35.1ZM230.2,313.3h244.8v35.1h-244.8v-35.1ZM27.1,242.6h34.6v82.7c12.5-16.8,31-26,51-26,40.8,0,70.5,32.3,70.5,83.6s-30,83.3-70.5,83.3-38.9-9.9-51-25.7v21.7H27.1v-219.7ZM102.6,435.6c27.7,0,45.1-21.7,45.1-52.7s-17.5-53-45.1-53-33.3,9.9-40.8,21.7v62.9c7.6,11.9,24.7,21.1,40.8,21.1Z"/>
</svg>