<svg id="content" xmlns="http://www.w3.org/2000/svg" version="1.1" width="512" height="512" viewBox="0 0 512 512">
  <path d="M233.8,322.8h133.3v44.4h-133.3v-44.4ZM189.3,144.9h-44.4v44.4h44.4v-44.4h0ZM233.8,278.3h133.3v-44.4h-133.3v44.4ZM233.8,189.4h133.3v-44.4h-133.3v44.4h0ZM189.3,233.9h-44.4v44.4h44.4v-44.4h0ZM456,100.5v311.1c0,24.4-20,44.4-44.4,44.4H100.4c-24.4,0-44.4-20-44.4-44.4V100.5c0-24.4,20-44.4,44.4-44.4h311.1c24.4,0,44.4,20,44.4,44.4h.1ZM411.6,100.5H100.4v311.1h311.1V100.5h.1ZM189.3,322.8h-44.4v44.4h44.4v-44.4h0Z"/>
</svg>