<svg xmlns="http://www.w3.org/2000/svg" width="512" height="512" viewBox="0 0 512 512">
  <path d="M234.021,169.978h217.588v31.223h-217.588v-31.223h0ZM234.021,76.308h217.588v31.223h-217.588v-31.223h0ZM150.842,193.517c-10.538,12.002-26.93,18.734-45.664,18.734-23.125,0-49.177-15.514-49.177-46.835,0-32.493,26.052-45.957,49.177-45.957,19.027,0,35.419,6.147,45.664,18.149v-21.076c0-16.392-13.465-26.345-33.077-26.345-15.807,0-29.565,5.854-41.86,17.856l-12.587-21.369c16.393-15.514,36.883-22.832,59.422-22.832,31.321,0,58.837,13.173,58.837,51.227v93.671h-30.736v-15.222h0ZM150.842,155.171c-7.025-9.66-20.198-14.636-33.663-14.636-17.271,0-30.15,9.953-30.15,25.466,0,15.222,12.88,25.175,30.15,25.175,13.465,0,26.638-4.977,33.663-14.636v-21.369ZM238.411,405.909h217.588v31.223h-217.588v-31.223ZM238.411,312.239h217.588v31.223h-217.588v-31.223ZM57.903,249.401h30.735v73.473c11.124-14.929,27.516-23.126,45.372-23.126,36.298,0,62.642,28.687,62.642,74.352,0,46.542-26.638,74.058-62.642,74.058-18.441,0-34.541-8.782-45.372-22.831v19.319h-30.735v-195.245h0ZM124.935,420.936c24.589,0,40.103-19.32,40.103-46.836s-15.514-47.128-40.103-47.128c-14.343,0-29.565,8.782-36.298,19.32v55.91c6.733,10.538,21.954,18.734,36.298,18.734h0Z"/>
</svg>