<svg xmlns="http://www.w3.org/2000/svg" width="512" height="512" viewBox="0 0 512 512">
  <path d="M439.333,239.333h-83.333c-9.111,0-16.667,7.556-16.667,16.667s7.556,16.667,16.667,16.667h83.333c9.111,0,16.667-7.556,16.667-16.667s-7.556-16.667-16.667-16.667M172.667,256c0-9.111-7.556-16.667-16.667-16.667h-83.333c-9.111,0-16.667,7.556-16.667,16.667s7.556,16.667,16.667,16.667h83.333c9.111,0,16.667-7.556,16.667-16.667M256,339.333c-9.111,0-16.667,7.556-16.667,16.667v83.333c0,9.111,7.556,16.667,16.667,16.667s16.667-7.556,16.667-16.667v-83.333c0-9.111-7.556-16.667-16.667-16.667M256,56c-9.111,0-16.667,7.556-16.667,16.667v83.333c0,9.111,7.556,16.667,16.667,16.667s16.667-7.556,16.667-16.667v-83.333c0-9.111-7.556-16.667-16.667-16.667M328.222,214.333c4.667,8,14.778,10.778,22.778,6.111l72.222-41.667c8-4.667,10.778-14.778,6.111-22.778-4.667-8-14.778-10.778-22.778-6.111l-72.111,41.667c-8.222,4.667-10.778,14.667-6.222,22.778M183.778,297.667c-4.667-8-14.778-10.778-22.778-6.111l-72.222,41.667c-8,4.667-10.778,14.778-6.111,22.778s14.778,10.778,22.778,6.111l72.222-41.667c8-4.667,10.667-14.778,6.111-22.778M320.444,334.222c-4.667-8-14.778-10.778-22.778-6.111s-10.778,14.778-6.111,22.778l41.667,72.222c4.667,8,14.778,10.778,22.778,6.111,8-4.667,10.778-14.778,6.111-22.778l-41.667-72.222ZM178.778,88.889c-4.667-8-14.778-10.778-22.778-6.111s-10.778,14.778-6.111,22.778l41.667,72.222c4.667,8,14.778,10.778,22.778,6.111s10.778-14.778,6.111-22.778l-41.667-72.222ZM297.667,183.778c8,4.667,18.111,1.889,22.778-6.111l41.667-72.222c4.667-8,1.889-18.111-6.111-22.889-8-4.667-18.111-1.889-22.778,6.111l-41.667,72.333c-4.556,8-1.889,18.222,6.111,22.778M214.333,328.222c-8-4.667-18.111-1.889-22.778,6.111l-41.667,72.222c-4.667,8-1.889,18.111,6.111,22.778,8,4.667,18.111,1.889,22.778-6.111l41.667-72.222c4.556-8,1.889-18.222-6.111-22.778M423.111,333.111l-72.222-41.667c-8-4.667-18.111-1.889-22.778,6.111s-1.889,18.111,6.111,22.778l72.222,41.667c8,4.667,18.111,1.889,22.778-6.111,4.556-7.889,1.889-18-6.111-22.778M88.889,178.778l72.222,41.667c8,4.667,18.111,1.889,22.778-6.111,4.778-8,1.889-18.111-6.111-22.778l-72.222-41.667c-8-4.667-18.111-1.889-22.778,6.111s-1.889,18.111,6.111,22.778"/>
</svg>