<svg xmlns="http://www.w3.org/2000/svg" width="512" height="512" viewBox="0 0 512 512">
    <path d="M421 185h-75c-8.2 0-15 6.8-15 15s6.8 15 15 15h75c8.2 0 15-6.8 15-15s-6.8-15-15-15zm-240 15c0-8.2-6.8-15-15-15H91c-8.2 0-15 6.8-15 15s6.8 15 15 15h75c8.2 0 15-6.8 15-15zm75 75c-8.2 0-15 6.8-15 15v75c0 8.2 6.8 15 15 15s15-6.8 15-15v-75c0-8.2-6.8-15-15-15zm0-255c-8.2 0-15 6.8-15 15v75c0 8.2 6.8 15 15 15s15-6.8 15-15V35c0-8.2-6.8-15-15-15zm65 142.5c4.2 7.2 13.3 9.7 20.5 5.5l65-37.5c7.2-4.2 9.7-13.3 5.5-20.5-4.2-7.2-13.3-9.7-20.5-5.5L326.6 142c-7.4 4.2-9.7 13.2-5.6 20.5zm-130 75c-4.2-7.2-13.3-9.7-20.5-5.5l-65 37.5c-7.2 4.2-9.7 13.3-5.5 20.5s13.3 9.7 20.5 5.5l65-37.5c7.2-4.2 9.6-13.3 5.5-20.5zm123 32.9c-4.2-7.2-13.3-9.7-20.5-5.5-7.2 4.2-9.7 13.3-5.5 20.5l37.5 65c4.2 7.2 13.3 9.7 20.5 5.5 7.2-4.2 9.7-13.3 5.5-20.5l-37.5-65zM186.5 49.6c-4.2-7.2-13.3-9.7-20.5-5.5s-9.7 13.3-5.5 20.5l37.5 65c4.2 7.2 13.3 9.7 20.5 5.5s9.7-13.3 5.5-20.5l-37.5-65zm107 85.4c7.2 4.2 16.3 1.7 20.5-5.5l37.5-65c4.2-7.2 1.7-16.3-5.5-20.6-7.2-4.2-16.3-1.7-20.5 5.5L288 114.5c-4.1 7.2-1.7 16.4 5.5 20.5zm-75 130c-7.2-4.2-16.3-1.7-20.5 5.5l-37.5 65c-4.2 7.2-1.7 16.3 5.5 20.5s16.3 1.7 20.5-5.5l37.5-65c4.1-7.2 1.7-16.4-5.5-20.5zm187.9 4.4l-65-37.5c-7.2-4.2-16.3-1.7-20.5 5.5-4.2 7.2-1.7 16.3 5.5 20.5l65 37.5c7.2 4.2 16.3 1.7 20.5-5.5 4.1-7.1 1.7-16.2-5.5-20.5zM105.6 130.5l65 37.5c7.2 4.2 16.3 1.7 20.5-5.5 4.3-7.2 1.7-16.3-5.5-20.5l-65-37.5c-7.2-4.2-16.3-1.7-20.5 5.5-4.2 7.2-1.7 16.3 5.5 20.5z"/>
</svg>
