<?xml version="1.0" encoding="UTF-8"?>
<svg id="Layer_1" xmlns="http://www.w3.org/2000/svg" version="1.1" viewBox="0 0 500 500">
  <!-- Generator: Adobe Illustrator 29.1.0, SVG Export Plug-In . SVG Version: 2.1.0 Build 142)  -->
  <path d="M456.2,231.2h-93.8c-10.3,0-18.8,8.5-18.8,18.8s8.5,18.8,18.8,18.8h93.8c10.3,0,18.8-8.5,18.8-18.8s-8.5-18.8-18.8-18.8M156.2,250c0-10.2-8.5-18.8-18.8-18.8H43.8c-10.2,0-18.8,8.5-18.8,18.8s8.5,18.8,18.8,18.8h93.8c10.2,0,18.8-8.5,18.8-18.8M250,343.8c-10.2,0-18.8,8.5-18.8,18.8v93.8c0,10.3,8.5,18.8,18.8,18.8s18.8-8.5,18.8-18.8v-93.8c0-10.3-8.5-18.8-18.8-18.8M250,25c-10.2,0-18.8,8.5-18.8,18.8v93.8c0,10.2,8.5,18.8,18.8,18.8s18.8-8.5,18.8-18.8V43.8c0-10.2-8.5-18.8-18.8-18.8M331.2,203.1c5.3,9,16.6,12.1,25.6,6.9l81.2-46.9c9-5.2,12.1-16.6,6.9-25.6s-16.6-12.1-25.6-6.9l-81.1,46.9c-9.2,5.2-12.1,16.5-7,25.6M168.8,296.9c-5.2-9-16.6-12.1-25.6-6.9l-81.2,46.9c-9,5.3-12.1,16.6-6.9,25.6s16.6,12.1,25.6,6.9l81.2-46.9c9-5.3,12-16.6,6.9-25.6M322.5,338c-5.3-9-16.6-12.1-25.6-6.9s-12.1,16.6-6.9,25.6l46.9,81.2c5.3,9,16.6,12.1,25.6,6.9s12.1-16.6,6.9-25.6l-46.9-81.2ZM163.1,62c-5.2-9-16.6-12.1-25.6-6.9s-12.1,16.6-6.9,25.6l46.9,81.3c5.2,9,16.6,12.1,25.6,6.9s12.1-16.6,6.9-25.6l-46.9-81.3ZM296.9,168.8c9,5.2,20.4,2.1,25.6-6.9l46.9-81.2c5.3-9,2.1-20.4-6.9-25.7-9-5.2-20.4-2.1-25.6,6.9l-46.9,81.4c-5.1,9-2.1,20.5,6.9,25.6M203.1,331.2c-9-5.3-20.4-2.1-25.6,6.9l-46.9,81.2c-5.2,9-2.1,20.4,6.9,25.6s20.4,2.1,25.6-6.9l46.9-81.2c5.1-9,2.1-20.5-6.9-25.6M438,336.7l-81.2-46.9c-9-5.3-20.4-2.1-25.6,6.9s-2.1,20.4,6.9,25.6l81.2,46.9c9,5.3,20.4,2.1,25.6-6.9,5.1-8.9,2.1-20.3-6.9-25.6M62,163.1l81.3,46.9c9,5.2,20.4,2.1,25.6-6.9,5.4-9,2.1-20.4-6.9-25.6l-81.2-46.9c-9-5.2-20.4-2.1-25.6,6.9s-2.1,20.4,6.9,25.6"/>
</svg>