<svg xmlns="http://www.w3.org/2000/svg" width="512" height="512" viewBox="0 0 512 512">
  <path d="M256.004,360.775c-21.146,0-38.097-17.146-38.097-38.097s16.951-38.097,38.097-38.097c10.106,0,19.795,4.018,26.933,11.155s11.155,16.835,11.155,26.942-4.018,19.795-11.155,26.933c-7.143,7.143-16.831,11.156-26.933,11.155v.009h0ZM370.286,417.912v-190.476h-228.564v190.476h228.564ZM370.286,189.348c21.035,0,38.088,17.053,38.088,38.088h0v190.476c0,21.035-17.053,38.088-38.088,38.088h-228.564c-21.146,0-38.097-17.146-38.097-38.097v-190.476c0-21.146,16.951-38.097,38.097-38.097h19.048v-38.097c0-52.596,42.637-95.233,95.233-95.233,12.506,0,24.888,2.462,36.444,7.253,11.555,4.782,22.053,11.804,30.897,20.648s15.857,19.342,20.648,30.897c4.782,11.555,7.244,23.937,7.244,36.444v38.097h19.048v.009h.002ZM256.004,94.115c-15.155,0-29.688,6.018-40.408,16.737-10.718,10.716-16.738,25.252-16.737,40.408v38.097h114.282v-38.097c0-15.155-6.018-29.688-16.737-40.408-10.716-10.718-25.252-16.738-40.408-16.737h.009,0Z"/>
</svg>