<svg xmlns="http://www.w3.org/2000/svg" width="512" height="512" viewBox="0 0 512 512">
  <path d="M370.287,189.333h-19.048v-38.095c0-52.381-42.857-95.238-95.238-95.238s-95.238,42.857-95.238,95.238v38.095h-19.048c-20.954,0-38.095,17.141-38.095,38.095v190.476c0,20.954,17.141,38.095,38.095,38.095h228.571c20.954,0,38.095-17.141,38.095-38.095v-190.476c0-20.954-17.141-38.095-38.095-38.095M256.001,362.667c-20.954,0-38.095-17.141-38.095-38.095s17.141-38.095,38.095-38.095,38.095,17.141,38.095,38.095-17.141,38.095-38.095,38.095M315.051,189.333h-118.099v-38.095c0-32.385,26.67-59.05,59.05-59.05s59.05,26.665,59.05,59.05v38.095h0Z"/>
</svg>