<svg xmlns="http://www.w3.org/2000/svg" width="500" height="500" viewBox="0 0 500 500">
    <path d="M250 367.86c-23.79 0-42.86-19.29-42.86-42.86s19.07-42.86 42.86-42.86c11.37 0 22.27 4.52 30.3 12.55 8.04 8.04 12.55 18.94 12.55 30.31s-4.52 22.27-12.55 30.3a42.85 42.85 0 0 1-30.3 12.55Zm128.57 64.28V217.85H121.43v214.29zm0-257.14a42.85 42.85 0 0 1 42.85 42.85v214.29a42.85 42.85 0 0 1-42.85 42.85H121.43c-23.79 0-42.86-19.29-42.86-42.86V217.84c0-23.79 19.07-42.86 42.86-42.86h21.43v-42.86A107.14 107.14 0 0 1 250 24.98c14.07 0 28 2.77 41 8.16 13 5.38 24.81 13.28 34.76 23.23s17.84 21.76 23.23 34.76c5.38 13 8.15 26.93 8.15 41v42.86h21.43ZM250 67.86c-17.05 0-33.4 6.77-45.46 18.83a64.28 64.28 0 0 0-18.83 45.46v42.86h128.57v-42.86c0-17.05-6.77-33.4-18.83-45.46a64.28 64.28 0 0 0-45.46-18.83Z"/>
</svg>
