<svg xmlns="http://www.w3.org/2000/svg" width="512" height="512" viewBox="0 0 512 512">
    <path d="M134.9 360h242.3c8.7 0 16-7 16-15.8V192.8c0-8.7-7.1-15.7-16-15.7h-15.4V155c0-29.7-11.6-62.6-30.4-82.5C312.5 52.8 285.6 40 256.1 40h-.2c-29.5 0-56.4 12.8-75.3 32.6-18.9 19.9-30.4 52.8-30.4 82.5v22.1h-15.4c-8.8 0-16 7-16 15.7v151.4c0 8.7 7.2 15.7 16.1 15.7zm53.2-205c0-19.5 7-43.6 20.1-57.3v-.3c12.6-13.3 29.9-21.1 47.7-21.1h.2c17.8 0 35.1 7.8 47.7 21.1v.2l-.1.1c13 13.7 20.1 37.9 20.1 57.3v22.1H188.1V155z"/>
</svg>
