<?xml version="1.0" encoding="UTF-8"?>
<svg id="Layer_1" xmlns="http://www.w3.org/2000/svg" version="1.1" viewBox="0 0 500 500">
  <!-- Generator: Adobe Illustrator 29.1.0, SVG Export Plug-In . SVG Version: 2.1.0 Build 142)  -->
  <path d="M79.7,475h340.7c12.2,0,22.5-9.8,22.5-22.2v-212.9c0-12.2-10-22.1-22.5-22.1h-21.7v-31.1c0-41.8-16.3-88-42.7-116-26.6-27.7-64.4-45.7-105.9-45.7h-.3c-41.5,0-79.3,18-105.9,45.8-26.6,28-42.7,74.2-42.7,116v31.1h-21.7c-12.4,0-22.5,9.8-22.5,22.1v212.9c0,12.2,10.1,22.1,22.6,22.1M154.5,186.7c0-27.4,9.8-61.3,28.3-80.6v-.4c17.7-18.7,42-29.7,67.1-29.7h.3c25,0,49.4,11,67.1,29.7v.3h-.1c18.3,19.4,28.3,53.4,28.3,80.7v31.1h-190.8v-31.1Z"/>
</svg>