<svg xmlns="http://www.w3.org/2000/svg" width="512" height="512" viewBox="0 0 512 512">
  <path d="M104.625,456h302.875c10.875,0,20-8.75,20-19.75v-189.25c0-10.875-8.875-19.625-20-19.625h-19.25v-27.625c0-37.125-14.5-78.25-38-103.125-23.625-24.625-57.25-40.625-94.125-40.625h-.25c-36.875,0-70.5,16-94.125,40.75-23.625,24.875-38,66-38,103.125v27.625h-19.25c-11,0-20,8.75-20,19.625v189.25c0,10.875,9,19.625,20.125,19.625M171.125,199.75c0-24.375,8.75-54.5,25.125-71.625v-.375c15.75-16.625,37.375-26.375,59.625-26.375h.25c22.25,0,43.875,9.75,59.625,26.375v.25l-.125.125c16.25,17.125,25.125,47.375,25.125,71.625v27.625h-169.626v-27.625h0Z"/>
</svg>