<?xml version="1.0" encoding="UTF-8"?>
<svg width="512px" height="512px" viewBox="0 0 512 512" version="1.1" xmlns="http://www.w3.org/2000/svg" xmlns:xlink="http://www.w3.org/1999/xlink">
    <!-- Generator: Sketch 62 (91390) - https://sketch.com -->
    <title>locked</title>
    <desc>Created with Sketch.</desc>
    <g id="locked" stroke="none" stroke-width="1" fill="none" fill-rule="evenodd">
        <path d="M134.9,409.5 L377.2,409.5 C385.9,409.5 393.2,402.5 393.2,393.7 L393.2,242.3 C393.2,233.6 386.1,226.6 377.2,226.6 L361.8,226.6 L361.8,204.5 C361.8,174.8 350.2,141.9 331.4,122 C312.5,102.3 285.6,89.5 256.1,89.5 L255.9,89.5 C226.4,89.5 199.5,102.3 180.6,122.1 C161.7,142 150.2,174.9 150.2,204.6 L150.2,226.7 L134.8,226.7 C126,226.7 118.8,233.7 118.8,242.4 L118.8,393.8 C118.8,402.5 126,409.5 134.9,409.5 L134.9,409.5 Z M188.1,204.5 C188.1,185 195.1,160.9 208.2,147.2 L208.2,146.9 C220.8,133.6 238.1,125.8 255.9,125.8 L256.1,125.8 C273.9,125.8 291.2,133.6 303.8,146.9 L303.8,147.1 L303.7,147.2 C316.7,160.9 323.8,185.1 323.8,204.5 L323.8,226.6 L188.1,226.6 L188.1,204.5 Z" id="Shape" fill="#000000" fill-rule="nonzero"></path>
    </g>
</svg>