<?xml version="1.0" encoding="UTF-8"?>
<svg id="Layer_1" xmlns="http://www.w3.org/2000/svg" version="1.1" viewBox="0 0 500 500">
  <!-- Generator: Adobe Illustrator 29.1.0, SVG Export Plug-In . SVG Version: 2.1.0 Build 142)  -->
  <path d="M378.6,175h-21.4v-42.9c0-58.9-48.2-107.1-107.1-107.1s-107.1,48.2-107.1,107.1v42.9h-21.4c-23.6,0-42.9,19.3-42.9,42.9v214.3c0,23.6,19.3,42.9,42.9,42.9h257.1c23.6,0,42.9-19.3,42.9-42.9v-214.3c0-23.6-19.3-42.9-42.9-42.9M250,370c-23.6,0-42.9-19.3-42.9-42.9s19.3-42.9,42.9-42.9,42.9,19.3,42.9,42.9-19.3,42.9-42.9,42.9M316.4,175h-132.9v-42.9c0-36.4,30-66.4,66.4-66.4s66.4,30,66.4,66.4v42.9Z"/>
</svg>