<?xml version="1.0" encoding="UTF-8"?>
<svg id="Layer_1" xmlns="http://www.w3.org/2000/svg" version="1.1" viewBox="0 0 500 500">
  <!-- Generator: Adobe Illustrator 29.1.0, SVG Export Plug-In . SVG Version: 2.1.0 Build 142)  -->
  <path d="M249.7,25c76.5,0,144,38.1,184.6,96.3h-40.9c-2.4-2.7-4.8-5.2-7.3-7.7-36.4-36.4-84.9-56.5-136.4-56.5s-100,20.1-136.4,56.5-56.2,84.9-56.2,136.4,19.8,100,56.2,136.4,84.9,56.5,136.4,56.5,100-20.1,136.4-56.5c2.5-2.5,4.9-5.2,7.3-7.9h40.9c-40.6,58.4-108.1,96.5-184.6,96.5-124.3,0-224.7-100.7-224.7-225S125.4,25,249.7,25M384.2,159l90.8,91-90.8,91-22.8-22.8,52.2-52h-227.8v-32.2h227.8l-52.2-52.2,22.8-22.8Z"/>
</svg>