<?xml version="1.0" encoding="UTF-8"?>
<svg id="Layer_1" xmlns="http://www.w3.org/2000/svg" version="1.1" viewBox="0 0 500 500">
  <!-- Generator: Adobe Illustrator 29.1.0, SVG Export Plug-In . SVG Version: 2.1.0 Build 142)  -->
  <path d="M250,25c124.3,0,225,100.7,225,225s-100.7,225-225,225-177.9-60-210.2-144.4h34.7c9.4,20.5,22.6,39.5,39.1,56,36.4,36.4,84.9,56.5,136.4,56.5s100-20.1,136.4-56.5,56.5-84.9,56.5-136.4-20.1-100-56.5-136.4-84.9-56.5-136.4-56.5-100,20.1-136.4,56.5c-16.6,16.5-29.7,35.4-39.1,56h-34.7C72.1,85,154.1,25,250,25M223.4,159.1l91,91-91,90.8-22.8-22.8,52.2-51.9H25v-32.2h227.8l-52.2-52.2,22.8-22.8Z"/>
</svg>