<svg xmlns="http://www.w3.org/2000/svg" width="512" height="512" viewBox="0 0 512 512">
    <path d="M335.2 248.5l16.2 16.2L416 200l-64.6-64.7-16.2 16.2 37.1 37.1h-162v22.9h162l-37.1 37z"/>
    <path d="M352.8 297c-25.9 25.9-60.3 40.2-97 40.2-36.6 0-71.1-14.3-97-40.2-25.9-25.9-40-60.3-40-97 0-36.6 14.1-71.1 40-97 25.9-25.9 60.3-40.2 97-40.2 36.6 0 71.1 14.3 97 40.2 1.8 1.8 3.5 3.6 5.2 5.5h29.1C358.2 67.1 310.2 40 255.8 40 167.4 40 96 111.6 96 200s71.4 160 159.8 160c54.4 0 102.4-27.1 131.3-68.6H358c-1.7 1.9-3.4 3.8-5.2 5.6z"/>
</svg>
