<svg xmlns="http://www.w3.org/2000/svg" width="512" height="512" viewBox="0 0 512 512">
  <path d="M255.75,56c68,0,128,33.875,164.125,85.625h-36.375c-2.125-2.375-4.25-4.625-6.5-6.875-32.375-32.375-75.5-50.25-121.25-50.25s-88.875,17.875-121.25,50.25-50,75.5-50,121.25,17.625,88.875,50,121.25,75.5,50.25,121.25,50.25,88.875-17.875,121.25-50.25c2.25-2.25,4.375-4.625,6.5-7h36.375c-36.125,51.875-96.125,85.75-164.125,85.75-110.5,0-199.75-89.5-199.75-200S145.25,56,255.75,56M375.25,175.125l80.75,80.875-80.75,80.875-20.25-20.25,46.375-46.25h-202.5v-28.625h202.5l-46.375-46.375,20.25-20.25Z"/>
</svg>