<?xml version="1.0" encoding="UTF-8"?>
<svg width="512px" height="512px" viewBox="0 0 512 512" version="1.1" xmlns="http://www.w3.org/2000/svg" xmlns:xlink="http://www.w3.org/1999/xlink">
    <!-- Generator: Sketch 62 (91390) - https://sketch.com -->
    <title>log-in</title>
    <desc>Created with Sketch.</desc>
    <g id="log-in" stroke="none" stroke-width="1" fill="none" fill-rule="evenodd">
        <path d="M256,89.5 C344.4,89.5 416,161.1 416,249.5 C416,337.9 344.4,409.5 256,409.5 C187.8,409.5 129.5,366.8 106.5,306.8 L106.5,306.8 L131.2,306.8 C137.9,321.4 147.3,334.9 159,346.6 C184.9,372.5 219.4,386.8 256,386.8 C292.7,386.8 327.1,372.5 353,346.6 C378.9,320.7 393.2,286.2 393.2,249.6 C393.2,212.9 378.9,178.5 353,152.6 C327.1,126.7 292.6,112.4 256,112.4 C219.3,112.4 184.9,126.7 159,152.6 C147.2,164.3 137.9,177.8 131.2,192.4 L131.2,192.4 L106.5,192.4 C129.5,132.2 187.8,89.5 256,89.5 Z M237.1,184.85 L301.8,249.55 L237.1,314.15 L220.9,297.95 L258,261.05 L96,261.05 L96,238.15 L258,238.15 L220.9,201.05 L237.1,184.85 Z" id="Combined-Shape" fill="#000000" fill-rule="nonzero"></path>
    </g>
</svg>