<svg xmlns="http://www.w3.org/2000/svg" width="512" height="512" viewBox="0 0 512 512">
    <path d="M256 89.5c88.4 0 160 71.6 160 160s-71.6 160-160 160c-68.2 0-126.5-42.7-149.5-102.7h24.7c6.7 14.6 16.1 28.1 27.8 39.8 25.9 25.9 60.4 40.2 97 40.2 36.7 0 71.1-14.3 97-40.2s40.2-60.4 40.2-97c0-36.7-14.3-71.1-40.2-97s-60.4-40.2-97-40.2c-36.7 0-71.1 14.3-97 40.2-11.8 11.7-21.1 25.2-27.8 39.8h-24.7c23-60.2 81.3-102.9 149.5-102.9m-18.9 95.35 64.7 64.7-64.7 64.6-16.2-16.2 37.1-36.9H96v-22.9h162l-37.1-37.1z"/>
</svg>
