<svg xmlns="http://www.w3.org/2000/svg" width="512" height="512" viewBox="0 0 512 512">
    <path fill-rule="nonzero" d="M255.8 89.5c54.4 0 102.4 27.1 131.3 68.5H358c-1.7-1.9-3.4-3.7-5.2-5.5-25.9-25.9-60.4-40.2-97-40.2-36.7 0-71.1 14.3-97 40.2-25.9 25.9-40 60.4-40 97 0 36.7 14.1 71.1 40 97 25.9 25.9 60.4 40.2 97 40.2 36.7 0 71.1-14.3 97-40.2 1.8-1.8 3.5-3.7 5.2-5.6h29.1c-28.9 41.5-76.9 68.6-131.3 68.6-88.4 0-159.8-71.6-159.8-160s71.4-160 159.8-160zm95.6 95.3l64.6 64.7-64.6 64.7-16.2-16.2 37.1-37h-162v-22.9h162L335.2 201l16.2-16.2z"/>
</svg>
