<svg xmlns="http://www.w3.org/2000/svg" width="512" height="512" viewBox="0 0 512 512">
  <path d="M256,56c110.5,0,200,89.5,200,200s-89.5,200-200,200c-85.25,0-158.125-53.375-186.875-128.375h30.875c8.375,18.25,20.125,35.125,34.75,49.75,32.375,32.375,75.5,50.25,121.25,50.25s88.875-17.875,121.25-50.25,50.25-75.5,50.25-121.25-17.875-88.875-50.25-121.25-75.5-50.25-121.25-50.25-88.875,17.875-121.25,50.25c-14.75,14.625-26.375,31.5-34.75,49.75h-30.875c28.75-75.25,101.625-128.625,186.875-128.625M232.375,175.187l80.875,80.875-80.875,80.75-20.25-20.25,46.375-46.125H56v-28.625h202.5l-46.375-46.375,20.25-20.25Z"/>
</svg>