<svg xmlns="http://www.w3.org/2000/svg" width="512" height="512" viewBox="0 0 512 512">
    <path d="M256 40c-68.2 0-126.5 42.7-149.5 102.9h24.7c6.7-14.6 16-28.1 27.8-39.8 25.9-25.9 60.3-40.2 97-40.2 36.6 0 71.1 14.3 97 40.2 25.9 25.9 40.2 60.3 40.2 97 0 36.6-14.3 71.1-40.2 97-25.9 25.9-60.3 40.2-97 40.2-36.6 0-71.1-14.3-97-40.2-11.7-11.7-21.1-25.2-27.8-39.8h-24.7c23 60 81.3 102.7 149.5 102.7 88.4 0 160-71.6 160-160S344.4 40 256 40z"/>
    <path d="M220.9 248.5l16.2 16.2 64.7-64.6-64.7-64.7-16.2 16.2 37.1 37.1H96v22.9h162l-37.1 36.9z"/>
</svg>
