<svg xmlns="http://www.w3.org/2000/svg" width="512" height="512" viewBox="0 0 512 512">
  <path d="M181.002,130.999h25.004v37.501h-25.004c-48.328,0-87.5,39.172-87.5,87.5s39.172,87.5,87.5,87.5v-62.496l99.998,99.998h-99.998c-69.038,0-125.002-55.963-125.002-125.002s55.963-125.002,125.002-125.002M305.994,130.999h25.004c69.03,0,125.002,55.963,125.002,125.002s-55.963,125.002-125.002,125.002h-25.004v-37.501h25.004c48.328,0,87.5-39.172,87.5-87.5s-39.172-87.5-87.5-87.5v62.496l-99.998-99.998h74.994Z"/>
</svg>