<svg id="Layer_1" data-name="Layer 1" xmlns="http://www.w3.org/2000/svg" version="1.1" viewBox="0 0 512 512">
  <path class="cls-1" d="M444,112.1h-188l-47-47.9H68c-26.1,0-47,21.3-47,47.9v287.2c0,12.7,5,24.9,13.8,33.8,8.8,9,20.8,14,33.2,14h376c12.5,0,24.4-5,33.2-14,8.8-9,13.8-21.2,13.8-33.8v-239.4c0-26.6-21.1-47.9-47-47.9ZM166.6,377.5l-76-102.5,27.7-19.4,76.8,101.7-28.5,20.2ZM421.9,250.2l-100.6,75.1h-112.7l-65.8-81.2,68.2-40.6h102.2l13.5,16.2-66.4,44.7h69.1l64.5-46.2c9.7-7,23.1-5.4,31,3.6,7.5,8.5,6.1,21.7-3,28.5Z"/>
</svg>