<?xml version="1.0" encoding="UTF-8"?>
<svg id="Layer_1" xmlns="http://www.w3.org/2000/svg" version="1.1" viewBox="0 0 500 500">
  <!-- Generator: Adobe Illustrator 29.1.0, SVG Export Plug-In . SVG Version: 2.1.0 Build 142)  -->
  <path d="M430,112.6h-180l-45-45.9H70c-25,0-45,20.4-45,45.9v275c0,12.2,4.8,23.8,13.2,32.4,8.4,8.6,19.9,13.4,31.8,13.4h360c12,0,23.4-4.8,31.8-13.4,8.4-8.6,13.2-20.3,13.2-32.4v-229.2c0-25.5-20.2-45.9-45-45.9h0ZM164.4,366.7l-72.8-98.1,26.5-18.6,73.5,97.4-27.3,19.3ZM408.8,244.8l-96.3,71.9h-107.9l-63-77.7,65.3-38.9h97.9l12.9,15.5-63.6,42.8h66.2l61.8-44.2c9.3-6.7,22.1-5.2,29.7,3.4,7.2,8.1,5.8,20.8-2.9,27.3h0Z"/>
</svg>