<?xml version="1.0" encoding="UTF-8"?>
<svg id="Layer_1" data-name="Layer 1" xmlns="http://www.w3.org/2000/svg" version="1.1" viewBox="0 0 512 512">
  <path class="cls-1" d="M308,272h32l-8,32h-32l8-32ZM416,192v160c0,8.5-3.4,16.6-9.4,22.6-6,6-14.2,9.4-22.6,9.4H128c-8.5,0-16.6-3.4-22.6-9.4-6-6-9.4-14.2-9.4-22.6v-192c0-17.8,14.2-32,32-32h96l32,32h128c8.5,0,16.6,3.4,22.6,9.4,6,6,9.4,14.2,9.4,22.6ZM384,256h-24l8-32h-16l-8,32h-32l8-32h-16l-8,32h-24v16h20l-8,32h-28v16h24l-8,32h16l8-32h32l-8,32h16l8-32h24v-16h-20l8-32h28v-16Z"/>
</svg>