<svg xmlns="http://www.w3.org/2000/svg" width="512" height="512" data-name="Layer 1" viewBox="0 0 512 512">
    <path d="M332.4 279.5h47l-11.8 47h-47zM491 162v235c0 12.5-5 24.4-13.8 33.2S456.4 444 444 444H68c-12.5 0-24.4-5-33.2-13.8S21 409.4 21 397V115c0-26.1 20.9-47 47-47h141l47 47h188c12.5 0 24.4 5 33.2 13.8S491 149.6 491 162m-47 94h-35.2l11.8-47h-23.5l-11.8 47h-47l11.8-47h-23.5l-11.8 47h-35.2v23.5H309l-11.8 47h-41.1V350h35.2l-11.8 47H303l11.8-47h47L350 397h23.5l11.8-47h35.2v-23.5h-29.4l11.8-47H444z"/>
</svg>
