<?xml version="1.0" encoding="UTF-8"?>
<svg id="Layer_1" xmlns="http://www.w3.org/2000/svg" version="1.1" viewBox="0 0 500 500">
  <!-- Generator: Adobe Illustrator 29.1.0, SVG Export Plug-In . SVG Version: 2.1.0 Build 142)  -->
  <path d="M250,116.9c43.4,0,84.4,14.9,118.6,43.1,26.5,21.9,48.2,51.3,59.4,80.7,14.4,37.5,10.5,79.7-9.8,107.2-13.6,18.4-32.9,27.9-54.2,26.9-55.7-2.8-65.7-42.1-73-70.8-7.5-29.4-12.3-43.6-41-43.6s-26.8,4.4-33.7,13.5c-9.4,12.4-10.1,31.8-9.1,45.9,1,14.7,4.2,26.6,4.9,29,2.3,5.8,32.1,79.8,103.6,97.7,7.9,2,12.6,9.9,10.6,17.6-1.8,6.6-7.7,11-14.3,11s-2.4-.1-3.7-.4c-89.4-22.4-122.7-112.7-124.1-116.5l-.2-.8c-.7-2.6-18.7-64.6,8.9-100.8,12.6-16.6,31.8-25,57.1-25s40.6,7.4,52.2,22.7c9.6,12.5,13.5,27.9,17.2,42.9,7.8,31,13.5,47.2,46,48.9,14.3.7,23.7-7.7,29-14.9,14.4-19.6,16.9-51.6,6-79.8-14-36.5-63.4-105.2-150.6-105.2s-71.4,12.1-98.9,34.8c-22.7,18.9-40.8,45.5-49.4,72.8-16.1,50.9,5,130.9,5.2,131.6,2.1,7.7-2.6,15.7-10.4,17.7-7.8,2.1-16-2.6-18-10.3-.9-3.7-23.5-89-4.9-147.8,20.2-63.7,82.6-128,176.5-128M250,169.2c47.2,0,84.4,22.2,107.5,64.1,16.8,30.5,20.1,60.8,20.2,62.1.8,8-5.1,15.1-13.1,16s-15.3-5-16.2-12.9c0-.3-2.9-26.4-17.2-51.8-17.9-32-45.3-48.3-81.3-48.3s-55.6,9.5-72.4,28.3c-24.2,27-28.9,68.6-25.6,96.2,6.7,46.9,24.5,84.3,56,117.6,5.5,5.8,5.2,15.1-.7,20.5-2.7,2.5-6.4,3.9-9.9,3.9s-7.8-1.6-10.7-4.6c-35.8-38-56-80.4-63.6-133.5v-.3c-4.3-35.1,2-84.9,32.6-119.1,22.6-25.2,54.4-38.1,94.4-38.1M264.5,321.3c.1.8,4.4,47.2,37.3,73.9,19.5,15.7,45.6,22,77.7,18.4,8-.9,15.3,4.8,16.3,12.8s-4.9,15.2-12.9,16.1c-7.1.8-14.1,1.3-20.8,1.3-31.3,0-57.9-8.8-79.2-26.2-42.8-34.8-47.6-91.6-47.8-94-.6-8,5.4-15,13.6-15.6,8.1-.6,15.1,5.3,15.7,13.3M250,73.3c53.4,0,100.2,14.2,139.1,42.1,32,22.9,50,48.9,58.5,61.4,4.6,6.7,2.8,15.6-3.9,20.2-6.7,4.5-15.9,2.8-20.4-3.9-15.5-22.5-62.7-90.9-173.3-90.9s-156.8,63-172.8,90c-2.7,4.8-7.6,7.3-12.7,7.3s-5.1-.6-7.4-2c-7-4.1-9.4-12.9-5.3-19.9,18.6-31.3,75-104.4,198.3-104.4M250,25c81.3,0,124.6,23.9,136.8,31.9,5.3,2.2,9,7.4,9,13.5s-6.6,14.5-14.7,14.5-6.4-1-8.9-2.9l-.2.2h.1c-.4-.1-37.9-28.1-122.1-28.1s-121.7,27.8-122.1,28.2h.1c-2.4,1.6-5.3,2.6-8.6,2.6-8.1,0-14.7-6.5-14.7-14.5s1.9-8.1,4.9-10.8c0,0,.1,0,.2-.1.5-.5,1.1-.9,1.8-1.4,9.6-6.7,53-33.1,138.4-33.1"/>
</svg>