<svg xmlns="http://www.w3.org/2000/svg" width="512" height="512" viewBox="0 0 512 512">
  <path d="M256.023,137.669c38.563,0,74.994,13.256,105.4,38.285,23.546,19.467,42.827,45.608,52.839,71.75,12.793,33.372,9.363,70.823-8.714,95.296-12.051,16.315-29.2,24.844-48.204,23.917-49.502-2.503-58.401-37.451-64.89-62.943-6.674-26.141-10.939-38.749-36.431-38.749-13.998,0-23.824,3.893-29.942,11.958-8.343,11.031-8.992,28.273-8.065,40.788.927,13.071,3.708,23.638,4.357,25.771,2.039,5.191,28.552,70.915,92.051,86.86,7.045,1.761,11.217,8.806,9.455,15.666-1.576,5.84-6.86,9.733-12.7,9.733-1.112,0-2.132-.093-3.244-.371-79.444-19.93-109.108-100.209-110.313-103.546l-.185-.742c-.649-2.317-16.593-57.381,7.879-89.641,11.217-14.739,28.273-22.248,50.8-22.248,20.95,0,36.06,6.582,46.443,20.209,8.528,11.124,11.958,24.844,15.295,38.1,6.952,27.532,11.958,41.993,40.881,43.476,12.7.649,21.043-6.86,25.771-13.256,12.793-17.428,15.017-45.886,5.377-70.915-12.422-32.445-56.362-93.534-133.859-93.534-33.094,0-63.499,10.753-87.879,30.962-20.209,16.779-36.246,40.417-43.94,64.705-14.276,45.238,4.45,116.338,4.635,116.987,1.854,6.86-2.317,13.998-9.27,15.759-6.952,1.854-14.183-2.317-16.037-9.177-.834-3.244-20.857-79.073-4.357-131.356,17.984-56.64,73.418-113.743,156.848-113.743M256.023,184.204c41.993,0,74.994,19.745,95.574,57.01,14.925,27.068,17.891,54.044,17.984,55.156.742,7.138-4.542,13.441-11.68,14.183-7.138.742-13.627-4.45-14.368-11.495,0-.278-2.596-23.453-15.295-46.072-15.944-28.459-40.232-42.92-72.306-42.92-27.717,0-49.409,8.436-64.334,25.122-21.506,24.009-25.678,60.997-22.711,85.469,5.933,41.715,21.784,74.902,49.78,104.565,4.913,5.191,4.635,13.441-.649,18.262-2.41,2.225-5.655,3.43-8.806,3.43-3.523,0-6.952-1.39-9.548-4.079-31.796-33.743-49.78-71.472-56.547-118.656v-.278c-3.801-31.24,1.761-75.458,29.015-105.863,20.116-22.433,48.389-33.835,83.893-33.835M268.908,319.36c.093.742,3.893,41.993,33.187,65.724,17.335,13.998,40.51,19.56,69.061,16.315,7.138-.834,13.627,4.264,14.461,11.402s-4.357,13.534-11.495,14.276c-6.304.742-12.514,1.112-18.447,1.112-27.81,0-51.448-7.787-70.359-23.268-38.007-30.962-42.271-81.39-42.457-83.523-.556-7.138,4.82-13.349,12.051-13.905,7.231-.556,13.441,4.728,13.998,11.866M256.023,98.92c47.462,0,89.085,12.607,123.662,37.451,28.459,20.394,44.403,43.476,52.005,54.6,4.079,5.933,2.503,13.905-3.43,17.984-5.933,3.986-14.09,2.503-18.169-3.43-13.812-20.023-55.713-80.834-154.067-80.834-96.037,0-139.421,55.991-153.604,80-2.41,4.264-6.767,6.489-11.309,6.489-2.225,0-4.542-.556-6.582-1.761-6.211-3.615-8.343-11.495-4.728-17.706,16.501-27.81,66.651-92.793,176.222-92.793M256.023,56c72.306,0,110.776,21.228,121.622,28.366,4.728,1.947,7.972,6.582,7.972,11.958,0,7.138-5.84,12.885-13.071,12.885-2.966,0-5.655-.927-7.879-2.596l-.185.185.093.093c-.371-.185-33.65-25.029-108.552-25.029s-108.181,24.751-108.552,25.029l.093-.093c-2.132,1.483-4.728,2.41-7.601,2.41-7.231,0-13.071-5.747-13.071-12.885,0-3.801,1.669-7.231,4.357-9.641,0,0,.093,0,.185-.093.463-.463,1.02-.834,1.576-1.205,8.528-5.933,47.092-29.386,123.013-29.386"/>
</svg>