<?xml version="1.0" encoding="UTF-8"?>
<svg width="512px" height="512px" viewBox="0 0 512 512" version="1.1" xmlns="http://www.w3.org/2000/svg" xmlns:xlink="http://www.w3.org/1999/xlink">
    <!-- Generator: Sketch 62 (91390) - https://sketch.com -->
    <title>md-finger-print</title>
    <desc>Created with Sketch.</desc>
    <g id="md-finger-print" stroke="none" stroke-width="1" fill="none" fill-rule="evenodd">
        <path d="M256.024847,128.35 C297.624847,128.35 336.924847,142.65 369.724847,169.65 C395.124847,190.65 415.924847,218.85 426.724847,247.05 C440.524847,283.05 436.824847,323.45 417.324847,349.85 C404.324847,367.45 385.824847,376.65 365.324847,375.65 C311.924847,372.95 302.324847,335.25 295.324847,307.75 C288.124847,279.55 283.524847,265.95 256.024847,265.95 C240.924847,265.95 230.324847,270.15 223.724847,278.85 C214.724847,290.75 214.024847,309.35 215.024847,322.85 C216.024847,336.95 219.024847,348.35 219.724847,350.65 C221.924847,356.25 250.524847,427.15 319.024847,444.35 C326.624847,446.25 331.124847,453.85 329.224847,461.25 C327.524847,467.55 321.824847,471.75 315.524847,471.75 C314.324847,471.75 313.224847,471.65 312.024847,471.35 C226.324847,449.85 194.324847,363.25 193.024847,359.65 L192.824847,358.85 C192.124847,356.35 174.924847,296.95 201.324847,262.15 C213.424847,246.25 231.824847,238.15 256.124847,238.15 C278.724847,238.15 295.024847,245.25 306.224847,259.95 C315.424847,271.95 319.124847,286.75 322.724847,301.05 C330.224847,330.75 335.624847,346.35 366.824847,347.95 C380.524847,348.65 389.524847,340.55 394.624847,333.65 C408.424847,314.85 410.824847,284.15 400.424847,257.15 C387.024847,222.15 339.624847,156.25 256.024847,156.25 C220.324847,156.25 187.524847,167.85 161.224847,189.65 C139.424847,207.75 122.124847,233.25 113.824847,259.45 C98.4248469,308.25 118.624847,384.95 118.824847,385.65 C120.824847,393.05 116.324847,400.75 108.824847,402.65 C101.324847,404.65 93.5248469,400.15 91.5248469,392.75 C90.6248469,389.25 69.0248469,307.45 86.8248469,251.05 C106.224847,189.95 166.024847,128.35 256.024847,128.35 Z M256.024847,178.55 C301.324847,178.55 336.924847,199.85 359.124847,240.05 C375.224847,269.25 378.424847,298.35 378.524847,299.55 C379.324847,307.25 373.624847,314.05 365.924847,314.85 C358.224847,315.65 351.224847,310.05 350.424847,302.45 C350.424847,302.15 347.624847,277.15 333.924847,252.75 C316.724847,222.05 290.524847,206.45 255.924847,206.45 C226.024847,206.45 202.624847,215.55 186.524847,233.55 C163.324847,259.45 158.824847,299.35 162.024847,325.75 C168.424847,370.75 185.524847,406.55 215.724847,438.55 C221.024847,444.15 220.724847,453.05 215.024847,458.25 C212.424847,460.65 208.924847,461.95 205.524847,461.95 C201.724847,461.95 198.024847,460.45 195.224847,457.55 C160.924847,421.15 141.524847,380.45 134.224847,329.55 L134.224847,329.25 C130.124847,295.55 136.124847,247.85 165.524847,215.05 C187.224847,190.85 217.724847,178.55 256.024847,178.55 Z M269.924847,324.35 C270.024847,325.15 274.124847,369.65 305.724847,395.25 C324.424847,410.35 349.424847,416.35 380.224847,412.85 C387.924847,411.95 394.924847,417.45 395.824847,425.15 C396.724847,432.85 391.124847,439.75 383.424847,440.55 C376.624847,441.35 369.924847,441.75 363.524847,441.75 C333.524847,441.75 308.024847,433.35 287.624847,416.65 C246.624847,383.25 242.024847,328.85 241.824847,326.55 C241.224847,318.85 247.024847,312.15 254.824847,311.55 C262.624847,310.95 269.324847,316.65 269.924847,324.35 Z M256.024847,86.55 C307.224847,86.55 352.124847,100.15 389.424847,126.95 C420.124847,148.95 437.324847,173.85 445.524847,185.85 C449.924847,192.25 448.224847,200.85 441.824847,205.25 C435.424847,209.55 426.624847,207.95 422.224847,201.55 C407.324847,179.95 362.124847,114.35 256.024847,114.35 C152.424847,114.35 105.624847,174.75 90.3248469,200.65 C87.7248469,205.25 83.0248469,207.65 78.1248469,207.65 C75.7248469,207.65 73.2248469,207.05 71.0248469,205.75 C64.3248469,201.85 62.0248469,193.35 65.9248469,186.65 C83.7248469,156.65 137.824847,86.55 256.024847,86.55 Z M256.024847,40.25 C334.024847,40.25 375.524847,63.15 387.224847,70.85 C392.324847,72.95 395.824847,77.95 395.824847,83.75 C395.824847,91.45 389.524847,97.65 381.724847,97.65 C378.524847,97.65 375.624847,96.65 373.224847,94.85 L373.224847,94.85 L373.024847,95.05 L373.124847,95.15 C372.724847,94.95 336.824847,68.15 256.024847,68.15 C175.224847,68.15 139.324847,94.85 138.924847,95.15 L138.924847,95.15 L139.024847,95.05 C136.724847,96.65 133.924847,97.65 130.824847,97.65 C123.024847,97.65 116.724847,91.45 116.724847,83.75 C116.724847,79.65 118.524847,75.95 121.424847,73.35 C121.424847,73.35 121.524847,73.35 121.624847,73.25 C122.124847,72.75 122.724847,72.35 123.324847,71.95 C132.524847,65.55 174.124847,40.25 256.024847,40.25 Z" id="Combined-Shape" fill="#000000" fill-rule="nonzero"></path>
    </g>
</svg>