<svg xmlns="http://www.w3.org/2000/svg" width="512" height="512" viewBox="0 0 512 512"><path d="M100 391.667v1.667c5-1.667 13.333-5 20-11.667 6.667-5 16.667-15 30-31.667-21.666 10-33.333 21.666-38.333 26.667-10 6.666-11.667 11.666-11.667 15zm143.333-158.334c-10 25-23.333 50-33.333 68.333h3.334c23.333-6.667 40-10 55-13.333 5-1.667 10-1.667 15-3.334-3.334-5-8.333-10-11.667-13.333C260 260 250 246.666 243.333 233.333zM240 166.667c5-20 8.333-36.667 8.333-48.333v-6.667c0-5 1.667-8.333 1.667-11.667-1.667-1.667-3.334-1.667-5-3.334h-3.334s-1.667 1.667-3.334 1.667c0 1.667-1.667 5-3.334 13.333s-1.667 16.667 0 26.667c.002 8.333 1.669 18.334 5.002 28.334z"/><path d="M0 0v500h500V0H0zm431.667 353.334c-3.334 5-8.333 13.333-21.666 16.667-10 3.334-18.333 3.334-28.334 0-8.333-3.334-20-8.333-31.667-16.667-11.667-8.333-23.333-18.333-35-30-5-5-10-10-15-16.667-8.333 1.667-18.333 1.667-30 5-13.333 1.667-30 6.667-51.667 11.667-10 3.334-20 6.667-28.334 10-1.667 1.667-1.667 3.334-3.334 5C168.333 365 149.999 386.667 135 400c-11.667 10-23.333 15-33.333 16.667h-5c-8.333 0-13.333-3.334-16.667-10-3.334-5-3.334-13.333-1.667-21.666C80 375 85 366.667 95 358.334c11.667-11.667 28.334-21.666 46.666-31.667 10-5 21.666-10 33.333-13.333 15-21.666 35-56.667 48.333-95 1.667-5 3.334-8.333 5-13.333-5-10-6.667-20-10-26.667-3.334-13.333-6.667-26.667-8.333-36.667-1.667-10 0-21.666 0-31.667 1.667-10 3.334-16.667 6.667-21.666 5-6.667 10-10 15-11.667C235 75 236.666 75 238.333 75c3.334 0 6.667-1.667 11.667 0 3.334 1.667 5 1.667 8.333 5 15 6.667 13.333 18.333 11.667 35v6.667c-1.667 20-8.333 50-18.333 83.333 0 1.667 1.667 3.334 3.334 5 8.333 15 18.333 31.667 33.333 48.333 6.667 8.333 13.333 16.667 21.666 25h35c11.667 1.667 25 3.334 35 5 13.333 3.334 21.666 6.667 30 11.667 10 6.667 16.667 15 21.666 23.333 3.334 10 5.001 21.667.001 30.001z"/><path d="M396.666 320c-5-3.334-11.667-6.667-21.666-8.333-10-1.667-20-5-31.667-5h-11.667l1.667 1.667c11.667 11.667 21.666 20 33.333 28.334 10 6.667 18.333 11.667 25 13.333 5 1.667 10 1.667 15 0 1.667 0 5-1.667 6.667-5 1.667-1.667 1.667-6.667 0-10-5-6.667-9.999-11.668-16.667-15.001z"/></svg>