<svg xmlns="http://www.w3.org/2000/svg" width="512" height="512" viewBox="0 0 512 512">
  <path d="M456,56v400H56V56h400ZM256.125,115.75c-4-1.375-6.75,0-9.375,0-1.375,0-2.75,0-5.375,1.375-4,1.375-8,4-12,9.375-2.75,4-4,9.375-5.375,17.375,0,8-1.375,17.375,0,25.375,1.25,8,4,18.75,6.625,29.375,2.625,5.375,4,13.375,8,21.375-1.375,4-2.625,6.625-4,10.625-10.625,30.625-26.625,58.625-38.625,76-9.25,2.625-18.625,6.625-26.625,10.625-14.75,8-28,16-37.375,25.375-8,6.75-12,13.375-13.375,21.375-1.25,6.75-1.25,13.375,1.375,17.375,2.75,5.375,6.75,8,13.375,8h4c8-1.375,17.25-5.375,26.625-13.375,12-10.75,26.75-28,41.375-49.375,1.25-1.375,1.25-2.625,2.625-4,6.625-2.625,14.625-5.375,22.625-8,17.375-4,30.75-8,41.375-9.375,9.375-2.625,17.375-2.625,24-4,4,5.375,8,9.375,12,13.375,9.375,9.375,18.625,17.375,28,24,9.375,6.75,18.75,10.75,25.375,13.375,8,2.625,14.625,2.625,22.625,0,10.75-2.75,14.75-9.375,17.375-13.375,4-6.625,2.625-16,.125-24.25-4-6.625-9.375-13.25-17.375-18.625-6.625-4-13.375-6.75-24-9.375-8-1.375-18.625-2.625-28-4h-28c-6.75-6.625-12-13.375-17.375-20-12-13.25-20-26.625-26.625-38.625-1.25-1.375-2.625-2.625-2.625-4,8-26.625,13.25-50.625,14.625-66.625v-5.375c1.25-13.375,2.625-22.625-9.375-28-2.625-2.625-4-2.625-6.625-4M176,339.937c-10.625,13.375-18.625,21.375-24,25.375-5.375,5.375-12,8-16,9.375v-1.375c0-2.75,1.375-6.75,9.375-12,4-4,13.25-13.375,30.625-21.375M250.625,246.562c5.375,10.75,13.375,21.375,22.625,30.75,2.75,2.625,6.75,6.625,9.375,10.625-4,1.25-8,1.25-12,2.625-12,2.625-25.375,5.25-44,10.625h-2.625c8-14.625,18.625-34.625,26.625-54.625M252,137.312c1.375,1.25,2.625,1.25,4,2.625,0,2.75-1.375,5.375-1.375,9.375v5.375c0,9.25-2.625,22.625-6.625,38.625-2.625-8-4-16-3.875-22.625-1.375-8-1.375-14.75,0-21.375,1.25-6.625,2.625-9.25,2.625-10.625,1.25,0,2.625-1.375,2.625-1.375h2.625Z"/>
</svg>