<svg xmlns="http://www.w3.org/2000/svg" width="512" height="512" viewBox="0 0 512 512">
    <path d="M416 89.5v320H96v-320h320zm-159.9 47.8c-3.2-1.1-5.4 0-7.5 0-1.1 0-2.2 0-4.3 1.1-3.2 1.1-6.4 3.2-9.6 7.5-2.2 3.2-3.2 7.5-4.3 13.9 0 6.4-1.1 13.9 0 20.3 1 6.4 3.2 15 5.3 23.5 2.1 4.3 3.2 10.7 6.4 17.1-1.1 3.2-2.1 5.3-3.2 8.5-8.5 24.5-21.3 46.9-30.9 60.8-7.4 2.1-14.9 5.3-21.3 8.5-11.8 6.4-22.4 12.8-29.9 20.3-6.4 5.4-9.6 10.7-10.7 17.1-1 5.4-1 10.7 1.1 13.9 2.2 4.3 5.4 6.4 10.7 6.4h3.2c6.4-1.1 13.8-4.3 21.3-10.7 9.6-8.6 21.4-22.4 33.1-39.5 1-1.1 1-2.1 2.1-3.2 5.3-2.1 11.7-4.3 18.1-6.4 13.9-3.2 24.6-6.4 33.1-7.5 7.5-2.1 13.9-2.1 19.2-3.2 3.2 4.3 6.4 7.5 9.6 10.7 7.5 7.5 14.9 13.9 22.4 19.2 7.5 5.4 15 8.6 20.3 10.7 6.4 2.1 11.7 2.1 18.1 0 8.6-2.2 11.8-7.5 13.9-10.7 3.2-5.3 2.1-12.8.1-19.4-3.2-5.3-7.5-10.6-13.9-14.9-5.3-3.2-10.7-5.4-19.2-7.5-6.4-1.1-14.9-2.1-22.4-3.2h-22.4c-5.4-5.3-9.6-10.7-13.9-16-9.6-10.6-16-21.3-21.3-30.9-1-1.1-2.1-2.1-2.1-3.2 6.4-21.3 10.6-40.5 11.7-53.3v-4.3c1-10.7 2.1-18.1-7.5-22.4-2.1-2.1-3.2-2.1-5.3-3.2zM192 316.65c-8.5 10.7-14.9 17.1-19.2 20.3-4.3 4.3-9.6 6.4-12.8 7.5v-1.1c0-2.2 1.1-5.4 7.5-9.6 3.2-3.2 10.6-10.7 24.5-17.1zm59.7-74.7c4.3 8.6 10.7 17.1 18.1 24.6 2.2 2.1 5.4 5.3 7.5 8.5-3.2 1-6.4 1-9.6 2.1-9.6 2.1-20.3 4.2-35.2 8.5h-2.1c6.4-11.7 14.9-27.7 21.3-43.7zm1.1-87.4c1.1 1 2.1 1 3.2 2.1 0 2.2-1.1 4.3-1.1 7.5v4.3c0 7.4-2.1 18.1-5.3 30.9-2.1-6.4-3.2-12.8-3.1-18.1-1.1-6.4-1.1-11.8 0-17.1 1-5.3 2.1-7.4 2.1-8.5 1 0 2.1-1.1 2.1-1.1z"/>
</svg>
