<?xml version="1.0" encoding="UTF-8"?>
<svg id="Layer_1" xmlns="http://www.w3.org/2000/svg" version="1.1" viewBox="0 0 500 500">
  <!-- Generator: Adobe Illustrator 29.1.0, SVG Export Plug-In . SVG Version: 2.1.0 Build 142)  -->
  <path d="M475,25v450H25V25h450ZM265.2,160h-85.5v210.1h52.5v-72h34.5c27,0,45-9,57-24,9-13.5,13.5-28.5,13.6-46.5,0-19.5-5.9-34.6-16.5-46.5-12.1-13.5-31.5-21-55.5-21M243.2,200.1c12,0,21,1.5,25.6,7.5,4.5,4.5,7.5,10.5,7.5,19.5s-1.5,15-6,19.5c-6,6-13.5,9-27,9h-19.5v-55.5h19.5Z"/>
</svg>