<svg xmlns="http://www.w3.org/2000/svg" width="512" height="512" viewBox="0 0 512 512">
    <path d="M160 290.7v1.1c3.2-1.1 8.5-3.2 12.8-7.5 4.3-3.2 10.7-9.6 19.2-20.3-13.9 6.4-21.3 13.9-24.5 17.1-6.4 4.2-7.5 7.4-7.5 9.6zm91.7-101.4c-6.4 16-14.9 32-21.3 43.7h2.1c14.9-4.3 25.6-6.4 35.2-8.5 3.2-1.1 6.4-1.1 9.6-2.1-2.1-3.2-5.3-6.4-7.5-8.5-7.4-7.5-13.8-16-18.1-24.6zm-2.1-42.6c3.2-12.8 5.3-23.5 5.3-30.9v-4.3c0-3.2 1.1-5.3 1.1-7.5-1.1-1.1-2.1-1.1-3.2-2.1h-2.1s-1.1 1.1-2.1 1.1c0 1.1-1.1 3.2-2.1 8.5-1.1 5.3-1.1 10.7 0 17.1-.1 5.3 1 11.7 3.1 18.1z"/>
    <path d="M96 40v320h320V40H96zm276.3 226.1c-2.1 3.2-5.3 8.5-13.9 10.7-6.4 2.1-11.7 2.1-18.1 0-5.3-2.1-12.8-5.3-20.3-10.7-7.5-5.3-14.9-11.7-22.4-19.2-3.2-3.2-6.4-6.4-9.6-10.7-5.3 1.1-11.7 1.1-19.2 3.2-8.5 1.1-19.2 4.3-33.1 7.5-6.4 2.1-12.8 4.3-18.1 6.4-1.1 1.1-1.1 2.1-2.1 3.2-11.7 17.1-23.5 30.9-33.1 39.5-7.5 6.4-14.9 9.6-21.3 10.7h-3.2c-5.3 0-8.5-2.1-10.7-6.4-2.1-3.2-2.1-8.5-1.1-13.9 1.1-6.4 4.3-11.7 10.7-17.1 7.5-7.5 18.1-13.9 29.9-20.3 6.4-3.2 13.9-6.4 21.3-8.5 9.6-13.9 22.4-36.3 30.9-60.8 1.1-3.2 2.1-5.3 3.2-8.5-3.2-6.4-4.3-12.8-6.4-17.1-2.1-8.5-4.3-17.1-5.3-23.5-1.1-6.4 0-13.9 0-20.3 1.1-6.4 2.1-10.7 4.3-13.9 3.2-4.3 6.4-6.4 9.6-7.5 2.1-1.1 3.2-1.1 4.3-1.1 2.1 0 4.3-1.1 7.5 0 2.1 1.1 3.2 1.1 5.3 3.2 9.6 4.3 8.5 11.7 7.5 22.4v4.3c-1.1 12.8-5.3 32-11.7 53.3 0 1.1 1.1 2.1 2.1 3.2 5.3 9.6 11.7 20.3 21.3 30.9 4.3 5.3 8.5 10.7 13.9 16h22.4c7.5 1.1 16 2.1 22.4 3.2 8.5 2.1 13.9 4.3 19.2 7.5 6.4 4.3 10.7 9.6 13.9 14.9 2 6.6 3.1 14.1-.1 19.4z"/>
    <path d="M349.9 244.8c-3.2-2.1-7.5-4.3-13.9-5.3-6.4-1.1-12.8-3.2-20.3-3.2h-7.5l1.1 1.1c7.5 7.5 13.9 12.8 21.3 18.1 6.4 4.3 11.7 7.5 16 8.5 3.2 1.1 6.4 1.1 9.6 0 1.1 0 3.2-1.1 4.3-3.2 1.1-1.1 1.1-4.3 0-6.4-3.2-4.3-6.4-7.5-10.6-9.6z"/>
</svg>
