<?xml version="1.0" encoding="UTF-8"?>
<svg width="512px" height="512px" viewBox="0 0 512 512" version="1.1" xmlns="http://www.w3.org/2000/svg" xmlns:xlink="http://www.w3.org/1999/xlink">
    <!-- Generator: Sketch 62 (91390) - https://sketch.com -->
    <title>media-pdf</title>
    <desc>Created with Sketch.</desc>
    <g id="media-pdf" stroke="none" stroke-width="1" fill="none" fill-rule="evenodd">
        <path d="M416,89.5 L416,409.5 L96,409.5 L96,89.5 L416,89.5 Z M256.1,137.3 C252.9,136.2 250.7,137.3 248.6,137.3 C247.5,137.3 246.4,137.3 244.3,138.4 C241.1,139.5 237.9,141.6 234.7,145.9 C232.5,149.1 231.5,153.4 230.4,159.8 C230.4,166.2 229.3,173.7 230.4,180.1 C231.4,186.5 233.6,195.1 235.7,203.6 C237.8,207.9 238.9,214.3 242.1,220.7 C241,223.9 240,226 238.9,229.2 C230.4,253.7 217.6,276.1 208,290 C200.6,292.1 193.1,295.3 186.7,298.5 C174.9,304.9 164.3,311.3 156.8,318.8 C150.4,324.2 147.2,329.5 146.1,335.9 C145.1,341.3 145.1,346.6 147.2,349.8 C149.4,354.1 152.6,356.2 157.9,356.2 L157.9,356.2 L161.1,356.2 C167.5,355.1 174.9,351.9 182.4,345.5 C192,336.9 203.8,323.1 215.5,306 C216.5,304.9 216.5,303.9 217.6,302.8 C222.9,300.7 229.3,298.5 235.7,296.4 C249.6,293.2 260.3,290 268.8,288.9 C276.3,286.8 282.7,286.8 288,285.7 C291.2,290 294.4,293.2 297.6,296.4 C305.1,303.9 312.5,310.3 320,315.6 C327.5,321 335,324.2 340.3,326.3 C346.7,328.4 352,328.4 358.4,326.3 C367,324.1 370.2,318.8 372.3,315.6 C375.5,310.3 374.4,302.8 372.4,296.2 C369.2,290.9 364.9,285.6 358.5,281.3 C353.2,278.1 347.8,275.9 339.3,273.8 C332.9,272.7 324.4,271.7 316.9,270.6 L316.9,270.6 L294.5,270.6 C289.1,265.3 284.9,259.9 280.6,254.6 C271,244 264.6,233.3 259.3,223.7 C258.3,222.6 257.2,221.6 257.2,220.5 C263.6,199.2 267.8,180 268.9,167.2 L268.9,167.2 L268.9,162.9 C269.9,152.2 271,144.8 261.4,140.5 C259.3,138.4 258.2,138.4 256.1,137.3 Z M192,316.65 C183.5,327.35 177.1,333.75 172.8,336.95 C168.5,341.25 163.2,343.35 160,344.45 L160,344.45 L160,343.35 C160,341.15 161.1,337.95 167.5,333.75 C170.7,330.55 178.1,323.05 192,316.65 Z M251.7,241.95 C256,250.55 262.4,259.05 269.8,266.55 C272,268.65 275.2,271.85 277.3,275.05 C274.1,276.05 270.9,276.05 267.7,277.15 C258.1,279.25 247.4,281.35 232.5,285.65 L232.5,285.65 L230.4,285.65 C236.8,273.95 245.3,257.95 251.7,241.95 Z M252.8,154.55 C253.9,155.55 254.9,155.55 256,156.65 C256,158.85 254.9,160.95 254.9,164.15 L254.9,164.15 L254.9,168.45 C254.9,175.85 252.8,186.55 249.6,199.35 C247.5,192.95 246.4,186.55 246.5,181.25 C245.4,174.85 245.4,169.45 246.5,164.15 C247.5,158.85 248.6,156.75 248.6,155.65 C249.6,155.65 250.7,154.55 250.7,154.55 L250.7,154.55 Z" id="Combined-Shape" fill="#000000" fill-rule="nonzero"></path>
    </g>
</svg>