<?xml version="1.0" encoding="UTF-8"?>
<svg id="Layer_1" xmlns="http://www.w3.org/2000/svg" version="1.1" viewBox="0 0 500 500">
  <!-- Generator: Adobe Illustrator 29.1.0, SVG Export Plug-In . SVG Version: 2.1.0 Build 142)  -->
  <path d="M475,25v450H25V25h450ZM250.1,92.2c-4.5-1.5-7.6,0-10.5,0s-3.1,0-6,1.5c-4.5,1.5-9,4.5-13.5,10.5-3.1,4.5-4.5,10.5-6,19.5,0,9-1.5,19.5,0,28.5,1.4,9,4.5,21.1,7.5,33,3,6,4.5,15,9,24-1.5,4.5-3,7.5-4.5,12-12,34.5-30,66-43.5,85.5-10.4,3-21,7.5-30,12-16.6,9-31.5,18-42,28.5-9,7.6-13.5,15-15,24-1.4,7.6-1.4,15,1.5,19.5,3.1,6,7.6,9,15,9h4.5c9-1.5,19.4-6,30-15,13.5-12.1,30.1-31.5,46.5-55.5,1.4-1.5,1.4-3,3-4.5,7.5-3,16.5-6,25.5-9,19.5-4.5,34.6-9,46.5-10.5,10.5-3,19.5-3,27-4.5,4.5,6,9,10.5,13.5,15,10.5,10.5,21,19.5,31.5,27,10.5,7.6,21.1,12.1,28.5,15,9,3,16.5,3,25.5,0,12.1-3.1,16.6-10.5,19.5-15,4.5-7.5,3-18,.1-27.3-4.5-7.5-10.5-14.9-19.5-21-7.5-4.5-15-7.6-27-10.5-9-1.5-21-3-31.5-4.5h-31.5c-7.6-7.5-13.5-15-19.5-22.5-13.5-14.9-22.5-30-30-43.5-1.4-1.5-3-3-3-4.5,9-30,14.9-57,16.5-75v-6c1.4-15,3-25.5-10.5-31.5-3-3-4.5-3-7.5-4.5M160,344.4c-12,15-21,24-27,28.5-6,6-13.5,9-18,10.5v-1.5c0-3.1,1.5-7.6,10.5-13.5,4.5-4.5,14.9-15,34.5-24M244,239.4c6,12.1,15,24,25.5,34.6,3.1,3,7.6,7.5,10.5,12-4.5,1.4-9,1.4-13.5,3-13.5,3-28.5,5.9-49.5,12h-3c9-16.5,21-39,30-61.5M245.5,116.5c1.5,1.4,3,1.4,4.5,3,0,3.1-1.5,6-1.5,10.5v6c0,10.4-3,25.5-7.5,43.5-3-9-4.5-18-4.4-25.5-1.5-9-1.5-16.6,0-24,1.4-7.5,3-10.4,3-12,1.4,0,3-1.5,3-1.5h3Z"/>
</svg>