<?xml version="1.0" encoding="UTF-8"?>
<svg id="Layer_1" xmlns="http://www.w3.org/2000/svg" version="1.1" viewBox="0 0 512 512">
  <!-- Generator: Adobe Illustrator 29.1.0, SVG Export Plug-In . SVG Version: 2.1.0 Build 142)  -->
  <path d="M325.3,308.4c-34.4-17.6-79-31.9-130.7-31.9s-96.3,14.3-130.7,31.9c-20.5,10.4-32.9,31.5-32.9,54.4v56.9h327.3v-56.9c0-22.9-12.5-44-32.9-54.4h-.1ZM317.4,378.7H71.9v-16c0-7.8,4.1-14.7,10.6-18,24.3-12.5,63.6-27.4,112.1-27.4s87.7,14.9,112.1,27.4c6.5,3.3,10.6,10.2,10.6,18v16h0ZM194.6,256c45.2,0,81.8-36.6,81.8-81.8s-36.6-81.8-81.8-81.8-81.8,36.6-81.8,81.8,36.6,81.8,81.8,81.8h0ZM194.6,133.3c22.5,0,40.9,18.4,40.9,40.9s-18.4,40.9-40.9,40.9-40.9-18.4-40.9-40.9,18.4-40.9,40.9-40.9ZM481,194.6v40.9h-61.4v61.4h-40.9v-61.4h-61.4v-40.9h61.4v-61.4h40.9v61.4h61.4Z"/>
</svg>