<svg xmlns="http://www.w3.org/2000/svg" width="512" height="512" viewBox="0 0 512 512">
  <path d="M317.6,302.533c-30.578-15.644-70.222-28.356-116.178-28.356s-85.6,12.711-116.178,28.356c-18.222,9.244-29.244,28-29.244,48.356v50.578h290.933v-50.578c0-20.356-11.111-39.111-29.244-48.356h-.089ZM310.578,365.022H92.356v-14.222c0-6.933,3.644-13.067,9.422-16,21.6-11.111,56.533-24.356,99.644-24.356s77.956,13.244,99.644,24.356c5.778,2.933,9.422,9.067,9.422,16v14.222h.089ZM201.422,255.956c40.178,0,72.711-32.533,72.711-72.711s-32.533-72.711-72.711-72.711-72.711,32.533-72.711,72.711,32.533,72.711,72.711,72.711M201.422,146.889c20,0,36.356,16.356,36.356,36.356s-16.356,36.356-36.356,36.356-36.356-16.356-36.356-36.356,16.356-36.356,36.356-36.356M456,201.378v36.356h-54.578v54.578h-36.356v-54.578h-54.578v-36.356h54.578v-54.578h36.356v54.578h54.578Z"/>
</svg>