<svg xmlns="http://www.w3.org/2000/svg" width="512" height="512" viewBox="0 0 512 512">
  <defs>
    <style>
      .st0 {
        fill-rule: evenodd;
      }
    </style>
  </defs>
  <path class="st0" d="M256.001,97.651c-44.017,0-79.7,35.682-79.7,79.699s35.683,79.699,79.699,79.699,79.699-35.682,79.699-79.699-35.682-79.699-79.699-79.699M377.351,177.35c0,67.021-54.331,121.35-121.35,121.35s-121.351-54.329-121.351-121.35c0-67.02,54.331-121.35,121.351-121.35s121.349,54.331,121.349,121.35M106.752,377.978c0-7.584,6.15-13.733,13.734-13.733h269.858c7.584,0,13.734,6.149,13.734,13.733v78.022h43.937v-63.586c0-37.951-30.766-68.716-68.716-68.716h-246.602c-37.95,0-68.714,30.764-68.714,68.714v63.587h42.768v-78.022Z"/>
</svg>