<svg xmlns="http://www.w3.org/2000/svg" width="512" height="512" viewBox="0 0 512 512">
    <path fill-rule="evenodd" d="M272.503 328.012c0 5.962-4.833 10.795-10.795 10.795H108.382c-5.962 0-10.796-4.833-10.796-10.795V145.463c0-5.962 4.834-10.795 10.796-10.795h153.326c5.962 0 10.795 4.833 10.795 10.795zM271.117 100H99.204c-19.87 0-35.979 16.109-35.979 35.98v201.451c0 19.871 16.108 35.979 35.98 35.979h171.912c19.871 0 35.981-16.108 35.981-35.979V135.98c0-19.871-16.11-35.98-35.98-35.98zm169.085 29.888c9.52-3.72 19.798 3.3 19.798 13.52V345.47c0 10.219-10.279 17.239-19.798 13.52l-84.565-33.033a14.52 14.52 0 0 1-9.234-13.521V176.44a14.52 14.52 0 0 1 9.234-13.52zm-13.926 58.707c0-7.773-7.399-10.896-11.242-8.068l-30.884 10.908c-2.248 1.655-3.728 5.738-3.728 10.285v87.857c0 4.548 1.48 8.63 3.728 10.284l30.884 10.908c3.843 2.829 11.242-.295 11.242-8.067z"/>
</svg>
