<?xml version="1.0" encoding="UTF-8"?>
<svg id="Layer_1" xmlns="http://www.w3.org/2000/svg" version="1.1" viewBox="0 0 500 500">
  <!-- Generator: Adobe Illustrator 29.1.0, SVG Export Plug-In . SVG Version: 2.1.0 Build 142)  -->
  <defs>
    <style>
      .st0 {
        fill-rule: evenodd;
      }
    </style>
  </defs>
  <path class="st0" d="M260.8,95H65.8c-22.5,0-40.8,18.3-40.8,40.8v228.5c0,22.5,18.3,40.8,40.8,40.8h195c22.5,0,40.8-18.3,40.8-40.8v-228.5c0-22.5-18.3-40.8-40.8-40.8h0ZM452.5,128.9l-95.9,37.5c-6.3,2.5-10.5,8.6-10.5,15.3v154.2c0,6.8,4.2,12.9,10.5,15.3l95.9,37.5c10.8,4.2,22.5-3.7,22.5-15.3v-229.2c0-11.6-11.7-19.6-22.5-15.3"/>
</svg>