<?xml version="1.0" encoding="UTF-8"?>
<svg id="Layer_1" xmlns="http://www.w3.org/2000/svg" version="1.1" viewBox="0 0 500 500">
  <!-- Generator: Adobe Illustrator 29.1.0, SVG Export Plug-In . SVG Version: 2.1.0 Build 142)  -->
  <defs>
    <style>
      .st0 {
        fill-rule: evenodd;
      }
    </style>
  </defs>
  <path class="st0" d="M250,71.9c-49.5,0-89.7,40.1-89.7,89.7s40.1,89.7,89.7,89.7,89.7-40.1,89.7-89.7-40.1-89.7-89.7-89.7M386.5,161.5c0,75.4-61.1,136.5-136.5,136.5s-136.5-61.1-136.5-136.5c0-75.4,61.1-136.5,136.5-136.5s136.5,61.1,136.5,136.5M82.1,387.2c0-8.5,6.9-15.4,15.5-15.4h303.6c8.5,0,15.5,6.9,15.5,15.4v87.8h49.4v-71.5c0-42.7-34.6-77.3-77.3-77.3H111.3c-42.7,0-77.3,34.6-77.3,77.3v71.5h48.1v-87.8Z"/>
</svg>