<svg xmlns="http://www.w3.org/2000/svg" width="512" height="512" viewBox="0 0 512 512">
  <defs>
    <style>
      .st0 {
        fill-rule: evenodd;
      }
    </style>
  </defs>
  <path class="st0" d="M197.04,145.457h-95.468c-4.085,0-7.397,3.31-7.398,7.396v207.111c0,3.946,3.198,7.145,7.143,7.146h311.766c2.936,0,5.317-2.379,5.318-5.316h0v-173.072c0-3.341-2.709-6.049-6.05-6.049h-180.669l-34.642-37.216h0ZM256,144.888h166.111c18.667,0,33.889,15.223,33.889,33.889v192.556c0,18.668-15.222,33.889-33.889,33.889H89.889c-18.667,0-33.889-15.222-33.889-33.889v-230.667c0-18.667,15.222-33.889,33.778-33.889h132.333l33.889,38.111Z"/>
</svg>