<svg xmlns="http://www.w3.org/2000/svg" width="512" height="512" viewBox="0 0 512 512">
    <path fill-rule="evenodd" d="M256.264 120.631c-37.655 0-68.181 30.525-68.181 68.18 0 37.655 30.526 68.18 68.18 68.18 37.655 0 68.18-30.525 68.18-68.18 0-37.655-30.525-68.18-68.18-68.18m103.812 68.18c0 57.334-46.478 103.811-103.811 103.811-57.334 0-103.812-46.477-103.812-103.811C152.452 131.478 198.93 85 256.264 85c57.333 0 103.81 46.478 103.81 103.811M128.587 360.442c0-6.488 5.261-11.748 11.749-11.748h230.855c6.488 0 11.749 5.26 11.749 11.748v66.745h37.587v-54.396c0-32.466-26.319-58.784-58.784-58.784h-210.96C118.318 314.007 92 340.325 92 372.79v54.397h36.587z"/>
</svg>
