<?xml version="1.0" encoding="UTF-8"?>
<svg id="Layer_1" xmlns="http://www.w3.org/2000/svg" version="1.1" viewBox="0 0 500 500">
  <!-- Generator: Adobe Illustrator 29.1.0, SVG Export Plug-In . SVG Version: 2.1.0 Build 142)  -->
  <defs>
    <style>
      .st0 {
        fill-rule: evenodd;
      }
    </style>
  </defs>
  <path class="st0" d="M183.7,125.6h-107.4c-4.6,0-8.3,3.7-8.3,8.3h0v233c0,4.4,3.6,8,8,8h350.7c3.3,0,6-2.7,6-6h0v-194.7c0-3.8-3-6.8-6.8-6.8h-203.3l-39-41.9ZM250,125h186.9c21,0,38.1,17.1,38.1,38.1v216.6c0,21-17.1,38.1-38.1,38.1H63.1c-21,0-38.1-17.1-38.1-38.1V120.2c0-21,17.1-38.1,38-38.1h148.9l38.1,42.9Z"/>
</svg>