<svg xmlns="http://www.w3.org/2000/svg" width="512" height="512" viewBox="0 0 512 512">
    <path fill-rule="evenodd" d="M271.117 100H99.204c-19.87 0-35.979 16.109-35.979 35.98v201.451c0 19.871 16.108 35.979 35.98 35.979h171.912c19.871 0 35.981-16.108 35.981-35.979V135.98c0-19.871-16.11-35.98-35.98-35.98zm169.085 29.888l-84.565 33.033a14.516 14.516 0 0 0-9.234 13.52v135.996a14.516 14.516 0 0 0 9.234 13.52l84.565 33.034c9.52 3.719 19.798-3.301 19.798-13.52V143.408c0-10.22-10.279-17.24-19.798-13.52z"/>
</svg>
