<svg xmlns="http://www.w3.org/2000/svg" width="512" height="512" viewBox="0 0 512 512">
  <defs>
    <style>
      .st0 {
        fill-rule: evenodd;
      }
    </style>
  </defs>
  <path class="st0" d="M265.582,118.184H92.271c-20.032,0-36.271,16.24-36.271,36.272v203.088c0,20.033,16.239,36.271,36.272,36.271h173.309c20.033,0,36.273-16.239,36.273-36.271v-203.088c0-20.033-16.241-36.272-36.272-36.272h0ZM436.041,148.315l-85.252,33.301c-5.613,2.194-9.308,7.604-9.309,13.63v137.101c.002,6.026,3.696,11.436,9.309,13.63l85.252,33.302c9.597,3.749,19.959-3.328,19.959-13.63v-203.705c0-10.303-10.363-17.38-19.959-13.63"/>
</svg>