<svg xmlns="http://www.w3.org/2000/svg" width="512" height="512" viewBox="0 0 512 512">
  <defs>
    <style>
      .st0 {
        fill-rule: evenodd;
      }
    </style>
  </defs>
  <path class="st0" d="M266.979,348.05c0,6.01-4.873,10.883-10.883,10.883H101.524c-6.01,0-10.884-4.873-10.884-10.883v-184.033c0-6.01,4.873-10.883,10.884-10.883h154.573c6.01,0,10.883,4.872,10.883,10.883v184.033ZM265.582,118.184H92.272c-20.032,0-36.271,16.24-36.271,36.273v203.089c0,20.032,16.239,36.271,36.273,36.271h173.309c20.032,0,36.273-16.239,36.273-36.271v-203.089c0-20.032-16.241-36.273-36.273-36.273h-.001ZM436.041,148.315c9.598-3.75,19.959,3.327,19.959,13.63v203.705c0,10.302-10.362,17.379-19.959,13.63l-85.252-33.301c-5.613-2.194-9.308-7.604-9.309-13.631v-137.102c.001-6.027,3.696-11.436,9.309-13.63l85.252-33.301h0ZM422.002,207.499c0-7.836-7.459-10.985-11.333-8.134l-31.135,10.996c-2.266,1.668-3.758,5.785-3.758,10.369v88.571c0,4.585,1.492,8.7,3.758,10.368l31.135,10.996c3.874,2.852,11.333-.298,11.333-8.133v-115.035h0Z"/>
</svg>