<?xml version="1.0" encoding="UTF-8"?>
<svg id="Layer_1" xmlns="http://www.w3.org/2000/svg" version="1.1" viewBox="0 0 500 500">
  <!-- Generator: Adobe Illustrator 29.1.0, SVG Export Plug-In . SVG Version: 2.1.0 Build 142)  -->
  <defs>
    <style>
      .st0 {
        fill-rule: evenodd;
      }
    </style>
  </defs>
  <path class="st0" d="M262.4,353.6c0,6.8-5.5,12.2-12.2,12.2H76.2c-6.8,0-12.2-5.5-12.2-12.2v-207c0-6.8,5.5-12.2,12.2-12.2h173.9c6.8,0,12.2,5.5,12.2,12.2v207ZM260.8,95H65.8c-22.5,0-40.8,18.3-40.8,40.8v228.5c0,22.5,18.3,40.8,40.8,40.8h195c22.5,0,40.8-18.3,40.8-40.8v-228.5c0-22.5-18.3-40.8-40.8-40.8h0ZM452.5,128.9c10.8-4.2,22.5,3.7,22.5,15.3v229.2c0,11.6-11.7,19.6-22.5,15.3l-95.9-37.5c-6.3-2.5-10.5-8.6-10.5-15.3v-154.2c0-6.8,4.2-12.9,10.5-15.3l95.9-37.5ZM436.8,195.4c0-8.8-8.4-12.4-12.8-9.2l-35,12.4c-2.5,1.9-4.2,6.5-4.2,11.7v99.6c0,5.2,1.7,9.8,4.2,11.7l35,12.4c4.4,3.2,12.8-.3,12.8-9.1v-129.4Z"/>
</svg>