<svg xmlns="http://www.w3.org/2000/svg" width="500" height="500" viewBox="0 0 500 500">
    <path d="M250 25c18.84 0 36.92 7.49 50.24 20.81s20.81 31.4 20.81 50.24v142.11c0 18.84-7.49 36.92-20.81 50.24s-31.4 20.81-50.24 20.81-36.92-7.49-50.24-20.81a71.07 71.07 0 0 1-20.81-50.24V96.05c0-18.84 7.49-36.92 20.81-50.24A71.08 71.08 0 0 1 250 25m165.79 213.16c0 83.61-61.82 152.53-142.11 164.13V475h-47.37v-72.71C146.02 390.68 84.2 321.76 84.2 238.16h47.37c0 31.41 12.48 61.53 34.68 83.74 22.21 22.21 52.33 34.69 83.74 34.69s61.53-12.48 83.74-34.69a118.43 118.43 0 0 0 34.69-83.74z"/>
</svg>
