<svg xmlns="http://www.w3.org/2000/svg" width="512" height="512" viewBox="0 0 512 512">
  <path d="M397.372,239.471c0,25.049-7.156,48.419-18.952,69.05l-25.894-25.894c5.68-13.049,9.049-27.583,9.049-43.157h35.796ZM313.157,242.84l-126.314-125.896v-3.787c0-16.747,6.658-32.819,18.498-44.659,11.849-11.84,27.912-18.498,44.659-18.498s32.819,6.658,44.659,18.498c11.84,11.84,18.498,27.912,18.498,44.659v129.683ZM87.259,71.04l352.221,352.221-26.738,26.738-88.215-88.215c-16.214,9.68-34.321,16.214-53.477,19.156v69.05h-42.108v-69.05c-69.05-10.32-126.323-69.682-126.323-141.479h35.787c0,63.157,53.477,107.371,111.585,107.371,17.049,0,33.681-4,48.632-10.951l-34.952-34.952-13.68,1.68c-16.747,0-32.819-6.658-44.659-18.498-11.843-11.845-18.496-27.909-18.498-44.659v-15.156L60.52,97.779l26.738-26.738Z"/>
</svg>