<svg xmlns="http://www.w3.org/2000/svg" width="512" height="512" viewBox="0 0 512 512">
  <defs>
    <style>
      .st0 {
        fill: url(#radial-gradient);
      }

      .st1 {
        fill: url(#radial-gradient1);
      }

      .st2 {
        fill: url(#radial-gradient2);
      }
    </style>
    <radialGradient id="radial-gradient" cx="-1859.285" cy="224.561" fx="-1859.285" fy="224.561" r="9.6" gradientTransform="translate(-33817.604 53634.723) rotate(110.5) scale(33.4 -58.2)" gradientUnits="userSpaceOnUse">
      <stop offset="0" stop-color="#bf8af6"/>
      <stop offset=".5" stop-color="#3079d6"/>
      <stop offset="1" stop-color="#11408c"/>
    </radialGradient>
    <radialGradient id="radial-gradient1" cx="-1784.118" cy="155.705" fx="-1784.118" fy="155.705" r="10.2" gradientTransform="translate(55385.769 -4530.864) rotate(-8.4) scale(31.1 -20.5)" gradientUnits="userSpaceOnUse">
      <stop offset=".2" stop-color="#bf8af6"/>
      <stop offset="1" stop-color="#591c96"/>
    </radialGradient>
    <radialGradient id="radial-gradient2" cx="-1934.167" cy="186.233" fx="-1934.167" fy="186.233" r="12.2" gradientTransform="translate(-44386.38 -19166.761) rotate(-165.8) scale(24.9 -42)" gradientUnits="userSpaceOnUse">
      <stop offset="0" stop-color="#50e6ff"/>
      <stop offset=".7" stop-color="#3079d6"/>
      <stop offset="1" stop-color="#11408c"/>
    </radialGradient>
  </defs>
  <path class="st0" d="M220.352,65.254l-2.045,1.245c-3.289,1.956-6.312,4.178-9.156,6.578l5.867-4.178h50.049l9.067,68.806-45.426,45.426-45.426,31.558v36.448c0,25.424,13.335,49.071,35.025,62.228l47.826,28.98-101.076,59.027h-19.468l-36.359-22.046c-21.78-13.157-35.025-36.803-35.025-62.228v-122.5c0-25.424,13.335-49.071,35.114-62.228l109.076-65.961c.711-.444,1.333-.8,2.045-1.156h-.089.001Z"/>
  <path class="st1" d="M328.718,210.512v40.715c0,25.424-13.335,49.071-35.025,62.228l-109.076,66.05c-22.313,13.512-50.049,14.046-72.806,1.422l106.587,64.539c23.113,14.046,52.182,14.046,75.296,0l109.076-66.05c21.78-13.157,35.025-36.803,35.025-62.228v-29.425l-9.067-13.601-100.009-63.65h-.001Z"/>
  <path class="st2" d="M402.769,132.46l-109.076-65.961c-22.402-13.601-50.316-13.957-73.162-1.245l-2.134,1.333c-21.78,13.157-35.114,36.803-35.114,62.228v86.23l35.114-21.246c23.113-14.046,52.182-14.046,75.296,0l109.076,65.961c21.069,12.801,34.225,35.292,35.025,59.828v-124.9c0-25.424-13.335-49.071-35.114-62.228h.089Z"/>
</svg>