<svg xmlns="http://www.w3.org/2000/svg" width="500" height="500" viewBox="0 0 500 500">
    <path d="M415.79 238.16c0 28.18-8.05 54.47-21.32 77.68l-29.13-29.13c6.39-14.68 10.18-31.03 10.18-48.55h40.26Zm-94.74 3.79-142.1-141.63v-4.26c0-18.84 7.49-36.92 20.81-50.24 13.33-13.32 31.4-20.81 50.24-20.81s36.92 7.49 50.24 20.81 20.81 31.4 20.81 50.24zM66.92 48.68l396.24 396.24L433.08 475l-99.24-99.24c-18.24 10.89-38.61 18.24-60.16 21.55v77.68h-47.37v-77.68C148.63 385.7 84.2 318.92 84.2 238.15h40.26c0 71.05 60.16 120.79 125.53 120.79 19.18 0 37.89-4.5 54.71-12.32l-39.32-39.32-15.39 1.89c-18.84 0-36.92-7.49-50.24-20.81a71.07 71.07 0 0 1-20.81-50.24v-17.05L36.84 78.76z"/>
</svg>
