<svg xmlns="http://www.w3.org/2000/svg" width="500" height="500" viewBox="0 0 500 500">
    <path d="M375.53 238.16c0 71.05-60.16 120.79-125.53 120.79s-125.53-49.74-125.53-120.79H84.21c0 80.76 64.42 147.55 142.11 159.16V475h47.37v-77.68c77.68-11.61 142.11-78.39 142.11-159.16M221.58 93.68c0-15.63 12.79-28.42 28.42-28.42s28.42 12.79 28.42 28.42l-.24 146.84c0 15.63-12.55 28.42-28.18 28.42s-28.42-12.79-28.42-28.42M250 309.21c18.84 0 36.92-7.49 50.24-20.81a71.07 71.07 0 0 0 20.81-50.24V96.05c0-18.84-7.49-36.92-20.81-50.24S268.84 25 250 25s-36.92 7.49-50.24 20.81a71.07 71.07 0 0 0-20.81 50.24v142.11c0 18.84 7.49 36.92 20.81 50.24A71.08 71.08 0 0 0 250 309.21"/>
</svg>
