<svg xmlns="http://www.w3.org/2000/svg" width="512" height="512" viewBox="0 0 512 512">
  <path d="M250.004,50c16.747,0,32.818,6.658,44.658,18.498,11.84,11.84,18.498,27.911,18.498,44.658v126.32c0,16.747-6.658,32.818-18.498,44.658-11.84,11.84-27.911,18.498-44.658,18.498s-32.818-6.658-44.658-18.498c-11.842-11.845-18.496-27.908-18.498-44.658v-126.32c0-16.747,6.658-32.818,18.498-44.658,11.846-11.841,27.908-18.495,44.658-18.498M397.373,239.476c0,74.32-54.951,135.582-126.32,145.893v64.631h-42.107v-64.631c-71.369-10.32-126.32-71.582-126.32-145.893h42.107c0,27.92,11.093,54.693,30.827,74.436,19.742,19.742,46.516,30.836,74.436,30.836s54.693-11.093,74.436-30.836c19.742-19.741,30.834-46.516,30.836-74.436h42.107Z"/>
</svg>