<svg xmlns="http://www.w3.org/2000/svg" width="500" height="500" viewBox="0 0 500 500">
  <path id="content" d="M362.5,272.5h-225v-45h225M250,25c-29.547,0-58.806,5.82-86.104,17.127-27.298,11.307-52.102,27.881-72.995,48.774C48.705,133.097,25,190.326,25,250s23.705,116.903,65.901,159.1c20.893,20.894,45.697,37.465,72.995,48.773,27.298,11.306,56.557,17.127,86.104,17.127,59.674,0,116.903-23.706,159.1-65.9,42.194-42.197,65.9-99.425,65.9-159.1,0-29.547-5.821-58.806-17.127-86.104-11.308-27.298-27.88-52.102-48.773-72.995-20.894-20.893-45.698-37.467-72.997-48.774-27.297-11.307-56.556-17.127-86.103-17.127Z"/>
</svg>