<svg xmlns="http://www.w3.org/2000/svg" width="512" height="512" viewBox="0 0 512 512">
  <path id="content" d="M256,416c-88.2,0-160-71.8-160-160S167.8,96,256,96s160,71.8,160,160-71.8,160-160,160ZM256,56c-26.264,0-52.271,5.173-76.537,15.224-24.265,10.051-46.313,24.783-64.884,43.355-37.508,37.508-58.579,88.378-58.579,141.421s21.071,103.915,58.579,141.421c18.572,18.571,40.62,33.304,64.884,43.355,24.266,10.051,50.273,15.224,76.537,15.224,53.043,0,103.915-21.072,141.421-58.579,37.507-37.507,58.579-88.379,58.579-141.421,0-26.264-5.173-52.271-15.224-76.537-10.051-24.265-24.784-46.313-43.355-64.884-18.571-18.572-40.619-33.304-64.885-43.355-24.264-10.051-50.272-15.224-76.536-15.224h0ZM156,276h200v-40h-200"/>
</svg>