<svg xmlns="http://www.w3.org/2000/svg" width="500" height="500" viewBox="0 0 500 500">
  <path id="content" d="M250,430c-99.225,0-180-80.775-180-180S150.775,70,250,70s180,80.775,180,180-80.775,180-180,180ZM250,25c-29.547,0-58.805,5.82-86.104,17.127-27.298,11.307-52.102,27.881-72.995,48.774C48.705,133.097,25,190.326,25,250s23.705,116.904,65.901,159.099c20.893,20.892,45.697,37.467,72.995,48.774,27.299,11.307,56.557,17.127,86.104,17.127,59.673,0,116.904-23.706,159.099-65.901s65.901-99.426,65.901-159.099c0-29.547-5.82-58.805-17.127-86.104-11.307-27.298-27.882-52.102-48.774-72.995-20.892-20.893-45.696-37.467-72.996-48.774-27.297-11.307-56.556-17.127-86.103-17.127ZM137.5,272.5h225v-45h-225"/>
</svg>