<svg xmlns="http://www.w3.org/2000/svg" width="512" height="512" viewBox="0 0 512 512">
  <path d="M445.647,84.588H66.117c-5.412,0-10.118,4.471-10.118,9.882v237.176c0,5.529,4.588,9.882,10.118,9.882h379.765c5.412,0,10.118-4.471,10.118-9.882V94.471c-.235-5.412-4.824-9.882-10.353-9.882M427.175,313.176H84.587V113.176h342.824v199.882h-.235v.118h-.001ZM297.411,427.412c24.941-.471,36.941-3.529,25.882-11.176-11.176-7.765-25.529-13.647-25.882-20.118-.353-3.176-1.529-40.118-1.529-40.118h-80s-1.412,36.824-1.529,40.118c-.471,6.353-14.706,12.353-25.882,20.118s.824,10.706,25.882,11.176h83.059-.001Z"/>
</svg>