<?xml version="1.0" encoding="UTF-8"?>
<svg id="Layer_1" xmlns="http://www.w3.org/2000/svg" version="1.1" viewBox="0 0 500 500">
  <!-- Generator: Adobe Illustrator 29.1.0, SVG Export Plug-In . SVG Version: 2.1.0 Build 142)  -->
  <path d="M463.4,57.2H36.4c-6.1,0-11.4,5-11.4,11.1v266.8c0,6.2,5.2,11.1,11.4,11.1h427.2c6.1,0,11.4-5,11.4-11.1V68.3c-.3-6.1-5.4-11.1-11.6-11.1M442.6,314.3H57.2V89.3h385.7v224.9h-.3,0ZM296.6,442.8c28.1-.5,41.6-4,29.1-12.6-12.6-8.7-28.7-15.4-29.1-22.6-.4-3.6-1.7-45.1-1.7-45.1h-90s-1.6,41.4-1.7,45.1c-.5,7.1-16.5,13.9-29.1,22.6-12.6,8.7.9,12,29.1,12.6h93.4Z"/>
</svg>