<?xml version="1.0" encoding="UTF-8"?>
<svg width="512px" height="512px" viewBox="0 0 512 512" version="1.1" xmlns="http://www.w3.org/2000/svg" xmlns:xlink="http://www.w3.org/1999/xlink">
    <!-- Generator: Sketch 62 (91390) - https://sketch.com -->
    <title>navicon-close</title>
    <desc>Created with Sketch.</desc>
    <g id="navicon-close" stroke="none" stroke-width="1" fill="none" fill-rule="evenodd">
        <path d="M216,233.5 L439,233.5 L439,265.5 L216,265.5 L216,233.5 Z M216,137.5 L439,137.5 L439,169.5 L216,169.5 L216,137.5 Z M216,329.5 L439,329.5 L439,361.5 L216,361.5 L216,329.5 Z M143,151 L141.6,152.2 L40.6,240 C37.2,243 35,247.4 35,252.4 C35,257.4 37.2,261.8 40.6,264.8 L141.5,352.6 L143.2,354.1 C144.8,355.2 146.8,355.8 148.8,355.8 C154.4,355.8 159,351 159,345.1 L159,159.9 C159,154 154.4,149.2 148.8,149.2 C146.7,149.2 144.7,149.9 143,151 L143,151 Z" id="Shape" fill="#000000" fill-rule="nonzero"></path>
    </g>
</svg>