<?xml version="1.0" encoding="UTF-8"?>
<svg width="512px" height="512px" viewBox="0 0 512 512" version="1.1" xmlns="http://www.w3.org/2000/svg" xmlns:xlink="http://www.w3.org/1999/xlink">
    <!-- Generator: Sketch 62 (91390) - https://sketch.com -->
    <title>new-team</title>
    <desc>Created with Sketch.</desc>
    <g id="new-team" stroke="none" stroke-width="1" fill="none" fill-rule="evenodd">
        <path d="M135.9,141.65 C174,141.65 184.8,173.05 183.7,184.95 C183,194.65 182.4,198.85 182.1,203.45 C181.8,208.15 185.2,208.85 183.1,218.75 C179,237.55 177.4,229.75 175.5,241.45 C170.6,271.35 162.9,265.55 162.9,281.25 C162.9,292.45 160.3,297.15 175.3,304.15 C170.8,305.75 165.5,307.65 159.2,310.05 C113.8,327.35 115,343.95 113.8,351.95 C113,357.35 112.5,400.45 112.4,415.95 L112.4,415.95 L30.9,415.95 L30.9009477,414.411616 C30.91053,404.35233 31.017,348.148 32.2,341.05 C33.2,334.95 41.3,326.75 76.6,313.35 C111.1,300.25 109,305.55 109,281.25 C109,265.65 101.3,271.35 96.3,241.45 C94.4,229.65 92.8,237.45 88.7,218.75 C86.5,208.95 90.2,208.15 89.7,203.45 C89.2,198.75 88.9,194.55 88.1,184.95 C87.1,172.95 97.8,141.65 135.9,141.65 Z M268.8,96.05 C318.1,96.05 331.8,136.45 330.5,151.95 C329.5,164.35 328.9,169.75 328.3,175.85 C327.7,181.95 332.5,182.85 329.6,195.55 C324.2,219.85 322.3,209.65 319.8,224.85 C313.5,263.25 303.6,250.05 303.6,270.35 C303.6,301.75 300.8,299.35 345.5,316.35 C390.6,333.45 401.2,344.05 402.5,351.95 C403.972,361.15 404.08976,407.5916 404.099181,414.963376 L404.1,415.95 L133.4,415.95 L133.5,415.85 C133.500013,415.584617 133.501124,403.898315 133.6,390.55 C133.7,375.05 134.2,357.15 135,351.95 C136.3,344.05 146.9,333.45 192.2,316.25 C198.5,313.95 203.7,312.05 208.3,310.35 C236.1,300.55 234.1,297.25 234.1,270.35 C234.1,250.05 224.1,263.25 217.8,224.85 C215.4,209.65 213.3,219.75 208,195.55 C205.2,182.85 209.9,181.95 209.3,175.85 L209.3,175.85 L209.237915,175.221147 C208.658145,169.369263 208.065517,163.922414 207.1,151.95 C205.8,136.55 219.5,96.05 268.8,96.05 Z M438.6,166 L438.6,208.5 L481.1,208.5 L481.1,243.5 L438.6,243.5 L438.6,286 L403.6,286 L403.6,243.5 L361.1,243.5 L361.1,208.5 L403.6,208.5 L403.6,166 L438.6,166 Z" id="Combined-Shape" fill="#000000" fill-rule="nonzero" transform="translate(256.000000, 256.000000) scale(-1, 1) translate(-256.000000, -256.000000) "></path>
    </g>
</svg>