<svg xmlns="http://www.w3.org/2000/svg" width="512" height="512" viewBox="0 0 512 512">
    <path fill-rule="nonzero" d="M376.1 141.65c-38.1 0-48.9 31.4-47.8 43.3.7 9.7 1.3 13.9 1.6 18.5.3 4.7-3.1 5.4-1 15.3 4.1 18.8 5.7 11 7.6 22.7 4.9 29.9 12.6 24.1 12.6 39.8 0 11.2 2.6 15.9-12.4 22.9 4.5 1.6 9.8 3.5 16.1 5.9 45.4 17.3 44.2 33.9 45.4 41.9.8 5.4 1.3 48.5 1.4 64h81.5v-1.538c-.01-10.06-.117-66.264-1.3-73.362-1-6.1-9.1-14.3-44.4-27.7-34.5-13.1-32.4-7.8-32.4-32.1 0-15.6 7.7-9.9 12.7-39.8 1.9-11.8 3.5-4 7.6-22.7 2.2-9.8-1.5-10.6-1-15.3.5-4.7.8-8.9 1.6-18.5 1-12-9.7-43.3-47.8-43.3zm-132.9-45.6c-49.3 0-63 40.4-61.7 55.9 1 12.4 1.6 17.8 2.2 23.9.6 6.1-4.2 7-1.3 19.7 5.4 24.3 7.3 14.1 9.8 29.3 6.3 38.4 16.2 25.2 16.2 45.5 0 31.4 2.8 29-41.9 46-45.1 17.1-55.7 27.7-57 35.6-1.472 9.2-1.59 55.642-1.6 63.013v.987h270.7l-.1-.1c0-.265-.001-11.952-.1-25.3-.1-15.5-.6-33.4-1.4-38.6-1.3-7.9-11.9-18.5-57.2-35.7-6.3-2.3-11.5-4.2-16.1-5.9-27.8-9.8-25.8-13.1-25.8-40 0-20.3 10-7.1 16.3-45.5 2.4-15.2 4.5-5.1 9.8-29.3 2.8-12.7-1.9-13.6-1.3-19.7l.062-.629c.58-5.852 1.172-11.299 2.138-23.271 1.3-15.4-12.4-55.9-61.7-55.9zM73.4 166v42.5H30.9v35h42.5V286h35v-42.5h42.5v-35h-42.5V166h-35z"/>
</svg>
