<?xml version="1.0" encoding="UTF-8"?>
<svg id="Layer_1" xmlns="http://www.w3.org/2000/svg" version="1.1" viewBox="0 0 500 500">
  <!-- Generator: Adobe Illustrator 29.1.0, SVG Export Plug-In . SVG Version: 2.1.0 Build 142)  -->
  <path d="M370,135.7c-38.1,0-48.9,31.4-47.8,43.3.7,9.7,1.3,13.9,1.6,18.5.3,4.7-3.1,5.4-1,15.3,4.1,18.8,5.7,11,7.6,22.7,4.9,29.9,12.6,24.1,12.6,39.8s2.6,15.9-12.4,22.9c4.5,1.6,9.8,3.5,16.1,5.9,45.4,17.3,44.2,33.9,45.4,41.9.8,5.4,1.3,48.5,1.4,64h81.5v-1.5c0-10.1-.1-66.2-1.3-73.3-1-6.1-9.1-14.3-44.4-27.7-34.5-13.1-32.4-7.8-32.4-32.1s7.7-9.9,12.7-39.8c1.9-11.8,3.5-4,7.6-22.7,2.2-9.8-1.5-10.6-1-15.3s.8-8.9,1.6-18.5c1-12-9.7-43.3-47.8-43.3M237.2,90.1c-49.3,0-63,40.4-61.7,55.9,1,12.4,1.6,17.8,2.2,23.9s-4.2,7-1.3,19.7c5.4,24.3,7.3,14.1,9.8,29.3,6.3,38.4,16.2,25.2,16.2,45.5,0,31.4,2.8,29-41.9,46-45.1,17.1-55.7,27.7-57,35.6-1.5,9.2-1.6,55.6-1.6,63v1h270.6,0c0-.4,0-12,0-25.4,0-15.5-.6-33.4-1.4-38.6-1.3-7.9-11.9-18.5-57.2-35.7-6.3-2.3-11.5-4.2-16.1-5.9-27.8-9.8-25.8-13.1-25.8-40s10-7.1,16.3-45.5c2.4-15.2,4.5-5.1,9.8-29.3,2.8-12.7-1.9-13.6-1.3-19.7v-.6c.6-5.8,1.2-11.3,2.2-23.3,1.3-15.4-12.4-55.9-61.7-55.9M67.5,160v42.5H25v35h42.5v42.5h35v-42.5h42.5v-35h-42.5v-42.5h-35Z"/>
</svg>