<svg xmlns="http://www.w3.org/2000/svg" width="512" height="512" viewBox="0 0 512 512">
  <path d="M362.708,154.401c-33.852,0-43.447,27.899-42.47,38.472.622,8.618,1.155,12.35,1.422,16.437.267,4.176-2.754,4.798-.888,13.594,3.643,16.704,5.064,9.773,6.753,20.169,4.354,26.566,11.195,21.413,11.195,35.362,0,9.951,2.31,14.127-11.017,20.347,3.998,1.422,8.707,3.11,14.305,5.242,40.338,15.371,39.271,30.12,40.338,37.228.711,4.798,1.155,43.092,1.244,56.864h72.412v-1.366c-.009-8.938-.104-58.875-1.155-65.182-.888-5.42-8.085-12.705-39.449-24.611-30.653-11.639-28.787-6.93-28.787-28.521,0-13.861,6.841-8.796,11.284-35.362,1.688-10.484,3.11-3.554,6.753-20.169,1.955-8.707-1.333-9.418-.888-13.594s.711-7.908,1.422-16.437c.888-10.662-8.618-38.472-42.47-38.472M244.627,113.885c-43.803,0-55.975,35.895-54.82,49.667.888,11.017,1.422,15.815,1.955,21.235s-3.732,6.219-1.155,17.503c4.798,21.59,6.486,12.528,8.707,26.033,5.598,34.118,14.394,22.39,14.394,40.426,0,27.899,2.488,25.766-37.228,40.871-40.071,15.193-49.489,24.611-50.644,31.63-1.308,8.174-1.413,49.438-1.422,55.987v.877h240.515l-.089-.089c0-.235,0-10.619-.089-22.479-.089-13.772-.533-29.676-1.244-34.296-1.155-7.019-10.573-16.437-50.822-31.719-5.598-2.044-10.218-3.732-14.305-5.242-24.7-8.707-22.923-11.639-22.923-35.54,0-18.036,8.885-6.308,14.482-40.426,2.132-13.505,3.998-4.531,8.707-26.033,2.488-11.284-1.688-12.084-1.155-17.503l.055-.559c.515-5.199,1.041-10.039,1.9-20.676,1.155-13.683-11.017-49.667-54.82-49.667M93.761,176.036v37.761h-37.761v31.097h37.761v37.761h31.097v-37.761h37.761v-31.097h-37.761v-37.761h-31.097Z"/>
</svg>