<?xml version="1.0" encoding="UTF-8"?>
<svg width="512px" height="512px" viewBox="0 0 512 512" version="1.1" xmlns="http://www.w3.org/2000/svg" xmlns:xlink="http://www.w3.org/1999/xlink">
    <!-- Generator: Sketch 62 (91390) - https://sketch.com -->
    <title>notification</title>
    <desc>Created with Sketch.</desc>
    <g id="notification" stroke="none" stroke-width="1" fill="none" fill-rule="evenodd">
        <path d="M416,348.05 C416,354.65 413.5,360.55 408.7,365.35 C403.9,370.15 398.1,372.65 391.4,372.65 L305.3,372.65 C305.3,386.25 300.5,397.85 290.9,407.45 C281.3,417.05 269.7,421.85 256.1,421.85 C242.5,421.85 230.9,417.05 221.3,407.45 C211.7,397.85 206.9,386.25 206.9,372.65 L120.8,372.65 C114.2,372.65 108.3,370.15 103.5,365.35 C98.7,360.55 96,354.75 96,348.05 C102.4,342.65 108.3,337.05 113.5,331.05 C118.7,325.15 124.2,317.55 129.8,308.05 C135.5,298.55 140.2,288.45 144.1,277.55 C148,266.65 151.3,253.45 153.7,237.95 C156.2,222.45 157.4,205.75 157.4,187.95 C157.4,168.45 164.9,150.45 179.9,133.65 C194.9,116.85 214.5,106.75 238.9,103.15 C237.8,100.65 237.4,98.25 237.4,95.65 C237.4,90.55 239.2,86.15 242.8,82.55 C246.4,78.95 250.8,77.15 255.9,77.15 C261,77.15 265.4,78.95 269,82.55 C272.6,86.15 274.4,90.55 274.4,95.65 C274.4,98.25 273.9,100.65 272.9,103.15 C297.3,106.75 316.9,116.95 331.9,133.65 C346.9,150.35 354.4,168.45 354.4,187.95 C354.4,205.75 355.6,222.45 358.1,237.95 C360.6,253.45 363.8,266.65 367.7,277.55 C371.6,288.45 376.4,298.55 382,308.05 C387.7,317.55 393.1,325.15 398.3,331.05 C403.8,337.05 409.6,342.65 416,348.05 Z M259.1,403.45 C259.1,401.45 258,400.35 256,400.35 C248.4,400.35 242,397.65 236.5,392.25 C231,386.75 228.4,380.35 228.4,372.75 C228.4,370.75 227.3,369.65 225.3,369.65 C223.3,369.65 222.2,370.75 222.2,372.75 C222.2,382.15 225.5,390.05 232.1,396.65 C238.7,403.25 246.7,406.55 256,406.55 C258.1,406.55 259.1,405.45 259.1,403.45 L259.1,403.45 Z" id="Shape" fill="#000000" fill-rule="nonzero"></path>
    </g>
</svg>