<svg xmlns="http://www.w3.org/2000/svg" width="512" height="512" viewBox="0 0 512 512">
    <path d="M424.7 117.5c1 1.2 1.3 2.4 1.3 3.9-.1 1.6-.6 2.8-1.8 3.8L108.9 398.4c-1.2 1-2.4 1.3-3.9 1.2-1.6-.1-2.7-.7-3.6-1.8l-14.1-16.2c-1-1.2-1.3-2.4-1.3-3.9.1-1.6.6-2.7 1.8-3.6l31.3-27.1c-2.1-3.5-3.2-7.2-3.2-11.2 5.6-4.7 10.7-9.7 15.3-14.9s9.3-11.8 14.3-20.1 9.1-17.2 12.5-26.7c3.4-9.6 6.3-21.1 8.4-34.6 2.1-13.6 3.3-28.2 3.3-43.8 0-17.1 6.6-32.8 19.8-47.6 13.2-14.7 30.3-23.5 51.6-26.7-1-2.1-1.3-4.4-1.3-6.6 0-4.5 1.6-8.3 4.7-11.5 3.2-3.2 7-4.7 11.5-4.7s8.3 1.6 11.5 4.7c3.2 3.2 4.7 7 4.7 11.5 0 2.2-.4 4.5-1.3 6.6 13.9 2 26.2 6.7 36.9 13.9s18.9 16 24.9 26.6l70.4-61.3c1.2-1 2.4-1.3 3.9-1.2 1.6.1 2.7.7 3.6 1.8zM256 386.9c1.8 0 2.7-1 2.7-2.7 0-1.8-1-2.7-2.7-2.7-6.7 0-12.3-2.4-17.1-7.1-4.8-4.8-7.1-10.4-7.1-17.1 0-1.8-1-2.7-2.7-2.7-1.8 0-2.7 1-2.7 2.7 0 8.2 2.9 15.2 8.7 20.9 5.7 5.9 12.7 8.7 20.9 8.7m90-144.8c6.9 39.9 23.6 71.2 50.3 93.6 0 5.8-2.1 10.9-6.4 15.2s-9.2 6.4-15.2 6.4h-75.4c0 11.9-4.1 22.1-12.6 30.5-8.4 8.4-18.6 12.6-30.5 12.6s-22.1-4.1-30.4-12.5c-8.4-8.4-12.6-18.5-12.6-30.4z"/>
</svg>
