<svg xmlns="http://www.w3.org/2000/svg" width="512" height="512" viewBox="0 0 512 512"><path d="M439.2 364.4c0 7.5-2.8 14.1-8.3 19.6-5.5 5.5-12 8.3-19.6 8.3h-97.5c0 15.4-5.4 28.5-16.3 39.4-10.9 10.9-24 16.3-39.4 16.3-15.4 0-28.5-5.4-39.4-16.3s-16.3-24-16.3-39.4h-97.5c-7.5 0-14.1-2.8-19.6-8.3S77 372 77 364.4c7.3-6.1 13.9-12.5 19.8-19.2 5.9-6.7 12.1-15.3 18.5-26s11.8-22.2 16.2-34.5c4.4-12.3 8.1-27.3 10.9-44.8s4.2-36.4 4.2-56.6c0-22.1 8.5-42.5 25.5-61.5s39.2-30.4 66.8-34.5c-1.2-2.8-1.7-5.6-1.7-8.5 0-5.8 2-10.7 6.1-14.8 4.1-4.1 9-6.1 14.8-6.1 5.8 0 10.7 2 14.8 6.1s6.1 9 6.1 14.8c0 2.9-.6 5.7-1.7 8.5 27.6 4.1 49.8 15.6 66.8 34.5s25.5 39.4 25.5 61.5c0 20.2 1.4 39 4.2 56.6s6.5 32.5 10.9 44.8c4.4 12.3 9.8 23.8 16.2 34.5 6.4 10.7 12.6 19.3 18.5 26 6 6.8 12.6 13.1 19.8 19.2zm-177.6 62.7c0-2.3-1.2-3.5-3.5-3.5-8.6 0-15.9-3.1-22.1-9.2-6.2-6.2-9.2-13.5-9.2-22.1 0-2.3-1.2-3.5-3.5-3.5s-3.5 1.2-3.5 3.5c0 10.6 3.7 19.6 11.2 27.1 7.5 7.5 16.5 11.2 27.1 11.2 2.4 0 3.5-1.2 3.5-3.5z"/></svg>