<?xml version="1.0" encoding="UTF-8"?>
<svg id="Layer_1" xmlns="http://www.w3.org/2000/svg" version="1.1" viewBox="0 0 500 500">
  <!-- Generator: Adobe Illustrator 29.1.0, SVG Export Plug-In . SVG Version: 2.1.0 Build 142)  -->
  <path d="M458.9,378.7c0,8.6-3.3,16.3-9.5,22.6-6.3,6.3-13.8,9.5-22.6,9.5h-112.4c0,17.8-6.3,32.9-18.8,45.4-12.5,12.5-27.7,18.8-45.4,18.8s-32.9-6.3-45.4-18.8c-12.5-12.5-18.8-27.7-18.8-45.4h-112.4c-8.6,0-16.3-3.3-22.6-9.5-6.3-6.3-9.8-13.8-9.8-22.6,8.4-7,16.1-14.4,22.8-22.2,6.8-7.7,14-17.6,21.3-30,7.4-12.4,13.6-25.6,18.7-39.8s9.4-31.5,12.5-51.7c3.3-20.2,4.8-42,4.8-65.3s9.8-49,29.4-70.9c19.6-21.9,45.2-35.1,77-39.8-1.4-3.3-2-6.4-2-9.8,0-6.7,2.3-12.4,7-17.1s10.4-7,17.1-7,12.4,2.3,17.1,7,7,10.4,7,17.1-.7,6.5-2,9.8c31.9,4.7,57.4,18,77,39.8s29.4,45.4,29.4,70.9,1.6,45,4.8,65.3c3.3,20.2,7.4,37.5,12.5,51.7s11.4,27.4,18.7,39.8c7.4,12.4,14.5,22.3,21.3,30,7.2,7.8,14.8,15.1,23.1,22.2M254,451c0-2.6-1.4-4-4-4-9.9,0-18.3-3.5-25.5-10.6-7.2-7.2-10.6-15.5-10.6-25.5s-1.4-4-4-4-4,1.4-4,4c0,12.3,4.3,22.6,12.9,31.2s19.1,12.9,31.2,12.9,4-1.4,4-4"/>
</svg>