<svg xmlns="http://www.w3.org/2000/svg" width="512" height="512" viewBox="0 0 512 512">
    <path fill-rule="nonzero" d="M416 348.05c0 6.6-2.5 12.5-7.3 17.3-4.8 4.8-10.6 7.3-17.3 7.3h-86.1c0 13.6-4.8 25.2-14.4 34.8-9.6 9.6-21.2 14.4-34.8 14.4-13.6 0-25.2-4.8-34.8-14.4-9.6-9.6-14.4-21.2-14.4-34.8h-86.1c-6.6 0-12.5-2.5-17.3-7.3-4.8-4.8-7.5-10.6-7.5-17.3 6.4-5.4 12.3-11 17.5-17 5.2-5.9 10.7-13.5 16.3-23 5.7-9.5 10.4-19.6 14.3-30.5 3.9-10.9 7.2-24.1 9.6-39.6 2.5-15.5 3.7-32.2 3.7-50 0-19.5 7.5-37.5 22.5-54.3 15-16.8 34.6-26.9 59-30.5-1.1-2.5-1.5-4.9-1.5-7.5 0-5.1 1.8-9.5 5.4-13.1 3.6-3.6 8-5.4 13.1-5.4s9.5 1.8 13.1 5.4c3.6 3.6 5.4 8 5.4 13.1 0 2.6-.5 5-1.5 7.5 24.4 3.6 44 13.8 59 30.5s22.5 34.8 22.5 54.3c0 17.8 1.2 34.5 3.7 50s5.7 28.7 9.6 39.6c3.9 10.9 8.7 21 14.3 30.5 5.7 9.5 11.1 17.1 16.3 23 5.5 6 11.3 11.6 17.7 17zm-156.9 55.4c0-2-1.1-3.1-3.1-3.1-7.6 0-14-2.7-19.5-8.1-5.5-5.5-8.1-11.9-8.1-19.5 0-2-1.1-3.1-3.1-3.1s-3.1 1.1-3.1 3.1c0 9.4 3.3 17.3 9.9 23.9 6.6 6.6 14.6 9.9 23.9 9.9 2.1 0 3.1-1.1 3.1-3.1z"/>
</svg>
