<?xml version="1.0" encoding="UTF-8"?>
<svg id="Layer_1" xmlns="http://www.w3.org/2000/svg" version="1.1" viewBox="0 0 500 500">
  <!-- Generator: Adobe Illustrator 29.1.0, SVG Export Plug-In . SVG Version: 2.1.0 Build 142)  -->
  <path d="M473.3,75.3c1.3,1.6,1.7,3.2,1.7,5.2-.1,2.1-.8,3.7-2.4,5L55.3,447.1c-1.6,1.3-3.2,1.7-5.2,1.6-2.1-.1-3.6-.9-4.8-2.4l-18.7-21.4c-1.3-1.6-1.7-3.2-1.7-5.2.1-2.1.8-3.6,2.4-4.8l41.4-35.9c-2.8-4.6-4.2-9.5-4.2-14.8,7.4-6.2,14.2-12.8,20.3-19.7,6.1-6.9,12.3-15.6,18.9-26.6,6.6-11,12-22.8,16.5-35.3,4.5-12.7,8.3-27.9,11.1-45.8,2.8-18,4.4-37.3,4.4-58s8.7-43.4,26.2-63c17.5-19.5,40.1-31.1,68.3-35.3-1.3-2.8-1.7-5.8-1.7-8.7,0-6,2.1-11,6.2-15.2,4.2-4.2,9.3-6.2,15.2-6.2s11,2.1,15.2,6.2c4.2,4.2,6.2,9.3,6.2,15.2s-.5,6-1.7,8.7c18.4,2.6,34.7,8.9,48.8,18.4,14.2,9.5,25,21.2,33,35.2l93.2-81.1c1.6-1.3,3.2-1.7,5.2-1.6,2.1.1,3.6.9,4.8,2.4l18.7,21.6ZM250,431.9c2.4,0,3.6-1.3,3.6-3.6s-1.3-3.6-3.6-3.6c-8.9,0-16.3-3.2-22.6-9.4-6.4-6.4-9.4-13.8-9.4-22.6s-1.3-3.6-3.6-3.6-3.6,1.3-3.6,3.6c0,10.9,3.8,20.1,11.5,27.7,7.5,7.8,16.8,11.5,27.7,11.5M369.1,240.2c9.1,52.8,31.2,94.2,66.6,123.9,0,7.7-2.8,14.4-8.5,20.1-5.7,5.7-12.2,8.5-20.1,8.5h-99.8c0,15.7-5.4,29.3-16.7,40.4-11.1,11.1-24.6,16.7-40.4,16.7s-29.3-5.4-40.2-16.5c-11.1-11.1-16.7-24.5-16.7-40.2l175.8-152.7Z"/>
</svg>