<svg xmlns="http://www.w3.org/2000/svg" width="512" height="512" viewBox="0 0 512 512">
  <path d="M454.471,100.706c1.176,1.412,1.529,2.824,1.529,4.588-.118,1.882-.706,3.294-2.118,4.471L82.941,431.176c-1.412,1.176-2.824,1.529-4.588,1.412-1.882-.118-3.176-.824-4.235-2.118l-16.588-19.059c-1.176-1.412-1.529-2.824-1.529-4.588.118-1.882.706-3.176,2.118-4.235l36.824-31.882c-2.471-4.118-3.765-8.471-3.765-13.176,6.588-5.529,12.588-11.412,18-17.529s10.941-13.882,16.824-23.647c5.882-9.765,10.706-20.235,14.706-31.412,4-11.294,7.412-24.824,9.882-40.706,2.471-16,3.882-33.176,3.882-51.529,0-20.118,7.765-38.588,23.294-56,15.529-17.294,35.647-27.647,60.706-31.412-1.176-2.471-1.529-5.176-1.529-7.765,0-5.294,1.882-9.765,5.529-13.529,3.765-3.765,8.235-5.529,13.529-5.529s9.765,1.882,13.529,5.529c3.765,3.765,5.529,8.235,5.529,13.529,0,2.588-.471,5.294-1.529,7.765,16.353,2.353,30.824,7.882,43.412,16.353,12.588,8.471,22.235,18.824,29.294,31.294l82.824-72.118c1.412-1.176,2.824-1.529,4.588-1.412,1.882.118,3.176.824,4.235,2.118l16.588,19.176ZM256,417.647c2.118,0,3.176-1.176,3.176-3.176,0-2.118-1.176-3.176-3.176-3.176-7.882,0-14.471-2.824-20.118-8.353-5.647-5.647-8.353-12.235-8.353-20.118,0-2.118-1.176-3.176-3.176-3.176-2.118,0-3.176,1.176-3.176,3.176,0,9.647,3.412,17.882,10.235,24.588,6.706,6.941,14.941,10.235,24.588,10.235M361.882,247.294c8.118,46.941,27.765,83.765,59.176,110.118,0,6.824-2.471,12.824-7.529,17.882s-10.824,7.529-17.882,7.529h-88.706c0,14-4.824,26-14.824,35.882-9.882,9.882-21.882,14.824-35.882,14.824s-26-4.824-35.765-14.706c-9.882-9.882-14.824-21.765-14.824-35.765l156.235-135.765Z"/>
</svg>