<?xml version="1.0" encoding="UTF-8"?>
<svg id="Layer_1" xmlns="http://www.w3.org/2000/svg" version="1.1" viewBox="0 0 500 500">
  <!-- Generator: Adobe Illustrator 29.1.0, SVG Export Plug-In . SVG Version: 2.1.0 Build 142)  -->
  <path d="M250,217.4c26.6,0,48.2,21.6,48.2,48.2s-21.6,48.2-48.2,48.2-48.2-21.6-48.2-48.2,21.6-48.2,48.2-48.2ZM475,266h-160.7c0,24-13.2,44.9-32.8,56l78.6,137c67.8-38.8,114.9-109.3,114.9-192.9M250,201.8c11.8,0,22.8,3.2,32.2,8.7l81-138.9c-33.2-19.4-71.9-30.5-113.2-30.5s-80.3,11.2-113.6,30.8l80.2,139.4c9.7-6,21.2-9.4,33.5-9.4M185.7,266H25c0,83.7,47.1,154.1,114.9,192.8l78.6-137c-19.7-11-32.8-31.8-32.8-55.8"/>
</svg>