<svg xmlns="http://www.w3.org/2000/svg" width="512" height="512" viewBox="0 0 512 512">
  <path d="M256,227.189c23.679,0,42.875,19.196,42.875,42.875s-19.196,42.875-42.875,42.875-42.875-19.196-42.875-42.875,19.196-42.875,42.875-42.875ZM456,270.25h-142.875c0,21.375-11.75,39.875-29.125,49.75l69.875,121.75c60.25-34.5,102.125-97.125,102.125-171.5M256,213.125c10.5,0,20.25,2.875,28.625,7.75l72-123.5c-29.5-17.25-63.875-27.125-100.625-27.125s-71.375,10-101,27.375l71.25,123.875c8.625-5.375,18.875-8.375,29.75-8.375M198.875,270.25H56c0,74.375,41.875,137,102.125,171.375l69.875-121.75c-17.5-9.75-29.125-28.25-29.125-49.625"/>
</svg>