<svg xmlns="http://www.w3.org/2000/svg" width="512" height="512" viewBox="0 0 512 512">
    <g fill-rule="nonzero">
        <circle cx="256" cy="200" r="34.3"/>
        <circle cx="256" cy="200" r="34.3"/>
        <path d="M416 260.9H301.7c0 17.1-9.4 31.9-23.3 39.8l55.9 97.4c48.2-27.6 81.7-77.7 81.7-137.2zm-160-45.7c8.4 0 16.2 2.3 22.9 6.2l57.6-98.8c-23.6-13.8-51.1-21.7-80.5-21.7s-57.1 8-80.8 21.9l57 99.1c6.9-4.3 15.1-6.7 23.8-6.7zm-45.7 45.7H96c0 59.5 33.5 109.6 81.7 137.1l55.9-97.4c-14-7.8-23.3-22.6-23.3-39.7z"/>
    </g>
</svg>
