<svg id="content" xmlns="http://www.w3.org/2000/svg" version="1.1" width="512" height="512" viewBox="0 0 512 512">
  <defs>
    <style>
      .st0 {fill: %23161a1d;}
    </style>
  </defs>
  <path class="st0" d="M209.417,200.3v-37.667c0-3.167,1.2-5.55,3.967-7.133l75.717-43.6c10.317-5.95,22.6-8.717,35.283-8.717,47.567,0,77.7,36.867,77.7,76.1,0,2.783,0,5.95-.4,9.117l-78.5-45.983c-2.132-1.357-4.607-2.078-7.133-2.078s-5.002.721-7.133,2.078l-99.5,57.883ZM386.233,346.967v-89.967c0-5.55-2.383-9.5-7.15-12.283l-99.5-57.883,32.5-18.633c1.178-.775,2.557-1.188,3.967-1.188s2.788.413,3.967,1.188l75.717,43.617c21.817,12.667,36.483,39.633,36.483,65.8,0,30.133-17.833,57.883-46,69.383l.017-.033ZM186.033,267.717l-32.5-19.033c-2.783-1.583-3.983-3.967-3.983-7.133v-87.233c0-42.417,32.5-74.533,76.517-74.533,16.667,0,32.117,5.55,45.2,15.467l-78.1,45.2c-4.75,2.767-7.133,6.733-7.133,12.283v114.983ZM256,308.133l-46.583-26.167v-55.5l46.583-26.167,46.583,26.167v55.5l-46.583,26.167ZM285.933,428.633c-16.667,0-32.117-5.533-45.2-15.45l78.1-45.2c4.75-2.767,7.133-6.733,7.133-12.283v-114.967l32.9,19.033c2.783,1.583,3.967,3.967,3.967,7.133v87.217c0,42.417-32.9,74.517-76.9,74.517ZM191.983,340.25l-75.733-43.617c-21.8-12.683-36.467-39.633-36.467-65.8-.051-14.868,4.335-29.413,12.598-41.773,8.263-12.36,20.027-21.974,33.785-27.61v90.383c0,5.55,2.383,9.517,7.133,12.3l99.117,57.483-32.5,18.633c-1.177.777-2.556,1.192-3.967,1.192s-2.79-.415-3.967-1.192ZM187.617,405.25c-44.8,0-77.7-33.683-77.7-75.317,0-3.167.4-6.333.783-9.5l78.1,45.167c4.767,2.783,9.517,2.783,14.267,0l99.5-57.467v37.667c0,3.167-1.167,5.55-3.95,7.133l-75.717,43.6c-10.317,5.95-22.6,8.717-35.283,8.717ZM285.933,452.417c22.843.002,44.985-7.887,62.682-22.33,17.697-14.443,29.86-34.557,34.435-56.937,44.4-11.5,72.95-53.15,72.95-95.55,0-27.75-11.883-54.7-33.3-74.133,1.983-8.333,3.167-16.65,3.167-24.967,0-56.683-45.983-99.117-99.1-99.117-10.7,0-21,1.583-31.333,5.167-18.5-18.21-43.392-28.457-69.35-28.55-22.845-.001-44.989,7.889-62.686,22.337-17.697,14.447-29.86,34.564-34.431,56.947-44.417,11.5-72.967,53.133-72.967,95.55,0,27.767,11.883,54.717,33.3,74.133-1.983,8.333-3.167,16.667-3.167,24.983,0,56.683,45.983,99.1,99.1,99.1,10.7,0,21-1.583,31.333-5.15,18.502,18.217,43.402,28.465,69.367,28.55v-.033Z"/>
</svg>