<?xml version="1.0" encoding="UTF-8"?>
<svg id="Layer_1" xmlns="http://www.w3.org/2000/svg" version="1.1" viewBox="0 0 500 500">
  <!-- Generator: Adobe Illustrator 29.1.0, SVG Export Plug-In . SVG Version: 2.1.0 Build 142)  -->
  <path d="M306.2,74.8c0-30.9-25.3-56.2-56.2-56.2s-56.2,25.3-56.2,56.2,25.3,56.2,56.2,56.2,56.2-25.3,56.2-56.2M306.2,412.2c0-30.9-25.3-56.2-56.2-56.2s-56.2,25.3-56.2,56.2,25.3,56.2,56.2,56.2,56.2-25.3,56.2-56.2M306.2,243.5c0-30.9-25.3-56.2-56.2-56.2s-56.2,25.3-56.2,56.2,25.3,56.2,56.2,56.2,56.2-25.3,56.2-56.2"/>
</svg>