<svg xmlns="http://www.w3.org/2000/svg" width="512" height="512" viewBox="0 0 512 512">
  <path d="M305.753,85.27v78.208l27.349,17.224c.698.233,2.211.233,2.91,0l117.661-79.372c0-9.427-8.729-16.061-13.733-16.061h-134.187ZM305.753,232.608l25.022,17.224c3.491,2.56,7.798,0,7.798,0-4.19,2.56,115.333-76.811,115.333-76.811v143.73c0,15.711-10.009,22.229-21.298,22.229h-126.971l.116-106.372ZM176.57,196.53c-8.496,0-15.362,3.957-20.25,11.987s-7.565,18.505-7.565,31.656c0,13.384,2.444,23.858,7.565,31.656,4.888,7.798,11.638,11.638,19.668,11.638,8.379,0,15.013-3.841,19.901-11.289,4.888-7.565,7.448-18.039,7.448-31.423,0-13.966-2.328-24.789-7.216-32.587-4.888-7.681-11.405-11.638-19.552-11.638M58.095,101.156v305.965l232.878,48.88V56L58.095,101.156ZM213.928,305.869c-9.892,13.035-22.578,19.436-38.406,19.436-15.479,0-27.931-6.285-37.707-18.737-9.66-12.569-14.548-28.979-14.548-49.113,0-21.298,4.888-38.406,14.78-51.673,9.892-13.151,23.043-19.785,39.22-19.785,15.362,0,27.815,6.285,37.358,18.97,9.543,12.569,14.198,29.212,14.198,49.811-.116,21.065-5.004,38.173-14.897,51.091"/>
</svg>