<svg xmlns="http://www.w3.org/2000/svg" width="512" height="512" viewBox="0 0 512 512">
    <script/>
    <path d="M64.567 22.116v20.405l7.13 4.49c.188.054.596.058.784 0l30.688-20.69c0-2.45-2.284-4.205-3.573-4.205h-35.03z"/>
    <path d="M64.567 50.133l6.507 4.47c.917.674 2.022 0 2.022 0-1.101.674 30.077-20.036 30.077-20.036V72.07c0 4.083-2.613 5.795-5.551 5.795h-33.06v-27.73zm-33.694-9.406c-2.217 0-3.984 1.042-5.289 3.122-1.305 2.08-1.959 4.835-1.959 8.263 0 3.48.654 6.23 1.96 8.251 1.304 2.026 3.016 3.033 5.131 3.033 2.183 0 3.914-.984 5.192-2.95 1.277-1.967 1.92-4.698 1.92-8.189 0-3.64-.62-6.472-1.862-8.498-1.242-2.021-2.938-3.032-5.093-3.032z"/>
    <path d="M0 11.754v79.827l60.727 12.733V0L0 11.754zm40.637 53.408c-2.567 3.378-5.913 5.07-10.042 5.07-4.024 0-7.299-1.637-9.834-4.909-2.53-3.275-3.8-7.538-3.8-12.796 0-5.551 1.285-10.041 3.859-13.47s5.983-5.143 10.226-5.143c4.008 0 7.252 1.637 9.724 4.92 2.476 3.284 3.714 7.609 3.714 12.98.004 5.52-1.281 9.971-3.847 13.348z"/>
</svg>
