<svg xmlns="http://www.w3.org/2000/svg" width="512" height="512" viewBox="0 0 512 512">
  <path d="M357.375,56.062h-202.875c-54.25,0-98.5,45.125-98.5,100.5v198.875c0,55.375,44.25,100.5,98.5,100.5h202.875c54.375,0,98.625-45.125,98.625-100.5v-198.875c0-55.375-44.25-100.5-98.625-100.5M183.625,251.563v.625c0,9.75-8.125,18.25-17.75,18.25h-20.75c-9.625,0-17.75-8.5-17.75-18.25v-92.375c.875-9.625,8.25-18,17.75-18h20.75c9.75,0,17.75,8.75,17.75,18.625v91.125ZM292.625,380.812v2.375c0,10.25-7.875,15.75-18,15.75h-37.375c-10,0-18-7.25-18-17.5v-26.125c0-20.875,16.125-37.75,36.625-37.75,20.375,0,36.625,16.875,36.625,37.75v25.5h.125ZM384.625,251.563v.625c0,9.75-8.125,18.25-17.75,18.25h-21.625c-9.625,0-17.75-8.5-17.75-18.25v-92.375c.875-9.625,8.25-18,17.75-18h21.625c9.625,0,17.75,8.75,17.75,18.625v91.125Z"/>
</svg>