<svg xmlns="http://www.w3.org/2000/svg" width="512" height="512" viewBox="0 0 512 512">
    <path d="M298.8 102.8V170l23.5 14.8c.6.2 1.9.2 2.5 0l101.1-68.2c0-8.1-7.5-13.8-11.8-13.8zm0 126.6 21.5 14.8c3 2.2 6.7 0 6.7 0-3.6 2.2 99.1-66 99.1-66v123.5c0 13.5-8.6 19.1-18.3 19.1H298.7zm-111-31c-7.3 0-13.2 3.4-17.4 10.3s-6.5 15.9-6.5 27.2c0 11.5 2.1 20.5 6.5 27.2 4.2 6.7 10 10 16.9 10 7.2 0 12.9-3.3 17.1-9.7 4.2-6.5 6.4-15.5 6.4-27 0-12-2-21.3-6.2-28-4.2-6.6-9.8-10-16.8-10"/>
    <path d="M86 116.45v262.9l200.1 42V77.65zm133.9 175.9c-8.5 11.2-19.4 16.7-33 16.7-13.3 0-24-5.4-32.4-16.1-8.3-10.8-12.5-24.9-12.5-42.2 0-18.3 4.2-33 12.7-44.4 8.5-11.3 19.8-17 33.7-17 13.2 0 23.9 5.4 32.1 16.3 8.2 10.8 12.2 25.1 12.2 42.8-.1 18.1-4.3 32.8-12.8 43.9"/>
</svg>
