<svg xmlns="http://www.w3.org/2000/svg" width="512" height="512" viewBox="0 0 512 512">
    <path d="M337.1 89.55H174.8c-43.4 0-78.8 36.1-78.8 80.4v159.1c0 44.3 35.4 80.4 78.8 80.4h162.3c43.5 0 78.9-36.1 78.9-80.4v-159.1c0-44.3-35.4-80.4-78.9-80.4m-139 156.4v.5c0 7.8-6.5 14.6-14.2 14.6h-16.6c-7.7 0-14.2-6.8-14.2-14.6v-73.9c.7-7.7 6.6-14.4 14.2-14.4h16.6c7.8 0 14.2 7 14.2 14.9zm87.2 103.4v1.9c0 8.2-6.3 12.6-14.4 12.6H241c-8 0-14.4-5.8-14.4-14v-20.9c0-16.7 12.9-30.2 29.3-30.2 16.3 0 29.3 13.5 29.3 30.2v20.4zm73.6-103.4v.5c0 7.8-6.5 14.6-14.2 14.6h-17.3c-7.7 0-14.2-6.8-14.2-14.6v-73.9c.7-7.7 6.6-14.4 14.2-14.4h17.3c7.7 0 14.2 7 14.2 14.9z"/>
</svg>
