<?xml version="1.0" encoding="UTF-8"?>
<svg id="Layer_1" xmlns="http://www.w3.org/2000/svg" version="1.1" viewBox="0 0 500 500">
  <!-- Generator: Adobe Illustrator 29.1.0, SVG Export Plug-In . SVG Version: 2.1.0 Build 142)  -->
  <path d="M364,25.1h-228.2c-61,0-110.8,50.8-110.8,113.1v223.7c0,62.3,49.8,113.1,110.8,113.1h228.2c61.2,0,111-50.8,111-113.1v-223.7c0-62.3-49.8-113.1-111-113.1M168.6,245v.7c0,11-9.1,20.5-20,20.5h-23.3c-10.8,0-20-9.6-20-20.5v-103.9c1-10.8,9.3-20.2,20-20.2h23.3c11,0,20,9.8,20,21v102.5ZM291.2,390.4v2.7c0,11.5-8.9,17.7-20.2,17.7h-42c-11.2,0-20.2-8.2-20.2-19.7v-29.4c0-23.5,18.1-42.5,41.2-42.5s41.2,19,41.2,42.5v28.7h.1ZM394.7,245v.7c0,11-9.1,20.5-20,20.5h-24.3c-10.8,0-20-9.6-20-20.5v-103.9c1-10.8,9.3-20.2,20-20.2h24.3c10.8,0,20,9.8,20,21v102.5Z"/>
</svg>