<?xml version="1.0" encoding="UTF-8"?>
<svg width="512px" height="512px" viewBox="0 0 512 512" version="1.1" xmlns="http://www.w3.org/2000/svg" xmlns:xlink="http://www.w3.org/1999/xlink">
    <!-- Generator: Sketch 62 (91390) - https://sketch.com -->
    <title>outlet</title>
    <desc>Created with Sketch.</desc>
    <g id="outlet" stroke="none" stroke-width="1" fill="none" fill-rule="evenodd">
        <path d="M337.1,89.55 L174.8,89.55 C131.4,89.55 96,125.65 96,169.95 L96,329.05 C96,373.35 131.4,409.45 174.8,409.45 L337.1,409.45 C380.6,409.45 416,373.35 416,329.05 L416,169.95 C416,125.65 380.6,89.55 337.1,89.55 Z M198.1,245.95 L198.1,246.45 C198.1,254.25 191.6,261.05 183.9,261.05 L167.3,261.05 C159.6,261.05 153.1,254.25 153.1,246.45 L153.1,172.55 C153.8,164.85 159.7,158.15 167.3,158.15 L183.9,158.15 C191.7,158.15 198.1,165.15 198.1,173.05 L198.1,245.95 Z M285.3,349.35 L285.3,351.25 C285.3,359.45 279,363.85 270.9,363.85 L241,363.85 C233,363.85 226.6,358.05 226.6,349.85 L226.6,328.95 C226.6,312.25 239.5,298.75 255.9,298.75 C272.2,298.75 285.2,312.25 285.2,328.95 L285.2,349.35 L285.3,349.35 Z M358.9,245.95 L358.9,246.45 C358.9,254.25 352.4,261.05 344.7,261.05 L327.4,261.05 C319.7,261.05 313.2,254.25 313.2,246.45 L313.2,172.55 C313.9,164.85 319.8,158.15 327.4,158.15 L344.7,158.15 C352.4,158.15 358.9,165.15 358.9,173.05 L358.9,245.95 Z" id="Shape" fill="#000000" fill-rule="nonzero"></path>
    </g>
</svg>