<?xml version="1.0" encoding="UTF-8"?>
<svg id="Layer_1" xmlns="http://www.w3.org/2000/svg" version="1.1" viewBox="0 0 500 500">
  <!-- Generator: Adobe Illustrator 29.1.0, SVG Export Plug-In . SVG Version: 2.1.0 Build 142)  -->
  <path d="M306.6,55.9v88.9l31.1,19.6c.8.3,2.5.3,3.3,0l133.8-90.2c0-10.7-9.9-18.3-15.6-18.3h-152.6ZM306.6,223.4l28.4,19.6c4,2.9,8.9,0,8.9,0-4.8,2.9,131.1-87.3,131.1-87.3v163.4c0,17.9-11.4,25.3-24.2,25.3h-144.4v-120.9ZM159.7,182.4c-9.7,0-17.5,4.5-23,13.6-5.6,9.1-8.6,21-8.6,36s2.8,27.1,8.6,36c5.6,8.9,13.2,13.2,22.4,13.2s17.1-4.4,22.6-12.8c5.6-8.6,8.5-20.5,8.5-35.7s-2.6-28.2-8.2-37c-5.6-8.7-13-13.2-22.2-13.2M25,74v347.9l264.8,55.6V22.6L25,74ZM202.2,306.7c-11.2,14.8-25.7,22.1-43.7,22.1s-31.8-7.1-42.9-21.3c-11-14.3-16.5-32.9-16.5-55.8s5.6-43.7,16.8-58.7c11.2-15,26.2-22.5,44.6-22.5s31.6,7.1,42.5,21.6c10.8,14.3,16.1,33.2,16.1,56.6-.1,23.9-5.7,43.4-16.9,58.1"/>
</svg>