<?xml version="1.0" encoding="UTF-8"?>
<svg id="Layer_1" xmlns="http://www.w3.org/2000/svg" version="1.1" viewBox="0 0 512 512">
  <!-- Generator: Adobe Illustrator 30.1.0, SVG Export Plug-In . SVG Version: 2.1.1 Build 136)  -->
  <path id="attachment--paperclip" d="M393,210.9l-128.1,183c-11.8,16.9-29.9,28.4-50.1,31.9-20.3,3.6-41.2-1.1-58-12.9-16.9-11.8-28.4-29.8-31.9-50.1-3.6-20.3,1.1-41.2,12.9-58l139.3-198.9c7.4-10.5,18.7-17.7,31.3-20,12.7-2.2,25.7.7,36.3,8,10.5,7.4,17.7,18.7,20,31.3,2.2,12.7-.7,25.7-8,36.3l-116.9,167.1c-3,4.2-7.5,7.1-12.5,8-5.1.9-10.3-.3-14.5-3.2-4.2-3-7.1-7.5-8-12.5-.9-5.1.3-10.3,3.2-14.5l105.8-151.2-23.9-16.7-105.8,151.2c-7.4,10.5-10.3,23.6-8,36.3,2.2,12.7,9.4,24,20,31.3,10.5,7.4,23.6,10.3,36.3,8,12.7-2.2,24-9.4,31.3-20l116.9-167.1c11.8-16.9,16.4-37.8,12.9-58-3.6-20.3-15.1-38.3-31.9-50.1-16.9-11.8-37.8-16.4-58-12.9-20.3,3.6-38.3,15.1-50.1,31.9l-139.3,198.9c-16.2,23.2-22.6,51.9-17.7,79.8,4.9,27.9,20.7,52.7,43.9,68.9,23.2,16.2,51.9,22.6,79.8,17.7,27.9-4.9,52.7-20.7,68.9-43.9l128.1-183-23.9-16.7h-.3,0Z"/>
</svg>