<svg xmlns="http://www.w3.org/2000/svg" width="512" height="512" viewBox="0 0 512 512">
    <path d="M324.1 99.9c-6.2-.1-11.3 5-11.3 11.5l-.2 192.6c-.1 43.3-29.4 62.7-56.6 62.5-27.2-.3-56.5-20.2-56.4-63.4 0-33.1.2-165.9.3-232.3 0-15.2 5.9-27.1 16.6-33.3 10.5-6.1 24.1-6 34.6.3 10.7 6.4 16.5 18.4 16.5 33.6l-.3 222.1c0 7.2-1.7 13.1-4.6 16.9-1.9 2.4-4.4 3.8-6.8 3.8-5.5-.1-11.3-7.2-11.2-20.6 0 0 .2-164.5.3-170.8 0-6.4-5-11.7-11.3-11.7s-11.3 5.1-11.3 11.6l-.3 170.8c0 28.7 17 43.8 33.8 44 9.3.1 18.1-4.4 24.3-12.3 6.2-7.9 9.6-18.8 9.6-31.4l.3-222.1c0-23.5-10.1-43.1-27.8-53.7C245 7.5 222.5 7.3 205 17.5c-17.7 10.4-27.9 29.8-28 53.3-.1 66.3-.2 199-.3 232.3-.1 56.6 39.6 86.5 78.9 86.9 20.3.2 40.6-7.6 55.7-22.8 14-14.3 23.4-35.3 23.4-62.7l.1-192.8c.6-6.6-4.5-11.8-10.7-11.8z"/>
</svg>
