<svg xmlns="http://www.w3.org/2000/svg" width="500" height="500" viewBox="0 0 500 500">
    <path d="M424.99 224.52 236.36 413.15c-17.4 17.4-41 27.18-65.61 27.18s-48.21-9.78-65.61-27.18a92.8 92.8 0 0 1-27.18-65.61 92.8 92.8 0 0 1 27.18-65.61L310.17 76.9a57.98 57.98 0 0 1 41.01-16.99 57.994 57.994 0 0 1 57.99 58c0 15.38-6.11 30.13-16.98 41.01L219.97 331.14a23.2 23.2 0 0 1-16.4 6.8 23.2 23.2 0 0 1-16.4-39.6l155.82-155.82-24.6-24.6-155.82 155.82c-10.88 10.88-16.99 25.63-16.99 41.01s6.11 30.13 16.99 41.01 25.63 16.99 41.01 16.99 30.13-6.11 41.01-16.99l172.22-172.22a92.78 92.78 0 0 0 27.17-65.61 92.78 92.78 0 0 0-158.39-65.61L80.56 257.35c-23.93 23.93-37.37 56.38-37.37 90.21s13.44 66.29 37.37 90.21c23.93 23.93 56.38 37.37 90.21 37.37s66.29-13.44 90.21-37.37l188.63-188.63-24.6-24.6Z"/>
</svg>
