<svg xmlns="http://www.w3.org/2000/svg" width="512" height="512" viewBox="0 0 512 512">
  <path d="M414.747,233.227l-167.671,167.671c-15.467,15.467-36.445,24.16-58.32,24.16s-42.853-8.693-58.32-24.16c-15.467-15.468-24.158-36.446-24.16-58.32.002-21.874,8.693-42.852,24.16-58.32l182.249-182.249c9.667-9.67,22.78-15.103,36.453-15.102,28.47.002,51.549,23.083,51.547,51.554v.002c0,13.671-5.431,26.782-15.093,36.453l-153.085,153.085c-3.866,3.868-9.109,6.042-14.578,6.044-11.389-.005-20.618-9.242-20.614-20.631.002-5.464,2.173-10.704,6.036-14.569l138.507-138.507-21.867-21.867-138.507,138.507c-9.671,9.671-15.102,22.782-15.102,36.453s5.431,26.782,15.102,36.453,22.782,15.102,36.453,15.102,26.782-5.431,36.453-15.102l153.085-153.085c15.466-15.468,24.153-36.447,24.151-58.32.005-45.548-36.915-82.475-82.463-82.479-21.878-.002-42.86,8.688-58.328,24.159l-182.249,182.249c-21.271,21.271-33.218,50.116-33.218,80.187s11.947,58.925,33.218,80.187c21.271,21.271,50.116,33.218,80.187,33.218s58.925-11.947,80.187-33.218l167.671-167.671-21.867-21.867-.018-.018h0Z"/>
</svg>