<svg xmlns="http://www.w3.org/2000/svg" width="512" height="512" viewBox="0 0 512 512">
  <path d="M455.991,375.882l-80.114,80.114-98.016-98.016,33.368-33.368,18.853,18.853,46.559-46.746,26.764,26.764-27.519,26.764,19.982,18.853,26.764-26.391,33.368,33.181-.009-.009h0ZM154.398,233.947l-98.398-97.829,80.114-80.114,33.173,33.368-46.559,46.746,20.168,19.982,46.372-46.746,26.764,26.764-26.764,26.577,18.853,18.853-53.723,52.399h0ZM294.821,199.45l17.715,17.528-171.152,170.965h-17.342v-17.342l170.778-171.152h.001ZM362.873,86.35c-4.711,0-9.618,1.698-13.386,5.467l-34.684,34.497,70.683,70.683,34.684-35.253c7.351-7.351,7.351-18.853,0-26.577l-44.106-43.35c-3.491-3.51-8.24-5.478-13.191-5.467M294.821,146.296l-208.475,208.662v70.683h70.683l208.475-208.671-70.683-70.683v.009h0Z"/>
</svg>