<svg xmlns="http://www.w3.org/2000/svg" width="500" height="500" viewBox="0 0 500 500">
    <path d="M475 384.87 384.87 475 274.6 364.73l37.54-37.54 21.21 21.21 52.38-52.59 30.11 30.11-30.96 30.11 22.48 21.21 30.11-29.69 37.54 37.33ZM135.7 225.19 25 115.13 115.13 25l37.32 37.54-52.38 52.59 22.69 22.48 52.17-52.59 30.11 30.11-30.11 29.9 21.21 21.21zm157.98-38.81 19.93 19.72-192.55 192.34h-19.51v-19.51zm76.56-127.24c-5.3 0-10.82 1.91-15.06 6.15l-39.02 38.81 79.52 79.52 39.02-39.66c8.27-8.27 8.27-21.21 0-29.9l-49.62-48.77a20.86 20.86 0 0 0-14.84-6.15m-76.56 67.44L59.14 361.33v79.52h79.52L373.2 206.09l-79.52-79.52Z"/>
</svg>
