<?xml version="1.0" encoding="UTF-8"?>
<svg id="Layer_1" xmlns="http://www.w3.org/2000/svg" version="1.1" viewBox="0 0 500 500">
  <!-- Generator: Adobe Illustrator 29.1.0, SVG Export Plug-In . SVG Version: 2.1.0 Build 142)  -->
  <path d="M250,25C125.9,25,25,125.9,25,250s100.9,225,225,225,225-100.9,225-225S374.1,25,250,25ZM250,59.6c105,0,190.4,85.4,190.4,190.4s-8.9,65.7-24.5,93.3c-.8-.5-1.5-1-2.4-1.6-25.4-15.5-56.6-23.7-90.3-23.7s-65.2,8.5-90.4,24.1c-28.4,17.5-47.5,43-55.2,73.8-.6,2.5-1.4,5.9-1.9,9.4-9.3-3.9-18.2-8.6-26.6-13.9.3-1.4.6-2.7,1-4.1,7.6-30.5,23.9-56,49.2-76.5,3.7-3,4.2-8.5,1.2-12.2-1-1.3-2.4-2.2-4-2.7-13-4.1-27.8-6.4-46.2-6.4s-52.9,6.9-73.5,19.5c-11-24.1-17.2-50.8-17.2-79,0-104.9,85.5-190.4,190.4-190.4ZM248.2,209.9c-1.6-22.4,5.3-43,19.3-58,14.1-15,33.7-23.1,55.7-23.1s41.5,8.2,55.5,23.2c14,15,21.1,35.7,19.5,57.9-1.4,20.7-9.8,40.2-23.8,55.5-14.2,15.2-32.4,23.5-51.2,23.5s-37-8.4-51.2-23.5c-14-15.2-22.4-34.8-23.8-55.5ZM103.6,177.5c11.9-12.7,28.4-19.5,46.7-19.5s34.7,7,46.6,19.6,17.8,30.1,16.5,48.7c-2.6,36.5-30.9,66.3-63.1,66.3s-60.5-29.8-63.1-66.3c-1.3-18.7,4.5-36.1,16.4-48.8Z"/>
</svg>