<?xml version="1.0" encoding="UTF-8"?>
<svg id="Layer_1" xmlns="http://www.w3.org/2000/svg" version="1.1" viewBox="0 0 500 500">
  <!-- Generator: Adobe Illustrator 29.1.0, SVG Export Plug-In . SVG Version: 2.1.0 Build 142)  -->
  <path d="M475,246.9c-1.7-121.4-100.5-220.2-221.8-221.9C126.6,23.3,23.3,126.6,25,253.1c1.7,121.4,100.5,220.2,221.9,221.9,126.6,1.7,229.8-101.6,228.1-228.1ZM249.2,189.6h0c.2-1.3.5-2.6.8-3.9,2.7-12.6,8.8-24.3,17.6-33.8,13.9-14.9,33.7-23.1,55.7-23.1,9.2,0,18.4,1.5,27.1,4.6,10.8,3.9,20.6,10.2,28.4,18.6,11.6,12.5,18.4,28.6,19.5,45.6.3,4.1.3,8.2,0,12.3-.8,11.6-3.8,23-8.9,33.5-.5,1.1-1.1,2.3-1.7,3.4-1.2,2.2-2.5,4.4-3.9,6.6-2.8,4.2-5.9,8.2-9.3,11.9-14.2,15.1-32.4,23.5-51.2,23.5-7.1,0-14.1-1.2-20.7-3.4-2.2-.8-4.4-1.6-6.6-2.6-9-4.2-17.1-10.1-23.9-17.4-14-15.2-22.4-34.8-23.8-55.5-.2-2.8-.3-5.6-.2-8.3,0-4,.5-8,1.1-12ZM87.2,215.9c.5-7.7,2.4-15.3,5.6-22.3.9-2,1.9-3.9,3-5.7,2.2-3.7,4.8-7.2,7.8-10.3,4.4-4.7,9.5-8.6,15.1-11.7,2.8-1.5,5.8-2.9,8.8-3.9,11.6-4.1,24-4.9,36.1-2.6,12.8,2.5,24.4,8.9,33.3,18.4,10.5,11.4,16.5,26.3,16.7,41.8,0,2.3,0,4.6-.2,6.9-.7,8.9-2.9,17.6-6.5,25.8-1.7,3.9-3.8,7.7-6.2,11.3-4.6,6.9-10.4,13-17,17.9-1.6,1.2-3.3,2.2-5.1,3.3-3.4,2-7,3.7-10.8,5-5.6,2-11.6,3-17.5,3-1,0-2,0-3,0-2-.1-4-.3-5.9-.7-2-.3-3.9-.8-5.8-1.3-2.9-.8-5.7-1.9-8.4-3.1-.9-.4-1.8-.9-2.7-1.3-19.5-10.3-34.1-31.5-37-56.4-.1-1.1-.2-2.3-.3-3.4-.2-3.5-.2-6.9,0-10.4h0ZM146.5,409.5c-.3,0-.7-.2-.9-.4-28.8-19-51.9-45.4-67-76.4-1-2.1-.3-4.6,1.8-5.7,20.1-11.3,45.8-17.5,70-17.5s33.2,2.2,46.2,6.4c4.5,1.5,7,6.4,5.5,10.9-.5,1.6-1.5,2.9-2.7,4-25.3,20.6-41.5,46-49.2,76.5-.4,1.6-2,2.6-3.6,2.2ZM414.5,345.7c-34.1,58.6-96.7,94.6-164.5,94.7-24.4,0-48.5-4.6-71.1-13.8-1.9-.8-3-2.8-2.6-4.8.4-2.2.9-4.2,1.3-5.9,7.7-30.8,26.8-56.2,55.2-73.7,25.2-15.5,57.3-24.1,90.3-24.1s64.9,8.2,90.3,23.7c1.3.8,1.8,2.6,1,4Z"/>
</svg>