<svg xmlns="http://www.w3.org/2000/svg" width="512" height="512" viewBox="0 0 512 512">
  <path d="M256,56c-110.279,0-200,89.721-200,200s89.721,200,200,200,200-89.721,200-200S366.279,56,256,56ZM256,86.769c93.317,0,169.231,75.913,169.231,169.231,0,30.116-7.921,58.414-21.773,82.938-.674-.462-1.374-.923-2.121-1.38-22.558-13.779-50.308-21.067-80.269-21.067-29.394,0-57.913,7.596-80.317,21.394-25.24,15.548-42.202,38.221-49.038,65.558-.567,2.259-1.222,5.206-1.729,8.363-8.245-3.509-16.152-7.662-23.669-12.382.269-1.219.554-2.435.869-3.644,6.798-27.125,21.269-49.74,43.721-68.029,3.277-2.704,3.742-7.552,1.038-10.829-.925-1.121-2.148-1.957-3.529-2.411-11.538-3.683-24.712-5.654-41.048-5.654-22.82,0-47.04,6.16-65.315,17.351-9.806-21.402-15.282-45.179-15.282-70.207,0-93.269,75.962-169.231,169.231-169.231ZM254.394,220.375c-1.413-19.904,4.692-38.221,17.192-51.558s29.971-20.51,49.481-20.51c19.365,0,36.894,7.327,49.356,20.635,12.462,13.308,18.721,31.731,17.308,51.452-1.222,18.373-8.686,35.777-21.154,49.327-12.635,13.471-28.788,20.894-45.51,20.894s-32.894-7.423-45.519-20.894c-12.488-13.545-19.954-30.962-21.154-49.346ZM125.865,191.529c10.596-11.298,25.212-17.308,41.49-17.308s30.885,6.192,41.413,17.442c10.529,11.25,15.865,26.75,14.663,43.269-2.346,32.471-27.5,58.913-56.067,58.913s-53.779-26.452-56.087-58.971c-1.183-16.654,3.99-32.048,14.587-43.346Z"/>
</svg>