<svg xmlns="http://www.w3.org/2000/svg" width="512" height="512" viewBox="0 0 512 512">
  <path d="M258.798,56.019c-112.47-1.519-204.288,90.299-202.769,202.769,1.5,107.865,89.328,195.693,197.193,197.193,112.489,1.538,204.288-90.28,202.75-202.75-1.481-107.884-89.309-195.712-197.174-197.212M255.259,202.264c.202-1.154.423-2.307.683-3.452,2.428-11.228,7.839-21.594,15.662-30.007,12.393-13.201,29.959-20.488,49.467-20.488,8.207-.035,16.359,1.351,24.094,4.096,9.615,3.424,18.274,9.093,25.257,16.537,10.272,11.103,16.387,25.418,17.306,40.515.266,3.649.266,7.312,0,10.961-.741,10.341-3.415,20.45-7.884,29.805-.487,1.019-.997,2.029-1.529,3.029-1.067,1.99-2.211,3.942-3.442,5.826-2.45,3.762-5.226,7.301-8.297,10.576-12.614,13.46-28.767,20.892-45.486,20.892-6.27-.004-12.496-1.037-18.431-3.057-1.994-.678-3.951-1.458-5.865-2.336-8.013-3.739-15.22-9.003-21.219-15.499-12.487-13.544-19.952-30.959-21.152-49.342-.173-2.487-.231-4.948-.173-7.384.074-3.571.412-7.132,1.01-10.653v-.019ZM111.302,225.666c.468-6.86,2.162-13.581,5-19.844.801-1.744,1.693-3.445,2.673-5.096,1.96-3.308,4.278-6.391,6.913-9.191,3.903-4.164,8.447-7.676,13.46-10.403,2.504-1.368,5.111-2.538,7.797-3.5,10.294-3.6,21.362-4.394,32.064-2.298,11.34,2.193,21.698,7.914,29.593,16.345,9.369,10.114,14.649,23.346,14.816,37.131.048,2.029,0,4.067-.144,6.134-.587,7.916-2.539,15.67-5.769,22.921-1.547,3.491-3.39,6.842-5.509,10.018-4.076,6.159-9.205,11.552-15.152,15.931-1.442,1.029-2.942,1.99-4.49,2.952-3.044,1.813-6.266,3.311-9.614,4.471-5.007,1.75-10.272,2.647-15.575,2.654-.894,0-1.788,0-2.673-.077-1.766-.098-3.525-.297-5.269-.596-1.735-.302-3.452-.696-5.144-1.183-2.542-.734-5.023-1.663-7.422-2.779-.808-.375-1.596-.769-2.384-1.183-17.306-9.124-30.353-28.036-32.91-50.111-.115-1.01-.212-2.019-.279-3.038-.217-3.083-.211-6.177.019-9.259M163.143,397.381c-25.599-16.874-46.172-40.34-59.552-67.926-.907-1.832-.223-4.053,1.558-5.057,17.864-10.047,40.679-15.518,62.235-15.518,16.345,0,29.516,1.923,41.044,5.653,4.035,1.328,6.229,5.676,4.901,9.711-.454,1.38-1.29,2.604-2.411,3.528-22.45,18.268-36.92,40.9-43.717,68.022-.35,1.429-1.792,2.303-3.221,1.953-.298-.073-.581-.197-.837-.366M256.009,425.215c-21.646.022-43.093-4.13-63.167-12.23-1.691-.698-2.656-2.492-2.307-4.288.385-1.971.808-3.769,1.183-5.269,6.846-27.334,23.805-49.995,49.034-65.552,22.392-13.797,50.957-21.392,80.3-21.392,29.959,0,57.687,7.288,80.262,21.065,1.195.748,1.582,2.309.875,3.529-30.296,52.047-85.957,84.084-146.179,84.136"/>
</svg>