<svg id="content" xmlns="http://www.w3.org/2000/svg" version="1.1" width="512" height="512" viewBox="0 0 512 512">
  <defs>
    <style>
      .st0 {fill: %2322b8cd;}
    </style>
  </defs>
  <path class="st0" d="M385.8,56v121.2h45.2v172.5h-48.9v106.3l-117.3-103.2v102.4h-18.2v-102.5l-117.4,103.3v-107.7h-48.2v-172.5h48.1V56l117.6,108.2V59.2h18.2v108.2l121-111.3h-.1ZM264.8,206.7v122l99.1,87.2v-119.3l-99.1-89.9h0ZM246.5,205.4l-99.1,90v120.6l99.1-87.2v-123.3h0ZM382.1,331.7h30.7v-136.6h-132.5l101.8,92.3v44.2h0ZM232.4,193.7H99.2v136.6h30v-42.9l103.2-93.7h0ZM147.3,97.3v78.5h85.2l-85.2-78.5ZM367.6,97.3l-85.2,78.5h85.2v-78.5h0Z"/>
</svg>