<svg xmlns="http://www.w3.org/2000/svg" width="512" height="512" viewBox="0 0 512 512">
    <path d="M259.6 69.45c.7 0 1.5.1 2.3.1.6 0 1.4.1 2.1.1s1.5 0 2.3.1c.6 0 1.4 0 2.1.1.8 0 1.5 0 2.3.1.6 0 1.4 0 2.1.1.8.1 1.5.1 2.3.2.6.1 1.4.1 2.1.2.8.2 1.5.2 2.3.3l2.1.3c.8.1 1.6.2 2.3.3l2.1.3c.6.1 1.4.2 2.1.3l2.1.3c.6.2 1.4.4 2.1.5l2.1.5c.6.2 1.4.4 2.1.5l2.1.5q1.05.45 2.1.6 1.05.45 2.1.6c.7.3 1.4.4 2.1.6.7.3 1.4.4 2.1.6.7.1 1.4.4 2.1.6.7.1 1.4.4 2.1.6l2.1.7 2 .7c.7.3 1.4.6 2.1.8.6.3 1.3.6 2 .8.6.2 1.3.6 2 .8.6.2 1.3.6 2 .8.6.3 1.3.6 2 .9.6.3 1.3.6 2 .9.6.3 1.3.6 2 .9.5.3 1.3.6 1.9.9s1.3.6 2 .9c.5.3 1.3.6 1.9.9l2 1c.7.4 1.3.7 1.9 1 .5.4 1.3.8 1.9 1.1s1.2.7 1.8 1c.5.3 1.3.6 1.9 1.1.6.4 1.2.8 1.8 1.1.5.3 1.3.8 1.9 1.1.6.4 1.2.8 1.8 1.1.7.3 1.2.9 1.9 1.2s1.2.8 1.8 1.1c.7.5 1.3.9 1.9 1.4.6.3 1.1.8 1.7 1.1.7.5 1.3.9 1.9 1.4.6.3 1.1.8 1.7 1.1.7.5 1.3.9 1.9 1.4.5.4 1 .9 1.6 1.2.5.5 1.3 1 1.9 1.5.6.3 1 .9 1.6 1.2.5.5 1.3 1 1.9 1.6.5.4 1 .9 1.5 1.2.6.7 1.3 1.2 2 1.8.5.3.9.8 1.4 1.1.8.6 1.5 1.3 2.3 2 .4.3.8.6 1.1.9 1.2.9 2.2 2 3.3 3 13.9 13.7 25.5 29.2 34.2 46 12.8 24.7 19.7 52.1 20 80.7 0 1.6 0 3.1.5 5 0 1.5 0 3.1-.1 4.7-.3 2.8-.4 5.5-.6 8.3-.2 3.1-.7 6.2-1 9.2-.1 1.5-.4 2.9-.6 4.4-2.8 17.5-8.1 34.2-15.9 50-3.1 6.5-6.7 12.8-10.8 19-1.7 2.4-3.3 4.8-5.1 7.2s-3.6 4.6-5.4 7c-1.9 2.3-3.7 4.5-5.7 6.8-1.9 2.2-4 4.4-6.1 6.5-3.2 3.2-6.4 6.3-9.7 9.2-2.3 1.9-4.4 3.9-6.8 5.7-9.2 7.4-19.1 13.8-29.5 19.2-2.6 1.3-5.3 2.6-7.9 3.8-4 1.9-8.1 3.5-12.2 5.1-2.7 1-5.4 1.9-8.2 2.8-9.7 3.2-19.8 5.4-30 6.8-7.3 1-14.8 1.5-22.3 1.6h-5.5c-.7 0-1.5-.1-2.3-.1-.6 0-1.4-.1-2.1-.1s-1.5 0-2.3-.1c-.6 0-1.4 0-2.1-.1-.8 0-1.5 0-2.3-.1-.6 0-1.4 0-2.1-.1-.8-.1-1.5-.1-2.3-.2-.6-.1-1.4-.1-2.1-.2-.8-.2-1.5-.2-2.3-.3l-2.1-.3c-.8-.1-1.6-.2-2.3-.3l-2.1-.3c-.6-.1-1.4-.2-2.1-.3l-2.1-.3c-.6-.2-1.4-.4-2.1-.5l-2.1-.5c-.6-.2-1.4-.4-2.1-.5l-2.1-.5q-1.05-.45-2.1-.6-1.05-.45-2.1-.6c-.7-.3-1.4-.3-2.1-.6s-1.4-.4-2.1-.6c-.7-.1-1.4-.4-2.1-.6-.7-.1-1.4-.4-2.1-.6l-2.1-.7-2-.7c-.7-.3-1.4-.6-2.1-.8-.6-.3-1.3-.6-2-.8-.6-.2-1.4-.6-2-.8s-1.3-.6-2-.8c-.6-.3-1.3-.6-2-.9-.6-.3-1.4-.6-2-.9s-1.3-.6-2-.9c-.5-.3-1.3-.6-1.9-.9s-1.3-.6-2-.9c-.5-.3-1.3-.6-1.9-.9l-2-1c-.7-.4-1.3-.7-1.9-1-.5-.4-1.3-.8-1.9-1.1s-1.2-.7-1.8-1c-.5-.3-1.3-.8-1.9-1.1-.6-.4-1.2-.8-1.8-1.1-.5-.3-1.3-.8-1.9-1.1s-1.2-.8-1.8-1.1c-.7-.3-1.3-.9-1.9-1.2-.7-.3-1.2-.8-1.8-1.1-.7-.5-1.3-.9-1.9-1.4-.6-.3-1.1-.8-1.7-1.1-.7-.5-1.3-.9-1.9-1.4-.6-.3-1.1-.8-1.7-1.1-.7-.5-1.3-.9-1.9-1.4-.5-.4-1-.9-1.6-1.2-.7-.5-1.3-1-1.9-1.5-.5-.3-1-.9-1.6-1.2-.5-.5-1.3-1-1.9-1.6-.5-.3-1-.9-1.5-1.2l-2-1.7-1.4-1.1c-.6-.5-1.4-1.2-2.1-1.9-.3-.3-.8-.7-1.1-1-1.2-.9-2.2-2-3.3-3l-3.2-3.2c-2-2.1-4.1-4.2-6.1-6.5-1-1.1-2-2.3-2.9-3.4-1.9-2.4-3.7-4.6-5.5-7s-3.5-4.8-5.2-7.2c-2.6-3.6-4.8-7.3-7.1-11.1-3-5-5.7-10.2-8.1-15.5-2.4-5.4-4.6-10.8-6.5-16.3-.9-2.7-1.7-5.5-2.6-8.3-2.5-8.5-4.4-17.1-5.5-25.9-1-7.3-1.5-14.8-1.6-22.3-.1-6 0-11.9.6-17.9l1-8.8c.1-1.5.4-2.9.6-4.4.5-3 1-5.9 1.6-8.7.6-2.9 1.2-5.8 2-8.6 1.1-4.3 2.4-8.4 3.8-12.6s3-8.2 4.7-12.3c.6-1.5 1.2-2.7 1.8-4.1 3.1-6.5 6.6-12.9 10.4-19.2 1.5-2.6 3.1-5 4.8-7.4 5.8-8.5 12.5-16.6 19.8-24.1 6.3-6.5 13-12.4 20-17.8 14.2-10.7 29.6-19.2 46-25.3 2.7-1 5.4-1.9 8.2-2.8 9.7-3.2 19.8-5.4 30-6.8 7.3-1 14.8-1.5 22.3-1.6zm135 125.2-112.4 74.3-118.3 78.2-12.7 8.4.1.1c.9.8 1.6 1.6 2.5 2.4.3.2.6.6.9.8.7.5 1.2 1 1.8 1.6.3.3.7.6 1 .9.6.5 1.1 1 1.7 1.5.3.3.8.6 1.1.9l1.6 1.4 1.1.9c.5.5 1 .9 1.6 1.4.4.3.9.6 1.2.9.6.3 1.1.9 1.7 1.2.3.3.9.6 1.2.9.6.4 1.1.9 1.7 1.2.3.3.9.6 1.2.9.6.3 1.1.8 1.7 1.1.5.3.9.6 1.4.9.6.3 1.1.8 1.7 1.1.5.3.9.6 1.4.9.7.4 1.2.8 1.8 1.1.5.2.9.6 1.4.8.7.4 1.2.8 1.8 1.1.5.3.9.6 1.4.8.6.3 1.2.7 1.8 1l1.3.6 5 2.5c.6.2 1 .5 1.5.7l1.8.9c.5.3 1 .4 1.5.6.6.2 1.2.6 1.8.8.5.3 1 .4 1.5.6.7.2 1.3.6 1.9.8.6.3 1 .5 1.6.6.7.2 1.3.5 1.9.7.6.3 1 .5 1.6.6.5.2 1.3.5 1.9.7.5.3 1 .5 1.6.6.5.3 1.3.4 1.9.6l1.6.5c.5.3 1.3.5 1.9.6l1.6.5c.5.3 1.3.5 1.9.6.5.1 1 .2 1.6.3.5.2 1.3.4 1.9.5l1.7.3c.5.1 1.3.2 1.9.3l1.7.3c.5.1 1.3.2 1.9.3.7.2 1.2.2 1.8.3.5.1 1.3.2 1.9.3.7.1 1.2.1 1.8.2.5.1 1.3.1 1.9.2s1.2.1 1.8.2c.5.1 1.3.2 1.9.2s1.2 0 1.8.1c.5 0 1.3.1 1.9.1s1.2.1 1.8.1c.5 0 1.3.1 1.9.1s1.2.1 1.8.1c.6.1 1.3.1 2 .1h4.7c27-.3 52.2-7.8 73.9-20.7 4.1-2.5 8.2-5.2 12-8q5.7-4.2 11.1-9c5.2-4.5 9.9-9.4 14.4-14.6 4.2-4.7 7.9-9.8 11.4-15.1 1.3-2 2.6-4 3.8-6.1 3-5.2 5.8-10.6 8.2-16.1 1.5-3.3 2.9-6.6 4.1-10.1.8-2.4 1.6-4.6 2.3-7 2.1-7.1 3.6-14.3 4.7-21.7.3-2.4.7-5 .9-7.5.5-5 .7-10.1.9-15.1-.1-10.5-1.3-20.9-3.6-30.8-.5-2.1-1-4.4-1.6-6.5l-.9-3.3c-1-3.3-2.2-6.4-3.3-9.6-.3-.9-.9-2-1.2-3M281.6 287c.3 12.8 3.9 10.3 34.3 21.4 35.7 13.2 45.2 21.3 46.8 27.6q-3.3 4.35-7.2 8.4l-2.4 2.4c-25.4 26-59.4 40.6-95.6 41.1h-1.7c-30.6 0-59.8-10.1-83.5-28.7l16.7-11zm-21.8-186.25h-5.7c-3.9 0-7.6.3-11.4.6-5 .5-10.1 1.2-14.9 2.1-6.1 1.2-12.2 2.8-17.9 4.6l-3.5 1.1c-4.6 1.7-9.1 3.4-13.5 5.5-8.7 4-17 9-24.8 14.6-1.9 1.5-3.9 2.9-5.7 4.4-3.7 3-7.3 6.2-10.7 9.5q-2.7 2.4-5.1 5.1c-1.6 1.7-3.2 3.5-4.8 5.3q-3.45 4.05-6.6 8.4c-.7 1-1.4 1.9-2.1 2.9-1.3 1.9-2.7 4-3.9 6-2.5 4.2-4.9 8.3-7 12.6-.6 1.2-1 2.2-1.6 3.3-2.5 5.5-4.8 11.2-6.6 16.9-.7 2.3-1.5 4.6-2.1 7-.9 3.6-1.8 7.2-2.5 10.8-.4 1.1-.5 2.4-.7 3.6-1.4 8.6-2.1 17.4-2 26.4 0 2.7.2 5.5.3 8.2.4 7.3 1.5 14.4 3 21.4.4 2.6 1.1 5.2 1.8 7.8.9 3.4 2.1 6.7 3.2 10 .9 2.5 1.8 4.9 2.8 7.3l2.1 4.8c.3.8.8 1.6 1.1 2.4.8 1.4 1.5 3 2.4 4.6.6 1.3 1.3 2.6 2 3.8l1.1 2.1c1.4 2.5 3 5 4.6 7.5l94-61.2 77.9-51.4 7.4-4.8 70.9-46.8s-.1 0-.1-.1c-.8-1.2-1.6-2.5-2.5-3.6-.3-.4-.6-.9-.9-1.2-.6-.9-1.2-1.7-1.8-2.5-.4-.5-.8-.9-1.1-1.4-.6-.6-1.1-1.4-1.7-2.1l-1.1-1.4c-.7-.7-1.2-1.4-1.8-2.1-.3-.5-.9-.9-1.2-1.4-.7-.6-1.2-1.3-1.8-2l-1.4-1.4c-.6-.5-1.2-1.3-1.8-1.9l-4.6-4.6c-.5-.6-1.3-1.2-1.9-1.8-.5-.3-.9-.9-1.4-1.2-.6-.7-1.3-1.2-2-1.8-.6-.3-1-.8-1.5-1.1-.7-.6-1.4-1.1-2.1-1.7-.5-.3-1-.8-1.5-1.1l-2.1-1.6c-.6-.3-1-.8-1.6-1.1-.6-.5-1.4-1-2.1-1.6-.6-.4-1-.8-1.6-1.1-.8-.6-1.5-1.1-2.3-1.6-.5-.3-1-.7-1.6-1-.8-.6-1.5-1-2.3-1.5-.5-.4-1-.7-1.6-1l-2.4-1.4-1.6-.9-2.4-1.4c-.6-.3-1.1-.6-1.7-.9-.8-.3-1.6-.9-2.4-1.2-.6-.3-1.1-.6-1.7-.9-.8-.3-1.6-.8-2.4-1.1-.7-.2-1.2-.6-1.8-.8-.8-.4-1.5-.8-2.4-1.1-.6-.3-1.2-.6-1.8-.8-.9-.3-1.6-.7-2.5-1l-1.8-.7c-.9-.3-1.6-.6-2.5-.9-.7-.1-1.3-.4-1.9-.6-.9-.3-1.6-.7-2.5-.9-.5-.3-1.3-.4-1.9-.6-.8-.3-1.6-.6-2.5-.8-.6-.3-1.3-.5-2-.6l-2.6-.7c-.6-.2-1.3-.4-2-.5-.9-.3-1.7-.5-2.6-.6l-2.1-.5c-.9-.3-1.7-.5-2.6-.6l-2.1-.3c-.9 0-1.7-.2-2.6-.3-.6-.1-1.4-.2-2.1-.3-.9-.1-1.7-.2-2.6-.3-.8-.1-1.5-.1-2.3-.2l-2.6-.2c-.7 0-1.5 0-2.3-.1-.8 0-1.6 0-2.5-.1-.8 0-1.6-.1-2.4-.1s-1.6-.1-2.5-.1m-12 38.85c40.5 0 51.8 32 50.7 44.2-.9 9.9-1.3 14.2-1.8 19-.2 1.7.1 2.9.6 4.1L212.5 263c-2.3-3.7-4.8-9.6-6.8-21.3-2-12.1-3.6-4-8-23.2-2.3-10.1 1.6-10.8 1.1-15.6-.5-4.9-.9-9.2-1.7-19-1.2-12.2 10.2-44.3 50.7-44.3"/>
</svg>
