<?xml version="1.0" encoding="UTF-8"?>
<svg id="Layer_1" xmlns="http://www.w3.org/2000/svg" version="1.1" viewBox="0 0 500 500">
  <!-- Generator: Adobe Illustrator 29.1.0, SVG Export Plug-In . SVG Version: 2.1.0 Build 142)  -->
  <path d="M475,475s0-30.9-2.5-47.1c-2.1-12.8-19.8-29.7-95.1-57.4-74.1-27.1-69.5-13.9-69.5-64s16.6-13.6,27-75.2c4.1-24.2,7.3-8.2,16.3-47,4.6-20.4-3.1-21.9-2.3-31.6,1-9.7,1.8-18.4,3.7-38.2,2.1-24.6-20.8-89.4-102.7-89.4s-104.8,64.8-102.5,89.6c1.7,19.8,2.7,28.5,3.7,38.2s-6.9,11.3-2.3,31.6c8.9,38.8,12.2,22.6,16.3,47,10.5,61.6,27,42.7,27,75.2,0,50.2,4.5,37-69.5,64-75.2,27.6-93.1,44.6-95.1,57.4-2.7,16-2.7,47-2.7,47h450Z"/>
</svg>