<?xml version="1.0" encoding="UTF-8"?>
<svg id="Layer_1" xmlns="http://www.w3.org/2000/svg" version="1.1" viewBox="0 0 500 500">
  <!-- Generator: Adobe Illustrator 29.1.0, SVG Export Plug-In . SVG Version: 2.1.0 Build 142)  -->
  <path d="M250,25C125.9,25,25,125.9,25,250s100.9,225,225,225,225-100.9,225-225S374.1,25,250,25M195.7,151.4c13.7-14.5,33-22.5,54.3-22.5s40.4,8,54.2,22.7c13.9,14.8,20.7,34.7,19.1,56.1-3.2,42.4-36.1,77.1-73.3,77.1s-70.2-34.6-73.3-77.1c-1.6-21.5,5.2-41.5,19-56.2M250,440.4c-51.3,0-100.5-20.7-136.3-57.6,10.1-14.5,23.1-26.8,38-36.2,27.6-17.7,62.5-27.4,98.3-27.4s70.7,9.7,98.3,27.4c15,9.4,27.9,21.7,38,36.2-35.8,36.8-84.9,57.6-136.3,57.6"/>
</svg>