<?xml version="1.0" encoding="UTF-8"?>
<svg width="512px" height="512px" viewBox="0 0 512 512" version="1.1" xmlns="http://www.w3.org/2000/svg" xmlns:xlink="http://www.w3.org/1999/xlink">
    <!-- Generator: Sketch 62 (91390) - https://sketch.com -->
    <title>person-stalker</title>
    <desc>Created with Sketch.</desc>
    <g id="person-stalker" stroke="none" stroke-width="1" fill="none" fill-rule="evenodd">
        <path d="M337.7,141.65 C375.8,141.65 386.5,172.95 385.5,184.95 C384.7,194.55 384.4,198.75 383.9,203.45 C383.4,208.15 387.1,208.95 384.9,218.75 C380.8,237.45 379.2,229.65 377.3,241.45 C372.3,271.35 364.6,265.65 364.6,281.25 C364.6,305.55 362.5,300.25 397,313.35 C432.3,326.75 440.4,334.95 441.4,341.05 C442.7,348.85 442.7,415.95 442.7,415.95 L442.7,415.95 L361.2,415.95 C361.1,400.45 360.6,357.35 359.8,351.95 C358.6,343.95 359.8,327.35 314.4,310.05 C308.1,307.65 302.8,305.75 298.3,304.15 C313.3,297.15 310.7,292.45 310.7,281.25 C310.7,265.55 303,271.35 298.1,241.45 C296.2,229.75 294.6,237.55 290.5,218.75 C288.4,208.85 291.8,208.15 291.5,203.45 C291.2,198.85 290.6,194.65 289.9,184.95 C288.8,173.05 299.6,141.65 337.7,141.65 Z M204.8,96.05 C254.1,96.05 267.8,136.55 266.5,151.95 C265.534483,163.922414 264.941855,169.369263 264.362085,175.221147 L264.3,175.85 C263.7,181.95 268.4,182.85 265.6,195.55 C260.3,219.75 258.2,209.65 255.8,224.85 C249.5,263.25 239.5,250.05 239.5,270.35 C239.5,297.25 237.5,300.55 265.3,310.35 C269.9,312.05 275.1,313.95 281.4,316.25 C326.7,333.45 337.3,344.05 338.6,351.95 C339.4,357.15 339.9,375.05 340,390.55 C340.1,404.05 340.1,415.85 340.1,415.85 L340.1,415.85 L340.2,415.95 L69.5,415.95 C69.5,415.95 69.5,361.95 71.1,351.95 C72.4,344.05 83,333.45 128.1,316.35 C172.8,299.35 170,301.75 170,270.35 C170,250.05 160.1,263.25 153.8,224.85 C151.3,209.65 149.4,219.85 144,195.55 C141.1,182.85 145.9,181.95 145.3,175.85 C144.7,169.75 144.1,164.35 143.1,151.95 C141.8,136.45 155.5,96.05 204.8,96.05 Z" id="Combined-Shape" fill="#000000" fill-rule="nonzero"></path>
    </g>
</svg>