<svg xmlns="http://www.w3.org/2000/svg" width="512" height="512" viewBox="0 0 512 512">
  <path d="M383.905,212.795c39.872,0,72.095,32.454,72.095,72.211s-32.223,72.095-72.095,72.095c-11.707,0-22.718-2.898-32.57-7.882l-6.491,19.473-30.832,4.057-15.764,38.018-19.241,3.593-11.127,20.284-52.97,2.898-8.925-21.675,110.461-105.477c-2.898-7.882-4.636-16.459-4.636-25.5,0-39.757,32.223-72.095,72.095-72.095M227.544,74.458c62.475,0,79.861,49.377,78.238,68.154-1.391,15.184-2.202,21.791-2.782,29.209-.58,7.418,5.332,8.577,1.739,24.109-6.723,29.557-9.273,17.154-12.402,35.7-7.998,47.059-20.632,32.686-20.632,57.375,0,12.518.811,21.675,2.086,26.543l6.259,1.97-109.881,99.681H56s0-23.414,1.97-35.7c1.507-9.736,15.068-22.602,72.559-43.697,56.447-20.516,52.97-10.432,52.97-48.682,0-24.804-12.634-10.432-20.632-57.375-3.13-18.429-5.68-6.259-12.402-35.7-3.477-15.532,2.55-16.691,1.739-24.109s-1.391-14.141-2.782-29.209c-1.739-18.893,15.648-68.27,78.122-68.27M405.232,241.656c-11.707,0-21.211,9.504-21.211,21.211s9.505,21.211,21.211,21.211,21.327-9.505,21.211-21.211c0-11.707-9.505-21.211-21.211-21.211"/>
</svg>