<?xml version="1.0" encoding="UTF-8"?>
<svg id="Layer_1" xmlns="http://www.w3.org/2000/svg" version="1.1" viewBox="0 0 500 500">
  <!-- Generator: Adobe Illustrator 29.1.0, SVG Export Plug-In . SVG Version: 2.1.0 Build 142)  -->
  <path d="M393.9,201.4c44.9,0,81.1,36.5,81.1,81.2s-36.3,81.1-81.1,81.1-25.6-3.3-36.6-8.9l-7.3,21.9-34.7,4.6-17.7,42.8-21.6,4-12.5,22.8-59.6,3.3-10-24.4,124.3-118.7c-3.3-8.9-5.2-18.5-5.2-28.7,0-44.7,36.3-81.1,81.1-81.1M218,45.8c70.3,0,89.8,55.5,88,76.7-1.6,17.1-2.5,24.5-3.1,32.9-.7,8.3,6,9.6,2,27.1-7.6,33.3-10.4,19.3-14,40.2-9,52.9-23.2,36.8-23.2,64.5s.9,24.4,2.3,29.9l7,2.2-123.6,112.1H25s0-26.3,2.2-40.2c1.7-11,17-25.4,81.6-49.2,63.5-23.1,59.6-11.7,59.6-54.8s-14.2-11.7-23.2-64.5c-3.5-20.7-6.4-7-14-40.2-3.9-17.5,2.9-18.8,2-27.1s-1.6-15.9-3.1-32.9c-2-21.3,17.6-76.8,87.9-76.8M417.9,233.9c-13.2,0-23.9,10.7-23.9,23.9s10.7,23.9,23.9,23.9,24-10.7,23.9-23.9c0-13.2-10.7-23.9-23.9-23.9"/>
</svg>