<?xml version="1.0" encoding="UTF-8"?>
<svg width="512px" height="512px" viewBox="0 0 512 512" version="1.1" xmlns="http://www.w3.org/2000/svg" xmlns:xlink="http://www.w3.org/1999/xlink">
    <!-- Generator: Sketch 62 (91390) - https://sketch.com -->
    <title>person</title>
    <desc>Created with Sketch.</desc>
    <g id="person" stroke="none" stroke-width="1" fill="none" fill-rule="evenodd">
        <path d="M416,409.5 C416,409.5 416,387.5 414.2,376 C412.7,366.9 400.1,354.9 346.6,335.2 C293.9,315.9 297.2,325.3 297.2,289.7 C297.2,266.6 309,280 316.4,236.2 C319.3,219 321.6,230.4 328,202.8 C331.3,188.3 325.8,187.2 326.4,180.3 C327.1,173.4 327.7,167.2 329,153.1 C330.5,135.6 314.2,89.5 256,89.5 C197.8,89.5 181.5,135.6 183.1,153.2 C184.3,167.3 185,173.5 185.7,180.4 C186.4,187.3 180.8,188.4 184.1,202.9 C190.4,230.5 192.8,219 195.7,236.3 C203.2,280.1 214.9,266.7 214.9,289.8 C214.9,325.5 218.1,316.1 165.5,335.3 C112,354.9 99.3,367 97.9,376.1 C96,387.5 96,409.5 96,409.5 L416,409.5 Z" id="Path" fill="#000000" fill-rule="nonzero"></path>
    </g>
</svg>