<svg xmlns="http://www.w3.org/2000/svg" width="512" height="512" viewBox="0 0 512 512">
  <path d="M258.798,56.019c-112.47-1.519-204.288,90.299-202.769,202.769,1.5,107.865,89.328,195.693,197.193,197.193,112.489,1.538,204.288-90.28,202.75-202.75-1.481-107.884-89.309-195.712-197.174-197.212M380.344,370.652c-1.442,1.559-3.875,1.655-5.435.213-.172-.159-.329-.333-.469-.52-8.6-11.251-19.132-20.884-31.103-28.449-24.478-15.71-55.495-24.363-87.328-24.363s-62.85,8.653-87.328,24.363c-11.972,7.561-22.503,17.191-31.103,28.44-1.272,1.701-3.682,2.048-5.383.776-.187-.14-.361-.297-.52-.469-28.212-30.455-44.193-70.25-44.88-111.759-1.567-93.559,75.204-171.868,168.801-172.099,93.597-.231,169.628,75.772,169.628,169.215.032,42.51-15.998,83.462-44.88,114.653M256.009,148.318c-18.96,0-36.102,7.105-48.284,20.017-12.182,12.912-18.268,30.766-16.893,49.928,2.788,37.737,32.026,68.503,65.177,68.503s62.331-30.766,65.177-68.494c1.423-18.979-4.615-36.67-16.998-49.822-12.23-12.98-29.343-20.133-48.178-20.133"/>
</svg>