<svg xmlns="http://www.w3.org/2000/svg" width="512" height="512" viewBox="0 0 512 512">
    <path d="M400.2 260v-42.5h42.5v-35h-42.5V140h-35v42.5h-42.5v35h42.5V260z"/>
    <path d="M389.4 409.5s0-22-1.9-33.5c-1.5-9.1-14.1-21.1-67.5-40.7-52.6-19.4-49.5-9.9-49.5-45.5 0-23.1 11.8-9.7 19.2-53.5 2.9-17.3 5.2-5.7 11.5-33.4 3.4-14.5-2.2-15.6-1.6-22.5.7-6.9 1.3-13.1 2.6-27.3 1.5-17.5-14.7-63.6-73-63.6s-74.5 46.1-72.9 63.7c1.3 14.1 1.9 20.3 2.6 27.3.7 7-4.9 8-1.6 22.5 6.3 27.5 8.6 16.1 11.5 33.4 7.5 43.9 19.2 30.4 19.2 53.5 0 35.7 3.3 26.2-49.5 45.5C85 355 72.4 367 71 376.1c-1.9 11.4-1.9 33.4-1.9 33.4z"/>
</svg>
