<?xml version="1.0" encoding="UTF-8"?>
<svg width="512px" height="512px" viewBox="0 0 512 512" version="1.1" xmlns="http://www.w3.org/2000/svg" xmlns:xlink="http://www.w3.org/1999/xlink">
    <!-- Generator: Sketch 62 (91390) - https://sketch.com -->
    <title>person-blocked</title>
    <desc>Created with Sketch.</desc>
    <g id="person-blocked" stroke="none" stroke-width="1" fill="none" fill-rule="evenodd">
        <path d="M259.6,69.45 C260.3,69.45 261.1,69.55 261.9,69.55 C262.5,69.55 263.3,69.65 264,69.65 C264.7,69.65 265.5,69.65 266.3,69.75 C266.9,69.75 267.7,69.75 268.4,69.85 C269.2,69.85 269.9,69.85 270.7,69.95 C271.3,69.95 272.1,69.95 272.8,70.05 C273.6,70.15 274.3,70.15 275.1,70.25 C275.7,70.35 276.5,70.35 277.2,70.45 C278,70.65 278.7,70.65 279.5,70.75 L279.5,70.75 L281.6,71.05 C282.4,71.15 283.2,71.25 283.9,71.35 L283.9,71.35 L286,71.65 C286.6,71.75 287.4,71.85 288.1,71.95 L288.1,71.95 L290.2,72.25 C290.8,72.45 291.6,72.65 292.3,72.75 L292.3,72.75 L294.4,73.25 C295,73.45 295.8,73.65 296.5,73.75 L296.5,73.75 L298.6,74.25 C299.3,74.55 300,74.75 300.7,74.85 C301.4,75.15 302.1,75.35 302.8,75.45 C303.5,75.75 304.2,75.85 304.9,76.05 C305.6,76.35 306.3,76.45 307,76.65 C307.7,76.75 308.4,77.05 309.1,77.25 C309.8,77.35 310.5,77.65 311.2,77.85 L311.2,77.85 L313.3,78.55 L315.3,79.25 C316,79.55 316.7,79.85 317.4,80.05 C318,80.35 318.7,80.65 319.4,80.85 C320,81.05 320.7,81.45 321.4,81.65 C322,81.85 322.7,82.25 323.4,82.45 C324,82.75 324.7,83.05 325.4,83.35 C326,83.65 326.7,83.95 327.4,84.25 C328,84.55 328.7,84.85 329.4,85.15 C329.9,85.45 330.7,85.75 331.3,86.05 C331.9,86.35 332.6,86.65 333.3,86.95 C333.8,87.25 334.6,87.55 335.2,87.85 L335.2,87.85 L337.2,88.85 C337.9,89.25 338.5,89.55 339.1,89.85 C339.6,90.25 340.4,90.65 341,90.95 C341.6,91.25 342.2,91.65 342.8,91.95 C343.3,92.25 344.1,92.55 344.7,93.05 C345.3,93.45 345.9,93.85 346.5,94.15 C347,94.45 347.8,94.95 348.4,95.25 C349,95.65 349.6,96.05 350.2,96.35 C350.9,96.65 351.4,97.25 352.1,97.55 C352.8,97.85 353.3,98.35 353.9,98.65 C354.6,99.15 355.2,99.55 355.8,100.05 C356.4,100.35 356.9,100.85 357.5,101.15 C358.2,101.65 358.8,102.05 359.4,102.55 C360,102.85 360.5,103.35 361.1,103.65 C361.8,104.15 362.4,104.55 363,105.05 C363.5,105.45 364,105.95 364.6,106.25 C365.1,106.75 365.9,107.25 366.5,107.75 C367.1,108.05 367.5,108.65 368.1,108.95 C368.6,109.45 369.4,109.95 370,110.55 C370.5,110.95 371,111.45 371.5,111.75 C372.1,112.45 372.8,112.95 373.5,113.55 C374,113.85 374.4,114.35 374.9,114.65 C375.7,115.25 376.4,115.95 377.2,116.65 C377.6,116.95 378,117.25 378.3,117.55 C379.5,118.45 380.5,119.55 381.6,120.55 C395.5,134.25 407.1,149.75 415.8,166.55 C428.6,191.25 435.5,218.65 435.8,247.25 C435.8,248.85 435.8,250.35 436.3,252.25 C436.3,253.75 436.3,255.35 436.2,256.95 C435.9,259.75 435.8,262.45 435.6,265.25 C435.4,268.35 434.9,271.45 434.6,274.45 C434.5,275.95 434.2,277.35 434,278.85 C431.2,296.35 425.9,313.05 418.1,328.85 C415,335.35 411.4,341.65 407.3,347.85 C405.6,350.25 404,352.65 402.2,355.05 C400.4,357.45 398.6,359.65 396.8,362.05 C394.9,364.35 393.1,366.55 391.1,368.85 C389.2,371.05 387.1,373.25 385,375.35 C381.8,378.55 378.6,381.65 375.3,384.55 C373,386.45 370.9,388.45 368.5,390.25 C359.3,397.65 349.4,404.05 339,409.45 C336.4,410.75 333.7,412.05 331.1,413.25 C327.1,415.15 323,416.75 318.9,418.35 C316.2,419.35 313.5,420.25 310.7,421.15 C301,424.35 290.9,426.55 280.7,427.95 C273.4,428.95 265.9,429.45 258.4,429.55 L258.4,429.55 L252.9,429.55 C252.2,429.55 251.4,429.45 250.6,429.45 C250,429.45 249.2,429.35 248.5,429.35 C247.8,429.35 247,429.35 246.2,429.25 C245.6,429.25 244.8,429.25 244.1,429.15 C243.3,429.15 242.6,429.15 241.8,429.05 C241.2,429.05 240.4,429.05 239.7,428.95 C238.9,428.85 238.2,428.85 237.4,428.75 C236.8,428.65 236,428.65 235.3,428.55 C234.5,428.35 233.8,428.35 233,428.25 L233,428.25 L230.9,427.95 C230.1,427.85 229.3,427.75 228.6,427.65 L228.6,427.65 L226.5,427.35 C225.9,427.25 225.1,427.15 224.4,427.05 L224.4,427.05 L222.3,426.75 C221.7,426.55 220.9,426.35 220.2,426.25 L220.2,426.25 L218.1,425.75 C217.5,425.55 216.7,425.35 216,425.25 L216,425.25 L213.9,424.75 C213.2,424.45 212.5,424.25 211.8,424.15 C211.1,423.85 210.4,423.65 209.7,423.55 C209,423.25 208.3,423.25 207.6,422.95 C206.9,422.65 206.2,422.55 205.5,422.35 C204.8,422.25 204.1,421.95 203.4,421.75 C202.7,421.65 202,421.35 201.3,421.15 L201.3,421.15 L199.2,420.45 L197.2,419.75 C196.5,419.45 195.8,419.15 195.1,418.95 C194.5,418.65 193.8,418.35 193.1,418.15 C192.5,417.95 191.7,417.55 191.1,417.35 C190.5,417.15 189.8,416.75 189.1,416.55 C188.5,416.25 187.8,415.95 187.1,415.65 C186.5,415.35 185.7,415.05 185.1,414.75 C184.5,414.45 183.8,414.15 183.1,413.85 C182.6,413.55 181.8,413.25 181.2,412.95 C180.6,412.65 179.9,412.35 179.2,412.05 C178.7,411.75 177.9,411.45 177.3,411.15 L177.3,411.15 L175.3,410.15 C174.6,409.75 174,409.45 173.4,409.15 C172.9,408.75 172.1,408.35 171.5,408.05 C170.9,407.75 170.3,407.35 169.7,407.05 C169.2,406.75 168.4,406.25 167.8,405.95 C167.2,405.55 166.6,405.15 166,404.85 C165.5,404.55 164.7,404.05 164.1,403.75 C163.5,403.45 162.9,402.95 162.3,402.65 C161.6,402.35 161,401.75 160.4,401.45 C159.7,401.15 159.2,400.65 158.6,400.35 C157.9,399.85 157.3,399.45 156.7,398.95 C156.1,398.65 155.6,398.15 155,397.85 C154.3,397.35 153.7,396.95 153.1,396.45 C152.5,396.15 152,395.65 151.4,395.35 C150.7,394.85 150.1,394.45 149.5,393.95 C149,393.55 148.5,393.05 147.9,392.75 C147.2,392.25 146.6,391.75 146,391.25 C145.5,390.95 145,390.35 144.4,390.05 C143.9,389.55 143.1,389.05 142.5,388.45 C142,388.15 141.5,387.55 141,387.25 L141,387.25 L139,385.55 L137.6,384.45 C137,383.95 136.2,383.25 135.5,382.55 C135.2,382.25 134.7,381.85 134.4,381.55 C133.2,380.65 132.2,379.55 131.1,378.55 L131.1,378.55 L127.9,375.35 C125.9,373.25 123.8,371.15 121.8,368.85 C120.8,367.75 119.8,366.55 118.9,365.45 C117,363.05 115.2,360.85 113.4,358.45 C111.6,356.05 109.9,353.65 108.2,351.25 C105.6,347.65 103.4,343.95 101.1,340.15 C98.1,335.15 95.4,329.95 93,324.65 C90.6,319.25 88.4,313.85 86.5,308.35 C85.6,305.65 84.8,302.85 83.9,300.05 C81.4,291.55 79.5,282.95 78.4,274.15 C77.4,266.85 76.9,259.35 76.8,251.85 C76.7,245.85 76.8,239.95 77.4,233.95 L77.4,233.95 L78.4,225.15 C78.5,223.65 78.8,222.25 79,220.75 C79.5,217.75 80,214.85 80.6,212.05 C81.2,209.15 81.8,206.25 82.6,203.45 C83.7,199.15 85,195.05 86.4,190.85 C87.8,186.65 89.4,182.65 91.1,178.55 C91.7,177.05 92.3,175.85 92.9,174.45 C96,167.95 99.5,161.55 103.3,155.25 C104.8,152.65 106.4,150.25 108.1,147.85 C113.9,139.35 120.6,131.25 127.9,123.75 C134.2,117.25 140.9,111.35 147.9,105.95 C162.1,95.25 177.5,86.75 193.9,80.65 C196.6,79.65 199.3,78.75 202.1,77.85 C211.8,74.65 221.9,72.45 232.1,71.05 C239.4,70.05 246.9,69.55 254.4,69.45 L254.4,69.45 Z M394.6,194.65 L282.2,268.95 L163.9,347.15 L151.2,355.55 L151.3,355.65 C152.2,356.45 152.9,357.25 153.8,358.05 C154.1,358.25 154.4,358.65 154.7,358.85 C155.4,359.35 155.9,359.85 156.5,360.45 C156.8,360.75 157.2,361.05 157.5,361.35 C158.1,361.85 158.6,362.35 159.2,362.85 C159.5,363.15 160,363.45 160.3,363.75 L160.3,363.75 L161.9,365.15 L163,366.05 C163.5,366.55 164,366.95 164.6,367.45 C165,367.75 165.5,368.05 165.8,368.35 C166.4,368.65 166.9,369.25 167.5,369.55 C167.8,369.85 168.4,370.15 168.7,370.45 C169.3,370.85 169.8,371.35 170.4,371.65 C170.7,371.95 171.3,372.25 171.6,372.55 C172.2,372.85 172.7,373.35 173.3,373.65 C173.8,373.95 174.2,374.25 174.7,374.55 C175.3,374.85 175.8,375.35 176.4,375.65 C176.9,375.95 177.3,376.25 177.8,376.55 C178.5,376.95 179,377.35 179.6,377.65 C180.1,377.85 180.5,378.25 181,378.45 C181.7,378.85 182.2,379.25 182.8,379.55 C183.3,379.85 183.7,380.15 184.2,380.35 C184.8,380.65 185.4,381.05 186,381.35 L186,381.35 L187.3,381.95 L192.3,384.45 C192.9,384.65 193.3,384.95 193.8,385.15 L193.8,385.15 L195.6,386.05 C196.1,386.35 196.6,386.45 197.1,386.65 C197.7,386.85 198.3,387.25 198.9,387.45 C199.4,387.75 199.9,387.85 200.4,388.05 C201.1,388.25 201.7,388.65 202.3,388.85 C202.9,389.15 203.3,389.35 203.9,389.45 C204.6,389.65 205.2,389.95 205.8,390.15 C206.4,390.45 206.8,390.65 207.4,390.75 C207.9,390.95 208.7,391.25 209.3,391.45 C209.8,391.75 210.3,391.95 210.9,392.05 C211.4,392.35 212.2,392.45 212.8,392.65 L212.8,392.65 L214.4,393.15 C214.9,393.45 215.7,393.65 216.3,393.75 L216.3,393.75 L217.9,394.25 C218.4,394.55 219.2,394.75 219.8,394.85 C220.3,394.95 220.8,395.05 221.4,395.15 C221.9,395.35 222.7,395.55 223.3,395.65 L223.3,395.65 L225,395.95 C225.5,396.05 226.3,396.15 226.9,396.25 L226.9,396.25 L228.6,396.55 C229.1,396.65 229.9,396.75 230.5,396.85 C231.2,397.05 231.7,397.05 232.3,397.15 C232.8,397.25 233.6,397.35 234.2,397.45 C234.9,397.55 235.4,397.55 236,397.65 C236.5,397.75 237.3,397.75 237.9,397.85 C238.5,397.95 239.1,397.95 239.7,398.05 C240.2,398.15 241,398.25 241.6,398.25 C242.2,398.25 242.8,398.25 243.4,398.35 C243.9,398.35 244.7,398.45 245.3,398.45 C245.9,398.45 246.5,398.55 247.1,398.55 C247.6,398.55 248.4,398.65 249,398.65 C249.6,398.65 250.2,398.75 250.8,398.75 C251.4,398.85 252.1,398.85 252.8,398.85 L252.8,398.85 L257.5,398.85 C284.5,398.55 309.7,391.05 331.4,378.15 C335.5,375.65 339.6,372.95 343.4,370.15 C347.2,367.35 350.9,364.35 354.5,361.15 C359.7,356.65 364.4,351.75 368.9,346.55 C373.1,341.85 376.8,336.75 380.3,331.45 C381.6,329.45 382.9,327.45 384.1,325.35 C387.1,320.15 389.9,314.75 392.3,309.25 C393.8,305.95 395.2,302.65 396.4,299.15 C397.2,296.75 398,294.55 398.7,292.15 C400.8,285.05 402.3,277.85 403.4,270.45 C403.7,268.05 404.1,265.45 404.3,262.95 L404.3,262.95 C404.8,257.95 405,252.85 405.2,247.85 C405.1,237.35 403.9,226.95 401.6,217.05 C401.1,214.95 400.6,212.65 400,210.55 L400,210.55 L399.1,207.25 C398.1,203.95 396.9,200.85 395.8,197.65 C395.5,196.75 394.9,195.65 394.6,194.65 L394.6,194.65 Z M281.6,287 C281.9,299.8 285.5,297.3 315.9,308.4 C351.6,321.6 361.1,329.7 362.7,336 C360.5,338.9 358.1,341.7 355.5,344.4 L355.5,344.4 L353.1,346.8 C327.7,372.8 293.7,387.4 257.5,387.9 L257.5,387.9 L255.8,387.9 C225.2,387.9 196,377.8 172.3,359.2 L172.3,359.2 L189,348.2 Z M259.8,100.75 L254.1,100.75 C250.2,100.75 246.5,101.05 242.7,101.35 C237.7,101.85 232.6,102.55 227.8,103.45 C221.7,104.65 215.6,106.25 209.9,108.05 L209.9,108.05 L206.4,109.15 C201.8,110.85 197.3,112.55 192.9,114.65 C184.2,118.65 175.9,123.65 168.1,129.25 C166.2,130.75 164.2,132.15 162.4,133.65 C158.7,136.65 155.1,139.85 151.7,143.15 C149.9,144.75 148.2,146.45 146.6,148.25 C145,149.95 143.4,151.75 141.8,153.55 C139.5,156.25 137.3,159.05 135.2,161.95 C134.5,162.95 133.8,163.85 133.1,164.85 C131.8,166.75 130.4,168.85 129.2,170.85 C126.7,175.05 124.3,179.15 122.2,183.45 C121.6,184.65 121.2,185.65 120.6,186.75 C118.1,192.25 115.8,197.95 114,203.65 C113.3,205.95 112.5,208.25 111.9,210.65 C111,214.25 110.1,217.85 109.4,221.45 C109,222.55 108.9,223.85 108.7,225.05 C107.3,233.65 106.6,242.45 106.7,251.45 C106.7,254.15 106.9,256.95 107,259.65 C107.4,266.95 108.5,274.05 110,281.05 C110.4,283.65 111.1,286.25 111.8,288.85 C112.7,292.25 113.9,295.55 115,298.85 C115.9,301.35 116.8,303.75 117.8,306.15 L117.8,306.15 L119.9,310.95 C120.2,311.75 120.7,312.55 121,313.35 C121.8,314.75 122.5,316.35 123.4,317.95 C124,319.25 124.7,320.55 125.4,321.75 L125.4,321.75 L126.5,323.85 C127.9,326.35 129.5,328.85 131.1,331.35 L131.1,331.35 L225.1,270.15 L303,218.75 L310.4,213.95 L381.3,167.15 C381.3,167.15 381.2,167.15 381.2,167.05 C380.4,165.85 379.6,164.55 378.7,163.45 C378.4,163.05 378.1,162.55 377.8,162.25 C377.2,161.35 376.6,160.55 376,159.75 C375.6,159.25 375.2,158.85 374.9,158.35 C374.3,157.75 373.8,156.95 373.2,156.25 L373.2,156.25 L372.1,154.85 C371.4,154.15 370.9,153.45 370.3,152.75 C370,152.25 369.4,151.85 369.1,151.35 C368.4,150.75 367.9,150.05 367.3,149.35 L367.3,149.35 L365.9,147.95 C365.3,147.45 364.7,146.65 364.1,146.05 L364.1,146.05 L359.5,141.45 C359,140.85 358.2,140.25 357.6,139.65 C357.1,139.35 356.7,138.75 356.2,138.45 C355.6,137.75 354.9,137.25 354.2,136.65 C353.6,136.35 353.2,135.85 352.7,135.55 C352,134.95 351.3,134.45 350.6,133.85 C350.1,133.55 349.6,133.05 349.1,132.75 L349.1,132.75 L347,131.15 C346.4,130.85 346,130.35 345.4,130.05 C344.8,129.55 344,129.05 343.3,128.45 C342.7,128.05 342.3,127.65 341.7,127.35 C340.9,126.75 340.2,126.25 339.4,125.75 C338.9,125.45 338.4,125.05 337.8,124.75 C337,124.15 336.3,123.75 335.5,123.25 C335,122.85 334.5,122.55 333.9,122.25 L333.9,122.25 L331.5,120.85 L329.9,119.95 L327.5,118.55 C326.9,118.25 326.4,117.95 325.8,117.65 C325,117.35 324.2,116.75 323.4,116.45 C322.8,116.15 322.3,115.85 321.7,115.55 C320.9,115.25 320.1,114.75 319.3,114.45 C318.6,114.25 318.1,113.85 317.5,113.65 C316.7,113.25 316,112.85 315.1,112.55 C314.5,112.25 313.9,111.95 313.3,111.75 C312.4,111.45 311.7,111.05 310.8,110.75 L310.8,110.75 L309,110.05 C308.1,109.75 307.4,109.45 306.5,109.15 C305.8,109.05 305.2,108.75 304.6,108.55 C303.7,108.25 303,107.85 302.1,107.65 C301.6,107.35 300.8,107.25 300.2,107.05 C299.4,106.75 298.6,106.45 297.7,106.25 C297.1,105.95 296.4,105.75 295.7,105.65 L295.7,105.65 L293.1,104.95 C292.5,104.75 291.8,104.55 291.1,104.45 C290.2,104.15 289.4,103.95 288.5,103.85 L288.5,103.85 L286.4,103.35 C285.5,103.05 284.7,102.85 283.8,102.75 L283.8,102.75 L281.7,102.45 C280.8,102.45 280,102.25 279.1,102.15 C278.5,102.05 277.7,101.95 277,101.85 C276.1,101.75 275.3,101.65 274.4,101.55 C273.6,101.45 272.9,101.45 272.1,101.35 L272.1,101.35 L269.5,101.15 C268.8,101.15 268,101.15 267.2,101.05 C266.4,101.05 265.6,101.05 264.7,100.95 C263.9,100.95 263.1,100.85 262.3,100.85 C261.5,100.85 260.7,100.75 259.8,100.75 L259.8,100.75 Z M247.8,139.6 C288.3,139.6 299.6,171.6 298.5,183.8 C297.6,193.7 297.2,198 296.7,202.8 C296.5,204.5 296.8,205.7 297.3,206.9 L297.3,206.9 L212.5,263 C210.2,259.3 207.7,253.4 205.7,241.7 C203.7,229.6 202.1,237.7 197.7,218.5 C195.4,208.4 199.3,207.7 198.8,202.9 C198.3,198 197.9,193.7 197.1,183.9 C195.9,171.7 207.3,139.6 247.8,139.6 Z" id="Combined-Shape" fill="#000000" fill-rule="nonzero"></path>
    </g>
</svg>