<svg xmlns="http://www.w3.org/2000/svg" width="512" height="512" viewBox="0 0 512 512">
    <path d="M416 409.5s0-22-1.8-33.5c-1.5-9.1-14.1-21.1-67.6-40.8-52.7-19.3-49.4-9.9-49.4-45.5 0-23.1 11.8-9.7 19.2-53.5 2.9-17.2 5.2-5.8 11.6-33.4 3.3-14.5-2.2-15.6-1.6-22.5.7-6.9 1.3-13.1 2.6-27.2 1.5-17.5-14.8-63.6-73-63.6s-74.5 46.1-72.9 63.7c1.2 14.1 1.9 20.3 2.6 27.2.7 6.9-4.9 8-1.6 22.5 6.3 27.6 8.7 16.1 11.6 33.4 7.5 43.8 19.2 30.4 19.2 53.5 0 35.7 3.2 26.3-49.4 45.5-53.5 19.6-66.2 31.7-67.6 40.8-1.9 11.4-1.9 33.4-1.9 33.4h320z"/>
</svg>
