<svg xmlns="http://www.w3.org/2000/svg" width="512" height="512" viewBox="0 0 512 512">
  <path d="M343.46,133.438c40.836,0,52.304,33.548,51.233,46.409-.857,10.289-1.179,14.791-1.715,19.829s3.43,5.895,1.072,16.399c-4.394,20.043-6.109,11.683-8.146,24.33-5.359,32.047-13.612,25.938-13.612,42.658,0,26.045-2.251,20.364,34.727,34.405,37.835,14.362,46.517,23.151,47.588,29.689,1.393,8.36,1.393,80.279,1.393,80.279h-87.353c-.107-16.613-.643-62.808-1.501-68.596-1.286-8.574,0-26.367-48.66-44.909-6.752-2.572-12.433-4.609-17.256-6.324,16.077-7.503,13.29-12.54,13.29-24.544,0-16.827-8.253-10.611-13.505-42.658-2.036-12.54-3.751-4.18-8.146-24.33-2.251-10.611,1.393-11.361,1.072-16.399-.322-4.93-.965-9.432-1.715-19.829-1.179-12.755,10.397-46.409,51.233-46.409M201.016,84.564c52.84,0,67.524,43.408,66.131,59.914-1.035,12.832-1.67,18.671-2.292,24.942l-.066.674c-.643,6.538,4.394,7.503,1.393,21.115-5.681,25.938-7.931,15.113-10.504,31.404-6.752,41.158-17.471,27.01-17.471,48.767,0,28.832-2.144,32.369,27.653,42.872,4.93,1.822,10.504,3.859,17.256,6.324,48.553,18.435,59.914,29.796,61.308,38.264.857,5.573,1.393,24.759,1.501,41.372.107,14.469.107,27.117.107,27.117l.107.107H56s0-57.878,1.715-68.596c1.393-8.467,12.755-19.829,61.093-38.156,47.91-18.221,44.909-15.648,44.909-49.303,0-21.758-10.611-7.61-17.363-48.767-2.68-16.292-4.716-5.359-10.504-31.404-3.108-13.612,2.036-14.577,1.393-21.115s-1.286-12.326-2.358-25.616c-1.393-16.613,13.29-59.914,66.131-59.914"/>
</svg>