<?xml version="1.0" encoding="UTF-8"?>
<svg id="Layer_1" xmlns="http://www.w3.org/2000/svg" version="1.1" viewBox="0 0 500 500">
  <!-- Generator: Adobe Illustrator 29.1.0, SVG Export Plug-In . SVG Version: 2.1.0 Build 142)  -->
  <path d="M348.4,112.1c45.9,0,58.8,37.7,57.6,52.2-1,11.6-1.3,16.6-1.9,22.3s3.9,6.6,1.2,18.4c-4.9,22.5-6.9,13.1-9.2,27.4-6,36.1-15.3,29.2-15.3,48,0,29.3-2.5,22.9,39.1,38.7,42.6,16.2,52.3,26,53.5,33.4,1.6,9.4,1.6,90.3,1.6,90.3h-98.3c-.1-18.7-.7-70.7-1.7-77.2-1.4-9.6,0-29.7-54.7-50.5-7.6-2.9-14-5.2-19.4-7.1,18.1-8.4,15-14.1,15-27.6s-9.3-11.9-15.2-48c-2.3-14.1-4.2-4.7-9.2-27.4-2.5-11.9,1.6-12.8,1.2-18.4-.4-5.5-1.1-10.6-1.9-22.3-1.3-14.3,11.7-52.2,57.6-52.2M188.1,57.1c59.4,0,76,48.8,74.4,67.4-1.2,14.4-1.9,21-2.6,28.1v.8c-.8,7.4,4.9,8.4,1.5,23.8-6.4,29.2-8.9,17-11.8,35.3-7.6,46.3-19.7,30.4-19.7,54.9s-2.4,36.4,31.1,48.2c5.5,2,11.8,4.3,19.4,7.1,54.6,20.7,67.4,33.5,69,43,1,6.3,1.6,27.9,1.7,46.5.1,16.3.1,30.5.1,30.5h.1c0,.1-326.4.1-326.4.1,0,0,0-65.1,1.9-77.2,1.6-9.5,14.3-22.3,68.7-42.9,53.9-20.5,50.5-17.6,50.5-55.5s-11.9-8.6-19.5-54.9c-3-18.3-5.3-6-11.8-35.3-3.5-15.3,2.3-16.4,1.6-23.8s-1.4-13.9-2.7-28.8c-1.6-18.7,15-67.4,74.4-67.4"/>
</svg>