<svg xmlns="http://www.w3.org/2000/svg" width="512" height="512" viewBox="0 0 512 512">
    <path d="M192.2 182.6c.6 6.2-4.4 7.2-1.4 20.3 5.7 24.9 7.8 14.5 10.4 30.1 2.6 15.2 5.8 22.8 8.7 27.5l110-72.7c-.6-1.6-1-3.1-.8-5.3.6-6.2 1.2-11.8 2.3-24.6 1.4-15.8-13.3-57.3-65.8-57.3s-67.2 41.5-65.7 57.4c1.1 12.7 1.7 18.4 2.3 24.6z"/>
    <path d="M492.9 246c-.5-37-9.4-72.6-26-104.5-11.3-21.8-26.2-41.9-44.3-59.6-1.4-1.3-2.8-2.7-4.2-4-.4-.4-.9-.8-1.4-1.2-1-.9-1.9-1.8-2.9-2.6-.6-.5-1.1-1-1.7-1.5-.9-.8-1.8-1.5-2.6-2.3-.6-.5-1.3-1-1.9-1.6-.8-.7-1.7-1.4-2.5-2.1-.7-.5-1.3-1.1-2-1.6-.8-.6-1.7-1.3-2.5-1.9-.7-.5-1.4-1-2.1-1.6-.8-.6-1.6-1.2-2.5-1.8-.7-.5-1.4-1-2.2-1.5-.8-.6-1.6-1.2-2.5-1.7-.7-.5-1.5-1-2.2-1.5-.8-.6-1.6-1.1-2.5-1.7-.8-.5-1.5-1-2.3-1.5s-1.6-1.1-2.5-1.6c-.8-.5-1.6-.9-2.4-1.4s-1.7-1-2.5-1.5-1.6-.9-2.4-1.4-1.7-1-2.5-1.4-1.6-.9-2.4-1.3c-.8-.5-1.7-.9-2.5-1.4-.8-.4-1.6-.8-2.5-1.3-.8-.4-1.7-.9-2.6-1.3-.8-.4-1.7-.8-2.5-1.2-.9-.4-1.7-.8-2.6-1.2-.8-.4-1.7-.8-2.5-1.1-.9-.4-1.7-.8-2.6-1.2s-1.7-.7-2.6-1.1c-.9-.4-1.7-.7-2.6-1.1-.9-.3-1.7-.7-2.6-1s-1.8-.7-2.6-1c-.9-.3-1.7-.6-2.6-1-.9-.3-1.8-.6-2.7-1-.9-.3-1.8-.6-2.6-.9l-2.7-.9c-.9-.3-1.8-.6-2.7-.8-.9-.3-1.8-.6-2.7-.8-.9-.3-1.8-.5-2.7-.8-.9-.3-1.8-.5-2.7-.8-.9-.2-1.8-.5-2.7-.7-.9-.2-1.8-.5-2.8-.7l-2.7-.6c-.9-.2-1.9-.4-2.8-.6l-2.7-.6c-.9-.2-1.9-.4-2.8-.6s-1.8-.3-2.7-.5c-.9-.2-1.9-.3-2.8-.5s-1.8-.3-2.8-.4c-.9-.1-1.9-.3-2.9-.4-.9-.1-1.8-.3-2.8-.4s-1.9-.2-2.9-.4c-.9-.1-1.9-.2-2.8-.3-1-.1-1.9-.2-2.9-.3-.9-.1-1.9-.2-2.8-.2-1-.1-1.9-.1-2.9-.2-.9-.1-1.9-.1-2.8-.2-1-.1-2-.1-2.9-.1s-1.9-.1-2.8-.1c-1 0-2-.1-2.9-.1h-7.2c-9.7.1-19.4.8-28.9 2.1-13.3 1.8-26.3 4.7-39 8.7-3.6 1.1-7.2 2.4-10.7 3.7-21.3 7.9-41.3 18.9-59.6 32.8-9.1 7-17.8 14.6-26 23-9.5 9.8-18.1 20.2-25.6 31.2-2.2 3.1-4.2 6.3-6.2 9.6-5 8.1-9.5 16.5-13.4 25-.8 1.7-1.6 3.4-2.3 5.2-2.2 5.2-4.3 10.5-6.1 15.9s-3.5 10.8-4.9 16.3c-1 3.7-1.8 7.4-2.6 11.1-.8 3.7-1.5 7.5-2.1 11.2-.3 1.9-.6 3.8-.8 5.7-.5 3.8-.9 7.6-1.3 11.4-.7 7.7-.9 15.4-.8 23.2.1 9.7.8 19.4 2.1 28.9 1.5 11.4 3.9 22.6 7.1 33.5 1.1 3.6 2.2 7.3 3.4 10.8 2.5 7.2 5.3 14.2 8.4 21.1 3.1 6.9 6.6 13.6 10.5 20.1 2.9 4.9 5.9 9.7 9.2 14.4 2.2 3.1 4.4 6.2 6.7 9.3 2.3 3 4.7 6 7.2 9 1.2 1.5 2.5 2.9 3.8 4.4 2.6 2.9 5.2 5.7 7.9 8.5 1.4 1.4 2.7 2.8 4.1 4.1 1.4 1.3 2.8 2.7 4.2 4 .5.4 1 .9 1.5 1.3.9.9 1.9 1.7 2.8 2.5l1.8 1.5c.9.7 1.7 1.5 2.6 2.2.6.5 1.3 1.1 1.9 1.6.8.7 1.7 1.4 2.5 2 .7.5 1.4 1.1 2 1.6.8.6 1.6 1.3 2.5 1.9.7.5 1.4 1 2.1 1.6.8.6 1.6 1.2 2.5 1.8.7.5 1.5 1 2.2 1.5.8.6 1.6 1.2 2.5 1.7.7.5 1.5 1 2.2 1.5.8.6 1.6 1.1 2.5 1.7.8.5 1.5 1 2.3 1.5s1.6 1.1 2.5 1.6c.8.5 1.6 1 2.4 1.4.8.5 1.7 1 2.5 1.5s1.6.9 2.4 1.4c.8.5 1.7 1 2.5 1.4s1.6.9 2.4 1.3c.8.5 1.7.9 2.5 1.4.8.4 1.6.8 2.5 1.3.8.4 1.7.9 2.6 1.3.8.4 1.7.8 2.5 1.2.9.4 1.7.8 2.6 1.2.8.4 1.7.8 2.5 1.1.9.4 1.7.8 2.6 1.2.9.4 1.7.7 2.6 1.1.9.4 1.7.7 2.6 1.1.9.3 1.7.7 2.6 1 .9.3 1.8.7 2.6 1 .9.3 1.7.6 2.6 1 .9.3 1.8.6 2.7 1 .9.3 1.8.6 2.6.9l2.7.9c.9.3 1.8.6 2.7.8.9.3 1.8.6 2.7.8.9.3 1.8.5 2.7.8s1.8.5 2.7.8c.9.2 1.8.5 2.7.7s1.8.5 2.8.7l2.7.6c.9.2 1.9.4 2.8.6l2.7.6c.9.2 1.9.4 2.8.6.9.2 1.8.3 2.7.5s1.9.3 2.8.5c.9.2 1.8.3 2.8.4.9.1 1.9.3 2.9.4.9.1 1.8.3 2.8.4s1.9.2 2.9.4c.9.1 1.9.2 2.8.3 1 .1 1.9.2 2.9.3.9.1 1.9.2 2.8.2 1 .1 1.9.1 2.9.2.9.1 1.9.1 2.8.2 1 .1 2 .1 2.9.1s1.9.1 2.8.1c1 0 2 .1 2.9.1h7.2c9.7-.1 19.4-.8 28.9-2.1 13.3-1.8 26.3-4.7 39-8.7 3.6-1.1 7.2-2.4 10.7-3.7 5.3-2 10.6-4.1 15.7-6.5 3.4-1.6 6.8-3.2 10.2-5 13.4-7 26.2-15.3 38.2-24.9 3-2.4 5.9-4.9 8.8-7.4 4.3-3.8 8.5-7.8 12.6-12 2.7-2.8 5.4-5.6 7.9-8.5 2.6-2.9 5-5.8 7.4-8.8s4.7-6 7-9.1 4.4-6.2 6.5-9.4c5.2-8 9.9-16.2 14-24.7 10-20.4 16.9-42.2 20.5-64.8.3-1.9.6-3.8.8-5.7.5-3.9 1-7.9 1.3-11.9.3-3.6.5-7.2.7-10.8.1-2 .1-4.1.2-6.1-.3-1.9-.3-3.8-.3-5.8zm-408 85.5c-.5-1-1-2-1.4-3.1-.9-2-1.8-4.1-2.7-6.2-1.3-3.1-2.5-6.3-3.6-9.5-1.5-4.3-2.9-8.6-4.1-13-.9-3.3-1.7-6.7-2.4-10-1.9-9-3.3-18.3-3.9-27.7-.2-3.5-.4-7.1-.4-10.7-.1-11.7.8-23.1 2.6-34.2.3-1.6.5-3.2.9-4.7.9-4.7 2-9.4 3.2-14 .8-3.1 1.7-6.1 2.7-9.1 2.4-7.5 5.3-14.8 8.6-21.9.7-1.4 1.3-2.8 2-4.2 2.8-5.6 5.8-11 9.1-16.3 1.6-2.6 3.4-5.2 5.1-7.8.9-1.3 1.8-2.5 2.7-3.8 2.7-3.8 5.6-7.4 8.6-11 2-2.4 4.1-4.7 6.2-6.9 2.1-2.3 4.3-4.5 6.5-6.6 4.4-4.3 9.1-8.4 13.9-12.3 2.4-1.9 4.9-3.8 7.4-5.7 10-7.3 20.8-13.7 32.1-19 5.7-2.7 11.5-5 17.5-7.1l4.5-1.5c7.5-2.4 15.3-4.4 23.2-6 6.3-1.2 12.8-2.1 19.3-2.7 4.9-.4 9.8-.7 14.8-.7h7.5c1.1 0 2.2.1 3.2.1s2 .1 3 .1c1.1.1 2.2.1 3.2.2s2 .1 2.9.2l3.3.3c1 .1 1.9.2 2.9.3 1.1.1 2.2.3 3.3.4.9.1 1.9.3 2.8.4 1.1.2 2.2.4 3.3.5.9.2 1.8.3 2.7.5 1.1.2 2.2.4 3.3.7l2.7.6c1.1.2 2.2.5 3.3.8.9.2 1.8.4 2.6.6l3.3.9c.9.2 1.7.5 2.6.7 1.1.3 2.2.6 3.2 1 .8.3 1.7.5 2.5.8 1.1.3 2.1.7 3.2 1.1.8.3 1.6.6 2.5.8 1.1.4 2.1.8 3.2 1.2l2.4.9c1.1.4 2.1.9 3.2 1.3.8.3 1.6.6 2.3 1 1.1.5 2.1.9 3.1 1.4.8.3 1.5.7 2.3 1 1 .5 2.1 1 3.1 1.5.7.4 1.5.7 2.2 1.1 1 .5 2 1.1 3.1 1.6.7.4 1.5.8 2.2 1.2 1 .6 2 1.1 3 1.7l2.1 1.2 3 1.8c.7.4 1.4.8 2.1 1.3 1 .6 1.9 1.2 2.9 1.9.7.4 1.4.9 2 1.3 1 .6 1.9 1.3 2.9 2 .7.5 1.3.9 2 1.4.9.7 1.9 1.4 2.8 2 .7.5 1.3 1 2 1.4l2.7 2.1c.6.5 1.3 1 1.9 1.5.9.7 1.8 1.5 2.7 2.2.6.5 1.2 1 1.9 1.5.9.8 1.7 1.5 2.6 2.3.6.5 1.2 1.1 1.8 1.6.8.8 1.7 1.6 2.5 2.4.6.6 1.2 1.1 1.8 1.7l2.4 2.4c.6.6 1.2 1.1 1.7 1.7.8.8 1.6 1.7 2.4 2.5.6.6 1.1 1.2 1.7 1.8.8.9 1.5 1.7 2.3 2.6.5.6 1.1 1.2 1.6 1.8.8.9 1.5 1.8 2.3 2.7l1.5 1.8c.8.9 1.5 1.9 2.2 2.8.5.6.9 1.2 1.4 1.8.8 1 1.6 2.1 2.3 3.2.4.5.8 1 1.2 1.6 1.1 1.5 2.2 3.1 3.2 4.6 0 .1.1.1.2.2L329 202.5l-9.6 6.3-100.9 66.7-120.4 79.4c-2.1-3.2-4.1-6.4-6-9.8l-1.5-2.7c-.9-1.6-1.8-3.2-2.6-4.9-1.1-2-2.1-4-3.1-6zm367.2-65.3c-.3 3.2-.7 6.5-1.1 9.7-1.4 9.6-3.4 19-6.1 28.1-.9 3-1.9 6-2.9 9-1.6 4.5-3.3 8.8-5.2 13.1-3.1 7.2-6.7 14.1-10.7 20.8-1.6 2.7-3.2 5.3-4.9 7.9-4.5 6.8-9.4 13.4-14.7 19.6-5.8 6.7-12 13.1-18.6 18.9-4.6 4.1-9.5 8-14.5 11.7s-10.2 7.1-15.6 10.3C329.7 432 297 441.7 262 442.1h-6.1c-.9 0-1.7 0-2.6-.1-.8 0-1.6-.1-2.4-.1-.8 0-1.7-.1-2.5-.1s-1.6-.1-2.4-.2c-.8-.1-1.7-.1-2.5-.2s-1.6-.1-2.4-.2c-.8-.1-1.7-.2-2.5-.3-.8-.1-1.6-.2-2.3-.3-.8-.1-1.7-.2-2.5-.3-.8-.1-1.5-.2-2.3-.3-.8-.1-1.7-.3-2.5-.4s-1.5-.2-2.3-.4c-.8-.1-1.7-.3-2.5-.5-.7-.1-1.5-.3-2.2-.4-.8-.2-1.7-.3-2.5-.5-.7-.2-1.5-.3-2.2-.5-.8-.2-1.7-.4-2.5-.6-.7-.2-1.4-.3-2.1-.5-.8-.2-1.7-.4-2.5-.7l-2.1-.6c-.8-.2-1.7-.5-2.5-.7l-2.1-.6c-.8-.3-1.7-.5-2.5-.8-.7-.2-1.4-.4-2-.7-.8-.3-1.7-.6-2.5-.9-.7-.2-1.3-.5-2-.7-.8-.3-1.6-.6-2.5-.9-.7-.2-1.3-.5-2-.7-.8-.3-1.6-.7-2.5-1-.6-.3-1.3-.5-1.9-.8-.8-.3-1.6-.7-2.4-1-.6-.3-1.3-.5-1.9-.8-.8-.4-1.6-.7-2.4-1.1-.6-.3-1.2-.6-1.9-.9l-2.4-1.2-1.8-.9-2.4-1.2-1.8-.9c-.8-.4-1.6-.9-2.3-1.3-.6-.3-1.2-.6-1.8-1-.8-.4-1.5-.9-2.3-1.4-.6-.3-1.2-.7-1.7-1-.8-.5-1.5-.9-2.3-1.4-.6-.4-1.1-.7-1.7-1.1-.8-.5-1.5-1-2.2-1.5-.6-.4-1.1-.7-1.7-1.1-.7-.5-1.5-1-2.2-1.5-.5-.4-1.1-.7-1.6-1.1-.7-.5-1.5-1-2.2-1.6-.5-.4-1.1-.8-1.6-1.2-.7-.5-1.4-1.1-2.2-1.6-.5-.4-1-.8-1.6-1.2-.7-.6-1.4-1.1-2.1-1.7l-1.5-1.2-2.1-1.8c-.5-.4-1-.8-1.4-1.2-.7-.6-1.4-1.3-2.2-1.9-.4-.4-.9-.8-1.3-1.2-.8-.7-1.5-1.4-2.3-2.1-.4-.3-.7-.7-1.1-1-1.1-1-2.1-2-3.2-3.1l-.2-.2 16.5-10.9 153.3-101.4 145.7-96.3c.5 1.3 1.1 2.7 1.6 4 1.5 4.1 2.9 8.2 4.2 12.4l1.2 4.2c.8 2.8 1.5 5.7 2.1 8.5 2.9 12.9 4.5 26.3 4.7 40-.2 7-.4 13.6-1 20z"/>
    <path d="M261.8 425.1c47-.6 91-19.5 123.9-53.2 1-1 2-2.1 3-3.1 3.3-3.5 6.4-7.2 9.3-10.9-2.1-8.1-14.4-18.7-60.7-35.7-39.3-14.4-44.1-11.1-44.5-27.7L173 373.7 151.4 388c30.8 24.1 68.5 37.2 108.2 37.2.7-.1 1.5-.1 2.2-.1z"/>
</svg>
