<svg xmlns="http://www.w3.org/2000/svg" width="512" height="512" viewBox="0 0 512 512">
  <path d="M259.407,56c.778,0,1.666.111,2.555.111.666,0,1.555.111,2.333.111s1.666,0,2.555.111c.666,0,1.555,0,2.333.111.889,0,1.666,0,2.555.111.666,0,1.555,0,2.333.111.889.111,1.666.111,2.555.222.666.111,1.555.111,2.333.222.889.222,1.666.222,2.555.333l2.333.333c.889.111,1.777.222,2.555.333l2.333.333c.666.111,1.555.222,2.333.333l2.333.333c.666.222,1.555.444,2.333.555l2.333.555c.666.222,1.555.444,2.333.555l2.333.555c.778.333,1.555.555,2.333.666.778.333,1.555.555,2.333.666.778.333,1.555.444,2.333.666.778.333,1.555.444,2.333.666.778.111,1.555.444,2.333.666.778.111,1.555.444,2.333.666l2.333.778,2.222.778c.778.333,1.555.666,2.333.889.666.333,1.444.666,2.222.889.666.222,1.444.666,2.222.889.666.222,1.444.666,2.222.889.666.333,1.444.666,2.222,1,.666.333,1.444.666,2.222,1,.666.333,1.444.666,2.222,1,.555.333,1.444.666,2.111,1s1.444.666,2.222,1c.555.333,1.444.666,2.111,1l2.222,1.111c.778.444,1.444.778,2.111,1.111.555.444,1.444.889,2.111,1.222s1.333.778,1.999,1.111c.555.333,1.444.666,2.111,1.222.666.444,1.333.889,1.999,1.222.555.333,1.444.889,2.111,1.222.666.444,1.333.889,1.999,1.222.778.333,1.333,1,2.111,1.333s1.333.889,1.999,1.222c.778.555,1.444,1,2.111,1.555.666.333,1.222.889,1.888,1.222.778.555,1.444,1,2.111,1.555.666.333,1.222.889,1.888,1.222.778.555,1.444,1,2.111,1.555.555.444,1.111,1,1.777,1.333.555.555,1.444,1.111,2.111,1.666.666.333,1.111,1,1.777,1.333.555.555,1.444,1.111,2.111,1.777.555.444,1.111,1,1.666,1.333.666.778,1.444,1.333,2.222,1.999.555.333,1,.889,1.555,1.222.889.666,1.666,1.444,2.555,2.222.444.333.889.666,1.222,1,1.333,1,2.444,2.222,3.666,3.332,15.44,15.218,28.325,32.435,37.989,51.097,14.218,27.437,21.883,57.873,22.216,89.642,0,1.777,0,3.443.555,5.554,0,1.666,0,3.443-.111,5.221-.333,3.11-.444,6.109-.666,9.22-.222,3.443-.778,6.887-1.111,10.219-.111,1.666-.444,3.221-.666,4.888-3.11,19.439-8.998,37.989-17.662,55.54-3.443,7.22-7.442,14.218-11.997,21.105-1.888,2.666-3.666,5.332-5.665,7.998s-3.999,5.11-5.998,7.776c-2.111,2.555-4.11,4.999-6.332,7.553-2.111,2.444-4.443,4.888-6.776,7.22-3.555,3.555-7.109,6.998-10.775,10.219-2.555,2.111-4.888,4.332-7.553,6.332-10.219,8.22-21.216,15.329-32.769,21.327-2.888,1.444-5.887,2.888-8.775,4.221-4.443,2.111-8.998,3.888-13.552,5.665-2.999,1.111-5.998,2.111-9.109,3.11-10.775,3.555-21.994,5.998-33.324,7.553-8.109,1.111-16.44,1.666-24.771,1.777h-6.109c-.778,0-1.666-.111-2.555-.111-.666,0-1.555-.111-2.333-.111s-1.666,0-2.555-.111c-.666,0-1.555,0-2.333-.111-.889,0-1.666,0-2.555-.111-.666,0-1.555,0-2.333-.111-.889-.111-1.666-.111-2.555-.222-.666-.111-1.555-.111-2.333-.222-.889-.222-1.666-.222-2.555-.333l-2.333-.333c-.889-.111-1.777-.222-2.555-.333l-2.333-.333c-.666-.111-1.555-.222-2.333-.333l-2.333-.333c-.666-.222-1.555-.444-2.333-.555l-2.333-.555c-.666-.222-1.555-.444-2.333-.555l-2.333-.555c-.778-.333-1.555-.555-2.333-.666-.778-.333-1.555-.555-2.333-.666-.778-.333-1.555-.333-2.333-.666s-1.555-.444-2.333-.666c-.778-.111-1.555-.444-2.333-.666-.778-.111-1.555-.444-2.333-.666l-2.333-.778-2.222-.778c-.778-.333-1.555-.666-2.333-.889-.666-.333-1.444-.666-2.222-.889-.666-.222-1.555-.666-2.222-.889s-1.444-.666-2.222-.889c-.666-.333-1.444-.666-2.222-1-.666-.333-1.555-.666-2.222-1s-1.444-.666-2.222-1c-.555-.333-1.444-.666-2.111-1s-1.444-.666-2.222-1c-.555-.333-1.444-.666-2.111-1l-2.222-1.111c-.778-.444-1.444-.778-2.111-1.111-.555-.444-1.444-.889-2.111-1.222s-1.333-.778-1.999-1.111c-.555-.333-1.444-.889-2.111-1.222-.666-.444-1.333-.889-1.999-1.222-.555-.333-1.444-.889-2.111-1.222s-1.333-.889-1.999-1.222c-.778-.333-1.444-1-2.111-1.333-.778-.333-1.333-.889-1.999-1.222-.778-.555-1.444-1-2.111-1.555-.666-.333-1.222-.889-1.888-1.222-.778-.555-1.444-1-2.111-1.555-.666-.333-1.222-.889-1.888-1.222-.778-.555-1.444-1-2.111-1.555-.555-.444-1.111-1-1.777-1.333-.778-.555-1.444-1.111-2.111-1.666-.555-.333-1.111-1-1.777-1.333-.555-.555-1.444-1.111-2.111-1.777-.555-.333-1.111-1-1.666-1.333l-2.222-1.888-1.555-1.222c-.666-.555-1.555-1.333-2.333-2.111-.333-.333-.889-.778-1.222-1.111-1.333-1-2.444-2.222-3.666-3.332l-3.555-3.555c-2.222-2.333-4.554-4.665-6.776-7.22-1.111-1.222-2.222-2.555-3.221-3.777-2.111-2.666-4.11-5.11-6.109-7.776s-3.888-5.332-5.776-7.998c-2.888-3.999-5.332-8.109-7.887-12.33-3.332-5.554-6.332-11.33-8.997-17.217-2.666-5.998-5.11-11.997-7.22-18.106-1-2.999-1.888-6.109-2.888-9.22-2.777-9.442-4.888-18.995-6.109-28.77-1.111-8.109-1.666-16.44-1.777-24.771-.111-6.665,0-13.219.666-19.883l1.111-9.775c.111-1.666.444-3.221.666-4.888.555-3.332,1.111-6.554,1.777-9.664.666-3.221,1.333-6.443,2.222-9.553,1.222-4.776,2.666-9.331,4.221-13.996s3.332-9.109,5.221-13.663c.666-1.666,1.333-2.999,1.999-4.554,3.443-7.22,7.331-14.329,11.552-21.327,1.666-2.888,3.443-5.554,5.332-8.22,6.443-9.442,13.885-18.439,21.994-26.77,6.998-7.22,14.44-13.774,22.216-19.772,15.773-11.886,32.88-21.327,51.097-28.103,2.999-1.111,5.998-2.111,9.109-3.11,10.775-3.555,21.994-5.998,33.324-7.553,8.109-1.111,16.44-1.666,24.771-1.777h5.776ZM409.365,195.073l-124.854,82.533-131.408,86.865-14.107,9.331.111.111c1,.889,1.777,1.777,2.777,2.666.333.222.666.666,1,.889.778.555,1.333,1.111,1.999,1.777.333.333.778.666,1.111,1,.666.555,1.222,1.111,1.888,1.666.333.333.889.666,1.222,1l1.777,1.555,1.222,1c.555.555,1.111,1,1.777,1.555.444.333,1,.666,1.333,1,.666.333,1.222,1,1.888,1.333.333.333,1,.666,1.333,1,.666.444,1.222,1,1.888,1.333.333.333,1,.666,1.333,1,.666.333,1.222.889,1.888,1.222.555.333,1,.666,1.555,1,.666.333,1.222.889,1.888,1.222.555.333,1,.666,1.555,1,.778.444,1.333.889,1.999,1.222.555.222,1,.666,1.555.889.778.444,1.333.889,1.999,1.222.555.333,1,.666,1.555.889.666.333,1.333.778,1.999,1.111l1.444.666,5.554,2.777c.666.222,1.111.555,1.666.778l1.999,1c.555.333,1.111.444,1.666.666.666.222,1.333.666,1.999.889.555.333,1.111.444,1.666.666.778.222,1.444.666,2.111.889.666.333,1.111.555,1.777.666.778.222,1.444.555,2.111.778.666.333,1.111.555,1.777.666.555.222,1.444.555,2.111.778.555.333,1.111.555,1.777.666.555.333,1.444.444,2.111.666l1.777.555c.555.333,1.444.555,2.111.666l1.777.555c.555.333,1.444.555,2.111.666.555.111,1.111.222,1.777.333.555.222,1.444.444,2.111.555l1.888.333c.555.111,1.444.222,2.111.333l1.888.333c.555.111,1.444.222,2.111.333.778.222,1.333.222,1.999.333.555.111,1.444.222,2.111.333.778.111,1.333.111,1.999.222.555.111,1.444.111,2.111.222s1.333.111,1.999.222c.555.111,1.444.222,2.111.222s1.333,0,1.999.111c.555,0,1.444.111,2.111.111s1.333.111,1.999.111c.555,0,1.444.111,2.111.111s1.333.111,1.999.111c.666.111,1.444.111,2.222.111h5.221c29.992-.333,57.984-8.664,82.088-22.994,4.554-2.777,9.109-5.776,13.33-8.886,4.221-3.11,8.331-6.443,12.33-9.997,5.776-4.999,10.997-10.442,15.996-16.218,4.665-5.221,8.775-10.886,12.663-16.773,1.444-2.222,2.888-4.443,4.221-6.776,3.332-5.776,6.443-11.775,9.109-17.884,1.666-3.666,3.221-7.331,4.554-11.219.889-2.666,1.777-5.11,2.555-7.776,2.333-7.887,3.999-15.884,5.221-24.104.333-2.666.778-5.554,1-8.331.555-5.554.778-11.219,1-16.773-.111-11.663-1.444-23.216-3.999-34.213-.555-2.333-1.111-4.888-1.777-7.22l-1-3.666c-1.111-3.666-2.444-7.109-3.666-10.664-.333-1-1-2.222-1.333-3.332M283.844,297.655c.333,14.218,4.332,11.441,38.101,23.771,39.656,14.663,50.208,23.66,51.986,30.658-2.444,3.221-5.11,6.332-7.998,9.331l-2.666,2.666c-28.214,28.881-65.982,45.099-106.193,45.654h-1.888c-33.991,0-66.426-11.219-92.752-31.88l18.55-12.219,102.86-67.981ZM259.629,90.768h-6.332c-4.332,0-8.442.333-12.663.666-5.554.555-11.219,1.333-16.551,2.333-6.776,1.333-13.552,3.11-19.883,5.11l-3.888,1.222c-5.11,1.888-10.108,3.777-14.996,6.109-9.664,4.443-18.884,9.997-27.548,16.218-2.111,1.666-4.332,3.221-6.332,4.888-4.11,3.332-8.109,6.887-11.886,10.553-1.999,1.777-3.888,3.666-5.665,5.665-1.777,1.888-3.555,3.888-5.332,5.887-2.555,2.999-4.999,6.109-7.331,9.331-.778,1.111-1.555,2.111-2.333,3.221-1.444,2.111-2.999,4.443-4.332,6.665-2.777,4.665-5.443,9.22-7.776,13.996-.666,1.333-1.111,2.444-1.777,3.666-2.777,6.109-5.332,12.441-7.331,18.773-.778,2.555-1.666,5.11-2.333,7.776-1,3.999-1.999,7.998-2.777,11.997-.444,1.222-.555,2.666-.778,3.999-1.555,9.553-2.333,19.328-2.222,29.325,0,2.999.222,6.109.333,9.109.444,8.109,1.666,15.996,3.332,23.771.444,2.888,1.222,5.776,1.999,8.664,1,3.777,2.333,7.442,3.555,11.108,1,2.777,1.999,5.443,3.11,8.109l2.333,5.332c.333.889.889,1.777,1.222,2.666.889,1.555,1.666,3.332,2.666,5.11.666,1.444,1.444,2.888,2.222,4.221l1.222,2.333c1.555,2.777,3.332,5.554,5.11,8.331l104.415-67.981,86.531-57.095,8.22-5.332,78.756-51.986s-.111,0-.111-.111c-.889-1.333-1.777-2.777-2.777-3.999-.333-.444-.666-1-1-1.333-.666-1-1.333-1.888-1.999-2.777-.444-.555-.889-1-1.222-1.555-.666-.666-1.222-1.555-1.888-2.333l-1.222-1.555c-.778-.778-1.333-1.555-1.999-2.333-.333-.555-1-1-1.333-1.555-.778-.666-1.333-1.444-1.999-2.222l-1.555-1.555c-.666-.555-1.333-1.444-1.999-2.111l-5.11-5.11c-.555-.666-1.444-1.333-2.111-1.999-.555-.333-1-1-1.555-1.333-.666-.778-1.444-1.333-2.222-1.999-.666-.333-1.111-.889-1.666-1.222-.778-.666-1.555-1.222-2.333-1.888-.555-.333-1.111-.889-1.666-1.222l-2.333-1.777c-.666-.333-1.111-.889-1.777-1.222-.666-.555-1.555-1.111-2.333-1.777-.666-.444-1.111-.889-1.777-1.222-.889-.666-1.666-1.222-2.555-1.777-.555-.333-1.111-.778-1.777-1.111-.889-.666-1.666-1.111-2.555-1.666-.555-.444-1.111-.778-1.777-1.111l-2.666-1.555-1.777-1-2.666-1.555c-.666-.333-1.222-.666-1.888-1-.889-.333-1.777-1-2.666-1.333-.666-.333-1.222-.666-1.888-1-.889-.333-1.777-.889-2.666-1.222-.778-.222-1.333-.666-1.999-.889-.889-.444-1.666-.889-2.666-1.222-.666-.333-1.333-.666-1.999-.889-1-.333-1.777-.778-2.777-1.111l-1.999-.778c-1-.333-1.777-.666-2.777-1-.778-.111-1.444-.444-2.111-.666-1-.333-1.777-.778-2.777-1-.555-.333-1.444-.444-2.111-.666-.889-.333-1.777-.666-2.777-.889-.666-.333-1.444-.555-2.222-.666l-2.888-.778c-.666-.222-1.444-.444-2.222-.555-1-.333-1.888-.555-2.888-.666l-2.333-.555c-1-.333-1.888-.555-2.888-.666l-2.333-.333c-1,0-1.888-.222-2.888-.333-.666-.111-1.555-.222-2.333-.333-1-.111-1.888-.222-2.888-.333-.889-.111-1.666-.111-2.555-.222l-2.888-.222c-.778,0-1.666,0-2.555-.111-.889,0-1.777,0-2.777-.111-.889,0-1.777-.111-2.666-.111s-1.777-.111-2.777-.111M246.299,133.923c44.987,0,57.54,35.546,56.318,49.097-1,10.997-1.444,15.773-1.999,21.105-.222,1.888.111,3.221.666,4.554l-94.196,62.316c-2.555-4.11-5.332-10.664-7.553-23.66-2.222-13.441-3.999-4.443-8.886-25.771-2.555-11.219,1.777-11.997,1.222-17.329-.555-5.443-1-10.219-1.888-21.105-1.333-13.552,11.33-49.209,56.318-49.209"/>
</svg>