<svg xmlns="http://www.w3.org/2000/svg" width="512" height="512" viewBox="0 0 512 512">
    <path d="M203.8 149.1c.5 4.8-3.4 5.5-1.1 15.6 4.4 19.2 6 11.1 8 23.2 2 11.7 4.5 17.6 6.8 21.3l84.8-56.1c-.5-1.2-.8-2.4-.6-4.1.5-4.8.9-9.1 1.8-19 1.1-12.2-10.2-44.2-50.7-44.2s-51.9 32.1-50.7 44.3c.8 9.8 1.2 14.1 1.7 19z"/>
    <path d="M435.8 197.9c-.3-28.6-7.2-56-20-80.7-8.7-16.8-20.3-32.3-34.2-46-1.1-1-2.1-2.1-3.3-3-.3-.3-.7-.6-1.1-.9-.8-.7-1.5-1.4-2.3-2-.5-.3-.9-.8-1.4-1.1-.7-.6-1.4-1.1-2-1.8-.5-.3-1-.8-1.5-1.2-.6-.6-1.4-1.1-1.9-1.6-.6-.3-1-.9-1.6-1.2-.6-.5-1.4-1-1.9-1.5-.6-.3-1.1-.8-1.6-1.2-.6-.5-1.2-.9-1.9-1.4-.6-.3-1.1-.8-1.7-1.1-.6-.5-1.2-.9-1.9-1.4-.6-.3-1.1-.8-1.7-1.1-.6-.5-1.2-.9-1.9-1.4-.6-.3-1.1-.8-1.8-1.1-.7-.3-1.2-.9-1.9-1.2-.6-.3-1.2-.7-1.8-1.1-.6-.3-1.4-.8-1.9-1.1-.6-.3-1.2-.7-1.8-1.1-.6-.5-1.4-.8-1.9-1.1-.6-.3-1.2-.7-1.8-1-.6-.3-1.4-.7-1.9-1.1-.6-.3-1.2-.6-1.9-1l-2-1c-.6-.3-1.4-.6-1.9-.9-.7-.3-1.4-.6-2-.9-.6-.3-1.4-.6-1.9-.9-.7-.3-1.4-.6-2-.9-.7-.3-1.4-.6-2-.9-.7-.3-1.4-.6-2-.9-.7-.2-1.4-.6-2-.8-.7-.2-1.4-.6-2-.8-.7-.2-1.4-.5-2-.8-.7-.2-1.4-.5-2.1-.8l-2-.7-2.1-.7c-.7-.2-1.4-.5-2.1-.6-.7-.2-1.4-.5-2.1-.6-.7-.2-1.4-.3-2.1-.6-.7-.2-1.4-.3-2.1-.6-.7-.1-1.4-.3-2.1-.6-.7-.1-1.4-.3-2.1-.6l-2.1-.5c-.7-.1-1.5-.3-2.1-.5l-2.1-.5c-.7-.1-1.5-.3-2.1-.5l-2.1-.3c-.7-.1-1.5-.2-2.1-.3l-2.1-.3c-.7-.1-1.5-.2-2.3-.3l-2.1-.3c-.8-.1-1.5-.1-2.3-.3-.7-.1-1.5-.1-2.1-.2-.8-.1-1.5-.1-2.3-.2-.7-.1-1.5-.1-2.1-.1-.8-.1-1.5-.1-2.3-.1-.7-.1-1.5-.1-2.1-.1-.8-.1-1.6-.1-2.3-.1s-1.5-.1-2.1-.1c-.8 0-1.6-.1-2.3-.1h-5.2c-7.5.1-15 .6-22.3 1.6-10.2 1.4-20.3 3.6-30 6.8-2.8.9-5.5 1.8-8.2 2.8-16.4 6.1-31.8 14.6-46 25.3-7 5.4-13.7 11.3-20 17.8-7.3 7.5-14 15.6-19.8 24.1-1.7 2.4-3.3 4.8-4.8 7.4-3.8 6.3-7.3 12.7-10.4 19.2-.6 1.4-1.2 2.6-1.8 4.1-1.7 4.1-3.3 8.1-4.7 12.3-1.4 4.2-2.7 8.3-3.8 12.6-.8 2.8-1.4 5.7-2 8.6-.6 2.8-1.1 5.7-1.6 8.7-.2 1.5-.5 2.9-.6 4.4l-1 8.8c-.6 6-.7 11.9-.6 17.9.1 7.5.6 15 1.6 22.3 1.1 8.8 3 17.4 5.5 25.9.9 2.8 1.7 5.6 2.6 8.3 1.9 5.5 4.1 10.9 6.5 16.3 2.4 5.3 5.1 10.5 8.1 15.5 2.3 3.8 4.5 7.5 7.1 11.1 1.7 2.4 3.4 4.8 5.2 7.2 1.8 2.4 3.6 4.6 5.5 7 .9 1.1 1.9 2.3 2.9 3.4 2 2.3 4.1 4.4 6.1 6.5l3.2 3.2c1.1 1 2.1 2.1 3.3 3 .3.3.8.7 1.1 1 .7.7 1.5 1.4 2.1 1.9l1.4 1.1 2 1.7c.5.3 1 .9 1.5 1.2.6.6 1.4 1.1 1.9 1.6.6.3 1.1.9 1.6 1.2.6.5 1.2 1 1.9 1.5.6.3 1.1.8 1.6 1.2.6.5 1.2.9 1.9 1.4.6.3 1.1.8 1.7 1.1.6.5 1.2.9 1.9 1.4.6.3 1.1.8 1.7 1.1.6.5 1.2.9 1.9 1.4.6.3 1.1.8 1.8 1.1.6.3 1.2.9 1.9 1.2.6.3 1.2.8 1.8 1.1.6.3 1.4.8 1.9 1.1.6.3 1.2.7 1.8 1.1.6.3 1.4.8 1.9 1.1.6.3 1.2.7 1.8 1s1.4.7 1.9 1.1c.6.3 1.2.6 1.9 1l2 1c.6.3 1.4.6 1.9.9.7.3 1.4.6 2 .9.6.3 1.4.6 1.9.9.7.3 1.4.6 2 .9s1.4.6 2 .9c.7.3 1.4.6 2 .9.7.2 1.4.6 2 .8s1.4.6 2 .8c.7.2 1.4.5 2 .8.7.2 1.4.5 2.1.8l2 .7 2.1.7c.7.2 1.4.5 2.1.6.7.2 1.4.5 2.1.6.7.2 1.4.3 2.1.6s1.4.3 2.1.6c.7.1 1.4.3 2.1.6.7.1 1.4.3 2.1.6l2.1.5c.7.1 1.5.3 2.1.5l2.1.5c.7.1 1.5.3 2.1.5l2.1.3c.7.1 1.5.2 2.1.3l2.1.3c.7.1 1.5.2 2.3.3l2.1.3c.8.1 1.5.1 2.3.3.7.1 1.5.1 2.1.2.8.1 1.5.1 2.3.2.7.1 1.5.1 2.1.1.8.1 1.5.1 2.3.1.7.1 1.5.1 2.1.1.8.1 1.6.1 2.3.1s1.5.1 2.1.1c.8 0 1.6.1 2.3.1h5.5c7.5-.1 15-.6 22.3-1.6 10.2-1.4 20.3-3.6 30-6.8 2.8-.9 5.5-1.8 8.2-2.8 4.1-1.6 8.2-3.2 12.2-5.1 2.6-1.2 5.3-2.5 7.9-3.8 10.4-5.4 20.3-11.8 29.5-19.2 2.4-1.8 4.5-3.8 6.8-5.7 3.3-2.9 6.5-6 9.7-9.2 2.1-2.1 4.2-4.3 6.1-6.5 2-2.3 3.8-4.5 5.7-6.8 1.8-2.4 3.6-4.6 5.4-7 1.8-2.4 3.4-4.8 5.1-7.2 4.1-6.2 7.7-12.5 10.8-19 7.8-15.8 13.1-32.5 15.9-50 .2-1.5.5-2.9.6-4.4.3-3 .8-6.1 1-9.2.2-2.8.3-5.5.6-8.3.1-1.6.1-3.2.1-4.7-.5-1.9-.5-3.4-.5-5zM121 264c-.3-.8-.8-1.6-1.1-2.4l-2.1-4.8c-1-2.4-1.9-4.8-2.8-7.3-1.1-3.3-2.3-6.6-3.2-10-.7-2.6-1.4-5.2-1.8-7.8-1.5-7-2.6-14.1-3-21.4-.1-2.7-.3-5.5-.3-8.2-.1-9 .6-17.8 2-26.4.2-1.2.3-2.5.7-3.6.7-3.6 1.6-7.2 2.5-10.8.6-2.4 1.4-4.7 2.1-7 1.8-5.7 4.1-11.4 6.6-16.9.6-1.1 1-2.1 1.6-3.3 2.1-4.3 4.5-8.4 7-12.6 1.2-2 2.6-4.1 3.9-6 .7-1 1.4-1.9 2.1-2.9 2.1-2.9 4.3-5.7 6.6-8.4 1.6-1.8 3.2-3.6 4.8-5.3 1.6-1.8 3.3-3.5 5.1-5.1 3.4-3.3 7-6.5 10.7-9.5 1.8-1.5 3.8-2.9 5.7-4.4 7.8-5.6 16.1-10.6 24.8-14.6 4.4-2.1 8.9-3.8 13.5-5.5l3.5-1.1c5.7-1.8 11.8-3.4 17.9-4.6 4.8-.9 9.9-1.6 14.9-2.1 3.8-.3 7.5-.6 11.4-.6h5.7c.9 0 1.7.1 2.5.1s1.6.1 2.4.1c.9.1 1.7.1 2.5.1.8.1 1.6.1 2.3.1l2.6.2c.8.1 1.5.1 2.3.2.9.1 1.7.2 2.6.3.7.1 1.5.2 2.1.3.9.1 1.7.3 2.6.3l2.1.3c.9.1 1.7.3 2.6.6l2.1.5c.9.1 1.7.3 2.6.6.7.1 1.4.3 2 .5l2.6.7c.7.1 1.4.3 2 .6.9.2 1.7.5 2.5.8.6.2 1.4.3 1.9.6.9.2 1.6.6 2.5.9.6.2 1.2.5 1.9.6.9.3 1.6.6 2.5.9l1.8.7c.9.3 1.6.7 2.5 1 .6.2 1.2.5 1.8.8.9.3 1.6.7 2.4 1.1.6.2 1.1.6 1.8.8.8.3 1.6.8 2.4 1.1.6.3 1.1.6 1.7.9.8.3 1.6.9 2.4 1.2.6.3 1.1.6 1.7.9l2.4 1.4 1.6.9 2.4 1.4c.6.3 1.1.6 1.6 1 .8.5 1.5.9 2.3 1.5.6.3 1.1.7 1.6 1 .8.5 1.5 1 2.3 1.6.6.3 1 .7 1.6 1.1.7.6 1.5 1.1 2.1 1.6.6.3 1 .8 1.6 1.1l2.1 1.6c.5.3 1 .8 1.5 1.1.7.6 1.4 1.1 2.1 1.7.5.3.9.8 1.5 1.1.7.6 1.4 1.1 2 1.8.5.3.9.9 1.4 1.2.6.6 1.4 1.2 1.9 1.8l1.4 1.4 1.8 1.8 1.4 1.4c.6.6 1.2 1.4 1.8 1.9l1.4 1.4c.6.7 1.1 1.4 1.8 2 .3.5.9.9 1.2 1.4.6.7 1.1 1.4 1.8 2.1l1.1 1.4c.6.7 1.1 1.5 1.7 2.1.3.5.7.9 1.1 1.4.6.8 1.2 1.6 1.8 2.5.3.3.6.8.9 1.2.9 1.1 1.7 2.4 2.5 3.6 0 .1.1.1.1.1l-70.9 46.8-7.4 4.8-77.9 51.4-94 61.2c-1.6-2.5-3.2-5-4.6-7.5l-1.1-2.1c-.7-1.2-1.4-2.5-2-3.8-.9-1.6-1.6-3.2-2.4-4.6zm283.3-50.4c-.2 2.5-.6 5.1-.9 7.5-1.1 7.4-2.6 14.6-4.7 21.7-.7 2.4-1.5 4.6-2.3 7-1.2 3.5-2.6 6.8-4.1 10.1-2.4 5.5-5.2 10.9-8.2 16.1-1.2 2.1-2.5 4.1-3.8 6.1-3.5 5.3-7.2 10.4-11.4 15.1-4.5 5.2-9.2 10.1-14.4 14.6-3.6 3.2-7.3 6.2-11.1 9s-7.9 5.5-12 8c-21.7 12.9-46.9 20.4-73.9 20.7h-4.7c-.7 0-1.4 0-2-.1-.6 0-1.2-.1-1.8-.1-.6 0-1.4-.1-1.9-.1-.6 0-1.2-.1-1.8-.1-.6 0-1.4-.1-1.9-.1-.6-.1-1.2-.1-1.8-.1-.6 0-1.4-.1-1.9-.2-.6-.1-1.2-.1-1.8-.2-.6-.1-1.4-.1-1.9-.2-.6-.1-1.1-.1-1.8-.2-.6-.1-1.4-.2-1.9-.3-.6-.1-1.1-.1-1.8-.3-.6-.1-1.4-.2-1.9-.3l-1.7-.3c-.6-.1-1.4-.2-1.9-.3l-1.7-.3c-.6-.1-1.4-.3-1.9-.5-.6-.1-1.1-.2-1.6-.3-.6-.1-1.4-.3-1.9-.6l-1.6-.5c-.6-.1-1.4-.3-1.9-.6l-1.6-.5c-.6-.2-1.4-.3-1.9-.6-.6-.1-1.1-.3-1.6-.6-.6-.2-1.4-.5-1.9-.7-.6-.1-1-.3-1.6-.6-.6-.2-1.2-.5-1.9-.7-.6-.1-1-.3-1.6-.6-.6-.2-1.2-.6-1.9-.8-.5-.2-1-.3-1.5-.6-.6-.2-1.2-.6-1.8-.8-.5-.2-1-.3-1.5-.6l-1.8-.9c-.5-.2-.9-.5-1.5-.7l-1.8-.9-1.4-.7-1.8-.9-1.3-.6c-.6-.3-1.2-.7-1.8-1-.5-.2-.9-.5-1.4-.8-.6-.3-1.1-.7-1.8-1.1-.5-.2-.9-.6-1.4-.8-.6-.3-1.1-.7-1.8-1.1-.5-.3-.9-.6-1.4-.9-.6-.3-1.1-.8-1.7-1.1-.5-.3-.9-.6-1.4-.9-.6-.3-1.1-.8-1.7-1.1-.3-.3-.9-.6-1.2-.9-.6-.3-1.1-.8-1.7-1.2-.3-.3-.9-.6-1.2-.9-.6-.3-1.1-.9-1.7-1.2-.3-.3-.8-.6-1.2-.9-.6-.5-1.1-.9-1.6-1.4l-1.1-.9-1.6-1.4c-.3-.3-.8-.6-1.1-.9-.6-.5-1.1-1-1.7-1.5-.3-.3-.7-.6-1-.9-.6-.6-1.1-1.1-1.8-1.6-.3-.2-.6-.6-.9-.8-.9-.8-1.6-1.6-2.5-2.4l-.1-.1 12.7-8.4 118.3-78.2 112.4-74.3c.3 1 .9 2.1 1.2 3 1.1 3.2 2.3 6.3 3.3 9.6l.9 3.3c.6 2.1 1.1 4.4 1.6 6.5 2.3 9.9 3.5 20.3 3.6 30.8-.2 5-.4 10.1-.9 15.1z"/>
    <path d="M257.5 336.2c36.2-.5 70.2-15.1 95.6-41.1l2.4-2.4c2.6-2.7 5-5.5 7.2-8.4-1.6-6.3-11.1-14.4-46.8-27.6-30.4-11.1-34-8.6-34.3-21.4L189 296.5l-16.7 11c23.7 18.6 52.9 28.7 83.5 28.7h1.7z"/>
</svg>
