<?xml version="1.0" encoding="UTF-8"?>
<svg id="Layer_1" xmlns="http://www.w3.org/2000/svg" version="1.1" viewBox="0 0 500 500">
  <!-- Generator: Adobe Illustrator 29.1.0, SVG Export Plug-In . SVG Version: 2.1.0 Build 142)  -->
  <path d="M253.1,25C126.6,23.3,23.3,126.6,25,253.1c1.7,121.4,100.5,220.2,221.9,221.9,126.6,1.7,229.8-101.6,228.1-228.1-1.7-121.4-100.5-220.2-221.8-221.9M389.9,379c-1.6,1.8-4.4,1.9-6.1.2-.2-.2-.4-.4-.5-.6-9.7-12.7-21.5-23.5-35-32-27.5-17.7-62.4-27.4-98.2-27.4s-70.7,9.7-98.2,27.4c-13.5,8.5-25.3,19.3-35,32-1.4,1.9-4.1,2.3-6.1.9-.2-.2-.4-.3-.6-.5-31.7-34.3-49.7-79-50.5-125.7-1.8-105.3,84.6-193.4,189.9-193.6s190.8,85.2,190.8,190.4c0,47.8-18,93.9-50.5,129M250,128.9c-21.3,0-40.6,8-54.3,22.5s-20.6,34.6-19,56.2c3.1,42.5,36,77.1,73.3,77.1s70.1-34.6,73.3-77.1c1.6-21.4-5.2-41.3-19.1-56.1-13.8-14.6-33-22.7-54.2-22.7"/>
</svg>