<svg xmlns="http://www.w3.org/2000/svg" width="512" height="512" viewBox="0 0 512 512"><circle cx="423" cy="283.6" r="23.8"/><path d="M399.1 227.7c-44.6 0-80.8 36.2-80.8 80.8 0 10.1 1.9 19.7 5.2 28.6L199.7 455.2l10 24.2 59.3-3.2 12.5-22.7 21.6-4 17.6-42.6 34.6-4.5 7.3-21.9c11 5.6 23.4 8.8 36.6 8.8 44.6 0 80.8-36.2 80.8-80.8s-36.3-80.8-80.9-80.8zm23.9 79.8c-13.2 0-23.8-10.7-23.8-23.8 0-13.2 10.7-23.8 23.8-23.8 13.2 0 23.8 10.7 23.8 23.8 0 13.1-10.7 23.8-23.8 23.8z"/><path d="M273.4 304.3c0-27.7 14.1-11.6 23.1-64.2 3.5-20.7 6.3-6.9 13.9-40.1 4-17.4-2.7-18.7-1.9-27s1.6-15.7 3.1-32.7c1.8-21-17.7-76.3-87.6-76.3s-89.4 55.3-87.5 76.4c1.5 16.9 2.3 24.4 3.1 32.7.8 8.3-5.9 9.6-1.9 27 7.6 33.1 10.4 19.3 13.9 40.1 9 52.6 23.1 36.5 23.1 64.2 0 42.8 3.9 31.5-59.3 54.6-64.2 23.5-79.4 38-81.1 48.9C32 421.6 32 448 32 448h128l123-111.7-7-2.3c-1.6-5.5-2.6-15.8-2.6-29.7z"/></svg>