<svg xmlns="http://www.w3.org/2000/svg" width="512" height="512" viewBox="0 0 512 512">
  <path d="M310.548,292.356c-48.543,0-145.461,24.187-145.461,72.731v36.365h290.913v-36.365c0-48.543-96.909-72.731-145.461-72.731h.009ZM146.909,219.626v-54.543h-36.365v54.543h-54.543v36.365h54.543v54.543h36.365v-54.543h54.543v-36.365M310.548,255.991c40.164-.001,72.724-32.558,72.731-72.722,0-19.289-7.662-37.788-21.307-51.423-13.636-13.636-32.134-21.298-51.423-21.298s-37.788,7.662-51.423,21.298c-13.636,13.636-21.298,32.134-21.298,51.423s7.662,37.788,21.298,51.423c13.638,13.639,32.136,21.3,51.423,21.298"/>
</svg>