<?xml version="1.0" encoding="UTF-8"?>
<svg id="Layer_1" xmlns="http://www.w3.org/2000/svg" version="1.1" viewBox="0 0 500 500">
  <!-- Generator: Adobe Illustrator 29.1.0, SVG Export Plug-In . SVG Version: 2.1.0 Build 142)  -->
  <path d="M253.8,25c.9,0,1.9.1,2.9.1s1.7.1,2.6.1,1.9,0,2.9.1c.7,0,1.7,0,2.6.1,1,0,1.9,0,2.9.1.7,0,1.7,0,2.6.1,1,.1,1.9.1,2.9.2.7.1,1.7.1,2.6.2,1,.2,1.9.2,2.9.4l2.6.4c1,.1,2,.2,2.9.4l2.6.4c.7.1,1.7.2,2.6.4l2.6.4c.7.2,1.7.5,2.6.6l2.6.6c.7.2,1.7.5,2.6.6l2.6.6c.9.4,1.7.6,2.6.7.9.4,1.7.6,2.6.7.9.4,1.7.5,2.6.7.9.4,1.7.5,2.6.7.9.1,1.7.5,2.6.7.9.1,1.7.5,2.6.7l2.6.9,2.5.9c.9.4,1.7.7,2.6,1,.7.4,1.6.7,2.5,1,.7.2,1.6.7,2.5,1,.7.2,1.6.7,2.5,1,.7.4,1.6.7,2.5,1.1.7.4,1.6.7,2.5,1.1.7.4,1.6.7,2.5,1.1.6.4,1.6.7,2.4,1.1s1.6.7,2.5,1.1c.6.4,1.6.7,2.4,1.1l2.5,1.2c.9.5,1.6.9,2.4,1.2.6.5,1.6,1,2.4,1.4s1.5.9,2.2,1.2c.6.4,1.6.7,2.4,1.4.7.5,1.5,1,2.2,1.4.6.4,1.6,1,2.4,1.4.7.5,1.5,1,2.2,1.4.9.4,1.5,1.1,2.4,1.5s1.5,1,2.2,1.4c.9.6,1.6,1.1,2.4,1.7.7.4,1.4,1,2.1,1.4.9.6,1.6,1.1,2.4,1.7.7.4,1.4,1,2.1,1.4.9.6,1.6,1.1,2.4,1.7.6.5,1.2,1.1,2,1.5.6.6,1.6,1.2,2.4,1.9.7.4,1.2,1.1,2,1.5.6.6,1.6,1.2,2.4,2,.6.5,1.2,1.1,1.9,1.5.7.9,1.6,1.5,2.5,2.2.6.4,1.1,1,1.7,1.4,1,.7,1.9,1.6,2.9,2.5.5.4,1,.7,1.4,1.1,1.5,1.1,2.7,2.5,4.1,3.7,17.4,17.1,31.9,36.5,42.7,57.5,16,30.9,24.6,65.1,25,100.8,0,2,0,3.9.6,6.2,0,1.9,0,3.9-.1,5.9-.4,3.5-.5,6.9-.7,10.4-.2,3.9-.9,7.7-1.2,11.5-.1,1.9-.5,3.6-.7,5.5-3.5,21.9-10.1,42.7-19.9,62.5-3.9,8.1-8.4,16-13.5,23.7-2.1,3-4.1,6-6.4,9s-4.5,5.7-6.7,8.7c-2.4,2.9-4.6,5.6-7.1,8.5-2.4,2.7-5,5.5-7.6,8.1-4,4-8,7.9-12.1,11.5-2.9,2.4-5.5,4.9-8.5,7.1-11.5,9.2-23.9,17.2-36.9,24-3.2,1.6-6.6,3.2-9.9,4.7-5,2.4-10.1,4.4-15.2,6.4-3.4,1.2-6.7,2.4-10.2,3.5-12.1,4-24.7,6.7-37.5,8.5-9.1,1.2-18.5,1.9-27.9,2h-6.9c-.9,0-1.9-.1-2.9-.1s-1.7-.1-2.6-.1-1.9,0-2.9-.1c-.7,0-1.7,0-2.6-.1-1,0-1.9,0-2.9-.1-.7,0-1.7,0-2.6-.1-1-.1-1.9-.1-2.9-.2-.7-.1-1.7-.1-2.6-.2-1-.2-1.9-.2-2.9-.4l-2.6-.4c-1-.1-2-.2-2.9-.4l-2.6-.4c-.7-.1-1.7-.2-2.6-.4l-2.6-.4c-.7-.2-1.7-.5-2.6-.6l-2.6-.6c-.7-.2-1.7-.5-2.6-.6l-2.6-.6c-.9-.4-1.7-.6-2.6-.7-.9-.4-1.7-.6-2.6-.7-.9-.4-1.7-.4-2.6-.7s-1.7-.5-2.6-.7c-.9-.1-1.7-.5-2.6-.7-.9-.1-1.7-.5-2.6-.7l-2.6-.9-2.5-.9c-.9-.4-1.7-.7-2.6-1-.7-.4-1.6-.7-2.5-1-.7-.2-1.7-.7-2.5-1s-1.6-.7-2.5-1c-.7-.4-1.6-.7-2.5-1.1-.7-.4-1.7-.7-2.5-1.1s-1.6-.7-2.5-1.1c-.6-.4-1.6-.7-2.4-1.1s-1.6-.7-2.5-1.1c-.6-.4-1.6-.7-2.4-1.1l-2.5-1.2c-.9-.5-1.6-.9-2.4-1.2-.6-.5-1.6-1-2.4-1.4s-1.5-.9-2.2-1.2c-.6-.4-1.6-1-2.4-1.4-.7-.5-1.5-1-2.2-1.4-.6-.4-1.6-1-2.4-1.4s-1.5-1-2.2-1.4c-.9-.4-1.6-1.1-2.4-1.5-.9-.4-1.5-1-2.2-1.4-.9-.6-1.6-1.1-2.4-1.7-.7-.4-1.4-1-2.1-1.4-.9-.6-1.6-1.1-2.4-1.7-.7-.4-1.4-1-2.1-1.4-.9-.6-1.6-1.1-2.4-1.7-.6-.5-1.2-1.1-2-1.5-.9-.6-1.6-1.2-2.4-1.9-.6-.4-1.2-1.1-2-1.5-.6-.6-1.6-1.2-2.4-2-.6-.4-1.2-1.1-1.9-1.5l-2.5-2.1-1.7-1.4c-.7-.6-1.7-1.5-2.6-2.4-.4-.4-1-.9-1.4-1.2-1.5-1.1-2.7-2.5-4.1-3.7l-4-4c-2.5-2.6-5.1-5.2-7.6-8.1-1.2-1.4-2.5-2.9-3.6-4.2-2.4-3-4.6-5.7-6.9-8.7s-4.4-6-6.5-9c-3.2-4.5-6-9.1-8.9-13.9-3.7-6.2-7.1-12.7-10.1-19.4-3-6.7-5.7-13.5-8.1-20.4-1.1-3.4-2.1-6.9-3.2-10.4-3.1-10.6-5.5-21.4-6.9-32.4-1.2-9.1-1.9-18.5-2-27.9-.1-7.5,0-14.9.7-22.4l1.2-11c.1-1.9.5-3.6.7-5.5.6-3.7,1.2-7.4,2-10.9.7-3.6,1.5-7.2,2.5-10.7,1.4-5.4,3-10.5,4.7-15.7,1.7-5.2,3.7-10.2,5.9-15.4.7-1.9,1.5-3.4,2.2-5.1,3.9-8.1,8.2-16.1,13-24,1.9-3.2,3.9-6.2,6-9.2,7.2-10.6,15.6-20.7,24.7-30.1,7.9-8.1,16.2-15.5,25-22.2,17.7-13.4,37-24,57.5-31.6,3.4-1.2,6.7-2.4,10.2-3.5,12.1-4,24.7-6.7,37.5-8.5,9.1-1.2,18.5-1.9,27.9-2h6.5ZM422.5,181.5l-140.5,92.8-147.8,97.7-15.9,10.5h.1c1.1,1.1,2,2.1,3.1,3.1.4.2.7.7,1.1,1,.9.6,1.5,1.2,2.2,2,.4.4.9.7,1.2,1.1.7.6,1.4,1.2,2.1,1.9.4.4,1,.7,1.4,1.1l2,1.7,1.4,1.1c.6.6,1.2,1.1,2,1.7.5.4,1.1.7,1.5,1.1.7.4,1.4,1.1,2.1,1.5.4.4,1.1.7,1.5,1.1.7.5,1.4,1.1,2.1,1.5.4.4,1.1.7,1.5,1.1.7.4,1.4,1,2.1,1.4.6.4,1.1.7,1.7,1.1.7.4,1.4,1,2.1,1.4.6.4,1.1.7,1.7,1.1.9.5,1.5,1,2.2,1.4.6.2,1.1.7,1.7,1,.9.5,1.5,1,2.2,1.4.6.4,1.1.7,1.7,1,.7.4,1.5.9,2.2,1.2l1.6.7,6.2,3.1c.7.2,1.2.6,1.9.9l2.2,1.1c.6.4,1.2.5,1.9.7.7.2,1.5.7,2.2,1,.6.4,1.2.5,1.9.7.9.2,1.6.7,2.4,1,.7.4,1.2.6,2,.7.9.2,1.6.6,2.4.9.7.4,1.2.6,2,.7.6.2,1.6.6,2.4.9.6.4,1.2.6,2,.7.6.4,1.6.5,2.4.7l2,.6c.6.4,1.6.6,2.4.7l2,.6c.6.4,1.6.6,2.4.7.6.1,1.2.2,2,.4.6.2,1.6.5,2.4.6l2.1.4c.6.1,1.6.2,2.4.4l2.1.4c.6.1,1.6.2,2.4.4.9.2,1.5.2,2.2.4.6.1,1.6.2,2.4.4.9.1,1.5.1,2.2.2.6.1,1.6.1,2.4.2s1.5.1,2.2.2c.6.1,1.6.2,2.4.2s1.5,0,2.2.1c.6,0,1.6.1,2.4.1s1.5.1,2.2.1,1.6.1,2.4.1,1.5.1,2.2.1c.7.1,1.6.1,2.5.1h5.9c33.7-.4,65.2-9.7,92.3-25.9,5.1-3.1,10.2-6.5,15-10,4.7-3.5,9.4-7.2,13.9-11.2,6.5-5.6,12.4-11.7,18-18.2,5.2-5.9,9.9-12.2,14.2-18.9,1.6-2.5,3.2-5,4.7-7.6,3.7-6.5,7.2-13.2,10.2-20.1,1.9-4.1,3.6-8.2,5.1-12.6,1-3,2-5.7,2.9-8.7,2.6-8.9,4.5-17.9,5.9-27.1.4-3,.9-6.2,1.1-9.4.6-6.2.9-12.6,1.1-18.9-.1-13.1-1.6-26.1-4.5-38.5-.6-2.6-1.2-5.5-2-8.1l-1.1-4.1c-1.2-4.1-2.7-8-4.1-12-.4-1.1-1.1-2.5-1.5-3.7M281.3,296.9c.4,16,4.9,12.9,42.9,26.7,44.6,16.5,56.5,26.6,58.5,34.5-2.7,3.6-5.7,7.1-9,10.5l-3,3c-31.7,32.5-74.2,50.7-119.5,51.4h-2.1c-38.2,0-74.7-12.6-104.3-35.9l20.9-13.7,115.7-76.5ZM254.1,64.1h-7.1c-4.9,0-9.5.4-14.2.7-6.2.6-12.6,1.5-18.6,2.6-7.6,1.5-15.2,3.5-22.4,5.7l-4.4,1.4c-5.7,2.1-11.4,4.2-16.9,6.9-10.9,5-21.2,11.2-31,18.2-2.4,1.9-4.9,3.6-7.1,5.5-4.6,3.7-9.1,7.7-13.4,11.9-2.2,2-4.4,4.1-6.4,6.4-2,2.1-4,4.4-6,6.6-2.9,3.4-5.6,6.9-8.2,10.5-.9,1.2-1.7,2.4-2.6,3.6-1.6,2.4-3.4,5-4.9,7.5-3.1,5.2-6.1,10.4-8.7,15.7-.7,1.5-1.2,2.7-2,4.1-3.1,6.9-6,14-8.2,21.1-.9,2.9-1.9,5.7-2.6,8.7-1.1,4.5-2.2,9-3.1,13.5-.5,1.4-.6,3-.9,4.5-1.7,10.7-2.6,21.7-2.5,33,0,3.4.2,6.9.4,10.2.5,9.1,1.9,18,3.7,26.7.5,3.2,1.4,6.5,2.2,9.7,1.1,4.2,2.6,8.4,4,12.5,1.1,3.1,2.2,6.1,3.5,9.1l2.6,6c.4,1,1,2,1.4,3,1,1.7,1.9,3.7,3,5.7.7,1.6,1.6,3.2,2.5,4.7l1.4,2.6c1.7,3.1,3.7,6.2,5.7,9.4l117.5-76.5,97.3-64.2,9.2-6,88.6-58.5s-.1,0-.1-.1c-1-1.5-2-3.1-3.1-4.5-.4-.5-.7-1.1-1.1-1.5-.7-1.1-1.5-2.1-2.2-3.1-.5-.6-1-1.1-1.4-1.7-.7-.7-1.4-1.7-2.1-2.6l-1.4-1.7c-.9-.9-1.5-1.7-2.2-2.6-.4-.6-1.1-1.1-1.5-1.7-.9-.7-1.5-1.6-2.2-2.5l-1.7-1.7c-.7-.6-1.5-1.6-2.2-2.4l-5.7-5.7c-.6-.7-1.6-1.5-2.4-2.2-.6-.4-1.1-1.1-1.7-1.5-.7-.9-1.6-1.5-2.5-2.2-.7-.4-1.2-1-1.9-1.4-.9-.7-1.7-1.4-2.6-2.1-.6-.4-1.2-1-1.9-1.4l-2.6-2c-.7-.4-1.2-1-2-1.4-.7-.6-1.7-1.2-2.6-2-.7-.5-1.2-1-2-1.4-1-.7-1.9-1.4-2.9-2-.6-.4-1.2-.9-2-1.2-1-.7-1.9-1.2-2.9-1.9-.6-.5-1.2-.9-2-1.2l-3-1.7-2-1.1-3-1.7c-.7-.4-1.4-.7-2.1-1.1-1-.4-2-1.1-3-1.5-.7-.4-1.4-.7-2.1-1.1-1-.4-2-1-3-1.4-.9-.2-1.5-.7-2.2-1-1-.5-1.9-1-3-1.4-.7-.4-1.5-.7-2.2-1-1.1-.4-2-.9-3.1-1.2l-2.2-.9c-1.1-.4-2-.7-3.1-1.1-.9-.1-1.6-.5-2.4-.7-1.1-.4-2-.9-3.1-1.1-.6-.4-1.6-.5-2.4-.7-1-.4-2-.7-3.1-1-.7-.4-1.6-.6-2.5-.7l-3.2-.9c-.7-.2-1.6-.5-2.5-.6-1.1-.4-2.1-.6-3.2-.7l-2.6-.6c-1.1-.4-2.1-.6-3.2-.7l-2.6-.4c-1.1,0-2.1-.2-3.2-.4-.7-.1-1.7-.2-2.6-.4-1.1-.1-2.1-.2-3.2-.4-1-.1-1.9-.1-2.9-.2l-3.2-.2c-.9,0-1.9,0-2.9-.1-1,0-2,0-3.1-.1-1,0-2-.1-3-.1s-2-.1-3.1-.1M239.1,112.7c50.6,0,64.7,40,63.4,55.2-1.1,12.4-1.6,17.7-2.2,23.7-.2,2.1.1,3.6.7,5.1l-106,70.1c-2.9-4.6-6-12-8.5-26.6-2.5-15.1-4.5-5-10-29-2.9-12.6,2-13.5,1.4-19.5-.6-6.1-1.1-11.5-2.1-23.7-1.5-15.2,12.7-55.4,63.4-55.4"/>
</svg>