<svg xmlns="http://www.w3.org/2000/svg" width="512" height="512" viewBox="0 0 512 512">
    <path fill-rule="nonzero" d="M337.7 141.65c38.1 0 48.8 31.3 47.8 43.3-.8 9.6-1.1 13.8-1.6 18.5-.5 4.7 3.2 5.5 1 15.3-4.1 18.7-5.7 10.9-7.6 22.7-5 29.9-12.7 24.2-12.7 39.8 0 24.3-2.1 19 32.4 32.1 35.3 13.4 43.4 21.6 44.4 27.7 1.3 7.8 1.3 74.9 1.3 74.9h-81.5c-.1-15.5-.6-58.6-1.4-64-1.2-8 0-24.6-45.4-41.9-6.3-2.4-11.6-4.3-16.1-5.9 15-7 12.4-11.7 12.4-22.9 0-15.7-7.7-9.9-12.6-39.8-1.9-11.7-3.5-3.9-7.6-22.7-2.1-9.9 1.3-10.6 1-15.3-.3-4.6-.9-8.8-1.6-18.5-1.1-11.9 9.7-43.3 47.8-43.3zm-132.9-45.6c49.3 0 63 40.5 61.7 55.9-.966 11.972-1.558 17.42-2.138 23.271l-.062.629c-.6 6.1 4.1 7 1.3 19.7-5.3 24.2-7.4 14.1-9.8 29.3-6.3 38.4-16.3 25.2-16.3 45.5 0 26.9-2 30.2 25.8 40 4.6 1.7 9.8 3.6 16.1 5.9 45.3 17.2 55.9 27.8 57.2 35.7.8 5.2 1.3 23.1 1.4 38.6.1 13.5.1 25.3.1 25.3l.1.1H69.5s0-54 1.6-64c1.3-7.9 11.9-18.5 57-35.6 44.7-17 41.9-14.6 41.9-46 0-20.3-9.9-7.1-16.2-45.5-2.5-15.2-4.4-5-9.8-29.3-2.9-12.7 1.9-13.6 1.3-19.7-.6-6.1-1.2-11.5-2.2-23.9-1.3-15.5 12.4-55.9 61.7-55.9z"/>
</svg>
