<svg xmlns="http://www.w3.org/2000/svg" width="512" height="512" viewBox="0 0 512 512">
  <path d="M456,456s0-27.5-2.25-41.875c-1.875-11.375-17.625-26.375-84.5-51-65.875-24.125-61.75-12.375-61.75-56.875,0-28.875,14.75-12.125,24-66.875,3.625-21.5,6.5-7.25,14.5-41.75,4.125-18.125-2.75-19.5-2-28.125.875-8.625,1.625-16.375,3.25-34,1.875-21.875-18.5-79.5-91.25-79.5s-93.125,57.625-91.125,79.625c1.5,17.625,2.375,25.375,3.25,34s-6.125,10-2,28.125c7.875,34.5,10.875,20.125,14.5,41.75,9.375,54.75,24,38,24,66.875,0,44.625,4,32.875-61.75,56.875-66.875,24.5-82.75,39.625-84.5,51-2.375,14.25-2.375,41.75-2.375,41.75h400Z"/>
</svg>