<svg xmlns="http://www.w3.org/2000/svg" width="512" height="512" viewBox="0 0 512 512">
    <path d="M366.35 218.725c34.4 0 62.2 28 62.2 62.3s-27.8 62.2-62.2 62.2c-10.1 0-19.6-2.5-28.1-6.8l-5.6 16.8-26.6 3.5-13.6 32.8-16.6 3.1-9.6 17.5-45.7 2.5-7.7-18.7 95.3-91c-2.5-6.8-4-14.2-4-22 0-34.3 27.8-62.2 62.2-62.2m-134.9-119.35c53.9 0 68.9 42.6 67.5 58.8-1.2 13.1-1.9 18.8-2.4 25.2s4.6 7.4 1.5 20.8c-5.8 25.5-8 14.8-10.7 30.8-6.9 40.6-17.8 28.2-17.8 49.5 0 10.8.7 18.7 1.8 22.9l5.4 1.7-94.8 86h-98.5s0-20.2 1.7-30.8c1.3-8.4 13-19.5 62.6-37.7 48.7-17.7 45.7-9 45.7-42 0-21.4-10.9-9-17.8-49.5-2.7-15.9-4.9-5.4-10.7-30.8-3-13.4 2.2-14.4 1.5-20.8s-1.2-12.2-2.4-25.2c-1.5-16.3 13.5-58.9 67.4-58.9m153.3 144.25c-10.1 0-18.3 8.2-18.3 18.3s8.2 18.3 18.3 18.3 18.4-8.2 18.3-18.3c0-10.1-8.2-18.3-18.3-18.3"/>
</svg>
