<svg xmlns="http://www.w3.org/2000/svg" width="512" height="512" viewBox="0 0 512 512">
  <path d="M136.445,229.111c32,62.889,83.556,114.444,146.444,146.444l48.889-48.889c6.222-6.222,14.889-8,22.667-5.556,24.889,8.222,51.556,12.667,79.333,12.667,5.894-.001,11.547,2.339,15.716,6.507,4.167,4.168,6.508,9.821,6.507,15.716v77.778c.001,5.894-2.339,11.547-6.507,15.716-4.168,4.167-9.821,6.508-15.716,6.507-208.641,0-377.778-169.137-377.778-377.778,0-5.894,2.339-11.547,6.507-15.716,4.168-4.167,9.821-6.508,15.716-6.507h77.778c5.894,0,11.547,2.339,15.716,6.507,4.167,4.168,6.508,9.821,6.507,15.716,0,27.778,4.444,54.444,12.667,79.333,2.444,7.778.667,16.444-5.556,22.667l-48.889,48.889h-.001Z"/>
</svg>