<svg xmlns="http://www.w3.org/2000/svg" width="512" height="512" viewBox="0 0 512 512">
  <path d="M433.779,333.777c-26.667,0-55.556-4.444-80-13.333h-6.667c-6.667,0-11.111,2.222-15.556,6.667l-48.889,48.889c-62.222-33.333-115.556-84.444-146.667-146.667l48.889-48.889c6.667-6.667,8.889-15.556,4.444-22.222-6.667-24.444-11.111-53.333-11.111-80,0-11.111-11.111-22.222-22.222-22.222h-77.778c-11.111,0-22.222,11.111-22.222,22.222,0,208.889,168.889,377.778,377.778,377.778,11.111,0,22.222-11.111,22.222-22.222v-77.778c0-11.111-11.111-22.222-22.222-22.222M100.445,100.443h33.333c2.222,20,6.667,40,11.111,57.778l-26.667,26.667c-8.889-26.667-15.556-55.556-17.778-84.444M411.557,411.555c-28.889-2.222-57.778-8.889-84.444-17.778l26.667-26.667c17.778,4.444,37.778,8.889,57.778,8.889v35.556h-.001Z"/>
</svg>