<svg xmlns="http://www.w3.org/2000/svg" width="512" height="512" viewBox="0 0 512 512">
    <path d="M323.7 225c-1.1-.4-2.1-.9-3.1-1.4-6.2-3.6-10.9-9.8-12.4-17.1l-16.4-105.1-.2-5.2c0-6.3 3.7-9.1 8.9-11.7l1.9-.8c6.4-3.1 10.8-6.9 10.8-14.6 0-17.9-5.8-19.1-16.2-19.1h-81.6c-10.4 0-16.2 1.1-16.2 19.1 0 7.6 4.3 11.4 10.8 14.6.7.2 1.2.4 1.9.8 5.2 2.6 8.9 5.3 8.9 11.7l-.2 5.2-16.4 105.1c-1.4 7.4-6.2 13.6-12.4 17.1-1 .7-2.1 1.1-3.1 1.4-17.7 9.1-32.3 27.4-32.3 48.9 0 14.2 3.1 19 13.6 19h72L252.3 450h7.1l10.8-157.1h72.1c10.4 0 13.6-4.2 13.6-19 .1-21.5-14.7-39.8-32.2-48.9z"/>
</svg>
