<?xml version="1.0" encoding="UTF-8"?>
<svg width="512px" height="512px" viewBox="0 0 512 512" version="1.1" xmlns="http://www.w3.org/2000/svg" xmlns:xlink="http://www.w3.org/1999/xlink">
    <!-- Generator: Sketch 62 (91390) - https://sketch.com -->
    <title>pin</title>
    <desc>Created with Sketch.</desc>
    <g id="pin" stroke="none" stroke-width="1" fill="none" fill-rule="evenodd">
        <path d="M323.7,224.5 C322.6,224.1 321.6,223.6 320.6,223.1 C314.4,219.5 309.7,213.3 308.2,206 L291.8,100.9 L291.6,95.7 C291.6,89.4 295.3,86.6 300.5,84 L302.4,83.2 C308.8,80.1 313.2,76.3 313.2,68.6 C313.2,50.7 307.4,49.5 297,49.5 L215.4,49.5 C205,49.5 199.2,50.6 199.2,68.6 C199.2,76.2 203.5,80 210,83.2 C210.7,83.4 211.2,83.6 211.9,84 C217.1,86.6 220.8,89.3 220.8,95.7 L220.6,100.9 L204.2,206 C202.8,213.4 198,219.6 191.8,223.1 C190.8,223.8 189.7,224.2 188.7,224.5 C171,233.6 156.4,251.9 156.4,273.4 C156.4,287.6 159.5,292.4 170,292.4 L242,292.4 L252.3,449.5 L259.4,449.5 L270.2,292.4 L342.3,292.4 C352.7,292.4 355.900504,288.2 355.900504,273.4 C356,251.9 341.2,233.6 323.7,224.5 L323.7,224.5 Z" id="Path" fill="#000000" fill-rule="nonzero"></path>
    </g>
</svg>