<svg xmlns="http://www.w3.org/2000/svg" width="512" height="512" viewBox="0 0 512 512">
    <path d="M446.5 197.3H269.3c-16.3 0-29.5 13.2-29.5 29.5v125.5c0 16.3 13.2 29.5 29.5 29.5h177.2c16.3 0 29.5-13.2 29.5-29.5V226.8c0-16.3-13.2-29.5-29.5-29.5zm-177.2 155V226.8h177.2v125.5H269.3zM146.9 191.4c8.2 0 14.8-6.6 14.8-14.8v-37.4l47.9 47.9c5.8 5.8 15.1 5.8 20.9 0 5.8-5.8 5.8-15.1 0-20.9l-47.9-47.9H220c8.2 0 14.8-6.6 14.8-14.8s-6.6-14.8-14.8-14.8h-73.1c-1 0-1.9.1-2.9.3-.4.1-.8.2-1.3.4-.5.1-1 .3-1.5.5s-1 .5-1.4.8c-.4.2-.8.4-1.1.6-1.6 1.1-3 2.5-4.1 4.1l-.6 1.2c-.2.5-.5.9-.7 1.4s-.3 1-.5 1.5c-.1.4-.3.8-.4 1.2-.2 1-.3 1.9-.3 2.9v73.1c0 8.1 6.7 14.7 14.8 14.7z"/>
    <path d="M202.8 352.3H69.9c-4.1 0-7.4-3.3-7.4-7.4V79.1c0-4.1 3.3-7.4 7.4-7.4h369.2c4.1 0 7.4 3.3 7.4 7.4v81.2c0 8.2 6.6 14.8 14.8 14.8 8.1 0 14.8-6.6 14.8-14.8V79.1c0-20.4-16.6-36.9-36.9-36.9H69.9C49.6 42.2 33 58.8 33 79.1v265.8c0 20.4 16.6 36.9 36.9 36.9h132.9c8.2 0 14.8-6.6 14.8-14.8 0-8.1-6.6-14.7-14.8-14.7z"/>
</svg>
