<svg xmlns="http://www.w3.org/2000/svg" width="512" height="512" viewBox="0 0 512 512">
  <path d="M429.408,245.543h-157.511c-14.489,0-26.222,11.733-26.222,26.222v111.556c0,14.489,11.733,26.222,26.222,26.222h157.511c14.489,0,26.222-11.733,26.222-26.222v-111.556c0-14.489-11.733-26.222-26.222-26.222M271.897,383.32v-111.556h157.511v111.556h-157.511ZM163.097,240.298c7.289,0,13.156-5.867,13.156-13.156v-33.244l42.578,42.578c5.156,5.156,13.422,5.156,18.578,0s5.156-13.422,0-18.578l-42.578-42.578h33.244c7.289,0,13.156-5.867,13.156-13.156s-5.867-13.156-13.156-13.156h-64.978c-.889,0-1.689.089-2.578.267-.356.089-.711.178-1.156.356-.444.089-.889.267-1.333.444s-.889.444-1.244.711c-.356.178-.711.356-.978.533-1.422.978-2.667,2.222-3.644,3.644l-.533,1.067c-.178.444-.444.8-.622,1.244s-.267.889-.444,1.333c-.089.356-.267.711-.356,1.067-.178.889-.267,1.689-.267,2.578v64.978c0,7.2,5.956,13.067,13.156,13.067M209.284,382.395h-119.973c-3.701,0-6.68-2.979-6.68-6.68v-239.947c0-3.701,2.979-6.68,6.68-6.68h333.289c3.701,0,6.68,2.979,6.68,6.68v73.302c0,7.402,5.958,13.36,13.36,13.36,7.312,0,13.36-5.958,13.36-13.36v-73.302c0-18.416-14.985-33.311-33.311-33.311H89.311c-18.325,0-33.311,14.985-33.311,33.311v239.947c0,18.416,14.985,33.311,33.311,33.311h119.973c7.402,0,13.36-5.958,13.36-13.36,0-7.312-5.958-13.27-13.36-13.27"/>
</svg>