<?xml version="1.0" encoding="UTF-8"?>
<svg id="Layer_1" xmlns="http://www.w3.org/2000/svg" version="1.1" viewBox="0 0 500 500">
  <!-- Generator: Adobe Illustrator 29.1.0, SVG Export Plug-In . SVG Version: 2.1.0 Build 142)  -->
  <path d="M444.9,235.1h-180c-16.6,0-30,13.4-30,30v127.5c0,16.6,13.4,30,30,30h180c16.6,0,30-13.4,30-30v-127.5c0-16.6-13.4-30-30-30M265,392.5v-127.5h180v127.5h-180ZM140.7,229.1c8.3,0,15-6.7,15-15v-38l48.6,48.6c5.9,5.9,15.3,5.9,21.2,0s5.9-15.3,0-21.2l-48.6-48.6h38c8.3,0,15-6.7,15-15s-6.7-15-15-15h-74.2c-1,0-1.9.1-2.9.3-.4.1-.8.2-1.3.4-.5.1-1,.3-1.5.5s-1,.5-1.4.8c-.4.2-.8.4-1.1.6-1.6,1.1-3,2.5-4.2,4.2l-.6,1.2c-.2.5-.5.9-.7,1.4s-.3,1-.5,1.5c-.1.4-.3.8-.4,1.2-.2,1-.3,1.9-.3,2.9v74.2c0,8.2,6.8,14.9,15,14.9M197.4,392.5H62.5c-4.2,0-7.5-3.4-7.5-7.5V115c0-4.2,3.4-7.5,7.5-7.5h374.9c4.2,0,7.5,3.4,7.5,7.5v82.5c0,8.3,6.7,15,15,15s15-6.7,15-15v-82.5c0-20.7-16.9-37.5-37.5-37.5H62.5c-20.6,0-37.5,16.9-37.5,37.5v269.9c0,20.7,16.9,37.5,37.5,37.5h135c8.3,0,15-6.7,15-15s-6.7-14.9-15-14.9"/>
</svg>