<?xml version="1.0" encoding="UTF-8"?>
<svg id="Layer_1" xmlns="http://www.w3.org/2000/svg" version="1.1" viewBox="0 0 500 500">
  <!-- Generator: Adobe Illustrator 29.1.0, SVG Export Plug-In . SVG Version: 2.1.0 Build 142)  -->
  <path d="M444.9,235.1h-179.9c-16.5,0-30,13.4-30,30v127.4c0,16.5,13.4,30,30,30h180c16.5,0,30-13.4,30-30v-127.4c-.1-16.6-13.4-30-30.1-30M265,392.5v-127.4h180v127.4h-180ZM215.1,124.8c-8.4,0-15,6.7-15,15v38l-48.6-48.6c-5.8-5.8-15.3-5.8-21.3,0-5.8,5.8-5.8,15.3,0,21.3l48.6,48.6h-38c-8.4,0-15,6.7-15,15s6.7,15,15,15h74.2c1,0,2-.1,3-.3.4-.1.8-.2,1.3-.4.6-.1,1-.3,1.5-.6s1-.6,1.4-.8.8-.4,1.1-.7c1.7-1.1,3.1-2.5,4.2-4.2l.7-1.2c.2-.6.6-.9.7-1.4s.3-1,.6-1.5c.1-.4.3-.8.4-1.2.2-1,.3-2,.3-3v-74.2c-.1-8-6.8-14.8-15.1-14.8M197.4,392.5H62.5c-4.2,0-7.5-3.3-7.5-7.5V115c0-4.2,3.3-7.5,7.5-7.5h374.9c4.2,0,7.5,3.3,7.5,7.5v82.5c0,8.4,6.7,15,15,15s15-6.7,15-15v-82.5c0-20.7-16.9-37.5-37.5-37.5H62.5c-20.6,0-37.5,16.9-37.5,37.5v270c0,20.7,16.9,37.5,37.5,37.5h134.9c8.4,0,15-6.7,15-15,.1-8.3-6.6-15-15-15"/>
</svg>