<svg xmlns="http://www.w3.org/2000/svg" width="512" height="512" viewBox="0 0 512 512">
    <path d="M432.8 234.3H269.6c-15 0-27.2 12.2-27.2 27.2v115.6c0 15 12.2 27.2 27.2 27.2h163.3c15 0 27.2-12.2 27.2-27.2V261.5c-.1-15.1-12.2-27.2-27.3-27.2M269.6 377.1V261.5h163.3v115.6zm-45.3-242.8c-7.6 0-13.6 6.1-13.6 13.6v34.5l-44.1-44.1c-5.3-5.3-13.9-5.3-19.3 0-5.3 5.3-5.3 13.9 0 19.3l44.1 44.1h-34.5c-7.6 0-13.6 6.1-13.6 13.6 0 7.6 6.1 13.6 13.6 13.6h67.3c.9 0 1.8-.1 2.7-.3.4-.1.7-.2 1.2-.4.5-.1.9-.3 1.4-.5.5-.2.9-.5 1.3-.7.4-.2.7-.4 1-.6 1.5-1 2.8-2.3 3.8-3.8l.6-1.1c.2-.5.5-.8.6-1.3s.3-.9.5-1.4c.1-.4.3-.7.4-1.1.2-.9.3-1.8.3-2.7v-67.3c-.1-7.3-6.2-13.4-13.7-13.4"/>
    <path d="M208.3 377.1H85.9c-3.8 0-6.8-3-6.8-6.8V125.4c0-3.8 3-6.8 6.8-6.8H426c3.8 0 6.8 3 6.8 6.8v74.8c0 7.6 6.1 13.6 13.6 13.6s13.6-6.1 13.6-13.6v-74.8c0-18.8-15.3-34-34-34H85.9c-18.7 0-34 15.3-34 34v244.9c0 18.8 15.3 34 34 34h122.4c7.6 0 13.6-6.1 13.6-13.6.1-7.5-6-13.6-13.6-13.6"/>
</svg>
