<svg xmlns="http://www.w3.org/2000/svg" width="512" height="512" viewBox="0 0 512 512">
    <style>
        .st0{fill:none;stroke:#000;stroke-width:18;stroke-miterlimit:10}
    </style>
    <path d="M203.2 343.6c30.2 0-127.5-1.1-127.5-1.1-5.5 0-10-4.6-10-10.1V56c0-5.5 4.5-10 10-10h360.6c5.5 0 10 4.5 10 10v99.1" class="st0"/>
    <path d="M209.1 115.8l-.5 53.9c.1 3.1-1.2 6-3.4 8.3-2.2 2.3-5.1 3.6-8.2 3.6l-53.9 2.1c-6.4.3-11.6-4.8-11.5-11.2.1-6.4 5.3-11.8 11.7-12l25.9-1-57.8-56.2c-4.5-4.3-4.5-11.7.1-16.4 4.6-4.7 11.9-5 16.4-.6l57.8 56.2.2-25.9c.1-6.4 5.3-11.8 11.7-12 6.4-.2 11.5 4.8 11.5 11.2z"/>
    <path d="M446.3 333.6c0 5.5-4.5 10-10 10H260.9c-5.5 0-10-4.5-10-10V201c0-5.5 4.5-10 10-10h175.4c5.5 0 10 4.5 10 10v132.6z" class="st0"/>
</svg>
