<svg xmlns="http://www.w3.org/2000/svg" x="0" y="0" version="1.1" xml:space="preserve" width="512" height="512" viewBox="0 0 512 512">
    <style>
        .st0{fill:none;stroke:#000;stroke-width:30;stroke-linecap:round;stroke-linejoin:round}
    </style>
    <path d="M216.6 361H77.7c-25.6 0-46.3-20.7-46.3-46.3V83.3C31.4 57.7 52.2 37 77.7 37h324c25.6 0 46.3 20.7 46.3 46.3v92.6" class="st0"/>
    <path d="M291.5 220h130.4c14.4 0 26.1 12.6 26.1 28.2v84.6c0 15.6-11.7 28.2-26.1 28.2H291.5c-14.4 0-26.1-12.6-26.1-28.2v-84.6c0-15.6 11.7-28.2 26.1-28.2zM94 99.6l92.6 92.5M117.1 192.1h69.4v-69.4" class="st0"/>
</svg>
