<svg xmlns="http://www.w3.org/2000/svg" width="512" height="512" viewBox="0 0 512 512">
    <switch>
        <g>
            <path d="M457.6 188.5h-187c-17.2 0-31.2 14-31.2 31.2v132.5c0 17.2 14 31.2 31.2 31.2h187c17.2 0 31.2-14 31.2-31.2V219.7c0-17.2-14-31.2-31.2-31.2zm-187 163.7V219.7h187v132.5h-187zM218.7 74.1c-8.6 0-15.6 7-15.6 15.6v39.5l-50.5-50.5c-6.1-6.1-16-6.1-22 0-6.1 6.1-6.1 16 0 22l50.5 50.5h-39.5c-8.6 0-15.6 7-15.6 15.6s7 15.6 15.6 15.6h77.1c1 0 2-.1 3.1-.3.5-.1.9-.3 1.3-.4.5-.2 1.1-.3 1.6-.5s1-.5 1.5-.8l1.2-.6c1.7-1.1 3.2-2.6 4.3-4.3.3-.4.4-.8.7-1.2.3-.5.6-1 .8-1.5.2-.5.3-1.1.5-1.6.1-.4.3-.9.4-1.3.2-1 .3-2 .3-3.1V89.7c-.1-8.7-7.1-15.6-15.7-15.6z"/>
            <path d="M200.5 352.2H60.2c-4.3 0-7.8-3.5-7.8-7.8V63.8c0-4.3 3.5-7.8 7.8-7.8h389.6c4.3 0 7.8 3.5 7.8 7.8v85.7c0 8.6 7 15.6 15.6 15.6s15.6-7 15.6-15.6V63.8c0-21.5-17.5-39-39-39H60.2c-21.5 0-39 17.5-39 39v280.5c0 21.5 17.5 39 39 39h140.3c8.6 0 15.6-7 15.6-15.6-.1-8.5-7-15.5-15.6-15.5z"/>
        </g>
    </switch>
</svg>
