<svg xmlns="http://www.w3.org/2000/svg" width="512" height="512" viewBox="0 0 512 512">
    <style>
        .st0{fill:none;stroke:#000;stroke-width:18;stroke-miterlimit:10}
    </style>
    <path d="M209.5 308c26.6 0-111-.9-111-.9-5.5 0-10-4.6-10-10.1V56c0-5.5 4.5-10 10-10h315c5.5 0 10 4.5 10 10v86" class="st0"/>
    <path d="M214.7 107.5l-.4 47.5c.1 2.7-1 5.3-3 7.3s-4.5 3.2-7.2 3.2l-47.5 1.8c-5.6.2-10.2-4.2-10.1-9.8.1-5.6 4.7-10.4 10.3-10.6l22.8-.9-50.9-49.5c-4-3.8-4-10.3.1-14.4 4-4.1 10.5-4.4 14.5-.5l50.9 49.5.2-22.8c.1-5.6 4.7-10.4 10.3-10.6 5.5-.3 10 4.1 10 9.8z"/>
    <path fill-rule="evenodd" d="M423.5 298c0 5.5-4.5 10-10 10h-152c-5.5 0-10-4.5-10-10V183.6c0-5.5 4.5-10 10-10h152c5.5 0 10 4.5 10 10V298z" clip-rule="evenodd"/>
    <path d="M423.5 298c0 5.5-4.5 10-10 10h-152c-5.5 0-10-4.5-10-10V183.6c0-5.5 4.5-10 10-10h152c5.5 0 10 4.5 10 10V298z" class="st0"/>
</svg>
