<?xml version="1.0" encoding="utf-8"?>
<!-- Generator: Adobe Illustrator 27.3.1, SVG Export Plug-In . SVG Version: 6.00 Build 0)  -->
<svg version="1.1" id="Layer_1" xmlns="http://www.w3.org/2000/svg" xmlns:xlink="http://www.w3.org/1999/xlink" x="0px" y="0px"
	 viewBox="0 0 512 512" style="enable-background:new 0 0 512 512;" xml:space="preserve">
<path d="M432.8,234.3H269.6c-15,0-27.2,12.2-27.2,27.2v115.6c0,15,12.2,27.2,27.2,27.2h163.3c15,0,27.2-12.2,27.2-27.2V261.5
	C460,246.4,447.9,234.3,432.8,234.3z M269.6,377.1V261.5h163.3v115.6H269.6z M224.3,134.3c-7.6,0-13.6,6.1-13.6,13.6v34.5
	l-44.1-44.1c-5.3-5.3-13.9-5.3-19.3,0c-5.3,5.3-5.3,13.9,0,19.3l44.1,44.1h-34.5c-7.6,0-13.6,6.1-13.6,13.6
	c0,7.6,6.1,13.6,13.6,13.6h67.3c0.9,0,1.8-0.1,2.7-0.3c0.4-0.1,0.7-0.2,1.2-0.4c0.5-0.1,0.9-0.3,1.4-0.5c0.5-0.2,0.9-0.5,1.3-0.7
	c0.4-0.2,0.7-0.4,1-0.6c1.5-1,2.8-2.3,3.8-3.8l0.6-1.1c0.2-0.5,0.5-0.8,0.6-1.3s0.3-0.9,0.5-1.4c0.1-0.4,0.3-0.7,0.4-1.1
	c0.2-0.9,0.3-1.8,0.3-2.7v-67.3C237.9,140.4,231.8,134.3,224.3,134.3z"/>
<path d="M208.3,377.1H85.9c-3.8,0-6.8-3-6.8-6.8V125.4c0-3.8,3-6.8,6.8-6.8H426c3.8,0,6.8,3,6.8,6.8v74.8c0,7.6,6.1,13.6,13.6,13.6
	c7.5,0,13.6-6.1,13.6-13.6v-74.8c0-18.8-15.3-34-34-34H85.9c-18.7,0-34,15.3-34,34v244.9c0,18.8,15.3,34,34,34h122.4
	c7.6,0,13.6-6.1,13.6-13.6C222,383.2,215.9,377.1,208.3,377.1L208.3,377.1z"/>
</svg>
