<svg xmlns="http://www.w3.org/2000/svg" width="512" height="512" viewBox="0 0 512 512">
  <path d="M429.248,242.721h-159.922c-14.699,0-26.654,11.955-26.654,26.654v113.278c0,14.699,11.955,26.654,26.654,26.654h160.02c14.699,0,26.654-11.955,26.654-26.654v-113.278c-.098-14.797-11.955-26.654-26.752-26.654M269.327,382.653v-113.278h160.02v113.278h-160.02,0ZM224.937,144.73c-7.447,0-13.327,5.977-13.327,13.327v33.807l-43.214-43.214c-5.194-5.194-13.621-5.194-18.912,0-5.194,5.194-5.194,13.621,0,18.912l43.214,43.214h-33.807c-7.447,0-13.327,5.977-13.327,13.327,0,7.447,5.977,13.327,13.327,13.327h65.948c.882,0,1.764-.098,2.646-.294.392-.098.686-.196,1.176-.392.49-.098.882-.294,1.372-.49s.882-.49,1.274-.686.686-.392.98-.588c1.47-.98,2.744-2.254,3.724-3.724l.588-1.078c.196-.49.49-.784.588-1.274s.294-.882.49-1.372c.098-.392.294-.686.392-1.078.196-.882.294-1.764.294-2.646v-65.948c-.098-7.153-6.075-13.131-13.425-13.131M209.258,382.653h-119.941c-3.724,0-6.663-2.94-6.663-6.663v-239.98c0-3.724,2.94-6.663,6.663-6.663h333.268c3.724,0,6.663,2.94,6.663,6.663v73.297c0,7.447,5.977,13.327,13.327,13.327s13.327-5.977,13.327-13.327v-73.297c0-18.422-14.993-33.317-33.317-33.317H89.317c-18.324,0-33.317,14.993-33.317,33.317v239.98c0,18.422,14.993,33.317,33.317,33.317h119.941c7.447,0,13.327-5.977,13.327-13.327.098-7.349-5.879-13.327-13.327-13.327"/>
</svg>