<svg xmlns="http://www.w3.org/2000/svg" width="512" height="512" viewBox="0 0 512 512">
  <path d="M388.494,122.614c-40.703-18.044-85.182-27.17-132.179-27.065-47.102,0-94.624,9.756-132.179,26.646-7.029,3.147-13.323,8.497-8.917,18.568l141.096,315.237,140.782-314.608c2.623-6.609.629-14.687-8.602-18.778M195.26,181.361c-16.89,0-30.527-13.638-30.527-30.527s13.638-30.527,30.527-30.527,30.527,13.638,30.527,30.527-13.742,30.527-30.527,30.527M256.21,321.513c-16.89,0-30.527-13.638-30.527-30.527s13.638-30.527,30.527-30.527,30.527,13.638,30.527,30.527-13.638,30.527-30.527,30.527M317.264,211.888c-16.89,0-30.527-13.638-30.527-30.527s13.638-30.527,30.527-30.527,30.527,13.638,30.527,30.527-13.638,30.527-30.527,30.527M413.986,88.415c-45.528-19.617-101.862-32.415-158.091-32.415s-111.513,11.539-158.091,31.891c-4.091,1.783-9.651,5.35-9.651,13.113,0,2.413.839,4.721.839,4.721l7.658,18.253c2.413,4.616,7.553,7.763,13.113,7.763,1.574,0,3.777-.315,6.294-1.364,42.801-18.044,90.113-28.219,139.837-28.219s100.708,11.12,139.837,28.219c3.147,1.364,4.931,1.364,6.399,1.364,5.77,0,10.595-3.147,13.113-7.658l7.658-18.463c.525-1.469.944-3.147.944-4.511-.105-6.924-4.301-10.281-9.861-12.693"/>
</svg>