<svg xmlns="http://www.w3.org/2000/svg" width="512" height="512" viewBox="0 0 512 512">
    <path d="M382.4 103.5c-38.8-17.2-81.2-25.9-126-25.8-44.9 0-90.2 9.3-126 25.4-6.7 3-12.7 8.1-8.5 17.7l134.5 300.5 134.2-299.9c2.5-6.3.6-14-8.2-17.9m-184.2 56c-16.1 0-29.1-13-29.1-29.1s13-29.1 29.1-29.1 29.1 13 29.1 29.1-13.1 29.1-29.1 29.1m58.1 133.6c-16.1 0-29.1-13-29.1-29.1s13-29.1 29.1-29.1 29.1 13 29.1 29.1-13 29.1-29.1 29.1m58.2-104.5c-16.1 0-29.1-13-29.1-29.1s13-29.1 29.1-29.1 29.1 13 29.1 29.1-13 29.1-29.1 29.1"/>
    <path d="M406.7 70.9C363.3 52.2 309.6 40 256 40c-53.6 0-106.3 11-150.7 30.4-3.9 1.7-9.2 5.1-9.2 12.5 0 2.3.8 4.5.8 4.5l7.3 17.4c2.3 4.4 7.2 7.4 12.5 7.4 1.5 0 3.6-.3 6-1.3C163.5 93.7 208.6 84 256 84c47.4 0 96 10.6 133.3 26.9 3 1.3 4.7 1.3 6.1 1.3 5.5 0 10.1-3 12.5-7.3l7.3-17.6c.5-1.4.9-3 .9-4.3-.1-6.6-4.1-9.8-9.4-12.1"/>
</svg>
