<?xml version="1.0" encoding="UTF-8"?>
<svg id="Layer_1" xmlns="http://www.w3.org/2000/svg" version="1.1" viewBox="0 0 500 500">
  <!-- Generator: Adobe Illustrator 29.1.0, SVG Export Plug-In . SVG Version: 2.1.0 Build 142)  -->
  <path d="M427.7,61.5c-51.2-22.1-114.6-36.5-177.9-36.5s-125.5,13-177.9,35.9c-4.6,2-10.9,6-10.9,14.8s.9,5.3.9,5.3l8.6,20.5c2.7,5.2,8.5,8.7,14.8,8.7s3.1-.2,5.2-.8c-1.1,3-1,6.6,1,11l158.7,354.6L408.7,121.1c1.5-3.8,1.6-7.9.1-11.8,2.6.9,4.2.9,5.6.9,6.5,0,11.9-3.5,14.8-8.6l8.6-20.8c.6-1.7,1.1-3.5,1.1-5.1-.1-7.8-4.8-11.6-11.1-14.3ZM181.7,166c-19,0-34.3-15.3-34.3-34.3s15.3-34.3,34.3-34.3,34.3,15.3,34.3,34.3-15.5,34.3-34.3,34.3ZM250.2,323.7c-19,0-34.3-15.3-34.3-34.3s15.3-34.3,34.3-34.3,34.3,15.3,34.3,34.3-15.3,34.3-34.3,34.3ZM318.9,200.4c-19,0-34.3-15.3-34.3-34.3s15.3-34.3,34.3-34.3,34.3,15.3,34.3,34.3-15.3,34.3-34.3,34.3Z"/>
</svg>