<svg id="content" xmlns="http://www.w3.org/2000/svg" version="1.1" viewBox="0 0 512 512">
  <path d="M256,416c-88.2,0-160-71.8-160-160s71.8-160,160-160,160,71.8,160,160-71.8,160-160,160ZM256,56c-26.3,0-52.3,5.2-76.5,15.2-24.3,10.1-46.3,24.8-64.9,43.4-37.5,37.5-58.6,88.4-58.6,141.4s21.1,103.9,58.6,141.4c18.6,18.6,40.6,33.3,64.9,43.4,24.3,10.1,50.3,15.2,76.5,15.2,53,0,103.9-21.1,141.4-58.6,37.5-37.5,58.6-88.4,58.6-141.4s-5.2-52.3-15.2-76.5c-10.1-24.3-24.8-46.3-43.4-64.9-18.6-18.6-40.6-33.3-64.9-43.4-24.3-10.1-50.3-15.2-76.5-15.2ZM216,346l120-90-120-90v180Z"/>
</svg>