<svg xmlns="http://www.w3.org/2000/svg" width="512" height="512" viewBox="0 0 512 512">
  <path id="content" d="M255.999,416.001c-88.2,0-159.999-71.799-159.999-159.999S167.8,96.002,255.999,96.002s159.999,71.8,159.999,159.999-71.799,159.999-159.999,159.999h0ZM255.999,56.002c-26.264,0-52.271,5.173-76.536,15.224-24.265,10.051-46.313,24.783-64.884,43.355-37.508,37.507-58.579,88.377-58.579,141.42s21.071,103.915,58.579,141.42c18.572,18.573,40.62,33.303,64.884,43.356,24.265,10.05,50.272,15.222,76.536,15.222,53.043,0,103.914-21.068,141.423-58.578s58.578-88.377,58.578-141.42c0-26.264-5.175-52.271-15.225-76.536-10.05-24.265-24.783-46.313-43.353-64.884-18.573-18.572-40.62-33.303-64.887-43.355-24.265-10.051-50.272-15.224-76.536-15.224ZM275.999,156.001h-40v79.999h-79.999v40h79.999v79.999h40v-79.999h79.999v-40h-79.999v-79.999Z"/>
</svg>