<svg xmlns="http://www.w3.org/2000/svg" width="512" height="512" viewBox="0 0 512 512">
  <path id="content" d="M356,276h-80v80h-40v-80h-80v-40h80v-80h40v80h80M256,56c-26.264,0-52.272,5.173-76.537,15.224-24.265,10.051-46.313,24.783-64.885,43.355-37.507,37.507-58.579,88.378-58.579,141.421s21.071,103.914,58.579,141.422c18.572,18.572,40.62,33.302,64.885,43.354,24.265,10.05,50.273,15.224,76.537,15.224,53.044,0,103.914-21.072,141.422-58.578,37.506-37.508,58.578-88.378,58.578-141.422,0-26.264-5.174-52.272-15.224-76.537-10.052-24.265-24.782-46.313-43.354-64.885-18.572-18.572-40.62-33.304-64.886-43.355-24.264-10.051-50.272-15.224-76.536-15.224Z"/>
</svg>