<svg xmlns="http://www.w3.org/2000/svg" width="500" height="500" viewBox="0 0 500 500">
  <path id="content" d="M249.999,430c-99.225,0-179.999-80.774-179.999-179.999S150.775,70.002,249.999,70.002s179.999,80.775,179.999,179.999-80.774,179.999-179.999,179.999ZM249.999,25.002c-29.547,0-58.805,5.82-86.103,17.127-27.298,11.307-52.102,27.881-72.995,48.774C48.705,133.098,25,190.327,25,250.001s23.705,116.904,65.901,159.098c20.893,20.895,45.697,37.466,72.995,48.775,27.298,11.306,56.556,17.125,86.103,17.125,59.673,0,116.903-23.702,159.101-65.9,42.194-42.194,65.9-99.424,65.9-159.098,0-29.547-5.822-58.805-17.128-86.103-11.306-27.298-27.881-52.102-48.772-72.995-20.895-20.893-45.697-37.466-72.998-48.774-27.298-11.307-56.556-17.127-86.103-17.127ZM272.499,137.501h-45v89.999h-89.999v45h89.999v89.999h45v-89.999h89.999v-45h-89.999v-89.999Z"/>
</svg>