<svg xmlns="http://www.w3.org/2000/svg" width="512" height="512" data-name="Layer 1" viewBox="0 0 512 512">
    <path d="M21 73.2c0-13.9 5.5-27.1 15.3-36.9S59.4 21 73.2 21h365.6c13.8 0 27.1 5.5 36.9 15.3S491 59.4 491 73.2v365.6c0 13.8-5.5 27.1-15.3 36.9S452.6 491 438.8 491H73.2c-29 0-52.2-23.5-52.2-52.2zm104.4 339.5h52.2l9.1-52.2h104.4l-9.1 52.2h52.2l9.1-52.2h52.2l9.4-52.2h-52.2L371 203.9h52.2l9.1-52.2h-52.2l9.4-52.2h-52.2l-9.4 52.2H223.5l9.4-52.2h-52.2l-9.4 52.2h-52.2l-9.1 52.2h52.2l-18.3 104.4H91.7l-9.4 52.2h52.2zm89.1-208.9h104.4l-18.3 104.4H196.2z"/>
</svg>
