<svg xmlns="http://www.w3.org/2000/svg" width="512" height="512" viewBox="0 0 512 512">
  <path d="M411.576,411.576H100.424V100.424h311.152M411.576,56H100.424c-11.743,0-23.122,4.643-31.406,13.018-8.375,8.375-13.018,19.663-13.018,31.406v311.152c0,24.579,19.845,44.424,44.424,44.424h311.152c11.743,0,23.122-4.643,31.406-13.018,8.375-8.375,13.018-19.663,13.018-31.406V100.424c0-11.743-4.643-23.122-13.018-31.406-8.375-8.375-19.663-13.018-31.406-13.018M144.848,189.364h51.343l7.101-66.636h44.424l-7.101,66.636h44.424l7.101-66.636h44.424l-7.101,66.636h37.597v44.424h-42.239l-4.461,44.424h46.7v44.424h-51.343l-7.101,66.636h-44.424l7.101-66.636h-44.424l-7.101,66.636h-44.424l7.101-66.636h-37.597v-44.424h42.239l4.461-44.424h-46.7v-44.424ZM235.973,233.788l-4.461,44.424h44.424l4.461-44.424h-44.424Z"/>
</svg>