<?xml version="1.0" encoding="UTF-8"?>
<svg id="Layer_1" xmlns="http://www.w3.org/2000/svg" version="1.1" viewBox="0 0 500 500">
  <!-- Generator: Adobe Illustrator 29.1.0, SVG Export Plug-In . SVG Version: 2.1.0 Build 142)  -->
  <path d="M420.9,420.9H79.1V79.1h341.8M420.9,30.3H79.1c-12.9,0-25.4,5.1-34.5,14.3-9.2,9.2-14.3,21.6-14.3,34.5v341.8c0,27,21.8,48.8,48.8,48.8h341.8c12.9,0,25.4-5.1,34.5-14.3,9.2-9.2,14.3-21.6,14.3-34.5V79.1c0-12.9-5.1-25.4-14.3-34.5-9.2-9.2-21.6-14.3-34.5-14.3M127.9,176.8h56.4l7.8-73.2h48.8l-7.8,73.2h48.8l7.8-73.2h48.8l-7.8,73.2h41.3v48.8h-46.4l-4.9,48.8h51.3v48.8h-56.4l-7.8,73.2h-48.8l7.8-73.2h-48.8l-7.8,73.2h-48.8l7.8-73.2h-41.3v-48.8h46.4l4.9-48.8h-51.3v-48.8ZM228,225.6l-4.9,48.8h48.8l4.9-48.8h-48.8Z"/>
</svg>