<svg xmlns="http://www.w3.org/2000/svg" width="512" height="512" viewBox="0 0 500 500">
    <path d="M420.9 420.9H79.1V79.1h341.8m0-48.8H79.1c-12.9 0-25.4 5.1-34.5 14.3-9.2 9.2-14.3 21.6-14.3 34.5v341.8c0 27 21.8 48.8 48.8 48.8h341.8c12.9 0 25.4-5.1 34.5-14.3 9.2-9.2 14.3-21.6 14.3-34.5V79.1c0-12.9-5.1-25.4-14.3-34.5-9.2-9.2-21.6-14.3-34.5-14.3m-293 146.5h56.4l7.8-73.2h48.8l-7.8 73.2h48.8l7.8-73.2h48.8l-7.8 73.2H372v48.8h-46.4l-4.9 48.8H372v48.8h-56.4l-7.8 73.2H259l7.8-73.2H218l-7.8 73.2h-48.8l7.8-73.2h-41.3v-48.8h46.4l4.9-48.8h-51.3zM228 225.6l-4.9 48.8h48.8l4.9-48.8z"/>
</svg>
