<?xml version="1.0" encoding="UTF-8"?>
<svg id="Layer_1" data-name="Layer 1" xmlns="http://www.w3.org/2000/svg" version="1.1" viewBox="0 0 512 512">
  <path class="cls-1" d="M96,131.5c0-9.5,3.7-18.5,10.4-25.1,6.7-6.7,15.7-10.4,25.1-10.4h248.9c9.4,0,18.5,3.7,25.1,10.4s10.4,15.7,10.4,25.1v248.9c0,9.4-3.7,18.5-10.4,25.1s-15.7,10.4-25.1,10.4h-248.9c-19.7,0-35.5-16-35.5-35.5,0,0,0-248.9,0-248.9ZM167.1,362.7h35.5l6.2-35.5h71.1l-6.2,35.5h35.5l6.2-35.5h35.5l6.4-35.5h-35.5l12.5-71.1h35.5l6.2-35.5h-35.5l6.4-35.5h-35.5l-6.4,35.5h-71.1l6.4-35.5h-35.5l-6.4,35.5h-35.5l-6.2,35.5h35.5l-12.5,71.1h-35.5l-6.4,35.5h35.5l-6.2,35.5h0ZM227.7,220.5h71.1l-12.5,71.1h-71.1l12.5-71.1h0Z"/>
</svg>