<svg xmlns="http://www.w3.org/2000/svg" width="512" height="512" viewBox="0 0 512 512">
    <path d="M319.2 330.2H54.5c-9.8 0-17.7-7.9-17.7-17.7v-255c.1-9.8 8-17.7 17.7-17.7h264.6c9.8 0 17.7 7.9 17.7 17.7v255c0 9.8-7.8 17.7-17.6 17.7zm-24.1-218.7L266.6 89c-.8-.8-2.1-1.1-3.2-1.1s-2.4.5-3.2 1.3L156.6 222.1s-40.7-39.1-41.8-40.3c-1.1-1.2-2.6-3.1-4.9-3.1-2.3 0-3.3 1.7-4.6 2.8-.8.9-15.3 16.2-22.5 23.8-.4.4-.7.8-1 1-.7.8-1 1.9-1 2.9s.4 2.2 1 3l1.5 1.4s72.2 69.4 73.4 70.5c1.1 1 2.6 2.6 4.8 2.6s3.8-2.3 4.8-3.2l129.1-165.9c.7-.8 1-1.9 1-3-.2-.9-.5-2.2-1.3-3.1zm68 71.6c.7-.8 1-1.9 1-3-.2-1-.6-2.3-1.3-3.2l-3.7-2.9v14.1l4-5z"/>
    <path d="M391.7 79.4c10.4 0 18.8 7.3 18.8 17.7v284.7c0 10.4-8.4 18.8-18.8 18.8H95.8c-10.4 0-17.7-8.4-17.7-18.8V363h294.8V79.4h18.8z"/>
    <path d="M460.1 147.7c10.4 0 18.8 7.3 18.8 17.7v284.7c0 10.4-8.4 18.8-18.8 18.8H164.2c-10.4 0-17.7-8.4-17.7-18.8v-18.8h294.8V147.7h18.8z"/>
</svg>
