<svg xmlns="http://www.w3.org/2000/svg" width="512" height="512" viewBox="0 0 512 512">
    <path fill-rule="nonzero" d="M459.15 141.4c10.4 0 18.8 7.3 18.8 17.7v284.7c0 10.4-8.4 18.8-18.8 18.8h-295.9c-10.4 0-17.7-8.4-17.7-18.8V425h294.8V141.4h18.8zm-68.4-64.1c10.4 0 18.8 7.3 18.8 17.7v284.7c0 10.4-8.4 18.8-18.8 18.8H94.85c-10.4 0-17.7-8.4-17.7-18.8v-18.8h294.8V77.3h18.8zm-74.4-27.9c9.8 0 17.7 7.9 17.7 17.7v255c0 9.8-7.8 17.7-17.6 17.7H51.75c-9.8 0-17.7-7.9-17.7-17.7v-255c.1-9.8 8-17.7 17.7-17.7h264.6zm-55.7 48.1c-1.1 0-2.4.5-3.2 1.3l-103.6 132.9s-40.7-39.1-41.8-40.3c-1.1-1.2-2.6-3.1-4.9-3.1-2.3 0-3.3 1.7-4.6 2.8-.8.9-15.3 16.2-22.5 23.8-.4.4-.7.8-1 1-.7.8-1 1.9-1 2.9s.4 2.2 1 3l1.5 1.4s72.2 69.4 73.4 70.5c1.1 1 2.6 2.6 4.8 2.6 2.2 0 3.8-2.3 4.8-3.2l129.1-165.9c.7-.8 1-1.9 1-3-.2-.9-.5-2.2-1.3-3.1l-28.5-22.5c-.8-.8-2.1-1.1-3.2-1.1z"/>
</svg>
