<svg xmlns="http://www.w3.org/2000/svg" width="512" height="512" viewBox="0 0 512 512">
  <path d="M439.059,152.734c9.371,0,16.941,6.578,16.941,15.95v256.544c0,9.371-7.569,16.941-16.941,16.941H172.423c-9.371,0-15.95-7.569-15.95-16.941v-16.941h265.645v-255.553h16.941ZM377.424,94.973c9.371,0,16.941,6.578,16.941,15.95v256.544c0,9.371-7.569,16.941-16.941,16.941H110.787c-9.371,0-15.95-7.569-15.95-16.941v-16.941h265.645V94.973h16.942ZM310.382,69.832c8.831,0,15.95,7.119,15.95,15.95v229.781c0,8.831-7.029,15.95-15.859,15.95H71.95c-8.831,0-15.95-7.119-15.95-15.95V85.781c.09-8.831,7.209-15.95,15.95-15.95h238.432,0ZM260.19,113.175c-.991,0-2.163.451-2.884,1.171l-93.354,119.757s-36.675-35.233-37.666-36.314-2.343-2.793-4.415-2.793-2.974,1.532-4.145,2.523c-.721.811-13.787,14.598-20.275,21.446-.36.36-.631.721-.901.901-.631.721-.901,1.712-.901,2.613s.36,1.982.901,2.703l1.352,1.262s65.06,62.537,66.141,63.528c.991.901,2.343,2.343,4.325,2.343s3.424-2.073,4.325-2.884l116.333-149.493c.631-.721.901-1.712.901-2.703-.18-.811-.451-1.982-1.171-2.793l-25.681-20.275c-.721-.721-1.892-.991-2.884-.991"/>
</svg>