<?xml version="1.0" encoding="UTF-8"?>
<svg id="Layer_1" xmlns="http://www.w3.org/2000/svg" version="1.1" viewBox="0 0 500 500">
  <!-- Generator: Adobe Illustrator 29.1.0, SVG Export Plug-In . SVG Version: 2.1.0 Build 142)  -->
  <path d="M455.9,133.8c10.5,0,19.1,7.4,19.1,17.9v288.6c0,10.5-8.5,19.1-19.1,19.1H156c-10.5,0-17.9-8.5-17.9-19.1v-19.1h298.9V133.8h19.1ZM386.6,68.8c10.5,0,19.1,7.4,19.1,17.9v288.6c0,10.5-8.5,19.1-19.1,19.1H86.6c-10.5,0-17.9-8.5-17.9-19.1v-19.1h298.9V68.8h19.1ZM311.2,40.6c9.9,0,17.9,8,17.9,17.9v258.5c0,9.9-7.9,17.9-17.8,17.9H42.9c-9.9,0-17.9-8-17.9-17.9V58.5c.1-9.9,8.1-17.9,17.9-17.9h268.2ZM254.7,89.3c-1.1,0-2.4.5-3.2,1.3l-105,134.7s-41.3-39.6-42.4-40.9-2.6-3.1-5-3.1-3.3,1.7-4.7,2.8c-.8.9-15.5,16.4-22.8,24.1-.4.4-.7.8-1,1-.7.8-1,1.9-1,2.9s.4,2.2,1,3l1.5,1.4s73.2,70.4,74.4,71.5c1.1,1,2.6,2.6,4.9,2.6s3.9-2.3,4.9-3.2l130.9-168.2c.7-.8,1-1.9,1-3-.2-.9-.5-2.2-1.3-3.1l-28.9-22.8c-.8-.8-2.1-1.1-3.2-1.1"/>
</svg>