<?xml version="1.0" encoding="UTF-8"?>
<svg width="512px" height="512px" viewBox="0 0 512 512" version="1.1" xmlns="http://www.w3.org/2000/svg" xmlns:xlink="http://www.w3.org/1999/xlink">
    <!-- Generator: Sketch 62 (91390) - https://sketch.com -->
    <title>projects</title>
    <desc>Created with Sketch.</desc>
    <g id="projects" stroke="none" stroke-width="1" fill="none" fill-rule="evenodd">
        <path d="M459.15,141.4 C469.55,141.4 477.95,148.7 477.95,159.1 L477.95,443.8 C477.95,454.2 469.55,462.6 459.15,462.6 L163.25,462.6 C152.85,462.6 145.55,454.2 145.55,443.8 L145.55,425 L440.35,425 L440.35,141.4 L459.15,141.4 Z M390.75,77.3 C401.15,77.3 409.55,84.6 409.55,95 L409.55,379.7 C409.55,390.1 401.15,398.5 390.75,398.5 L94.85,398.5 C84.45,398.5 77.15,390.1 77.15,379.7 L77.15,360.9 L371.95,360.9 L371.95,77.3 L390.75,77.3 Z M316.35,49.4 C326.15,49.4 334.05,57.3 334.05,67.1 L334.05,322.1 C334.05,331.9 326.25,339.8 316.45,339.8 L51.75,339.8 C41.95,339.8 34.05,331.9 34.05,322.1 L34.05,67.1 C34.15,57.3 42.05,49.4 51.75,49.4 L316.35,49.4 Z M260.65,97.5 C259.55,97.5 258.25,98 257.45,98.8 L153.85,231.7 C153.85,231.7 113.15,192.6 112.05,191.4 C110.95,190.2 109.45,188.3 107.15,188.3 C104.85,188.3 103.85,190 102.55,191.1 C101.75,192 87.25,207.3 80.05,214.9 C79.65,215.3 79.35,215.7 79.05,215.9 C78.35,216.7 78.05,217.8 78.05,218.8 C78.05,219.8 78.45,221 79.05,221.8 L80.55,223.2 C80.55,223.2 152.75,292.6 153.95,293.7 C155.05,294.7 156.55,296.3 158.75,296.3 C160.95,296.3 162.55,294 163.55,293.1 L292.65,127.2 C293.35,126.4 293.65,125.3 293.65,124.2 C293.45,123.3 293.15,122 292.35,121.1 L263.85,98.6 C263.05,97.8 261.75,97.5 260.65,97.5 Z" id="Combined-Shape" fill="#000000" fill-rule="nonzero"></path>
    </g>
</svg>