<svg xmlns="http://www.w3.org/2000/svg" width="512" height="512" viewBox="0 0 512 512">
  <path d="M317.404,241.004l-18,18.4c-14.4,14.4-23.404,26.604-23.404,56.604h-40v-10c0-22.196,8.996-42.204,23.396-56.604l24.8-25.2c7.404-7.2,11.796-17.2,11.796-28.196,0-22.196-18-40-40-40-10.604,0-20.782,4.213-28.284,11.716-7.501,7.502-11.716,17.676-11.716,28.284h-40c-.002-44.18,35.811-79.998,79.991-80h.009c44.18-.002,79.998,35.811,80,79.991v.009c0,17.6-7.2,33.396-18.596,44.996h.009ZM276,396h-40v-40h40M256,56c-26.267,0-52.276,5.173-76.533,15.227-24.264,10.054-46.313,24.784-64.889,43.351-37.502,37.511-58.578,88.382-58.578,141.422s21.076,103.911,58.578,141.422c18.572,18.573,40.621,33.304,64.889,43.351,24.264,10.051,50.27,15.225,76.533,15.227,53.04,0,103.911-21.076,141.422-58.578,37.511-37.511,58.578-88.382,58.578-141.422,0-110.604-90-200-200-200"/>
</svg>