<svg xmlns="http://www.w3.org/2000/svg" width="512" height="512" viewBox="0 0 512 512">
    <path fill-rule="nonzero" d="M256.215 65c102.634 0 185.431 80.066 185.001 178.531 0 35.506-10.926 68.567-29.325 96.597-.719.863-1.581 1.869-2.3 3.163-2.3 3.88-3.594 8.193-3.594 12.937L424.253 435l-73.31-27.455c-3.306-1.294-6.9-2.156-10.781-2.156-3.45 0-6.9.43-9.918 1.724 0 .144 0 .144-.144.144-.575.288-1.15.575-1.581.719-8.338 3.306-16.819 5.893-25.443 8.193-14.95 3.738-30.618 6.038-47.005 6.038-102.347 0-185.287-80.066-185.287-178.676 0-12.362 1.437-24.724 4.024-36.51C92.202 126.09 166.95 65 256.215 65zm22.624 251.688H235.21V359h43.63v-42.312zM253.365 141c-16.788 0-30.941 3.709-42.458 11.127-18.07 11.499-27.769 30.938-29.098 58.316l-.037.832h42.311l.005-.639c.121-7.873 2.487-15.468 7.096-22.786 4.734-7.515 12.762-11.273 24.084-11.273 11.517 0 19.448 3.05 23.791 9.15 4.344 6.1 6.515 12.86 6.515 20.278 0 6.442-1.952 12.347-5.856 17.715-2.028 2.95-4.666 5.682-7.912 8.196l-.58.442-10.687 8.345-.571.446c-10.207 8.016-16.556 15.115-19.048 21.296-2.497 6.195-4.05 17.33-4.656 33.404l-.029.782h39.53l.01-.665c.124-7.471.755-13.008 1.893-16.611 1.8-5.684 5.393-10.679 10.779-14.984l.495-.39 10.394-8.052.593-.462c10.216-7.99 17.144-14.57 20.783-19.742 6.344-8.686 9.516-19.374 9.516-32.063 0-20.692-7.296-36.309-21.888-46.85C293.75 146.271 275.423 141 253.365 141z"/>
</svg>
