<svg xmlns="http://www.w3.org/2000/svg" width="512" height="512" viewBox="0 0 512 512">
    <path d="M256.215 65c102.634 0 185.431 80.066 185.001 178.531 0 35.506-10.926 68.567-29.325 96.597-.719.863-1.581 1.869-2.3 3.163-2.3 3.88-3.594 8.193-3.594 12.937L424.253 435l-73.31-27.455c-3.306-1.294-6.9-2.156-10.781-2.156-3.45 0-6.9.43-9.918 1.724 0 .144 0 .144-.144.144-.575.288-1.15.575-1.581.719-8.338 3.306-16.819 5.893-25.443 8.193-14.95 3.738-30.618 6.038-47.005 6.038-102.347 0-185.287-80.066-185.287-178.676 0-12.362 1.437-24.724 4.024-36.51C92.202 126.09 166.95 65 256.215 65m22.624 251.688H235.21V359h43.63v-42.312zM253.365 141q-25.182 0-42.458 11.127-27.105 17.249-29.098 58.316l-.037.832h42.311l.005-.639q.182-11.81 7.096-22.786 7.101-11.273 24.084-11.273 17.276 0 23.791 9.15t6.515 20.278q0 9.663-5.856 17.715-3.043 4.425-7.912 8.196l-.58.442-10.687 8.345-.571.446q-15.31 12.024-19.048 21.296-3.746 9.293-4.656 33.404l-.029.782h39.53l.01-.665q.186-11.206 1.893-16.611 2.7-8.526 10.779-14.984l.495-.39 10.394-8.052.593-.462q15.324-11.984 20.783-19.742 9.516-13.03 9.516-32.063 0-31.038-21.888-46.85Q286.454 141 253.365 141"/>
</svg>
