<svg xmlns="http://www.w3.org/2000/svg" width="500" height="500" viewBox="0 0 500 500">
    <path d="m319.08 233.13-20.25 20.7c-16.2 16.2-26.33 29.93-26.33 63.68h-45v-11.25c0-24.97 10.12-47.48 26.32-63.68l27.9-28.35c8.33-8.1 13.27-19.35 13.27-31.72 0-24.97-20.25-45-45-45-11.93 0-23.38 4.74-31.82 13.18a45 45 0 0 0-13.18 31.82h-45a89.995 89.995 0 0 1 90-90 89.995 89.995 0 0 1 90 90c0 19.8-8.1 37.57-20.92 50.62ZM272.5 407.5h-45v-45h45M250 25c-29.55 0-58.81 5.82-86.1 17.13a225.2 225.2 0 0 0-73 48.77C48.71 133.1 25 190.33 25 250s23.71 116.9 65.9 159.1a224.9 224.9 0 0 0 73 48.77A225 225 0 0 0 250 475c59.67 0 116.9-23.71 159.1-65.9C451.3 366.9 475 309.67 475 250c0-124.43-101.25-225-225-225"/>
</svg>
