<?xml version="1.0" encoding="UTF-8"?>
<svg id="Layer_1" xmlns="http://www.w3.org/2000/svg" version="1.1" viewBox="0 0 500 500">
  <!-- Generator: Adobe Illustrator 29.1.0, SVG Export Plug-In . SVG Version: 2.1.0 Build 142)  -->
  <path d="M175,25c-47.7,0-84.9,13.2-111,39.1-26,25.9-39.1,63.3-39.1,111v300h187.5V175h-112.5c0-27,5.8-46.5,17.2-57.8,11.4-11.4,30.8-17.2,57.8-17.2M437.5,25c-47.7,0-84.9,13.2-111,39.1-26,26-39.1,63.3-39.1,111v300h187.6V175h-112.5c0-27,5.8-46.5,17.2-57.8,11.4-11.4,30.8-17.2,57.8-17.2"/>
</svg>