<?xml version="1.0" encoding="UTF-8"?>
<svg width="512px" height="512px" viewBox="0 0 512 512" version="1.1" xmlns="http://www.w3.org/2000/svg" xmlns:xlink="http://www.w3.org/1999/xlink">
    <!-- Generator: Sketch 62 (91390) - https://sketch.com -->
    <title>quote</title>
    <desc>Created with Sketch.</desc>
    <g id="quote" stroke="none" stroke-width="1" fill="none" fill-rule="evenodd">
        <path d="M202.7,89.5 C168.8,89.5 142.3,98.9 123.8,117.3 C105.3,135.7 96,162.3 96,196.2 L96,409.5 L229.3,409.5 L229.3,196.2 L149.3,196.2 C149.3,177 153.4,163.1 161.5,155.1 C169.6,147 183.4,142.9 202.6,142.9 M389.3,89.5 C355.4,89.5 328.9,98.9 310.4,117.3 C291.9,135.8 282.6,162.3 282.6,196.2 L282.6,409.5 L416,409.5 L416,196.2 L336,196.2 C336,177 340.1,163.1 348.2,155.1 C356.3,147 370.1,142.9 389.3,142.9" id="Shape" fill="#000000" fill-rule="nonzero"></path>
    </g>
</svg>