<svg xmlns="http://www.w3.org/2000/svg" width="512" height="512" viewBox="0 0 512 512">
    <path d="M136.5 249.544H171c-17.2 22.9-34 45.4-51.1 68.1-16.9-22.7-33.8-45-51-68h33.5c.5-6.7.8-12.9 1.4-18.9 4.3-39.6 20.8-73.4 48.9-101.6 23.8-23.8 52.1-40 85.3-46.1 69.2-12.6 126.6 8.5 170.4 63.8 25.2 31.9 35.9 69.1 34.5 109.6-2.8 78.9-60.9 145.3-136.3 159.6-58.7 11-110-4.4-153.4-45.8-5.1-4.9-6.7-10.8-4.7-17.4 2-6.9 6.9-10.9 13.9-11.9 5.8-.9 10.6 1.2 14.7 5.3 14.3 13.9 30.6 24.4 49.4 31.2 78.8 28.8 165.6-21.2 180.1-103.3 12.7-72.4-33.1-141.3-104.5-157.2-74.8-16.8-149.3 32.4-163.1 108-1.2 7.8-1.5 15.9-2.5 24.6"/>
    <path d="M272.9 250.15v-76.9c0-9.7-7.1-17.2-16.5-17.4-9.7-.2-17.7 7-17.7 16.7-.1 34.1-.1 68.3 0 102.4 0 9.4 7.2 16.9 16.6 16.9 22.9.2 45.9.2 69 0 9.5-.1 16.9-8.2 16.7-17.4-.2-9.7-7.6-16.7-17.5-16.7H273v-7.6z"/>
</svg>
