<?xml version="1.0" encoding="UTF-8"?>
<svg id="Layer_1" xmlns="http://www.w3.org/2000/svg" version="1.1" viewBox="0 0 500 500">
  <!-- Generator: Adobe Illustrator 29.1.0, SVG Export Plug-In . SVG Version: 2.1.0 Build 142)  -->
  <path d="M106.3,250.1h41.5c-20.7,27.5-40.9,54.6-61.5,81.9-20.3-27.3-40.7-54.1-61.3-81.8h40.3c.6-8.1,1-15.5,1.7-22.7,5.2-47.6,25-88.3,58.8-122.2,28.6-28.6,62.7-48.1,102.6-55.4,83.2-15.2,152.3,10.2,205,76.7,30.3,38.4,43.2,83.1,41.5,131.8-3.4,94.9-73.3,174.8-163.9,192-70.6,13.2-132.3-5.3-184.5-55.1-6.1-5.9-8.1-13-5.7-20.9,2.4-8.3,8.3-13.1,16.7-14.3,7-1.1,12.7,1.4,17.7,6.4,17.2,16.7,36.8,29.3,59.4,37.5,94.8,34.6,199.2-25.5,216.6-124.3,15.3-87.1-39.8-170-125.7-189.1-90-20.2-179.6,39-196.2,129.9-1.4,9.4-1.8,19.1-3,29.6M270.4,250.8v-92.5c0-11.7-8.5-20.7-19.8-20.9-11.7-.2-21.3,8.4-21.3,20.1-.1,41-.1,82.2,0,123.2,0,11.3,8.7,20.3,20,20.3,27.5.2,55.2.2,83,0,11.4-.1,20.3-9.9,20.1-20.9-.2-11.7-9.1-20.1-21-20.1h-60.7v-9.1h-.1Z"/>
</svg>