<svg xmlns="http://www.w3.org/2000/svg" width="512" height="512" viewBox="0 0 512 512">
  <path d="M128.276,256.047h36.886c-18.39,24.484-36.352,48.54-54.635,72.811-18.069-24.27-36.138-48.113-54.528-72.704h35.817c.535-7.163.855-13.792,1.497-20.207,4.597-42.339,22.239-78.477,52.283-108.628,25.446-25.446,55.704-42.767,91.2-49.289,73.987-13.472,135.357,9.088,182.187,68.213,26.943,34.107,38.383,73.88,36.886,117.181-2.994,84.358-65.113,155.351-145.728,170.64-62.76,11.761-117.609-4.704-164.011-48.968-5.453-5.239-7.163-11.547-5.025-18.604,2.138-7.377,7.377-11.654,14.861-12.723,6.201-.962,11.333,1.283,15.717,5.667,15.289,14.861,32.717,26.088,52.817,33.358,84.251,30.792,177.055-22.666,192.558-110.446,13.579-77.408-35.39-151.074-111.729-168.074-79.974-17.962-159.627,34.641-174.382,115.471-1.283,8.34-1.604,17-2.673,26.302M274.111,256.695v-82.219c0-10.371-7.591-18.39-17.641-18.604-10.371-.214-18.924,7.484-18.924,17.855-.107,36.459-.107,73.024,0,109.483,0,10.05,7.698,18.069,17.748,18.069,24.484.214,49.075.214,73.773,0,10.157-.107,18.069-8.767,17.855-18.604-.214-10.371-8.126-17.855-18.711-17.855h-53.993v-8.126h-.107Z"/>
</svg>