<svg xmlns="http://www.w3.org/2000/svg" width="512" height="512" viewBox="0 0 512 512">
    <path d="M105.9 244h43.2c-21.6 28.8-42.6 56.9-64.1 85.5C63.7 301 42.7 273 21.1 244.2h42.1c.6-8.3 1-16.1 1.8-23.8 5.4-49.7 26.1-92.1 61.3-127.4 29.8-29.9 65.3-50.2 106.9-57.7C320 19.4 392 46 446.9 115.3c31.7 40 45 86.6 43.2 137.5-3.5 98.9-76.4 182.3-171 200.1-73.6 13.8-138-5.6-192.4-57.4-6.4-6.1-8.3-13.5-5.9-21.9 2.5-8.7 8.7-13.6 17.5-15 7.3-1.2 13.4 1.5 18.5 6.6 17.9 17.5 38.4 30.6 62 39.2 98.8 36 207.8-26.5 226-129.6 16-90.7-41.5-177.3-131-197.2-93.9-21.1-187.2 40.6-204.5 135.4-1.8 9.9-2.3 20.1-3.4 31z"/>
    <path d="M277 234.2v-96.5c0-12.2-8.9-21.5-20.7-21.8-12.1-.3-22.1 8.8-22.1 21-.2 42.8-.1 85.6 0 128.4 0 11.8 9.1 21.2 20.8 21.3 28.8.3 57.6.3 86.5 0 11.9-.1 21.2-10.2 20.9-21.8-.3-12.1-9.6-21-22-21H277v-9.6z"/>
</svg>
