<?xml version="1.0" encoding="UTF-8"?>
<svg width="512px" height="512px" viewBox="0 0 512 512" version="1.1" xmlns="http://www.w3.org/2000/svg" xmlns:xlink="http://www.w3.org/1999/xlink">
    <!-- Generator: Sketch 62 (91390) - https://sketch.com -->
    <title>record-outlined</title>
    <desc>Created with Sketch.</desc>
    <g id="record-outlined" stroke="none" stroke-width="1" fill="none" fill-rule="evenodd">
        <path d="M256,381 C328.7,381 387.5,322.1 387.5,249.5 C387.5,176.9 328.7,118 256,118 C183.3,118 124.5,176.8 124.5,249.5 C124.5,322.2 183.3,381 256,381 Z" id="Path" fill="#000000" fill-rule="nonzero"></path>
        <path d="M256,105.3 C335.6,105.3 400.2,169.9 400.2,249.5 C400.2,329.1 335.6,393.7 256,393.7 C176.4,393.7 111.8,329.1 111.8,249.5 C111.8,169.9 176.4,105.3 256,105.3 M256,89.5 C234.4,89.5 213.4,93.7 193.7,102.1 C174.7,110.1 157.5,121.7 142.9,136.4 C128.2,151.1 116.7,168.2 108.6,187.2 C100.2,206.9 96,227.9 96,249.5 C96,271.1 100.2,292.1 108.6,311.8 C116.6,330.8 128.2,348 142.9,362.6 C157.6,377.2 174.7,388.8 193.7,396.9 C213.4,405.2 234.4,409.5 256,409.5 C277.6,409.5 298.6,405.3 318.3,396.9 C337.3,388.9 354.5,377.3 369.1,362.6 C383.7,347.9 395.3,330.8 403.4,311.8 C411.7,292.1 416,271.1 416,249.5 C416,227.9 411.8,206.9 403.4,187.2 C395.4,168.2 383.8,151 369.1,136.4 C354.4,121.8 337.3,110.2 318.3,102.1 C298.6,93.7 277.6,89.5 256,89.5 Z" id="Shape" fill="#000000" fill-rule="nonzero"></path>
    </g>
</svg>