<svg xmlns="http://www.w3.org/2000/svg" width="512" height="512" viewBox="0 0 512 512">
  <path d="M256,420.375c90.875,0,164.375-73.625,164.375-164.375s-73.5-164.375-164.375-164.375-164.375,73.5-164.375,164.375,73.5,164.375,164.375,164.375M256,75.75c99.5,0,180.25,80.75,180.25,180.25s-80.75,180.25-180.25,180.25-180.25-80.75-180.25-180.25,80.75-180.25,180.25-180.25M256,56c-27,0-53.25,5.25-77.875,15.75-23.75,10-45.25,24.5-63.5,42.875-18.375,18.375-32.75,39.75-42.875,63.5-10.5,24.625-15.75,50.875-15.75,77.875s5.25,53.25,15.75,77.875c10,23.75,24.5,45.25,42.875,63.5s39.75,32.75,63.5,42.875c24.625,10.375,50.875,15.75,77.875,15.75s53.25-5.25,77.875-15.75c23.75-10,45.25-24.5,63.5-42.875,18.25-18.375,32.75-39.75,42.875-63.5,10.375-24.625,15.75-50.875,15.75-77.875s-5.25-53.25-15.75-77.875c-10-23.75-24.5-45.25-42.875-63.5-18.375-18.25-39.75-32.75-63.5-42.875-24.625-10.5-50.875-15.75-77.875-15.75"/>
</svg>