<?xml version="1.0" encoding="UTF-8"?>
<svg id="Layer_1" xmlns="http://www.w3.org/2000/svg" version="1.1" viewBox="0 0 500 500">
  <!-- Generator: Adobe Illustrator 29.1.0, SVG Export Plug-In . SVG Version: 2.1.0 Build 142)  -->
  <path d="M250,434.9c102.2,0,184.9-82.8,184.9-184.9s-82.7-184.9-184.9-184.9S65.1,147.8,65.1,250s82.7,184.9,184.9,184.9M250,47.2c111.9,0,202.8,90.8,202.8,202.8s-90.8,202.8-202.8,202.8S47.2,361.9,47.2,250,138.1,47.2,250,47.2M250,25c-30.4,0-59.9,5.9-87.6,17.7-26.7,11.3-50.9,27.6-71.4,48.2-20.7,20.7-36.8,44.7-48.2,71.4-11.8,27.7-17.7,57.2-17.7,87.6s5.9,59.9,17.7,87.6c11.3,26.7,27.6,50.9,48.2,71.4,20.7,20.5,44.7,36.8,71.4,48.2,27.7,11.7,57.2,17.7,87.6,17.7s59.9-5.9,87.6-17.7c26.7-11.3,50.9-27.6,71.4-48.2,20.5-20.7,36.8-44.7,48.2-71.4,11.7-27.7,17.7-57.2,17.7-87.6s-5.9-59.9-17.7-87.6c-11.3-26.7-27.6-50.9-48.2-71.4s-44.7-36.8-71.4-48.2c-27.7-11.8-57.2-17.7-87.6-17.7"/>
</svg>