<svg xmlns="http://www.w3.org/2000/svg" width="512" height="512" viewBox="0 0 512 512">
    <path d="M256 381c72.7 0 131.5-58.9 131.5-131.5S328.7 118 256 118s-131.5 58.8-131.5 131.5S183.3 381 256 381"/>
    <path d="M256 105.3c79.6 0 144.2 64.6 144.2 144.2S335.6 393.7 256 393.7s-144.2-64.6-144.2-144.2S176.4 105.3 256 105.3m0-15.8c-21.6 0-42.6 4.2-62.3 12.6-19 8-36.2 19.6-50.8 34.3-14.7 14.7-26.2 31.8-34.3 50.8-8.4 19.7-12.6 40.7-12.6 62.3s4.2 42.6 12.6 62.3c8 19 19.6 36.2 34.3 50.8s31.8 26.2 50.8 34.3c19.7 8.3 40.7 12.6 62.3 12.6s42.6-4.2 62.3-12.6c19-8 36.2-19.6 50.8-34.3s26.2-31.8 34.3-50.8c8.3-19.7 12.6-40.7 12.6-62.3s-4.2-42.6-12.6-62.3c-8-19-19.6-36.2-34.3-50.8s-31.8-26.2-50.8-34.3c-19.7-8.4-40.7-12.6-62.3-12.6"/>
</svg>
