<svg id="content" xmlns="http://www.w3.org/2000/svg" version="1.1" width="512" height="512" viewBox="0 0 512 512">
  <path d="M383.273,183.273l-72.727,72.727h54.545c0,28.933-11.493,56.681-31.952,77.139-20.458,20.458-48.206,31.952-77.139,31.952-18.182,0-35.818-4.545-50.909-12.727l-26.545,26.545c22.364,14.182,48.909,22.545,77.455,22.545,38.577,0,75.573-15.324,102.851-42.604,27.28-27.278,42.604-64.274,42.604-102.851h54.545M146.909,256c0-28.933,11.494-56.68,31.952-77.139,20.458-20.458,48.206-31.952,77.139-31.952,18.182,0,35.818,4.545,50.909,12.727l26.545-26.545c-22.364-14.182-48.909-22.545-77.455-22.545-38.577,0-75.574,15.325-102.852,42.603-27.278,27.278-42.603,64.275-42.603,102.852h-54.545l72.727,72.727,72.727-72.727"/>
</svg>