<?xml version="1.0" encoding="UTF-8"?>
<svg id="Layer_1" xmlns="http://www.w3.org/2000/svg" version="1.1" viewBox="0 0 500 500">
  <!-- Generator: Adobe Illustrator 29.1.0, SVG Export Plug-In . SVG Version: 2.1.0 Build 142)  -->
  <path d="M378.5,346.5l96.5-112.4h-65c-2.3-27.9-10.6-54.3-23.6-77.6-27.7-49.4-76.1-85.5-133.7-96-.7-.1-1.6-.3-2.3-.4-.5-.1-.8-.1-1.5-.1-10.1-1.7-20.7-2.6-31.4-2.6h-.4c-91.2,0-167.7,63.7-187.5,149.1h0c-.3,1.2-.5,2.4-.7,3.4-.1.5-.1.8-.3,1.5l-.4,2.1c-.1.8-.3,1.7-.5,2.6-.1.4-.1.7-.1,1.1l-.5,3.7h0c-.9,6.5-1.6,13-2,19.2v.8c-.1,1.5-.1,2.6-.1,4.1s-.1,3.3-.1,5,0,3.3.1,5c0,1.5.1,2.6.1,4.1v.8c.3,6.5.9,13,2,19.1h0c0,.1.5,3.8.5,3.8.1.4.1.7.1,1.1.1.8.3,1.9.5,2.6l.4,2.1c.1.5.1.9.3,1.5.1,1.1.5,2.3.7,3.2h0c19.9,85.5,96.5,149.2,187.9,149.3,43-.1,83.5-14.2,117.4-40.9l7.5-6-43.4-46.5-6.2,4.6c-22.2,16.3-47.7,24.4-75.3,24.4-70.8,0-128.6-57.2-128.6-128.6s57.6-128,128.6-128,123.4,46.9,130.1,112.5h-73.9l104.6,112.3Z"/>
</svg>