<svg xmlns="http://www.w3.org/2000/svg" width="512" height="512" viewBox="0 0 512 512">
  <path d="M370.21,341.79l85.79-99.912h-57.782c-2.001-24.831-9.415-48.249-20.947-68.961-24.595-43.895-67.667-76.022-118.858-85.319-.588-.118-1.412-.235-2.001-.353-.471-.118-.706-.118-1.295-.118-8.944-1.53-18.358-2.354-27.891-2.354h-.353c-81.083,0-149.103,56.605-166.637,132.51v.118c-.235.941-.471,2.001-.588,2.942-.118.471-.118.706-.235,1.295l-.353,1.883c-.118.706-.235,1.53-.471,2.354-.118.353-.118.588-.118.941l-.471,3.295v.118c-.824,5.649-1.412,11.415-1.765,16.946v.706c-.118,1.295-.118,2.354-.118,3.648,0,1.412-.118,2.942-.118,4.472s0,2.942.118,4.472c0,1.295.118,2.354.118,3.648v.706c.235,5.766.824,11.533,1.765,16.946v.118l.471,3.295c.118.353.118.588.118.941.118.706.235,1.648.471,2.354l.353,1.883c.118.471.118.824.235,1.295.118.941.471,2.001.588,2.824v.118c17.652,75.905,85.79,132.51,166.99,132.627,38.247-.118,74.257-12.592,104.384-36.364l6.708-5.296-38.6-41.306-5.531,4.119c-19.771,14.475-42.365,21.653-66.961,21.653-62.96,0-114.269-50.838-114.269-114.269s51.192-113.798,114.269-113.798c59.194,0,109.679,41.659,115.681,100.029h-65.666l92.968,99.794Z"/>
</svg>