<svg xmlns="http://www.w3.org/2000/svg" width="512" height="512" viewBox="0 0 512 512">
    <path d="m353.1 322.4 72.9-84.9h-49.1c-1.7-21.1-8-41-17.8-58.6-20.9-37.3-57.5-64.6-101-72.5-.5-.1-1.2-.2-1.7-.3-.4-.1-.6-.1-1.1-.1-7.6-1.3-15.6-2-23.7-2h-.3c-68.9 0-126.7 48.1-141.6 112.6v.1c-.2.8-.4 1.7-.5 2.5-.1.4-.1.6-.2 1.1l-.3 1.6c-.1.6-.2 1.3-.4 2-.1.3-.1.5-.1.8l-.4 2.8v.1c-.7 4.8-1.2 9.7-1.5 14.4v.6c-.1 1.1-.1 2-.1 3.1 0 1.2-.1 2.5-.1 3.8 0 1.3 0 2.5.1 3.8 0 1.1.1 2 .1 3.1v.6c.2 4.9.7 9.8 1.5 14.4v.1l.4 2.8c.1.3.1.5.1.8.1.6.2 1.4.4 2l.3 1.6c.1.4.1.7.2 1.1.1.8.4 1.7.5 2.4v.1c15 64.5 72.9 112.6 141.9 112.7 32.5-.1 63.1-10.7 88.7-30.9l5.7-4.5-32.8-35.1-4.7 3.5c-16.8 12.3-36 18.4-56.9 18.4-53.5 0-97.1-43.2-97.1-97.1 0-53.9 43.5-96.7 97.1-96.7 50.3 0 93.2 35.4 98.3 85h-55.8z"/>
</svg>
