<svg xmlns="http://www.w3.org/2000/svg" width="512" height="512" viewBox="0 0 512 512">
  <path d="M397.405,114.578c-37.526-37.506-88.41-58.576-141.466-58.578-53.058,0-103.946,21.076-141.466,58.578l-47.155-47.138v122.249l-1.102,3.298,126.844.16-47.155-47.138c29.183-29.176,68.76-45.565,110.026-45.564,41.271,0,80.844,16.391,110.026,45.564,29.178,29.168,45.572,68.734,45.573,109.991,0,41.253-16.391,80.818-45.573,109.991-29.183,29.176-68.76,45.565-110.026,45.564-41.271,0-80.844-16.391-110.026-45.564-30.338-30.329-45.422-70.24-45.271-109.991h-44.631c-.16,51.387,19.173,102.133,58.471,141.422,37.526,37.506,88.41,58.576,141.466,58.578,53.058,0,103.946-21.075,141.466-58.578,37.519-37.501,58.597-88.375,58.595-141.422,0-53.04-21.075-103.911-58.595-141.422"/>
</svg>