<svg xmlns="http://www.w3.org/2000/svg" width="500" height="500" viewBox="0 0 500 500">
    <path d="M409.08 90.9A225.14 225.14 0 0 0 249.93 25c-59.69 0-116.94 23.71-159.15 65.9L37.73 37.87V175.4l-1.24 3.71 142.7.18-53.05-53.03A175.07 175.07 0 0 1 249.92 75c46.43 0 90.95 18.44 123.78 51.26A174.97 174.97 0 0 1 424.97 250c0 46.41-18.44 90.92-51.27 123.74A175.07 175.07 0 0 1 249.92 425c-46.43 0-90.95-18.44-123.78-51.26-34.13-34.12-51.1-79.02-50.93-123.74H25c-.18 57.81 21.57 114.9 65.78 159.1A225.14 225.14 0 0 0 249.93 475c59.69 0 116.94-23.71 159.15-65.9A224.94 224.94 0 0 0 475 250c0-59.67-23.71-116.9-65.92-159.1"/>
</svg>
