<?xml version="1.0" encoding="UTF-8"?>
<svg id="Layer_1" xmlns="http://www.w3.org/2000/svg" version="1.1" viewBox="0 0 500 500">
  <!-- Generator: Adobe Illustrator 29.1.0, SVG Export Plug-In . SVG Version: 2.1.0 Build 142)  -->
  <path d="M334.5,81.2h-56.5v112.5h56.5v-112.5ZM362.5,193.7c0,7.7-2.7,14.2-8.3,19.8s-12.1,8.3-19.8,8.3h-168.9c-7.7,0-14.2-2.7-19.8-8.3s-8.3-12.1-8.3-19.8V53.3h225v140.5ZM395.4,25.3H81.5c-15.3,0-28.7,5.5-39.8,16.5-11.3,11.1-16.7,24.2-16.7,39.5v336.9c0,15.8,5.6,29.1,16.7,40.1s24.5,16.5,39.8,16.5h336.9c15.3,0,28.7-5.5,39.8-16.5s16.7-24.3,16.7-40.1V113l-79.6-87.8Z"/>
</svg>