<?xml version="1.0" encoding="UTF-8"?>
<svg width="512px" height="512px" viewBox="0 0 512 512" version="1.1" xmlns="http://www.w3.org/2000/svg" xmlns:xlink="http://www.w3.org/1999/xlink">
    <!-- Generator: Sketch 62 (91390) - https://sketch.com -->
    <title>save</title>
    <desc>Created with Sketch.</desc>
    <g id="save" stroke="none" stroke-width="1" fill="none" fill-rule="evenodd">
        <path d="M316.1,129.5 L275.9,129.5 L275.9,209.5 L316.1,209.5 L316.1,129.5 Z M336,209.5 C336,215 334.1,219.6 330.1,223.6 C326.2,227.5 321.5,229.5 316,229.5 L195.9,229.5 C190.4,229.5 185.8,227.6 181.8,223.6 C177.9,219.7 175.9,215 175.9,209.5 L175.9,109.6 L335.9,109.6 L336,209.5 Z M359.4,89.7 L136.2,89.7 C125.3,89.7 115.8,93.6 107.9,101.4 C99.9,109.3 96,118.6 96,129.5 L96,369.1 C96,380.3 100,389.8 107.9,397.6 C115.8,405.4 125.3,409.3 136.2,409.3 L375.8,409.3 C386.7,409.3 396.2,405.4 404.1,397.6 C412,389.8 416,380.3 416,369.1 L416,152.1 L359.4,89.7 Z" id="Shape" fill="#000000" fill-rule="nonzero"></path>
    </g>
</svg>