<svg xmlns="http://www.w3.org/2000/svg" width="512" height="512" viewBox="0 0 512 512">
  <path d="M367.111,56H100.444c-24.667,0-44.444,20-44.444,44.444v311.111c0,24.444,19.778,44.444,44.444,44.444h311.111c24.444,0,44.444-20,44.444-44.444V144.889l-88.889-88.889ZM411.556,411.556H100.444V100.444h248.222l62.889,62.889v248.222ZM256,256c-36.889,0-66.667,29.778-66.667,66.667s29.778,66.667,66.667,66.667,66.667-29.778,66.667-66.667-29.778-66.667-66.667-66.667M122.667,122.667h200v88.889H122.667v-88.889Z"/>
</svg>