<svg xmlns="http://www.w3.org/2000/svg" width="512" height="512" viewBox="0 0 512 512">
  <path d="M331.125,106h-50.25v100h50.25v-100ZM356,206c0,6.875-2.375,12.625-7.375,17.625-4.875,4.875-10.75,7.375-17.625,7.375h-150.125c-6.875,0-12.625-2.375-17.625-7.375-4.875-4.875-7.375-10.75-7.375-17.625v-124.875h200l.125,124.875ZM385.25,56.25H106.25c-13.625,0-25.5,4.875-35.375,14.625-10,9.875-14.875,21.5-14.875,35.125v299.5c0,14,5,25.875,14.875,35.625s21.75,14.625,35.375,14.625h299.5c13.625,0,25.5-4.875,35.375-14.625s14.875-21.625,14.875-35.625V134.25l-70.75-78Z"/>
</svg>