<svg xmlns="http://www.w3.org/2000/svg" width="512" height="512" viewBox="0 0 512 512">
    <path d="M358.9 124c42.6 0 54.6 33.8 53.5 46.6-.9 10.3-1.3 14.8-1.9 19.9-.6 5.1 3.6 5.9 1.1 16.5-4.7 20.2-6.3 11.9-8.5 24.5-5.5 32-14.2 22.3-14.2 39.2 0 26-2.4 19.1 36.2 33.3 39.2 14.4 48.4 23.2 49.5 29.8 1.289 7.824 1.391 22.087 1.4 24.306v.294h-.1v-.1H241.7s0-16.1 1.4-24.5c1-6.6 10.3-15.5 49.5-29.8 38.5-14.1 36.2-7.2 36.2-33.3 0-16.9-8.7-7-14.2-39.2-2.2-12.7-3.8-4.3-8.5-24.5-2.5-10.6 1.6-11.4 1.1-16.5-.5-5-.9-9.6-1.9-19.9-1.3-12.8 11-46.6 53.6-46.6zM131 154.5c52.5 0 95 42.6 95 95s-42.6 95-95 95-95-42.6-95-95 42.5-95 95-95zm2.2 14.1h-3.4c2.6 5.3-2.3 7.9-3.7 8.2-3.3 0-4.3-2.7-7.1-2.1-1.9.5-2.7-1.6-4.4-.6-1.5 1.1-5.6 3.2-5.9 5.1-1.1 5.1 2.6 5.3 5.9 2.3 2.6-2.6 7.4-4.8 10.7-2.2 2.4 2.1 1.9 3.9 1.9 5.8 0 2-.7 7.4-4.1 6.7-1.6-.4-2.7-2.3-4.4-1.1-3.5 3-7.5 2.3-12.2 3.7-4 .5-7 2.4-10.9 3.8-3.5 1.2-4.5 1.8-5 5.2-.1 1.1-.1 5.7-1.2 6.3-2.3.8-3.5-9.1-9.4-8.4-5.2.6-12.9 5.7-10.7 12 .8 2.2 12.1 1.1 4.4 5.9-.8.5.6 7 .6 8.2.6 3.6 5.7 7.8 9.1 4.4 2.6-2.8 2.4-2.4 5.8-1 6.3 3.3 14 6.2 19.1 11.4 2.6 2.6 4.2 10.5 7.6 12.1 3.9 1.9 8 1.9 11 5.6 2.4 3.1-1.1 8.2-3.6 9.8-1.5.8-5.1 10.3-6.7 12.5-.8 1.7-5 2.4-6.6 2.8-1.3.1-3.2 3.5-3.9 4.5-2.8 2.9-3.4 5.8-7.1 8.3-7.8 5.1-9.3 9.9-7.7 18.7.7 3.5 2.4 5.3 4.7 6.7 1 .4 2 1 3.4 1.5 1.2.5 2.8 1.1 4.4 1.6 5.7 2.1 11.9 3.6 18.1 4.3 11.7 1.4 23.9.1 35.2-3.6 6.4-2.1 12.5-5 18.1-8.7 2.4-1.6 2.9-6.4 4.5-10 3.3-6.8-.7-14.1 5.1-19.9 5.3-5.6 1.4-7.9 1.4-14.4 0-4.4 3.4-7.4 1.8-12.1-.7-1.5-3.1 1.3-3.9-.3-2-3-8.8-.7-11.8-1.1-5.6-.9-10.1-6.1-14-9.8-2.2-2.1-.1-8.7.4-11 1.5-6.3-.2-14.2 8-16.1 2.1-.4 2.5-3.8 4.4-4.5 2-.6 4.1-1.4 6.3-1.8 3.8-.5 7.2 1.1 10.9 1.1 4.2.2 6.3 2.2 9.6 4.7 3 2.5 5 1.3 8.9 2.1 2.9 0 .6-2.4-.4-3.6-1.1-.8-2.6-.7-3.6-.8-6.8-1.6-9.7-9.2-15.3-12.5-2.3-1.3-3.8-.9-4.5-.1-.3.5.4 5.1.4 5.2-.3 1.4-4.3 1.9-5.5 2.2-3.7.8-12.3-7.6-6.5-9.5 1.9-.7 11.7-1.9 10.3-6.3-1.3-2.9.7-5.7-2.5-6.1-3.3-.4-2.8-2.9-6.2-3.3-2.1-.5-2.2-4.7-2.2-6.1-.1-3.8.7-2.8 3.9-3.2-7.5-4.8-15.6-8.1-24.1-10.3-.6 1.1-2.4 5-3.6 5.1-2.1.4-2.8.2-4 1.4-3.8 4.2-6.8 12.1-10.5 3-1.8-4.7 1.9-8 .7-11.7zm-71.4 38.1c-18.5 29.7-15.3 68.5 6.7 95 .2.5.5.7.8 1 1.3 1.5 2.7 3 4.1 4.4 1.4 1.4 2.8 2.8 4.3 4l.6.6c.3.2.7.5 1.4.6 3.2 2.6 6.4 4.9 9.8 7-9.1-9-9.8-21-9.1-33.1.4-3.5 1.2-6.8 1.6-10.2.3-1.1-1.9-3.1-1.9-5 0-4.2.1-2.2-3.2-5.6-1.9-1.9-4.2-4.4-5.2-6.9-2.8-6.8.4-12.8 4.3-18.2 3.8-6-3.1-8.6-4.3-13.8-.6-2.3-3.2-2.3-2.8-5.1.4-2.7-1.7-2.2-3.9-3.7-4.8-3.3-.6-8.4-3.2-11zM167 192.1c0-.9-1.4-3.2 1.1-2.8 1.9.7 4.9 4 5.9 5.6.8 1.5 2.6 5.5 1.2 6.5-1.3.8-4 .8-5.4-2.2-1.4-3-.3-4.4-2.2-3.7-2.1.8-3.1-1.5-2.8-1.8.5-.5 1.5-1 2.2-1.6z"/>
</svg>
