<svg xmlns="http://www.w3.org/2000/svg" width="512" height="512" viewBox="0 0 512 512">
  <path d="M349.545,149.455c38.727,0,49.636,30.727,48.636,42.364-.818,9.364-1.182,13.455-1.727,18.091s3.273,5.364,1,15c-4.273,18.364-5.727,10.818-7.727,22.273-5,29.091-12.909,20.273-12.909,35.636,0,23.636-2.182,17.364,32.909,30.273,35.636,13.091,44,21.091,45,27.091,1.172,7.113,1.265,20.079,1.273,22.096v.267h-.091v-.091h-212.909s0-14.636,1.273-22.273c.909-6,9.364-14.091,45-27.091,35-12.818,32.909-6.545,32.909-30.273,0-15.364-7.909-6.364-12.909-35.636-2-11.545-3.455-3.909-7.727-22.273-2.273-9.636,1.455-10.364,1-15-.455-4.545-.818-8.727-1.727-18.091-1.182-11.636,10-42.364,48.727-42.364M142.364,177.182c47.727,0,86.364,38.727,86.364,86.364s-38.727,86.364-86.364,86.364-86.364-38.727-86.364-86.364,38.636-86.364,86.364-86.364M144.364,190h-3.091c2.364,4.818-2.091,7.182-3.364,7.455-3,0-3.909-2.455-6.455-1.909-1.727.455-2.455-1.455-4-.545-1.364,1-5.091,2.909-5.364,4.636-1,4.636,2.364,4.818,5.364,2.091,2.364-2.364,6.727-4.364,9.727-2,2.182,1.909,1.727,3.545,1.727,5.273,0,1.818-.636,6.727-3.727,6.091-1.455-.364-2.455-2.091-4-1-3.182,2.727-6.818,2.091-11.091,3.364-3.636.455-6.364,2.182-9.909,3.455-3.182,1.091-4.091,1.636-4.545,4.727-.091,1-.091,5.182-1.091,5.727-2.091.727-3.182-8.273-8.545-7.636-4.727.545-11.727,5.182-9.727,10.909.727,2,11,1,4,5.364-.727.455.545,6.364.545,7.455.545,3.273,5.182,7.091,8.273,4,2.364-2.545,2.182-2.182,5.273-.909,5.727,3,12.727,5.636,17.364,10.364,2.364,2.364,3.818,9.545,6.909,11,3.545,1.727,7.273,1.727,10,5.091,2.182,2.818-1,7.455-3.273,8.909-1.364.727-4.636,9.364-6.091,11.364-.727,1.545-4.545,2.182-6,2.545-1.182.091-2.909,3.182-3.545,4.091-2.545,2.636-3.091,5.273-6.455,7.545-7.091,4.636-8.455,9-7,17,.636,3.182,2.182,4.818,4.273,6.091.909.364,1.818.909,3.091,1.364,1.091.455,2.545,1,4,1.455,5.182,1.909,10.818,3.273,16.455,3.909,10.636,1.273,21.727.091,32-3.273,5.818-1.909,11.364-4.545,16.455-7.909,2.182-1.455,2.636-5.818,4.091-9.091,3-6.182-.636-12.818,4.636-18.091,4.818-5.091,1.273-7.182,1.273-13.091,0-4,3.091-6.727,1.636-11-.636-1.364-2.818,1.182-3.545-.273-1.818-2.727-8-.636-10.727-1-5.091-.818-9.182-5.545-12.727-8.909-2-1.909-.091-7.909.364-10,1.364-5.727-.182-12.909,7.273-14.636,1.909-.364,2.273-3.455,4-4.091,1.818-.545,3.727-1.273,5.727-1.636,3.455-.455,6.545,1,9.909,1,3.818.182,5.727,2,8.727,4.273,2.727,2.273,4.545,1.182,8.091,1.909,2.636,0,.545-2.182-.364-3.273-1-.727-2.364-.636-3.273-.727-6.182-1.455-8.818-8.364-13.909-11.364-2.091-1.182-3.455-.818-4.091-.091-.273.455.364,4.636.364,4.727-.273,1.273-3.909,1.727-5,2-3.364.727-11.182-6.909-5.909-8.636,1.727-.636,10.636-1.727,9.364-5.727-1.182-2.636.636-5.182-2.273-5.545-3-.364-2.545-2.636-5.636-3-1.909-.455-2-4.273-2-5.545-.091-3.455.636-2.545,3.545-2.909-6.818-4.364-14.182-7.364-21.909-9.364-.545,1-2.182,4.545-3.273,4.636-1.909.364-2.545.182-3.636,1.273-3.455,3.818-6.182,11-9.545,2.727-1.636-4.273,1.727-7.273.636-10.636M79.455,224.636c-16.818,27-13.909,62.273,6.091,86.364.182.455.455.636.727.909,1.182,1.364,2.455,2.727,3.727,4s2.545,2.545,3.909,3.636l.545.545c.273.182.636.455,1.273.545,2.909,2.364,5.818,4.455,8.909,6.364-8.273-8.182-8.909-19.091-8.273-30.091.364-3.182,1.091-6.182,1.455-9.273.273-1-1.727-2.818-1.727-4.545,0-3.818.091-2-2.909-5.091-1.727-1.727-3.818-4-4.727-6.273-2.545-6.182.364-11.636,3.909-16.545,3.455-5.455-2.818-7.818-3.909-12.545-.545-2.091-2.909-2.091-2.545-4.636.364-2.455-1.545-2-3.545-3.364-4.364-3-.545-7.636-2.909-10M175.091,211.364c0-.818-1.273-2.909,1-2.545,1.727.636,4.455,3.636,5.364,5.091.727,1.364,2.364,5,1.091,5.909-1.182.727-3.636.727-4.909-2s-.273-4-2-3.364c-1.909.727-2.818-1.364-2.545-1.636.455-.455,1.364-.909,2-1.455"/>
</svg>