<svg xmlns="http://www.w3.org/2000/svg" width="512" height="512" viewBox="0 0 512 512">
    <path d="M102.4 147.1C45.9 147.1 0 193 0 249.5c0 56.6 45.9 102.4 102.4 102.4 56.6 0 102.4-45.8 102.4-102.4-.1-56.5-45.9-102.4-102.4-102.4M64.6 328.8c-2.5-1.4-4.3-3.4-4.9-7.3-1.8-9.5-.1-14.7 8.2-20.2 4-2.6 4.5-5.8 7.7-8.9.8-1 2.7-4.7 4.3-4.9 1.6-.4 6.3-1.1 7.1-3 1.8-2.3 5.5-12.5 7.3-13.5 2.7-1.8 6.6-7.3 3.8-10.6-3.3-4-7.7-4-11.8-6-3.7-1.8-5.2-10.2-8.1-13.1-5.4-5.5-13.7-8.8-20.6-12.2-3.7-1.5-3.4-1.9-6.3 1-3.7 3.7-9.2-1-9.8-4.8-.1-1.2-1.5-8.2-.7-8.9 8.2-5.1-3.8-4-4.8-6.3-2.5-6.9 5.9-12.2 11.5-12.9 6.3-.8 7.7 10 10.2 9.1 1.2-.5 1.2-5.6 1.4-6.7.5-3.7 1.6-4.3 5.2-5.5 4.1-1.5 7.3-3.4 11.8-4.3 4.9-1.5 9.3-.7 13.2-4 1.8-1.4 3.2.7 4.8 1.1 3.7.7 4.4-5.1 4.4-7.3 0-2.1.5-4-2.2-6.2-3.6-2.7-8.7-.4-11.5 2.5-3.4 3.3-7.4 3-6.3-2.5.3-2.1 4.7-4.4 6.5-5.5 1.6-1 2.6 1.1 4.8.7 3-.7 4.1 2.2 7.7 2.2 1.5-.4 6.7-3.2 4-8.9h1.2c.8 0 1.6 0 2.5.1 1.2 4.1-2.7 7.6-.7 12.6 4 9.8 7.3 1.4 11.3-3.2 1.4-1.4 2.1-1 4.3-1.4 1.4-.3 3.3-4.3 3.8-5.5 9.2 2.2 17.9 6 25.8 11.1-3.4.4-4.3-.7-4.3 3.4 0 1.5.1 6.2 2.3 6.5 3.8.4 3.2 3.2 6.7 3.6 3.4.4 1.2 3.4 2.6 6.5 1.5 4.7-9.1 6-11.1 6.7-6.3 2.1 2.9 11.1 7 10.2 1.2-.4 5.5-.8 5.9-2.3 0-.1-.8-5.1-.4-5.5.7-1 2.3-1.4 4.9.1 6.2 3.4 9.2 11.8 16.4 13.3 1 .3 2.6-.1 3.8 1 1 1.4 3.6 3.8.5 3.8-4.1-1-6.3.4-9.8-2.2-3.6-2.7-5.6-4.9-10.4-5.1-4-.1-7.6-1.8-11.8-1.1-2.3.4-4.5 1.2-6.9 1.9-2.1.7-2.5 4.4-4.7 4.9-8.9 2.1-7 10.6-8.5 17.3-.7 2.6-2.7 9.6-.4 12 4.1 4.1 9.1 9.6 15.1 10.4 3.3.5 10.4-2.1 12.8 1.2 1 1.9 3.4-1.4 4.1.3 1.6 4.9-1.9 8.2-1.9 13.1-.1 7 4.3 9.5-1.5 15.7-6.3 6.2-1.9 14-5.4 21.4-1.8 3.8-2.2 9.1-4.9 10.9-6.2 3.8-12.6 7-19.5 9.3-12.2 4-25.1 5.4-37.9 3.8-6.7-.8-13.3-2.3-19.7-4.5-1.6-.7-3.3-1.1-4.8-1.6-1.1-.9-2.2-1.3-3.3-1.8m-19.1-12.4c-.3-.3-.4-.4-.7-.5-1.5-1.4-3.2-2.7-4.5-4.3-1.5-1.5-3-3.2-4.4-4.8 0 0 0-.1-.1-.1l-.8-1.1C11.4 277 7.9 235.2 27.7 203.2c2.7 2.7-1.9 8.2 3.4 12 2.3 1.6 4.5 1 4.1 4-.4 3 2.5 2.9 2.9 5.5 1.2 5.6 8.8 8.5 4.5 15-4.1 5.8-7.7 12.2-4.7 19.5 1.1 2.6 3.6 5.4 5.5 7.4 3.6 3.7 3.4 1.5 3.4 6-.1 1.9 2.3 4.1 2.2 5.4-.5 3.7-1.4 7.3-1.8 10.9-.8 13.1-.1 25.8 9.8 35.7-3.7-2.2-7.1-4.7-10.4-7.4-.4-.2-.7-.5-1.1-.8M234 190.1c5.6 3 84.8 46 87.8 47.7 3 1.6 6 2.2 10.6 2.2s7.7-.7 10.6-2.2c3-1.5 82-44.7 87.8-47.7 2.1-1.1 5.6-3 6.5-5.2 1.4-4-.1-5.4-5.9-5.4H233.5c-5.8 0-7.1 1.5-5.9 5.4.8 2.2 4.4 4.1 6.4 5.2"/>
    <path d="M435.2 204.959c-4.3 2.2-42.3 29.3-67.6 45.6l42.6 47.8c1.1 1.1 1.5 2.2 1 2.9-.7.5-1.9.3-3-.7l-51-43c-7.7 4.9-13.2 8.4-14 8.9-4 2.1-6.7 2.2-10.6 2.2-3.9 0-6.6-.3-10.6-2.2-1-.5-6.3-4-14-8.9l-51 43c-1.1 1.1-2.5 1.4-3 .7-.7-.5-.1-1.8 1-2.9l42.5-47.8c-25.1-16.4-63.8-43.4-68-45.6-4.5-2.3-4.8.4-4.8 2.5v106.1c0 4.8 7.1 10.9 12.2 10.9H429c5.1 0 11.1-6 11.1-10.9v-106.2c-.6-2.2-.2-4.8-4.9-2.4"/>
</svg>
