<svg xmlns="http://www.w3.org/2000/svg" width="512" height="512" viewBox="0 0 512 512">
  <path d="M148,164c50.727,0,92,41.273,92,92s-41.091,92-92,92-92-41.091-92-92,41.273-92,92-92M275.636,188.836c6.182-16.455,23.182-24.545,40.091-23.909,16.545.455,32.364,9.727,37.455,26.091,2.455,7.909,2,16.818.727,24.909-.364,3-1,6.545-2.636,9.273,6.545-2.091,2.364,12.818,1.636,14.909-.818,3.091-1.636,13.182-7.091,11.727-.636,6.364-1,14-4.364,19.727-.909,1.455-4.909,4.727-4.909,6.364,0,2.545.182,4.909.273,7.273.273,3,.273,6.455,1.273,9.364s6.091,4,8.727,4.909c8.545,3,17.818,3.091,26.273,6.091,17.818,6.182,29,22.545,28.818,41.545h-175.727c0-13.727,5.818-26.545,16.909-34.636,9.455-7.182,20-8.182,31.364-10.545,4.091-.818,14.636-3,16-7.727s1.182-10.091,1.273-15c.091-1.636-.545-1.727-1.636-3-2.182-2.455-4.091-5.364-5.091-8.727-1.455-5-2.091-10.273-2.545-15.364-5.727,1.455-6.636-10-7.636-13.273-.818-2.273-4-15.455,2.091-13.545-1.909-3.455-2.455-7.727-3-11.455-1-8.364-1.273-17,1.727-25M147.909,177.636h-1.455c2.545,5.091-2.182,7.636-3.545,8-3.182,0-4.182-2.636-6.909-2-1.909.364-2.818-1.545-4.273-.636-1.636,1-5.455,3-5.727,4.909-1,5,2.636,5.182,5.727,2.273,2.455-2.636,7.091-4.818,10.364-2.273,2.455,2.091,2,3.727,2,5.636,0,2-.727,7.091-4,6.455-1.545-.364-2.636-2.273-4.273-1-3.545,2.909-7.364,2.182-11.909,3.545-3.818.636-6.727,2.364-10.455,3.727-3.182,1.273-4.182,1.727-4.636,5-.182,1-.182,5.545-1.273,6.091-2.182.909-3.364-8.818-9.091-8.091-5.091.636-12.636,5.545-10.364,11.636.909,2.182,11.636,1.091,4.273,5.727-.727.545.545,6.909.636,8,.455,3.364,5.364,7.636,8.727,4.273,2.636-2.636,2.273-2.273,5.636-.909,6.182,3,13.636,5.909,18.545,10.909,2.545,2.636,4,10.091,7.273,11.727,3.727,1.727,7.727,1.818,10.636,5.364,2.636,2.818-.818,7.818-3.364,9.455-1.455.818-4.818,10-6.455,12.091-.818,1.636-5,2.273-6.455,2.636-1.182.091-3,3.455-3.727,4.364-2.909,2.909-3.455,5.636-7,8-7.455,5-9,9.545-7.364,18.091.636,3.364,2.273,5.182,4.545,6.455,1,.545,2,1,2.636,2.091,1.273.455,2.818.818,4.273,1.455,5.636,2,11.636,3.364,17.636,4.091,11.455,1.182,23.182.091,34.091-3.545,6.091-2,12-4.818,17.455-8.364,2.545-1.636,2.909-6.364,4.545-9.727,3.182-6.636-.727-13.636,4.909-19.273,5.091-5.455,1.273-7.727,1.364-14,0-4.273,3.182-7.273,1.727-11.727-.636-1.545-2.727,1.455-3.636-.273-2.091-3-8.455-.545-11.455-1.091-5.545-.727-9.909-5.727-13.636-9.364-2.091-2-.273-8.273.364-10.636,1.455-6.091-.273-13.636,7.727-15.545,1.818-.364,2.182-3.727,4.091-4.364,2-.636,4-1.364,6.091-1.727,3.545-.636,6.818.909,10.455,1,4.273,0,6.273,1.909,9.364,4.455,3,2.364,5,1.091,8.727,2,2.818,0,.455-2.273-.455-3.545-1.182-1-2.636-.636-3.545-.909-6.455-1.455-9.273-8.909-14.727-12-2.273-1.364-3.727-1-4.364-.091-.364.545.364,4.909.364,5-.273,1.364-4.182,1.727-5.273,2.091-3.636.909-11.909-7.182-6.273-9.091,1.909-.727,11.364-2,10-6.091-1.273-2.636.636-5.364-2.364-5.727-3.273-.545-2.636-2.909-6-3.273-2-.455-2.091-4.545-2.091-5.909-.182-3.636.727-2.636,3.727-3-7.273-4.636-15-8-23.273-10-.545,1.182-2.182,4.636-3.455,4.909-1.818.364-2.455,0-3.727,1.273-3.455,4.182-6.455,11.636-10.091,2.909-1.909-4.636,1.727-7.727.636-11.364-.818-.091-1.545-.091-2.273-.091h.364ZM80.727,214.364c-17.818,28.636-14.727,66.273,6.636,91.909l.727,1c.091,0,.091.091.091.091,1.273,1.364,2.636,2.909,4,4.273s2.727,2.636,4.091,3.909c.273.091.364.182.636.455.364.364.636.636.818.364,2.909,2.455,6.091,4.727,9.364,6.727-8.818-8.727-9.455-20.273-8.727-32,.364-3.273,1.182-6.455,1.636-9.727.091-1.091-2.091-3-2-4.727,0-4,.273-2.091-3-5.364-1.727-1.818-4-4.364-5-6.727-2.909-6.636.364-12.545,4.091-17.636,3.909-5.727-2.909-8.273-4-13.364-.364-2.273-3-2.273-2.636-4.909.455-2.727-1.545-2.182-3.636-3.636-4.818-3.273-.545-8.091-3.091-10.636M389.545,197.873c9.182-3.909,22.091-3.636,30.727,1.727,9.636,6,12.364,17.545,12.636,28.091.364,12.727-2.818,27.364,4.091,39,1.273,2.182,2.455,2.455-.091,3.909-1.091.545-2.273.909-3.364,1.455-2.545.818-5,1.364-7.636,1.727-2.727.364-5.909.909-8.636.636-.273,2.636-1.273,8.273.636,10.545,3.636,4.545,13.545,5,18.636,6.636,11.091,3.636,19.364,12.727,19.455,25.182h-50.364c-1.364-5.091-6.545-9.273-10.273-12.364-5.091-4.182-10.909-7.636-17.364-8.909-2-.364-10.182.636-8.273-3.364,1.182-2.727,5.455-2.909,8.091-3.636,2.545-.636,9.273-1.545,10-4.636.273-.727.636-8.727,0-8.727-3.818-.091-7.636-.545-11.273-1.455-2.364-.636-4.727-1.455-7-2.545-4-2-1.727-3.273-.091-6.636,9.091-20.364-6.636-55.909,20.091-66.636M182.909,200.145c0-.818-1.545-3.091,1-2.727,1.818.636,4.818,3.909,5.727,5.545.727,1.545,2.455,5.273,1,6.273-1.182.909-3.909.818-5.091-2.091s-.182-4.455-2.091-3.636-3-1.455-2.636-1.727c.455-.636,1.455-1.091,2.091-1.636"/>
</svg>