<svg xmlns="http://www.w3.org/2000/svg" width="512" height="512" viewBox="0 0 512 512"><path d="M555.1 334.8c11.3 3.9-11.2-3.9 0 0z"/><path d="M555.1 334.8c-13.5-4.7-28.1-5-41.6-9.7-4.1-1.4-12.2-3.1-13.9-7.8-1.6-4.6-1.6-10-1.9-14.8-.2-3.8-.3-7.6-.3-11.4 0-2.5 6.4-7.8 7.8-10.1 5.4-9 5.9-21.1 6.9-31.3 8.7 2.4 9.8-13.7 11.3-18.6 1.1-3.4 7.8-26.8-2.6-23.6 2.5-4.4 3.5-9.8 4.2-14.7 2-12.8 2.8-26.8-1.1-39.3-8.1-26-33-40.6-59.3-41.4-26.7-.9-53.5 11.9-63.5 37.8-4.8 12.6-4.4 26.3-2.8 39.5.7 6 1.7 12.7 4.7 18.1-9.7-2.9-4.5 17.7-3.4 21.3 1.6 5.1 3 23.4 12.1 20.9.8 8.1 1.7 16.4 3.9 24.3 1.5 5.3 4.6 9.8 8.2 13.9 1.8 2 2.7 2.2 2.6 4.8-.1 7.8.1 16.2-1.9 23.8-2 7.6-18.7 10.8-25.4 12.2-18 3.7-34.6 5.4-49.6 16.6-17.5 12.9-26.6 33-26.6 54.7h278c0-29.5-17.8-55.5-45.8-65.2z"/><path d="M349.2 322.5l1.6-.8c-.3.1-.6.3-.8.4-.3.1-.5.2-.8.4zm306-10.6c-8.1-2.6-23.7-3.4-29.5-10.4-2.9-3.5-1.3-12.4-1-16.6 4.4.4 9.2-.3 13.7-.9 4.1-.6 8.1-1.4 12-2.8 1.8-.7 3.6-1.4 5.3-2.4 3.9-2.3 2.1-2.7.1-6.1-10.9-18.3-6-41.5-6.5-61.6-.4-16.7-4.8-35-20-44.4-13.7-8.5-34-8.8-48.7-2.8-42.4 17-17.4 73.2-31.9 105.4-2.5 5.4-6.1 7.3.2 10.5 3.5 1.8 7.3 3 11.1 3.9 5.8 1.4 11.8 2.2 17.8 2.4 1 0 .3 12.6 0 13.9-1.1 4.9-11.8 6.3-15.8 7.4-4.1 1.1-10.9 1.4-12.9 5.7-3 6.4 9.9 4.8 13.1 5.4 10.3 1.9 19.4 7.6 27.4 14.1 6 4.9 14.1 11.5 16.3 19.5h80.2c-.2-20.1-13.3-34.4-30.9-40.2zM264.7 171.7c-1.4-2.6-6.2-7.7-9.1-8.7-3.9-.6-1.6 2.9-1.6 4.4-1 .8-2.6 1.6-3.3 2.6-.5.4 1.1 4 4.1 2.8 3-1.1 1.3 1.2 3.4 5.8s6.2 4.7 8.1 3.3c2.4-1.8-.3-7.8-1.6-10.2zm12 29.3zm38.2 17.2c.3 0-1.2-.2 0 0z"/><path d="M198.9 111c-80.3 0-145.5 65.2-145.5 145.5 0 80.4 65.2 145.5 145.5 145.5 80.4 0 145.5-65.1 145.5-145.5 0-80.3-65.2-145.5-145.5-145.5zm-53.7 258.1c-3.6-2-6.1-4.9-7.1-10.3-2.6-13.5-.2-20.8 11.7-28.7 5.6-3.7 6.5-8.2 11-12.7 1.1-1.4 4-6.7 6-7 2.4-.5 8.9-1.6 10.2-4.2 2.5-3.3 7.9-17.8 10.3-19.2 3.9-2.5 9.4-10.4 5.4-15-4.6-5.6-10.9-5.7-16.8-8.6-5.2-2.6-7.5-14.5-11.5-18.6-7.7-7.9-19.5-12.5-29.2-17.3-5.3-2.1-4.8-2.8-8.9 1.4-5.3 5.3-13.1-1.3-13.8-6.8-.1-1.8-2.1-11.8-.9-12.6 11.7-7.3-5.4-5.6-6.8-9-3.5-9.7 8.4-17.4 16.5-18.3 9-1.1 10.9 14.2 14.4 12.9 1.7-.8 1.7-8.1 1.9-9.6.8-5.2 2.3-6 7.4-7.9 5.9-2.2 10.4-4.9 16.7-6 7.1-2.1 13.2-1 18.7-5.6 2.5-1.9 4.4 1 6.8 1.6 5.2 1 6.3-7.2 6.3-10.3 0-3 .8-5.6-3.1-8.8-5.1-3.9-12.4-.6-16.4 3.5-4.9 4.6-10.6 4.3-9-3.6.4-2.9 6.6-6.2 9.1-7.8 2.4-1.4 3.8 1.6 6.8.9 4.3-1 5.9 3.1 10.9 3.1 2.1-.5 9.6-4.5 5.6-12.6h1.8c1.2 0 2.4 0 3.6.1 1.8 5.8-3.9 10.7-1 17.9 5.7 13.9 10.4 2 16-4.5 1.9-1.9 3-1.4 6-2 1.9-.3 4.6-6 5.5-7.8 13 3.2 25.4 8.5 36.7 15.8-4.8.5-6.1-.9-6 4.8 0 2.2.2 8.7 3.4 9.2 5.4.6 4.4 4.4 9.5 5.1 4.8.6 1.8 4.9 3.8 9.1 2.2 6.6-12.9 8.6-15.8 9.6-8.9 3 4.1 15.9 9.9 14.5 1.8-.5 7.9-1.2 8.4-3.3 0-.2-1.2-7.2-.6-7.9 1-1.3 3.3-1.9 7 .2 8.7 4.9 13.1 16.7 23.3 19 1.4.3 3.8-.1 5.5 1.3 1.4 2 5.1 5.5.7 5.5-5.9-1.3-9 .6-13.8-3.2-5-3.9-8.1-7.1-14.8-7.2-5.7-.1-10.8-2.5-16.7-1.5-3.3.5-6.5 1.8-9.7 2.8-3 1-3.6 6.3-6.6 7-12.6 3-9.9 15-12.2 24.6-.9 3.7-3.9 13.6-.6 16.9 5.9 5.8 12.9 13.7 21.5 14.9 4.7.7 14.9-3 18.1 1.8 1.3 2.7 4.8-2 5.8.4 2.4 7.1-2.8 11.8-2.8 18.5-.1 9.9 6 13.4-2.1 22.2-8.9 8.8-2.8 20-7.7 30.5-2.6 5.4-3.1 12.9-7.1 15.4-8.7 5.5-18 10-27.7 13.2-17.3 5.7-35.8 7.6-53.9 5.5-9.5-1.1-18.9-3.3-27.9-6.5-2.4-.9-4.7-1.6-6.8-2.4-1.8-.9-3.3-1.6-4.9-2.4zm-27.1-17.6c-.3-.3-.6-.5-.9-.8-2.2-1.9-4.4-4-6.5-6.1-2.2-2.2-4.3-4.5-6.3-6.8 0 0 0-.1-.1-.1l-1.2-1.5c-33.6-40.6-38.5-100-10.3-145.4 3.9 3.9-2.7 11.7 4.9 16.9 3.3 2.3 6.5 1.4 5.8 5.7-.6 4.2 3.5 4.1 4.1 7.8 1.8 8.1 12.5 12.1 6.4 21.2-5.9 8.2-11 17.4-6.6 27.8 1.5 3.8 5.1 7.7 7.9 10.6 5.1 5.2 4.8 2.1 4.8 8.6-.1 2.8 3.4 5.8 3.1 7.6-.7 5.2-1.9 10.3-2.5 15.5-1.2 18.6-.1 36.8 13.8 50.7-5.2-3.1-10.2-6.7-14.9-10.6-.5-.2-1-.6-1.5-1.1z"/></svg>