<?xml version="1.0" encoding="UTF-8"?>
<svg id="Layer_1" xmlns="http://www.w3.org/2000/svg" version="1.1" viewBox="0 0 500 500">
  <!-- Generator: Adobe Illustrator 29.1.0, SVG Export Plug-In . SVG Version: 2.1.0 Build 142)  -->
  <path d="M355.2,130.1c43.6,0,55.8,34.6,54.7,47.7-.9,10.5-1.3,15.1-1.9,20.4s3.7,6,1.1,16.9c-4.8,20.7-6.4,12.2-8.7,25.1-5.6,32.7-14.5,22.8-14.5,40.1,0,26.6-2.5,19.5,37,34.1,40.1,14.7,49.5,23.7,50.6,30.5,1.3,8,1.4,22.6,1.4,24.9v.3h-.1c0-.1-239.5-.1-239.5-.1,0,0,0-16.5,1.4-25.1,1-6.8,10.5-15.9,50.6-30.5,39.4-14.4,37-7.4,37-34.1s-8.9-7.2-14.5-40.1c-2.3-13-3.9-4.4-8.7-25.1-2.6-10.8,1.6-11.7,1.1-16.9-.5-5.1-.9-9.8-1.9-20.4-1.3-13.1,11.2-47.7,54.8-47.7M122.2,161.3c53.7,0,97.2,43.6,97.2,97.2s-43.6,97.2-97.2,97.2-97.2-43.6-97.2-97.2,43.5-97.2,97.2-97.2M124.4,175.8h-3.5c2.7,5.4-2.4,8.1-3.8,8.4-3.4,0-4.4-2.8-7.3-2.1-1.9.5-2.8-1.6-4.5-.6-1.5,1.1-5.7,3.3-6,5.2-1.1,5.2,2.7,5.4,6,2.4,2.7-2.7,7.6-4.9,10.9-2.2,2.5,2.1,1.9,4,1.9,5.9s-.7,7.6-4.2,6.9c-1.6-.4-2.8-2.4-4.5-1.1-3.6,3.1-7.7,2.4-12.5,3.8-4.1.5-7.2,2.5-11.1,3.9-3.6,1.2-4.6,1.8-5.1,5.3-.1,1.1-.1,5.8-1.2,6.4-2.4.8-3.6-9.3-9.6-8.6-5.3.6-13.2,5.8-10.9,12.3.8,2.2,12.4,1.1,4.5,6-.8.5.6,7.2.6,8.4.6,3.7,5.8,8,9.3,4.5,2.7-2.9,2.5-2.5,5.9-1,6.4,3.4,14.3,6.3,19.5,11.7,2.7,2.7,4.3,10.7,7.8,12.4,4,1.9,8.2,1.9,11.2,5.7,2.5,3.2-1.1,8.4-3.7,10-1.5.8-5.2,10.5-6.9,12.8-.8,1.7-5.1,2.5-6.7,2.9-1.3.1-3.3,3.6-4,4.6-2.9,3-3.5,5.9-7.3,8.5-8,5.2-9.5,10.1-7.9,19.1.7,3.6,2.5,5.4,4.8,6.9,1,.4,2,1,3.5,1.5,1.2.5,2.9,1.1,4.5,1.6,5.8,2.1,12.2,3.7,18.5,4.4,12,1.4,24.4.1,36-3.7,6.5-2.1,12.8-5.1,18.5-8.9,2.5-1.6,3-6.5,4.6-10.2,3.4-7-.7-14.4,5.2-20.4,5.4-5.7,1.4-8.1,1.4-14.7s3.5-7.6,1.8-12.4c-.7-1.5-3.2,1.3-4-.3-2-3.1-9-.7-12.1-1.1-5.7-.9-10.3-6.2-14.3-10-2.2-2.1-.1-8.9.4-11.2,1.5-6.4-.2-14.5,8.2-16.5,2.1-.4,2.6-3.9,4.5-4.6,2-.6,4.2-1.4,6.4-1.8,3.9-.5,7.4,1.1,11.1,1.1,4.3.2,6.4,2.2,9.8,4.8,3.1,2.6,5.1,1.3,9.1,2.1,3,0,.6-2.5-.4-3.7-1.1-.8-2.7-.7-3.7-.8-7-1.6-9.9-9.4-15.6-12.8-2.4-1.3-3.9-.9-4.6-.1-.3.5.4,5.2.4,5.3-.3,1.4-4.4,1.9-5.6,2.2-3.8.8-12.6-7.8-6.6-9.7,1.9-.7,12-1.9,10.5-6.4-1.3-3,.7-5.8-2.6-6.2-3.4-.4-2.9-3-6.3-3.4-2.1-.5-2.2-4.8-2.2-6.2-.1-3.9.7-2.9,4-3.3-7.7-4.9-16-8.3-24.6-10.5-.6,1.1-2.5,5.1-3.7,5.2-2.1.4-2.9.2-4.1,1.4-3.9,4.3-7,12.4-10.7,3.1-1.8-4.8,1.9-8.2.7-12M51.4,214.7c-18.9,30.4-15.6,70.1,6.9,97.2.2.5.5.7.8,1,1.3,1.5,2.8,3.1,4.2,4.5s2.9,2.9,4.4,4.1l.6.6c.3.2.7.5,1.4.6,3.3,2.7,6.5,5,10,7.2-9.3-9.2-10-21.5-9.3-33.9.4-3.6,1.2-7,1.6-10.4.3-1.1-1.9-3.2-1.9-5.1,0-4.3.1-2.3-3.3-5.7-1.9-1.9-4.3-4.5-5.3-7.1-2.9-7,.4-13.1,4.4-18.6,3.9-6.1-3.2-8.8-4.4-14.1-.6-2.4-3.3-2.4-2.9-5.2.4-2.8-1.7-2.2-4-3.8-4.9-3.4-.6-8.6-3.3-11.2M159,199.8c0-.9-1.4-3.3,1.1-2.9,1.9.7,5,4.1,6,5.7.8,1.5,2.7,5.6,1.2,6.6-1.3.8-4.1.8-5.5-2.2s-.3-4.5-2.2-3.8c-2.1.8-3.2-1.5-2.9-1.8.5-.5,1.5-1,2.2-1.6"/>
</svg>