<svg xmlns="http://www.w3.org/2000/svg" width="512" height="512" viewBox="0 0 512 512"><path d="M765.9 448s0-26.4-2.2-40.2c-1.8-10.9-16.9-25.3-81.1-48.9-63.2-23.2-59.3-11.9-59.3-54.6 0-27.7 14.1-11.6 23.1-64.2 3.5-20.7 6.3-6.9 13.9-40.1 4-17.4-2.7-18.7-1.9-27s1.6-15.7 3.1-32.7c1.8-21-17.7-76.3-87.6-76.3s-89.4 55.3-87.5 76.4c1.5 16.9 2.3 24.4 3.1 32.7.8 8.3-5.9 9.6-1.9 27 7.6 33.1 10.4 19.3 13.9 40.1 9 52.6 23.1 36.5 23.1 64.2 0 42.8 3.9 31.5-59.3 54.6-64.2 23.5-79.4 38-81.1 48.9-2.3 13.7-2.3 40.1-2.3 40.1h384zM271.4 180.1c-1.6-2.7-6.6-8.2-9.7-9.3-4.1-.7-1.7 3.1-1.7 4.6-1.1.8-2.7 1.7-3.6 2.8-.5.4 1.2 4.2 4.4 3s1.3 1.2 3.6 6.1c2.2 4.9 6.7 5 8.7 3.6 2.6-1.8-.3-8.3-1.7-10.8zm12.9 31.4zm40.8 18.4c.3 0-1.2-.3 0 0z"/><path d="M201 115.1c-86 0-155.7 69.7-155.7 155.7S115 426.5 201 426.5s155.7-69.7 155.7-155.7S287 115.1 201 115.1zm-57.4 276.3c-3.8-2.2-6.5-5.2-7.6-11.1-2.7-14.5-.2-22.3 12.5-30.7 6-4 7-8.8 11.8-13.6 1.2-1.5 4.3-7.2 6.4-7.5 2.6-.6 9.5-1.7 10.9-4.6 2.7-3.6 8.5-19.1 11-20.6 4.1-2.7 10-11.1 5.8-16.1-4.9-6-11.7-6.1-18-9.3-5.6-2.8-8-15.5-12.3-19.9-8.3-8.5-20.9-13.3-31.2-18.6-5.6-2.2-5.1-3-9.5 1.5-5.6 5.6-14-1.4-14.8-7.3-.1-2-2.3-12.7-1-13.5 12.5-7.8-5.8-6-7.3-9.6-3.7-10.4 9-18.6 17.6-19.6 9.6-1.2 11.7 15.2 15.3 13.8 1.7-.9 1.8-8.6 2-10.3.9-5.6 2.5-6.5 8-8.5 6.3-2.3 11.2-5.3 17.9-6.4 7.6-2.2 14.1-1.1 20.1-6 2.7-2 4.6 1.1 7.2 1.7 5.6 1.1 6.7-7.7 6.7-11 0-3.2.9-6-3.2-9.4-5.4-4.2-13.3-.6-17.6 3.7-5.3 4.9-11.4 4.6-9.6-3.9.4-3.1 7.1-6.6 9.7-8.4 2.6-1.6 4.1 1.7 7.2 1 4.6-1 6.3 3.3 11.7 3.3 2.2-.5 10.3-4.8 6-13.4h1.9c1.3 0 2.6 0 3.9.1 2 6.1-4.1 11.4-1.1 19.2 6.1 14.9 11.1 2.1 17.2-4.9 2-2 3.2-1.6 6.5-2.2 2-.3 4.9-6.5 5.8-8.4 13.9 3.5 27.2 9.1 39.4 16.8-5.1.6-6.5-1-6.4 5.1 0 2.3.2 9.3 3.6 9.9 5.7.7 4.7 4.7 10.1 5.5 5.1.7 2 5.2 4.1 9.8 2.3 7.1-13.8 9.3-16.9 10.3-9.4 3.1 4.4 17 10.6 15.5 2-.5 8.5-1.3 8.9-3.6 0-.2-1.2-7.6-.6-8.5 1.1-1.3 3.6-2.1 7.5.2 9.3 5.3 14 17.9 24.9 20.4 1.5.3 4.1-.1 5.9 1.4 1.6 2.1 5.5 5.9.7 5.9-6.3-1.4-9.6.6-14.7-3.4-5.4-4.1-8.7-7.5-15.8-7.7-6.1-.1-11.6-2.7-17.9-1.7-3.5.6-7 2-10.4 3-3.2 1.1-3.8 6.8-7.1 7.5-13.5 3.1-10.6 16.1-13 26.4-.9 3.9-4.2 14.6-.7 18.1 6.4 6.1 13.8 14.6 23 16 5 .7 16-3.1 19.3 1.9 1.4 2.8 5.1-2.1 6.2.4 2.6 7.6-3 12.7-3 19.8-.1 10.6 6.4 14.3-2.2 23.7-9.4 9.4-3 21.4-8.3 32.6-2.8 5.8-3.3 13.8-7.5 16.5-9.3 6-19.2 10.7-29.7 14.2-18.5 6.1-38.4 8.1-57.7 5.9-10.2-1.2-20.2-3.5-29.8-7-2.7-.9-5.1-1.7-7.3-2.6-1.8-.3-3.5-1.1-5.1-1.8zm-29-18.9c-.3-.2-.7-.6-1-.8-2.4-2.1-4.7-4.2-7-6.5s-4.6-4.8-6.8-7.3l-.1-.1c-.4-.5-.9-1-1.3-1.6-36-43.4-41.2-107-11.1-155.6 4.2 4.2-2.8 12.5 5.2 18.1 3.6 2.5 7 1.5 6.2 6.1-.7 4.5 3.7 4.4 4.4 8.4 2 8.6 13.3 12.9 6.9 22.6-6.3 8.8-11.8 18.6-7 29.7 1.6 4.1 5.5 8.2 8.5 11.3 5.5 5.6 5.1 2.2 5.1 9.2-.1 3.1 3.6 6.2 3.2 8.1-.7 5.6-2 11.1-2.7 16.6-1.2 19.9-.1 39.4 14.8 54.3-5.6-3.3-10.9-7.1-16-11.4-.2-.2-.8-.6-1.3-1.1z"/></svg>