<?xml version="1.0" encoding="UTF-8"?>
<svg id="Layer_1" xmlns="http://www.w3.org/2000/svg" version="1.1" viewBox="0 0 500 500">
  <!-- Generator: Adobe Illustrator 29.1.0, SVG Export Plug-In . SVG Version: 2.1.0 Build 142)  -->
  <path d="M129.7,145.3c-57.8,0-104.7,46.9-104.7,104.7s46.9,104.7,104.7,104.7,104.7-46.8,104.7-104.7c-.1-57.8-46.9-104.7-104.7-104.7M91.1,331.1c-2.6-1.4-4.4-3.5-5-7.5-1.8-9.7-.1-15,8.4-20.7,4.1-2.7,4.6-5.9,7.9-9.1.8-1,2.8-4.8,4.4-5,1.6-.4,6.4-1.1,7.3-3.1,1.8-2.4,5.6-12.8,7.5-13.8,2.8-1.8,6.7-7.5,3.9-10.8-3.4-4.1-7.9-4.1-12.1-6.1-3.8-1.8-5.3-10.4-8.3-13.4-5.5-5.6-14-9-21.1-12.5-3.8-1.5-3.5-1.9-6.4,1-3.8,3.8-9.4-1-10-4.9-.1-1.2-1.5-8.4-.7-9.1,8.4-5.2-3.9-4.1-4.9-6.4-2.6-7.1,6-12.5,11.8-13.2,6.4-.8,7.9,10.2,10.4,9.3,1.2-.5,1.2-5.7,1.4-6.9.5-3.8,1.6-4.4,5.3-5.6,4.2-1.5,7.5-3.5,12.1-4.4,5-1.5,9.5-.7,13.5-4.1,1.8-1.4,3.3.7,4.9,1.1,3.8.7,4.5-5.2,4.5-7.5s.5-4.1-2.2-6.3c-3.7-2.8-8.9-.4-11.8,2.6-3.5,3.4-7.6,3.1-6.4-2.6.3-2.1,4.8-4.5,6.6-5.6,1.6-1,2.7,1.1,4.9.7,3.1-.7,4.2,2.2,7.9,2.2,1.5-.4,6.9-3.3,4.1-9.1h1.2c.8,0,1.6,0,2.6.1,1.2,4.2-2.8,7.8-.7,12.9,4.1,10,7.5,1.4,11.6-3.3,1.4-1.4,2.1-1,4.4-1.4,1.4-.3,3.4-4.4,3.9-5.6,9.4,2.2,18.3,6.1,26.4,11.3-3.5.4-4.4-.7-4.4,3.5s.1,6.3,2.4,6.6c3.9.4,3.3,3.3,6.9,3.7,3.5.4,1.2,3.5,2.7,6.6,1.5,4.8-9.3,6.1-11.3,6.9-6.4,2.1,3,11.3,7.2,10.4,1.2-.4,5.6-.8,6-2.4,0-.1-.8-5.2-.4-5.6.7-1,2.4-1.4,5,.1,6.3,3.5,9.4,12.1,16.8,13.6,1,.3,2.7-.1,3.9,1,1,1.4,3.7,3.9.5,3.9-4.2-1-6.4.4-10-2.2-3.7-2.8-5.7-5-10.6-5.2-4.1-.1-7.8-1.8-12.1-1.1-2.4.4-4.6,1.2-7.1,1.9-2.1.7-2.6,4.5-4.8,5-9.1,2.1-7.2,10.8-8.7,17.7-.7,2.7-2.8,9.8-.4,12.3,4.2,4.2,9.3,9.8,15.4,10.6,3.4.5,10.6-2.1,13.1,1.2,1,1.9,3.5-1.4,4.2.3,1.6,5-1.9,8.4-1.9,13.4-.1,7.2,4.4,9.7-1.5,16.1-6.4,6.3-1.9,14.3-5.5,21.9-1.8,3.9-2.2,9.3-5,11.1-6.3,3.9-12.9,7.2-19.9,9.5-12.5,4.1-25.7,5.5-38.8,3.9-6.9-.8-13.6-2.4-20.1-4.6-1.6-.7-3.4-1.1-4.9-1.6-1.1-.9-2.2-1.3-3.4-1.8M71.5,318.4c-.3-.3-.4-.4-.7-.5-1.5-1.4-3.3-2.8-4.6-4.4-1.5-1.5-3.1-3.3-4.5-4.9,0,0,0-.1-.1-.1l-.8-1.1c-24.1-29.2-27.7-72-7.5-104.7,2.8,2.8-1.9,8.4,3.5,12.3,2.4,1.6,4.6,1,4.2,4.1s2.6,3,3,5.6c1.2,5.7,9,8.7,4.6,15.3-4.2,5.9-7.9,12.5-4.8,19.9,1.1,2.7,3.7,5.5,5.6,7.6,3.7,3.8,3.5,1.5,3.5,6.1-.1,1.9,2.4,4.2,2.2,5.5-.5,3.8-1.4,7.5-1.8,11.1-.8,13.4-.1,26.4,10,36.5-3.8-2.2-7.3-4.8-10.6-7.6-.4-.2-.7-.5-1.1-.8M264.3,189.3c5.7,3.1,86.7,47,89.8,48.8,3.1,1.6,6.1,2.2,10.8,2.2s7.9-.7,10.8-2.2c3.1-1.5,83.8-45.7,89.8-48.8,2.1-1.1,5.7-3.1,6.6-5.3,1.4-4.1-.1-5.5-6-5.5h-202.4c-5.9,0-7.3,1.5-6,5.5.8,2.2,4.5,4.2,6.5,5.3M470,197.8c-4.4,2.2-43.3,30-69.1,46.6l43.6,48.9c1.1,1.1,1.5,2.2,1,3-.7.5-1.9.3-3.1-.7l-52.1-44c-7.9,5-13.5,8.6-14.3,9.1-4.1,2.1-6.9,2.2-10.8,2.2s-6.7-.3-10.8-2.2c-1-.5-6.4-4.1-14.3-9.1l-52.1,44c-1.1,1.1-2.6,1.4-3.1.7-.7-.5-.1-1.8,1-3l43.5-48.9c-25.7-16.8-65.2-44.4-69.5-46.6-4.6-2.4-4.9.4-4.9,2.6v108.5c0,4.9,7.3,11.1,12.5,11.1h196.4c5.2,0,11.3-6.1,11.3-11.1v-108.6c-.6-2.2-.2-4.9-5-2.5"/>
</svg>