<svg xmlns="http://www.w3.org/2000/svg" width="512" height="512" viewBox="0 0 512 512">
  <path d="M149.07,162.93c-51.352,0-93.07,41.718-93.07,93.07s41.718,93.07,93.07,93.07,93.07-41.627,93.07-93.07c-.091-51.352-41.718-93.07-93.07-93.07M114.714,328.075c-2.272-1.272-3.908-3.09-4.454-6.635-1.636-8.634-.091-13.361,7.453-18.359,3.636-2.363,4.09-5.272,6.998-8.089.727-.909,2.454-4.272,3.908-4.454,1.454-.364,5.726-1,6.453-2.727,1.636-2.09,4.999-11.361,6.635-12.27,2.454-1.636,5.999-6.635,3.454-9.634-2.999-3.636-6.998-3.636-10.725-5.453-3.363-1.636-4.726-9.271-7.362-11.906-4.908-4.999-12.452-7.998-18.723-11.088-3.363-1.363-3.09-1.727-5.726.909-3.363,3.363-8.362-.909-8.907-4.363-.091-1.091-1.363-7.453-.636-8.089,7.453-4.635-3.454-3.636-4.363-5.726-2.272-6.271,5.362-11.088,10.452-11.725,5.726-.727,6.998,9.089,9.271,8.271,1.091-.454,1.091-5.09,1.272-6.09.454-3.363,1.454-3.908,4.726-4.999,3.726-1.363,6.635-3.09,10.725-3.908,4.454-1.363,8.453-.636,11.997-3.636,1.636-1.272,2.908.636,4.363,1,3.363.636,3.999-4.635,3.999-6.635,0-1.909.454-3.636-2-5.635-3.272-2.454-7.907-.364-10.452,2.272-3.09,2.999-6.726,2.727-5.726-2.272.273-1.909,4.272-3.999,5.908-4.999,1.454-.909,2.363,1,4.363.636,2.727-.636,3.726,2,6.998,2,1.363-.364,6.09-2.908,3.636-8.089h1.091c.727,0,1.454,0,2.272.091,1.091,3.726-2.454,6.908-.636,11.452,3.636,8.907,6.635,1.272,10.27-2.908,1.272-1.272,1.909-.909,3.908-1.272,1.272-.273,2.999-3.908,3.454-4.999,8.362,2,16.269,5.453,23.449,10.089-3.09.364-3.908-.636-3.908,3.09,0,1.363.091,5.635,2.09,5.908,3.454.364,2.908,2.908,6.09,3.272,3.09.364,1.091,3.09,2.363,5.908,1.363,4.272-8.271,5.453-10.089,6.09-5.726,1.909,2.636,10.089,6.362,9.271,1.091-.364,4.999-.727,5.362-2.09,0-.091-.727-4.635-.364-4.999.636-.909,2.09-1.272,4.454.091,5.635,3.09,8.362,10.725,14.906,12.088.909.273,2.363-.091,3.454.909.909,1.272,3.272,3.454.454,3.454-3.726-.909-5.726.364-8.907-2-3.272-2.454-5.09-4.454-9.452-4.635-3.636-.091-6.908-1.636-10.725-1-2.09.364-4.09,1.091-6.271,1.727-1.909.636-2.272,3.999-4.272,4.454-8.089,1.909-6.362,9.634-7.726,15.724-.636,2.363-2.454,8.725-.364,10.907,3.726,3.726,8.271,8.725,13.724,9.452,2.999.454,9.452-1.909,11.634,1.091.909,1.727,3.09-1.272,3.726.273,1.454,4.454-1.727,7.453-1.727,11.906-.091,6.362,3.908,8.634-1.363,14.269-5.726,5.635-1.727,12.724-4.908,19.45-1.636,3.454-2,8.271-4.454,9.907-5.635,3.454-11.452,6.362-17.723,8.453-11.088,3.636-22.813,4.908-34.447,3.454-6.09-.727-12.088-2.09-17.905-4.09-1.454-.636-2.999-1-4.363-1.454-1-.818-2-1.182-2.999-1.636M97.354,316.804c-.273-.273-.364-.364-.636-.454-1.363-1.272-2.908-2.454-4.09-3.908-1.363-1.363-2.727-2.908-3.999-4.363,0,0,0-.091-.091-.091l-.727-1c-21.45-25.994-24.631-63.985-6.635-93.07,2.454,2.454-1.727,7.453,3.09,10.907,2.09,1.454,4.09.909,3.726,3.636s2.272,2.636,2.636,4.999c1.091,5.09,7.998,7.726,4.09,13.633-3.726,5.272-6.998,11.088-4.272,17.723,1,2.363,3.272,4.908,4.999,6.726,3.272,3.363,3.09,1.363,3.09,5.453-.091,1.727,2.09,3.726,2,4.908-.454,3.363-1.272,6.635-1.636,9.907-.727,11.906-.091,23.449,8.907,32.447-3.363-2-6.453-4.272-9.452-6.726-.364-.182-.636-.454-1-.727M268.679,202.012c5.09,2.727,77.073,41.809,79.8,43.354,2.727,1.454,5.453,2,9.634,2s6.998-.636,9.634-2c2.727-1.363,74.529-40.627,79.8-43.354,1.909-1,5.09-2.727,5.908-4.726,1.272-3.636-.091-4.908-5.362-4.908h-179.868c-5.272,0-6.453,1.363-5.362,4.908.727,2,3.999,3.726,5.817,4.726M451.546,215.517c-3.908,2-38.446,26.63-61.441,41.445l38.718,43.445c1,1,1.363,2,.909,2.636-.636.454-1.727.273-2.727-.636l-46.353-39.082c-6.998,4.454-11.997,7.635-12.724,8.089-3.636,1.909-6.09,2-9.634,2s-5.999-.273-9.634-2c-.909-.454-5.726-3.636-12.724-8.089l-46.353,39.082c-1,1-2.272,1.272-2.727.636-.636-.454-.091-1.636.909-2.636l38.628-43.445c-22.813-14.906-57.987-39.446-61.804-41.445-4.09-2.09-4.363.364-4.363,2.272v96.433c0,4.363,6.453,9.907,11.088,9.907h174.597c4.635,0,10.089-5.453,10.089-9.907v-96.524c-.545-2-.182-4.363-4.454-2.181"/>
</svg>