<?xml version="1.0" encoding="UTF-8"?>
<svg id="Layer_1" xmlns="http://www.w3.org/2000/svg" version="1.1" viewBox="0 0 500 500">
  <!-- Generator: Adobe Illustrator 29.1.0, SVG Export Plug-In . SVG Version: 2.1.0 Build 142)  -->
  <path d="M471.5,403.1l-99.4-100.7c16.2-28.3,24.6-59.6,24.6-91.3,0-102.7-83.4-186.2-185.8-186.2S25,108.5,25,211.2s83.4,186.2,185.9,186.2,65-9,93.9-26.3l98.9,100.3c2.3,2.3,5.3,3.7,8.6,3.7s6.3-1.3,8.6-3.7l50.8-51.3c4.5-4.6,4.5-12.1-.1-16.9M210.9,97.6c62.6,0,113.5,50.9,113.5,113.6s-50.9,113.6-113.5,113.6-113.5-50.9-113.5-113.6,50.9-113.6,113.5-113.6"/>
</svg>