<svg xmlns="http://www.w3.org/2000/svg" width="512" height="512" viewBox="0 0 512 512">
  <path d="M452.883,392.125l-88.375-89.5c14.375-25.125,21.875-53,21.875-81.125,0-91.25-74.125-165.5-165.125-165.5S56.008,130.25,56.008,221.5s74.125,165.5,165.25,165.5c29,0,57.75-8,83.5-23.375l87.875,89.125c2,2,4.75,3.25,7.625,3.25,2.75,0,5.625-1.125,7.625-3.25l45.125-45.625c4-4.125,4-10.75-.125-15M221.258,120.5c55.625,0,100.875,45.25,100.875,101s-45.25,101-100.875,101-100.875-45.25-100.875-101,45.25-101,100.875-101"/>
</svg>