<?xml version="1.0" encoding="UTF-8"?>
<svg width="512px" height="512px" viewBox="0 0 512 512" version="1.1" xmlns="http://www.w3.org/2000/svg" xmlns:xlink="http://www.w3.org/1999/xlink">
    <!-- Generator: Sketch 62 (91390) - https://sketch.com -->
    <title>search</title>
    <desc>Created with Sketch.</desc>
    <g id="search" stroke="none" stroke-width="1" fill="none" fill-rule="evenodd">
        <path d="M413.5,358.4 L342.8,286.8 C354.3,266.7 360.3,244.4 360.3,221.9 C360.3,148.9 301,89.5 228.2,89.5 C155.4,89.5 96,148.9 96,221.9 C96,294.9 155.3,354.3 228.2,354.3 C251.4,354.3 274.4,347.9 295,335.6 L365.3,406.9 C366.9,408.5 369.1,409.5 371.4,409.5 C373.6,409.5 375.9,408.6 377.5,406.9 L413.6,370.4 C416.8,367.1 416.8,361.8 413.5,358.4 Z M228.2,141.1 C272.7,141.1 308.9,177.3 308.9,221.9 C308.9,266.5 272.7,302.7 228.2,302.7 C183.7,302.7 147.5,266.5 147.5,221.9 C147.5,177.3 183.7,141.1 228.2,141.1 Z" id="Shape" fill="#000000" fill-rule="nonzero"></path>
    </g>
</svg>