<svg xmlns="http://www.w3.org/2000/svg" width="512" height="512" viewBox="0 0 512 512">
  <path id="content" d="M56,96c0-22.222,17.956-40,40-40h60v40h-60v60h-40v-60ZM456,96v60h-40v-60h-60v-40h60c10.578,0,20.8,4.178,28.267,11.733,7.467,7.556,11.733,17.689,11.733,28.267ZM416,416v-60h40v60c0,22.222-18.044,40-40,40h-60v-40h60ZM56,416v-60h40v60h60v40h-60c-10.578,0-20.8-4.178-28.267-11.733s-11.733-17.689-11.733-28.267ZM216,56h80v40h-80v-40ZM216,416h80v40h-80v-40ZM416,216h40v80h-40v-80ZM56,216h40v80h-40v-80Z"/>
</svg>