<svg xmlns="http://www.w3.org/2000/svg" width="512" height="512" data-name="Layer 1" viewBox="0 0 512 512">
    <path d="M397.6 353.3c-17.9 0-34 7.1-46.3 18.2l-168.3-98c1.2-5.4 2.1-10.9 2.1-16.5s-.9-11.1-2.1-16.5l166.4-97c12.7 11.8 29.5 19.1 48.2 19.1s36.8-7.5 50.1-20.7c13.3-13.3 20.7-31.3 20.7-50.1s-7.5-36.8-20.7-50.1C434.4 28.4 416.4 21 397.6 21s-36.8 7.5-50.1 20.7C334.2 55 326.8 73 326.8 91.8s.9 11.1 2.1 16.5l-166.4 97c-12.7-11.8-29.5-19.1-48.2-19.1s-36.8 7.5-50.1 20.7c-13.3 13.3-20.7 31.3-20.7 50.1s7.5 36.8 20.7 50.1c13.3 13.3 31.3 20.7 50.1 20.7s35.4-7.3 48.2-19.1l168.1 98c-1.2 5-1.9 10.2-1.9 15.6 0 38 30.9 68.7 68.9 68.7s68.9-30.7 68.9-68.7-7.3-35.8-20.2-48.7-30.5-20.2-48.7-20.2Z"/>
</svg>
