<svg xmlns="http://www.w3.org/2000/svg" width="500" height="500" viewBox="0 0 500 500">
    <path d="M385.61 343.23c-17.18 0-32.55 6.78-44.3 17.4l-161.15-93.8c1.13-5.2 2.03-10.4 2.03-15.82s-.9-10.62-2.03-15.82L339.5 142.3c12.2 11.3 28.25 18.31 46.11 18.31 37.52 0 67.81-30.29 67.81-67.81s-30.29-67.81-67.81-67.81S317.8 55.28 317.8 92.8c0 5.42.9 10.62 2.03 15.82l-159.34 92.89c-12.2-11.3-28.25-18.31-46.11-18.31-37.52 0-67.81 30.29-67.81 67.81s30.29 67.81 67.81 67.81c17.86 0 33.9-7.01 46.11-18.31l160.92 93.8c-1.13 4.75-1.81 9.72-1.81 14.92 0 36.39 29.61 65.77 66 65.77s66-29.38 66-65.77-29.61-66-66-66Zm0-273.03c12.43 0 22.6 10.17 22.6 22.6s-10.17 22.6-22.6 22.6-22.6-10.17-22.6-22.6 10.17-22.6 22.6-22.6M114.39 273.62c-12.43 0-22.6-10.17-22.6-22.6s10.17-22.6 22.6-22.6 22.6 10.17 22.6 22.6-10.17 22.6-22.6 22.6m271.22 158.21c-12.43 0-22.6-10.17-22.6-22.6s10.17-22.6 22.6-22.6 22.6 10.17 22.6 22.6-10.17 22.6-22.6 22.6"/>
</svg>
