<?xml version="1.0" encoding="UTF-8"?>
<svg width="512px" height="512px" viewBox="0 0 512 512" version="1.1" xmlns="http://www.w3.org/2000/svg" xmlns:xlink="http://www.w3.org/1999/xlink">
    <!-- Generator: Sketch 62 (91390) - https://sketch.com -->
    <title>share</title>
    <desc>Created with Sketch.</desc>
    <g id="share" stroke="none" stroke-width="1" fill="none" fill-rule="evenodd">
        <path d="M336,351 L128,351 L128,201.3 L175.9,201.3 C175.9,201.3 187.7,184.9 211.5,169.5 L112,169.5 C103.2,169.5 96,176.6 96,185.4 L96,367 C96,375.8 103.2,382.9 112,382.9 L352,382.9 C360.8,382.9 368,375.8 368,367 L368,276.1 L336,302.3 L336,351 Z M309.3,222.8 L309.3,276 L416,196.4 L309.3,116.1 L309.3,165.9 C180.3,165.9 176,302.8 176,302.8 C212.5,243.2 239.3,222.8 309.3,222.8 Z" id="Shape" fill="#000000" fill-rule="nonzero"></path>
    </g>
</svg>