<svg xmlns="http://www.w3.org/2000/svg" width="512" height="512" viewBox="0 0 512 512">
  <path d="M376.6,338.713c-15.255,0-28.884,6.002-39.387,15.505l-143.295-83.401c1-4.626,1.751-9.253,1.751-14.004s-.75-9.503-1.751-14.004l141.669-82.526c10.753,10.003,25.133,16.255,41.013,16.255s31.385-6.377,42.638-17.631c11.379-11.379,17.631-26.633,17.631-42.638s-6.377-31.385-17.631-42.638c-11.379-11.379-26.633-17.631-42.638-17.631s-31.385,6.377-42.638,17.631c-11.379,11.379-17.631,26.633-17.631,42.638s.75,9.503,1.751,14.004l-141.669,82.526c-10.753-10.003-25.133-16.255-41.013-16.255s-31.385,6.377-42.638,17.631c-11.379,11.379-17.631,26.633-17.631,42.638s6.377,31.385,17.631,42.638c11.379,11.379,26.633,17.631,42.638,17.631s30.134-6.252,41.013-16.255l143.17,83.401c-1,4.251-1.625,8.628-1.625,13.254,0,32.385,26.258,58.518,58.643,58.518s58.643-26.133,58.643-58.518-6.252-30.51-17.255-41.513c-11.003-11.003-26.008-17.255-41.513-17.255h.125Z"/>
</svg>