<?xml version="1.0" encoding="UTF-8"?>
<svg id="Layer_1" xmlns="http://www.w3.org/2000/svg" version="1.1" viewBox="0 0 500 500">
  <!-- Generator: Adobe Illustrator 29.1.0, SVG Export Plug-In . SVG Version: 2.1.0 Build 142)  -->
  <path d="M385.7,343.1c-17.2,0-32.5,6.8-44.3,17.4l-161.2-93.8c1.1-5.2,2-10.4,2-15.8s-.8-10.7-2-15.8l159.4-92.8c12.1,11.3,28.3,18.3,46.1,18.3s35.3-7.2,48-19.8c12.8-12.8,19.8-30,19.8-48s-7.2-35.3-19.8-48c-12.8-12.8-30-19.8-48-19.8s-35.3,7.2-48,19.8c-12.8,12.8-19.8,30-19.8,48s.8,10.7,2,15.8l-159.4,92.8c-12.1-11.3-28.3-18.3-46.1-18.3s-35.3,7.2-48,19.8c-12.8,12.8-19.8,30-19.8,48s7.2,35.3,19.8,48c12.8,12.8,30,19.8,48,19.8s33.9-7,46.1-18.3l161.1,93.8c-1.1,4.8-1.8,9.7-1.8,14.9,0,36.4,29.5,65.8,66,65.8s66-29.4,66-65.8-7-34.3-19.4-46.7c-12.4-12.4-29.3-19.4-46.7-19.4h.1Z"/>
</svg>