<?xml version="1.0" encoding="UTF-8"?>
<svg id="Layer_1" xmlns="http://www.w3.org/2000/svg" version="1.1" viewBox="0 0 500 500">
  <!-- Generator: Adobe Illustrator 29.1.0, SVG Export Plug-In . SVG Version: 2.1.0 Build 142)  -->
  <path d="M302.9,388.5v-62.5h-105.8v62.5c0,47.1-39.3,86.5-86.5,86.5s-85.7-39.3-85.7-86.5,38.5-85.7,85.7-85.7h61.7v-105.8h-60.9c-47.1,0-86.5-39.3-86.5-86.5S64.3,25,111.5,25s85.7,38.6,85.7,85.7v63.3h105.8v-63.3c0-47.1,39.3-85.7,86.5-85.7s85.7,38.6,85.7,85.7-38.6,86.5-85.7,86.5h-61.7v105.8h61.7c47.1,0,85.7,38.6,85.7,85.7s-38.6,86.5-85.7,86.5-86.5-39.3-86.5-86.5M172.4,110.7c0-34.7-26.2-62.5-60.9-62.5s-61.7,27.8-61.7,62.5,27,63.3,61.7,63.3h60.9v-63.3ZM172.4,326h-62.5c-34.7,0-60.2,27.8-60.2,62.5s26.2,63.3,60.9,63.3,61.7-28.5,61.7-63.3v-62.5h.1ZM302.9,302.9v-105.8h-105.8v105.8h105.8ZM327.6,110.7v63.3h62.5c34.7,0,60.2-28.5,60.2-63.3s-26.2-62.5-60.9-62.5-61.9,27.8-61.9,62.5M327.6,326v62.5c0,34.7,27,63.3,61.7,63.3s60.9-28.5,60.9-63.3-25.5-62.5-60.2-62.5h-62.4Z"/>
</svg>