<svg xmlns="http://www.w3.org/2000/svg" width="512" height="512" viewBox="0 0 512 512">
  <path d="M303.011,379.148v-55.595h-94.021v55.595c0,41.901-34.951,76.852-76.852,76.852s-76.137-34.951-76.137-76.852,34.236-76.137,76.137-76.137h54.88v-94.021h-54.165c-41.901,0-76.852-34.951-76.852-76.852s34.951-76.137,76.852-76.137,76.137,34.338,76.137,76.137v56.311h94.021v-56.311c0-41.901,34.951-76.137,76.852-76.137s76.137,34.338,76.137,76.137-34.338,76.852-76.137,76.852h-54.88v94.021h54.88c41.901,0,76.137,34.338,76.137,76.137s-34.338,76.852-76.137,76.852-76.852-34.951-76.852-76.852M187.017,132.137c0-30.864-23.301-55.595-54.165-55.595s-54.88,24.732-54.88,55.595,24.016,56.311,54.88,56.311h54.165v-56.311ZM187.017,323.552h-55.595c-30.864,0-53.551,24.732-53.551,55.595s23.301,56.311,54.165,56.311,54.88-25.345,54.88-56.311v-55.595h.102ZM303.011,303.011v-94.021h-94.021v94.021h94.021ZM324.983,132.137v56.311h55.595c30.864,0,53.551-25.345,53.551-56.311s-23.301-55.595-54.165-55.595-54.982,24.732-54.982,55.595M324.983,323.552v55.595c0,30.864,24.016,56.311,54.88,56.311s54.165-25.345,54.165-56.311-22.688-55.595-53.551-55.595h-55.493Z"/>
</svg>