<svg xmlns="http://www.w3.org/2000/svg" xml:space="preserve" width="512" height="512" style="enable-background:new 0 0 512 512" viewBox="0 0 512 512">
    <path d="M302 376.5v-54.4h-92v54.4c0 41-34.2 75.2-75.2 75.2s-74.5-34.2-74.5-75.2S93.8 302 134.8 302h53.7v-92h-53c-41 0-75.2-34.2-75.2-75.2s34.2-74.5 75.2-74.5S210 93.9 210 134.8v55.1h92v-55.1c0-41 34.2-74.5 75.2-74.5s74.5 33.6 74.5 74.5c0 41-33.6 75.2-74.5 75.2h-53.7v92h53.7c41 0 74.5 33.6 74.5 74.5s-33.6 75.2-74.5 75.2-75.2-34.2-75.2-75.2M188.5 134.8c0-30.2-22.8-54.4-53-54.4s-53.7 24.2-53.7 54.4 23.5 55.1 53.7 55.1h53zm0 187.3h-54.4c-30.2 0-52.4 24.2-52.4 54.4s22.8 55.1 53 55.1 53.7-24.8 53.7-55.1v-54.4zM302 302v-92h-92v92zm21.5-167.2v55.1h54.4c30.2 0 52.4-24.8 52.4-55.1s-22.8-54.4-53-54.4-53.8 24.2-53.8 54.4m0 187.3v54.4c0 30.2 23.5 55.1 53.7 55.1s53-24.8 53-55.1c0-30.2-22.2-54.4-52.4-54.4z" style="enable-background:new"/>
</svg>
