<svg xmlns="http://www.w3.org/2000/svg" width="512" height="512" viewBox="0 0 512 512">
  <path d="M438.518,246.909c6.079,0,8.284.633,10.505,1.821,2.196,1.162,3.992,2.958,5.155,5.155,1.189,2.223,1.822,4.427,1.822,10.505v128.675c0,6.078-.633,8.282-1.821,10.505-1.162,2.196-2.958,3.992-5.155,5.155-2.223,1.189-4.427,1.822-10.505,1.822H73.481c-6.078,0-8.282-.633-10.505-1.821-2.196-1.162-3.992-2.958-5.155-5.155-1.19-2.224-1.822-4.428-1.822-10.506v-128.674c0-6.078.633-8.282,1.821-10.505,1.162-2.196,2.958-3.992,5.155-5.155,2.223-1.189,4.427-1.822,10.505-1.822h365.037ZM419.636,283.259h-145.455v90.909h34.766c2.566-1.524,5.139-2.481,6.533-2.97,3.435-1.205,8.349-1.647,11.508-2.336,1.805-.393,4.437-1.376,5.315-2.409.382-.461.498-2.556.506-4.772v-.555l-.004-.555c-.025-2.491-.152-4.814-.152-4.814,0,0-1.63-2.483-2.507-4.696-.325-.818-.659-2.155-.952-3.518l-.102-.481c-.448-2.162-.777-4.236-.777-4.236l-.014-.002c-.168-.012-1.825-.207-2.443-3.145-.677-3.394-1.755-4.745-1.63-7.278.151-2.361,1.404-2.484,1.529-2.484,0,0-1.354-3.59-1.504-11.089-.201-8.9,6.718-17.654,19.782-17.654s20.007,8.778,19.782,17.655c-.142,6.045-1.109,9.535-1.405,10.673l-.05.196c-.037.145-.045.218-.025.218.151,0,1.405.124,1.53,2.485.125,2.556-.927,3.958-1.63,7.351-.618,2.939-2.275,3.091-2.444,3.098h-.014s-.953,6.024-1.83,8.212c-.877,2.189-2.507,4.696-2.507,4.696,0,0-.136,2.505-.155,5.1l-.002.556c0,2.318.109,4.57.507,5.039.877,1.033,3.51,2.016,5.315,2.409,3.134.664,8.073,1.082,11.508,2.287,1.406.494,4.016,1.465,6.609,3.019h40.407v-90.909ZM237.894,283.154H92.439v90.909h36.031c3.028-2.077,6.417-3.322,8.095-3.899,3.436-1.182,8.355-1.616,11.515-2.291,1.806-.386,4.441-1.352,5.318-2.365.878-1.036.352-10.495.352-10.495,0,0-1.631-2.436-2.509-4.607-.878-2.172-1.831-8.082-1.831-8.082,0,0-1.806-.049-2.459-3.088-.677-3.33-1.756-4.656-1.631-7.142.151-2.315,1.405-2.436,1.531-2.436,0,0-1.355-3.523-1.505-10.881-.2-8.733,6.724-17.322,19.795-17.322s20.02,8.613,19.795,17.322c-.175,7.382-1.631,10.881-1.48,10.881.15,0,1.405.121,1.53,2.436.125,2.509-.928,3.885-1.631,7.214-.618,2.884-2.276,3.032-2.445,3.039h-.014s-.354,2.191-.827,4.389l-.104.47c-.281,1.251-.595,2.453-.9,3.2-.879,2.147-2.509,4.607-2.509,4.607,0,0-.527,9.482.351,10.495s3.512,1.979,5.318,2.365c3.136.652,8.079,1.062,11.515,2.244,1.69.582,5.114,1.839,8.161,3.947h35.991v-90.909h0ZM341.672,196.504l-1.024-1.194-77.312-88.966c-2.616-3.013-6.538-4.889-10.915-4.889-4.17-.006-8.143,1.774-10.915,4.889l-77.255,88.853-1.308,1.478c-.966,1.421-1.535,3.127-1.535,4.889,0,4.945,4.206,8.982,9.436,8.982h163.04c5.23,0,9.436-4.036,9.436-8.982,0-1.819-.625-3.582-1.648-5.06"/>
</svg>