<?xml version="1.0" encoding="UTF-8"?>
<svg id="Layer_1" xmlns="http://www.w3.org/2000/svg" version="1.1" viewBox="0 0 500 500">
  <!-- Generator: Adobe Illustrator 29.1.0, SVG Export Plug-In . SVG Version: 2.1.0 Build 142)  -->
  <path d="M250.7,25c-.2,0-.5,0-.7,0-.2,0-.5,0-.7,0C125.4,25,25,125.7,25,250s100.4,225,224.3,225,.5,0,.7,0c.2,0,.5,0,.7,0,123.9,0,224.3-100.7,224.3-225S374.6,25,250.7,25M265.4,90.3l58.4-6.7c22,9.8,41.8,23.9,58.1,41.2l7.4,59.7-72.2,19-51.8-36.2v-76.9h0ZM118,124.7c16.4-17.3,36.1-31.4,58.2-41.2l58.4,6.7v76.9l-51.8,36.2-72.2-19,7.4-59.7h0ZM90.6,338.1c-12.5-22.6-20.3-48.2-22.1-75.5l30.8-51.5,73.1,19.3,18.5,61.2-47.6,71.2-52.6-24.6ZM291.5,427.2c-13.1,3-26.8,4.8-40.8,4.8-.2,0-.5,0-.7,0s-.5,0-.7,0c-14,0-27.6-1.8-40.8-4.8l-41.2-48.9,46.5-69.5h72.4l46.5,69.5-41.2,48.9h0ZM356.7,362.7l-47.6-71.2,18.5-61.2,73.1-19.3,30.8,51.5c-1.9,27.2-9.6,52.8-22.1,75.5l-52.6,24.6Z"/>
</svg>