<svg xmlns="http://www.w3.org/2000/svg" width="512" height="512" viewBox="0 0 512 512">
    <path d="M256.59 71c-.201 0-.39.024-.59.035-.2 0-.389-.035-.59-.035-102.158 0-184.987 82.818-184.987 184.988S153.253 441 255.41 441c.2 0 .389-.024.589-.047.2 0 .389.047.59.047 102.158 0 184.987-82.83 184.987-185S358.747 71 256.59 71m12.139 53.696 48.168-5.54c18.185 8.05 34.437 19.624 47.956 33.837l6.14 49.076-59.53 15.64-42.746-29.76v-63.253zm-121.593 28.297c13.53-14.213 29.782-25.787 47.967-33.837l48.168 5.54v63.253l-42.746 29.76-59.53-15.64 6.14-49.076zM124.566 328.4c-10.348-18.622-16.712-39.66-18.268-62.076l25.398-42.346 60.296 15.84 15.25 50.325-39.258 58.516zm165.66 73.283c-10.843 2.499-22.063 3.936-33.637 3.96-.2 0-.389-.024-.589-.024-.2 0-.389.024-.59.024-11.585-.024-22.805-1.461-33.636-3.96l-34.001-40.201 38.35-57.125h59.754l38.35 57.125-34.001 40.2zm53.79-53.036-39.259-58.516 15.263-50.325 60.284-15.84 25.398 42.346c-1.556 22.405-7.932 43.454-18.268 62.076z"/>
</svg>
