<svg xmlns="http://www.w3.org/2000/svg" width="512" height="512" viewBox="0 0 512 512">
  <path d="M256.636,56.621c-.217,0-.42.026-.636.038-.216,0-.419-.038-.636-.038-110.098,0-199.365,89.255-199.365,199.366s89.268,199.392,199.365,199.392c.216,0,.419-.026.635-.051.216,0,.419.051.636.051,110.098,0,199.365-89.268,199.365-199.379S366.733,56.621,256.636,56.621M269.719,114.491l51.912-5.971c19.598,8.676,37.114,21.149,51.683,36.467l6.617,52.89-64.157,16.856-46.068-32.073v-68.169h.013ZM138.675,144.987c14.582-15.318,32.097-27.791,51.695-36.467l51.912,5.971v68.169l-46.068,32.073-64.157-16.856,6.617-52.89h.001ZM114.351,334.027c-11.152-20.069-18.011-42.742-19.688-66.901l27.372-45.637,64.982,17.071,16.435,54.236-42.309,63.064-46.793-21.834ZM292.887,413.006c-11.686,2.693-23.778,4.242-36.251,4.268-.216,0-.419-.026-.635-.026s-.419.026-.636.026c-12.485-.026-24.577-1.575-36.25-4.268l-36.644-43.326,41.331-61.565h64.398l41.331,61.565-36.644,43.324h0ZM350.857,355.848l-42.31-63.064,16.449-54.236,64.969-17.071,27.372,45.637c-1.677,24.146-8.549,46.831-19.688,66.901l-46.793,21.834Z"/>
</svg>