<svg xmlns="http://www.w3.org/2000/svg" width="512" height="512" viewBox="0 0 512 512">
  <path d="M324.765,276.353l-18.941-14.235-.118-.118c-6.118-4.824-10.353-8.588-10.353-15.294,0-7.294,5.294-12.235,11.294-18.235l.471-.471c20.941-15.882,46.588-35.765,46.588-77.647,0-28-12.353-46.588-24.235-60.118h13.647l62.824-34.235h-139.059c-26.353,0-65.176,3.412-98.471,29.765l-.118.235c-22.706,18.824-36.235,46.353-36.235,73.529,0,22.118,9.059,43.882,24.824,59.765,22.353,22.471,50.353,27.176,69.765,27.176,1.529,0,3.059,0,4.706-.118-.706,3.059-1.294,6.588-1.294,10.824,0,11.294,3.765,20,8.471,27.294-24.941,2-60.588,6.706-88.353,23.294-40.941,23.412-44.118,58.118-44.118,68.235,0,39.882,37.176,80,120.235,80,95.412,0,145.294-51.882,145.294-103.059,0-38.706-23.765-58-46.824-76.588M194.176,135.059c0-13.882,3.176-24.471,9.647-32.118,6.706-8.118,18.941-13.647,30.235-13.647,20.706,0,34.353,15.647,42.118,28.824,9.529,16.235,15.529,37.529,15.529,55.882,0,5.176,0,20.824-10.588,31.059-7.176,6.941-19.529,11.765-29.765,11.765-21.412,0-34.824-15.294-42.353-28.118-10.941-18.706-14.824-39.882-14.824-53.647M320.294,372.588c0,28.588-26.235,46.353-68.471,46.353-50,0-83.647-21.412-83.647-53.412,0-27.176,22.353-38.353,39.412-44.235,19.647-6.235,46.118-7.647,52.118-7.647,4,0,6.353,0,8.941.235,38.235,26.235,51.647,37.647,51.647,58.706"/>
</svg>