<?xml version="1.0" encoding="UTF-8"?>
<svg id="Layer_1" xmlns="http://www.w3.org/2000/svg" version="1.1" viewBox="0 0 500 500">
  <!-- Generator: Adobe Illustrator 29.1.0, SVG Export Plug-In . SVG Version: 2.1.0 Build 142)  -->
  <path d="M236.2,270.1l-18.3-13.8h-.1c-5.8-4.8-10-8.4-10-14.9s5-11.7,11-17.4l.5-.4c20.1-15.4,44.9-34.4,44.9-74.9s-12-44.9-23.4-57.9h13l60.4-33h-134c-25.4,0-63,3.2-95,28.6h-.1c-21.9,18.2-35,44.9-35,71s8.8,42.3,24,57.6c21.5,21.6,48.5,26.1,67.4,26.1s3,0,4.5-.1c-.9,3-1.3,6.4-1.3,10.4,0,11,3.6,19.4,8.1,26.2-24,2-58.4,6.5-85.1,22.4-39.5,22.8-42.8,56.3-42.8,65.9,0,38.4,35.9,77.1,116,77.1s140-50,140-99.4c.3-37.2-22.6-55.8-44.8-73.8M110.2,133.8c0-13.5,3-23.6,9.2-31,6.5-7.9,18.3-13.2,29.1-13.2,20,0,33,15,40.6,27.6,9.2,15.6,14.9,36.3,14.9,53.9s0,20.1-10.2,29.9c-7,6.7-18.9,11.4-28.6,11.4-20.5,0-33.6-14.8-40.9-27.1-10.4-17.6-14.1-38.1-14.1-51.4M231.9,362.8c0,27.5-25.2,44.7-66,44.7s-80.6-20.6-80.6-51.4,21.6-37,38-42.8c19-6.1,44.4-7.2,50.2-7.2s6.1,0,8.8.1c36.7,25.3,49.6,36.1,49.6,56.5M396.7,135.1V56.8h-34.1v78.3h-80.3v34.1h80.3v81.4h34.1v-81.4h78.3v-34.1h-78.3Z"/>
</svg>