<?xml version="1.0" encoding="UTF-8"?>
<svg id="Layer_1" xmlns="http://www.w3.org/2000/svg" version="1.1" viewBox="0 0 500 500">
  <!-- Generator: Adobe Illustrator 29.1.0, SVG Export Plug-In . SVG Version: 2.1.0 Build 142)  -->
  <path d="M475,110.6c-16.5,7.3-34.2,12.2-53,14.7,19.3-11.5,33.8-29.6,40.6-51-17.9,10.6-37.6,18.2-58.6,22.3-16.9-18.1-40.9-29.4-67.4-29.4-51,0-92.2,41.3-92.2,92.3s.7,14.3,2.4,21c-76.7-3.8-144.7-40.6-190.3-96.5-7.8,13.6-12.6,29.5-12.6,46.4,0,32,16.4,60.3,41.1,76.8-15.2-.4-29.5-4.6-41.9-11.5v1.1c0,44.8,31.7,82.1,74.1,90.4-7.7,2.1-15.9,3.2-24.3,3.2s-11.6-.5-17.3-1.7c11.6,36.6,45.8,63.3,86.2,64.1-31.5,24.7-71.4,39.5-114.6,39.5s-14.8-.4-22.1-1.3c40.7,26.6,89.3,41.8,141.2,41.8,169.9,0,262.8-140.8,262.8-262.8s-.1-8.1-.3-11.9c18.4-12.8,33.9-29,46.3-47.6"/>
</svg>