<svg xmlns="http://www.w3.org/2000/svg" width="512" height="512" viewBox="0 0 512 512">
    <path d="M390.4 40H123.3C108.8 40 96 50.5 96 64.9v267.7c0 14.5 12.8 27.4 27.3 27.4h267c14.7 0 25.7-13 25.7-27.4V64.9c.1-14.4-11-24.9-25.6-24.9zM195.2 306.7h-45.8V164.2h45.8v142.5zm-21.3-164.2h-.3c-14.7 0-24.2-10.9-24.2-24.6 0-13.9 9.8-24.6 24.8-24.6s24.2 10.6 24.5 24.6c-.1 13.7-9.6 24.6-24.8 24.6zm188.8 164.2h-45.8v-77.9c0-18.7-6.7-31.4-23.3-31.4-12.7 0-20.2 8.6-23.5 16.9-1.3 3-1.6 7.1-1.6 11.3v81.2h-45.8V164.2h45.8V184c6.7-9.5 17.1-23.2 41.3-23.2 30.1 0 52.8 19.8 52.8 62.6v83.3z"/>
</svg>
