<?xml version="1.0" encoding="UTF-8"?>
<svg id="Layer_1" xmlns="http://www.w3.org/2000/svg" version="1.1" viewBox="0 0 500 500">
  <!-- Generator: Adobe Illustrator 29.1.0, SVG Export Plug-In . SVG Version: 2.1.0 Build 142)  -->
  <path d="M327.4,272.9l-21.3-16h-.1c-6.9-5.6-11.6-9.8-11.6-17.3s6-13.8,12.7-20.5l.5-.5c23.6-17.9,52.4-40.2,52.4-87.4s-13.9-52.4-27.3-67.6h15.4l70.7-38.5h-156.4c-29.6,0-73.3,3.8-110.8,33.5v.3c-25.7,21.2-40.9,52.1-40.9,82.7s10.2,49.4,27.9,67.2c25.1,25.3,56.6,30.6,78.5,30.6s3.4,0,5.3-.1c-.8,3.4-1.5,7.4-1.5,12.2,0,12.7,4.2,22.5,9.5,30.7-28.1,2.3-68.2,7.5-99.4,26.2-46.1,26.3-49.6,65.4-49.6,76.8,0,44.9,41.8,90,135.3,90s163.5-58.4,163.5-115.9-26.7-65.2-52.7-86.2M180.4,113.9c0-15.6,3.6-27.5,10.9-36.1,7.5-9.1,21.3-15.4,34-15.4,23.3,0,38.6,17.6,47.4,32.4,10.7,18.3,17.5,42.2,17.5,62.9s0,23.4-11.9,34.9c-8.1,7.8-22,13.2-33.5,13.2-24.1,0-39.2-17.2-47.6-31.6-12.3-21-16.7-44.9-16.7-60.4M322.3,381.2c0,32.2-29.5,52.1-77,52.1s-94.1-24.1-94.1-60.1,25.1-43.1,44.3-49.8c22.1-7,51.9-8.6,58.6-8.6s7.1,0,10.1.3c43,29.5,58.1,42.4,58.1,66"/>
</svg>