<svg xmlns="http://www.w3.org/2000/svg" width="512" height="512" viewBox="0 0 512 512">
  <path d="M243.778,273.833l-16.222-12.222-.111-.111c-5.111-4.111-8.889-7.333-8.889-13.111,0-6.222,4.444-10.444,9.778-15.444l.444-.333c17.889-13.667,39.889-30.556,39.889-66.556,0-24-10.667-39.889-20.778-51.444h11.556l53.667-29.333h-119.111c-22.556,0-56,2.889-84.444,25.444l-.111.111c-19.444,16.111-31.111,39.778-31.111,63,0,18.889,7.778,37.556,21.333,51.222,19.111,19.222,43.111,23.222,59.889,23.222,1.333,0,2.667,0,4-.111-.778,2.667-1.111,5.667-1.111,9.222,0,9.778,3.222,17.222,7.222,23.333-21.333,1.778-51.889,5.778-75.667,19.889-35.111,20.222-38,50-38,58.556,0,34.111,31.889,68.556,103.111,68.556,81.667,0,124.444-44.444,124.444-88.333.222-33.111-20.111-49.556-39.778-65.556M131.778,152.722c0-12,2.667-21,8.222-27.556,5.778-7,16.222-11.778,25.889-11.778,17.778,0,29.333,13.333,36.111,24.556,8.222,13.889,13.222,32.222,13.222,47.889,0,4.333,0,17.889-9.111,26.556-6.222,6-16.778,10.111-25.444,10.111-18.222,0-29.889-13.111-36.333-24.111-9.222-15.667-12.556-33.889-12.556-45.667M239.889,356.278c0,24.444-22.444,39.778-58.667,39.778-43,0-71.667-18.333-71.667-45.667,0-23.222,19.222-32.889,33.778-38,16.889-5.444,39.444-6.444,44.667-6.444,3.444,0,5.444,0,7.778.111,32.667,22.444,44.111,32.111,44.111,50.222M386.444,153.833v-69.556h-30.333v69.556h-71.333v30.333h71.333v72.333h30.333v-72.333h69.556v-30.333h-69.556Z"/>
</svg>