<?xml version="1.0" encoding="UTF-8"?>
<svg id="Layer_1" xmlns="http://www.w3.org/2000/svg" version="1.1" viewBox="0 0 500 500">
  <!-- Generator: Adobe Illustrator 29.1.0, SVG Export Plug-In . SVG Version: 2.1.0 Build 142)  -->
  <path d="M431.6,375.7c-6.8,15.7-14.9,30.2-24.2,43.5-12.7,18.1-23.1,30.7-31.2,37.7-12.4,11.4-25.8,17.3-40.1,17.6-10.2,0-22.6-2.9-37-8.8-14.4-5.9-27.7-8.8-39.8-8.8s-26.4,2.9-41,8.8c-14.6,5.9-26.4,9-35.4,9.3-13.7.6-27.3-5.4-41-18.1-8.7-7.6-19.6-20.6-32.6-39-14-19.7-25.5-42.5-34.5-68.5-9.6-28.1-14.5-55.3-14.5-81.6s6.5-56.2,19.6-78c10.3-17.5,23.9-31.3,41-41.5s35.5-15.3,55.4-15.6c10.9,0,25.1,3.4,42.9,10,17.7,6.6,29,10,34,10s16.3-3.9,37.7-11.8c20.2-7.3,37.3-10.3,51.2-9.1,37.9,3.1,66.3,18,85.2,44.9-33.9,20.5-50.6,49.3-50.3,86.1.3,28.7,10.7,52.6,31.2,71.6,9.3,8.8,19.6,15.6,31.2,20.4-2.5,7.3-5.1,14.2-7.9,20.9M344.7,34c0,22.5-8.2,43.5-24.6,63-19.8,23.1-43.7,36.5-69.6,34.4-.3-2.8-.5-5.7-.5-8.5,0-21.6,9.4-44.7,26.1-63.6,8.3-9.6,18.9-17.5,31.8-23.9,12.8-6.3,25-9.7,36.4-10.3.3,3,.5,6,.5,9"/>
</svg>