<svg xmlns="http://www.w3.org/2000/svg" width="512" height="512" viewBox="0 0 512 512">
  <path d="M423.999,56H90.125c-18.125,0-34.125,13.125-34.125,31.125v334.624c0,18.125,16,34.25,34.125,34.25h333.749c18.375,0,32.125-16.25,32.125-34.25V87.125c.125-18-13.75-31.125-32-31.125M180,389.375h-57.25v-178.125h57.25v178.125ZM153.375,184.125h-.375c-18.375,0-30.25-13.625-30.25-30.75,0-17.375,12.25-30.75,31-30.75s30.25,13.25,30.625,30.75c-.125,17.125-12,30.75-31,30.75M389.374,389.375h-57.25v-97.375c0-23.375-8.375-39.25-29.125-39.25-15.875,0-25.25,10.75-29.375,21.125-1.625,3.75-2,8.875-2,14.125v101.5h-57.25v-178.25h57.25v24.75c8.375-11.875,21.375-29,51.625-29,37.625,0,66,24.75,66,78.25v104.125h.125Z"/>
</svg>