<svg xmlns="http://www.w3.org/2000/svg" width="512" height="512" viewBox="0 0 512 512">
    <path d="m314.5 266.8-16.1-12.1-.1-.1c-5.2-4.1-8.8-7.3-8.8-13 0-6.2 4.5-10.4 9.6-15.5l.4-.4c17.8-13.5 39.6-30.4 39.6-66 0-23.8-10.5-39.6-20.6-51.1h11.6l53.4-29.1H265.3c-22.4 0-55.4 2.9-83.7 25.3l-.1.2c-19.3 16-30.8 39.4-30.8 62.5 0 18.8 7.7 37.3 21.1 50.8 19 19.1 42.8 23.1 59.3 23.1 1.3 0 2.6 0 4-.1-.6 2.6-1.1 5.6-1.1 9.2 0 9.6 3.2 17 7.2 23.2-21.2 1.7-51.5 5.7-75.1 19.8-34.8 19.9-37.5 49.4-37.5 58 0 33.9 31.6 68 102.2 68 81.1 0 123.5-44.1 123.5-87.6 0-32.9-20.2-49.3-39.8-65.1zm-111-120.1c0-11.8 2.7-20.8 8.2-27.3 5.7-6.9 16.1-11.6 25.7-11.6 17.6 0 29.2 13.3 35.8 24.5 8.1 13.8 13.2 31.9 13.2 47.5 0 4.4 0 17.7-9 26.4-6.1 5.9-16.6 10-25.3 10-18.2 0-29.6-13-36-23.9-9.3-15.9-12.6-33.9-12.6-45.6zm107.2 201.9c0 24.3-22.3 39.4-58.2 39.4-42.5 0-71.1-18.2-71.1-45.4 0-23.1 19-32.6 33.5-37.6 16.7-5.3 39.2-6.5 44.3-6.5 3.4 0 5.4 0 7.6.2 32.5 22.3 43.9 32 43.9 49.9z"/>
</svg>
