<svg xmlns="http://www.w3.org/2000/svg" width="512" height="512" viewBox="0 0 512 512">
  <path d="M227.064,100.821c10.442,8.664,32.435,26.548,32.435,60.761,0,33.213-19.217,48.986-38.545,63.871-5.998,5.887-12.885,12.108-12.885,21.994s6.887,15.329,11.886,19.328l16.551,12.663c20.106,16.662,38.434,31.991,38.434,62.983,0,42.322-41.766,84.976-120.411,84.976-66.315.111-98.528-30.991-98.528-64.204,0-16.107,8.22-39.1,35.212-54.874,28.325-16.995,66.981-19.328,87.531-20.772-6.332-8.109-13.774-16.773-13.774-30.658,0-7.665,2.333-12.108,4.554-17.662-4.999.444-10.108.889-14.663.889-48.653,0-76.09-35.435-76.09-70.647,0-20.772,9.664-43.655,29.325-60.205,26.215-20.994,57.317-24.66,82.088-24.66h94.307l-29.214,16.107-28.214.111ZM194.406,300.654c-3.666-.444-5.998-.444-10.442-.444-4.11,0-28.881.889-48.098,7.109-10.108,3.666-39.322,14.329-39.322,46.32s31.658,54.874,80.644,54.874c43.988,0,67.315-20.772,67.315-48.653-.222-22.883-15.218-34.99-50.097-59.206M207.847,215.122c10.442-10.33,11.33-24.771,11.33-32.88,0-32.324-19.772-82.755-57.762-82.755-11.886,0-24.771,5.776-31.991,14.885-7.776,9.442-10.108,21.661-10.108,33.213,0,30.103,17.884,80.089,57.317,80.089,11.441.111,23.66-5.443,31.214-12.552M456,154.472h-69.869v-69.647h-15.773v69.869h-71.091v15.773h71.091v72.202h15.773v-72.202h69.869v-15.996Z"/>
</svg>