<?xml version="1.0" encoding="UTF-8"?>
<svg id="Layer_1" xmlns="http://www.w3.org/2000/svg" version="1.1" viewBox="0 0 500 500">
  <!-- Generator: Adobe Illustrator 29.1.0, SVG Export Plug-In . SVG Version: 2.1.0 Build 142)  -->
  <path d="M217.4,75.4c11.7,9.7,36.5,29.9,36.5,68.4s-21.6,55.1-43.4,71.9c-6.7,6.6-14.5,13.6-14.5,24.7s7.7,17.2,13.4,21.7l18.6,14.2c22.6,18.7,43.2,36,43.2,70.9s-47,95.6-135.5,95.6c-74.6.1-110.8-34.9-110.8-72.2s9.2-44,39.6-61.7c31.9-19.1,75.4-21.7,98.5-23.4-7.1-9.1-15.5-18.9-15.5-34.5s2.6-13.6,5.1-19.9c-5.6.5-11.4,1-16.5,1-54.7,0-85.6-39.9-85.6-79.5s10.9-49.1,33-67.7c29.5-23.6,64.5-27.7,92.3-27.7h106.1l-32.9,18.1h-31.7ZM180.7,300.2c-4.1-.5-6.7-.5-11.7-.5s-32.5,1-54.1,8c-11.4,4.1-44.2,16.1-44.2,52.1s35.6,61.7,90.7,61.7,75.7-23.4,75.7-54.7c-.2-25.7-17.1-39.4-56.4-66.6M195.8,204c11.7-11.6,12.7-27.9,12.7-37,0-36.4-22.2-93.1-65-93.1s-27.9,6.5-36,16.7c-8.7,10.6-11.4,24.4-11.4,37.4,0,33.9,20.1,90.1,64.5,90.1,12.9.1,26.6-6.1,35.1-14.1M475,135.8h-78.6V57.4h-17.7v78.6h-80v17.7h80v81.2h17.7v-81.2h78.6v-18Z"/>
</svg>