<?xml version="1.0" encoding="UTF-8"?>
<svg width="512px" height="512px" viewBox="0 0 512 512" version="1.1" xmlns="http://www.w3.org/2000/svg" xmlns:xlink="http://www.w3.org/1999/xlink">
    <!-- Generator: Sketch 62 (91390) - https://sketch.com -->
    <title>social-google-outline</title>
    <desc>Created with Sketch.</desc>
    <g id="social-google-outline" stroke="none" stroke-width="1" fill="none" fill-rule="evenodd">
        <path d="M312.1,95.55 C322.5,104.05 344.3,121.85 344.3,155.75 C344.3,188.75 325.2,204.35 306.2,219.05 C300.2,224.85 293.4,231.05 293.4,240.95 C293.4,250.85 300.2,256.15 305.2,260.15 L321.6,272.65 C341.6,289.15 359.8,304.35 359.8,335.15 C359.8,377.05 318.4,419.45 240.3,419.45 C174.4,419.45 142.6,388.75 142.6,355.65 C142.6,339.55 150.8,316.85 177.6,301.25 C205.7,284.35 244,282.05 264.4,280.75 C258,272.75 250.8,264.25 250.8,250.45 C250.8,242.85 253.1,238.45 255.3,233.05 C250.3,233.45 245.3,233.95 240.8,233.95 C192.6,233.95 165.3,198.75 165.3,163.95 C165.3,143.45 174.9,120.65 194.4,104.15 C220.3,83.15 251.1,79.55 275.7,79.55 L369.3,79.55 L340.3,95.65 L312.1,95.65 L312.1,95.55 Z M279.9,293.55 C276.2,293.15 273.9,293.15 269.5,293.15 C265.4,293.15 240.9,294.05 221.8,300.35 C211.8,303.95 182.7,314.55 182.7,346.35 C182.7,378.05 214,400.75 262.7,400.75 C306.3,400.75 329.5,380.25 329.5,352.55 C329.4,329.65 314.4,317.75 279.9,293.55 M293.1,208.85 C303.6,198.55 304.4,184.35 304.4,176.25 C304.4,144.15 284.8,94.15 247.2,94.15 C235.4,94.15 222.7,99.95 215.4,108.85 C207.7,118.25 205.4,130.25 205.4,141.85 C205.4,171.75 223.1,221.25 262.2,221.25 C273.5,221.35 285.8,215.95 293.1,208.85" id="Shape" fill="#000000" fill-rule="nonzero"></path>
    </g>
</svg>