<svg xmlns="http://www.w3.org/2000/svg" width="512" height="512" viewBox="0 0 512 512">
    <path d="m244.9 265.1-14.6-11-.1-.1c-4.6-3.7-8-6.6-8-11.8 0-5.6 4-9.4 8.8-13.9l.4-.3c16.1-12.3 35.9-27.5 35.9-59.9 0-21.6-9.6-35.9-18.7-46.3H259l48.3-26.4H200.1c-20.3 0-50.4 2.6-76 22.9l-.1.1c-17.5 14.5-28 35.8-28 56.7 0 17 7 33.8 19.2 46.1 17.2 17.3 38.8 20.9 53.9 20.9 1.2 0 2.4 0 3.6-.1-.7 2.4-1 5.1-1 8.3 0 8.8 2.9 15.5 6.5 21-19.2 1.6-46.7 5.2-68.1 17.9-31.6 18.2-34.2 45-34.2 52.7 0 30.7 28.7 61.7 92.8 61.7 73.5 0 112-40 112-79.5.2-29.8-18.1-44.6-35.8-59zm-100.8-109c0-10.8 2.4-18.9 7.4-24.8 5.2-6.3 14.6-10.6 23.3-10.6 16 0 26.4 12 32.5 22.1 7.4 12.5 11.9 29 11.9 43.1 0 3.9 0 16.1-8.2 23.9-5.6 5.4-15.1 9.1-22.9 9.1-16.4 0-26.9-11.8-32.7-21.7-8.3-14.1-11.3-30.5-11.3-41.1zm97.3 183.2c0 22-20.2 35.8-52.8 35.8-38.7 0-64.5-16.5-64.5-41.1 0-20.9 17.3-29.6 30.4-34.2 15.2-4.9 35.5-5.8 40.2-5.8 3.1 0 4.9 0 7 .1 29.4 20.2 39.7 28.9 39.7 45.2z"/>
    <path d="M373.3 157.1V94.5H346v62.6h-64.2v27.3H346v65.1h27.3v-65.1h62.6v-27.3z"/>
</svg>
