<?xml version="1.0" encoding="UTF-8"?>
<svg width="512px" height="512px" viewBox="0 0 512 512" version="1.1" xmlns="http://www.w3.org/2000/svg" xmlns:xlink="http://www.w3.org/1999/xlink">
    <!-- Generator: Sketch 62 (91390) - https://sketch.com -->
    <title>social-googleplus</title>
    <desc>Created with Sketch.</desc>
    <g id="social-googleplus" stroke="none" stroke-width="1" fill="none" fill-rule="evenodd">
        <path d="M244.9,265.1 L230.3,254.1 L230.2,254 C225.6,250.3 222.2,247.4 222.2,242.2 C222.2,236.6 226.2,232.8 231,228.3 L231.4,228 C247.5,215.7 267.3,200.5 267.3,168.1 C267.3,146.5 257.7,132.2 248.6,121.8 L259,121.8 L307.3,95.4 L200.1,95.4 C179.8,95.4 149.7,98 124.1,118.3 L124,118.4 C106.5,132.9 96,154.2 96,175.1 C96,192.1 103,208.9 115.2,221.2 C132.4,238.5 154,242.1 169.1,242.1 C170.3,242.1 171.5,242.1 172.7,242 C172,244.4 171.7,247.1 171.7,250.3 C171.7,259.1 174.6,265.8 178.2,271.3 C159,272.9 131.5,276.5 110.1,289.2 C78.5,307.4 75.9,334.2 75.9,341.9 C75.9,372.6 104.6,403.6 168.7,403.6 C242.2,403.6 280.7,363.6 280.7,324.1 C280.9,294.3 262.6,279.5 244.9,265.1 L244.9,265.1 Z M144.1,156.1 C144.1,145.3 146.5,137.2 151.5,131.3 C156.7,125 166.1,120.7 174.8,120.7 C190.8,120.7 201.2,132.7 207.3,142.8 C214.7,155.3 219.2,171.8 219.2,185.9 C219.2,189.8 219.2,202 211,209.8 C205.4,215.2 195.9,218.9 188.1,218.9 C171.7,218.9 161.2,207.1 155.4,197.2 C147.1,183.1 144.1,166.7 144.1,156.1 L144.1,156.1 Z M241.4,339.3 C241.4,361.3 221.2,375.1 188.6,375.1 C149.9,375.1 124.1,358.6 124.1,334 C124.1,313.1 141.4,304.4 154.5,299.8 C169.7,294.9 190,294 194.7,294 C197.8,294 199.6,294 201.7,294.1 C231.1,314.3 241.4,323 241.4,339.3 Z" id="Shape" fill="#000000" fill-rule="nonzero"></path>
        <polygon id="Path" fill="#000000" fill-rule="nonzero" points="373.3 157.1 373.3 94.5 346 94.5 346 157.1 281.8 157.1 281.8 184.4 346 184.4 346 249.5 373.3 249.5 373.3 184.4 435.9 184.4 435.9 157.1"></polygon>
    </g>
</svg>