<svg xmlns="http://www.w3.org/2000/svg" width="512" height="512" viewBox="0 0 512 512">
    <path fill-rule="nonzero" d="M229.9 109.8c9.4 7.8 29.2 23.9 29.2 54.7 0 29.9-17.3 44.1-34.7 57.5-5.4 5.3-11.6 10.9-11.6 19.8s6.2 13.8 10.7 17.4l14.9 11.4c18.1 15 34.6 28.8 34.6 56.7 0 38.1-37.6 76.5-108.4 76.5-59.7.1-88.7-27.9-88.7-57.8 0-14.5 7.4-35.2 31.7-49.4 25.5-15.3 60.3-17.4 78.8-18.7-5.7-7.3-12.4-15.1-12.4-27.6 0-6.9 2.1-10.9 4.1-15.9-4.5.4-9.1.8-13.2.8-43.8 0-68.5-31.9-68.5-63.6 0-18.7 8.7-39.3 26.4-54.2 23.6-18.9 51.6-22.2 73.9-22.2h84.9l-26.3 14.5-25.4.1zm-29.4 179.9c-3.3-.4-5.4-.4-9.4-.4-3.7 0-26 .8-43.3 6.4-9.1 3.3-35.4 12.9-35.4 41.7 0 28.8 28.5 49.4 72.6 49.4 39.6 0 60.6-18.7 60.6-43.8-.2-20.6-13.7-31.5-45.1-53.3m12.1-77c9.4-9.3 10.2-22.3 10.2-29.6 0-29.1-17.8-74.5-52-74.5-10.7 0-22.3 5.2-28.8 13.4-7 8.5-9.1 19.5-9.1 29.9 0 27.1 16.1 72.1 51.6 72.1 10.3.1 21.3-4.9 28.1-11.3M436 158.1h-62.9V95.4h-14.2v62.9h-64v14.2h64v65h14.2v-65H436v-14.4z"/>
</svg>
