<svg xmlns="http://www.w3.org/2000/svg" width="512" height="512" viewBox="0 0 512 512">
    <path d="M426 94.5c-12.5 5.5-25.9 9.2-40.1 11.1A69.43 69.43 0 00416.6 67c-13.5 8-28.4 13.8-44.3 16.9-12.8-13.7-30.9-22.2-51-22.2-38.6 0-69.7 31.2-69.7 69.8 0 5.5.5 10.8 1.8 15.9-58-2.9-109.4-30.7-143.9-73-5.9 10.3-9.5 22.3-9.5 35.1 0 24.2 12.4 45.6 31.1 58.1-11.5-.3-22.3-3.5-31.7-8.7v.8c0 33.9 24 62.1 56 68.4-5.8 1.6-12 2.4-18.4 2.4-4.5 0-8.8-.4-13.1-1.3 8.8 27.7 34.6 47.9 65.2 48.5-23.8 18.7-54 29.9-86.7 29.9-5.6 0-11.2-.3-16.7-1 30.8 20.1 67.5 31.6 106.8 31.6 128.5 0 198.7-106.5 198.7-198.7 0-3-.1-6.1-.2-9 13.9-9.7 25.6-21.9 35-36z"/>
</svg>
