<svg xmlns="http://www.w3.org/2000/svg" width="512" height="512" viewBox="0 0 512 512">
    <path d="M432.455 373.068c-6.463 14.931-14.114 28.676-22.978 41.313-12.083 17.227-21.976 29.151-29.6 35.773-11.819 10.87-24.482 16.436-38.042 16.752-9.735 0-21.474-2.77-35.14-8.39-13.71-5.592-26.31-8.362-37.83-8.362-12.083 0-25.042 2.77-38.903 8.363-13.882 5.62-25.065 8.547-33.615 8.838-13.003.554-25.964-5.171-38.902-17.201-8.257-7.202-18.586-19.549-30.958-37.04-13.275-18.677-24.19-40.337-32.74-65.03C84.59 321.413 80 295.586 80 270.581c0-28.642 6.19-53.345 18.586-74.047 9.742-16.628 22.703-29.745 38.925-39.374 16.222-9.63 33.75-14.536 52.626-14.85 10.328 0 23.872 3.195 40.704 9.473 16.784 6.3 27.56 9.495 32.285 9.495 3.533 0 15.505-3.736 35.8-11.183 19.192-6.907 35.39-9.766 48.66-8.64 35.958 2.902 62.973 17.077 80.938 42.614-32.159 19.485-48.067 46.777-47.75 81.787.29 27.27 10.183 49.964 29.626 67.983 8.812 8.362 18.652 14.826 29.6 19.416-2.374 6.886-4.88 13.481-7.545 19.813zM349.987 48.55c0 21.375-7.809 41.332-23.374 59.804-18.784 21.96-41.503 34.65-66.14 32.647a66.54 66.54 0 0 1-.497-8.099c0-20.52 8.933-42.48 24.796-60.434 7.92-9.091 17.992-16.65 30.207-22.68 12.188-5.94 23.717-9.225 34.56-9.788.316 2.858.448 5.715.448 8.55z"/>
</svg>
