<?xml version="1.0" encoding="UTF-8"?>
<svg id="Layer_1" xmlns="http://www.w3.org/2000/svg" version="1.1" viewBox="0 0 500 500">
  <!-- Generator: Adobe Illustrator 29.1.0, SVG Export Plug-In . SVG Version: 2.1.0 Build 142)  -->
  <path d="M324.3,46.2c13.8,11.3,42.6,34.8,42.6,79.7s-25.3,64.3-50.4,83.8c-7.9,7.7-16.9,15.9-16.9,29s9,20.1,15.6,25.4l21.7,16.5c26.5,21.8,50.6,42,50.6,82.7s-54.8,111.6-158.2,111.6-129.3-40.6-129.3-84.5,10.9-51.4,46.3-72c37.2-22.4,87.9-25.4,114.9-27.1-8.5-10.6-18-21.8-18-40.1s3-15.9,6-23c-6.6.5-13.2,1.2-19.2,1.2-63.8,0-100-46.6-100-92.7s12.7-57.3,38.5-79.2c34.3-27.8,75.1-32.6,107.6-32.6h123.9l-38.4,21.3h-37.3ZM281.7,308.3c-4.9-.5-7.9-.5-13.8-.5s-37.9,1.2-63.2,9.5c-13.2,4.8-51.8,18.8-51.8,60.9s41.4,72,105.9,72,88.4-27.1,88.4-63.8c-.1-30.3-20-46.1-65.7-78.1M299.2,196.2c13.9-13.6,15-32.4,15-43.2,0-42.5-25.9-108.7-75.7-108.7s-32.4,7.7-42.1,19.5c-10.2,12.4-13.2,28.3-13.2,43.7,0,39.6,23.4,105.1,75.2,105.1,15,.1,31.2-7,40.9-16.4"/>
</svg>