<svg xmlns="http://www.w3.org/2000/svg" width="512" height="512" viewBox="0 0 512 512">
  <path d="M456,132.05c-14.693,6.465-30.443,10.814-47.135,13.047,17.176-10.198,30.015-26.341,36.086-45.372-15.868,9.403-33.382,16.221-52.072,19.864-15.045-16.103-36.321-26.095-59.947-26.095-45.372,0-81.928,36.674-81.928,82.045,0,6.465.587,12.695,2.116,18.69-68.175-3.409-128.592-36.086-169.145-85.807-6.935,12.107-11.166,26.212-11.166,41.258,0,28.445,14.576,53.599,36.556,68.293-13.518-.353-26.212-4.114-37.261-10.226v.94c0,39.847,28.211,72.994,65.824,80.399-6.818,1.881-14.105,2.821-21.628,2.821-5.289,0-10.344-.47-15.398-1.528,10.344,32.559,40.67,56.303,76.638,57.009-27.975,21.98-63.473,35.145-101.91,35.145-6.582,0-13.165-.353-19.63-1.176,36.203,23.626,79.342,37.143,125.536,37.143,151.043,0,233.558-125.184,233.558-233.558,0-3.526-.118-7.17-.235-10.579,16.338-11.402,30.091-25.742,41.14-42.316"/>
</svg>