<svg xmlns="http://www.w3.org/2000/svg" width="512" height="512" viewBox="0 0 512 512">
  <path d="M322.078,74.829c12.239,10.003,37.894,30.95,37.894,70.844,0,38.835-22.477,57.193-44.837,74.493-7.061,6.826-15.063,14.122-15.063,25.772s8.002,17.888,13.886,22.595l19.3,14.71c23.536,19.417,44.954,37.305,44.954,73.551,0,49.309-48.72,99.206-140.63,99.206-77.552,0-114.975-36.128-114.975-75.081,0-18.947,9.65-45.66,41.189-64.019,33.069-19.888,78.141-22.595,102.148-24.125-7.532-9.415-16.005-19.417-16.005-35.658,0-8.944,2.707-14.122,5.296-20.477-5.884.471-11.768,1.059-17.064,1.059-56.723,0-88.85-41.424-88.85-82.377,0-24.125,11.297-50.956,34.245-70.374,30.48-24.713,66.726-28.95,95.675-28.95h110.15l-34.128,18.947h-33.186v-.118ZM284.185,307.839c-4.354-.471-7.061-.471-12.239-.471-4.825,0-33.657,1.059-56.134,8.473-11.768,4.237-46.014,16.711-46.014,54.134s36.834,64.019,94.145,64.019c51.309,0,78.611-24.125,78.611-56.723-.118-26.949-17.77-40.953-58.37-69.432M299.719,208.162c12.357-12.121,13.298-28.832,13.298-38.364,0-37.776-23.066-96.617-67.314-96.617-13.886,0-28.832,6.826-37.423,17.299-9.061,11.062-11.768,25.184-11.768,38.835,0,35.187,20.83,93.439,66.843,93.439,13.298.118,27.773-6.237,36.364-14.593"/>
</svg>