<svg xmlns="http://www.w3.org/2000/svg" width="512" height="512" viewBox="0 0 512 512">
  <path d="M417.402,367.722c-6.049,13.974-13.209,26.838-21.505,38.665-11.309,16.123-20.568,27.283-27.703,33.48-11.062,10.173-22.913,15.383-35.604,15.678-9.111,0-20.098-2.592-32.888-7.852-12.831-5.234-24.624-7.826-35.405-7.826-11.309,0-23.437,2.592-36.41,7.827-12.992,5.26-23.459,7.999-31.461,8.272-12.17.518-24.3-4.84-36.409-16.099-7.728-6.74-17.395-18.296-28.974-34.666-12.424-17.48-22.64-37.752-30.642-60.862-8.57-24.962-12.866-49.133-12.866-72.536,0-26.806,5.793-49.926,17.395-69.301,9.118-15.562,21.248-27.839,36.43-36.851,15.182-9.012,31.587-13.604,49.253-13.898,9.666,0,22.342,2.99,38.095,8.866,15.708,5.896,25.794,8.886,30.216,8.886,3.307,0,14.511-3.497,33.506-10.466,17.962-6.464,33.122-9.14,45.541-8.086,33.653,2.716,58.937,15.983,75.751,39.883-30.098,18.236-44.986,43.779-44.69,76.545.271,25.522,9.53,46.762,27.727,63.626,8.247,7.826,17.457,13.876,27.703,18.172-2.222,6.445-4.567,12.617-7.061,18.543M340.22,64.002c0,20.005-7.309,38.683-21.876,55.971-17.58,20.553-38.843,32.429-61.901,30.555-.308-2.515-.463-5.046-.465-7.58,0-19.205,8.36-39.757,23.207-56.561,7.412-8.508,16.839-15.583,28.271-21.226,11.407-5.559,22.197-8.634,32.345-9.161.296,2.675.419,5.349.419,8.002"/>
</svg>