<?xml version="1.0" encoding="UTF-8"?>
<svg id="Layer_1" xmlns="http://www.w3.org/2000/svg" version="1.1" viewBox="0 0 500 500">
  <!-- Generator: Adobe Illustrator 29.1.0, SVG Export Plug-In . SVG Version: 2.1.0 Build 142)  -->
  <path d="M439,25H63.4c-20.4,0-38.4,14.8-38.4,35v376.5c0,20.4,18,38.5,38.4,38.5h375.5c20.7,0,36.1-18.3,36.1-38.5V60c.1-20.2-15.5-35-36-35M164.5,400h-64.4v-200.4h64.4v200.4ZM134.5,169.1h-.4c-20.7,0-34-15.3-34-34.6s13.8-34.6,34.9-34.6,34,14.9,34.5,34.6c-.1,19.3-13.5,34.6-34.9,34.6M400,400h-64.4v-109.5c0-26.3-9.4-44.2-32.8-44.2s-28.4,12.1-33,23.8c-1.8,4.2-2.3,10-2.3,15.9v114.2h-64.4v-200.5h64.4v27.8c9.4-13.4,24-32.6,58.1-32.6s74.2,27.8,74.2,88v117.1h.1Z"/>
</svg>