<svg xmlns="http://www.w3.org/2000/svg" width="512" height="512" viewBox="0 0 512 512">
    <path d="M312.1 95.55c10.4 8.5 32.2 26.3 32.2 60.2 0 33-19.1 48.6-38.1 63.3-6 5.8-12.8 12-12.8 21.9 0 9.9 6.8 15.2 11.8 19.2l16.4 12.5c20 16.5 38.2 31.7 38.2 62.5 0 41.9-41.4 84.3-119.5 84.3-65.9 0-97.7-30.7-97.7-63.8 0-16.1 8.2-38.8 35-54.4 28.1-16.9 66.4-19.2 86.8-20.5-6.4-8-13.6-16.5-13.6-30.3 0-7.6 2.3-12 4.5-17.4-5 .4-10 .9-14.5.9-48.2 0-75.5-35.2-75.5-70 0-20.5 9.6-43.3 29.1-59.8 25.9-21 56.7-24.6 81.3-24.6h93.6l-29 16.1h-28.2v-.1zm-32.2 198c-3.7-.4-6-.4-10.4-.4-4.1 0-28.6.9-47.7 7.2-10 3.6-39.1 14.2-39.1 46 0 31.7 31.3 54.4 80 54.4 43.6 0 66.8-20.5 66.8-48.2-.1-22.9-15.1-34.8-49.6-59m13.2-84.7c10.5-10.3 11.3-24.5 11.3-32.6 0-32.1-19.6-82.1-57.2-82.1-11.8 0-24.5 5.8-31.8 14.7-7.7 9.4-10 21.4-10 33 0 29.9 17.7 79.4 56.8 79.4 11.3.1 23.6-5.3 30.9-12.4"/>
</svg>
