<?xml version="1.0" encoding="UTF-8"?>
<svg width="512px" height="512px" viewBox="0 0 512 512" version="1.1" xmlns="http://www.w3.org/2000/svg" xmlns:xlink="http://www.w3.org/1999/xlink">
    <!-- Generator: Sketch 62 (91390) - https://sketch.com -->
    <title>social-google</title>
    <desc>Created with Sketch.</desc>
    <g id="social-google" stroke="none" stroke-width="1" fill="none" fill-rule="evenodd">
        <path d="M314.5,266.8 L298.4,254.7 L298.3,254.6 C293.1,250.5 289.5,247.3 289.5,241.6 C289.5,235.4 294,231.2 299.1,226.1 L299.5,225.7 C317.3,212.2 339.1,195.3 339.1,159.7 C339.1,135.9 328.6,120.1 318.5,108.6 L330.1,108.6 L383.5,79.5 L265.3,79.5 C242.9,79.5 209.9,82.4 181.6,104.8 L181.5,105 C162.2,121 150.7,144.4 150.7,167.5 C150.7,186.3 158.4,204.8 171.8,218.3 C190.8,237.4 214.6,241.4 231.1,241.4 C232.4,241.4 233.7,241.4 235.1,241.3 C234.5,243.9 234,246.9 234,250.5 C234,260.1 237.2,267.5 241.2,273.7 C220,275.4 189.7,279.4 166.1,293.5 C131.3,313.4 128.6,342.9 128.6,351.5 C128.6,385.4 160.2,419.5 230.8,419.5 C311.9,419.5 354.3,375.4 354.3,331.9 C354.3,299 334.1,282.6 314.5,266.8 Z M203.5,146.7 C203.5,134.9 206.2,125.9 211.7,119.4 C217.4,112.5 227.8,107.8 237.4,107.8 C255,107.8 266.6,121.1 273.2,132.3 C281.3,146.1 286.4,164.2 286.4,179.8 C286.4,184.2 286.4,197.5 277.4,206.2 C271.3,212.1 260.8,216.2 252.1,216.2 C233.9,216.2 222.5,203.2 216.1,192.3 C206.8,176.4 203.5,158.4 203.5,146.7 L203.5,146.7 Z M310.7,348.6 C310.7,372.9 288.4,388 252.5,388 C210,388 181.4,369.8 181.4,342.6 C181.4,319.5 200.4,310 214.9,305 C231.6,299.7 254.1,298.5 259.2,298.5 C262.6,298.5 264.6,298.5 266.8,298.7 C299.3,321 310.7,330.7 310.7,348.6 Z" id="Shape" fill="#000000" fill-rule="nonzero"></path>
    </g>
</svg>