<svg xmlns="http://www.w3.org/2000/svg" width="512" height="512" viewBox="0 0 512 512">
  <path d="M90.75,188.625c0-36.625,22.375-68.25,54.125-81.75h-6.875c-36.75,0-67,29.25-72.375,67.125-5.375.875-9.5,7-9.5,14.375,0,7.625,4.5,13.75,10.375,14.25,6.375,32.5,31.375,58.75,62.25,61.375h.125c1.25,0,2.5.5,3.75.75,1,.125,2,.375,3,.625-27-15.125-44.875-43.875-44.875-76.75M442.75,108.625c-1-2.625-2-5-3.125-7.375-5.75-12.875-12.875-23.25-20.875-30.875-10-9.375-21.5-14.375-33.375-14.375-7.375,0-14.625,2-21.5,5.75h-.125c-1.125.625-2.125,1.125-3.25,1.75-43.75,25.875-93,41.25-145.125,44.125-5.75.375-11.625.125-17.375.125h-37.75c-30.375,13.375-52.625,45.125-52.625,81.75,0,32.875,17.125,61.75,42.625,76.875,11.625,9.75,37.25,10.5,35.75,21.375-1.75,11.75-4.875,19.5-7,27.375-1.125,4.25-21.125,65.125-22.625,129.25,0,1.75,0,3.25.125,5.875s2,5.75,7.625,5.75h68.625c5.875,0,8.625-3,8.25-8.25-.125-1.75-.5-3.875-.75-5.75-2.125-20.625-4.125-44.5-3-72.875,1.125-30.375,4.625-46.375,6.25-54.75,1.875-9.25,6.75-20,10.75-27,27.5.75,83,17.25,102.75,25.75,0,0,6.375,3,9,4.625,6.25,3,12.625,4.5,19.25,4.5.75,0,1.625,0,2.375-.125,11-.625,21.625-8.625,31-17.375,8.125-7.625,15.125-18,20.875-30.875,1.125-2.5,2.125-5,3.125-7.625,8.625-22.375,13.25-49.875,13.25-78.625s-4.5-56.625-13.125-79M422.125,266.25c-7,16.5-16.25,29.75-26.375,29.75s-19.25-13.125-26.25-29.75c-8.125-19.25-13.25-47.375-13.25-78.625s5.125-59.625,13.375-78.875c7-16.375,16.125-26.375,26.125-26.375,10.125,0,19.25,10,26.25,26.375,8.25,19.25,13.375,47.5,13.375,78.875s-5.125,59.375-13.25,78.625"/>
</svg>