<svg xmlns="http://www.w3.org/2000/svg" width="512" height="512" viewBox="0 0 512 512">
    <path d="M123.8 195.6c0-29.3 17.9-54.6 43.3-65.4h-5.5c-29.4 0-53.6 23.4-57.9 53.7-4.3.7-7.6 5.6-7.6 11.5 0 6.1 3.6 11 8.3 11.4 5.1 26 25.1 47 49.8 49.1h.1c1 0 2 .4 3 .6.8.1 1.6.3 2.4.5-21.6-12.1-35.9-35.1-35.9-61.4"/>
    <path d="M405.4 131.6c-.8-2.1-1.6-4-2.5-5.9-4.6-10.3-10.3-18.6-16.7-24.7-8-7.5-17.2-11.5-26.7-11.5-5.9 0-11.7 1.6-17.2 4.6h-.1c-.9.5-1.7.9-2.6 1.4-35 20.7-74.4 33-116.1 35.3-4.6.3-9.3.1-13.9.1h-30.2c-24.3 10.7-42.1 36.1-42.1 65.4 0 26.3 13.7 49.4 34.1 61.5 9.3 7.8 29.8 8.4 28.6 17.1-1.4 9.4-3.9 15.6-5.6 21.9-.9 3.4-16.9 52.1-18.1 103.4 0 1.4 0 2.6.1 4.7s1.6 4.6 6.1 4.6h54.9c4.7 0 6.9-2.4 6.6-6.6-.1-1.4-.4-3.1-.6-4.6-1.7-16.5-3.3-35.6-2.4-58.3.9-24.3 3.7-37.1 5-43.8 1.5-7.4 5.4-16 8.6-21.6 22 .6 66.4 13.8 82.2 20.6 0 0 5.1 2.4 7.2 3.7 5 2.4 10.1 3.6 15.4 3.6.6 0 1.3 0 1.9-.1 8.8-.5 17.3-6.9 24.8-13.9 6.5-6.1 12.1-14.4 16.7-24.7.9-2 1.7-4 2.5-6.1 6.9-17.9 10.6-39.9 10.6-62.9s-3.6-45.3-10.5-63.2m-16.5 126.1c-5.6 13.2-13 23.8-21.1 23.8s-15.4-10.5-21-23.8c-6.5-15.4-10.6-37.9-10.6-62.9 0-25.1 4.1-47.7 10.7-63.1 5.6-13.1 12.9-21.1 20.9-21.1 8.1 0 15.4 8 21 21.1 6.6 15.4 10.7 38 10.7 63.1 0 25-4.1 47.5-10.6 62.9"/>
</svg>
