<?xml version="1.0" encoding="UTF-8"?>
<svg id="Layer_1" xmlns="http://www.w3.org/2000/svg" version="1.1" viewBox="0 0 500 500">
  <!-- Generator: Adobe Illustrator 29.1.0, SVG Export Plug-In . SVG Version: 2.1.0 Build 142)  -->
  <path d="M64.1,174.2c0-41.2,25.2-76.8,60.9-92h-7.7c-41.3,0-75.4,32.9-81.4,75.5-6,1-10.7,7.9-10.7,16.2s5.1,15.5,11.7,16c7.2,36.6,35.3,66.1,70,69h.1c1.4,0,2.8.6,4.2.8,1.1.1,2.3.4,3.4.7-30.4-17-50.5-49.4-50.5-86.3M460.1,84.2c-1.1-3-2.3-5.6-3.5-8.3-6.5-14.5-14.5-26.2-23.5-34.7-11.2-10.5-24.2-16.2-37.5-16.2s-16.5,2.2-24.2,6.5h-.1c-1.3.7-2.4,1.3-3.7,2-49.2,29.1-104.6,46.4-163.3,49.6-6.5.4-13.1.1-19.5.1h-42.5c-34.2,15-59.2,50.8-59.2,92s19.3,69.5,48,86.5c13.1,11,41.9,11.8,40.2,24-2,13.2-5.5,21.9-7.9,30.8-1.3,4.8-23.8,73.3-25.5,145.4,0,2,0,3.7.1,6.6s2.3,6.5,8.6,6.5h77.2c6.6,0,9.7-3.4,9.3-9.3-.1-2-.6-4.4-.8-6.5-2.4-23.2-4.6-50.1-3.4-82,1.3-34.2,5.2-52.2,7-61.6,2.1-10.4,7.6-22.5,12.1-30.4,30.9.8,93.4,19.4,115.6,29,0,0,7.2,3.4,10.1,5.2,7,3.4,14.2,5.1,21.7,5.1s1.8,0,2.7-.1c12.4-.7,24.3-9.7,34.9-19.5,9.1-8.6,17-20.2,23.5-34.7,1.3-2.8,2.4-5.6,3.5-8.6,9.7-25.2,14.9-56.1,14.9-88.5s-5.1-63.7-14.8-88.9M436.9,261.5c-7.9,18.6-18.3,33.5-29.7,33.5s-21.7-14.8-29.5-33.5c-9.1-21.7-14.9-53.3-14.9-88.5s5.8-67.1,15-88.7c7.9-18.4,18.1-29.7,29.4-29.7s21.7,11.2,29.5,29.7c9.3,21.7,15,53.4,15,88.7s-5.8,66.8-14.9,88.5"/>
</svg>