<?xml version="1.0" encoding="UTF-8"?>
<svg width="512px" height="512px" viewBox="0 0 512 512" version="1.1" xmlns="http://www.w3.org/2000/svg" xmlns:xlink="http://www.w3.org/1999/xlink">
    <!-- Generator: Sketch 62 (91390) - https://sketch.com -->
    <title>speakerphone</title>
    <desc>Created with Sketch.</desc>
    <g id="speakerphone" stroke="none" stroke-width="1" fill="none" fill-rule="evenodd">
        <path d="M123.8,146.8 C123.8,117.5 141.7,92.2 167.1,81.4 L161.6,81.4 C132.2,81.4 108,104.8 103.7,135.1 C99.4,135.8 96.1,140.7 96.1,146.6 C96.1,152.7 99.7,157.6 104.4,158 C109.5,184 129.5,205 154.2,207.1 L154.3,207.1 C155.3,207.1 156.3,207.5 157.3,207.7 C158.1,207.8 158.9,208 159.7,208.2 C138.1,196.1 123.8,173.1 123.8,146.8 L123.8,146.8 Z" id="Path" fill="#000000" fill-rule="nonzero"></path>
        <path d="M405.4,131.6 C404.6,129.5 403.8,127.6 402.9,125.7 C398.3,115.4 392.6,107.1 386.2,101 C378.2,93.5 369,89.5 359.5,89.5 C353.6,89.5 347.8,91.1 342.3,94.1 L342.2,94.1 C341.3,94.6 340.5,95 339.6,95.5 C304.6,116.2 265.2,128.5 223.5,130.8 C218.9,131.1 214.2,130.9 209.6,130.9 L179.4,130.9 C155.1,141.6 137.3,167 137.3,196.3 C137.3,222.6 151,245.7 171.4,257.8 C180.7,265.6 201.2,266.2 200,274.9 C198.6,284.3 196.1,290.5 194.4,296.8 C193.5,300.2 177.5,348.9 176.3,400.2 C176.3,401.6 176.3,402.8 176.4,404.9 C176.5,407 178,409.5 182.5,409.5 L237.4,409.5 C242.1,409.5 244.3,407.1 244,402.9 C243.9,401.5 243.6,399.8 243.4,398.3 C241.7,381.8 240.1,362.7 241,340 C241.9,315.7 244.7,302.9 246,296.2 C247.5,288.8 251.4,280.2 254.6,274.6 C276.6,275.2 321,288.4 336.8,295.2 C336.8,295.2 341.9,297.6 344,298.9 C349,301.3 354.1,302.5 359.4,302.5 C360,302.5 360.7,302.5 361.3,302.4 C370.1,301.9 378.6,295.5 386.1,288.5 C392.6,282.4 398.2,274.1 402.8,263.8 C403.7,261.8 404.5,259.8 405.3,257.7 C412.2,239.8 415.9,217.8 415.9,194.8 C415.9,171.8 412.3,149.5 405.4,131.6 L405.4,131.6 Z M388.9,257.7 C383.3,270.9 375.9,281.5 367.8,281.5 C359.7,281.5 352.4,271 346.8,257.7 C340.3,242.3 336.2,219.8 336.2,194.8 C336.2,169.7 340.3,147.1 346.9,131.7 C352.5,118.6 359.8,110.6 367.8,110.6 C375.9,110.6 383.2,118.6 388.8,131.7 C395.4,147.1 399.5,169.7 399.5,194.8 C399.5,219.8 395.4,242.3 388.9,257.7 L388.9,257.7 Z" id="Shape" fill="#000000" fill-rule="nonzero"></path>
    </g>
</svg>