<svg xmlns="http://www.w3.org/2000/svg" width="512" height="512" viewBox="0 0 512 512">
  <path d="M340.604,376l-84.604-51.004-84.604,51.004,22.4-96.196-74.604-64.604,98.4-8.4,38.4-90.8,38.4,90.604,98.4,8.4-74.604,64.604,22.4,96.4.018-.009ZM256,56c-110.596,0-200,90-200,200,0,53.04,21.076,103.911,58.578,141.422,18.572,18.573,40.621,33.304,64.889,43.351,24.264,10.051,50.27,15.225,76.533,15.227,53.04,0,103.911-21.076,141.422-58.578,37.511-37.511,58.578-88.382,58.578-141.422,0-26.267-5.173-52.276-15.218-76.533-20.301-49.004-59.236-87.939-108.24-108.24-24.264-10.051-50.27-15.225-76.533-15.227h-.009Z"/>
</svg>