<?xml version="1.0" encoding="UTF-8"?>
<svg width="512px" height="512px" viewBox="0 0 512 512" version="1.1" xmlns="http://www.w3.org/2000/svg" xmlns:xlink="http://www.w3.org/1999/xlink">
    <!-- Generator: Sketch 62 (91390) - https://sketch.com -->
    <title>star-outline</title>
    <desc>Created with Sketch.</desc>
    <g id="star-outline" stroke="none" stroke-width="1" fill="none" fill-rule="evenodd">
        <path d="M256,115.3 L285.1,208.6 L288,218.2 L394.9,218.2 L316,277.4 L308.2,283.1 L311.1,292.3 L341.9,390.9 L264.3,328.8 L255.7,321.9 L247.1,328.8 L169.5,390.9 L200.3,292.3 L203.2,283.1 L195.4,277.4 L116.5,218.2 L223.4,218.2 L226.3,208.6 L256,115.3 M256,69.5 L213.8,204.5 L76,204.5 L187.6,288.2 L143.5,429.5 L256,339.5 L368.5,429.5 L324.4,288.2 L436,204.5 L298.2,204.5 L256,69.5 Z" id="Shape" fill="#000000" fill-rule="nonzero"></path>
    </g>
</svg>