<svg xmlns="http://www.w3.org/2000/svg" width="500" height="500" viewBox="0 0 500 500">
    <path d="M345.18 385 250 327.62 154.82 385l25.2-108.22-83.93-72.68 110.7-9.45 43.2-102.15 43.2 101.93 110.7 9.45-83.93 72.68 25.2 108.45ZM250 25C125.58 25 25 126.25 25 250c0 59.67 23.71 116.9 65.9 159.1a224.9 224.9 0 0 0 73 48.77A225 225 0 0 0 250 475c59.67 0 116.9-23.71 159.1-65.9C451.3 366.9 475 309.67 475 250c0-29.55-5.82-58.81-17.12-86.1A225.03 225.03 0 0 0 336.11 42.13 225 225 0 0 0 250.01 25Z"/>
</svg>
