<svg xmlns="http://www.w3.org/2000/svg" width="500" height="500" viewBox="0 0 500 500">
    <path d="M250 25c-29.55 0-58.81 5.82-86.1 17.13a225.2 225.2 0 0 0-73 48.77C48.71 133.1 25 190.33 25 250s23.71 116.9 65.9 159.1a224.9 224.9 0 0 0 73 48.77A225 225 0 0 0 250 475c59.67 0 116.9-23.71 159.1-65.9C451.3 366.9 475 309.67 475 250c0-29.55-5.82-58.81-17.12-86.1A225.03 225.03 0 0 0 336.11 42.13 225 225 0 0 0 250.01 25Zm0 45c47.74 0 93.52 18.96 127.28 52.72S430 202.26 430 250s-18.96 93.52-52.72 127.28S297.74 430 250 430s-93.52-18.96-127.28-52.72S70 297.74 70 250s18.96-93.52 52.72-127.28A180 180 0 0 1 250 70m0 45a135 135 0 0 0-135 135 135 135 0 0 0 135 135 135 135 0 0 0 135-135 135 135 0 0 0-135-135m0 45a89.995 89.995 0 0 1 90 90 89.995 89.995 0 0 1-90 90 89.995 89.995 0 0 1-90-90 89.995 89.995 0 0 1 90-90"/>
</svg>
