<svg xmlns="http://www.w3.org/2000/svg" width="512" height="512" viewBox="0 0 512 512">
  <path d="M256,56c-26.267,0-52.276,5.173-76.533,15.227-24.264,10.054-46.313,24.784-64.889,43.351-37.502,37.511-58.578,88.382-58.578,141.422s21.076,103.911,58.578,141.422c18.572,18.573,40.621,33.304,64.889,43.351,24.264,10.051,50.27,15.225,76.533,15.227,53.04,0,103.911-21.076,141.422-58.578,37.511-37.511,58.578-88.382,58.578-141.422,0-26.267-5.173-52.276-15.218-76.533-20.301-49.004-59.236-87.939-108.24-108.24-24.264-10.051-50.27-15.225-76.533-15.227h-.009ZM256,96c42.436,0,83.129,16.853,113.138,46.862,30.009,30.009,46.862,70.702,46.862,113.138s-16.853,83.129-46.862,113.138c-30.009,30.009-70.702,46.862-113.138,46.862s-83.129-16.853-113.138-46.862c-30.009-30.009-46.862-70.702-46.862-113.138s16.853-83.129,46.862-113.138c30.006-30.006,70.703-46.863,113.138-46.862M256,136c-66.274,0-120,53.726-120,120s53.726,120,120,120,120-53.726,120-120-53.726-120-120-120M256,176c44.18-.002,79.998,35.811,80,79.991v.009c.002,44.18-35.811,79.998-79.991,80h-.009c-44.18.002-79.998-35.811-80-79.991v-.009c-.002-44.18,35.811-79.998,79.991-80h.009"/>
</svg>