<svg xmlns="http://www.w3.org/2000/svg" width="500" height="500" viewBox="0 0 500 500">
    <path d="M273.11 25v45c99.47 12.15 169.94 101.93 157.7 200.7-10.42 81.9-75.23 146.48-157.7 156.6v45c124.62-13.5 214.12-124.65 200.53-248.18C461.86 119.27 378.7 36.25 273.11 25m-45.32 0c-44.41 4.05-86.33 21.37-120.77 49.5l32.4 34.65c25.38-20.25 55.97-33.3 88.37-37.8zM75.08 107.58C46.53 141.78 29.31 183.41 25 227.5h45.32c4.31-31.95 16.99-62.32 37.16-87.75zM25.23 272.5c4.53 44.1 21.98 85.73 50.08 119.93l32.17-32.18c-19.94-25.42-32.85-55.8-36.93-87.75zm113.29 120.83-31.49 30.83c34.21 28.35 76.36 46.12 120.77 50.85v-45c-32.17-4.05-62.76-16.87-88.37-36.67h-.91ZM250 115c74.56 0 135 60.44 135 135s-60.44 135-135 135-135-60.44-135-135 60.44-135 135-135"/>
</svg>
