<svg xmlns="http://www.w3.org/2000/svg" width="512" height="512" viewBox="0 0 512 512">
  <path d="M276.54,55.997v40c88.417,10.8,151.057,90.604,140.177,178.399-9.262,72.799-66.871,130.203-140.177,139.199v40c110.772-12,190.327-110.799,178.247-220.603-10.471-93.199-84.39-166.994-178.247-176.994M236.256,55.997c-39.475,3.6-76.737,18.995-107.35,44l28.8,30.8c22.56-18,49.751-29.6,78.55-33.6v-41.2ZM100.515,129.401c-25.378,30.4-40.684,67.404-44.515,106.595h40.284c3.831-28.4,15.102-55.395,33.031-77.999l-28.8-28.595ZM56.204,275.995c4.027,39.2,19.538,76.204,44.515,106.604l28.595-28.604c-17.724-22.595-29.2-49.6-32.826-77.999h-40.284ZM156.906,383.399l-27.991,27.404c30.409,25.2,67.875,40.995,107.35,45.2v-40c-28.595-3.6-55.786-14.995-78.55-32.595h-.809v-.009ZM255.998,135.997c66.275,0,119.999,53.724,119.999,119.999s-53.724,119.999-119.999,119.999-119.999-53.724-119.999-119.999,53.724-119.999,119.999-119.999"/>
</svg>