<svg xmlns="http://www.w3.org/2000/svg" width="512" height="512" viewBox="0 0 512 512">
  <path d="M325.793,175.381c5.987,11.175,9.379,24.046,9.379,37.516,0,43.801-35.52,79.322-79.322,79.322-18.159,0-34.722-6.086-47.992-16.263l117.935-100.574ZM255.95,133.575c-43.801,0-79.322,35.52-79.322,79.322,0,14.268,3.791,27.638,10.377,39.212l118.434-101.073c-14.018-11.302-31.482-17.464-49.489-17.461M323.398,425.718c-11.175-7.782-25.543-13.669-25.842-20.155-.399-3.193-1.497-40.11-1.497-40.11h-80.02s-1.397,36.817-1.497,40.11c-.499,6.386-14.667,12.372-25.842,20.155-11.175,7.783.798,10.676,25.842,11.175h83.013c24.844-.499,36.817-3.492,25.842-11.175M456,84.985v252.133c0,5.388-4.689,9.878-10.077,9.878H66.077c-5.488,0-10.077-4.39-10.077-9.878V84.985c0-5.388,4.689-9.878,10.077-9.878h379.546c5.488,0,10.077,4.49,10.377,9.878M359.018,212.897c0-56.972-46.096-103.068-103.068-103.068s-103.068,46.096-103.068,103.068,46.096,103.068,103.068,103.068,103.068-46.096,103.068-103.068"/>
</svg>