<?xml version="1.0" encoding="UTF-8"?>
<svg width="512px" height="512px" viewBox="0 0 512 512" version="1.1" xmlns="http://www.w3.org/2000/svg" xmlns:xlink="http://www.w3.org/1999/xlink">
    <!-- Generator: Sketch 62 (91390) - https://sketch.com -->
    <title>stop-screen-share</title>
    <desc>Created with Sketch.</desc>
    <g id="stop-screen-share" stroke="none" stroke-width="1" fill="none" fill-rule="evenodd">
        <path d="M327.8,168.7 C333.8,179.9 337.2,192.8 337.2,206.3 C337.2,250.2 301.6,285.8 257.7,285.8 C239.5,285.8 222.9,279.7 209.6,269.5 L327.8,168.7 L327.8,168.7 Z M257.8,126.799999 C213.9,126.799999 178.3,162.4 178.3,206.299999 C178.3,220.6 182.1,234 188.7,245.6 L307.4,144.299999 C293.350296,132.973554 275.846677,126.797882 257.8,126.799999 L257.8,126.799999 Z M325.4,419.6 C314.2,411.8 299.8,405.9 299.5,399.4 C299.1,396.2 298,359.2 298,359.2 L217.8,359.2 C217.8,359.2 216.4,396.1 216.3,399.4 C215.8,405.8 201.6,411.8 190.4,419.6 C179.2,427.4 191.2,430.3 216.3,430.8 L299.5,430.8 C324.4,430.3 336.4,427.3 325.4,419.6 Z M458.3,78.1 L458.3,330.8 C458.3,336.2 453.6,340.7 448.2,340.7 L67.5,340.7 C62,340.7 57.4,336.3 57.4,330.8 L57.4,78.1 C57.4,72.7 62.1,68.2 67.5,68.2 L447.9,68.2 C453.4,68.2 458,72.7 458.3,78.1 Z M361.1,206.3 C361.1,149.2 314.9,103 257.8,103 C200.7,103 154.5,149.2 154.5,206.3 C154.5,263.4 200.7,309.6 257.8,309.6 C314.9,309.6 361.1,263.4 361.1,206.3 Z" id="Shape" fill="#000000" fill-rule="nonzero"></path>
    </g>
</svg>