<?xml version="1.0" encoding="UTF-8"?>
<svg id="Layer_1" xmlns="http://www.w3.org/2000/svg" version="1.1" viewBox="0 0 500 500">
  <!-- Generator: Adobe Illustrator 29.1.0, SVG Export Plug-In . SVG Version: 2.1.0 Build 142)  -->
  <path d="M328.5,159.3c6.7,12.6,10.6,27.1,10.6,42.2,0,49.3-40,89.2-89.2,89.2s-39.1-6.8-54-18.3l132.7-113.1ZM249.9,112.3c-49.3,0-89.2,40-89.2,89.2s4.3,31.1,11.7,44.1l133.2-113.7c-15.8-12.7-35.4-19.6-55.7-19.6M325.8,440.9c-12.6-8.8-28.7-15.4-29.1-22.7-.4-3.6-1.7-45.1-1.7-45.1h-90s-1.6,41.4-1.7,45.1c-.6,7.2-16.5,13.9-29.1,22.7-12.6,8.8.9,12,29.1,12.6h93.4c27.9-.6,41.4-3.9,29.1-12.6M475,57.6v283.6c0,6.1-5.3,11.1-11.3,11.1H36.3c-6.2,0-11.3-4.9-11.3-11.1V57.6c0-6.1,5.3-11.1,11.3-11.1h427c6.2,0,11.3,5.1,11.7,11.1M365.9,201.5c0-64.1-51.9-116-116-116s-116,51.9-116,116,51.9,116,116,116,116-51.9,116-116"/>
</svg>