<svg xmlns="http://www.w3.org/2000/svg" width="500" height="500" viewBox="0 0 500 500">
    <path d="M373.75 149.13c-27 0-52.5 10.5-70.69 28.69l-131.81 117c-12 12-27.94 18.56-45 18.56-35.06 0-63.75-28.31-63.75-63.37s28.69-63.38 63.75-63.38c17.06 0 33 6.56 45.75 19.31l21.19 18.75 28.69-25.13-24-20.81c-19.13-19.13-44.62-29.62-71.62-29.62-55.87 0-101.25 45.37-101.25 100.88s45.38 100.87 101.25 100.87c27 0 52.5-10.5 70.69-28.69l131.81-117c12-12 27.94-18.56 45-18.56 35.06 0 63.75 28.31 63.75 63.38s-28.69 63.37-63.75 63.37c-16.88 0-33-6.56-45.75-19.31l-21.75-18.94-28.12 25.13 24 21c19.13 18.94 44.44 29.44 71.62 29.44 55.87 0 101.25-45.19 101.25-100.69s-45.38-100.88-101.25-100.88Z"/>
</svg>
