<?xml version="1.0" encoding="UTF-8"?>
<svg id="Layer_1" xmlns="http://www.w3.org/2000/svg" version="1.1" viewBox="0 0 500 500">
  <!-- Generator: Adobe Illustrator 29.1.0, SVG Export Plug-In . SVG Version: 2.1.0 Build 142)  -->
  <path d="M148.8,99.1v43.4h-28.9v288h259.1V142.5h-27.8v-43.4h8.9c8.9,0,18.9,0,27.8,1.1,20.1,3.4,34.5,21.1,34.5,42.3v185.7c1.1,35.6,1.1,70,1.1,104.5s-18.9,42.3-42.3,42.3H121c-22.2,0-38.9-13.3-43.4-35.6-1-5-1.1-10.1-1.1-16V143.6c0-22.2,15.6-41.1,37.8-44.5,11.2-1.1,22.2,0,34.5,0M233.4,292.8l-13.3,13.3c-1.1,1.1-3.4,1.1-4.4,1.1h-37.8v57.8h57.8c-4.4-12.3,6.6-16.7,13.3-24.5v38.9h-85.6v-86.6h70.1ZM257.8,280.1c6.6,5.5,11.1,11.1,14.4,15.6l-60.1,60.1-30-30,15.6-15.6c4.4,5.6,10,10.1,14.4,15.6l45.6-45.6ZM335.6,334.6v13.3h-56.7v-13.3h56.7ZM248.9,178.2v85.6h-85.6v-85.6h85.6ZM235.6,192.6h-56.7v56.7h56.7v-56.7ZM335.6,217.9v14.4h-56.7v-14.4h56.7ZM206.6,49.1c21.1-32.2,65.6-32.2,85.6,0,6.6,11.2,14.4,18.9,26.7,21.1,4.4,1.1,10,3.4,14.4,4.4,2.3,1.1,3.4,2.2,2.3,4.4v56.7c0,7.8-4.4,12.3-12.3,12.3h-146.8c-8.9,0-13.3-4.4-13.3-13.3v-55.6c0-2.2,1.1-3.4,3.4-4.4,8.9-3.4,17.8-5.5,26.7-8.9,2.2-1.1,4.4-2.2,5.5-4.4,3.4-4.4,5.5-7.8,7.8-12.3M250,51.3c-13.3,0-24.5,11.2-24.5,24.5s10.1,24.5,24.5,24.5,23.3-11.2,23.3-24.5-10-24.5-23.3-24.5"/>
</svg>