<svg xmlns="http://www.w3.org/2000/svg" width="512" height="512" viewBox="0 0 512 512">
  <path d="M166.088,121.889v38.548h-25.73v255.956h230.321v-255.956h-24.67v-38.548h7.902c7.902,0,16.768,0,24.67.964,17.828,2.987,30.645,18.792,30.645,37.584v165.08c.964,31.609.964,62.254.964,92.9,0,20.719-16.768,37.584-37.584,37.584h-231.285c-19.756,0-34.596-11.853-38.548-31.609-.877-4.468-.956-9.015-.964-14.222v-248.768c0-19.756,13.877-36.524,33.633-39.511,9.926-.964,19.756,0,30.645,0M241.256,294.007l-11.853,11.853c-.964.964-2.987.964-3.951.964h-33.633v51.365h51.365c-3.951-10.89,5.879-14.841,11.853-21.779v34.596h-76.131v-76.999h62.351ZM262.939,282.756c5.879,4.915,9.83,9.83,12.817,13.877l-53.388,53.388-26.694-26.694,13.877-13.877c3.951,5.011,8.866,8.962,12.817,13.877l40.571-40.571ZM332.131,331.229v11.853h-50.401v-11.853h50.401ZM255.036,192.145v76.131h-76.131v-76.131h76.131ZM243.183,204.962h-50.401v50.401h50.401v-50.401ZM332.131,227.44v12.817h-50.401v-12.817h50.401ZM217.452,77.466c18.792-28.622,58.303-28.622,76.131,0,5.879,9.926,12.817,16.768,23.707,18.792,3.951.964,8.866,2.987,12.817,3.951,2.024.964,2.987,1.927,2.024,3.951v50.401c0,6.939-3.951,10.89-10.89,10.89h-130.483c-7.902,0-11.853-3.951-11.853-11.853v-49.437c0-1.927.964-2.987,2.987-3.951,7.902-2.987,15.804-4.915,23.707-7.902,1.927-.964,3.951-1.927,4.915-3.951,2.987-3.951,4.915-6.939,6.939-10.89M256,79.394c-11.853,0-21.779,9.926-21.779,21.779,0,12.913,8.962,21.779,21.779,21.779,11.853,0,20.719-9.926,20.719-21.779s-8.866-21.779-20.719-21.779"/>
</svg>