<svg xmlns="http://www.w3.org/2000/svg" width="512" height="512" viewBox="0 0 512 512">
    <path d="M162.7 116.836v40H136v265.6h239v-265.6h-25.6v-40h8.2c8.2 0 17.4 0 25.6 1 18.5 3.1 31.8 19.5 31.8 39v171.3c1 32.8 1 64.6 1 96.4 0 21.5-17.4 39-39 39H137c-20.5 0-35.9-12.3-40-32.8-.91-4.636-.992-9.355-1-14.758V157.836c0-20.5 14.4-37.9 34.9-41 10.3-1 20.5 0 31.8 0m78 178.603-12.3 12.3c-1 1-3.1 1-4.1 1h-34.9v53.3h53.3c-4.1-11.3 6.1-15.4 12.3-22.6v35.9h-79v-79.9zm22.5-11.675c6.1 5.1 10.2 10.2 13.3 14.4l-55.4 55.4-27.7-27.7 14.4-14.4c4.1 5.2 9.2 9.3 13.3 14.4zm71.8 50.3v12.3h-52.3v-12.3zm-80-144.325v79h-79v-79zm-12.3 13.3h-52.3v52.3h52.3zm92.3 23.325v13.3h-52.3v-13.3zM216 70.739c19.5-29.7 60.5-29.7 79 0 6.1 10.3 13.3 17.4 24.6 19.5 4.1 1 9.2 3.1 13.3 4.1 2.1 1 3.1 2 2.1 4.1v52.3c0 7.2-4.1 11.3-11.3 11.3H188.3c-8.2 0-12.3-4.1-12.3-12.3v-51.3c0-2 1-3.1 3.1-4.1 8.2-3.1 16.4-5.1 24.6-8.2 2-1 4.1-2 5.1-4.1 3.1-4.1 5.1-7.2 7.2-11.3m40 2c-12.3 0-22.6 10.3-22.6 22.6 0 13.4 9.3 22.6 22.6 22.6 12.3 0 21.5-10.3 21.5-22.6s-9.2-22.6-21.5-22.6"/>
</svg>
