<svg xmlns="http://www.w3.org/2000/svg" width="512" height="512" viewBox="0 0 512 512">
    <path d="M416 357.3c0 21.5-17.4 39-39 39H137c-20.5 0-35.9-12.3-40-32.8-1-5.1-1-10.3-1-16.4V90.6c0-20.5 14.4-37.9 34.9-41 10.3-1 20.5 0 31.8 0v40H136v265.6h239V89.6h-25.6v-40h8.2c8.2 0 17.4 0 25.6 1 18.5 3.1 31.8 19.5 31.8 39v171.3c1 32.8 1 64.6 1 96.4z"/>
    <path d="M332.9 49.6c-4.1-1-9.2-3.1-13.3-4.1-11.3-2.1-18.5-9.2-24.6-19.5-18.5-29.7-59.5-29.7-79 0-2.1 4.1-4.1 7.2-7.2 11.3-1 2.1-3.1 3.1-5.1 4.1-8.2 3.1-16.4 5.1-24.6 8.2-2.1 1-3.1 2.1-3.1 4.1V105c0 8.2 4.1 12.3 12.3 12.3h135.4c7.2 0 11.3-4.1 11.3-11.3V53.7c1-2.1 0-3.1-2.1-4.1zM256 73.2c-13.3 0-22.6-9.2-22.6-22.6 0-12.3 10.3-22.6 22.6-22.6s21.5 10.3 21.5 22.6-9.2 22.6-21.5 22.6zM176 145v79h79v-79h-79zm66.7 65.6h-52.3v-52.3h52.3v52.3zm-66.7 120h79v-35.9c-6.2 7.2-16.4 11.3-12.3 22.6h-53.3V264h34.9c1 0 3.1 0 4.1-1l12.3-12.3H176v79.9z"/>
    <path d="M263.2 241.4l-42.1 42.1c-4.1-5.1-9.2-9.2-13.3-14.4l-14.4 14.4 27.7 27.7 55.4-55.4c-3.1-4.2-7.2-9.3-13.3-14.4zm19.5-57.4v13.3H335V184h-52.3zm0 120H335v-12.3h-52.3V304z"/>
</svg>
