<svg xmlns="http://www.w3.org/2000/svg" width="512" height="512" viewBox="0 0 512 512">
    <path d="M256 384a128.003 128.003 0 0 1-90.51-37.49A128.003 128.003 0 0 1 128 256c0-21.333 5.333-42.027 14.933-59.733l-31.146-31.147c-16.64 26.24-26.454 57.387-26.454 90.88A170.669 170.669 0 0 0 256 426.667v64l85.333-85.334L256 320m0-234.667v-64l-85.333 85.334L256 192v-64a128.003 128.003 0 0 1 90.51 37.49A128.003 128.003 0 0 1 384 256c0 21.333-5.333 42.027-14.933 59.733l31.146 31.147c16.64-26.24 26.454-57.387 26.454-90.88A170.67 170.67 0 0 0 256 85.333"/>
</svg>
