<svg xmlns="http://www.w3.org/2000/svg" width="512" height="512" viewBox="0 0 512 512">
  <path d="M256,365.091c-28.933,0-56.681-11.493-77.139-31.952-20.458-20.459-31.952-48.206-31.952-77.139,0-18.182,4.545-35.818,12.727-50.909l-26.545-26.546c-14.182,22.364-22.546,48.909-22.546,77.454.001,80.332,65.123,145.453,145.455,145.455v54.545l72.727-72.728-72.727-72.727M256,110.545v-54.545l-72.727,72.728,72.727,72.727v-54.545c28.933,0,56.681,11.493,77.139,31.952,20.458,20.459,31.952,48.206,31.952,77.139,0,18.182-4.545,35.818-12.727,50.909l26.545,26.546c14.182-22.364,22.546-48.909,22.546-77.454-.001-80.332-65.123-145.453-145.455-145.455"/>
</svg>