<?xml version="1.0" encoding="UTF-8"?>
<svg id="Layer_1" xmlns="http://www.w3.org/2000/svg" version="1.1" viewBox="0 0 500 500">
  <!-- Generator: Adobe Illustrator 29.1.0, SVG Export Plug-In . SVG Version: 2.1.0 Build 142)  -->
  <path d="M250,372.7c-32.5,0-63.8-12.9-86.8-35.9-23-23-35.9-54.2-35.9-86.8,0-20.5,5.1-40.3,14.3-57.3l-29.9-29.9c-16,25.2-25.4,55-25.4,87.1,0,90.4,73.3,163.6,163.6,163.6v61.4l81.8-81.8-81.8-81.8M250,86.4V25l-81.8,81.8,81.8,81.8v-61.4c32.5,0,63.8,12.9,86.8,35.9,23,23,35.9,54.2,35.9,86.8,0,20.5-5.1,40.3-14.3,57.3l29.9,29.9c16-25.2,25.4-55,25.4-87.1,0-90.4-73.3-163.6-163.6-163.6"/>
</svg>