<svg id="content" xmlns="http://www.w3.org/2000/svg" version="1.1" width="512" height="512" viewBox="0 0 512 512">
  <path d="M67.8,247.6L247.8,67.6c7.5-7.4,17.6-11.6,28.2-11.6h140c10.6,0,20.8,4.2,28.3,11.7,7.5,7.5,11.7,17.7,11.7,28.3v140c0,5.3-1,10.5-3.1,15.4-2,4.9-5,9.3-8.7,13l-180,180c-7.5,7.4-17.6,11.6-28.2,11.6s-20.7-4.3-28.2-11.8l-140-140c-7.5-7.5-11.8-17.6-11.8-28.2s1-10.5,3.1-15.4c2-4.9,5-9.3,8.7-13h0ZM236,416l180-180V96h-140l-180,180M366,116c-5.9,0-11.7,1.8-16.7,5.1-4.9,3.3-8.8,8-11.1,13.5-2.3,5.5-2.9,11.5-1.7,17.3,1.2,5.8,4,11.2,8.2,15.4s9.5,7.1,15.4,8.2c5.8,1.2,11.9.6,17.3-1.7,5.5-2.3,10.2-6.1,13.5-11s5.1-10.7,5.1-16.7-3.2-15.6-8.8-21.2c-5.6-5.6-13.3-8.8-21.2-8.8h0Z"/>
</svg>