<svg xmlns="http://www.w3.org/2000/svg" width="512" height="512" viewBox="0 0 512 512">
    <path d="m365.1 258.4-30.2-30.2-105.7 105.7-60.4-60.4-30.2 30.2 90.6 90.6 136-136ZM420.5 68h-98.2c-9.9-27.3-35.7-47-66.3-47s-56.4 19.7-66.3 47H91.5C79 68 67.1 73 58.3 81.8S44.5 102.6 44.5 115v329c0 12.5 5 24.4 13.8 33.2S79.1 491 91.5 491h329c12.5 0 24.4-5 33.2-13.8s13.8-20.8 13.8-33.2V115c0-12.5-5-24.4-13.8-33.2S432.9 68 420.5 68M256 68c6.2 0 12.2 2.5 16.6 6.9s6.9 10.4 6.9 16.6-2.5 12.2-6.9 16.6-10.4 6.9-16.6 6.9-12.2-2.5-16.6-6.9-6.9-10.4-6.9-16.6 2.5-12.2 6.9-16.6S249.8 68 256 68m-117.5 94h235v-47h47v329h-329V115h47z"/>
</svg>
