<svg xmlns="http://www.w3.org/2000/svg" width="500" height="500" viewBox="0 0 500 500">
    <path d="m329.55 208.4 28.93 28.93L228.31 367.5l-86.78-86.78 28.93-28.93 57.85 57.85zM452.5 115v315c0 11.94-4.74 23.38-13.18 31.82A45 45 0 0 1 407.5 475h-315c-11.93 0-23.38-4.74-31.82-13.18S47.5 441.94 47.5 430V115c0-11.93 4.74-23.38 13.18-31.82S80.57 70 92.5 70h94.05C196 43.9 220.75 25 250 25s54 18.9 63.45 45h94.05c11.94 0 23.38 4.74 31.82 13.18A45 45 0 0 1 452.5 115m-225-22.5c0 5.97 2.37 11.69 6.59 15.91S244.03 115 250 115s11.69-2.37 15.91-6.59 6.59-9.94 6.59-15.91-2.37-11.69-6.59-15.91S255.97 70 250 70s-11.69 2.37-15.91 6.59-6.59 9.94-6.59 15.91m180 22.5h-45v45h-225v-45h-45v315h315z"/>
</svg>
