<?xml version="1.0" encoding="UTF-8"?>
<svg id="Layer_1" xmlns="http://www.w3.org/2000/svg" version="1.1" viewBox="0 0 500 500">
  <!-- Generator: Adobe Illustrator 29.1.0, SVG Export Plug-In . SVG Version: 2.1.0 Build 142)  -->
  <path d="M354.5,252.3l-28.9-28.9-101.2,101.2-57.8-57.8-28.9,28.9,86.7,86.7,130.2-130.2h0ZM407.5,70h-94c-9.5-26.1-34.2-45-63.5-45s-54,18.9-63.5,45h-94c-12,0-23.4,4.8-31.8,13.2s-13.2,19.9-13.2,31.8v315c0,12,4.8,23.4,13.2,31.8s19.9,13.2,31.8,13.2h315c12,0,23.4-4.8,31.8-13.2s13.2-19.9,13.2-31.8V115c0-12-4.8-23.4-13.2-31.8s-19.9-13.2-31.8-13.2M250,70c5.9,0,11.7,2.4,15.9,6.6s6.6,10,6.6,15.9-2.4,11.7-6.6,15.9-10,6.6-15.9,6.6-11.7-2.4-15.9-6.6-6.6-10-6.6-15.9,2.4-11.7,6.6-15.9,10-6.6,15.9-6.6M137.5,160h225v-45h45v315H92.5V115h45v45Z"/>
</svg>