<svg xmlns="http://www.w3.org/2000/svg" width="512" height="512" viewBox="0 0 512 512">
  <path d="M326.711,219.022l25.716,25.716-115.707,115.707-77.138-77.138,25.716-25.716,51.422,51.422,89.991-89.991ZM436,136v280c0,10.613-4.213,20.782-11.716,28.284-7.502,7.501-17.676,11.716-28.284,11.716H116c-10.604,0-20.782-4.213-28.284-11.716s-11.716-17.671-11.716-28.284V136c0-10.604,4.213-20.782,11.716-28.284,7.502-7.502,17.68-11.716,28.284-11.716h83.6c8.4-23.2,30.4-40,56.4-40s48,16.8,56.4,40h83.6c10.613,0,20.782,4.213,28.284,11.716,7.501,7.502,11.716,17.676,11.716,28.284M236,116c0,5.307,2.107,10.391,5.858,14.142s8.836,5.858,14.142,5.858,10.391-2.107,14.142-5.858,5.858-8.836,5.858-14.142-2.107-10.391-5.858-14.142-8.836-5.858-14.142-5.858-10.391,2.107-14.142,5.858-5.858,8.836-5.858,14.142M396,136h-40v40h-200v-40h-40v280h280V136Z"/>
</svg>