<svg xmlns="http://www.w3.org/2000/svg" width="512" height="512" viewBox="0 0 512 512">
  <path d="M348.851,258.043l-25.702-25.702-89.957,89.957-51.404-51.404-25.702,25.702,77.106,77.106,115.745-115.745-.085.085ZM396,96h-83.574c-8.426-23.234-30.383-40-56.426-40s-48,16.766-56.426,40h-83.574c-10.638,0-20.766,4.255-28.255,11.745s-11.745,17.702-11.745,28.255v280c0,10.638,4.255,20.766,11.745,28.255s17.702,11.745,28.255,11.745h280c10.638,0,20.766-4.255,28.255-11.745s11.745-17.702,11.745-28.255V136c0-10.638-4.255-20.766-11.745-28.255s-17.702-11.745-28.255-11.745M256,96c5.277,0,10.383,2.128,14.128,5.872s5.872,8.851,5.872,14.128-2.128,10.383-5.872,14.128-8.851,5.872-14.128,5.872-10.383-2.128-14.128-5.872-5.872-8.851-5.872-14.128,2.128-10.383,5.872-14.128,8.851-5.872,14.128-5.872M156,176h200v-40h40v280H116V136h40v40Z"/>
</svg>