<svg xmlns="http://www.w3.org/2000/svg" width="512" height="512" viewBox="0 0 512 512">
    <path d="M443.5 199.8v-37.6H406v37.6h-37.5v37.4H406v37.6h37.5v-37.6H481v-37.4zM181 256c41.4 0 75-33.6 75-75s-33.6-75-75-75-75 33.6-75 75 33.6 75 75 75m0 18.8c-50.1 0-150 25.1-150 75V406h300v-56.2c0-49.9-99.9-75-150-75m84.6-167.9c17.2 19.9 27.9 45.8 27.9 74.1s-10.7 54.2-27.9 74.1c36.8-4.7 65.4-35.8 65.4-74.1s-28.7-69.4-65.4-74.1m75.3 183.4c16.7 15.6 27.6 35.1 27.6 59.4v56.2H406v-56.2c0-27.2-29.8-47.1-65.1-59.4"/>
</svg>
