<?xml version="1.0" encoding="UTF-8"?>
<svg id="Layer_1" xmlns="http://www.w3.org/2000/svg" version="1.1" viewBox="0 0 512 512">
  <!-- Generator: Adobe Illustrator 29.1.0, SVG Export Plug-In . SVG Version: 2.1.0 Build 142)  -->
  <path d="M481,199.8v37.5h-37.5v37.5h-37.5v-37.5h-37.5v-37.5h37.5v-37.5h37.5v37.5h37.5ZM106,181c0-41.4,33.6-75,75-75s75,33.6,75,75-33.6,75-75,75-75-33.6-75-75ZM143.5,181c0,20.6,16.9,37.5,37.5,37.5s37.5-16.9,37.5-37.5-16.9-37.5-37.5-37.5-37.5,16.9-37.5,37.5ZM331,349.8v56.2H31v-56.2c0-49.9,99.9-75,150-75s150,25.1,150,75ZM293.5,349.8c-3.8-13.3-61.9-37.5-112.5-37.5s-108.8,24.2-112.5,37.7v18.6h225v-18.8h0ZM265.6,106.9c17.2,19.9,27.9,45.8,27.9,74.1s-10.7,54.2-27.9,74.1c36.8-4.7,65.4-35.8,65.4-74.1s-28.7-69.4-65.4-74.1ZM340.9,290.3c16.7,15.6,27.6,35.1,27.6,59.4v56.2h37.5v-56.2c0-27.2-29.8-47.1-65.1-59.4Z"/>
</svg>