<svg xmlns="http://www.w3.org/2000/svg" width="512" height="512" viewBox="0 0 512 512">
  <path d="M256,255.911c27.644,0,49.956-22.311,49.956-49.956s-22.311-49.956-49.956-49.956-49.956,22.311-49.956,49.956,22.311,49.956,49.956,49.956M256,189.244c9.156,0,16.711,7.467,16.711,16.711s-7.467,16.711-16.711,16.711-16.711-7.467-16.711-16.711,7.467-16.711,16.711-16.711M122.667,289.244c6.489,0,12.622.711,18.844,1.689-6.667,11.378-10.489,24.356-10.489,38.133v26.844H56v-26.133c0-13.511,8-25.511,20.356-30.844,14.133-6.133,29.867-9.689,46.311-9.689M389.333,272.622c-18.311,0-33.333-15.022-33.333-33.333s15.022-33.333,33.333-33.333,33.333,15.022,33.333,33.333-15.022,33.333-33.333,33.333M456,329.867v26.133h-75.022v-26.844c0-13.867-3.822-26.844-10.489-38.133,6.133-.978,12.356-1.689,18.844-1.689,16.533,0,32.178,3.467,46.311,9.689,12.356,5.333,20.356,17.333,20.356,30.844M326.667,283.378c-19.467-8.711-43.467-15.022-70.667-15.022s-51.2,6.489-70.667,15.022c-17.956,8-29.333,25.956-29.333,45.689v26.844h200v-26.844c0-19.644-11.378-37.689-29.333-45.689M190.489,322.578c1.511-3.822,2.133-6.489,15.2-11.467,16.178-6.311,33.156-9.333,50.311-9.333s34.133,3.022,50.311,9.333c12.8,4.978,13.511,7.644,15.2,11.467h-131.022ZM156,239.2c0,18.311-15.022,33.333-33.333,33.333s-33.333-15.022-33.333-33.333,15.022-33.333,33.333-33.333,33.333,15.022,33.333,33.333"/>
</svg>