<svg xmlns="http://www.w3.org/2000/svg" width="512" height="512" viewBox="0 0 512 512">
    <path d="M481 199.8v37.5h-37.5v37.5H406v-37.5h-37.5v-37.5H406v-37.5h37.5v37.5zM106 181c0-41.4 33.6-75 75-75s75 33.6 75 75-33.6 75-75 75-75-33.6-75-75m37.5 0c0 20.6 16.9 37.5 37.5 37.5s37.5-16.9 37.5-37.5-16.9-37.5-37.5-37.5-37.5 16.9-37.5 37.5M331 349.8V406H31v-56.2c0-49.9 99.9-75 150-75s150 25.1 150 75m-37.5 0c-3.8-13.3-61.9-37.5-112.5-37.5S72.2 336.5 68.5 350v18.6h225zm-27.9-242.9c17.2 19.9 27.9 45.8 27.9 74.1s-10.7 54.2-27.9 74.1c36.8-4.7 65.4-35.8 65.4-74.1s-28.7-69.4-65.4-74.1m75.3 183.4c16.7 15.6 27.6 35.1 27.6 59.4v56.2H406v-56.2c0-27.2-29.8-47.1-65.1-59.4"/>
</svg>
