<svg xmlns="http://www.w3.org/2000/svg" width="512" height="512" viewBox="0 0 512 512">
    <path d="M256 255.9c31.1 0 56.2-25.1 56.2-56.2s-25.1-56.2-56.2-56.2-56.2 25.1-56.2 56.2 25.1 56.2 56.2 56.2m0-75c10.3 0 18.8 8.4 18.8 18.8s-8.4 18.8-18.8 18.8-18.8-8.4-18.8-18.8 8.4-18.8 18.8-18.8M106 293.4c7.3 0 14.2.8 21.2 1.9-7.5 12.8-11.8 27.4-11.8 42.9v30.2H31V339c0-15.2 9-28.7 22.9-34.7 15.9-6.9 33.6-10.9 52.1-10.9m300-18.7c-20.6 0-37.5-16.9-37.5-37.5s16.9-37.5 37.5-37.5 37.5 16.9 37.5 37.5-16.9 37.5-37.5 37.5m75 64.4v29.4h-84.4v-30.2c0-15.6-4.3-30.2-11.8-42.9 6.9-1.1 13.9-1.9 21.2-1.9 18.6 0 36.2 3.9 52.1 10.9 13.9 6 22.9 19.5 22.9 34.7m-145.5-52.3c-21.9-9.8-48.9-16.9-79.5-16.9s-57.6 7.3-79.5 16.9c-20.2 9-33 29.2-33 51.4v30.2h225v-30.2c0-22.1-12.8-42.4-33-51.4m-153.2 44.1c1.7-4.3 2.4-7.3 17.1-12.9 18.2-7.1 37.3-10.5 56.6-10.5s38.4 3.4 56.6 10.5c14.4 5.6 15.2 8.6 17.1 12.9zm-38.8-93.8c0 20.6-16.9 37.5-37.5 37.5s-37.5-16.9-37.5-37.5 16.9-37.5 37.5-37.5 37.5 16.9 37.5 37.5"/>
</svg>
