<svg xmlns="http://www.w3.org/2000/svg" width="512" height="512" viewBox="0 0 512 512">
  <path d="M456,206.044v33.333h-33.333v33.333h-33.333v-33.333h-33.333v-33.333h33.333v-33.333h33.333v33.333h33.333ZM122.667,189.333c0-36.8,29.867-66.667,66.667-66.667s66.667,29.867,66.667,66.667-29.867,66.667-66.667,66.667-66.667-29.867-66.667-66.667M156,189.333c0,18.311,15.022,33.333,33.333,33.333s33.333-15.022,33.333-33.333-15.022-33.333-33.333-33.333-33.333,15.022-33.333,33.333M322.667,339.378v49.956H56v-49.956c0-44.356,88.8-66.667,133.333-66.667s133.333,22.311,133.333,66.667M289.333,339.378c-3.378-11.822-55.022-33.333-100-33.333s-96.711,21.511-100,33.511v16.533h200v-16.711ZM264.533,123.467c15.289,17.689,24.8,40.711,24.8,65.867s-9.511,48.178-24.8,65.867c32.711-4.178,58.133-31.822,58.133-65.867s-25.511-61.689-58.133-65.867M331.467,286.489c14.844,13.867,24.533,31.2,24.533,52.8v49.956h33.333v-49.956c0-24.178-26.489-41.867-57.867-52.8"/>
</svg>