<svg xmlns="http://www.w3.org/2000/svg" width="512" height="512" viewBox="0 0 512 512">
  <path d="M422.667,206.044v-33.422h-33.333v33.422h-33.333v33.244h33.333v33.422h33.333v-33.422h33.333v-33.244h-33.333ZM189.333,256c36.8,0,66.667-29.867,66.667-66.667s-29.867-66.667-66.667-66.667-66.667,29.867-66.667,66.667,29.867,66.667,66.667,66.667M189.333,272.711c-44.533,0-133.333,22.311-133.333,66.667v49.956h266.667v-49.956c0-44.356-88.8-66.667-133.333-66.667M264.533,123.467c15.289,17.689,24.8,40.711,24.8,65.867s-9.511,48.178-24.8,65.867c32.711-4.178,58.133-31.822,58.133-65.867s-25.511-61.689-58.133-65.867M331.467,286.489c14.844,13.867,24.533,31.2,24.533,52.8v49.956h33.333v-49.956c0-24.178-26.489-41.867-57.867-52.8"/>
</svg>