<svg xmlns="http://www.w3.org/2000/svg" width="512" height="512" viewBox="0 0 512 512">
  <path d="M431.231,259.417c14.353-4.706,24.705-18.235,24.705-34.117,0-19.764-16-35.999-35.999-35.999h-106.821c2.118-25.999,10.353-55.881,1.176-90.939-7.765-29.646-40.94-51.763-54.587-38.352-5.294,5.176-3.647,15.882-3.647,35.293,0,44.587-18.47,89.762-41.528,113.174-9.764,10.117-26.235,13.529-41.881,14.117v-16.47H56.064v249.876h116.585v-33.411c21.529-.471,54.705,5.412,78.939,6.823,54.116,3.294,106.233-2.471,131.408-8.47,25.293-6,36.47-13.529,36.47-31.882,0-6.588-2-12.706-5.412-18,12.235-4.823,20.941-16.823,20.941-30.94,0-7.529-2.471-14.353-6.588-19.999,12.353-4.706,21.294-16.823,21.294-30.94,0-12.941-7.647-24.352-18.47-29.764M106.063,422.236c-9.176,0-16.588-7.412-16.588-16.588s7.529-16.588,16.588-16.588,16.588,7.412,16.588,16.588c0,9.059-7.529,16.588-16.588,16.588"/>
</svg>