<svg xmlns="http://www.w3.org/2000/svg" width="512" height="512" viewBox="0 0 512 512">
  <path d="M456,237.822c0-20.178-16.364-36.364-36.364-36.364h-114.907l17.458-83.094c.365-1.822.542-3.822.542-5.822,0-7.457-3.094-14.365-8-19.271l-19.271-19.093-119.635,119.635c-6.729,6.729-10.729,15.822-10.729,25.822v181.822c0,9.645,3.831,18.889,10.649,25.715,6.821,6.818,16.071,10.649,25.715,10.649h163.636c15.093,0,28-9.085,33.458-22.178l54.907-128.187c1.636-4.177,2.542-8.542,2.542-13.271v-36.364h.002ZM56,437.813h72.729v-218.178H56v218.178Z"/>
</svg>