<svg xmlns="http://www.w3.org/2000/svg" width="512" height="512" viewBox="0 0 512 512">
    <path fill-rule="nonzero" d="M414.9 252.404c12.2-4 21-15.5 21-29 0-16.8-13.6-30.6-30.6-30.6h-90.8c1.8-22.1 8.8-47.5 1-77.3-6.6-25.2-34.8-44-46.4-32.6-4.5 4.4-3.1 13.5-3.1 30 0 37.9-15.7 76.3-35.3 96.2-8.3 8.6-22.3 11.5-35.6 12v-14H96v212.4h99.1v-28.4c18.3-.4 46.5 4.6 67.1 5.8 46 2.8 90.3-2.1 111.7-7.2 21.5-5.1 31-11.5 31-27.1 0-5.6-1.7-10.8-4.6-15.3 10.4-4.1 17.8-14.3 17.8-26.3 0-6.4-2.1-12.2-5.6-17 10.5-4 18.1-14.3 18.1-26.3 0-11-6.5-20.7-15.7-25.3zm-276.4 138.4c-7.8 0-14.1-6.3-14.1-14.1s6.4-14.1 14.1-14.1c7.7 0 14.1 6.3 14.1 14.1 0 7.7-6.4 14.1-14.1 14.1z"/>
</svg>
