<?xml version="1.0" encoding="UTF-8"?>
<svg id="Layer_1" xmlns="http://www.w3.org/2000/svg" version="1.1" viewBox="0 0 500 500">
  <!-- Generator: Adobe Illustrator 29.1.0, SVG Export Plug-In . SVG Version: 2.1.0 Build 142)  -->
  <path d="M447.1,253.8c16.1-5.3,27.8-20.5,27.8-38.4s-18-40.5-40.5-40.5h-120.2c2.4-29.2,11.6-62.9,1.3-102.3-8.7-33.4-46.1-58.2-61.4-43.1-6,5.8-4.1,17.9-4.1,39.7,0,50.2-20.8,101-46.7,127.3-11,11.4-29.5,15.2-47.1,15.9v-18.5H25.1v281.1h131.2v-37.6c24.2-.5,61.5,6.1,88.8,7.7,60.9,3.7,119.5-2.8,147.8-9.5,28.5-6.7,41-15.2,41-35.9s-2.2-14.3-6.1-20.2c13.8-5.4,23.6-18.9,23.6-34.8s-2.8-16.1-7.4-22.5c13.9-5.3,24-18.9,24-34.8s-8.6-27.4-20.8-33.5M81.3,437c-10.3,0-18.7-8.3-18.7-18.7s8.5-18.7,18.7-18.7,18.7,8.3,18.7,18.7-8.5,18.7-18.7,18.7"/>
</svg>