<svg xmlns="http://www.w3.org/2000/svg" width="512" height="512" viewBox="0 0 512 512">
  <path d="M256,417.894c-73.631.005-133.325-59.681-133.33-133.313v-.009c0-35.359,14.044-69.278,39.048-94.282,25.004-25.004,58.914-39.048,94.282-39.048s69.278,14.044,94.282,39.048,39.048,58.914,39.048,94.282-14.044,69.278-39.048,94.273c-25.006,25.004-58.92,39.05-94.282,39.048M389.899,177.713l27.048-27.048c-8.569-9.715-17.146-18.48-26.853-26.853l-27.048,27.43c-29.519-23.999-66.665-38.097-107.047-38.097-45.466,0-89.065,18.062-121.215,50.212-66.945,66.941-66.949,175.477-.008,242.422.003.003.005.005.008.008,32.147,32.15,75.75,50.212,121.215,50.212,95.233,0,171.427-76.763,171.427-171.427,0-40.381-14.097-77.518-37.528-106.851v-.009ZM236.951,303.612h38.097v-114.282h-38.097M313.145,56h-114.282v38.097h114.282v-38.097Z"/>
</svg>