<svg xmlns="http://www.w3.org/2000/svg" width="500" height="500" viewBox="0 0 500 500">
    <path d="M250 432.14a149.99 149.99 0 0 1-150-149.99c0-39.78 15.8-77.94 43.93-106.07s66.28-43.93 106.07-43.93 77.94 15.8 106.07 43.93S400 242.36 400 282.15s-15.8 77.94-43.93 106.06A150 150 0 0 1 250 432.14m150.64-270.21 30.43-30.43c-9.64-10.93-19.29-20.79-30.21-30.21l-30.43 30.86c-33.21-27-75-42.86-120.43-42.86-51.15 0-100.2 20.32-136.37 56.49a192.85 192.85 0 0 0 0 272.74A192.85 192.85 0 0 0 250 475.01c107.14 0 192.86-86.36 192.86-192.86 0-45.43-15.86-87.21-42.22-120.21ZM228.57 303.57h42.86V175h-42.86m85.72-150H185.72v42.86h128.57z"/>
</svg>
