<svg xmlns="http://www.w3.org/2000/svg" width="512" height="512" viewBox="0 0 512 512">
    <path fill-rule="nonzero" d="M403.8 134.45c-2.2-8.4-3.7-13.1-3.7-13.1-2.4-8.7-8.6-8.7-17.8-10.2l-49.8-6.3c-6.2-1-6.2-1-8.6-6.4-8.2-18.3-10.7-29-19.6-29h-96.5c-8.9 0-11.3 10.7-19.5 29.1-2.4 5.2-2.4 5.2-8.6 6.4l-49.9 6.3c-9.1 1.5-15.7 2.3-18.1 11.1 0 0-1.1 3.8-3.5 12.2-3 11.2-4.2 9.9 6.1 9.9h283.4c10.3.1 9.2 1.2 6.1-10zm-32.1 40H140.3c-15.6 0-16.3 2.1-15.4 13.8l17.5 227.4c1.5 11.5 2.6 13.9 16.4 13.9H353c13.8 0 14.9-2.3 16.4-13.9l17.6-227.4c1-11.9.2-13.8-15.3-13.8z"/>
</svg>
