<?xml version="1.0" encoding="UTF-8"?>
<svg id="Layer_1" xmlns="http://www.w3.org/2000/svg" version="1.1" viewBox="0 0 500 500">
  <!-- Generator: Adobe Illustrator 29.1.0, SVG Export Plug-In . SVG Version: 2.1.0 Build 142)  -->
  <path d="M405.1,61c-5.2-8.2-8.5-12.7-8.5-12.7-5.6-8.5-12.1-6.4-22.4-4.9l-55.1,10.3q-6.9.9-11.4-3.9c-15-16.7-21.2-27.4-30.8-24.4l-102.9,32.9c-9.5,3-8.5,15.3-10.8,37.8q-.8,6.4-7,9.7l-51,23.7c-9.2,4.7-15.9,7.8-15.5,17.9,0,0,.1,4.5.4,14.1.6,12.9-1.2,12.1,9.8,8.5l302-96.5c11-3.3,10.3-1.8,3.2-12.6M374.5,189.7H115.9c-17.4,0-18.2,2.2-17.3,15.4l19.7,254.4c1.7,12.9,3,15.5,18.4,15.5h217.2c15.4,0,16.6-2.6,18.4-15.5l19.7-254.4c.9-13.3.2-15.4-17.3-15.4"/>
</svg>