<svg xmlns="http://www.w3.org/2000/svg" width="512" height="512" viewBox="0 0 512 512">
    <path d="M333.3 133.15v-26.4c0-17.4-13.2-31.8-31.4-31.8H210c-18.1 0-31.3 14.5-31.3 31.8v26.4H96v29.1h8.4s4.9.5 7.5 3.1c2.5 2.5 3.5 8.2 3.5 8.2l17.3 219.7c1.4 26.7 1.4 30.8 32.7 30.8h181.3c31.4 0 31.4-4 32.7-30.7l17.3-219.6s1-5.7 3.5-8.3c2.5-2.6 7.5-3.1 7.5-3.1h8.4v-29.1l-82.8-.1zm-135.5-26.4c0-8.7 7.1-13.6 16.1-13.6h83.4c9 0 16.9 5 16.9 13.6v26.4H197.8v-26.4zm-7.7 259.1l-9.4-174.5h18.5l9.5 174.5h-18.6zm76 0h-20v-174.5h20v174.5zm56 0h-18.5l9.5-174.5h18.5l-9.5 174.5z"/>
</svg>
