<?xml version="1.0" encoding="UTF-8"?>
<svg id="Layer_1" xmlns="http://www.w3.org/2000/svg" version="1.1" viewBox="0 0 500 500">
  <!-- Generator: Adobe Illustrator 29.1.0, SVG Export Plug-In . SVG Version: 2.1.0 Build 142)  -->
  <path d="M434.7,106.2c-2.7-10.5-4.6-16.4-4.6-16.4-3-10.9-10.7-10.9-22.2-12.7l-62.2-7.9q-7.7-1.2-10.7-8c-10.2-22.9-13.4-36.2-24.5-36.2h-120.6c-11.1,0-14.1,13.4-24.4,36.4q-3,6.5-10.7,8l-62.4,7.9c-11.4,1.9-19.6,2.9-22.6,13.9,0,0-1.4,4.7-4.4,15.2-3.7,14-5.2,12.4,7.6,12.4h354.2c12.9.1,11.5,1.5,7.6-12.5M394.6,156.2H105.4c-19.5,0-20.4,2.6-19.2,17.2l21.9,284.2c1.9,14.4,3.2,17.4,20.5,17.4h242.7c17.2,0,18.6-2.9,20.5-17.4l22-284.2c1.2-14.9.2-17.2-19.1-17.2"/>
</svg>