<?xml version="1.0" encoding="UTF-8"?>
<svg id="Layer_1" xmlns="http://www.w3.org/2000/svg" version="1.1" viewBox="0 0 500 500">
  <!-- Generator: Adobe Illustrator 29.1.0, SVG Export Plug-In . SVG Version: 2.1.0 Build 142)  -->
  <path d="M349.6,100v-34c0-22.4-17-41-40.5-41h-118.5c-23.3,0-40.3,18.7-40.3,41v34H43.7v37.5h10.8s6.3.6,9.7,4c3.2,3.2,4.5,10.6,4.5,10.6l22.3,283.2c1.8,34.4,1.8,39.7,42.2,39.7h233.7c40.5,0,40.5-5.2,42.2-39.6l22.3-283.1s1.3-7.3,4.5-10.7,9.7-4,9.7-4h10.8v-37.5h-106.7ZM174.9,66c0-11.2,9.2-17.5,20.8-17.5h107.5c11.6,0,21.8,6.4,21.8,17.5v34h-150v-34ZM165,400l-12.1-224.9h23.8l12.2,224.9h-24ZM263,400h-25.8v-224.9h25.8v224.9ZM335.1,400h-23.8l12.2-224.9h23.8l-12.2,224.9Z"/>
</svg>