<svg xmlns="http://www.w3.org/2000/svg" width="512" height="512" viewBox="0 0 512 512">
    <path d="M386.9 89.908c-4.4-6.9-7.2-10.7-7.2-10.7-4.7-7.2-10.2-5.4-18.9-4.1l-46.5 8.7c-5.8.8-5.8.8-9.6-3.3-12.7-14.1-17.9-23.1-26-20.6l-86.9 27.8c-8 2.5-7.2 12.9-9.1 31.9-.7 5.4-.7 5.4-5.9 8.2l-43.1 20c-7.8 4-13.4 6.6-13.1 15.1 0 0 .1 3.8.3 11.9.5 10.9-1 10.2 8.3 7.2l255-81.5c9.3-2.8 8.7-1.5 2.7-10.6m-25.8 108.7H142.7c-14.7 0-15.4 1.9-14.6 13l16.6 214.8c1.4 10.9 2.5 13.1 15.5 13.1h183.4c13 0 14-2.2 15.5-13.1l16.6-214.8c.8-11.2.2-13-14.6-13"/>
</svg>
