<?xml version="1.0" encoding="UTF-8"?>
<svg width="512px" height="512px" viewBox="0 0 512 512" version="1.1" xmlns="http://www.w3.org/2000/svg" xmlns:xlink="http://www.w3.org/1999/xlink">
    <!-- Generator: Sketch 62 (91390) - https://sketch.com -->
    <title>trash-b</title>
    <desc>Created with Sketch.</desc>
    <g id="trash-b" stroke="none" stroke-width="1" fill="none" fill-rule="evenodd">
        <path d="M403.8,134.45 C401.6,126.05 400.1,121.35 400.1,121.35 C397.7,112.65 391.5,112.65 382.3,111.15 L332.5,104.85 C326.3,103.85 326.3,103.85 323.9,98.45 C315.7,80.15 313.2,69.45 304.3,69.45 L207.8,69.45 C198.9,69.45 196.5,80.15 188.3,98.55 C185.9,103.75 185.9,103.75 179.7,104.95 L129.8,111.25 C120.7,112.75 114.1,113.55 111.7,122.35 C111.7,122.35 110.6,126.15 108.2,134.55 C105.2,145.75 104,144.45 114.3,144.45 L397.7,144.45 C408,144.55 406.9,145.65 403.8,134.45 Z M371.7,174.45 L140.3,174.45 C124.7,174.45 124,176.55 124.9,188.25 L142.4,415.65 C143.9,427.15 145,429.55 158.8,429.55 L353,429.55 C366.8,429.55 367.9,427.25 369.4,415.65 L387,188.25 C388,176.35 387.2,174.45 371.7,174.45 Z" id="Shape" fill="#000000" fill-rule="nonzero"></path>
    </g>
</svg>