<svg xmlns="http://www.w3.org/2000/svg" width="512" height="512" viewBox="0 0 512 512">
  <path d="M344.513,122.686v-30.249c0-19.937-15.125-36.437-35.978-36.437h-105.299c-20.739,0-35.864,16.614-35.864,36.437v30.249h-94.758v33.343h9.625s5.614.573,8.594,3.552c2.865,2.865,4.01,9.396,4.01,9.396l19.822,251.733c1.604,30.593,1.604,35.291,37.468,35.291h207.734c35.978,0,35.978-4.583,37.468-35.176l19.822-251.618s1.146-6.531,4.01-9.51,8.594-3.552,8.594-3.552h9.625v-33.343l-94.873-.115ZM189.257,92.437c0-9.968,8.135-15.583,18.447-15.583h95.56c10.312,0,19.364,5.729,19.364,15.583v30.249h-133.372v-30.249ZM180.434,389.314l-10.771-199.943h21.197l10.885,199.943h-21.312ZM267.515,389.314h-22.916v-199.943h22.916v199.943ZM331.68,389.314h-21.197l10.885-199.943h21.197l-10.885,199.943Z"/>
</svg>