<svg xmlns="http://www.w3.org/2000/svg" width="512" height="512" viewBox="0 0 512 512">
    <path d="M408.5 53.2c-5-7.8-8.1-12.1-8.1-12.1-5.3-8.1-11.6-6.1-21.4-4.6l-52.6 9.8c-6.6 1-6.6 1-10.8-3.7-14.3-16-20.3-26.1-29.4-23.2l-98.1 31.4c-9 2.9-8.1 14.5-10.3 36-.8 6.1-.8 6.1-6.7 9.3l-48.6 22.6c-8.8 4.5-15.1 7.5-14.8 17.1 0 0 .1 4.3.4 13.5.6 12.3-1.1 11.5 9.4 8.1l288-92.1c10.5-3.3 9.7-1.8 3-12.1zM379.4 176H132.6c-16.6 0-17.4 2.2-16.4 14.7l18.7 242.6c1.6 12.3 2.8 14.8 17.5 14.8h207.2c14.7 0 15.9-2.5 17.5-14.8l18.7-242.6c1-12.6.2-14.7-16.4-14.7z"/>
</svg>
