<?xml version="1.0" encoding="UTF-8"?>
<svg width="512px" height="512px" viewBox="0 0 512 512" version="1.1" xmlns="http://www.w3.org/2000/svg" xmlns:xlink="http://www.w3.org/1999/xlink">
    <!-- Generator: Sketch 62 (91390) - https://sketch.com -->
    <title>trash-a</title>
    <desc>Created with Sketch.</desc>
    <g id="trash-a" stroke="none" stroke-width="1" fill="none" fill-rule="evenodd">
        <path d="M333.3,133.15 L333.3,106.75 C333.3,89.35 320.1,74.95 301.9,74.95 L210,74.95 C191.9,74.95 178.7,89.45 178.7,106.75 L178.7,133.15 L96,133.15 L96,162.25 L104.4,162.25 C104.4,162.25 109.3,162.75 111.9,165.35 C114.4,167.85 115.4,173.55 115.4,173.55 L132.7,393.25 C134.1,419.95 134.1,424.05 165.4,424.05 L346.7,424.05 C378.1,424.05 378.1,420.05 379.4,393.35 L396.7,173.75 C396.7,173.75 397.7,168.05 400.2,165.45 C402.7,162.85 407.7,162.35 407.7,162.35 L416.1,162.35 L416.1,133.25 L333.3,133.15 Z M197.8,106.75 C197.8,98.05 204.9,93.15 213.9,93.15 L297.3,93.15 C306.3,93.15 314.2,98.15 314.2,106.75 L314.2,133.15 L197.8,133.15 L197.8,106.75 Z M190.1,365.85 L180.7,191.35 L199.2,191.35 L208.7,365.85 L190.1,365.85 Z M266.1,365.85 L246.1,365.85 L246.1,191.35 L266.1,191.35 L266.1,365.85 L266.1,365.85 Z M322.1,365.85 L303.6,365.85 L313.1,191.35 L331.6,191.35 L322.1,365.85 Z" id="Shape" fill="#000000" fill-rule="nonzero"></path>
    </g>
</svg>