<svg xmlns="http://www.w3.org/2000/svg" width="512" height="512" viewBox="0 0 512 512">
  <path d="M420.153,128.202c-2.444-9.331-4.11-14.552-4.11-14.552-2.666-9.664-9.553-9.664-19.772-11.33l-55.318-6.998q-6.887-1.111-9.553-7.109c-9.109-20.328-11.886-32.213-21.772-32.213h-107.192c-9.886,0-12.552,11.886-21.661,32.324q-2.666,5.776-9.553,7.109l-55.429,6.998c-10.108,1.666-17.44,2.555-20.106,12.33,0,0-1.222,4.221-3.888,13.552-3.332,12.441-4.665,10.997,6.776,10.997h314.801c11.441.111,10.219,1.333,6.776-11.108M384.496,172.634H127.456c-17.329,0-18.106,2.333-17.106,15.329l19.439,252.597c1.666,12.774,2.888,15.44,18.217,15.44h215.718c15.329,0,16.551-2.555,18.217-15.44l19.55-252.597c1.111-13.219.222-15.329-16.995-15.329"/>
</svg>