<svg xmlns="http://www.w3.org/2000/svg" width="512" height="512" viewBox="0 0 512 512">
  <path d="M393.835,88.016c-4.631-7.263-7.579-11.263-7.579-11.263-4.947-7.579-10.736-5.684-19.894-4.316l-48.945,9.158q-6.105.842-10.105-3.474c-13.368-14.841-18.841-24.315-27.367-21.683l-91.47,29.262c-8.421,2.631-7.579,13.578-9.579,33.578q-.737,5.684-6.21,8.631l-45.366,21.052c-8.21,4.21-14.105,6.947-13.789,15.894,0,0,.105,4,.316,12.526.526,11.473-1.053,10.736,8.736,7.579l268.41-85.786c9.789-2.947,9.158-1.579,2.842-11.157M366.678,202.432h-229.885c-15.473,0-16.21,2-15.368,13.684l17.473,226.096c1.474,11.473,2.631,13.789,16.315,13.789h193.044c13.684,0,14.736-2.316,16.315-13.789l17.473-226.096c.842-11.789.211-13.684-15.368-13.684"/>
</svg>