<svg xmlns="http://www.w3.org/2000/svg" width="512" height="512" viewBox="0 0 512 512">
  <path d="M176,276c-37.25,0-68.125,25.625-77.25,60h-42.75v40h42.75c9,34.375,40,60,77.25,60s68.125-25.625,77.25-60h202.75v-40h-202.75c-9-34.375-40-60-77.25-60M176,396c-22,0-40-18-40-40s18-40,40-40,40,18,40,40-18,40-40,40M413.25,136c-9-34.375-40-60-77.25-60s-68.125,25.625-77.25,60H56v40h202.75c9,34.375,40,60,77.25,60s68.125-25.625,77.25-60h42.75v-40h-42.75ZM336,196c-22,0-40-18-40-40s18-40,40-40,40,18,40,40-18,40-40,40"/>
</svg>