<?xml version="1.0" encoding="UTF-8"?>
<svg id="Layer_1" data-name="Layer 1" xmlns="http://www.w3.org/2000/svg" version="1.1" viewBox="0 0 512 512">
  <path class="cls-1" d="M192,272c-29.8,0-54.5,20.5-61.8,48h-34.2v32h34.2c7.2,27.5,32,48,61.8,48s54.5-20.5,61.8-48h162.2v-32h-162.2c-7.2-27.5-32-48-61.8-48ZM192,368c-17.6,0-32-14.4-32-32s14.4-32,32-32,32,14.4,32,32-14.4,32-32,32ZM381.8,160c-7.2-27.5-32-48-61.8-48s-54.5,20.5-61.8,48H96v32h162.2c7.2,27.5,32,48,61.8,48s54.5-20.5,61.8-48h34.2v-32h-34.2ZM320,208c-17.6,0-32-14.4-32-32s14.4-32,32-32,32,14.4,32,32-14.4,32-32,32Z"/>
</svg>