<?xml version="1.0" encoding="UTF-8"?>
<svg id="Layer_1" xmlns="http://www.w3.org/2000/svg" version="1.1" viewBox="0 0 500 500">
  <!-- Generator: Adobe Illustrator 29.1.0, SVG Export Plug-In . SVG Version: 2.1.0 Build 142)  -->
  <path d="M160,272.5c-41.9,0-76.6,28.8-86.9,67.5H25v45h48.1c10.1,38.7,45,67.5,86.9,67.5s76.6-28.8,86.9-67.5h228.1v-45h-228.1c-10.1-38.7-45-67.5-86.9-67.5M160,407.5c-24.8,0-45-20.2-45-45s20.2-45,45-45,45,20.2,45,45-20.2,45-45,45M426.9,115c-10.1-38.7-45-67.5-86.9-67.5s-76.6,28.8-86.9,67.5H25v45h228.1c10.1,38.7,45,67.5,86.9,67.5s76.6-28.8,86.9-67.5h48.1v-45h-48.1ZM340,182.5c-24.8,0-45-20.2-45-45s20.2-45,45-45,45,20.2,45,45-20.2,45-45,45"/>
</svg>