<svg xmlns="http://www.w3.org/2000/svg" width="512" height="512" data-name="Layer 1" viewBox="0 0 512 512">
    <path d="M192 272c-29.8 0-54.5 20.5-61.8 48H96v32h34.2c7.2 27.5 32 48 61.8 48s54.5-20.5 61.8-48H416v-32H253.8c-7.2-27.5-32-48-61.8-48m0 96c-17.6 0-32-14.4-32-32s14.4-32 32-32 32 14.4 32 32-14.4 32-32 32m189.8-208c-7.2-27.5-32-48-61.8-48s-54.5 20.5-61.8 48H96v32h162.2c7.2 27.5 32 48 61.8 48s54.5-20.5 61.8-48H416v-32zM320 208c-17.6 0-32-14.4-32-32s14.4-32 32-32 32 14.4 32 32-14.4 32-32 32" class="cls-1"/>
</svg>
