<svg xmlns="http://www.w3.org/2000/svg" width="512" height="512" data-name="Layer 1" viewBox="0 0 512 512">
    <path d="M162 279.5c-43.7 0-80.1 30.1-90.7 70.5H21v47h50.3c10.6 40.4 47 70.5 90.7 70.5s80.1-30.1 90.7-70.5H491v-47H252.7c-10.6-40.4-47-70.5-90.7-70.5m0 141c-25.8 0-47-21.2-47-47s21.2-47 47-47 47 21.2 47 47-21.2 47-47 47M440.7 115c-10.6-40.4-47-70.5-90.7-70.5s-80.1 30.1-90.7 70.5H21v47h238.3c10.6 40.4 47 70.5 90.7 70.5s80.1-30.1 90.7-70.5H491v-47zM350 185.5c-25.8 0-47-21.2-47-47s21.2-47 47-47 47 21.2 47 47-21.2 47-47 47"/>
</svg>
