<svg xmlns="http://www.w3.org/2000/svg" width="512" height="512" viewBox="0 0 512 512">
    <path fill-rule="evenodd" d="M256 361c-22.002 0-40-17.998-40-40s17.998-40 40-40 40 17.998 40 40-17.998 40-40 40m120-182h-20v-40c0-55-45-100-100-100-42.957 0-79.806 27.455-93.887 65.681 6.099.878 12.191 1.793 18.279 2.706 4.013.601 7.996 1.412 11.966 2.305l8.441 1.302C211.105 90.899 232.054 76.998 256 76.998c34.004 0 62.002 27.998 62.002 62.002H318v40H136c-22.002 0-40 17.998-40 40v200c0 22.002 17.998 40 40 40h240c22.002 0 40-17.998 40-40V219c0-22.002-17.998-40-40-40"/>
</svg>
