<?xml version="1.0" encoding="UTF-8"?>
<svg width="512px" height="512px" viewBox="0 0 512 512" version="1.1" xmlns="http://www.w3.org/2000/svg" xmlns:xlink="http://www.w3.org/1999/xlink">
    <title>unlock</title>
    <g id="unlock" stroke="none" stroke-width="1" fill="none" fill-rule="evenodd">
        <path d="M256,361 C233.998,361 216,343.002 216,321 C216,298.998 233.998,281 256,281 C278.002,281 296,298.998 296,321 C296,343.002 278.002,361 256,361 M376,179 L356,179 L356,139 C356,84 311,39 256,39 C213.043,39 176.194,66.455 162.113,104.681 C168.212,105.559 174.304,106.474 180.392,107.387 C184.405,107.988 188.388,108.799 192.358,109.692 C195.172,110.126 197.985,110.56 200.799,110.994 C211.105,90.899 232.054,76.998 256,76.998 C290.004,76.998 318.002,104.996 318.002,139 L318,139 L318,179 L136,179 C113.998,179 96,196.998 96,219 L96,419 C96,441.002 113.998,459 136,459 L376,459 C398.002,459 416,441.002 416,419 L416,219 C416,196.998 398.002,179 376,179" id="Shape" fill="#000000"></path>
    </g>
</svg>