<?xml version="1.0" encoding="UTF-8"?>
<svg id="Layer_1" xmlns="http://www.w3.org/2000/svg" version="1.1" viewBox="0 0 500 500">
  <!-- Generator: Adobe Illustrator 29.1.0, SVG Export Plug-In . SVG Version: 2.1.0 Build 142)  -->
  <defs>
    <style>
      .st0 {
        fill-rule: evenodd;
      }
    </style>
  </defs>
  <path class="st0" d="M250,370c-23.6,0-42.9-19.3-42.9-42.9s19.3-42.9,42.9-42.9,42.9,19.3,42.9,42.9-19.3,42.9-42.9,42.9M378.6,175h-21.4v-42.9c0-58.9-48.2-107.1-107.1-107.1s-85.5,29.4-100.6,70.4c6.5.9,13.1,1.9,19.6,2.9,4.3.6,8.6,1.5,12.8,2.5l9,1.4c11-21.5,33.5-36.4,59.1-36.4,36.4,0,66.4,30,66.4,66.4h0v42.9H121.4c-23.6,0-42.9,19.3-42.9,42.9v214.3c0,23.6,19.3,42.9,42.9,42.9h257.1c23.6,0,42.9-19.3,42.9-42.9v-214.3c0-23.6-19.3-42.9-42.9-42.9"/>
</svg>