<svg xmlns="http://www.w3.org/2000/svg" width="512" height="512" viewBox="0 0 512 512">
  <defs>
    <style>
      .st0 {
        fill-rule: evenodd;
      }
    </style>
  </defs>
  <path class="st0" d="M256,362.667c-20.954,0-38.095-17.141-38.095-38.095s17.141-38.095,38.095-38.095,38.095,17.141,38.095,38.095-17.141,38.095-38.095,38.095M370.286,189.333h-19.048v-38.095c0-52.381-42.857-95.238-95.238-95.238-40.911,0-76.006,26.148-89.416,62.553,5.809.836,11.61,1.708,17.409,2.577,3.822.572,7.615,1.345,11.396,2.195l8.039,1.24c9.815-19.138,29.767-32.377,52.572-32.377,32.385,0,59.05,26.665,59.05,59.05h-.002v38.095h-173.333c-20.954,0-38.095,17.141-38.095,38.095v190.476c0,20.954,17.141,38.095,38.095,38.095h228.571c20.954,0,38.095-17.141,38.095-38.095v-190.476c0-20.954-17.141-38.095-38.095-38.095"/>
</svg>