<svg xmlns="http://www.w3.org/2000/svg" width="512" height="512" viewBox="0 0 512 512">
  <path d="M256,56c-110.444,0-200,89.444-200,200s89.556,200,200,200,200-89.556,200-200S366.444,56,256,56M337.111,324.667h-63v-45.667h27.556l-45.667-47.667-45.778,47.778h27.556v45.667h-58.556c-28.222,0-51.111-23.222-51.111-52,0-22.778,14.333-42,34.667-49,2.667-16.333,16.778-28.889,33.667-28.889,5.444,0,10.778,1.333,15.222,3.778,10.667-22.667,33.111-38.222,59.556-38.222,36.333,0,66,30,66,67.111,0,.778-.111,1.333-.111,2,25.778.111,46.778,21.333,46.778,47.556s-20.889,47.556-46.778,47.556"/>
</svg>