<?xml version="1.0" encoding="UTF-8"?>
<svg width="512px" height="512px" viewBox="0 0 512 512" version="1.1" xmlns="http://www.w3.org/2000/svg" xmlns:xlink="http://www.w3.org/1999/xlink">
    <!-- Generator: Sketch 62 (91390) - https://sketch.com -->
    <title>upload</title>
    <desc>Created with Sketch.</desc>
    <g id="upload" stroke="none" stroke-width="1" fill="none" fill-rule="evenodd">
        <path d="M376.5,230.15 C376.5,229.05 376.6,228.15 376.6,227.05 C376.6,171.95 332.7,127.35 278.5,127.35 C239.4,127.35 205.8,150.65 190.1,184.25 C183.2,180.85 175.5,178.75 167.4,178.75 C142.4,178.75 121.6,197.25 117.5,221.65 C87.5,231.85 66,260.55 66,294.45 C66,337.05 100,371.65 141.9,371.65 L228.8,371.65 L228.8,303.85 L188,303.85 L256,232.85 L324,303.75 L283.2,303.75 L283.2,371.45 L376.7,371.45 C415,371.45 446,339.65 446,300.65 C446,261.65 414.8,230.15 376.5,230.15 Z" id="Path" fill="#000000" fill-rule="nonzero"></path>
    </g>
</svg>