<?xml version="1.0" encoding="UTF-8"?>
<svg width="512px" height="512px" viewBox="0 0 512 512" version="1.1" xmlns="http://www.w3.org/2000/svg" xmlns:xlink="http://www.w3.org/1999/xlink">
    <!-- Generator: Sketch 62 (91390) - https://sketch.com -->
    <title>upload-circled</title>
    <desc>Created with Sketch.</desc>
    <g id="upload-circled" stroke="none" stroke-width="1" fill="none" fill-rule="evenodd">
        <path d="M256,69.5 C156.6,69.5 76,150 76,249.5 C76,349 156.6,429.5 256,429.5 C355.4,429.5 436,348.9 436,249.5 C436,150.1 355.4,69.5 256,69.5 Z M329,311.3 L272.3,311.3 L272.3,270.2 L297.1,270.2 L256,227.3 L214.8,270.3 L239.6,270.3 L239.6,311.4 L186.9,311.4 C161.5,311.4 140.9,290.5 140.9,264.6 C140.9,244.1 153.8,226.8 172.1,220.5 C174.5,205.8 187.2,194.5 202.4,194.5 C207.3,194.5 212.1,195.7 216.1,197.9 C225.7,177.5 245.9,163.5 269.7,163.5 C302.4,163.5 329.1,190.5 329.1,223.9 C329.1,224.6 329,225.1 329,225.7 C352.2,225.8 371.1,244.9 371.1,268.5 C371.1,292.1 352.3,311.3 329,311.3 L329,311.3 Z" id="Shape" fill="#000000" fill-rule="nonzero"></path>
    </g>
</svg>