<svg xmlns="http://www.w3.org/2000/svg" width="512" height="512" viewBox="0 0 512 512">
    <path d="M430.9 110c-4.5-4.5-9.7-6.7-15.8-6.7H302.7c-6.1 0-11.4 2.2-15.8 6.7-4.5 4.5-6.7 9.7-6.7 15.8-1.9 13.6-9.4 21.1-22.5 22.5H100.3c-6.1 0-11.4 2.1-15.8 6.3-4.4 4.2-6.7 9.4-6.7 15.5v203.1c0 6.1 2.2 11.4 6.7 15.8 4.5 4.5 9.7 6.7 15.8 6.7h138.4V276.3l-29.8 29.6c-7.5 7.3-19.5 7.3-26.7 0-7.3-7.4-7.3-19.3.1-26.6l62.1-61.6c3.5-3.7 8.1-5.6 13.3-5.6 5.1 0 9.7 1.8 13.2 5.6l62.2 61.6c7.5 7.3 7.5 19.2 0 26.5-7.4 7.3-19.4 7.3-26.7 0l-29.9-29.5v119.3H415c6.1 0 11.4-2.2 15.8-6.7 4.5-4.4 6.703-9.7 6.703-15.8V125.7c.097-6-2.103-11.3-6.603-15.7z"/>
</svg>
