<?xml version="1.0" encoding="UTF-8"?>
<svg id="Layer_1" xmlns="http://www.w3.org/2000/svg" version="1.1" viewBox="0 0 500 500">
  <!-- Generator: Adobe Illustrator 29.1.0, SVG Export Plug-In . SVG Version: 2.1.0 Build 142)  -->
  <path d="M250,25C125.8,25,25,125.6,25,250s100.8,225,225,225,225-100.8,225-225S374.2,25,250,25M341.2,327.2h-70.9v-51.4h31l-51.4-53.6-51.5,53.7h31v51.4h-65.9c-31.7,0-57.5-26.1-57.5-58.5s16.1-47.3,39-55.1c3-18.4,18.9-32.5,37.9-32.5s12.1,1.5,17.1,4.2c12-25.5,37.3-43,67-43s74.2,33.8,74.2,75.5-.1,1.5-.1,2.3c29,.1,52.6,24,52.6,53.5s-23.5,53.5-52.6,53.5"/>
</svg>