<?xml version="1.0" encoding="UTF-8"?>
<svg id="Layer_1" xmlns="http://www.w3.org/2000/svg" version="1.1" viewBox="0 0 500 500">
  <!-- Generator: Adobe Illustrator 29.1.0, SVG Export Plug-In . SVG Version: 2.1.0 Build 142)  -->
  <path d="M466.7,75.5c-5.6-5.6-12.1-8.4-19.8-8.4h-140.6c-7.6,0-14.3,2.8-19.8,8.4-5.6,5.6-8.4,12.1-8.4,19.8-2.4,17-11.8,26.4-28.1,28.1H53.1c-7.6,0-14.3,2.6-19.8,7.9-5.5,5.3-8.4,11.8-8.4,19.4v254.1c0,7.6,2.8,14.3,8.4,19.8,5.6,5.6,12.1,8.4,19.8,8.4h173.1v-149.4l-37.3,37c-9.4,9.1-24.4,9.1-33.4,0-9.1-9.3-9.1-24.1.1-33.3l77.7-77.1c4.4-4.6,10.1-7,16.6-7s12.1,2.3,16.5,7l77.8,77.1c9.4,9.1,9.4,24,0,33.2-9.3,9.1-24.3,9.1-33.4,0l-37.4-36.9v149.2h173.3c7.6,0,14.3-2.8,19.8-8.4,5.6-5.5,8.4-12.1,8.4-19.8V95.1c.1-7.5-2.6-14.1-8.3-19.6"/>
</svg>