<?xml version="1.0" encoding="UTF-8"?>
<svg width="512px" height="512px" viewBox="0 0 512 512" version="1.1" xmlns="http://www.w3.org/2000/svg" xmlns:xlink="http://www.w3.org/1999/xlink">
    <!-- Generator: Sketch 62 (91390) - https://sketch.com -->
    <title>upload-file</title>
    <desc>Created with Sketch.</desc>
    <g id="upload-file" stroke="none" stroke-width="1" fill="none" fill-rule="evenodd">
        <path d="M430.9,110 C426.4,105.5 421.2,103.3 415.1,103.3 L302.7,103.3 C296.6,103.3 291.3,105.5 286.9,110 C282.4,114.5 280.2,119.7 280.2,125.8 C278.3,139.4 270.8,146.9 257.7,148.3 L100.3,148.3 C94.2,148.3 88.9,150.4 84.5,154.6 C80.1,158.8 77.8,164 77.8,170.1 L77.8,373.2 C77.8,379.3 80,384.6 84.5,389 C89,393.5 94.2,395.7 100.3,395.7 L238.7,395.7 L238.7,276.3 L208.9,305.9 C201.4,313.2 189.4,313.2 182.2,305.9 C174.9,298.5 174.9,286.6 182.3,279.3 L244.4,217.7 C247.9,214 252.5,212.1 257.7,212.1 C262.8,212.1 267.4,213.9 270.9,217.7 L333.1,279.3 C340.6,286.6 340.6,298.5 333.1,305.8 C325.7,313.1 313.7,313.1 306.4,305.8 L276.5,276.3 L276.5,395.6 L415,395.6 C421.1,395.6 426.4,393.4 430.8,388.9 C435.3,384.5 437.503261,379.2 437.503261,373.1 L437.503261,193.2 L437.503261,170 L437.503261,125.7 C437.6,119.7 435.4,114.4 430.9,110 Z" id="Path" fill="#000000" fill-rule="nonzero"></path>
    </g>
</svg>