<?xml version="1.0" encoding="UTF-8"?>
<svg id="Layer_1" xmlns="http://www.w3.org/2000/svg" version="1.1" viewBox="0 0 500 500">
  <!-- Generator: Adobe Illustrator 29.1.0, SVG Export Plug-In . SVG Version: 2.1.0 Build 142)  -->
  <path d="M392.7,227.1c0-1.3.1-2.4.1-3.7,0-65.3-52-118.1-116.2-118.1s-86.1,27.6-104.7,67.4c-8.2-4-17.3-6.5-26.9-6.5-29.6,0-54.2,21.9-59.1,50.8-35.5,12.1-61,46.1-61,86.2s40.3,91.4,89.9,91.4h102.9v-80.3h-48.3l80.5-84.1,80.5,84h-48.3v80.2h110.7c45.4,0,82.1-37.7,82.1-83.8s-36.9-83.5-82.3-83.5"/>
</svg>