<svg xmlns="http://www.w3.org/2000/svg" width="512" height="512" viewBox="0 0 512 512">
  <path d="M382.842,235.632c0-1.158.105-2.105.105-3.263,0-58-46.211-104.947-103.263-104.947-41.158,0-76.526,24.526-93.053,59.895-7.263-3.579-15.368-5.789-23.895-5.789-26.316,0-48.211,19.474-52.526,45.158-31.579,10.737-54.211,40.947-54.211,76.632,0,44.842,35.789,81.263,79.895,81.263h91.474v-71.368h-42.947l71.579-74.737,71.579,74.632h-42.947v71.263h98.421c40.316,0,72.947-33.474,72.947-74.526s-32.842-74.211-73.158-74.211"/>
</svg>