<svg xmlns="http://www.w3.org/2000/svg" width="512" height="512" viewBox="0 0 512 512">
  <path d="M448.654,100.873c-5.004-5.004-10.787-7.451-17.57-7.451h-124.991c-6.783,0-12.677,2.446-17.57,7.451-5.004,5.004-7.451,10.787-7.451,17.57-2.113,15.123-10.453,23.464-25.02,25.02H81.02c-6.783,0-12.677,2.335-17.57,7.006-4.893,4.67-7.451,10.453-7.451,17.236v225.851c0,6.783,2.446,12.677,7.451,17.57,5.004,5.004,10.787,7.451,17.57,7.451h153.903v-132.775l-33.138,32.916c-8.34,8.118-21.684,8.118-29.691,0-8.118-8.229-8.118-21.462.111-29.58l69.056-68.5c3.892-4.114,9.007-6.227,14.79-6.227,5.671,0,10.787,2.002,14.679,6.227l69.168,68.5c8.34,8.118,8.34,21.351,0,29.469-8.229,8.118-21.573,8.118-29.691,0l-33.249-32.805v132.664h154.015c6.783,0,12.677-2.446,17.57-7.451,5.004-4.893,7.454-10.787,7.454-17.57V118.332c.108-6.672-2.339-12.566-7.343-17.459"/>
</svg>