<?xml version="1.0" encoding="utf-8"?>
<!-- Generator: Adobe Illustrator 24.1.0, SVG Export Plug-In . SVG Version: 6.00 Build 0)  -->
<svg version="1.1" id="Layer_1" xmlns="http://www.w3.org/2000/svg" xmlns:xlink="http://www.w3.org/1999/xlink" x="0px" y="0px"
	 viewBox="0 0 512 512" style="enable-background:new 0 0 512 512;" xml:space="preserve">
<path d="M430.9,118.3c-4.5-4.5-9.7-6.7-15.8-6.7H302.7c-6.1,0-11.4,2.2-15.8,6.7c-4.5,4.5-6.7,9.7-6.7,15.8
	c-1.9,13.6-9.4,21.1-22.5,22.5H100.3c-6.1,0-11.4,2.1-15.8,6.3c-4.4,4.2-6.7,9.4-6.7,15.5v203.1c0,6.1,2.2,11.4,6.7,15.8
	c4.5,4.5,9.7,6.7,15.8,6.7h138.4V284.6l-29.8,29.6c-7.5,7.3-19.5,7.3-26.7,0c-7.3-7.4-7.3-19.3,0.1-26.6l62.1-61.6
	c3.5-3.7,8.1-5.6,13.3-5.6c5.1,0,9.7,1.8,13.2,5.6l62.2,61.6c7.5,7.3,7.5,19.2,0,26.5c-7.4,7.3-19.4,7.3-26.7,0l-29.9-29.5v119.3
	h138.5c6.1,0,11.4-2.2,15.8-6.7c4.5-4.4,6.7-9.7,6.7-15.8V201.5v-23.2v-44.3C437.6,128,435.4,122.7,430.9,118.3z"/>
</svg>
