<svg xmlns="http://www.w3.org/2000/svg" width="512" height="512" viewBox="0 0 512 512">
  <defs>
    <style>
      .st0 {
        fill-rule: evenodd;
      }
    </style>
  </defs>
  <path class="st0" d="M151.153,97.949v67.551h-19.377c-1.985-3.66-6.878-5.566-8.725-6.229-2.34-.841-5.704-1.132-7.839-1.596-1.23-.275-3.023-.96-3.621-1.681-.597-.721-.239-7.462-.239-7.462,0,0,1.11-1.75,1.708-3.277.598-1.526,1.247-5.729,1.247-5.729h.015c.141-.009,1.243-.14,1.659-2.162.478-2.368,1.196-3.344,1.11-5.129-.085-1.648-.939-1.733-1.042-1.733s.888-2.487,1.008-7.737c.154-6.194-4.577-12.317-13.474-12.317s-13.611,6.106-13.475,12.317c.102,5.231,1.025,7.737,1.025,7.737-.085,0-.939.085-1.042,1.733-.085,1.766.649,2.71,1.11,5.077.444,2.161,1.674,2.195,1.674,2.195,0,0,.22,1.43.522,2.929l.088.429c.198.928.42,1.833.635,2.39.598,1.543,1.709,3.276,1.709,3.276,0,0,.359,6.724-.239,7.462-.597.72-2.391,1.406-3.621,1.681-2.15.48-5.498.789-7.838,1.63-1.845.662-6.725,2.562-8.709,6.194l-19.423.002v-67.553h95.154-.002ZM151.153,180.798v67.551h-19.377c-1.985-3.66-6.878-5.566-8.725-6.229-2.34-.841-5.704-1.132-7.839-1.595-1.23-.275-3.023-.961-3.621-1.682-.597-.721-.239-7.462-.239-7.462,0,0,1.11-1.75,1.708-3.276.598-1.527,1.247-5.729,1.247-5.729h.015c.141-.009,1.243-.139,1.659-2.161.478-2.368,1.196-3.345,1.11-5.13-.085-1.648-.939-1.733-1.042-1.733s.888-2.487,1.008-7.736c.154-6.194-4.577-12.318-13.474-12.318s-13.611,6.108-13.475,12.317c.102,5.232,1.025,7.737,1.025,7.737-.085,0-.939.086-1.042,1.733-.085,1.766.649,2.71,1.11,5.077.444,2.162,1.674,2.196,1.674,2.196,0,0,.22,1.43.522,2.928l.088.429c.198.928.42,1.833.635,2.39.598,1.544,1.709,3.277,1.709,3.277,0,0,.359,6.724-.239,7.462-.597.721-2.391,1.407-3.621,1.681-2.15.48-5.498.789-7.838,1.63-1.845.662-6.725,2.562-8.709,6.194l-19.423.002v-67.551h95.154v-.002h-.002ZM151.153,263.648v67.551h-19.377c-1.985-3.66-6.878-5.565-8.725-6.229-2.34-.841-5.704-1.132-7.839-1.595-1.23-.275-3.023-.96-3.621-1.682-.597-.72-.239-7.462-.239-7.462,0,0,1.11-1.749,1.708-3.276.598-1.527,1.247-5.73,1.247-5.73h.015c.141-.009,1.243-.139,1.659-2.161.478-2.368,1.196-3.345,1.11-5.13-.085-1.647-.939-1.732-1.042-1.732s.888-2.488,1.008-7.737c.154-6.193-4.577-12.317-13.474-12.317s-13.611,6.108-13.475,12.317c.102,5.232,1.025,7.737,1.025,7.737-.085,0-.939.085-1.042,1.732-.085,1.768.649,2.711,1.11,5.078.444,2.161,1.674,2.195,1.674,2.195,0,0,.22,1.43.522,2.929l.088.428c.198.928.42,1.833.635,2.391.598,1.543,1.709,3.276,1.709,3.276,0,0,.359,6.724-.239,7.462-.597.72-2.391,1.406-3.621,1.681-2.15.48-5.498.789-7.838,1.63-1.845.661-6.725,2.561-8.709,6.194h-19.424v-67.551h95.154,0ZM151.153,346.498v67.551h-19.377c-1.985-3.66-6.878-5.566-8.725-6.229-2.34-.841-5.704-1.132-7.839-1.596-1.23-.275-3.023-.96-3.621-1.681-.597-.721-.239-7.462-.239-7.462,0,0,1.11-1.75,1.708-3.276.598-1.527,1.247-5.729,1.247-5.729h.015c.141-.009,1.243-.14,1.659-2.162.478-2.368,1.196-3.344,1.11-5.129-.085-1.648-.939-1.733-1.042-1.733s.888-2.487,1.008-7.737c.154-6.194-4.577-12.317-13.474-12.317s-13.611,6.106-13.475,12.317c.102,5.231,1.025,7.737,1.025,7.737-.085,0-.939.085-1.042,1.733-.085,1.766.649,2.71,1.11,5.077.444,2.161,1.674,2.195,1.674,2.195,0,0,.22,1.431.522,2.929l.088.429c.198.928.42,1.833.635,2.39.598,1.543,1.709,3.276,1.709,3.276,0,0,.359,6.724-.239,7.462-.597.72-2.391,1.406-3.621,1.681-2.15.48-5.498.789-7.838,1.63-1.845.662-6.725,2.562-8.709,6.194l-19.423.002v-67.551h95.154l-.002-.002ZM253.356,97.949v67.551h-19.556c-2.003-3.66-6.942-5.566-8.807-6.229-2.361-.841-5.757-1.132-7.911-1.596-1.241-.275-3.051-.96-3.654-1.681s-.241-7.462-.241-7.462c0,0,1.12-1.75,1.724-3.277.604-1.526,1.258-5.729,1.258-5.729h.015c.141-.009,1.255-.14,1.674-2.162.483-2.368,1.207-3.344,1.121-5.129-.086-1.648-.948-1.733-1.051-1.733-.104,0,.896-2.487,1.017-7.737.155-6.194-4.619-12.317-13.599-12.317s-13.738,6.106-13.599,12.317c.09,4.549.805,7.037.99,7.608l.024.071.02.057c-.086,0-.948.085-1.051,1.733-.086,1.766.654,2.71,1.121,5.077.447,2.161,1.689,2.195,1.689,2.195,0,0,.654,4.203,1.258,5.748.604,1.543,1.724,3.276,1.724,3.276,0,0,.086,1.607.105,3.336l.002.473c.005,1.66-.067,3.308-.348,3.653-.603.72-2.413,1.406-3.654,1.681-2.172.48-5.551.789-7.912,1.63-1.861.662-6.787,2.562-8.788,6.194h-19.603v-67.551h96.036ZM354.677,97.949v67.551h-19.377c-1.985-3.66-6.878-5.566-8.725-6.229-2.34-.841-5.704-1.132-7.839-1.596-1.23-.275-3.023-.96-3.621-1.681-.597-.721-.239-7.462-.239-7.462,0,0,1.11-1.75,1.708-3.277.598-1.526,1.247-5.729,1.247-5.729h.015c.141-.009,1.243-.14,1.659-2.162.478-2.368,1.196-3.344,1.11-5.129-.085-1.648-.939-1.733-1.042-1.733s.888-2.487,1.008-7.737c.154-6.194-4.577-12.317-13.474-12.317s-13.611,6.106-13.475,12.317c.102,5.231,1.025,7.737,1.025,7.737-.085,0-.939.085-1.042,1.733-.085,1.766.649,2.71,1.11,5.077.444,2.161,1.674,2.195,1.674,2.195,0,0,.22,1.43.522,2.929l.088.429c.198.928.42,1.833.635,2.39.598,1.543,1.709,3.276,1.709,3.276,0,0,.359,6.724-.239,7.462-.597.72-2.391,1.406-3.621,1.681-2.15.48-5.498.789-7.838,1.63-1.845.662-6.725,2.562-8.709,6.194h-19.423v-67.551h95.154-.002ZM455.998,97.949v67.551h-19.377c-1.985-3.66-6.878-5.566-8.725-6.229-2.34-.841-5.704-1.132-7.839-1.596-1.23-.275-3.023-.96-3.621-1.681-.597-.721-.239-7.462-.239-7.462,0,0,1.11-1.75,1.708-3.277.598-1.526,1.247-5.729,1.247-5.729h.015c.141-.009,1.243-.14,1.659-2.162.478-2.368,1.196-3.344,1.11-5.129-.085-1.648-.939-1.733-1.042-1.733s.888-2.487,1.008-7.737c.154-6.194-4.577-12.317-13.474-12.317s-13.611,6.106-13.475,12.317c.102,5.231,1.025,7.737,1.025,7.737-.085,0-.939.085-1.042,1.733-.085,1.766.649,2.71,1.11,5.077.444,2.161,1.674,2.195,1.674,2.195,0,0,.22,1.43.522,2.929l.088.429c.198.928.42,1.833.635,2.39.598,1.543,1.709,3.276,1.709,3.276,0,0,.359,6.724-.239,7.462-.597.72-2.391,1.406-3.621,1.681-2.15.48-5.498.789-7.838,1.63-1.845.662-6.725,2.562-8.709,6.194h-19.423v-67.551h95.154-.002ZM253.356,180.798v67.551h-19.556c-2.003-3.66-6.942-5.566-8.807-6.229-2.361-.841-5.757-1.132-7.911-1.595-1.241-.275-3.051-.961-3.654-1.682s-.241-7.462-.241-7.462c0,0,1.12-1.75,1.724-3.276s1.258-5.729,1.258-5.729h.015c.141-.009,1.255-.139,1.674-2.161.483-2.368,1.207-3.345,1.121-5.13-.086-1.648-.948-1.733-1.051-1.733-.104,0,.896-2.487,1.017-7.736.155-6.194-4.619-12.318-13.599-12.318s-13.738,6.108-13.599,12.317c.09,4.549.805,7.037.99,7.609l.024.07.02.057c-.086,0-.948.086-1.051,1.733-.086,1.766.654,2.71,1.121,5.077.447,2.162,1.689,2.196,1.689,2.196,0,0,.654,4.203,1.258,5.746s1.724,3.277,1.724,3.277c0,0,.086,1.606.105,3.336l.002.474c.005,1.66-.067,3.307-.348,3.652-.603.721-2.413,1.407-3.654,1.681-2.172.48-5.551.789-7.912,1.63-1.861.662-6.787,2.562-8.788,6.195h-19.603v-67.551h96.036ZM253.356,263.648v67.551h-19.556c-2.003-3.66-6.942-5.565-8.807-6.229-2.361-.841-5.757-1.132-7.911-1.595-1.241-.275-3.051-.96-3.654-1.682-.604-.72-.241-7.462-.241-7.462,0,0,1.12-1.749,1.724-3.276s1.258-5.73,1.258-5.73h.015c.141-.009,1.255-.139,1.674-2.161.483-2.368,1.207-3.345,1.121-5.13-.086-1.647-.948-1.732-1.051-1.732-.104,0,.896-2.488,1.017-7.737.155-6.193-4.619-12.317-13.599-12.317s-13.738,6.108-13.599,12.317c.09,4.549.805,7.037.99,7.609l.024.071.02.057c-.086,0-.948.085-1.051,1.732-.086,1.768.654,2.711,1.121,5.078.447,2.161,1.689,2.195,1.689,2.195,0,0,.654,4.203,1.258,5.748.604,1.543,1.724,3.276,1.724,3.276,0,0,.086,1.607.105,3.336l.002.474c.005,1.66-.067,3.308-.348,3.652-.603.721-2.413,1.407-3.654,1.682-2.172.48-5.551.789-7.912,1.63-1.861.661-6.787,2.562-8.788,6.194h-19.603v-67.551h96.036ZM253.356,346.498v67.551h-19.556c-2.003-3.66-6.942-5.566-8.807-6.229-2.361-.841-5.757-1.132-7.911-1.596-1.241-.275-3.051-.96-3.654-1.681s-.241-7.462-.241-7.462c0,0,1.12-1.75,1.724-3.276s1.258-5.729,1.258-5.729h.015c.141-.009,1.255-.14,1.674-2.162.483-2.368,1.207-3.344,1.121-5.129-.086-1.648-.948-1.733-1.051-1.733-.104,0,.896-2.487,1.017-7.737.155-6.194-4.619-12.317-13.599-12.317s-13.738,6.106-13.599,12.317c.09,4.549.805,7.037.99,7.608l.024.071.02.057c-.086,0-.948.085-1.051,1.733-.086,1.766.654,2.71,1.121,5.077.447,2.161,1.689,2.195,1.689,2.195,0,0,.654,4.203,1.258,5.748.604,1.543,1.724,3.276,1.724,3.276,0,0,.086,1.607.105,3.336l.002.473c.005,1.66-.067,3.308-.348,3.653-.603.72-2.413,1.406-3.654,1.681-2.172.48-5.551.789-7.912,1.63-1.861.662-6.787,2.562-8.788,6.194h-19.603v-67.551h96.036ZM354.677,180.798v67.551h-19.377c-1.985-3.66-6.878-5.566-8.725-6.229-2.34-.841-5.704-1.132-7.839-1.595-1.23-.275-3.023-.961-3.621-1.682-.597-.721-.239-7.462-.239-7.462,0,0,1.11-1.75,1.708-3.276.598-1.527,1.247-5.729,1.247-5.729h.015c.141-.009,1.243-.139,1.659-2.161.478-2.368,1.196-3.345,1.11-5.13-.085-1.648-.939-1.733-1.042-1.733s.888-2.487,1.008-7.736c.154-6.194-4.577-12.318-13.474-12.318s-13.611,6.108-13.475,12.317c.102,5.232,1.025,7.737,1.025,7.737-.085,0-.939.086-1.042,1.733-.085,1.766.649,2.71,1.11,5.077.444,2.162,1.674,2.196,1.674,2.196,0,0,.22,1.43.522,2.928l.088.429c.198.928.42,1.833.635,2.39.598,1.544,1.709,3.277,1.709,3.277,0,0,.359,6.724-.239,7.462-.597.721-2.391,1.407-3.621,1.681-2.15.48-5.498.789-7.838,1.63-1.845.662-6.725,2.562-8.709,6.194h-19.423v-67.55h95.154l-.002-.002ZM455.998,180.798v67.551h-19.377c-1.985-3.66-6.878-5.566-8.725-6.229-2.34-.841-5.704-1.132-7.839-1.595-1.23-.275-3.023-.961-3.621-1.682-.597-.721-.239-7.462-.239-7.462,0,0,1.11-1.75,1.708-3.276.598-1.527,1.247-5.729,1.247-5.729h.015c.141-.009,1.243-.139,1.659-2.161.478-2.368,1.196-3.345,1.11-5.13-.085-1.648-.939-1.733-1.042-1.733s.888-2.487,1.008-7.736c.154-6.194-4.577-12.318-13.474-12.318s-13.611,6.108-13.475,12.317c.102,5.232,1.025,7.737,1.025,7.737-.085,0-.939.086-1.042,1.733-.085,1.766.649,2.71,1.11,5.077.444,2.162,1.674,2.196,1.674,2.196,0,0,.22,1.43.522,2.928l.088.429c.198.928.42,1.833.635,2.39.598,1.544,1.709,3.277,1.709,3.277,0,0,.359,6.724-.239,7.462-.597.721-2.391,1.407-3.621,1.681-2.15.48-5.498.789-7.838,1.63-1.845.662-6.725,2.562-8.709,6.194h-19.423v-67.55h95.154l-.002-.002ZM354.677,263.648v67.551h-19.377c-1.985-3.66-6.878-5.565-8.725-6.229-2.34-.841-5.704-1.132-7.839-1.595-1.23-.275-3.023-.96-3.621-1.682-.597-.72-.239-7.462-.239-7.462,0,0,1.11-1.749,1.708-3.276.598-1.527,1.247-5.73,1.247-5.73h.015c.141-.009,1.243-.139,1.659-2.161.478-2.368,1.196-3.345,1.11-5.13-.085-1.647-.939-1.732-1.042-1.732s.888-2.488,1.008-7.737c.154-6.193-4.577-12.317-13.474-12.317s-13.611,6.108-13.475,12.317c.102,5.232,1.025,7.737,1.025,7.737-.085,0-.939.085-1.042,1.732-.085,1.768.649,2.711,1.11,5.078.444,2.161,1.674,2.195,1.674,2.195,0,0,.22,1.43.522,2.929l.088.428c.198.928.42,1.833.635,2.391.598,1.543,1.709,3.276,1.709,3.276,0,0,.359,6.724-.239,7.462-.597.72-2.391,1.406-3.621,1.681-2.15.48-5.498.789-7.838,1.63-1.845.661-6.725,2.561-8.709,6.194h-19.423v-67.551h95.154-.002ZM354.677,346.498v67.551h-19.377c-1.985-3.66-6.878-5.566-8.725-6.229-2.34-.841-5.704-1.132-7.839-1.596-1.23-.275-3.023-.96-3.621-1.681-.597-.721-.239-7.462-.239-7.462,0,0,1.11-1.75,1.708-3.276.598-1.527,1.247-5.729,1.247-5.729h.015c.141-.009,1.243-.14,1.659-2.162.478-2.368,1.196-3.344,1.11-5.129-.085-1.648-.939-1.733-1.042-1.733s.888-2.487,1.008-7.737c.154-6.194-4.577-12.317-13.474-12.317s-13.611,6.106-13.475,12.317c.102,5.231,1.025,7.737,1.025,7.737-.085,0-.939.085-1.042,1.733-.085,1.766.649,2.71,1.11,5.077.444,2.161,1.674,2.195,1.674,2.195,0,0,.22,1.431.522,2.929l.088.429c.198.928.42,1.833.635,2.39.598,1.543,1.709,3.276,1.709,3.276,0,0,.359,6.724-.239,7.462-.597.72-2.391,1.406-3.621,1.681-2.15.48-5.498.789-7.838,1.63-1.845.662-6.725,2.562-8.709,6.194h-19.423v-67.551h95.154-.002ZM455.998,263.648v67.551h-19.377c-1.985-3.66-6.878-5.565-8.725-6.229-2.34-.841-5.704-1.132-7.839-1.595-1.23-.275-3.023-.96-3.621-1.682-.597-.72-.239-7.462-.239-7.462,0,0,1.11-1.749,1.708-3.276.598-1.527,1.247-5.73,1.247-5.73h.015c.141-.009,1.243-.139,1.659-2.161.478-2.368,1.196-3.345,1.11-5.13-.085-1.647-.939-1.732-1.042-1.732s.888-2.488,1.008-7.737c.154-6.193-4.577-12.317-13.474-12.317s-13.611,6.108-13.475,12.317c.102,5.232,1.025,7.737,1.025,7.737-.085,0-.939.085-1.042,1.732-.085,1.768.649,2.711,1.11,5.078.444,2.161,1.674,2.195,1.674,2.195,0,0,.22,1.43.522,2.929l.088.428c.198.928.42,1.833.635,2.391.598,1.543,1.709,3.276,1.709,3.276,0,0,.359,6.724-.239,7.462-.597.72-2.391,1.406-3.621,1.681-2.15.48-5.498.789-7.838,1.63-1.845.661-6.725,2.561-8.709,6.194h-19.423v-67.551h95.154-.002ZM455.998,346.498v67.551h-19.377c-1.985-3.66-6.878-5.566-8.725-6.229-2.34-.841-5.704-1.132-7.839-1.596-1.23-.275-3.023-.96-3.621-1.681-.597-.721-.239-7.462-.239-7.462,0,0,1.11-1.75,1.708-3.276.598-1.527,1.247-5.729,1.247-5.729h.015c.141-.009,1.243-.14,1.659-2.162.478-2.368,1.196-3.344,1.11-5.129-.085-1.648-.939-1.733-1.042-1.733s.888-2.487,1.008-7.737c.154-6.194-4.577-12.317-13.474-12.317s-13.611,6.106-13.475,12.317c.102,5.231,1.025,7.737,1.025,7.737-.085,0-.939.085-1.042,1.733-.085,1.766.649,2.71,1.11,5.077.444,2.161,1.674,2.195,1.674,2.195,0,0,.22,1.431.522,2.929l.088.429c.198.928.42,1.833.635,2.39.598,1.543,1.709,3.276,1.709,3.276,0,0,.359,6.724-.239,7.462-.597.72-2.391,1.406-3.621,1.681-2.15.48-5.498.789-7.838,1.63-1.845.662-6.725,2.562-8.709,6.194h-19.423v-67.551h95.154-.002Z"/>
</svg>