<svg xmlns="http://www.w3.org/2000/svg" width="512" height="512" viewBox="0 0 512 512">
    <path fill-rule="evenodd" d="M137 76.613v76.671h-21.993c-2.253-4.155-7.806-6.317-9.903-7.07-2.656-.954-6.474-1.285-8.897-1.811-1.396-.312-3.431-1.09-4.11-1.908-.678-.818-.271-8.47-.271-8.47s1.26-1.986 1.938-3.72c.679-1.732 1.415-6.502 1.415-6.502l.017-.001c.16-.01 1.411-.158 1.883-2.453.543-2.687 1.357-3.796 1.26-5.821-.097-1.87-1.066-1.967-1.183-1.967-.116 0 1.008-2.823 1.144-8.781.175-7.03-5.195-13.98-15.293-13.98-10.1 0-15.449 6.931-15.294 13.98.116 5.938 1.163 8.781 1.163 8.781-.097 0-1.066.097-1.182 1.967-.097 2.005.736 3.076 1.26 5.763.504 2.453 1.9 2.492 1.9 2.492s.25 1.623.593 3.324l.1.487c.224 1.053.476 2.08.721 2.712.679 1.752 1.939 3.719 1.939 3.719s.407 7.632-.272 8.47c-.678.817-2.714 1.596-4.11 1.908-2.441.545-6.24.895-8.896 1.85-2.094.752-7.633 2.908-9.884 7.03L29 153.285V76.613zm0 94.034v76.671h-21.993c-2.253-4.155-7.806-6.317-9.903-7.07-2.656-.954-6.474-1.285-8.897-1.81-1.396-.312-3.431-1.091-4.11-1.909-.678-.818-.271-8.47-.271-8.47s1.26-1.986 1.938-3.719c.679-1.733 1.415-6.503 1.415-6.503h.017c.16-.01 1.411-.158 1.883-2.453.543-2.687 1.357-3.797 1.26-5.822-.097-1.87-1.066-1.967-1.183-1.967-.116 0 1.008-2.823 1.144-8.78.175-7.03-5.195-13.981-15.293-13.981-10.1 0-15.449 6.932-15.294 13.98.116 5.939 1.163 8.781 1.163 8.781-.097 0-1.066.098-1.182 1.967-.097 2.005.736 3.076 1.26 5.763.504 2.454 1.9 2.493 1.9 2.493s.25 1.623.593 3.323l.1.487c.224 1.053.476 2.08.721 2.712.679 1.753 1.939 3.72 1.939 3.72s.407 7.632-.272 8.469c-.678.818-2.714 1.597-4.11 1.908-2.441.545-6.24.896-8.896 1.85-2.094.752-7.633 2.908-9.884 7.03L29 247.319v-76.67h108zm0 94.035v76.67h-21.993c-2.253-4.155-7.806-6.316-9.903-7.07-2.656-.954-6.474-1.285-8.897-1.81-1.396-.312-3.431-1.09-4.11-1.909-.678-.817-.271-8.47-.271-8.47s1.26-1.985 1.938-3.718c.679-1.733 1.415-6.504 1.415-6.504h.017c.16-.01 1.411-.158 1.883-2.453.543-2.687 1.357-3.797 1.26-5.822-.097-1.869-1.066-1.966-1.183-1.966-.116 0 1.008-2.824 1.144-8.782.175-7.029-5.195-13.98-15.293-13.98-10.1 0-15.449 6.932-15.294 13.98.116 5.939 1.163 8.782 1.163 8.782-.097 0-1.066.097-1.182 1.966-.097 2.006.736 3.077 1.26 5.764.504 2.453 1.9 2.492 1.9 2.492s.25 1.623.593 3.324l.1.486c.224 1.053.476 2.08.721 2.713.679 1.752 1.939 3.719 1.939 3.719s.407 7.632-.272 8.47c-.678.817-2.714 1.596-4.11 1.908-2.441.545-6.24.895-8.896 1.85-2.094.751-7.633 2.907-9.884 7.03H29v-76.67zm0 94.034v76.671h-21.993c-2.253-4.155-7.806-6.317-9.903-7.07-2.656-.954-6.474-1.285-8.897-1.811-1.396-.312-3.431-1.09-4.11-1.908-.678-.818-.271-8.47-.271-8.47s1.26-1.986 1.938-3.719c.679-1.733 1.415-6.503 1.415-6.503h.017c.16-.01 1.411-.159 1.883-2.454.543-2.687 1.357-3.796 1.26-5.821-.097-1.87-1.066-1.967-1.183-1.967-.116 0 1.008-2.823 1.144-8.781.175-7.03-5.195-13.98-15.293-13.98-10.1 0-15.449 6.931-15.294 13.98.116 5.938 1.163 8.781 1.163 8.781-.097 0-1.066.097-1.182 1.967-.097 2.005.736 3.076 1.26 5.763.504 2.453 1.9 2.492 1.9 2.492s.25 1.624.593 3.324l.1.487c.224 1.053.476 2.08.721 2.712.679 1.752 1.939 3.719 1.939 3.719s.407 7.632-.272 8.47c-.678.817-2.714 1.596-4.11 1.908-2.441.545-6.24.896-8.896 1.85-2.094.752-7.633 2.908-9.884 7.03L29 435.388v-76.671zM253 76.613v76.671h-22.196c-2.274-4.155-7.88-6.317-9.996-7.07-2.68-.954-6.534-1.285-8.979-1.811-1.409-.312-3.463-1.09-4.147-1.908-.685-.818-.274-8.47-.274-8.47s1.271-1.986 1.956-3.72c.685-1.732 1.428-6.502 1.428-6.502l.017-.001c.161-.01 1.424-.158 1.9-2.453.548-2.687 1.37-3.796 1.272-5.821-.098-1.87-1.076-1.967-1.193-1.967-.118 0 1.017-2.823 1.154-8.781.176-7.03-5.243-13.98-15.435-13.98-10.193 0-15.592 6.931-15.435 13.98.102 5.164.914 7.987 1.124 8.635l.027.081.022.065c-.098 0-1.076.097-1.193 1.967-.098 2.005.743 3.076 1.272 5.763.508 2.453 1.917 2.492 1.917 2.492s.743 4.77 1.428 6.523c.685 1.752 1.956 3.719 1.956 3.719s.098 1.824.119 3.787l.003.537c.005 1.884-.076 3.755-.396 4.146-.684.817-2.739 1.596-4.147 1.908-2.465.545-6.3.895-8.98 1.85-2.112.752-7.703 2.908-9.975 7.03l-22.249.001V76.613zm115 0v76.671h-21.993c-2.253-4.155-7.806-6.317-9.903-7.07-2.656-.954-6.474-1.285-8.897-1.811-1.396-.312-3.431-1.09-4.11-1.908-.678-.818-.271-8.47-.271-8.47s1.26-1.986 1.938-3.72c.679-1.732 1.415-6.502 1.415-6.502l.017-.001c.16-.01 1.411-.158 1.883-2.453.543-2.687 1.357-3.796 1.26-5.821-.097-1.87-1.066-1.967-1.183-1.967-.116 0 1.008-2.823 1.144-8.781.175-7.03-5.195-13.98-15.293-13.98-10.1 0-15.449 6.931-15.294 13.98.116 5.938 1.163 8.781 1.163 8.781-.097 0-1.066.097-1.182 1.967-.097 2.005.736 3.076 1.26 5.763.504 2.453 1.9 2.492 1.9 2.492s.25 1.623.593 3.324l.1.487c.224 1.053.476 2.08.721 2.712.679 1.752 1.939 3.719 1.939 3.719s.407 7.632-.272 8.47c-.678.817-2.714 1.596-4.11 1.908-2.441.545-6.24.895-8.896 1.85-2.094.752-7.633 2.908-9.884 7.03l-22.045.001V76.613zm115 0v76.671h-21.993c-2.253-4.155-7.806-6.317-9.903-7.07-2.656-.954-6.474-1.285-8.897-1.811-1.396-.312-3.431-1.09-4.11-1.908-.678-.818-.271-8.47-.271-8.47s1.26-1.986 1.938-3.72c.679-1.732 1.415-6.502 1.415-6.502l.017-.001c.16-.01 1.411-.158 1.883-2.453.543-2.687 1.357-3.796 1.26-5.821-.097-1.87-1.066-1.967-1.183-1.967-.116 0 1.008-2.823 1.144-8.781.175-7.03-5.195-13.98-15.293-13.98-10.1 0-15.449 6.931-15.294 13.98.116 5.938 1.163 8.781 1.163 8.781-.097 0-1.066.097-1.182 1.967-.097 2.005.736 3.076 1.26 5.763.504 2.453 1.9 2.492 1.9 2.492s.25 1.623.593 3.324l.1.487c.224 1.053.476 2.08.721 2.712.679 1.752 1.939 3.719 1.939 3.719s.407 7.632-.272 8.47c-.678.817-2.714 1.596-4.11 1.908-2.441.545-6.24.895-8.896 1.85-2.094.752-7.633 2.908-9.884 7.03l-22.045.001V76.613zm-230 94.034v76.671h-22.196c-2.274-4.155-7.88-6.317-9.996-7.07-2.68-.954-6.534-1.285-8.979-1.81-1.409-.312-3.463-1.091-4.147-1.909-.685-.818-.274-8.47-.274-8.47s1.271-1.986 1.956-3.719c.685-1.733 1.428-6.503 1.428-6.503h.017c.161-.01 1.424-.158 1.9-2.453.548-2.687 1.37-3.797 1.272-5.822-.098-1.87-1.076-1.967-1.193-1.967-.118 0 1.017-2.823 1.154-8.78.176-7.03-5.243-13.981-15.435-13.981-10.193 0-15.592 6.932-15.435 13.98.102 5.164.914 7.987 1.124 8.636l.027.08.022.065c-.098 0-1.076.098-1.193 1.967-.098 2.005.743 3.076 1.272 5.763.508 2.454 1.917 2.493 1.917 2.493s.743 4.77 1.428 6.522c.685 1.753 1.956 3.72 1.956 3.72s.098 1.823.119 3.786l.003.538c.005 1.884-.076 3.754-.396 4.145-.684.818-2.739 1.597-4.147 1.908-2.465.545-6.3.896-8.98 1.85-2.112.752-7.703 2.908-9.975 7.031H144v-76.67zm0 94.035v76.67h-22.196c-2.274-4.155-7.88-6.316-9.996-7.07-2.68-.954-6.534-1.285-8.979-1.81-1.409-.312-3.463-1.09-4.147-1.909-.685-.817-.274-8.47-.274-8.47s1.271-1.985 1.956-3.718c.685-1.733 1.428-6.504 1.428-6.504h.017c.161-.01 1.424-.158 1.9-2.453.548-2.687 1.37-3.797 1.272-5.822-.098-1.869-1.076-1.966-1.193-1.966-.118 0 1.017-2.824 1.154-8.782.176-7.029-5.243-13.98-15.435-13.98-10.193 0-15.592 6.932-15.435 13.98.102 5.164.914 7.987 1.124 8.636l.027.081.022.065c-.098 0-1.076.097-1.193 1.966-.098 2.006.743 3.077 1.272 5.764.508 2.453 1.917 2.492 1.917 2.492s.743 4.77 1.428 6.523c.685 1.752 1.956 3.719 1.956 3.719s.098 1.824.119 3.786l.003.538c.005 1.884-.076 3.755-.396 4.145-.684.818-2.739 1.597-4.147 1.909-2.465.545-6.3.895-8.98 1.85-2.112.751-7.703 2.908-9.975 7.03H144v-76.67zm0 94.034v76.671h-22.196c-2.274-4.155-7.88-6.317-9.996-7.07-2.68-.954-6.534-1.285-8.979-1.811-1.409-.312-3.463-1.09-4.147-1.908-.685-.818-.274-8.47-.274-8.47s1.271-1.986 1.956-3.719c.685-1.733 1.428-6.503 1.428-6.503h.017c.161-.01 1.424-.159 1.9-2.454.548-2.687 1.37-3.796 1.272-5.821-.098-1.87-1.076-1.967-1.193-1.967-.118 0 1.017-2.823 1.154-8.781.176-7.03-5.243-13.98-15.435-13.98-10.193 0-15.592 6.931-15.435 13.98.102 5.164.914 7.987 1.124 8.635l.027.081.022.065c-.098 0-1.076.097-1.193 1.967-.098 2.005.743 3.076 1.272 5.763.508 2.453 1.917 2.492 1.917 2.492s.743 4.77 1.428 6.523c.685 1.752 1.956 3.719 1.956 3.719s.098 1.824.119 3.787l.003.537c.005 1.884-.076 3.755-.396 4.146-.684.817-2.739 1.596-4.147 1.908-2.465.545-6.3.896-8.98 1.85-2.112.752-7.703 2.908-9.975 7.03l-22.249.001v-76.671zm115-188.069v76.671h-21.993c-2.253-4.155-7.806-6.317-9.903-7.07-2.656-.954-6.474-1.285-8.897-1.81-1.396-.312-3.431-1.091-4.11-1.909-.678-.818-.271-8.47-.271-8.47s1.26-1.986 1.938-3.719c.679-1.733 1.415-6.503 1.415-6.503h.017c.16-.01 1.411-.158 1.883-2.453.543-2.687 1.357-3.797 1.26-5.822-.097-1.87-1.066-1.967-1.183-1.967-.116 0 1.008-2.823 1.144-8.78.175-7.03-5.195-13.981-15.293-13.981-10.1 0-15.449 6.932-15.294 13.98.116 5.939 1.163 8.781 1.163 8.781-.097 0-1.066.098-1.182 1.967-.097 2.005.736 3.076 1.26 5.763.504 2.454 1.9 2.493 1.9 2.493s.25 1.623.593 3.323l.1.487c.224 1.053.476 2.08.721 2.712.679 1.753 1.939 3.72 1.939 3.72s.407 7.632-.272 8.469c-.678.818-2.714 1.597-4.11 1.908-2.441.545-6.24.896-8.896 1.85-2.094.752-7.633 2.908-9.884 7.03l-22.045.001v-76.67h108zm115 0v76.671h-21.993c-2.253-4.155-7.806-6.317-9.903-7.07-2.656-.954-6.474-1.285-8.897-1.81-1.396-.312-3.431-1.091-4.11-1.909-.678-.818-.271-8.47-.271-8.47s1.26-1.986 1.938-3.719c.679-1.733 1.415-6.503 1.415-6.503h.017c.16-.01 1.411-.158 1.883-2.453.543-2.687 1.357-3.797 1.26-5.822-.097-1.87-1.066-1.967-1.183-1.967-.116 0 1.008-2.823 1.144-8.78.175-7.03-5.195-13.981-15.293-13.981-10.1 0-15.449 6.932-15.294 13.98.116 5.939 1.163 8.781 1.163 8.781-.097 0-1.066.098-1.182 1.967-.097 2.005.736 3.076 1.26 5.763.504 2.454 1.9 2.493 1.9 2.493s.25 1.623.593 3.323l.1.487c.224 1.053.476 2.08.721 2.712.679 1.753 1.939 3.72 1.939 3.72s.407 7.632-.272 8.469c-.678.818-2.714 1.597-4.11 1.908-2.441.545-6.24.896-8.896 1.85-2.094.752-7.633 2.908-9.884 7.03l-22.045.001v-76.67h108zm-115 94.035v76.67h-21.993c-2.253-4.155-7.806-6.316-9.903-7.07-2.656-.954-6.474-1.285-8.897-1.81-1.396-.312-3.431-1.09-4.11-1.909-.678-.817-.271-8.47-.271-8.47s1.26-1.985 1.938-3.718c.679-1.733 1.415-6.504 1.415-6.504h.017c.16-.01 1.411-.158 1.883-2.453.543-2.687 1.357-3.797 1.26-5.822-.097-1.869-1.066-1.966-1.183-1.966-.116 0 1.008-2.824 1.144-8.782.175-7.029-5.195-13.98-15.293-13.98-10.1 0-15.449 6.932-15.294 13.98.116 5.939 1.163 8.782 1.163 8.782-.097 0-1.066.097-1.182 1.966-.097 2.006.736 3.077 1.26 5.764.504 2.453 1.9 2.492 1.9 2.492s.25 1.623.593 3.324l.1.486c.224 1.053.476 2.08.721 2.713.679 1.752 1.939 3.719 1.939 3.719s.407 7.632-.272 8.47c-.678.817-2.714 1.596-4.11 1.908-2.441.545-6.24.895-8.896 1.85-2.094.751-7.633 2.907-9.884 7.03H260v-76.67zm0 94.034v76.671h-21.993c-2.253-4.155-7.806-6.317-9.903-7.07-2.656-.954-6.474-1.285-8.897-1.811-1.396-.312-3.431-1.09-4.11-1.908-.678-.818-.271-8.47-.271-8.47s1.26-1.986 1.938-3.719c.679-1.733 1.415-6.503 1.415-6.503h.017c.16-.01 1.411-.159 1.883-2.454.543-2.687 1.357-3.796 1.26-5.821-.097-1.87-1.066-1.967-1.183-1.967-.116 0 1.008-2.823 1.144-8.781.175-7.03-5.195-13.98-15.293-13.98-10.1 0-15.449 6.931-15.294 13.98.116 5.938 1.163 8.781 1.163 8.781-.097 0-1.066.097-1.182 1.967-.097 2.005.736 3.076 1.26 5.763.504 2.453 1.9 2.492 1.9 2.492s.25 1.624.593 3.324l.1.487c.224 1.053.476 2.08.721 2.712.679 1.752 1.939 3.719 1.939 3.719s.407 7.632-.272 8.47c-.678.817-2.714 1.596-4.11 1.908-2.441.545-6.24.896-8.896 1.85-2.094.752-7.633 2.908-9.884 7.03l-22.045.001v-76.671zm115-94.034v76.67h-21.993c-2.253-4.155-7.806-6.316-9.903-7.07-2.656-.954-6.474-1.285-8.897-1.81-1.396-.312-3.431-1.09-4.11-1.909-.678-.817-.271-8.47-.271-8.47s1.26-1.985 1.938-3.718c.679-1.733 1.415-6.504 1.415-6.504h.017c.16-.01 1.411-.158 1.883-2.453.543-2.687 1.357-3.797 1.26-5.822-.097-1.869-1.066-1.966-1.183-1.966-.116 0 1.008-2.824 1.144-8.782.175-7.029-5.195-13.98-15.293-13.98-10.1 0-15.449 6.932-15.294 13.98.116 5.939 1.163 8.782 1.163 8.782-.097 0-1.066.097-1.182 1.966-.097 2.006.736 3.077 1.26 5.764.504 2.453 1.9 2.492 1.9 2.492s.25 1.623.593 3.324l.1.486c.224 1.053.476 2.08.721 2.713.679 1.752 1.939 3.719 1.939 3.719s.407 7.632-.272 8.47c-.678.817-2.714 1.596-4.11 1.908-2.441.545-6.24.895-8.896 1.85-2.094.751-7.633 2.907-9.884 7.03H375v-76.67zm0 94.034v76.671h-21.993c-2.253-4.155-7.806-6.317-9.903-7.07-2.656-.954-6.474-1.285-8.897-1.811-1.396-.312-3.431-1.09-4.11-1.908-.678-.818-.271-8.47-.271-8.47s1.26-1.986 1.938-3.719c.679-1.733 1.415-6.503 1.415-6.503h.017c.16-.01 1.411-.159 1.883-2.454.543-2.687 1.357-3.796 1.26-5.821-.097-1.87-1.066-1.967-1.183-1.967-.116 0 1.008-2.823 1.144-8.781.175-7.03-5.195-13.98-15.293-13.98-10.1 0-15.449 6.931-15.294 13.98.116 5.938 1.163 8.781 1.163 8.781-.097 0-1.066.097-1.182 1.967-.097 2.005.736 3.076 1.26 5.763.504 2.453 1.9 2.492 1.9 2.492s.25 1.624.593 3.324l.1.487c.224 1.053.476 2.08.721 2.712.679 1.752 1.939 3.719 1.939 3.719s.407 7.632-.272 8.47c-.678.817-2.714 1.596-4.11 1.908-2.441.545-6.24.896-8.896 1.85-2.094.752-7.633 2.908-9.884 7.03l-22.045.001v-76.671z"/>
</svg>
