<svg xmlns="http://www.w3.org/2000/svg" width="512" height="512" viewBox="0 0 512 512">
    <path fill-rule="evenodd" d="M248.98 88v159h-45.814c-4.693-8.617-16.263-13.1-20.631-14.663-5.532-1.978-13.487-2.665-18.534-3.755-2.907-.646-7.147-2.261-8.56-3.957-.624-.748-.807-4.255-.817-7.94v-.74c.014-4.437.251-8.885.251-8.885s2.625-4.118 4.038-7.712c.551-1.4 1.12-3.759 1.61-6.115l.126-.614a171 171 0 0 0 1.212-6.757h.013c.208-.008 2.935-.196 3.944-5.088 1.13-5.572 2.827-7.874 2.625-12.073-.202-3.876-2.221-4.078-2.463-4.078-.243 0 2.1-5.855 2.382-18.21.363-14.577-10.822-28.992-31.859-28.992s-32.181 14.374-31.858 28.991c.242 12.316 2.423 18.21 2.423 18.21-.202 0-2.221.203-2.464 4.079-.201 4.159 1.535 6.38 2.625 11.952 1.05 5.088 3.957 5.168 3.957 5.168s.571 3.684 1.338 7.38l.13.616.132.613c.425 1.929.893 3.748 1.348 4.918 1.413 3.634 4.038 7.712 4.038 7.712s.237 4.437.251 8.87v.738c-.01 3.682-.193 7.191-.817 7.957-1.413 1.696-5.653 3.311-8.56 3.957-5.088 1.13-13.002 1.858-18.534 3.836-4.36 1.56-15.9 6.031-20.588 14.581H24V88zm0 177v159h-45.814c-4.693-8.617-16.263-13.1-20.631-14.663-5.532-1.978-13.487-2.665-18.534-3.755-2.907-.646-7.147-2.261-8.56-3.957-.624-.748-.807-4.255-.817-7.94v-.74c.014-4.437.251-8.885.251-8.885s2.625-4.118 4.038-7.712c.551-1.4 1.12-3.759 1.61-6.115l.126-.614a171 171 0 0 0 1.212-6.757h.013c.208-.008 2.935-.196 3.944-5.088 1.13-5.572 2.827-7.874 2.625-12.073-.202-3.876-2.221-4.078-2.463-4.078-.243 0 2.1-5.855 2.382-18.21.363-14.578-10.822-28.993-31.859-28.993s-32.181 14.375-31.858 28.992c.242 12.315 2.423 18.21 2.423 18.21-.202 0-2.221.203-2.464 4.079-.201 4.159 1.535 6.38 2.625 11.952 1.05 5.088 3.957 5.168 3.957 5.168s.571 3.683 1.338 7.38l.13.616.132.612c.425 1.93.893 3.749 1.348 4.92 1.413 3.633 4.038 7.711 4.038 7.711s.237 4.437.251 8.87v.738c-.01 3.682-.193 7.19-.817 7.957-1.413 1.696-5.653 3.311-8.56 3.957-5.088 1.13-13.002 1.857-18.534 3.836-4.36 1.56-15.9 6.031-20.588 14.581H24V265zM488 88v159h-45.813c-4.694-8.617-16.263-13.1-20.632-14.663-5.531-1.978-13.486-2.665-18.533-3.755-2.908-.646-7.147-2.261-8.56-3.957-.624-.748-.807-4.255-.818-7.94v-.74c.015-4.437.252-8.885.252-8.885s2.625-4.118 4.038-7.712c.551-1.4 1.12-3.759 1.61-6.115l.126-.614a171 171 0 0 0 1.212-6.757h.012c.209-.008 2.935-.196 3.945-5.088 1.13-5.572 2.826-7.874 2.624-12.073-.202-3.876-2.22-4.078-2.463-4.078s2.1-5.855 2.383-18.21c.363-14.577-10.822-28.992-31.859-28.992s-32.181 14.374-31.858 28.991c.242 12.316 2.422 18.21 2.422 18.21-.202 0-2.22.203-2.463 4.079-.202 4.159 1.535 6.38 2.625 11.952 1.05 5.088 3.957 5.168 3.957 5.168s.571 3.684 1.338 7.38l.129.616.133.613c.425 1.929.892 3.748 1.347 4.918 1.414 3.634 4.038 7.712 4.038 7.712s.238 4.437.252 8.87v.738c-.01 3.682-.194 7.191-.817 7.957-1.413 1.696-5.653 3.311-8.56 3.957-5.088 1.13-13.002 1.858-18.534 3.836-4.361 1.56-15.9 6.031-20.589 14.581h-45.923V88zm0 177v159h-45.813c-4.694-8.617-16.263-13.1-20.632-14.663-5.531-1.978-13.486-2.665-18.533-3.755-2.908-.646-7.147-2.261-8.56-3.957-.624-.748-.807-4.255-.818-7.94v-.74c.015-4.437.252-8.885.252-8.885s2.625-4.118 4.038-7.712c.551-1.4 1.12-3.759 1.61-6.115l.126-.614a171 171 0 0 0 1.212-6.757h.012c.209-.008 2.935-.196 3.945-5.088 1.13-5.572 2.826-7.874 2.624-12.073-.202-3.876-2.22-4.078-2.463-4.078s2.1-5.855 2.383-18.21c.363-14.578-10.822-28.993-31.859-28.993s-32.181 14.375-31.858 28.992c.242 12.315 2.422 18.21 2.422 18.21-.202 0-2.22.203-2.463 4.079-.202 4.159 1.535 6.38 2.625 11.952 1.05 5.088 3.957 5.168 3.957 5.168s.571 3.683 1.338 7.38l.129.616.133.612c.425 1.93.892 3.749 1.347 4.92 1.414 3.633 4.038 7.711 4.038 7.711s.238 4.437.252 8.87v.738c-.01 3.682-.194 7.19-.817 7.957-1.413 1.696-5.653 3.311-8.56 3.957-5.088 1.13-13.002 1.857-18.534 3.836-4.361 1.56-15.9 6.031-20.589 14.581h-45.923V265z"/>
</svg>
