<svg xmlns="http://www.w3.org/2000/svg" width="512" height="512" viewBox="0 0 512 512">
    <path fill-rule="evenodd" d="M172.72 75.321v104.653h-30.154c-3.09-5.672-10.704-8.623-13.58-9.651-3.64-1.302-8.876-1.754-12.198-2.472-1.913-.425-4.704-1.488-5.634-2.604-.93-1.116-.372-11.561-.372-11.561s1.727-2.71 2.657-5.076c.93-2.366 1.94-8.877 1.94-8.877h.015c.179-.009 1.934-.172 2.59-3.349.744-3.667 1.86-5.182 1.728-7.946-.133-2.551-1.462-2.684-1.622-2.684-.16 0 1.382-3.854 1.568-11.986.24-9.595-7.122-19.082-20.969-19.082-13.846 0-21.181 9.46-20.969 19.082.146 7.382 1.349 11.26 1.563 11.893l.02.06.012.033c-.133 0-1.462.133-1.621 2.684-.133 2.737 1.01 4.2 1.727 7.867.691 3.348 2.605 3.402 2.605 3.402s.348 2.243.823 4.58l.108.52c.31 1.472.665 2.919 1.009 3.803.93 2.392 2.658 5.076 2.658 5.076s.558 10.418-.373 11.56c-.93 1.117-3.72 2.18-5.634 2.605-3.348.744-8.558 1.223-12.199 2.525-2.87 1.027-10.465 3.97-13.55 9.597H24.64V75.322h148.08zm0 128.353v104.652h-30.154c-3.09-5.672-10.704-8.622-13.58-9.65-3.64-1.303-8.876-1.755-12.198-2.472-1.913-.425-4.704-1.489-5.634-2.605-.93-1.116-.372-11.56-.372-11.56s1.727-2.711 2.657-5.077c.93-2.365 1.94-8.876 1.94-8.876h.015c.179-.01 1.934-.172 2.59-3.35.744-3.667 1.86-5.182 1.728-7.946-.133-2.55-1.462-2.684-1.622-2.684-.16 0 1.382-3.853 1.568-11.986.24-9.594-7.122-19.082-20.969-19.082-13.846 0-21.181 9.461-20.969 19.082.146 7.382 1.349 11.26 1.563 11.893l.02.06.012.033c-.133 0-1.462.133-1.621 2.684-.133 2.738 1.01 4.2 1.727 7.867.691 3.349 2.605 3.402 2.605 3.402s.348 2.243.823 4.58l.108.52c.31 1.473.665 2.92 1.009 3.803.93 2.392 2.658 5.076 2.658 5.076s.558 10.418-.373 11.561c-.93 1.116-3.72 2.18-5.634 2.605-3.348.744-8.558 1.222-12.199 2.525-2.87 1.026-10.465 3.97-13.55 9.597H24.64V203.674h148.08zm0 128.352V436.68l-30.154-.001c-3.09-5.671-10.704-8.622-13.58-9.65-3.64-1.302-8.876-1.754-12.198-2.472-1.913-.425-4.704-1.488-5.634-2.604-.93-1.117-.372-11.561-.372-11.561s1.727-2.711 2.657-5.076c.93-2.366 1.94-8.877 1.94-8.877h.015c.179-.009 1.934-.172 2.59-3.349.744-3.667 1.86-5.182 1.728-7.946-.133-2.551-1.462-2.684-1.622-2.684-.16 0 1.382-3.854 1.568-11.986.24-9.595-7.122-19.083-20.969-19.083-13.846 0-21.181 9.462-20.969 19.083.146 7.382 1.349 11.26 1.563 11.893l.02.06.012.033c-.133 0-1.462.133-1.621 2.684-.133 2.737 1.01 4.2 1.727 7.867.691 3.348 2.605 3.401 2.605 3.401s.348 2.244.823 4.58l.108.52c.31 1.473.665 2.92 1.009 3.804.93 2.392 2.658 5.076 2.658 5.076s.558 10.418-.373 11.56c-.93 1.117-3.72 2.18-5.634 2.605-3.348.744-8.558 1.223-12.199 2.525-2.87 1.027-10.465 3.97-13.55 9.597H24.64V332.027h148.08zM330.04 75.321v104.653h-30.154c-3.09-5.672-10.704-8.623-13.58-9.651-3.64-1.302-8.876-1.754-12.198-2.472-1.914-.425-4.704-1.488-5.634-2.604-.93-1.116-.373-11.561-.373-11.561s1.728-2.71 2.658-5.076c.93-2.366 1.94-8.877 1.94-8.877h.015c.178-.009 1.934-.172 2.59-3.349.744-3.667 1.86-5.182 1.727-7.946-.133-2.551-1.462-2.684-1.621-2.684-.16 0 1.382-3.854 1.568-11.986.24-9.595-7.123-19.082-20.969-19.082s-21.182 9.46-20.969 19.082c.145 7.382 1.348 11.26 1.562 11.893l.02.06.013.033c-.133 0-1.462.133-1.622 2.684-.132 2.737 1.01 4.2 1.728 7.867.69 3.348 2.604 3.402 2.604 3.402s.348 2.243.824 4.58l.108.52c.31 1.472.665 2.919 1.009 3.803.93 2.392 2.657 5.076 2.657 5.076s.558 10.418-.372 11.56c-.93 1.117-3.72 2.18-5.634 2.605-3.349.744-8.558 1.223-12.199 2.525-2.87 1.027-10.465 3.97-13.551 9.597H181.96V75.322h148.08zm157.32 0v104.653h-30.155c-3.09-5.672-10.704-8.623-13.579-9.651-3.64-1.302-8.876-1.754-12.199-2.472-1.913-.425-4.704-1.488-5.634-2.604-.93-1.116-.372-11.561-.372-11.561s1.728-2.71 2.658-5.076c.93-2.366 1.94-8.877 1.94-8.877h.015c.178-.009 1.934-.172 2.59-3.349.744-3.667 1.86-5.182 1.727-7.946-.133-2.551-1.462-2.684-1.621-2.684-.16 0 1.382-3.854 1.568-11.986.239-9.595-7.123-19.082-20.97-19.082-13.846 0-21.181 9.46-20.968 19.082.145 7.382 1.348 11.26 1.562 11.893l.02.06.012.033c-.133 0-1.461.133-1.62 2.684-.134 2.737 1.009 4.2 1.727 7.867.69 3.348 2.604 3.402 2.604 3.402s.348 2.243.824 4.58l.107.52c.31 1.472.665 2.919 1.01 3.803.93 2.392 2.657 5.076 2.657 5.076s.558 10.418-.372 11.56c-.93 1.117-3.721 2.18-5.634 2.605-3.35.744-8.558 1.223-12.2 2.525-2.87 1.027-10.465 3.97-13.55 9.597H339.28V75.322h148.08zM330.04 203.674v104.652h-30.154c-3.09-5.672-10.704-8.622-13.58-9.65-3.64-1.303-8.876-1.755-12.198-2.472-1.914-.425-4.704-1.489-5.634-2.605-.93-1.116-.373-11.56-.373-11.56s1.728-2.711 2.658-5.077c.93-2.365 1.94-8.876 1.94-8.876h.015c.178-.01 1.934-.172 2.59-3.35.744-3.667 1.86-5.182 1.727-7.946-.133-2.55-1.462-2.684-1.621-2.684-.16 0 1.382-3.853 1.568-11.986.24-9.594-7.123-19.082-20.969-19.082s-21.182 9.461-20.969 19.082c.145 7.382 1.348 11.26 1.562 11.893l.02.06.013.033c-.133 0-1.462.133-1.622 2.684-.132 2.738 1.01 4.2 1.728 7.867.69 3.349 2.604 3.402 2.604 3.402s.348 2.243.824 4.58l.108.52c.31 1.473.665 2.92 1.009 3.803.93 2.392 2.657 5.076 2.657 5.076s.558 10.418-.372 11.561c-.93 1.116-3.72 2.18-5.634 2.605-3.349.744-8.558 1.222-12.199 2.525-2.87 1.026-10.465 3.97-13.551 9.597H181.96V203.674h148.08zm0 128.352V436.68l-30.154-.001c-3.09-5.671-10.704-8.622-13.58-9.65-3.64-1.302-8.876-1.754-12.198-2.472-1.914-.425-4.704-1.488-5.634-2.604-.93-1.117-.373-11.561-.373-11.561s1.728-2.711 2.658-5.076c.93-2.366 1.94-8.877 1.94-8.877h.015c.178-.009 1.934-.172 2.59-3.349.744-3.667 1.86-5.182 1.727-7.946-.133-2.551-1.462-2.684-1.621-2.684-.16 0 1.382-3.854 1.568-11.986.24-9.595-7.123-19.083-20.969-19.083s-21.182 9.462-20.969 19.083c.145 7.382 1.348 11.26 1.562 11.893l.02.06.013.033c-.133 0-1.462.133-1.622 2.684-.132 2.737 1.01 4.2 1.728 7.867.69 3.348 2.604 3.401 2.604 3.401s.348 2.244.824 4.58l.108.52c.31 1.473.665 2.92 1.009 3.804.93 2.392 2.657 5.076 2.657 5.076s.558 10.418-.372 11.56c-.93 1.117-3.72 2.18-5.634 2.605-3.349.744-8.558 1.223-12.199 2.525-2.87 1.027-10.465 3.97-13.551 9.597H181.96V332.027h148.08zm157.32-128.352v104.652h-30.155c-3.09-5.672-10.704-8.622-13.579-9.65-3.64-1.303-8.876-1.755-12.199-2.472-1.913-.425-4.704-1.489-5.634-2.605-.93-1.116-.372-11.56-.372-11.56s1.728-2.711 2.658-5.077c.93-2.365 1.94-8.876 1.94-8.876h.015c.178-.01 1.934-.172 2.59-3.35.744-3.667 1.86-5.182 1.727-7.946-.133-2.55-1.462-2.684-1.621-2.684-.16 0 1.382-3.853 1.568-11.986.239-9.594-7.123-19.082-20.97-19.082-13.846 0-21.181 9.461-20.968 19.082.145 7.382 1.348 11.26 1.562 11.893l.02.06.012.033c-.133 0-1.461.133-1.62 2.684-.134 2.738 1.009 4.2 1.727 7.867.69 3.349 2.604 3.402 2.604 3.402s.348 2.243.824 4.58l.107.52c.31 1.473.665 2.92 1.01 3.803.93 2.392 2.657 5.076 2.657 5.076s.558 10.418-.372 11.561c-.93 1.116-3.721 2.18-5.634 2.605-3.35.744-8.558 1.222-12.2 2.525-2.87 1.026-10.465 3.97-13.55 9.597H339.28V203.674h148.08zm0 128.352V436.68l-30.155-.001c-3.09-5.671-10.704-8.622-13.579-9.65-3.64-1.302-8.876-1.754-12.199-2.472-1.913-.425-4.704-1.488-5.634-2.604-.93-1.117-.372-11.561-.372-11.561s1.728-2.711 2.658-5.076c.93-2.366 1.94-8.877 1.94-8.877h.015c.178-.009 1.934-.172 2.59-3.349.744-3.667 1.86-5.182 1.727-7.946-.133-2.551-1.462-2.684-1.621-2.684-.16 0 1.382-3.854 1.568-11.986.239-9.595-7.123-19.083-20.97-19.083-13.846 0-21.181 9.462-20.968 19.083.145 7.382 1.348 11.26 1.562 11.893l.02.06.012.033c-.133 0-1.461.133-1.62 2.684-.134 2.737 1.009 4.2 1.727 7.867.69 3.348 2.604 3.401 2.604 3.401s.348 2.244.824 4.58l.107.52c.31 1.473.665 2.92 1.01 3.804.93 2.392 2.657 5.076 2.657 5.076s.558 10.418-.372 11.56c-.93 1.117-3.721 2.18-5.634 2.605-3.35.744-8.558 1.223-12.2 2.525-2.87 1.027-10.465 3.97-13.55 9.597H339.28V332.027h148.08z"/>
</svg>
