<?xml version="1.0" encoding="UTF-8"?>
<svg id="Layer_1" xmlns="http://www.w3.org/2000/svg" version="1.1" viewBox="0 0 500 500">
  <!-- Generator: Adobe Illustrator 29.1.0, SVG Export Plug-In . SVG Version: 2.1.0 Build 142)  -->
  <defs>
    <style>
      .st0 {
        fill-rule: evenodd;
      }
    </style>
  </defs>
  <path class="st0" d="M243.2,87.1v154.2h-44.4c-4.6-8.4-15.8-12.7-20-14.2-5.4-1.9-13.1-2.6-18-3.6-2.8-.6-6.9-2.2-8.3-3.8-.6-.7-.8-4.1-.8-7.7v-.7c0-4.3.2-8.6.2-8.6,0,0,2.5-4,3.9-7.5.5-1.4,1.1-3.6,1.6-5.9v-.6c.6-2.2.9-4.4,1.3-6.6h0c.2,0,2.8-.2,3.8-4.9,1.1-5.4,2.7-7.6,2.5-11.7-.2-3.8-2.2-4-2.4-4s2-5.7,2.3-17.7c.4-14.1-10.5-28.1-30.9-28.1s-31.2,13.9-30.9,28.1c.2,11.9,2.3,17.7,2.3,17.7-.2,0-2.2.2-2.4,4-.2,4,1.5,6.2,2.5,11.6,1,4.9,3.8,5,3.8,5,0,0,.6,3.6,1.3,7.2v.6c.1,0,.3.6.3.6.4,1.9.9,3.6,1.3,4.8,1.4,3.5,3.9,7.5,3.9,7.5,0,0,.2,4.3.2,8.6v.7c0,3.6-.2,7-.8,7.7-1.4,1.6-5.5,3.2-8.3,3.8-4.9,1.1-12.6,1.8-18,3.7-4.2,1.5-15.4,5.8-20,14.1H25V87.1h218.2ZM243.2,258.7v154.2h-44.4c-4.6-8.4-15.8-12.7-20-14.2-5.4-1.9-13.1-2.6-18-3.6-2.8-.6-6.9-2.2-8.3-3.8-.6-.7-.8-4.1-.8-7.7v-.7c0-4.3.2-8.6.2-8.6,0,0,2.5-4,3.9-7.5.5-1.4,1.1-3.6,1.6-5.9v-.6c.6-2.2.9-4.4,1.3-6.6h0c.2,0,2.8-.2,3.8-4.9,1.1-5.4,2.7-7.6,2.5-11.7-.2-3.8-2.2-4-2.4-4s2-5.7,2.3-17.7c.4-14.1-10.5-28.1-30.9-28.1s-31.2,13.9-30.9,28.1c.2,11.9,2.3,17.7,2.3,17.7-.2,0-2.2.2-2.4,4-.2,4,1.5,6.2,2.5,11.6,1,4.9,3.8,5,3.8,5,0,0,.6,3.6,1.3,7.2v.6c.1,0,.3.6.3.6.4,1.9.9,3.6,1.3,4.8,1.4,3.5,3.9,7.5,3.9,7.5,0,0,.2,4.3.2,8.6v.7c0,3.6-.2,7-.8,7.7-1.4,1.6-5.5,3.2-8.3,3.8-4.9,1.1-12.6,1.8-18,3.7-4.2,1.5-15.4,5.8-20,14.1H25v-154.2h218.2ZM475,87.1v154.2h-44.4c-4.6-8.4-15.8-12.7-20-14.2-5.4-1.9-13.1-2.6-18-3.6-2.8-.6-6.9-2.2-8.3-3.8-.6-.7-.8-4.1-.8-7.7v-.7c0-4.3.2-8.6.2-8.6,0,0,2.5-4,3.9-7.5.5-1.4,1.1-3.6,1.6-5.9v-.6c.6-2.2.9-4.4,1.3-6.6h0c.2,0,2.8-.2,3.8-4.9,1.1-5.4,2.7-7.6,2.5-11.7-.2-3.8-2.2-4-2.4-4s2-5.7,2.3-17.7c.4-14.1-10.5-28.1-30.9-28.1s-31.2,13.9-30.9,28.1c.2,11.9,2.3,17.7,2.3,17.7-.2,0-2.2.2-2.4,4-.2,4,1.5,6.2,2.5,11.6,1,4.9,3.8,5,3.8,5,0,0,.6,3.6,1.3,7.2v.6c.1,0,.3.6.3.6.4,1.9.9,3.6,1.3,4.8,1.4,3.5,3.9,7.5,3.9,7.5,0,0,.2,4.3.2,8.6v.7c0,3.6-.2,7-.8,7.7-1.4,1.6-5.5,3.2-8.3,3.8-4.9,1.1-12.6,1.8-18,3.7-4.2,1.5-15.4,5.8-20,14.1h-44.5V87.1h218.2ZM475,258.7v154.2h-44.4c-4.6-8.4-15.8-12.7-20-14.2-5.4-1.9-13.1-2.6-18-3.6-2.8-.6-6.9-2.2-8.3-3.8-.6-.7-.8-4.1-.8-7.7v-.7c0-4.3.2-8.6.2-8.6,0,0,2.5-4,3.9-7.5.5-1.4,1.1-3.6,1.6-5.9v-.6c.6-2.2.9-4.4,1.3-6.6h0c.2,0,2.8-.2,3.8-4.9,1.1-5.4,2.7-7.6,2.5-11.7-.2-3.8-2.2-4-2.4-4s2-5.7,2.3-17.7c.4-14.1-10.5-28.1-30.9-28.1s-31.2,13.9-30.9,28.1c.2,11.9,2.3,17.7,2.3,17.7-.2,0-2.2.2-2.4,4-.2,4,1.5,6.2,2.5,11.6,1,4.9,3.8,5,3.8,5,0,0,.6,3.6,1.3,7.2v.6c.1,0,.3.6.3.6.4,1.9.9,3.6,1.3,4.8,1.4,3.5,3.9,7.5,3.9,7.5,0,0,.2,4.3.2,8.6v.7c0,3.6-.2,7-.8,7.7-1.4,1.6-5.5,3.2-8.3,3.8-4.9,1.1-12.6,1.8-18,3.7-4.2,1.5-15.4,5.8-20,14.1h-44.5v-154.2h218.2Z"/>
</svg>