<svg xmlns="http://www.w3.org/2000/svg" width="512" height="512" viewBox="0 0 512 512">
  <defs>
    <style>
      .st0 {
        fill-rule: evenodd;
      }
    </style>
  </defs>
  <path class="st0" d="M456,114.654v282.692h-81.453c-8.344-15.32-28.915-23.291-36.682-26.069-9.836-3.518-23.978-4.738-32.952-6.677-5.169-1.148-12.707-4.019-15.219-7.036-1.181-1.417-1.474-8.4-1.452-15.404l.004-.894c.051-7.592.442-14.931.442-14.931,0,0,4.667-7.322,7.18-13.712.893-2.272,1.813-5.96,2.629-9.769l.152-.715.149-.716.146-.715c.803-4.006,1.524-8.027,2.164-12.062,0,0,5.169,0,7.036-9.046,2.01-9.907,5.025-13.999,4.666-21.465-.359-6.891-3.948-7.25-4.379-7.25s3.733-10.41,4.236-32.378c.646-25.916-19.24-51.545-56.643-51.545s-57.216,25.558-56.642,51.545c.379,19.269,3.427,29.698,4.153,31.923l.065.199c.058.171.088.256.089.256-.36,0-3.949.359-4.38,7.25-.359,7.394,2.729,11.343,4.666,21.25,1.867,9.046,7.036,9.189,7.036,9.189,0,0,.876,5.648,2.092,11.718l.144.716c.902,4.422,1.971,8.959,3.005,11.615,2.513,6.462,7.179,13.712,7.179,13.712,0,0,.347,6.485.431,13.569l.01.888.005.892c.036,7.144-.244,14.398-1.45,15.88-2.513,3.015-10.051,5.887-15.22,7.036-9.045,2.01-23.115,3.303-32.952,6.82-7.754,2.773-28.271,10.723-36.606,25.926H56V114.654h400Z"/>
</svg>