<?xml version="1.0" encoding="UTF-8"?>
<svg id="Layer_1" xmlns="http://www.w3.org/2000/svg" version="1.1" viewBox="0 0 500 500">
  <!-- Generator: Adobe Illustrator 29.1.0, SVG Export Plug-In . SVG Version: 2.1.0 Build 142)  -->
  <defs>
    <style>
      .st0 {
        fill-rule: evenodd;
      }
    </style>
  </defs>
  <path class="st0" d="M475,91v318h-91.6c-9.4-17.2-32.5-26.2-41.3-29.3-11.1-4-27-5.3-37.1-7.5-5.8-1.3-14.3-4.5-17.1-7.9-1.3-1.6-1.7-9.4-1.6-17.3v-1c0-8.5.5-16.8.5-16.8,0,0,5.3-8.2,8.1-15.4,1-2.6,2-6.7,3-11l.2-.8.2-.8.2-.8c.9-4.5,1.7-9,2.4-13.6,0,0,5.8,0,7.9-10.2,2.3-11.1,5.7-15.7,5.2-24.1-.4-7.8-4.4-8.2-4.9-8.2s4.2-11.7,4.8-36.4c.7-29.2-21.6-58-63.7-58s-64.4,28.8-63.7,58c.4,21.7,3.9,33.4,4.7,35.9v.2c.1.2.2.3.2.3-.4,0-4.4.4-4.9,8.2-.4,8.3,3.1,12.8,5.2,23.9,2.1,10.2,7.9,10.3,7.9,10.3,0,0,1,6.4,2.4,13.2l.2.8c1,5,2.2,10.1,3.4,13.1,2.8,7.3,8.1,15.4,8.1,15.4,0,0,.4,7.3.5,15.3v1s0,1,0,1c0,8-.3,16.2-1.6,17.9-2.8,3.4-11.3,6.6-17.1,7.9-10.2,2.3-26,3.7-37.1,7.7-8.7,3.1-31.8,12.1-41.2,29.2H25V91h450Z"/>
</svg>