<svg xmlns="http://www.w3.org/2000/svg" width="512" height="512" viewBox="0 0 512 512">
    <path fill-rule="evenodd" d="M464 109v294h-84.711c-8.678-15.933-30.072-24.223-38.149-27.112-10.229-3.659-24.937-4.928-34.27-6.944-5.376-1.194-13.215-4.18-15.828-7.317-1.228-1.474-1.533-8.736-1.51-16.02l.004-.93c.053-7.896.46-15.528.46-15.528s4.854-7.615 7.467-14.26c.929-2.363 1.886-6.198 2.734-10.16l.158-.744.155-.745.152-.744a314.974 314.974 0 002.251-12.544s5.376 0 7.317-9.408c2.09-10.303 5.226-14.559 4.853-22.324-.373-7.167-4.106-7.54-4.554-7.54-.448 0 3.882-10.826 4.405-33.673.672-26.953-20.01-53.607-58.909-53.607s-59.505 26.58-58.908 53.607c.394 20.04 3.564 30.886 4.319 33.2l.068.207c.06.177.093.266.093.266-.374 0-4.107.373-4.555 7.54-.373 7.69 2.838 11.797 4.853 22.1 1.942 9.408 7.317 9.557 7.317 9.557s.911 5.874 2.176 12.187l.15.745c.938 4.599 2.05 9.317 3.125 12.08 2.613 6.72 7.466 14.26 7.466 14.26s.361 6.744.448 14.112l.01.923.005.928c.037 7.43-.254 14.974-1.508 16.515-2.614 3.136-10.453 6.123-15.829 7.317-9.407 2.09-24.04 3.435-34.27 7.093-8.064 2.884-29.402 11.152-38.07 26.963H48V109h416z"/>
</svg>
