<svg xmlns="http://www.w3.org/2000/svg" width="512" height="512" viewBox="0 0 512 512">
  <defs>
    <style>
      .st0 {
        fill-rule: evenodd;
      }
    </style>
  </defs>
  <path class="st0" d="M184.008,99.811v90.468h-26.067c-2.671-4.903-9.253-7.454-11.739-8.343-3.147-1.126-7.673-1.516-10.545-2.137-1.654-.367-4.066-1.286-4.87-2.251s-.322-9.994-.322-9.994c0,0,1.493-2.343,2.297-4.388s1.677-7.674,1.677-7.674h.013c.155-.008,1.672-.149,2.239-2.895.643-3.17,1.608-4.48,1.494-6.869-.115-2.205-1.264-2.32-1.402-2.32s1.195-3.332,1.355-10.361c.207-8.294-6.157-16.496-18.127-16.496s-18.31,8.178-18.127,16.496c.126,6.381,1.166,9.734,1.351,10.281l.017.052.01.029c-.115,0-1.264.115-1.401,2.32-.115,2.366.873,3.631,1.493,6.801.597,2.894,2.252,2.941,2.252,2.941,0,0,.301,1.939.711,3.959l.093.45c.268,1.272.575,2.523.872,3.288.804,2.068,2.298,4.388,2.298,4.388,0,0,.482,9.006-.322,9.993-.804.966-3.216,1.885-4.87,2.252-2.894.643-7.398,1.057-10.545,2.183-2.481.888-9.047,3.432-11.713,8.296h-26.131v-90.466h128.008ZM184.008,210.766v90.467h-26.067c-2.671-4.903-9.253-7.453-11.739-8.342-3.147-1.126-7.673-1.517-10.545-2.137-1.654-.367-4.066-1.287-4.87-2.252s-.322-9.993-.322-9.993c0,0,1.493-2.344,2.297-4.389s1.677-7.673,1.677-7.673h.013c.155-.009,1.672-.149,2.239-2.896.643-3.17,1.608-4.48,1.494-6.869-.115-2.204-1.264-2.32-1.402-2.32s1.195-3.331,1.355-10.361c.207-8.294-6.157-16.496-18.127-16.496s-18.31,8.179-18.127,16.496c.126,6.381,1.166,9.734,1.351,10.281l.017.052.01.029c-.115,0-1.264.115-1.401,2.32-.115,2.367.873,3.631,1.493,6.801.597,2.895,2.252,2.941,2.252,2.941,0,0,.301,1.939.711,3.959l.093.45c.268,1.273.575,2.524.872,3.288.804,2.068,2.298,4.388,2.298,4.388,0,0,.482,9.006-.322,9.994-.804.965-3.216,1.885-4.87,2.252-2.894.643-7.398,1.056-10.545,2.183-2.481.887-9.047,3.432-11.713,8.296h-26.131v-90.467h128.008ZM184.008,321.721v90.469h-26.067c-2.671-4.903-9.253-7.454-11.739-8.343-3.147-1.126-7.673-1.516-10.545-2.137-1.654-.367-4.066-1.286-4.87-2.251s-.322-9.994-.322-9.994c0,0,1.493-2.344,2.297-4.388.804-2.045,1.677-7.674,1.677-7.674h.013c.155-.008,1.672-.149,2.239-2.895.643-3.17,1.608-4.48,1.494-6.869-.115-2.205-1.264-2.32-1.402-2.32s1.195-3.332,1.355-10.361c.207-8.294-6.157-16.496-18.127-16.496s-18.31,8.179-18.127,16.496c.126,6.381,1.166,9.734,1.351,10.281l.017.052.01.029c-.115,0-1.264.115-1.401,2.32-.115,2.366.873,3.631,1.493,6.801.597,2.894,2.252,2.94,2.252,2.94,0,0,.301,1.94.711,3.959l.093.45c.268,1.273.575,2.524.872,3.288.804,2.068,2.298,4.388,2.298,4.388,0,0,.482,9.006-.322,9.993-.804.966-3.216,1.885-4.87,2.252-2.894.643-7.398,1.057-10.545,2.183-2.481.888-9.047,3.432-11.713,8.296h-26.131v-90.467h128.008ZM320.004,99.811v90.468h-26.067c-2.671-4.903-9.253-7.454-11.739-8.343-3.147-1.126-7.673-1.516-10.545-2.137-1.655-.367-4.066-1.286-4.87-2.251s-.322-9.994-.322-9.994c0,0,1.494-2.343,2.298-4.388s1.677-7.674,1.677-7.674h.013c.154-.008,1.672-.149,2.239-2.895.643-3.17,1.608-4.48,1.493-6.869-.115-2.205-1.264-2.32-1.401-2.32s1.195-3.332,1.355-10.361c.207-8.294-6.157-16.496-18.127-16.496s-18.311,8.178-18.127,16.496c.125,6.381,1.165,9.734,1.35,10.281l.017.052.011.029c-.115,0-1.264.115-1.402,2.32-.114,2.366.873,3.631,1.494,6.801.596,2.894,2.251,2.941,2.251,2.941,0,0,.301,1.939.712,3.959l.093.45c.268,1.272.575,2.523.872,3.288.804,2.068,2.297,4.388,2.297,4.388,0,0,.482,9.006-.322,9.993-.804.966-3.216,1.885-4.87,2.252-2.895.643-7.398,1.057-10.545,2.183-2.481.888-9.047,3.432-11.714,8.296h-26.13v-90.466h128.008ZM456,99.811v90.468h-26.068c-2.671-4.903-9.253-7.454-11.738-8.343-3.147-1.126-7.673-1.516-10.545-2.137-1.654-.367-4.066-1.286-4.87-2.251s-.322-9.994-.322-9.994c0,0,1.494-2.343,2.298-4.388s1.677-7.674,1.677-7.674h.013c.154-.008,1.672-.149,2.239-2.895.643-3.17,1.608-4.48,1.493-6.869-.115-2.205-1.264-2.32-1.401-2.32s1.195-3.332,1.355-10.361c.207-8.294-6.157-16.496-18.128-16.496s-18.31,8.178-18.126,16.496c.125,6.381,1.165,9.734,1.35,10.281l.017.052.01.029c-.115,0-1.263.115-1.4,2.32-.116,2.366.872,3.631,1.493,6.801.596,2.894,2.251,2.941,2.251,2.941,0,0,.301,1.939.712,3.959l.092.45c.268,1.272.575,2.523.873,3.288.804,2.068,2.297,4.388,2.297,4.388,0,0,.482,9.006-.322,9.993-.804.966-3.217,1.885-4.87,2.252-2.896.643-7.398,1.057-10.546,2.183-2.481.888-9.047,3.432-11.713,8.296h-26.13v-90.466h128.008ZM320.004,210.766v90.467h-26.067c-2.671-4.903-9.253-7.453-11.739-8.342-3.147-1.126-7.673-1.517-10.545-2.137-1.655-.367-4.066-1.287-4.87-2.252s-.322-9.993-.322-9.993c0,0,1.494-2.344,2.298-4.389s1.677-7.673,1.677-7.673h.013c.154-.009,1.672-.149,2.239-2.896.643-3.17,1.608-4.48,1.493-6.869-.115-2.204-1.264-2.32-1.401-2.32s1.195-3.331,1.355-10.361c.207-8.294-6.157-16.496-18.127-16.496s-18.311,8.179-18.127,16.496c.125,6.381,1.165,9.734,1.35,10.281l.017.052.011.029c-.115,0-1.264.115-1.402,2.32-.114,2.367.873,3.631,1.494,6.801.596,2.895,2.251,2.941,2.251,2.941,0,0,.301,1.939.712,3.959l.093.45c.268,1.273.575,2.524.872,3.288.804,2.068,2.297,4.388,2.297,4.388,0,0,.482,9.006-.322,9.994-.804.965-3.216,1.885-4.87,2.252-2.895.643-7.398,1.056-10.545,2.183-2.481.887-9.047,3.432-11.714,8.296h-26.13v-90.467h128.008ZM320.004,321.721v90.469h-26.067c-2.671-4.903-9.253-7.454-11.739-8.343-3.147-1.126-7.673-1.516-10.545-2.137-1.655-.367-4.066-1.286-4.87-2.251s-.322-9.994-.322-9.994c0,0,1.494-2.344,2.298-4.388.804-2.045,1.677-7.674,1.677-7.674h.013c.154-.008,1.672-.149,2.239-2.895.643-3.17,1.608-4.48,1.493-6.869-.115-2.205-1.264-2.32-1.401-2.32s1.195-3.332,1.355-10.361c.207-8.294-6.157-16.496-18.127-16.496s-18.311,8.179-18.127,16.496c.125,6.381,1.165,9.734,1.35,10.281l.017.052.011.029c-.115,0-1.264.115-1.402,2.32-.114,2.366.873,3.631,1.494,6.801.596,2.894,2.251,2.94,2.251,2.94,0,0,.301,1.94.712,3.959l.093.45c.268,1.273.575,2.524.872,3.288.804,2.068,2.297,4.388,2.297,4.388,0,0,.482,9.006-.322,9.993-.804.966-3.216,1.885-4.87,2.252-2.895.643-7.398,1.057-10.545,2.183-2.481.888-9.047,3.432-11.714,8.296h-26.13v-90.467h128.008ZM456,210.766v90.467h-26.068c-2.671-4.903-9.253-7.453-11.738-8.342-3.147-1.126-7.673-1.517-10.545-2.137-1.654-.367-4.066-1.287-4.87-2.252s-.322-9.993-.322-9.993c0,0,1.494-2.344,2.298-4.389s1.677-7.673,1.677-7.673h.013c.154-.009,1.672-.149,2.239-2.896.643-3.17,1.608-4.48,1.493-6.869-.115-2.204-1.264-2.32-1.401-2.32s1.195-3.331,1.355-10.361c.207-8.294-6.157-16.496-18.128-16.496s-18.31,8.179-18.126,16.496c.125,6.381,1.165,9.734,1.35,10.281l.017.052.01.029c-.115,0-1.263.115-1.4,2.32-.116,2.367.872,3.631,1.493,6.801.596,2.895,2.251,2.941,2.251,2.941,0,0,.301,1.939.712,3.959l.092.45c.268,1.273.575,2.524.873,3.288.804,2.068,2.297,4.388,2.297,4.388,0,0,.482,9.006-.322,9.994-.804.965-3.217,1.885-4.87,2.252-2.896.643-7.398,1.056-10.546,2.183-2.481.887-9.047,3.432-11.713,8.296h-26.13v-90.467h128.008ZM456,321.721v90.469h-26.068c-2.671-4.903-9.253-7.454-11.738-8.343-3.147-1.126-7.673-1.516-10.545-2.137-1.654-.367-4.066-1.286-4.87-2.251s-.322-9.994-.322-9.994c0,0,1.494-2.344,2.298-4.388.804-2.045,1.677-7.674,1.677-7.674h.013c.154-.008,1.672-.149,2.239-2.895.643-3.17,1.608-4.48,1.493-6.869-.115-2.205-1.264-2.32-1.401-2.32s1.195-3.332,1.355-10.361c.207-8.294-6.157-16.496-18.128-16.496s-18.31,8.179-18.126,16.496c.125,6.381,1.165,9.734,1.35,10.281l.017.052.01.029c-.115,0-1.263.115-1.4,2.32-.116,2.366.872,3.631,1.493,6.801.596,2.894,2.251,2.94,2.251,2.94,0,0,.301,1.94.712,3.959l.092.45c.268,1.273.575,2.524.873,3.288.804,2.068,2.297,4.388,2.297,4.388,0,0,.482,9.006-.322,9.993-.804.966-3.217,1.885-4.87,2.252-2.896.643-7.398,1.057-10.546,2.183-2.481.888-9.047,3.432-11.713,8.296h-26.13v-90.467h128.008Z"/>
</svg>