<?xml version="1.0" encoding="UTF-8"?>
<svg id="Layer_1" xmlns="http://www.w3.org/2000/svg" version="1.1" viewBox="0 0 500 500">
  <!-- Generator: Adobe Illustrator 29.1.0, SVG Export Plug-In . SVG Version: 2.1.0 Build 142)  -->
  <defs>
    <style>
      .st0 {
        fill-rule: evenodd;
      }
    </style>
  </defs>
  <path class="st0" d="M169,74.3v101.8h-29.3c-3-5.5-10.4-8.4-13.2-9.4-3.5-1.3-8.6-1.7-11.9-2.4-1.9-.4-4.6-1.4-5.5-2.5s-.4-11.2-.4-11.2c0,0,1.7-2.6,2.6-4.9s1.9-8.6,1.9-8.6h0c.2,0,1.9-.2,2.5-3.3.7-3.6,1.8-5,1.7-7.7-.1-2.5-1.4-2.6-1.6-2.6s1.3-3.7,1.5-11.7c.2-9.3-6.9-18.6-20.4-18.6s-20.6,9.2-20.4,18.6c.1,7.2,1.3,11,1.5,11.6h0c0,0,0,0,0,0-.1,0-1.4.1-1.6,2.6-.1,2.7,1,4.1,1.7,7.7.7,3.3,2.5,3.3,2.5,3.3,0,0,.3,2.2.8,4.5v.5c.4,1.4.8,2.8,1.1,3.7.9,2.3,2.6,4.9,2.6,4.9,0,0,.5,10.1-.4,11.2-.9,1.1-3.6,2.1-5.5,2.5-3.3.7-8.3,1.2-11.9,2.5-2.8,1-10.2,3.9-13.2,9.3h-29.4v-101.8h144ZM169,199.1v101.8h-29.3c-3-5.5-10.4-8.4-13.2-9.4-3.5-1.3-8.6-1.7-11.9-2.4-1.9-.4-4.6-1.4-5.5-2.5s-.4-11.2-.4-11.2c0,0,1.7-2.6,2.6-4.9s1.9-8.6,1.9-8.6h0c.2,0,1.9-.2,2.5-3.3.7-3.6,1.8-5,1.7-7.7-.1-2.5-1.4-2.6-1.6-2.6s1.3-3.7,1.5-11.7c.2-9.3-6.9-18.6-20.4-18.6s-20.6,9.2-20.4,18.6c.1,7.2,1.3,11,1.5,11.6h0c0,0,0,0,0,0-.1,0-1.4.1-1.6,2.6-.1,2.7,1,4.1,1.7,7.7.7,3.3,2.5,3.3,2.5,3.3,0,0,.3,2.2.8,4.5v.5c.4,1.4.8,2.8,1.1,3.7.9,2.3,2.6,4.9,2.6,4.9,0,0,.5,10.1-.4,11.2-.9,1.1-3.6,2.1-5.5,2.5-3.3.7-8.3,1.2-11.9,2.5-2.8,1-10.2,3.9-13.2,9.3h-29.4v-101.8h144ZM169,323.9v101.8h-29.3c-3-5.5-10.4-8.4-13.2-9.4-3.5-1.3-8.6-1.7-11.9-2.4-1.9-.4-4.6-1.4-5.5-2.5s-.4-11.2-.4-11.2c0,0,1.7-2.6,2.6-4.9.9-2.3,1.9-8.6,1.9-8.6h0c.2,0,1.9-.2,2.5-3.3.7-3.6,1.8-5,1.7-7.7-.1-2.5-1.4-2.6-1.6-2.6s1.3-3.7,1.5-11.7c.2-9.3-6.9-18.6-20.4-18.6s-20.6,9.2-20.4,18.6c.1,7.2,1.3,11,1.5,11.6h0c0,0,0,0,0,0-.1,0-1.4.1-1.6,2.6-.1,2.7,1,4.1,1.7,7.7.7,3.3,2.5,3.3,2.5,3.3,0,0,.3,2.2.8,4.5v.5c.4,1.4.8,2.8,1.1,3.7.9,2.3,2.6,4.9,2.6,4.9,0,0,.5,10.1-.4,11.2-.9,1.1-3.6,2.1-5.5,2.5-3.3.7-8.3,1.2-11.9,2.5-2.8,1-10.2,3.9-13.2,9.3h-29.4v-101.8h144ZM322,74.3v101.8h-29.3c-3-5.5-10.4-8.4-13.2-9.4-3.5-1.3-8.6-1.7-11.9-2.4-1.9-.4-4.6-1.4-5.5-2.5s-.4-11.2-.4-11.2c0,0,1.7-2.6,2.6-4.9s1.9-8.6,1.9-8.6h0c.2,0,1.9-.2,2.5-3.3.7-3.6,1.8-5,1.7-7.7-.1-2.5-1.4-2.6-1.6-2.6s1.3-3.7,1.5-11.7c.2-9.3-6.9-18.6-20.4-18.6s-20.6,9.2-20.4,18.6c.1,7.2,1.3,11,1.5,11.6h0c0,0,0,0,0,0-.1,0-1.4.1-1.6,2.6-.1,2.7,1,4.1,1.7,7.7.7,3.3,2.5,3.3,2.5,3.3,0,0,.3,2.2.8,4.5v.5c.4,1.4.8,2.8,1.1,3.7.9,2.3,2.6,4.9,2.6,4.9,0,0,.5,10.1-.4,11.2-.9,1.1-3.6,2.1-5.5,2.5-3.3.7-8.3,1.2-11.9,2.5-2.8,1-10.2,3.9-13.2,9.3h-29.4v-101.8h144ZM475,74.3v101.8h-29.3c-3-5.5-10.4-8.4-13.2-9.4-3.5-1.3-8.6-1.7-11.9-2.4-1.9-.4-4.6-1.4-5.5-2.5s-.4-11.2-.4-11.2c0,0,1.7-2.6,2.6-4.9s1.9-8.6,1.9-8.6h0c.2,0,1.9-.2,2.5-3.3.7-3.6,1.8-5,1.7-7.7-.1-2.5-1.4-2.6-1.6-2.6s1.3-3.7,1.5-11.7c.2-9.3-6.9-18.6-20.4-18.6s-20.6,9.2-20.4,18.6c.1,7.2,1.3,11,1.5,11.6h0c0,0,0,0,0,0-.1,0-1.4.1-1.6,2.6-.1,2.7,1,4.1,1.7,7.7.7,3.3,2.5,3.3,2.5,3.3,0,0,.3,2.2.8,4.5v.5c.4,1.4.8,2.8,1.1,3.7.9,2.3,2.6,4.9,2.6,4.9,0,0,.5,10.1-.4,11.2-.9,1.1-3.6,2.1-5.5,2.5-3.3.7-8.3,1.2-11.9,2.5-2.8,1-10.2,3.9-13.2,9.3h-29.4v-101.8h144ZM322,199.1v101.8h-29.3c-3-5.5-10.4-8.4-13.2-9.4-3.5-1.3-8.6-1.7-11.9-2.4-1.9-.4-4.6-1.4-5.5-2.5s-.4-11.2-.4-11.2c0,0,1.7-2.6,2.6-4.9s1.9-8.6,1.9-8.6h0c.2,0,1.9-.2,2.5-3.3.7-3.6,1.8-5,1.7-7.7-.1-2.5-1.4-2.6-1.6-2.6s1.3-3.7,1.5-11.7c.2-9.3-6.9-18.6-20.4-18.6s-20.6,9.2-20.4,18.6c.1,7.2,1.3,11,1.5,11.6h0c0,0,0,0,0,0-.1,0-1.4.1-1.6,2.6-.1,2.7,1,4.1,1.7,7.7.7,3.3,2.5,3.3,2.5,3.3,0,0,.3,2.2.8,4.5v.5c.4,1.4.8,2.8,1.1,3.7.9,2.3,2.6,4.9,2.6,4.9,0,0,.5,10.1-.4,11.2-.9,1.1-3.6,2.1-5.5,2.5-3.3.7-8.3,1.2-11.9,2.5-2.8,1-10.2,3.9-13.2,9.3h-29.4v-101.8h144ZM322,323.9v101.8h-29.3c-3-5.5-10.4-8.4-13.2-9.4-3.5-1.3-8.6-1.7-11.9-2.4-1.9-.4-4.6-1.4-5.5-2.5s-.4-11.2-.4-11.2c0,0,1.7-2.6,2.6-4.9.9-2.3,1.9-8.6,1.9-8.6h0c.2,0,1.9-.2,2.5-3.3.7-3.6,1.8-5,1.7-7.7-.1-2.5-1.4-2.6-1.6-2.6s1.3-3.7,1.5-11.7c.2-9.3-6.9-18.6-20.4-18.6s-20.6,9.2-20.4,18.6c.1,7.2,1.3,11,1.5,11.6h0c0,0,0,0,0,0-.1,0-1.4.1-1.6,2.6-.1,2.7,1,4.1,1.7,7.7.7,3.3,2.5,3.3,2.5,3.3,0,0,.3,2.2.8,4.5v.5c.4,1.4.8,2.8,1.1,3.7.9,2.3,2.6,4.9,2.6,4.9,0,0,.5,10.1-.4,11.2-.9,1.1-3.6,2.1-5.5,2.5-3.3.7-8.3,1.2-11.9,2.5-2.8,1-10.2,3.9-13.2,9.3h-29.4v-101.8h144ZM475,199.1v101.8h-29.3c-3-5.5-10.4-8.4-13.2-9.4-3.5-1.3-8.6-1.7-11.9-2.4-1.9-.4-4.6-1.4-5.5-2.5s-.4-11.2-.4-11.2c0,0,1.7-2.6,2.6-4.9s1.9-8.6,1.9-8.6h0c.2,0,1.9-.2,2.5-3.3.7-3.6,1.8-5,1.7-7.7-.1-2.5-1.4-2.6-1.6-2.6s1.3-3.7,1.5-11.7c.2-9.3-6.9-18.6-20.4-18.6s-20.6,9.2-20.4,18.6c.1,7.2,1.3,11,1.5,11.6h0c0,0,0,0,0,0-.1,0-1.4.1-1.6,2.6-.1,2.7,1,4.1,1.7,7.7.7,3.3,2.5,3.3,2.5,3.3,0,0,.3,2.2.8,4.5v.5c.4,1.4.8,2.8,1.1,3.7.9,2.3,2.6,4.9,2.6,4.9,0,0,.5,10.1-.4,11.2-.9,1.1-3.6,2.1-5.5,2.5-3.3.7-8.3,1.2-11.9,2.5-2.8,1-10.2,3.9-13.2,9.3h-29.4v-101.8h144ZM475,323.9v101.8h-29.3c-3-5.5-10.4-8.4-13.2-9.4-3.5-1.3-8.6-1.7-11.9-2.4-1.9-.4-4.6-1.4-5.5-2.5s-.4-11.2-.4-11.2c0,0,1.7-2.6,2.6-4.9.9-2.3,1.9-8.6,1.9-8.6h0c.2,0,1.9-.2,2.5-3.3.7-3.6,1.8-5,1.7-7.7-.1-2.5-1.4-2.6-1.6-2.6s1.3-3.7,1.5-11.7c.2-9.3-6.9-18.6-20.4-18.6s-20.6,9.2-20.4,18.6c.1,7.2,1.3,11,1.5,11.6h0c0,0,0,0,0,0-.1,0-1.4.1-1.6,2.6-.1,2.7,1,4.1,1.7,7.7.7,3.3,2.5,3.3,2.5,3.3,0,0,.3,2.2.8,4.5v.5c.4,1.4.8,2.8,1.1,3.7.9,2.3,2.6,4.9,2.6,4.9,0,0,.5,10.1-.4,11.2-.9,1.1-3.6,2.1-5.5,2.5-3.3.7-8.3,1.2-11.9,2.5-2.8,1-10.2,3.9-13.2,9.3h-29.4v-101.8h144Z"/>
</svg>