<?xml version="1.0" encoding="UTF-8"?>
<svg id="Layer_1" xmlns="http://www.w3.org/2000/svg" version="1.1" viewBox="0 0 500 500">
  <!-- Generator: Adobe Illustrator 29.1.0, SVG Export Plug-In . SVG Version: 2.1.0 Build 142)  -->
  <defs>
    <style>
      .st0 {
        fill-rule: evenodd;
      }
    </style>
  </defs>
  <path class="st0" d="M132,72.2v76h-21.8c-2.2-4.1-7.7-6.3-9.8-7-2.6-.9-6.4-1.3-8.8-1.8-1.4-.3-3.4-1.1-4.1-1.9-.7-.8-.3-8.4-.3-8.4,0,0,1.2-2,1.9-3.7.7-1.7,1.4-6.4,1.4-6.4h0c.2,0,1.4-.2,1.9-2.4.5-2.7,1.3-3.8,1.2-5.8,0-1.9-1.1-1.9-1.2-1.9s1-2.8,1.1-8.7c.2-7-5.1-13.9-15.2-13.9s-15.3,6.9-15.2,13.9c.1,5.9,1.2,8.7,1.2,8.7,0,0-1.1,0-1.2,1.9,0,2,.7,3,1.2,5.7.5,2.4,1.9,2.5,1.9,2.5,0,0,.2,1.6.6,3.3v.5c.3,1,.6,2.1.8,2.7.7,1.7,1.9,3.7,1.9,3.7,0,0,.4,7.6-.3,8.4-.7.8-2.7,1.6-4.1,1.9-2.4.5-6.2.9-8.8,1.8-2.1.7-7.6,2.9-9.8,7h-21.9s0-76,0-76h107ZM132,165.4v76h-21.8c-2.2-4.1-7.7-6.3-9.8-7-2.6-.9-6.4-1.3-8.8-1.8-1.4-.3-3.4-1.1-4.1-1.9-.7-.8-.3-8.4-.3-8.4,0,0,1.2-2,1.9-3.7.7-1.7,1.4-6.4,1.4-6.4h0c.2,0,1.4-.2,1.9-2.4.5-2.7,1.3-3.8,1.2-5.8,0-1.9-1.1-1.9-1.2-1.9s1-2.8,1.1-8.7c.2-7-5.1-13.9-15.2-13.9s-15.3,6.9-15.2,13.9c.1,5.9,1.2,8.7,1.2,8.7,0,0-1.1,0-1.2,1.9,0,2,.7,3,1.2,5.7.5,2.4,1.9,2.5,1.9,2.5,0,0,.2,1.6.6,3.3v.5c.3,1,.6,2.1.8,2.7.7,1.7,1.9,3.7,1.9,3.7,0,0,.4,7.6-.3,8.4-.7.8-2.7,1.6-4.1,1.9-2.4.5-6.2.9-8.8,1.8-2.1.7-7.6,2.9-9.8,7h-21.9s0-76,0-76h107ZM132,258.6v76h-21.8c-2.2-4.1-7.7-6.3-9.8-7-2.6-.9-6.4-1.3-8.8-1.8-1.4-.3-3.4-1.1-4.1-1.9-.7-.8-.3-8.4-.3-8.4,0,0,1.2-2,1.9-3.7.7-1.7,1.4-6.4,1.4-6.4h0c.2,0,1.4-.2,1.9-2.4.5-2.7,1.3-3.8,1.2-5.8,0-1.9-1.1-1.9-1.2-1.9s1-2.8,1.1-8.7c.2-7-5.1-13.9-15.2-13.9s-15.3,6.9-15.2,13.9c.1,5.9,1.2,8.7,1.2,8.7,0,0-1.1,0-1.2,1.9,0,2,.7,3,1.2,5.7.5,2.4,1.9,2.5,1.9,2.5,0,0,.2,1.6.6,3.3v.5c.3,1,.6,2.1.8,2.7.7,1.7,1.9,3.7,1.9,3.7,0,0,.4,7.6-.3,8.4-.7.8-2.7,1.6-4.1,1.9-2.4.5-6.2.9-8.8,1.8-2.1.7-7.6,2.9-9.8,7h-21.9v-76h107ZM132,351.8v76h-21.8c-2.2-4.1-7.7-6.3-9.8-7-2.6-.9-6.4-1.3-8.8-1.8-1.4-.3-3.4-1.1-4.1-1.9-.7-.8-.3-8.4-.3-8.4,0,0,1.2-2,1.9-3.7.7-1.7,1.4-6.4,1.4-6.4h0c.2,0,1.4-.2,1.9-2.4.5-2.7,1.3-3.8,1.2-5.8,0-1.9-1.1-1.9-1.2-1.9s1-2.8,1.1-8.7c.2-7-5.1-13.9-15.2-13.9s-15.3,6.9-15.2,13.9c.1,5.9,1.2,8.7,1.2,8.7,0,0-1.1,0-1.2,1.9,0,2,.7,3,1.2,5.7.5,2.4,1.9,2.5,1.9,2.5,0,0,.2,1.6.6,3.3v.5c.3,1,.6,2.1.8,2.7.7,1.7,1.9,3.7,1.9,3.7,0,0,.4,7.6-.3,8.4-.7.8-2.7,1.6-4.1,1.9-2.4.5-6.2.9-8.8,1.8-2.1.7-7.6,2.9-9.8,7h-21.9s0-76,0-76h107ZM247,72.2v76h-22c-2.3-4.1-7.8-6.3-9.9-7-2.7-.9-6.5-1.3-8.9-1.8-1.4-.3-3.4-1.1-4.1-1.9s-.3-8.4-.3-8.4c0,0,1.3-2,1.9-3.7.7-1.7,1.4-6.4,1.4-6.4h0c.2,0,1.4-.2,1.9-2.4.5-2.7,1.4-3.8,1.3-5.8,0-1.9-1.1-1.9-1.2-1.9s1-2.8,1.1-8.7c.2-7-5.2-13.9-15.3-13.9s-15.5,6.9-15.3,13.9c.1,5.1.9,7.9,1.1,8.6h0c0,0,0,.1,0,.1,0,0-1.1,0-1.2,1.9,0,2,.7,3,1.3,5.7.5,2.4,1.9,2.5,1.9,2.5,0,0,.7,4.7,1.4,6.5.7,1.7,1.9,3.7,1.9,3.7,0,0,0,1.8.1,3.8v.5c0,1.9,0,3.7-.4,4.1-.7.8-2.7,1.6-4.1,1.9-2.4.5-6.2.9-8.9,1.8-2.1.7-7.6,2.9-9.9,7h-22.1s0-76,0-76h108ZM361,72.2v76h-21.8c-2.2-4.1-7.7-6.3-9.8-7-2.6-.9-6.4-1.3-8.8-1.8-1.4-.3-3.4-1.1-4.1-1.9-.7-.8-.3-8.4-.3-8.4,0,0,1.2-2,1.9-3.7.7-1.7,1.4-6.4,1.4-6.4h0c.2,0,1.4-.2,1.9-2.4.5-2.7,1.3-3.8,1.2-5.8,0-1.9-1.1-1.9-1.2-1.9s1-2.8,1.1-8.7c.2-7-5.1-13.9-15.2-13.9s-15.3,6.9-15.2,13.9c.1,5.9,1.2,8.7,1.2,8.7,0,0-1.1,0-1.2,1.9,0,2,.7,3,1.2,5.7.5,2.4,1.9,2.5,1.9,2.5,0,0,.2,1.6.6,3.3v.5c.3,1,.6,2.1.8,2.7.7,1.7,1.9,3.7,1.9,3.7,0,0,.4,7.6-.3,8.4-.7.8-2.7,1.6-4.1,1.9-2.4.5-6.2.9-8.8,1.8-2.1.7-7.6,2.9-9.8,7h-21.9s0-76,0-76h107ZM475,72.2v76h-21.8c-2.2-4.1-7.7-6.3-9.8-7-2.6-.9-6.4-1.3-8.8-1.8-1.4-.3-3.4-1.1-4.1-1.9-.7-.8-.3-8.4-.3-8.4,0,0,1.2-2,1.9-3.7.7-1.7,1.4-6.4,1.4-6.4h0c.2,0,1.4-.2,1.9-2.4.5-2.7,1.3-3.8,1.2-5.8,0-1.9-1.1-1.9-1.2-1.9s1-2.8,1.1-8.7c.2-7-5.1-13.9-15.2-13.9s-15.3,6.9-15.2,13.9c.1,5.9,1.2,8.7,1.2,8.7,0,0-1.1,0-1.2,1.9,0,2,.7,3,1.2,5.7.5,2.4,1.9,2.5,1.9,2.5,0,0,.2,1.6.6,3.3v.5c.3,1,.6,2.1.8,2.7.7,1.7,1.9,3.7,1.9,3.7,0,0,.4,7.6-.3,8.4-.7.8-2.7,1.6-4.1,1.9-2.4.5-6.2.9-8.8,1.8-2.1.7-7.6,2.9-9.8,7h-21.9s0-76,0-76h107ZM247,165.4v76h-22c-2.3-4.1-7.8-6.3-9.9-7-2.7-.9-6.5-1.3-8.9-1.8-1.4-.3-3.4-1.1-4.1-1.9s-.3-8.4-.3-8.4c0,0,1.3-2,1.9-3.7s1.4-6.4,1.4-6.4h0c.2,0,1.4-.2,1.9-2.4.5-2.7,1.4-3.8,1.3-5.8,0-1.9-1.1-1.9-1.2-1.9s1-2.8,1.1-8.7c.2-7-5.2-13.9-15.3-13.9s-15.5,6.9-15.3,13.9c.1,5.1.9,7.9,1.1,8.6h0c0,0,0,.1,0,.1,0,0-1.1,0-1.2,1.9,0,2,.7,3,1.3,5.7.5,2.4,1.9,2.5,1.9,2.5,0,0,.7,4.7,1.4,6.5s1.9,3.7,1.9,3.7c0,0,0,1.8.1,3.8v.5c0,1.9,0,3.7-.4,4.1-.7.8-2.7,1.6-4.1,1.9-2.4.5-6.2.9-8.9,1.8-2.1.7-7.6,2.9-9.9,7h-22.1v-76h108ZM247,258.6v76h-22c-2.3-4.1-7.8-6.3-9.9-7-2.7-.9-6.5-1.3-8.9-1.8-1.4-.3-3.4-1.1-4.1-1.9-.7-.8-.3-8.4-.3-8.4,0,0,1.3-2,1.9-3.7s1.4-6.4,1.4-6.4h0c.2,0,1.4-.2,1.9-2.4.5-2.7,1.4-3.8,1.3-5.8,0-1.9-1.1-1.9-1.2-1.9s1-2.8,1.1-8.7c.2-7-5.2-13.9-15.3-13.9s-15.5,6.9-15.3,13.9c.1,5.1.9,7.9,1.1,8.6h0c0,0,0,.1,0,.1,0,0-1.1,0-1.2,1.9,0,2,.7,3,1.3,5.7.5,2.4,1.9,2.5,1.9,2.5,0,0,.7,4.7,1.4,6.5.7,1.7,1.9,3.7,1.9,3.7,0,0,0,1.8.1,3.8v.5c0,1.9,0,3.7-.4,4.1-.7.8-2.7,1.6-4.1,1.9-2.4.5-6.2.9-8.9,1.8-2.1.7-7.6,2.9-9.9,7h-22.1v-76h108ZM247,351.8v76h-22c-2.3-4.1-7.8-6.3-9.9-7-2.7-.9-6.5-1.3-8.9-1.8-1.4-.3-3.4-1.1-4.1-1.9s-.3-8.4-.3-8.4c0,0,1.3-2,1.9-3.7s1.4-6.4,1.4-6.4h0c.2,0,1.4-.2,1.9-2.4.5-2.7,1.4-3.8,1.3-5.8,0-1.9-1.1-1.9-1.2-1.9s1-2.8,1.1-8.7c.2-7-5.2-13.9-15.3-13.9s-15.5,6.9-15.3,13.9c.1,5.1.9,7.9,1.1,8.6h0c0,0,0,.1,0,.1,0,0-1.1,0-1.2,1.9,0,2,.7,3,1.3,5.7.5,2.4,1.9,2.5,1.9,2.5,0,0,.7,4.7,1.4,6.5.7,1.7,1.9,3.7,1.9,3.7,0,0,0,1.8.1,3.8v.5c0,1.9,0,3.7-.4,4.1-.7.8-2.7,1.6-4.1,1.9-2.4.5-6.2.9-8.9,1.8-2.1.7-7.6,2.9-9.9,7h-22.1s0-76,0-76h108ZM361,165.4v76h-21.8c-2.2-4.1-7.7-6.3-9.8-7-2.6-.9-6.4-1.3-8.8-1.8-1.4-.3-3.4-1.1-4.1-1.9-.7-.8-.3-8.4-.3-8.4,0,0,1.2-2,1.9-3.7.7-1.7,1.4-6.4,1.4-6.4h0c.2,0,1.4-.2,1.9-2.4.5-2.7,1.3-3.8,1.2-5.8,0-1.9-1.1-1.9-1.2-1.9s1-2.8,1.1-8.7c.2-7-5.1-13.9-15.2-13.9s-15.3,6.9-15.2,13.9c.1,5.9,1.2,8.7,1.2,8.7,0,0-1.1,0-1.2,1.9,0,2,.7,3,1.2,5.7.5,2.4,1.9,2.5,1.9,2.5,0,0,.2,1.6.6,3.3v.5c.3,1,.6,2.1.8,2.7.7,1.7,1.9,3.7,1.9,3.7,0,0,.4,7.6-.3,8.4-.7.8-2.7,1.6-4.1,1.9-2.4.5-6.2.9-8.8,1.8-2.1.7-7.6,2.9-9.8,7h-21.9s0-76,0-76h107ZM475,165.4v76h-21.8c-2.2-4.1-7.7-6.3-9.8-7-2.6-.9-6.4-1.3-8.8-1.8-1.4-.3-3.4-1.1-4.1-1.9-.7-.8-.3-8.4-.3-8.4,0,0,1.2-2,1.9-3.7.7-1.7,1.4-6.4,1.4-6.4h0c.2,0,1.4-.2,1.9-2.4.5-2.7,1.3-3.8,1.2-5.8,0-1.9-1.1-1.9-1.2-1.9s1-2.8,1.1-8.7c.2-7-5.1-13.9-15.2-13.9s-15.3,6.9-15.2,13.9c.1,5.9,1.2,8.7,1.2,8.7,0,0-1.1,0-1.2,1.9,0,2,.7,3,1.2,5.7.5,2.4,1.9,2.5,1.9,2.5,0,0,.2,1.6.6,3.3v.5c.3,1,.6,2.1.8,2.7.7,1.7,1.9,3.7,1.9,3.7,0,0,.4,7.6-.3,8.4-.7.8-2.7,1.6-4.1,1.9-2.4.5-6.2.9-8.8,1.8-2.1.7-7.6,2.9-9.8,7h-21.9s0-76,0-76h107ZM361,258.6v76h-21.8c-2.2-4.1-7.7-6.3-9.8-7-2.6-.9-6.4-1.3-8.8-1.8-1.4-.3-3.4-1.1-4.1-1.9-.7-.8-.3-8.4-.3-8.4,0,0,1.2-2,1.9-3.7.7-1.7,1.4-6.4,1.4-6.4h0c.2,0,1.4-.2,1.9-2.4.5-2.7,1.3-3.8,1.2-5.8,0-1.9-1.1-1.9-1.2-1.9s1-2.8,1.1-8.7c.2-7-5.1-13.9-15.2-13.9s-15.3,6.9-15.2,13.9c.1,5.9,1.2,8.7,1.2,8.7,0,0-1.1,0-1.2,1.9,0,2,.7,3,1.2,5.7.5,2.4,1.9,2.5,1.9,2.5,0,0,.2,1.6.6,3.3v.5c.3,1,.6,2.1.8,2.7.7,1.7,1.9,3.7,1.9,3.7,0,0,.4,7.6-.3,8.4-.7.8-2.7,1.6-4.1,1.9-2.4.5-6.2.9-8.8,1.8-2.1.7-7.6,2.9-9.8,7h-21.9v-76h107ZM361,351.8v76h-21.8c-2.2-4.1-7.7-6.3-9.8-7-2.6-.9-6.4-1.3-8.8-1.8-1.4-.3-3.4-1.1-4.1-1.9-.7-.8-.3-8.4-.3-8.4,0,0,1.2-2,1.9-3.7.7-1.7,1.4-6.4,1.4-6.4h0c.2,0,1.4-.2,1.9-2.4.5-2.7,1.3-3.8,1.2-5.8,0-1.9-1.1-1.9-1.2-1.9s1-2.8,1.1-8.7c.2-7-5.1-13.9-15.2-13.9s-15.3,6.9-15.2,13.9c.1,5.9,1.2,8.7,1.2,8.7,0,0-1.1,0-1.2,1.9,0,2,.7,3,1.2,5.7.5,2.4,1.9,2.5,1.9,2.5,0,0,.2,1.6.6,3.3v.5c.3,1,.6,2.1.8,2.7.7,1.7,1.9,3.7,1.9,3.7,0,0,.4,7.6-.3,8.4-.7.8-2.7,1.6-4.1,1.9-2.4.5-6.2.9-8.8,1.8-2.1.7-7.6,2.9-9.8,7h-21.9s0-76,0-76h107ZM475,258.6v76h-21.8c-2.2-4.1-7.7-6.3-9.8-7-2.6-.9-6.4-1.3-8.8-1.8-1.4-.3-3.4-1.1-4.1-1.9-.7-.8-.3-8.4-.3-8.4,0,0,1.2-2,1.9-3.7.7-1.7,1.4-6.4,1.4-6.4h0c.2,0,1.4-.2,1.9-2.4.5-2.7,1.3-3.8,1.2-5.8,0-1.9-1.1-1.9-1.2-1.9s1-2.8,1.1-8.7c.2-7-5.1-13.9-15.2-13.9s-15.3,6.9-15.2,13.9c.1,5.9,1.2,8.7,1.2,8.7,0,0-1.1,0-1.2,1.9,0,2,.7,3,1.2,5.7.5,2.4,1.9,2.5,1.9,2.5,0,0,.2,1.6.6,3.3v.5c.3,1,.6,2.1.8,2.7.7,1.7,1.9,3.7,1.9,3.7,0,0,.4,7.6-.3,8.4-.7.8-2.7,1.6-4.1,1.9-2.4.5-6.2.9-8.8,1.8-2.1.7-7.6,2.9-9.8,7h-21.9v-76h107ZM475,351.8v76h-21.8c-2.2-4.1-7.7-6.3-9.8-7-2.6-.9-6.4-1.3-8.8-1.8-1.4-.3-3.4-1.1-4.1-1.9-.7-.8-.3-8.4-.3-8.4,0,0,1.2-2,1.9-3.7.7-1.7,1.4-6.4,1.4-6.4h0c.2,0,1.4-.2,1.9-2.4.5-2.7,1.3-3.8,1.2-5.8,0-1.9-1.1-1.9-1.2-1.9s1-2.8,1.1-8.7c.2-7-5.1-13.9-15.2-13.9s-15.3,6.9-15.2,13.9c.1,5.9,1.2,8.7,1.2,8.7,0,0-1.1,0-1.2,1.9,0,2,.7,3,1.2,5.7.5,2.4,1.9,2.5,1.9,2.5,0,0,.2,1.6.6,3.3v.5c.3,1,.6,2.1.8,2.7.7,1.7,1.9,3.7,1.9,3.7,0,0,.4,7.6-.3,8.4-.7.8-2.7,1.6-4.1,1.9-2.4.5-6.2.9-8.8,1.8-2.1.7-7.6,2.9-9.8,7h-21.9s0-76,0-76h107Z"/>
</svg>