<svg xmlns="http://www.w3.org/2000/svg" width="512" height="512" viewBox="0 0 512 512">
  <defs>
    <style>
      .st0 {
        fill-rule: evenodd;
      }
    </style>
  </defs>
  <path class="st0" d="M249.948,111.172v137.069h-39.495c-4.046-7.428-14.02-11.293-17.785-12.641-4.769-1.705-11.627-2.297-15.978-3.237-2.506-.557-6.161-1.949-7.379-3.411-.538-.645-.696-3.668-.704-6.845v-.638c.012-3.825.216-7.659.216-7.659,0,0,2.263-3.55,3.481-6.648.475-1.207.966-3.241,1.388-5.272l.109-.529c.387-1.934.736-3.877,1.045-5.825h.011c.179-.007,2.53-.169,3.4-4.386.974-4.803,2.437-6.788,2.263-10.408-.174-3.341-1.915-3.516-2.123-3.516s1.81-5.047,2.053-15.698c.313-12.566-9.329-24.993-27.465-24.993s-27.742,12.391-27.464,24.992c.209,10.617,2.089,15.698,2.089,15.698-.174,0-1.915.175-2.124,3.516-.173,3.585,1.323,5.5,2.263,10.303.905,4.386,3.411,4.455,3.411,4.455,0,0,.492,3.176,1.153,6.362l.112.531.114.528c.366,1.663.77,3.231,1.162,4.24,1.218,3.133,3.481,6.648,3.481,6.648,0,0,.204,3.825.216,7.647v.636c-.009,3.174-.166,6.199-.704,6.859-1.218,1.462-4.873,2.854-7.379,3.411-4.386.974-11.209,1.602-15.978,3.307-3.759,1.345-13.707,5.199-17.748,12.57h-39.59V111.172h193.948ZM249.948,263.759v137.069h-39.495c-4.046-7.428-14.02-11.293-17.785-12.641-4.769-1.705-11.627-2.297-15.978-3.237-2.506-.557-6.161-1.949-7.379-3.411-.538-.645-.696-3.668-.704-6.845v-.638c.012-3.825.216-7.659.216-7.659,0,0,2.263-3.55,3.481-6.648.475-1.207.966-3.241,1.388-5.272l.109-.529c.387-1.934.736-3.877,1.045-5.825h.011c.179-.007,2.53-.169,3.4-4.386.974-4.803,2.437-6.788,2.263-10.408-.174-3.341-1.915-3.516-2.123-3.516s1.81-5.047,2.053-15.698c.313-12.567-9.329-24.994-27.465-24.994s-27.742,12.392-27.464,24.993c.209,10.616,2.089,15.698,2.089,15.698-.174,0-1.915.175-2.124,3.516-.173,3.585,1.323,5.5,2.263,10.303.905,4.386,3.411,4.455,3.411,4.455,0,0,.492,3.175,1.153,6.362l.112.531.114.528c.366,1.664.77,3.232,1.162,4.241,1.218,3.132,3.481,6.647,3.481,6.647,0,0,.204,3.825.216,7.647v.636c-.009,3.174-.166,6.198-.704,6.859-1.218,1.462-4.873,2.854-7.379,3.411-4.386.974-11.209,1.601-15.978,3.307-3.759,1.345-13.707,5.199-17.748,12.57h-39.59v-137.068h193.948ZM456,111.172v137.069h-39.494c-4.047-7.428-14.02-11.293-17.786-12.641-4.768-1.705-11.626-2.297-15.977-3.237-2.507-.557-6.161-1.949-7.379-3.411-.538-.645-.696-3.668-.705-6.845v-.638c.013-3.825.217-7.659.217-7.659,0,0,2.263-3.55,3.481-6.648.475-1.207.966-3.241,1.388-5.272l.109-.529c.387-1.934.736-3.877,1.045-5.825h.01c.18-.007,2.53-.169,3.401-4.386.974-4.803,2.436-6.788,2.262-10.408-.174-3.341-1.914-3.516-2.123-3.516s1.81-5.047,2.054-15.698c.313-12.566-9.329-24.993-27.465-24.993s-27.742,12.391-27.464,24.992c.209,10.617,2.088,15.698,2.088,15.698-.174,0-1.914.175-2.123,3.516-.174,3.585,1.323,5.5,2.263,10.303.905,4.386,3.411,4.455,3.411,4.455,0,0,.492,3.176,1.153,6.362l.111.531.115.528c.366,1.663.769,3.231,1.161,4.24,1.219,3.133,3.481,6.648,3.481,6.648,0,0,.205,3.825.217,7.647v.636c-.009,3.174-.167,6.199-.704,6.859-1.218,1.462-4.873,2.854-7.379,3.411-4.386.974-11.209,1.602-15.978,3.307-3.759,1.345-13.707,5.199-17.749,12.57h-39.589V111.172h193.947ZM456,263.759v137.069h-39.494c-4.047-7.428-14.02-11.293-17.786-12.641-4.768-1.705-11.626-2.297-15.977-3.237-2.507-.557-6.161-1.949-7.379-3.411-.538-.645-.696-3.668-.705-6.845v-.638c.013-3.825.217-7.659.217-7.659,0,0,2.263-3.55,3.481-6.648.475-1.207.966-3.241,1.388-5.272l.109-.529c.387-1.934.736-3.877,1.045-5.825h.01c.18-.007,2.53-.169,3.401-4.386.974-4.803,2.436-6.788,2.262-10.408-.174-3.341-1.914-3.516-2.123-3.516s1.81-5.047,2.054-15.698c.313-12.567-9.329-24.994-27.465-24.994s-27.742,12.392-27.464,24.993c.209,10.616,2.088,15.698,2.088,15.698-.174,0-1.914.175-2.123,3.516-.174,3.585,1.323,5.5,2.263,10.303.905,4.386,3.411,4.455,3.411,4.455,0,0,.492,3.175,1.153,6.362l.111.531.115.528c.366,1.664.769,3.232,1.161,4.241,1.219,3.132,3.481,6.647,3.481,6.647,0,0,.205,3.825.217,7.647v.636c-.009,3.174-.167,6.198-.704,6.859-1.218,1.462-4.873,2.854-7.379,3.411-4.386.974-11.209,1.601-15.978,3.307-3.759,1.345-13.707,5.199-17.749,12.57h-39.589v-137.068h193.947Z"/>
</svg>