<svg id="volume-mute" xmlns="http://www.w3.org/2000/svg" version="1.1" viewBox="0 0 512 512">
  <path d="M256,78.2l-46.4,46.4,46.4,46.4M84.2,56l-28.2,28.2,105.1,105.1H56v133.3h88.9l111.1,111.1v-149.6l94.4,94.7c-14.9,11.3-31.6,20.7-50,26v46c30.7-7.1,58.4-21.1,81.8-40.2l45.6,45.3,28.2-28.2-200-200M411.6,256c0,20.9-4.4,40.4-12,58.7l33.6,33.6c14.4-27.6,22.9-58.9,22.9-92.2,0-95.1-66.7-174.7-155.6-194.9v45.8c64.2,19.1,111.1,78.7,111.1,149.1h0ZM356,256c0-39.3-22.2-73.1-55.6-89.6v49.1l54.4,54.4c1.1-4.4,1.1-9.3,1.1-14h.1Z"/>
</svg>