<svg xmlns="http://www.w3.org/2000/svg" width="512" height="512" viewBox="0 0 512 512">
    <path d="M237 364.7V134.3l-72 66.5H86v97.1h79l72 66.8zm42.6-39.5c15.5-21.1 24.9-47.3 24.9-75.6 0-28.3-9.4-54.5-24.9-75.7l-15.5 11.5c13.2 18 21.1 39.9 21.1 64.1 0 24-7.9 46.1-21.1 64l15.5 11.7zm50.6 34.8c22.7-30.9 36.4-69.2 36.4-110.6 0-41.4-13.7-79.6-36.4-110.6l-15.5 11.7c20.4 27.6 32.6 61.8 32.6 98.9 0 37.1-12.2 71.3-32.6 98.9l15.5 11.7z"/>
    <path d="M362.8 115.5c27.6 37.4 44 83.8 44 134s-16.4 96.6-44 134l15.5 11.7c30-40.6 47.7-91 47.7-145.7 0-54.7-17.7-105-47.7-145.7l-15.5 11.7z"/>
</svg>
