<?xml version="1.0" encoding="UTF-8"?>
<svg width="512px" height="512px" viewBox="0 0 512 512" version="1.1" xmlns="http://www.w3.org/2000/svg" xmlns:xlink="http://www.w3.org/1999/xlink">
    <!-- Generator: Sketch 62 (91390) - https://sketch.com -->
    <title>volume-mute</title>
    <desc>Created with Sketch.</desc>
    <g id="volume-mute" stroke="none" stroke-width="1" fill="none" fill-rule="evenodd">
        <polygon id="Path" fill="#000000" fill-rule="nonzero" points="263.2 218.2 211 218.2 211 280.9 263.2 280.9 301 322.1 301 176.9"></polygon>
        <path d="M343.2,92.05 C342.9,91.95 342.6,91.75 342.3,91.55 C316.6,77.45 287.3,69.45 256,69.45 C156.6,69.45 76,149.95 76,249.45 C76,317.15 113.5,376.15 168.7,406.85 C169,406.95 169.3,407.35 169.6,407.45 C195.4,421.45 224.7,429.55 256,429.55 C355.4,429.55 436,348.95 436,249.55 C436,181.75 398.5,122.75 343.2,92.05 Z M366.8,329.35 L320.2,282.55 L320.2,344.15 L336,360.15 C313.5,376.45 285.9,386.45 256,386.45 C238.7,386.45 222,383.05 206.7,377.25 C201.5,375.25 196.4,372.95 191.4,370.35 C148.3,347.25 118.9,301.85 118.9,249.55 C118.9,219.65 128.9,192.15 145.2,169.65 L173.5,198.15 L235.2,198.15 L176,138.85 C198.5,122.65 225.9,112.65 255.9,112.65 C273.2,112.65 289.8,116.05 305.2,121.85 C310.1,123.75 315,125.95 319.6,128.25 C363.1,151.25 393,196.75 393,249.45 C393,279.35 383.1,306.85 366.8,329.35 L366.8,329.35 Z" id="Shape" fill="#000000" fill-rule="nonzero"></path>
    </g>
</svg>