<svg xmlns="http://www.w3.org/2000/svg" width="512" height="512" viewBox="0 0 512 512">
    <path d="M237 315.3V84.9l-72 66.5H86v97.1h79l72 66.8zm42.6-39.5c15.5-21.1 24.9-47.3 24.9-75.6s-9.4-54.5-24.9-75.7L264.1 136c13.2 18 21.1 39.9 21.1 64.1 0 24-7.9 46.1-21.1 64l15.5 11.7zm50.6 34.8c22.7-30.9 36.4-69.2 36.4-110.6s-13.7-79.6-36.4-110.6l-15.5 11.7c20.4 27.6 32.6 61.8 32.6 98.9s-12.2 71.3-32.6 98.9l15.5 11.7z"/>
    <path d="M362.8 66c27.6 37.4 44 83.8 44 134s-16.4 96.6-44 134l15.5 11.7c30-40.6 47.7-91 47.7-145.7S408.3 95 378.3 54.3L362.8 66z"/>
</svg>
