<?xml version="1.0" encoding="UTF-8"?>
<svg id="Layer_1" xmlns="http://www.w3.org/2000/svg" version="1.1" viewBox="0 0 500 500">
  <!-- Generator: Adobe Illustrator 29.1.0, SVG Export Plug-In . SVG Version: 2.1.0 Build 142)  -->
  <path d="M257.2,218.7h-52.2v62.7h52.2l37.8,41.2v-145.2l-37.8,41.3ZM359,53.2c-.4-.1-.8-.4-1.1-.6-32.1-17.6-68.8-27.6-107.9-27.6C125.8,24.9,25,125.6,25,249.9s46.9,158.4,115.9,196.7c.4.1.8.6,1.1.8,32.3,17.5,68.9,27.6,108,27.6,124.2,0,225-100.8,225-225s-46.9-158.5-116-196.9M388.5,349.8l-58.3-58.5v77l19.7,20c-28.1,20.4-62.6,32.9-100,32.9s-42.5-4.2-61.6-11.5c-6.5-2.5-12.9-5.4-19.1-8.6-53.9-28.9-90.6-85.6-90.6-151s12.5-71.8,32.9-99.9l35.4,35.6h77.1l-74-74.1c28.1-20.2,62.4-32.7,99.9-32.7s42.4,4.3,61.6,11.5c6.1,2.4,12.2,5.1,18,8,54.4,28.8,91.7,85.6,91.7,151.5s-12.4,71.7-32.8,99.9"/>
</svg>