<svg xmlns="http://www.w3.org/2000/svg" width="512" height="512" viewBox="0 0 512 512">
  <path d="M263.2,218.2h-52.2v62.7h52.2l37.8,41.2v-145.2l-37.8,41.3h0ZM352.862,81.104c-.333-.111-.666-.333-1-.555-28.548-15.662-61.094-24.549-95.862-24.549-110.414,0-199.944,89.42-199.944,199.944,0,75.201,41.655,140.739,102.971,174.84.333.111.666.555,1,.666,28.659,15.551,61.205,24.549,95.973,24.549,110.414,0,199.944-89.531,199.944-199.944,0-75.312-41.655-140.85-103.082-174.951M379.077,344.698l-51.763-51.986v68.425l17.551,17.773c-24.993,18.106-55.651,29.214-88.864,29.214-19.217,0-37.767-3.777-54.763-10.219-5.776-2.222-11.441-4.776-16.995-7.665-47.876-25.66-80.533-76.09-80.533-134.185,0-33.213,11.108-63.76,29.214-88.753l31.436,31.658h68.537l-65.76-65.871c24.993-17.995,55.429-29.103,88.753-29.103,19.217,0,37.656,3.777,54.763,10.219,5.443,2.111,10.886,4.554,15.996,7.109,48.32,25.548,81.533,76.09,81.533,134.629,0,33.213-10.997,63.76-29.103,88.753"/>
</svg>