<?xml version="1.0" encoding="UTF-8"?>
<svg id="Layer_1" xmlns="http://www.w3.org/2000/svg" version="1.1" viewBox="0 0 500 500">
  <!-- Generator: Adobe Illustrator 29.1.0, SVG Export Plug-In . SVG Version: 2.1.0 Build 142)  -->
  <path d="M224.9,402.5V97.5l-95.3,88H25v128.5h104.6l95.3,88.4ZM281.2,350.2c20.5-27.9,33-62.6,33-100.1s-12.4-72.1-33-100.2l-20.5,15.2c17.5,23.8,27.9,52.8,27.9,84.8s-10.5,61-27.9,84.7l20.5,15.5ZM348.2,396.2c30-40.9,48.2-91.6,48.2-146.4s-18.1-105.4-48.2-146.4l-20.5,15.5c27,36.5,43.1,81.8,43.1,130.9s-16.1,94.4-43.1,130.9l20.5,15.5ZM391.4,72.6c36.5,49.5,58.2,110.9,58.2,177.4s-21.7,127.9-58.2,177.4l20.5,15.5c39.7-53.7,63.1-120.4,63.1-192.8s-23.4-139-63.1-192.8l-20.5,15.5Z"/>
</svg>