<svg xmlns="http://www.w3.org/2000/svg" width="512" height="512" viewBox="0 0 512 512">
  <path d="M233.647,391.529V120.471l-84.706,78.235H56v114.235h92.941l84.706,78.588ZM283.765,345.059c18.235-24.824,29.294-55.647,29.294-88.941s-11.059-64.118-29.294-89.059l-18.235,13.529c15.529,21.176,24.824,46.941,24.824,75.412,0,28.235-9.294,54.235-24.824,75.294l18.235,13.765ZM343.294,386c26.706-36.353,42.824-81.412,42.824-130.118s-16.118-93.647-42.824-130.118l-18.235,13.765c24,32.471,38.353,72.706,38.353,116.353s-14.353,83.882-38.353,116.353l18.235,13.765ZM381.647,98.353c32.471,44,51.765,98.588,51.765,157.647s-19.294,113.647-51.765,157.647l18.235,13.765c35.294-47.765,56.118-107.059,56.118-171.412s-20.824-123.529-56.118-171.412l-18.235,13.765Z"/>
</svg>