<svg xmlns="http://www.w3.org/2000/svg" width="512" height="512" viewBox="0 0 512 512">
    <path d="M263.2 168.6H211v62.7h52.2l37.8 41.2V127.3l-37.8 41.3z"/>
    <path d="M343.2 42.6c-.3-.1-.6-.3-.9-.5C316.6 28 287.3 20 256 20c-99.4 0-180 80.5-180 180 0 67.7 37.5 126.7 92.7 157.4.3.1.6.5.9.6 25.8 14 55.1 22.1 86.4 22.1 99.4 0 180-80.6 180-180 0-67.8-37.5-126.8-92.8-157.5zm23.6 237.3l-46.6-46.8v61.6l15.8 16C313.5 327 285.9 337 256 337c-17.3 0-34-3.4-49.3-9.2-5.2-2-10.3-4.3-15.3-6.9-43.1-23.1-72.5-68.5-72.5-120.8 0-29.9 10-57.4 26.3-79.9l28.3 28.5h61.7L176 89.4c22.5-16.2 49.9-26.2 79.9-26.2 17.3 0 33.9 3.4 49.3 9.2 4.9 1.9 9.8 4.1 14.4 6.4 43.5 23 73.4 68.5 73.4 121.2 0 29.9-9.9 57.4-26.2 79.9z"/>
</svg>
