<?xml version="1.0" encoding="UTF-8"?>
<svg width="512px" height="512px" viewBox="0 0 512 512" version="1.1" xmlns="http://www.w3.org/2000/svg" xmlns:xlink="http://www.w3.org/1999/xlink">
    <!-- Generator: Sketch 62 (91390) - https://sketch.com -->
    <title>waterdrop</title>
    <desc>Created with Sketch.</desc>
    <g id="waterdrop" stroke="none" stroke-width="1" fill="none" fill-rule="evenodd">
        <path d="M268.7,65.1 L267.9,64.3 L267.8,64.2 C264.7,61.3 260.6,59.5 256,59.5 C251.3,59.5 247.2,61.3 244.2,64.2 L244.1,64.3 L243.3,65.1 C238.1,70.4 231.6,77.3 224.3,85.5 C209.5,102.2 191.6,124.5 174.7,150.6 C146.4,194.5 121.4,249.1 120.3,306 C120.3,307.1 120.2,308.3 120.2,309.4 C120.2,326.1 123.5,342 129.4,356.7 C132.9,365.2 137.2,373.2 142.3,380.6 C166.5,416 208.3,439.5 255.8,439.5 C330.8,439.5 391.600084,381.2 391.600084,309.4 C391.7,201 302.5,99.5 268.7,65.1 L268.7,65.1 Z M255.9,392 C242.5,392 229.9,388.9 218.7,383.4 C274.6,371.2 319.1,328.5 333.9,273.6 C338.3,283.9 340.9,295.2 340.9,307.2 C340.8,354 302.8,392 255.9,392 Z" id="Shape" fill="#000000" fill-rule="nonzero"></path>
    </g>
</svg>