<svg xmlns="http://www.w3.org/2000/svg" width="512" height="512" viewBox="0 0 512 512">
    <path fill-rule="nonzero" d="M268.7 65.1l-.8-.8-.1-.1c-3.1-2.9-7.2-4.7-11.8-4.7-4.7 0-8.8 1.8-11.8 4.7l-.1.1-.8.8c-5.2 5.3-11.7 12.2-19 20.4-14.8 16.7-32.7 39-49.6 65.1-28.3 43.9-53.3 98.5-54.4 155.4 0 1.1-.1 2.3-.1 3.4 0 16.7 3.3 32.6 9.2 47.3 3.5 8.5 7.8 16.5 12.9 23.9 24.2 35.4 66 58.9 113.5 58.9 75 0 135.8-58.3 135.8-130.1.1-108.4-89.1-209.9-122.9-244.3zM255.9 392c-13.4 0-26-3.1-37.2-8.6 55.9-12.2 100.4-54.9 115.2-109.8 4.4 10.3 7 21.6 7 33.6-.1 46.8-38.1 84.8-85 84.8z"/>
</svg>
