<svg xmlns="http://www.w3.org/2000/svg" width="512" height="512" viewBox="0 0 512 512">
  <path d="M269.474,61.895l-.842-.842-.105-.105c-3.263-3.053-7.579-4.947-12.421-4.947-4.947,0-9.263,1.895-12.421,4.947l-.105.105-.842.842c-5.474,5.579-12.316,12.842-20,21.474-15.579,17.579-34.421,41.053-52.211,68.526-29.789,46.211-56.105,103.684-57.263,163.579,0,1.158-.105,2.421-.105,3.579,0,17.579,3.474,34.316,9.684,49.789,3.684,8.947,8.211,17.368,13.579,25.158,25.474,37.263,69.474,62,119.474,62,78.947,0,142.947-61.368,142.947-136.947.105-114.105-93.789-220.947-129.368-257.158M256,406c-14.105,0-27.368-3.263-39.158-9.053,58.842-12.842,105.684-57.789,121.263-115.579,4.632,10.842,7.368,22.737,7.368,35.368-.105,49.263-40.105,89.263-89.474,89.263"/>
</svg>