<?xml version="1.0" encoding="UTF-8"?>
<svg id="Layer_1" xmlns="http://www.w3.org/2000/svg" version="1.1" viewBox="0 0 500 500">
  <!-- Generator: Adobe Illustrator 29.1.0, SVG Export Plug-In . SVG Version: 2.1.0 Build 142)  -->
  <path d="M265.2,31.6l-.9-.9h-.1c-3.7-3.6-8.5-5.7-14-5.7s-10.4,2.1-14,5.6h-.1c0,.1-.9,1.1-.9,1.1-6.2,6.3-13.9,14.4-22.5,24.2-17.5,19.8-38.7,46.2-58.7,77.1-33.5,52-63.1,116.6-64.4,184,0,1.3-.1,2.7-.1,4,0,19.8,3.9,38.6,10.9,56,4.1,10.1,9.2,19.5,15.3,28.3,28.7,41.9,78.2,69.7,134.4,69.7,88.8,0,160.8-69,160.8-154.1.1-128.4-105.5-248.6-145.5-289.3M250,418.8c-15.9,0-30.8-3.7-44.1-10.2,66.2-14.4,118.9-65,136.4-130,5.2,12.2,8.3,25.6,8.3,39.8-.1,55.4-45.1,100.4-100.7,100.4"/>
</svg>