<svg xmlns="http://www.w3.org/2000/svg" width="512" height="512" viewBox="0 0 512 512">
    <path d="M349.013 298.667C350.72 284.587 352 270.507 352 256c0-14.507-1.28-28.587-2.987-42.667h72.107c3.413 13.654 5.547 27.947 5.547 42.667 0 14.72-2.134 29.013-5.547 42.667M311.253 417.28c12.8-23.68 22.614-49.28 29.44-75.947h62.934c-20.48 35.2-53.12 62.507-92.374 75.947m-5.333-118.613h-99.84c-2.133-14.08-3.413-28.16-3.413-42.667 0-14.507 1.28-28.8 3.413-42.667h99.84c1.92 13.867 3.413 28.16 3.413 42.667 0 14.507-1.493 28.587-3.413 42.667M256 425.813c-17.707-25.6-32-53.973-40.747-84.48h81.494c-8.747 30.507-23.04 58.88-40.747 84.48m-85.333-255.146h-62.294c20.267-35.414 53.12-62.72 92.16-75.947-12.8 23.68-22.4 49.28-29.866 75.947m-62.294 170.666h62.294c7.466 26.667 17.066 52.267 29.866 75.947-39.04-13.44-71.893-40.747-92.16-75.947M90.88 298.667c-3.413-13.654-5.547-27.947-5.547-42.667 0-14.72 2.134-29.013 5.547-42.667h72.107C161.28 227.413 160 241.493 160 256c0 14.507 1.28 28.587 2.987 42.667M256 85.973c17.707 25.6 32 54.187 40.747 84.694h-81.494C224 140.16 238.293 111.573 256 85.973m147.627 84.694h-62.934c-6.826-26.667-16.64-52.267-29.44-75.947a170.382 170.382 0 0 1 92.374 75.947M256 42.667c-117.973 0-213.333 96-213.333 213.333A213.328 213.328 0 0 0 174.36 453.094 213.335 213.335 0 0 0 469.333 256 213.335 213.335 0 0 0 256 42.667"/>
</svg>
