<?xml version="1.0" encoding="UTF-8"?>
<svg id="Layer_1" xmlns="http://www.w3.org/2000/svg" version="1.1" viewBox="0 0 500 500">
  <!-- Generator: Adobe Illustrator 29.1.0, SVG Export Plug-In . SVG Version: 2.1.0 Build 142)  -->
  <path d="M348.1,295c1.8-14.9,3.2-29.7,3.2-45s-1.4-30.2-3.2-45h76.1c3.6,14.4,5.9,29.5,5.9,45s-2.3,30.6-5.9,45M308.3,420.1c13.5-25,23.9-52,31.1-80.1h66.4c-21.6,37.1-56,65.9-97.4,80.1M302.7,295h-105.3c-2.2-14.9-3.6-29.7-3.6-45s1.4-30.4,3.6-45h105.3c2,14.6,3.6,29.7,3.6,45s-1.6,30.2-3.6,45M250,429.1c-18.7-27-33.8-56.9-43-89.1h86c-9.2,32.2-24.3,62.1-43,89.1M160,160h-65.7c21.4-37.4,56-66.2,97.2-80.1-13.5,25-23.6,52-31.5,80.1M94.3,340h65.7c7.9,28.1,18,55.1,31.5,80.1-41.2-14.2-75.8-43-97.2-80.1M75.8,295c-3.6-14.4-5.9-29.5-5.9-45s2.3-30.6,5.9-45h76.1c-1.8,14.9-3.2,29.7-3.2,45s1.4,30.2,3.2,45M250,70.6c18.7,27,33.8,57.2,43,89.3h-86c9.2-32.2,24.3-62.3,43-89.3M405.7,160h-66.4c-7.2-28.1-17.6-55.1-31.1-80.1,41.1,14.1,75.7,42.5,97.4,80.1M250,25C125.6,25,25,126.2,25,250c0,91,54.8,173,138.9,207.9,114.8,47.6,246.4-7,294-121.8,11.3-27.3,17.1-56.6,17.1-86.1,0-124.3-100.7-225-225-225"/>
</svg>