<svg xmlns="http://www.w3.org/2000/svg" width="512" height="512" viewBox="0 0 512 512">
  <path d="M343.189,295.969c1.6-13.198,2.8-26.397,2.8-39.995s-1.2-26.797-2.8-39.995h67.592c3.199,12.799,5.2,26.197,5.2,39.995s-2,27.196-5.2,39.995M307.793,407.155c11.998-22.197,21.198-46.194,27.596-71.191h58.993c-19.198,32.996-49.794,58.593-86.59,71.191M302.794,295.969h-93.588c-1.999-13.198-3.199-26.397-3.199-39.995s1.2-26.997,3.199-39.995h93.588c1.8,12.999,3.199,26.397,3.199,39.995s-1.4,26.797-3.199,39.995M256,415.153c-16.598-23.997-29.996-50.593-38.195-79.19h76.391c-8.199,28.597-21.597,55.193-38.195,79.19M176.011,175.985h-58.393c18.998-33.196,49.794-58.792,86.389-71.191-11.998,22.197-20.997,46.194-27.996,71.191M117.617,335.964h58.393c6.998,24.997,15.997,48.994,27.996,71.191-36.595-12.598-67.391-38.195-86.389-71.191M101.22,295.969c-3.199-12.799-5.2-26.197-5.2-39.995s2-27.196,5.2-39.995h67.592c-1.6,13.198-2.8,26.397-2.8,39.995s1.2,26.797,2.8,39.995M256,96.594c16.598,23.997,29.996,50.794,38.195,79.39h-76.391c8.199-28.597,21.597-55.394,38.195-79.39M394.383,175.985h-58.993c-6.399-24.997-15.598-48.994-27.596-71.191,36.517,12.489,67.276,37.778,86.59,71.191M256,56c-110.586,0-199.974,89.988-199.974,199.974,0,80.882,48.721,153.8,123.446,184.752,102.037,42.264,219.016-6.192,261.28-108.229,10.049-24.261,15.221-50.264,15.222-76.523-.001-110.442-89.532-199.973-199.974-199.974"/>
</svg>