<svg xmlns="http://www.w3.org/2000/svg" width="512" height="512" viewBox="0 0 512 512">
  <path d="M455.942,236.695c0-6.829-4.553-9.893-10.243-6.741-20.574,11.644-41.148,23.376-61.81,34.845-3.327,1.839-4.728,4.377-4.728,8.23.088,19.699.088,39.485,0,59.096,0,3.502,1.401,5.866,4.465,7.529,20.487,11.557,40.973,23.201,61.372,34.67,6.304,3.502,10.856.963,10.856-6.304.175-21.8.175-43.775.088-65.575v-65.75ZM338.364,216.559c-32.919.088-139.466-.088-159.69.175-9.893.088-17.685,6.304-19.611,15.409-.788,3.152-.613,6.741-.613,10.068v124.408c0,12.957,8.317,21.362,21.187,21.45,26.703.088,53.405,0,80.108,0v.088h80.721c12.52,0,21.012-8.755,21.012-21.275v-127.56c.088-14.796-8.23-22.763-23.113-22.763M127.44,157.726v-33.882h-37.646v33.882h-33.794v37.646h33.794v33.794h37.646v-33.794h33.882v-37.646h-33.882Z"/>
</svg>