<?xml version="1.0" encoding="UTF-8"?>
<svg width="512px" height="512px" viewBox="0 0 512 512" version="1.1" xmlns="http://www.w3.org/2000/svg" xmlns:xlink="http://www.w3.org/1999/xlink">
    <!-- Generator: Sketch 62 (91390) - https://sketch.com -->
    <title>webcam-new</title>
    <desc>Created with Sketch.</desc>
    <g id="webcam-new" stroke="none" stroke-width="1" fill="none" fill-rule="evenodd">
        <path d="M425.9,244.9 C425.9,237.1 420.7,233.6 414.2,237.2 C390.7,250.5 367.2,263.9 343.6,277 C339.8,279.1 338.2,282 338.2,286.4 C338.3,308.9 338.3,331.5 338.2,353.9 C338.2,357.9 339.8,360.6 343.3,362.5 C366.7,375.7 390.1,389 413.4,402.1 C420.6,406.1 425.8,403.2 425.8,394.9 C426,370 426,344.9 425.9,320 L425.9,244.9 L425.9,244.9 Z M291.6,221.9 C254,222 132.3,221.8 109.2,222.1 C97.9,222.2 89,229.3 86.8,239.7 C85.9,243.3 86.1,247.4 86.1,251.2 L86.1,393.3 C86.1,408.1 95.6,417.7 110.3,417.8 C140.8,417.9 171.3,417.8 201.8,417.8 L201.8,417.9 L294,417.9 C308.3,417.9 318.000782,407.9 318.000782,393.6 L318.000782,247.9 C318.1,231 308.6,221.9 291.6,221.9 L291.6,221.9 Z M416,119.8 L416,81.1 L373,81.1 L373,119.8 L334.4,119.8 L334.4,162.8 L373,162.8 L373,201.4 L416,201.4 L416,162.8 L454.7,162.8 L454.7,119.8 L416,119.8 Z" id="Shape" fill="#000000" fill-rule="nonzero"></path>
    </g>
</svg>