<svg xmlns="http://www.w3.org/2000/svg" width="512" height="512" viewBox="0 0 512 512">
    <path fill-rule="nonzero" d="M86.6 179.4c-.9 3.7-.6 7.7-.6 11.6v142.1c0 14.8 9.5 24.4 24.2 24.5 30.5.1 61 0 91.5 0 30.8.1 59.2.1 90 0 9.9 0-174.1-195.9-174.1-195.9-10.1 0-4 .1-8.4.1-11.4.2-20.3 7.2-22.6 17.6zm205-17.7h-87.1l113.6 121.1v-95.1c0-16.9-9.5-26-26.5-26zm134.3 97.9v-75.1c0-7.8-5.2-11.3-11.7-7.7-23.5 13.3-47 26.7-70.6 39.8-3.8 2.1-5.4 5-5.4 9.4.1 22.5.1 45.1 0 67.5 0 4 1.6 6.7 5.1 8.6 23.4 13.2 46.8 26.5 70.1 39.6 7.2 4 12.4 1.1 12.4-7.2.2-24.7.2-49.8.1-74.9m-69 133L109.3 123.1l16.8-16.7 247.6 269.5-16.8 16.7z"/>
</svg>
