<svg xmlns="http://www.w3.org/2000/svg" width="512" height="512" viewBox="0 0 512 512"><path fill-rule="evenodd" d="M90.026 49.883c0-6.188.003-12.376-.003-18.561 0-1.925-1.293-2.773-2.882-1.878-5.813 3.28-11.616 6.579-17.435 9.846-.943.529-1.352 1.233-1.346 2.32.033 5.562.03 11.123.006 16.684-.003 1.002.394 1.656 1.257 2.14 5.783 3.259 11.551 6.544 17.334 9.802 1.782 1.005 3.075.25 3.078-1.792.012-6.188.006-12.373.006-18.561h-.015M56.813 25.652c-9.306.018-39.37-.02-45.094.042-2.793.032-5 1.785-5.554 4.349-.202.922-.157 1.904-.157 2.859-.01 11.707-.01 23.418-.006 35.126.003 3.651 2.346 6.049 5.99 6.06 7.533.022 15.068.007 22.6.007v.017c7.607 0 15.213.012 22.823-.005 3.538-.01 5.94-2.478 5.94-6.017-.006-12.003-.003-24.007-.006-36.01 0-4.172-2.337-6.437-6.536-6.428"/></svg>