<svg width="96" height="96" xmlns="http://www.w3.org/2000/svg"><g fill="#221F20" fill-rule="evenodd"><path d="M6.165 30.044c-.202.92-.157 1.904-.157 2.859-.01 11.708-.01 23.416-.006 35.126.003 3.652 2.346 6.05 5.99 6.058 7.533.024 15.065.01 22.6.01 7.607.014 14.636.026 22.246.008 2.446-.006-43.04-48.437-43.04-48.437-2.487.006-1.005.015-2.079.027-2.796.03-5 1.786-5.554 4.35zM56.813 25.652c-4.416.008-12.592.005-21.54.005l28.079 29.936-.003-23.514c0-4.172-2.337-6.433-6.536-6.427zM90.026 49.883c0-6.188.003-12.376-.003-18.561 0-1.925-1.293-2.773-2.882-1.878-5.813 3.28-11.616 6.579-17.435 9.846-.943.529-1.352 1.233-1.346 2.32.033 5.562.03 11.123.006 16.684-.003 1.002.394 1.656 1.257 2.14 5.783 3.259 11.551 6.544 17.334 9.802 1.782 1.005 3.075.25 3.078-1.792.012-6.188.006-12.373.006-18.561h-.015M72.959 82.726L11.752 16.127 15.902 12l61.206 66.596z"/></g></svg>