<?xml version="1.0" encoding="UTF-8"?>
<svg id="Layer_1" xmlns="http://www.w3.org/2000/svg" version="1.1" viewBox="0 0 500 500">
  <!-- Generator: Adobe Illustrator 29.1.0, SVG Export Plug-In . SVG Version: 2.1.0 Build 142)  -->
  <path d="M25.9,157.2c-1.2,4.9-.8,10.2-.8,15.4v188.1c0,19.6,12.6,32.3,32,32.4,40.4.1,80.7,0,121.1,0,40.8.1,78.3.1,119.1,0,13.1,0-230.4-259.3-230.4-259.3-13.4,0-5.3.1-11.1.1-15.1.3-26.9,9.5-29.9,23.3M297.2,133.8h-115.3l150.3,160.3v-125.9c0-22.4-12.6-34.4-35.1-34.4M474.9,263.4v-99.4c0-10.3-6.9-15-15.5-10.2-31.1,17.6-62.2,35.3-93.4,52.7-5,2.8-7.1,6.6-7.1,12.4.1,29.8.1,59.7,0,89.3,0,5.3,2.1,8.9,6.7,11.4,31,17.5,61.9,35.1,92.8,52.4,9.5,5.3,16.4,1.5,16.4-9.5.3-32.7.3-65.9.1-99.1M383.6,439.4L55.9,82.7l22.2-22.1,327.7,356.7-22.2,22.1Z"/>
</svg>