<?xml version="1.0" encoding="UTF-8"?>
<svg id="Layer_1" xmlns="http://www.w3.org/2000/svg" version="1.1" viewBox="0 0 500 500">
  <!-- Generator: Adobe Illustrator 29.1.0, SVG Export Plug-In . SVG Version: 2.1.0 Build 142)  -->
  <path d="M474.9,228.3c0-7.7-5.1-11.1-11.5-7.6-23.1,13.1-46.3,26.3-69.5,39.2-3.7,2.1-5.3,4.9-5.3,9.3,0,22.2,0,44.4,0,66.5,0,3.9,1.6,6.6,5,8.5,23,13,46.1,26.1,69,39,7.1,3.9,12.2,1.1,12.2-7.1.2-24.5.2-49.2,0-73.8v-74ZM342.7,205.6c-37,0-156.9,0-179.7.2-11.1,0-19.9,7.1-22.1,17.3-.9,3.5-.7,7.6-.7,11.3v140c0,14.6,9.4,24,23.8,24.1,30,0,60.1,0,90.1,0h0c0,0,90.8,0,90.8,0,14.1,0,23.6-9.8,23.6-23.9v-143.5c0-16.6-9.3-25.6-26-25.6M105.4,139.4v-38.1h-42.4v38.1H25v42.4h38v38h42.4v-38h38.1v-42.4h-38.1Z"/>
</svg>