<svg xmlns="http://www.w3.org/2000/svg" width="512" height="512" viewBox="0 0 512 512">
  <path d="M455.923,256.118v-88.383c0-9.18-6.12-13.299-13.769-9.062-27.656,15.652-55.313,31.422-83.087,46.839-4.472,2.471-6.355,5.884-6.355,11.063.118,26.48.118,53.077,0,79.439,0,4.707,1.883,7.885,6.002,10.121,27.539,15.535,55.077,31.187,82.499,46.604,8.473,4.707,14.593,1.295,14.593-8.473.235-29.304.235-58.843.118-88.148M297.869,140.667c-44.25.118-187.475-.118-214.661.235-13.299.118-23.773,8.473-26.362,20.713-1.059,4.237-.824,9.062-.824,13.534v167.233c0,17.418,11.18,28.716,28.48,28.833,35.895.118,71.789,0,107.684,0v.118h108.507c16.829,0,28.245-11.769,28.245-28.598v-171.47c.118-19.889-11.063-30.599-31.069-30.599"/>
</svg>