<svg xmlns="http://www.w3.org/2000/svg" width="512" height="512" viewBox="0 0 512 512">
    <path d="M469.819 197c0-7.8-5.2-11.3-11.7-7.7-23.5 13.3-47 26.7-70.6 39.8-3.8 2.1-5.4 5-5.4 9.4.1 22.5.1 45.1 0 67.5 0 4 1.6 6.7 5.1 8.6 23.4 13.2 46.8 26.5 70.1 39.6 7.2 4 12.4 1.1 12.4-7.2.2-24.9.2-50 .1-74.9zm-134.3-23c-37.6.1-159.3-.1-182.4.2-11.3.1-20.2 7.2-22.4 17.6-.9 3.6-.7 7.7-.7 11.5v142.1c0 14.8 9.5 24.4 24.2 24.5 30.5.1 61 0 91.5 0v.1h92.2c14.3 0 24-10 24-24.3V200c.1-16.9-9.4-26-26.4-26M94.6 106.8V68.1h-43v38.7H13v43h38.6v38.6h43v-38.6h38.7v-43z"/>
</svg>
