<?xml version="1.0" encoding="UTF-8"?>
<svg id="Layer_1" xmlns="http://www.w3.org/2000/svg" version="1.1" viewBox="0 0 500 500">
  <!-- Generator: Adobe Illustrator 29.1.0, SVG Export Plug-In . SVG Version: 2.1.0 Build 142)  -->
  <path d="M474.9,250.1v-99.4c0-10.3-6.9-15-15.5-10.2-31.1,17.6-62.2,35.4-93.5,52.7-5,2.8-7.1,6.6-7.1,12.4.1,29.8.1,59.7,0,89.4,0,5.3,2.1,8.9,6.8,11.4,31,17.5,62,35.1,92.8,52.4,9.5,5.3,16.4,1.5,16.4-9.5.3-33,.3-66.2.1-99.2M297.1,120.3c-49.8.1-210.9-.1-241.5.3-15,.1-26.7,9.5-29.7,23.3-1.2,4.8-.9,10.2-.9,15.2v188.1c0,19.6,12.6,32.3,32,32.4,40.4.1,80.8,0,121.1,0h0c0,.1,122.1.1,122.1.1,18.9,0,31.8-13.2,31.8-32.2v-192.9c.1-22.4-12.4-34.4-35-34.4"/>
</svg>