<svg xmlns="http://www.w3.org/2000/svg" width="512" height="512" viewBox="0 0 512 512">
  <path d="M56.762,173.533c-1.059,4.353-.706,9.058-.706,13.647v167.17c0,17.411,11.176,28.705,28.469,28.822,35.881.118,71.762,0,107.643,0,36.234.118,69.644.118,105.878,0,11.647,0-204.815-230.461-204.815-230.461-11.882,0-4.706.118-9.882.118-13.411.235-23.881,8.47-26.587,20.705M297.929,152.71h-102.466l133.642,142.465v-111.878c0-19.882-11.176-30.587-31.175-30.587M455.923,267.882v-88.349c0-9.176-6.117-13.294-13.764-9.058-27.646,15.646-55.292,31.41-83.055,46.822-4.47,2.47-6.353,5.882-6.353,11.058.118,26.47.118,53.057,0,79.409,0,4.706,1.882,7.882,6,10.117,27.528,15.529,55.057,31.175,82.467,46.586,8.47,4.706,14.588,1.294,14.588-8.47.235-29.058.235-58.586.118-88.114M374.75,424.346L83.467,107.3l19.764-19.646,291.282,317.046-19.764,19.646Z"/>
</svg>