<svg xmlns="http://www.w3.org/2000/svg" width="512" height="512" viewBox="0 0 512 512">
    <path fill-rule="nonzero" d="M187.85 102.814c-25.2 1.8-49.3 15.8-62.8 39.3-19 32.9-11.1 74.1 16.2 98.3l-26.5 45.6c-11.1 0-21.4 6-27.1 15.7-8.7 15-3.7 34 11.3 42.7 15 8.7 34.1 3.7 42.7-11.3 5.6-9.8 5.6-21.7 0-31.5l41.8-71.8-13.7-7.8c-22.5-13.1-30.2-41.8-17.2-64.3s41.8-30.2 64.3-17.2 30.2 41.8 17.2 64.3l27.5 15.7c21.7-37.5 8.5-85.9-29-107.6-13.5-7.5-29.1-11.2-44.7-10.1zm1.5 47.2c-4 .5-8.1 1.8-11.8 4-15 8.7-19.9 28.2-11.3 43.2 5.5 9.8 15.8 15.7 27.1 15.7l41.2 71.8 13.7-7.8c22.5-13.1 51.3-5.4 64.3 17.2s5.4 51.3-17.2 64.3-51.3 5.4-64.3-17.2l-27.5 15.7c21.7 37.5 70.1 50.7 107.6 29 37.5-21.7 50.7-70.1 29-107.6-19-32.9-58.7-47-93.3-35.3l-26.7-45.5c5.6-9.8 5.6-21.7 0-31.5-6.4-11.5-18.6-17.6-30.8-16zm-74.7 88.9c-43.3 0-78.6 35.2-78.6 78.6 0 43.3 35.2 78.6 78.6 78.6 37.9 0 69.8-27.1 77.1-62.8h53.1c5.5 9.3 15.4 15.7 27.1 15.7 17.3 0 31.5-14 31.5-31.3s-14-31.5-31.3-31.5c-11.5 0-21.6 6.3-27.1 15.7h-83v15.7c0 26-21.2 47.1-47.1 47.1-25.9 0-47.1-21.2-47.1-47.1 0-25.9 21-47.2 47-47.2-.2 0-.2-31.5-.2-31.5zm267.9-80.8l1.2 1 87.4 75.9c3 2.7 4.8 6.6 4.8 10.7 0 4.3-1.9 8.1-4.8 10.7l-87.3 75.9-1.5 1.2c-1.4 1-3.2 1.5-4.8 1.5-4.8 0-8.8-4.1-8.8-9.2v-160c0-5.1 4-9.2 8.8-9.2 1.9 0 3.7.5 5 1.5z"/>
</svg>
