<svg xmlns="http://www.w3.org/2000/svg" width="512" height="512" viewBox="0 0 512 512">
  <path d="M194.031,122.619c-22.914,1.637-44.828,14.367-57.104,35.735-17.277,29.916-10.093,67.379,14.731,89.384l-24.096,41.464c-10.093,0-19.459,5.456-24.642,14.276-7.911,13.639-3.364,30.916,10.275,38.827,13.639,7.911,31.007,3.364,38.827-10.275,5.092-8.911,5.092-19.732,0-28.643l38.009-65.288-12.457-7.093c-20.459-11.912-27.461-38.009-15.64-58.468s38.009-27.461,58.468-15.64c20.459,11.821,27.461,38.009,15.64,58.468l25.006,14.276c19.732-34.099,7.729-78.109-26.37-97.84-12.276-6.82-26.461-10.184-40.646-9.184M195.395,165.537c-3.637.455-7.365,1.637-10.73,3.637-13.639,7.911-18.095,25.642-10.275,39.282,5.001,8.911,14.367,14.276,24.642,14.276l37.463,65.288,12.457-7.093c20.459-11.912,46.647-4.91,58.468,15.64,11.821,20.55,4.91,46.647-15.64,58.468-20.55,11.821-46.647,4.91-58.468-15.64l-25.006,14.276c19.732,34.099,63.742,46.101,97.84,26.37,34.099-19.732,46.101-63.742,26.37-97.84-17.277-29.916-53.376-42.737-84.837-32.098l-24.278-41.373c5.092-8.911,5.092-19.732,0-28.643-5.819-10.457-16.913-16.004-28.006-14.549M127.471,246.374c-39.373,0-71.471,32.007-71.471,71.471s32.007,71.471,71.471,71.471c34.462,0,63.469-24.642,70.107-57.104h48.284c5.001,8.456,14.003,14.276,24.642,14.276,15.731,0,28.643-12.73,28.643-28.461s-12.73-28.643-28.461-28.643c-10.457,0-19.641,5.729-24.642,14.276h-75.472v14.276c0,23.642-19.277,42.828-42.828,42.828s-42.828-19.277-42.828-42.828,19.095-42.919,42.737-42.919c-.182,0-.182-28.643-.182-28.643M371.072,172.903l1.091.909,79.473,69.016c2.728,2.455,4.365,6.001,4.365,9.729,0,3.91-1.728,7.365-4.365,9.729l-79.382,69.016-1.364,1.091c-1.273.909-2.91,1.364-4.365,1.364-4.365,0-8.002-3.728-8.002-8.366v-145.488c0-4.637,3.637-8.366,8.002-8.366,1.728,0,3.364.455,4.546,1.364"/>
</svg>