<svg width="90" height="61" xmlns="http://www.w3.org/2000/svg"><g fill-rule="nonzero" ><path d="M31.025.039c-5.146.364-10.09 3.238-12.852 8.032-3.878 6.714-2.284 15.136 3.313 20.08l-5.421 9.338a6.38 6.38 0 0 0-5.523 3.213c-1.77 3.075-.765 6.953 2.31 8.735 3.075 1.77 6.965.766 8.735-2.309a6.453 6.453 0 0 0 0-6.426l8.534-14.659-2.811-1.606c-4.606-2.66-6.175-8.547-3.514-13.153 2.66-4.606 8.547-6.175 13.153-3.514 4.606 2.66 6.174 8.547 3.514 13.153l5.622 3.213c4.43-7.669 1.745-17.559-5.924-21.989A16.018 16.018 0 0 0 31.025.04zm.301 9.638c-.828.1-1.644.364-2.41.804-3.075 1.77-4.079 5.76-2.309 8.835a6.38 6.38 0 0 0 5.522 3.213l8.434 14.659 2.811-1.606c4.606-2.661 10.493-1.092 13.153 3.514 2.661 4.606 1.092 10.492-3.514 13.153-4.606 2.66-10.492 1.091-13.153-3.515l-5.622 3.213c4.43 7.669 14.32 10.355 21.988 5.924 7.668-4.43 10.354-14.32 5.924-21.988-3.878-6.715-11.986-9.601-19.077-7.23l-5.422-9.337a6.453 6.453 0 0 0 0-6.426c-1.33-2.309-3.84-3.526-6.325-3.213zM16.065 27.85C7.204 27.85 0 35.054 0 43.915c0 8.86 7.204 16.065 16.065 16.065 7.756 0 14.27-5.535 15.763-12.852h10.844c1.117 1.908 3.15 3.213 5.522 3.213a6.422 6.422 0 0 0 6.426-6.426 6.422 6.422 0 0 0-6.426-6.426c-2.372 0-4.405 1.305-5.522 3.213H25.703v3.213c0 5.309-4.33 9.639-9.638 9.639-5.31 0-9.64-4.33-9.64-9.639 0-5.309 4.33-9.639 9.64-9.639V27.85zM87.081 11.331l-.24.205-17.86 15.521A2.887 2.887 0 0 0 68 29.248c0 .879.388 1.666.981 2.191l17.826 15.51.297.262c.285.194.628.308.993.308.993 0 1.803-.844 1.803-1.894v-32.73c0-1.05-.81-1.895-1.803-1.895-.377 0-.73.126-1.016.331z"/></g></svg>