<svg xmlns="http://www.w3.org/2000/svg" width="512" height="512" viewBox="0 0 512 512">
  <path d="M194.031,122.619c-22.914,1.637-44.919,14.367-57.104,35.735-17.277,29.916-10.093,67.379,14.731,89.384l-24.096,41.464c-10.093,0-19.55,5.456-24.642,14.276-7.911,13.639-3.364,30.916,10.275,38.918,13.639,7.911,31.007,3.364,38.918-10.275,5.092-8.911,5.092-19.732,0-28.643l38.009-65.288-12.548-7.093c-20.459-11.912-27.461-38.009-15.64-58.559s38.009-27.461,58.559-15.64,27.461,38.009,15.64,58.559l25.006,14.276c19.732-34.099,7.729-78.109-26.37-97.931-12.366-6.82-26.461-10.184-40.737-9.184M195.395,165.447c-3.637.546-7.365,1.637-10.73,3.637-13.639,7.911-18.095,25.642-10.275,39.282,5.001,8.911,14.367,14.276,24.642,14.276l37.463,65.288,12.548-7.093c20.459-11.912,46.647-4.91,58.468,15.64s4.91,46.647-15.64,58.559-46.647,4.91-58.468-15.64l-25.006,14.276c19.732,34.099,63.742,46.101,97.931,26.37s46.101-63.742,26.37-97.931c-17.277-29.916-53.376-42.737-84.928-32.098l-24.278-41.373c5.092-8.911,5.092-19.732,0-28.643-5.819-10.366-17.004-15.913-28.097-14.549M127.471,246.374c-39.373,0-71.471,32.007-71.471,71.471s32.007,71.562,71.471,71.562c34.553,0,63.56-24.642,70.107-57.104h48.284c5.001,8.547,14.003,14.276,24.642,14.276,15.731,0,28.643-12.73,28.643-28.552s-12.73-28.643-28.461-28.643c-10.548,0-19.641,5.729-24.642,14.276h-75.472v14.276c0,23.642-19.277,42.919-42.919,42.919s-42.919-19.277-42.919-42.919,19.277-42.919,42.919-42.919c-.182,0-.182-28.643-.182-28.643M443.543,172.812l-1.091.909-79.564,69.016c-2.728,2.546-4.365,6.001-4.365,9.729,0,3.91,1.728,7.365,4.365,9.729l79.382,69.016,1.364,1.091c1.273.909,2.728,1.364,4.365,1.364,4.365,0,8.002-3.728,8.002-8.366v-145.488c0-4.637-3.637-8.366-8.002-8.366-1.637,0-3.183.546-4.456,1.364"/>
</svg>