<?xml version="1.0" encoding="UTF-8"?>
<svg id="Layer_1" xmlns="http://www.w3.org/2000/svg" version="1.1" viewBox="0 0 500 500">
  <!-- Generator: Adobe Illustrator 29.1.0, SVG Export Plug-In . SVG Version: 2.1.0 Build 142)  -->
  <path d="M180.3,99.9c-25.8,1.8-50.5,16.2-64.2,40.2-19.4,33.7-11.4,75.8,16.6,100.6l-27.1,46.6c-11.4,0-22,6.1-27.7,16.1-8.9,15.3-3.8,34.8,11.6,43.8,15.3,8.9,34.9,3.8,43.8-11.6,5.7-10,5.7-22.2,0-32.2l42.8-73.4-14.1-8c-23-13.4-30.9-42.8-17.6-65.9,13.3-23.1,42.8-30.9,65.9-17.6,23.1,13.3,30.9,42.8,17.6,65.9l28.1,16.1c22.2-38.4,8.7-87.9-29.7-110.2-13.9-7.7-29.8-11.5-45.8-10.3M181.8,148.1c-4.1.6-8.3,1.8-12.1,4.1-15.3,8.9-20.4,28.8-11.6,44.2,5.6,10,16.2,16.1,27.7,16.1l42.1,73.4,14.1-8c23-13.4,52.5-5.5,65.8,17.6,13.3,23.1,5.5,52.5-17.6,65.9-23.1,13.4-52.5,5.5-65.8-17.6l-28.1,16.1c22.2,38.4,71.7,51.9,110.2,29.7s51.9-71.7,29.7-110.2c-19.4-33.7-60-48.1-95.5-36.1l-27.3-46.5c5.7-10,5.7-22.2,0-32.2-6.5-11.7-19.1-17.9-31.6-16.4M105.4,239.2c-44.3,0-80.4,36-80.4,80.4s36,80.5,80.4,80.5,71.5-27.7,78.9-64.2h54.3c5.6,9.6,15.8,16.1,27.7,16.1,17.7,0,32.2-14.3,32.2-32.1s-14.3-32.2-32-32.2-22.1,6.4-27.7,16.1h-84.9v16.1c0,26.6-21.7,48.3-48.3,48.3s-48.3-21.7-48.3-48.3,21.7-48.3,48.3-48.3c-.2,0-.2-32.2-.2-32.2M461,156.4l-1.2,1-89.5,77.6c-3.1,2.9-4.9,6.8-4.9,10.9s1.9,8.3,4.9,10.9l89.3,77.6,1.5,1.2c1.4,1,3.1,1.5,4.9,1.5,4.9,0,9-4.2,9-9.4v-163.7c0-5.2-4.1-9.4-9-9.4s-3.6.6-5,1.5"/>
</svg>