<svg xmlns="http://www.w3.org/2000/svg" width="512" height="512" viewBox="0 0 512 512">
    <path d="M187.85 102.814c-25.2 1.8-49.4 15.8-62.8 39.3-19 32.9-11.1 74.1 16.2 98.3l-26.5 45.6c-11.1 0-21.5 6-27.1 15.7-8.7 15-3.7 34 11.3 42.8 15 8.7 34.1 3.7 42.8-11.3 5.6-9.8 5.6-21.7 0-31.5l41.8-71.8-13.8-7.8c-22.5-13.1-30.2-41.8-17.2-64.4s41.8-30.2 64.4-17.2 30.2 41.8 17.2 64.4l27.5 15.7c21.7-37.5 8.5-85.9-29-107.7-13.6-7.5-29.1-11.2-44.8-10.1m1.5 47.1c-4 .6-8.1 1.8-11.8 4-15 8.7-19.9 28.2-11.3 43.2 5.5 9.8 15.8 15.7 27.1 15.7l41.2 71.8 13.8-7.8c22.5-13.1 51.3-5.4 64.3 17.2s5.4 51.3-17.2 64.4-51.3 5.4-64.3-17.2l-27.5 15.7c21.7 37.5 70.1 50.7 107.7 29s50.7-70.1 29-107.7c-19-32.9-58.7-47-93.4-35.3l-26.7-45.5c5.6-9.8 5.6-21.7 0-31.5-6.4-11.4-18.7-17.5-30.9-16m-74.7 89c-43.3 0-78.6 35.2-78.6 78.6 0 43.3 35.2 78.7 78.6 78.7 38 0 69.9-27.1 77.1-62.8h53.1c5.5 9.4 15.4 15.7 27.1 15.7 17.3 0 31.5-14 31.5-31.4s-14-31.5-31.3-31.5c-11.6 0-21.6 6.3-27.1 15.7h-83v15.7c0 26-21.2 47.2-47.2 47.2s-47.2-21.2-47.2-47.2 21.2-47.2 47.2-47.2c-.2 0-.2-31.5-.2-31.5m347.6-80.9-1.2 1-87.5 75.9c-3 2.8-4.8 6.6-4.8 10.7 0 4.3 1.9 8.1 4.8 10.7l87.3 75.9 1.5 1.2q2.1 1.5 4.8 1.5c4.8 0 8.8-4.1 8.8-9.2v-160c0-5.1-4-9.2-8.8-9.2-1.8 0-3.5.6-4.9 1.5"/>
</svg>
