<svg xmlns="http://www.w3.org/2000/svg" width="500" height="500" viewBox="0 0 500 500">
    <path d="m164.32 102.13-53.56 30 30-53.56-30-53.56 53.56 30 53.57-30-30 53.56 30 53.56zm257.12 209.98 53.56-30-30 53.56 30 53.56-53.56-30-53.56 30 30-53.56-30-53.56zM475 25l-30 53.56 30 53.56-53.56-30-53.56 30 30-53.56-30-53.56 53.56 30zM289.45 255.97l52.28-52.28-45.42-45.42-52.28 52.28zm22.07-117.63 50.14 50.14c8.36 7.93 8.36 21.85 0 30.21L111.62 468.73c-8.36 8.36-22.28 8.36-30.21 0l-50.14-50.14c-8.36-7.93-8.36-21.85 0-30.21l250.04-250.04c8.36-8.36 22.28-8.36 30.21 0"/>
</svg>
