<svg xmlns="http://www.w3.org/2000/svg" width="512" height="512" viewBox="0 0 512 512">
  <path d="M179.84,124.56l-47.609,26.667,26.667-47.609-26.667-47.609,47.609,26.667,47.618-26.667-26.667,47.609,26.667,47.609-47.618-26.667ZM408.391,311.209l47.609-26.667-26.667,47.609,26.667,47.609-47.609-26.667-47.609,26.667,26.667-47.609-26.667-47.609,47.609,26.667ZM456,56l-26.667,47.609,26.667,47.609-47.609-26.667-47.609,26.667,26.667-47.609-26.667-47.609,47.609,26.667,47.609-26.667ZM291.067,261.307l46.471-46.471-40.373-40.373-46.471,46.471,40.373,40.373ZM310.684,156.747l44.569,44.569c7.431,7.049,7.431,19.422,0,26.853l-222.258,222.258c-7.431,7.431-19.804,7.431-26.853,0l-44.569-44.569c-7.431-7.049-7.431-19.422,0-26.853l222.258-222.258c7.431-7.431,19.804-7.431,26.853,0"/>
</svg>