<svg xmlns="http://www.w3.org/2000/svg" width="512" height="512" viewBox="0 0 512 512"><defs><style>.cls-1{fill:#231f20}</style></defs><path d="M63.41 16.39C82.7 21.06 96.24 38.73 96.3 58.56c.07 23.6-19.72 41.56-39.84 42.29l-6.81 15.53c32.78-.1 56.56-25.32 56.47-52.33-.07-24-19.56-45.7-41.91-49.31zM42.72 100C23.43 95.33 9.88 77.66 9.82 57.83c-.07-23.6 19.72-41.56 39.84-42.29L56.48 0C22.48.1-.08 25.32 0 52.33c.07 24 19.57 45.7 41.92 49.31z" class="cls-1"/><circle cx="639.94" cy="512.13" r="25.43" class="cls-1" transform="rotate(-8.67 -2647.715 4156.369)"/></svg>