<svg xmlns="http://www.w3.org/2000/svg" width="512" height="512" viewBox="0 0 512 512">
  <path d="M291.508,112.312c66.344,16.073,112.853,76.831,113.081,144.999.228,81.163-67.826,142.833-136.905,145.341l-23.368,53.349c112.625-.342,194.471-87.09,194.129-179.88-.228-82.531-67.256-157.082-144.087-169.507l-2.85,5.7ZM220.377,399.688c-66.344-16.073-112.853-76.831-113.081-144.999-.228-81.163,67.826-142.833,136.905-145.341l23.482-53.349c-116.842.342-194.357,87.09-194.129,179.88.228,82.531,67.256,157.082,144.087,169.507l2.736-5.7ZM255.829,168.568c48.288,0,87.432,39.145,87.432,87.432s-39.145,87.432-87.432,87.432-87.432-39.145-87.432-87.432,39.145-87.432,87.432-87.432Z"/>
</svg>