<svg xmlns="http://www.w3.org/2000/svg" width="512" height="512" viewBox="0 0 512 512">
  <path id="content" d="M406,356c-2.8,0-5.2,0-7.8.8l-32.2-64.8c9-9,15-21.8,15-36,0-27.6-22.4-50-50-50-2.8,0-5,0-8,.8l-32.2-64.8c9.4-9.2,15.2-21.8,15.2-36,0-27.6-22.4-50-50-50s-50,22.4-50,50c0,14,5.8,26.8,15.2,35.8l-32.2,65c-3-.8-5.2-.8-8-.8-27.6,0-50,22.4-50,50,0,14.2,5.8,26.8,15,35.8l-32.2,65c-2.6-.8-5-.8-7.8-.8-27.6,0-50,22.4-50,50s22.4,50,50,50,50-22.4,50-50c0-14-5.8-26.8-15.2-35.8l32.4-65c2.8.8,5.2.8,7.8.8s5,0,7.6-.8l32.6,65c-9.4,9-15.2,21.8-15.2,35.8,0,27.6,22.4,50,50,50s50-22.4,50-50-22.4-50-50-50c-2.6,0-5.2,0-7.8.8l-32.2-64.8c9-9,15-21.8,15-36,0-14-5.8-26.6-15-35.8l32.2-65c2.6.8,5.2.8,7.8.8s5.2,0,7.8-.8l32.2,65c-9.2,9-15,21.8-15,35.8,0,27.6,22.4,50,50,50,2.6,0,5,0,7.6-.8l32.6,65c-9.4,9-15.2,21.8-15.2,35.8,0,27.6,22.4,50,50,50s50-22.4,50-50-22.4-50-50-50h0ZM106,426c-11,0-20-9-20-20s9-20,20-20,20,9,20,20-9,20-20,20ZM276,406c0,11-9,20-20,20s-20-9-20-20,9-20,20-20,20,9,20,20ZM161,256c0-11,9-20,20-20s20,9,20,20-9,20-20,20-20-9-20-20ZM236,106c0-11,9-20,20-20s20,9,20,20-9,20-20,20-20-9-20-20ZM311,256c0-11,9-20,20-20s20,9,20,20-9,20-20,20-20-9-20-20ZM406,426c-11,0-20-9-20-20s9-20,20-20,20,9,20,20-9,20-20,20Z"/>
</svg>