<?xml version="1.0" encoding="UTF-8"?>
<svg id="Layer_1" xmlns="http://www.w3.org/2000/svg" version="1.1" viewBox="0 0 500 500">
  <!-- Generator: Adobe Illustrator 29.1.0, SVG Export Plug-In . SVG Version: 2.1.0 Build 142)  -->
  <path d="M289.9,88.4c74.6,18.1,127,86.4,127.2,163.1.3,91.3-76.3,160.7-154,163.5l-26.3,60c126.7-.4,218.8-98,218.4-202.4-.3-92.8-75.7-176.7-162.1-190.7l-3.2,6.4ZM209.9,411.6c-74.6-18.1-127-86.4-127.2-163.1-.3-91.3,76.3-160.7,154-163.5l26.4-60c-131.4.4-218.7,98-218.4,202.4.3,92.8,75.7,176.7,162.1,190.7l3.1-6.4Z"/>
  <circle cx="250" cy="250" r="98.4"/>
</svg>