<?xml version="1.0" encoding="UTF-8"?>
<svg width="512px" height="512px" viewBox="0 0 512 512" version="1.1" xmlns="http://www.w3.org/2000/svg" xmlns:xlink="http://www.w3.org/1999/xlink">
    <!-- Generator: Sketch 62 (91390) - https://sketch.com -->
    <title>workstorm</title>
    <desc>Created with Sketch.</desc>
    <g id="workstorm" stroke="none" stroke-width="1" fill="none" fill-rule="evenodd">
        <path d="M287.2,123.45 C345.4,137.55 386.2,190.85 386.4,250.65 C386.6,321.85 326.9,375.95 266.3,378.15 L245.8,424.95 C344.6,424.65 416.4,348.55 416.100937,267.15 C415.9,194.75 357.1,129.35 289.7,118.45 L287.2,123.45 L287.2,123.45 Z M224.8,375.55 C166.6,361.45 125.8,308.15 125.6,248.35 C125.4,177.15 185.1,123.05 245.7,120.85 L266.3,74.05 C163.8,74.35 95.8,150.45 95.99956,231.85 C96.2,304.25 155,369.65 222.4,380.55 L224.8,375.55 L224.8,375.55 Z" id="Shape" fill="#231F20" fill-rule="nonzero"></path>
        <circle id="Oval" fill="#231F20" fill-rule="nonzero" cx="255.9" cy="249.5" r="76.7"></circle>
    </g>
</svg>