<svg xmlns="http://www.w3.org/2000/svg" width="500" height="500" viewBox="0 0 500 500">
  <path id="content" d="M418.75,362.5c-3.15,0-5.85,0-8.775.9l-36.225-72.9c10.125-10.125,16.875-24.525,16.875-40.5,0-31.05-25.2-56.25-56.25-56.25-3.15,0-5.625,0-9,.9l-36.225-72.9c10.575-10.35,17.1-24.525,17.1-40.5,0-31.05-25.2-56.25-56.25-56.25s-56.25,25.2-56.25,56.25c0,15.75,6.525,30.15,17.1,40.275l-36.225,73.125c-3.375-.9-5.85-.9-9-.9-31.05,0-56.25,25.2-56.25,56.25,0,15.975,6.525,30.15,16.875,40.275l-36.225,73.125c-2.925-.9-5.625-.9-8.775-.9-31.05,0-56.25,25.2-56.25,56.25s25.2,56.25,56.25,56.25,56.25-25.2,56.25-56.25c0-15.75-6.525-30.15-17.1-40.275l36.45-73.125c3.15.9,5.85.9,8.775.9s5.625,0,8.55-.9l36.675,73.125c-10.575,10.125-17.1,24.525-17.1,40.275,0,31.05,25.2,56.25,56.25,56.25s56.25-25.2,56.25-56.25-25.2-56.25-56.25-56.25c-2.925,0-5.85,0-8.775.9l-36.225-72.9c10.125-10.125,16.875-24.525,16.875-40.5,0-15.75-6.525-29.925-16.875-40.275l36.225-73.125c2.925.9,5.85.9,8.775.9s5.85,0,8.775-.9l36.225,73.125c-10.35,10.125-16.875,24.525-16.875,40.275,0,31.05,25.2,56.25,56.25,56.25,2.925,0,5.625,0,8.55-.9l36.675,73.125c-10.575,10.125-17.1,24.525-17.1,40.275,0,31.05,25.2,56.25,56.25,56.25s56.25-25.2,56.25-56.25-25.2-56.25-56.25-56.25ZM81.25,441.25c-12.375,0-22.5-10.125-22.5-22.5s10.125-22.5,22.5-22.5,22.5,10.125,22.5,22.5-10.125,22.5-22.5,22.5ZM272.5,418.75c0,12.375-10.125,22.5-22.5,22.5s-22.5-10.125-22.5-22.5,10.125-22.5,22.5-22.5,22.5,10.125,22.5,22.5ZM143.125,250c0-12.375,10.125-22.5,22.5-22.5s22.5,10.125,22.5,22.5-10.125,22.5-22.5,22.5-22.5-10.125-22.5-22.5ZM227.5,81.25c0-12.375,10.125-22.5,22.5-22.5s22.5,10.125,22.5,22.5-10.125,22.5-22.5,22.5-22.5-10.125-22.5-22.5ZM311.875,250c0-12.375,10.125-22.5,22.5-22.5s22.5,10.125,22.5,22.5-10.125,22.5-22.5,22.5-22.5-10.125-22.5-22.5ZM418.75,441.25c-12.375,0-22.5-10.125-22.5-22.5s10.125-22.5,22.5-22.5,22.5,10.125,22.5,22.5-10.125,22.5-22.5,22.5Z"/>
</svg>