<svg xmlns="http://www.w3.org/2000/svg" width="512" height="512" viewBox="0 0 512 512">
    <path d="M356.3 300.3H416V360h-59.7v-59.7zm-86.7 0h59.7V360h-59.7v-59.7zm-86.8 0h59.7V360h-59.7v-59.7zm-86.8 0h59.7V360H96v-59.7zm260.3-86.7H416v59.7h-59.7v-59.7zm-86.7 0h59.7v59.7h-59.7v-59.7zm-86.8 0h59.7v59.7h-59.7v-59.7zm-86.8 0h59.7v59.7H96v-59.7zm260.3-86.8H416v59.7h-59.7v-59.7zm-86.7 0h59.7v59.7h-59.7v-59.7zm-86.8 0h59.7v59.7h-59.7v-59.7zm-86.8 0h59.7v59.7H96v-59.7zM356.3 40H416v59.7h-59.7V40zm-86.7 0h59.7v59.7h-59.7V40zm-86.8 0h59.7v59.7h-59.7V40zM96 40h59.7v59.7H96V40z"/>
</svg>
