<svg xmlns="http://www.w3.org/2000/svg" width="512" height="512" viewBox="0 0 512 512">
    <path d="M373.7 300.3H416V360h-42.3v-59.7zm-69.4 0h42.3V360h-42.3v-59.7zm-69.5 0h42.3V360h-42.3v-59.7zm-69.4 0h42.3V360h-42.3v-59.7zm-69.4 0h42.3V360H96v-59.7zm277.7-86.7H416v59.7h-42.3v-59.7zm-69.4 0h42.3v59.7h-42.3v-59.7zm-69.5 0h42.3v59.7h-42.3v-59.7zm-69.4 0h42.3v59.7h-42.3v-59.7zm-69.4 0h42.3v59.7H96v-59.7zm277.7-86.8H416v59.7h-42.3v-59.7zm-69.4 0h42.3v59.7h-42.3v-59.7zm-69.5 0h42.3v59.7h-42.3v-59.7zm-69.4 0h42.3v59.7h-42.3v-59.7zm-69.4 0h42.3v59.7H96v-59.7zM373.7 40H416v59.7h-42.3V40zm-69.4 0h42.3v59.7h-42.3V40zm-69.5 0h42.3v59.7h-42.3V40zm-69.4 0h42.3v59.7h-42.3V40zM96 40h42.3v59.7H96V40z"/>
</svg>
