<svg xmlns="http://www.w3.org/2000/svg" width="512" height="512" viewBox="0 0 512 512">
    <path d="M327.4 317.7H416V360h-88.6v-42.3zm-115.7 0h88.6V360h-88.6v-42.3zm-115.7 0h88.6V360H96v-42.3zm231.4-69.4H416v42.3h-88.6v-42.3zm-115.7 0h88.6v42.3h-88.6v-42.3zm-115.7 0h88.6v42.3H96v-42.3zm231.4-69.5H416v42.3h-88.6v-42.3zm-115.7 0h88.6v42.3h-88.6v-42.3zm-115.7 0h88.6v42.3H96v-42.3zm231.4-69.4H416v42.3h-88.6v-42.3zm-115.7 0h88.6v42.3h-88.6v-42.3zm-115.7 0h88.6v42.3H96v-42.3zM327.4 40H416v42.3h-88.6V40zm-115.7 0h88.6v42.3h-88.6V40zM96 40h88.6v42.3H96V40z"/>
</svg>
