<svg xmlns="http://www.w3.org/2000/svg" width="512" height="512" viewBox="0 0 512 512">
    <path d="M375.4 343.2c-6.5 0-12-2.4-16.7-7-4.6-4.6-7-10.2-7-16.7 0-6.7 2.4-12.3 7-16.8 4.6-4.6 10.2-6.8 16.7-6.8 6.7 0 12.3 2.3 16.8 6.8 4.6 4.6 6.8 10.1 6.8 16.8 0 6.5-2.3 12-6.8 16.7-4.5 4.8-10.1 7-16.8 7zm-119.2 0c-6.5 0-12-2.4-16.7-7-4.6-4.6-7-10.2-7-16.7 0-6.7 2.4-12.3 7-16.8s10.2-6.8 16.7-6.8 12 2.3 16.7 6.8c4.6 4.6 7 10.1 7 16.8 0 6.5-2.4 12-7 16.7-4.7 4.8-10.2 7-16.7 7zm-119.1 0c-6.7 0-12.3-2.4-16.8-7-4.6-4.6-6.8-10.2-6.8-16.7 0-6.7 2.3-12.3 6.8-16.8s10.1-6.8 16.8-6.8c6.5 0 12 2.3 16.5 6.8 4.6 4.6 6.8 10.1 6.8 16.8 0 6.5-2.3 12-6.8 16.7-4.7 4.8-10.1 7-16.5 7zm119.1-286c6.5 0 12 2.3 16.7 6.8 4.6 4.6 7 10.1 7 16.8 0 6.5-2.4 12-7 16.7-4.6 4.6-10.2 7-16.7 7s-12-2.4-16.7-7c-4.6-4.6-7-10.2-7-16.7 0-6.7 2.4-12.3 7-16.8 4.8-4.5 10.3-6.8 16.7-6.8zm136.6 225.2v-39.6c0-16.4-5.8-30.4-17.5-42.1s-25.8-17.5-42.5-17.5h-34c-7.1 0-13.1-2.5-18.2-7.5-5-5-7.5-11-7.5-18.2v-39.6c7.1-3.1 12.9-8 17.3-14.6s6.7-14.1 6.7-22.3c0-11.3-4-21-12-28.9-8-8-17.6-12-28.9-12-11.3 0-21 4-28.9 12-8.1 7.9-12.1 17.6-12.1 28.9 0 8.2 2.2 15.7 6.7 22.3 4.5 6.7 10.2 11.6 17.3 14.6v39.6c0 7.1-2.5 13.1-7.5 18.2-5 5-11 7.5-18.2 7.5h-34c-16.7 0-30.8 5.8-42.5 17.5-11.6 11.6-17.5 25.7-17.5 42.1v39.6c-6.8 3.3-12.5 8.3-17 14.8-4.4 6.5-6.7 14-6.7 22.5 0 11.3 4 20.9 12 28.8s17.6 11.8 28.9 11.8 20.9-4 28.8-12c7.9-8 11.8-17.5 11.8-28.6 0-8.4-2.2-15.9-6.7-22.5-4.4-6.5-10.1-11.5-17-14.8v-39.6c0-7.1 2.5-13.1 7.5-18.2 5-5 11-7.5 18.2-7.5h34c4.6 0 9.1-.5 13.3-1.5 4.2-1 8.3-2.5 12.4-4.5v71.3c-7.1 3.3-12.9 8.3-17.3 14.8s-6.7 14-6.7 22.5c0 11.3 4 20.9 12 28.8 8 7.9 17.6 11.8 28.9 11.8s21-4 28.9-12c8-8 12-17.5 12-28.6 0-8.4-2.2-15.9-6.7-22.5-4.4-6.5-10.2-11.5-17.3-14.8v-71.3c4 2 8.1 3.5 12.4 4.5 4.2 1 8.7 1.5 13.3 1.5h34c7.1 0 13.1 2.5 18.2 7.5 5 5 7.5 11 7.5 18.2v39.6c-6.8 3.3-12.5 8.3-17 14.8-4.4 6.5-6.7 14-6.7 22.5 0 11.3 3.9 20.9 11.8 28.8s17.5 11.8 28.8 11.8 21-4 28.9-12c7.9-7.9 12-17.5 12-28.6 0-8.4-2.2-15.9-6.7-22.5-4-6.6-9.7-11.5-16.5-14.8z"/>
</svg>
