<svg xmlns="http://www.w3.org/2000/svg" width="512" height="512" viewBox="0 0 512 512">
    <path d="M100.7 112.2c9 4.8 133.9 72.8 138.5 75.2 4.7 2.4 9.3 3.6 16.8 3.6s12.1-1.2 16.8-3.6c4.7-2.4 129.5-70.5 138.5-75.2 3.4-1.7 9-4.8 10.2-8.3 2.1-6.2-.2-8.6-9.2-8.6H99.7c-9 0-11.4 2.4-9.2 8.6 1.2 3.7 6.9 6.6 10.2 8.3z"/>
    <path d="M419.2 116c-6.7 3.4-66.8 46.2-106.7 72l67.1 75.6c1.6 1.6 2.3 3.6 1.5 4.6-1 .8-3.1.4-4.8-1.2l-80.5-68c-12.2 7.9-20.7 13.3-22.2 14-6.3 3.2-10.7 3.6-16.8 3.6-6.1 0-10.4-.4-16.8-3.6-1.6-.8-10.1-6.2-22.2-14l-80.5 68c-1.6 1.6-3.8 2.1-4.8 1.2-1-.8-.2-3 1.4-4.6L201 188c-39.8-25.7-100.6-68.5-107.3-72-7.3-3.7-7.8.6-7.8 4v167.6c0 7.6 11.2 17.1 19.2 17.1h303.2c8 0 17.5-9.6 17.5-17.1V120c.2-3.5.7-7.8-6.6-4z"/>
</svg>
