<svg xmlns="http://www.w3.org/2000/svg" width="512" height="512" viewBox="0 0 512 512">
    <path d="M3570.2 218.6c-524.3 0-911.8 151-1162.7 453-250.6 302.2-364.6 584.2-341.8 846.4 22.8 193.8 45.6 381.8 68.3 564.2 0 22.8-14.4 79.7-42.9 170.8-28.3 91.4-25.4 188.2 8.6 290.6 45.6 205.3 91.1 342 136.6 410.4 45.8 68.2 79.9 159.7 102.7 273.6 57 330.4 136.9 561.4 239.3 692.3 102.7 131.2 154 265 154 401.7v102.6c0 250.9-22.8 401.8-68.3 453-45.6 51.4-199.6 122.6-461.7 213.7-164.8 58.5-330.1 115.5-496 171-877.6 330.7-1339.2 609.9-1384.8 837.8-22.8 159.7-34.2 387.5-34.2 684H6853l-34.3-684c-45.6-227.8-507.2-507-1384.8-837.8-29.3-9.3-57.9-20.7-85.6-34-535.8-193.8-815-302.2-837.8-325-68.3-45.6-102.6-239.4-102.6-581.4 0-136.6 51.4-270.5 154-401.7 102.4-131 182.2-361.9 239.4-692.3 22.8-113.9 56.8-205.4 102.6-273.6 45.6-68.4 91.2-205.1 136.7-410.4 34.1-102.4 36.9-199.3 8.4-290.6-28.3-91.2-42.7-148-42.7-170.8 22.8-182.5 45.6-370.5 68.4-564.2 22.7-262.2-91.2-544.2-341.8-846.4-250.9-301.9-638.5-452.9-1162.7-452.9m0 359.6c415.6 0 705.4 105.8 885.9 323 186.8 225.2 274.4 422.1 261.4 574.6-22.8 192.8-45.6 380.1-68.2 561.4l-2.9 22.2v22.6c0 66.4 14.9 136.7 59.2 278.2 2.2 7 8.2 25.8-6.4 69.5l-6 17.5-3.8 18.2c-50.6 227.8-85.1 288.7-85.1 288.7-72.5 108.8-123.5 240.6-157.6 412-63.3 367-138.9 494.2-168.2 532-153 195.2-230.4 405-230.4 623.2 0 410.1 39 699.4 226.2 853.6 60.6 56.3 152 101.6 934.8 384.8 31 14.4 65.3 27.8 103.8 40.8 873 329.6 1097 523 1149.8 583l12 240H654.5c4.3-90.4 10.4-168.8 18.2-234.2 42.4-52 250.6-247.8 1154.1-588.6 165.1-55.4 329.7-112.1 493.8-170.2 401-139.6 531.7-223.8 612.2-314.4 114.6-129 159.2-323 159.2-692.2v-102.6c0-218.2-77.4-428-230.4-623.2-29.3-37.8-104.8-165-169.8-541.4-32.3-162.1-83.4-293.8-154.4-400-1.4-2.4-35.8-63.5-86.6-291.4l-3.8-18.2-6-17.5c-14.6-43.7-8.6-62.6-6.5-69.6 44.3-141.4 59.2-211.7 59.2-278.2v-22.6l-2.9-22.2c-22.6-181.4-45.3-368.6-66.9-550.6-14.2-163.4 73.4-360.2 260.2-585.4 180.7-217 470.5-322.8 886.1-322.8" clip-path="url(#d)"/>
</svg>
