<svg xmlns="http://www.w3.org/2000/svg" width="512" height="512" viewBox="0 0 512 512">
    <path d="M384.5 138H255l-30.5-34.3h-99.1c-16.7 0-30.4 13.7-30.4 30.5v14.9h282.5c15.5 0 22.8 10.2 22.8 22.5l6.4 133.3c.9 8.2-1.2 16.2-5.9 22.8 8.5-5.4 14.2-14.9 14.2-25.8V168.5c0-16.8-13.7-30.5-30.5-30.5z"/>
    <path d="M377.7 332.3c-1.1.1-2.3.2-3.5.2H130.7c-15.8 0-26.9-12.7-31.4-26.1l-35.2-47.2c-5.1-15 4.7-30.6 21.6-30.6.7 0 1.4-.1 2.1-.1h236.5c15.8 0 22.3 4.9 29.8 18.6l46.1 59.2c1.3 13.4-8.5 24.4-22.5 26z"/>
    <path d="M85.8 199.7h246.7c18 0 27.9 7.3 33.4 22l29.8 51.3-19.6-91.7H75.4l10.4 18.4z"/>
</svg>
