<svg xmlns="http://www.w3.org/2000/svg" width="512" height="512" viewBox="0 0 512 512">
    <path d="M110.4 129c8.5 4.5 126 68.5 130.4 70.8 4.4 2.3 8.8 3.4 15.8 3.4 7.1 0 11.4-1.1 15.8-3.4s121.9-66.4 130.4-70.8c3.2-1.6 8.5-4.5 9.6-7.8 2-5.8-.2-8.1-8.7-8.1H109.5c-8.5 0-10.7 2.3-8.7 8.1 1.2 3.5 6.5 6.2 9.6 7.8z"/>
    <path d="M410.2 132.6c-6.3 3.2-62.9 43.5-100.4 67.8l63.2 71.2c1.5 1.5 2.2 3.4 1.4 4.3-.9.8-2.9.4-4.5-1.1l-75.8-64c-11.5 7.4-19.5 12.5-20.9 13.2-5.9 3-10.1 3.4-15.8 3.4-5.7 0-9.8-.4-15.8-3.4-1.5-.8-9.5-5.8-20.9-13.2l-75.8 64c-1.5 1.5-3.6 2-4.5 1.1-.9-.8-.2-2.8 1.3-4.3l63.2-71.2c-37.5-24.2-94.7-64.5-101-67.8-6.9-3.5-7.3.6-7.3 3.8v157.7c0 7.2 10.5 16.1 18.1 16.1h285.4c7.5 0 16.5-9 16.5-16.1V136.4c0-3.3.5-7.4-6.4-3.8z"/>
</svg>
