<svg xmlns="http://www.w3.org/2000/svg" width="512" height="512" viewBox="0 0 512 512">
    <circle cx="384.6" cy="209.3" r="18.3"/>
    <path d="M366.2 166.1c-34.4 0-62.2 27.9-62.2 62.2 0 7.8 1.5 15.2 4 22l-95.3 91 7.7 18.7 45.7-2.5 9.6-17.5 16.6-3.1 13.6-32.8 26.6-3.5 5.6-16.8c8.5 4.3 18 6.8 28.1 6.8 34.4 0 62.2-27.9 62.2-62.2s-27.8-62.3-62.2-62.3zm18.4 61.5c-10.1 0-18.3-8.2-18.3-18.3 0-10.1 8.2-18.3 18.3-18.3s18.3 8.2 18.3 18.3c.1 10.1-8.2 18.3-18.3 18.3z"/>
    <path d="M269.4 225.1c0-21.3 10.9-8.9 17.8-49.5 2.7-16 4.9-5.3 10.7-30.8 3.1-13.4-2-14.4-1.5-20.8s1.2-12.1 2.4-25.2c1.4-16.2-13.6-58.8-67.5-58.8s-68.9 42.6-67.4 58.9c1.2 13 1.7 18.8 2.4 25.2s-4.5 7.4-1.5 20.8c5.8 25.4 8 14.9 10.7 30.8 6.9 40.5 17.8 28.1 17.8 49.5 0 33 3 24.3-45.7 42C98 285.4 86.3 296.5 85 304.9c-1.7 10.6-1.7 30.8-1.7 30.8h98.5l94.8-86-5.4-1.7c-1.1-4.2-1.8-12.1-1.8-22.9z"/>
</svg>
