<svg xmlns="http://www.w3.org/2000/svg" width="512" height="512" viewBox="0 0 512 512">
    <path d="M348.8 254.4c8 2.8-7.7-2.7 0 0z"/>
    <path d="M348.8 254.4c-9.3-3.3-19.5-3.4-28.9-6.7-2.9-1-8.5-2.2-9.6-5.4-1.1-3.2-1.1-7-1.4-10.3-.1-2.6-.3-5.2-.3-8 0-1.8 4.4-5.4 5.4-7 3.7-6.3 4.1-14.7 4.8-21.7 6 1.6 6.9-9.5 7.8-12.9.8-2.3 5.4-18.7-1.8-16.4 1.8-3 2.5-6.9 2.9-10.2 1.4-8.9 1.9-18.7-.8-27.4-5.6-18-23-28.2-41.2-28.7-18.6-.7-37.3 8.2-44.1 26.3-3.3 8.8-3 18.3-1.9 27.5.6 4.1 1.2 8.8 3.3 12.6-6.7-2.1-3.2 12.4-2.3 14.9 1.1 3.6 2.1 16.2 8.4 14.6.5 5.6 1.2 11.4 2.8 16.9 1.1 3.7 3.2 6.9 5.6 9.6 1.2 1.4 1.9 1.5 1.8 3.3-.1 5.4.1 11.3-1.4 16.5s-13.1 7.6-17.6 8.5c-12.5 2.6-24.1 3.7-34.5 11.6-12.2 8.9-18.6 23-18.6 38.1h193.3c.2-20.9-12.1-38.9-31.7-45.7z"/>
    <path d="M205.7 245.9l1.1-.5c-.3.1-.4.3-.6.3s-.2.1-.5.2zm212.9-7.4c-5.6-1.8-16.5-2.3-20.5-7.3-2.1-2.5-1-8.7-.7-11.6 3 .3 6.5-.3 9.5-.7 2.9-.4 5.6-1 8.4-1.9 1.2-.6 2.5-1 3.7-1.6 2.8-1.6 1.5-1.9.1-4.3-7.6-12.8-4.1-28.9-4.5-42.9-.3-11.6-3.3-24.3-13.9-30.9-9.5-5.9-23.7-6.2-33.8-1.9-29.4 11.8-12.1 50.9-22.1 73.3-1.8 3.7-4.3 5.1.1 7.3 2.5 1.2 5.1 2.1 7.7 2.8 4 1 8.2 1.5 12.4 1.6.7 0 .3 8.8 0 9.6-.8 3.4-8.2 4.4-11 5.1-2.9.8-7.6 1-8.9 4-2.1 4.4 6.9 3.3 9.1 3.7 7.1 1.4 13.5 5.2 19.1 9.8 4.1 3.4 9.8 8 11.3 13.6H440c-.1-13.7-9.2-23.7-21.4-27.7zM147 141c-1-1.8-4.3-5.4-6.3-6.1-2.8-.4-1.1 2.1-1.1 3-.7.6-1.8 1.1-2.3 1.8-.4.3.8 2.8 2.9 1.9s1 .8 2.3 4 4.3 3.3 5.6 2.3c1.6-1.1-.3-5.2-1.1-6.9zm34.9 32.3c.1 0-.8-.1 0 0z"/>
    <path d="M101.2 98.8C45.4 98.8 0 144.2 0 200c0 56 45.4 101.2 101.2 101.2 56 0 101.2-45.2 101.2-101.2 0-55.8-45.4-101.2-101.2-101.2zM63.8 278.2c-2.5-1.4-4.3-3.4-5-7.1-1.8-9.4-.1-14.4 8.1-19.9 3.9-2.6 4.5-5.6 7.7-8.8.8-1 2.8-4.7 4.1-4.8 1.6-.4 6.2-1.1 7.1-2.9 1.8-2.3 5.5-12.4 7.1-13.3 2.8-1.8 6.6-7.3 3.7-10.4-3.2-3.9-7.6-4-11.7-5.9-3.6-1.8-5.2-10-8-12.9-5.4-5.5-13.6-8.7-20.4-12-3.7-1.5-3.3-1.9-6.2 1-3.7 3.7-9.1-1-9.6-4.7-.1-1.2-1.5-8.2-.7-8.8 8.1-5.1-3.7-3.9-4.7-6.3-2.5-6.7 5.8-12.1 11.4-12.8 6.3-.8 7.6 9.9 10 8.9 1.2-.6 1.2-5.6 1.4-6.7.5-3.6 1.6-4.1 5.1-5.5 4.1-1.5 7.3-3.4 11.5-4.1 5-1.5 9.2-.7 13.1-3.9 1.8-1.4 3 .7 4.7 1.1 3.6.7 4.4-4.9 4.4-7.1 0-2.1.5-3.9-2.2-6.2-3.6-2.8-8.7-.4-11.4 2.5-3.4 3.2-7.4 3-6.3-2.5.3-2.1 4.5-4.3 6.3-5.4 1.6-1 2.6 1.1 4.7.7 3-.7 4.1 2.2 7.6 2.2 1.5-.4 6.7-3.2 3.9-8.8h1.2c.8 0 1.6 0 2.5.1 1.2 4-2.8 7.4-.7 12.5 4 9.6 7.3 1.4 11.1-3.2 1.4-1.4 2.1-1 4.1-1.4 1.4-.3 3.2-4.1 3.8-5.4 9.1 2.2 17.6 5.9 25.6 11-3.3.4-4.3-.7-4.1 3.3 0 1.5.1 6 2.3 6.5 3.7.4 3 3 6.6 3.6 3.3.4 1.2 3.4 2.6 6.3 1.5 4.5-8.9 5.9-11 6.7-6.2 2.1 2.9 11 6.9 10 1.2-.4 5.5-.8 5.8-2.3 0-.1-.8-4.9-.4-5.5.7-1 2.3-1.4 4.8.1 6 3.4 9.1 11.6 16.2 13.2 1 .3 2.6-.1 3.9 1 1 1.4 3.6 3.9.5 3.9-4.1-1-6.3.4-9.6-2.2-3.4-2.8-5.6-4.9-10.3-4.9-4-.1-7.6-1.8-11.5-1.1-2.3.4-4.5 1.2-6.7 1.9-2.1.7-2.5 4.4-4.5 4.8-8.8 2.1-6.9 10.4-8.5 17.1-.7 2.6-2.7 9.5-.4 11.7 4.1 4 8.9 9.5 15 10.3 3.3.6 10.3-2.1 12.6 1.2 1 1.9 3.3-1.4 4 .3 1.6 4.9-1.9 8.2-1.9 12.9-.1 6.9 4.1 9.4-1.5 15.4-6.2 6.2-1.9 13.9-5.4 21.2-1.8 3.7-2.2 8.9-5 10.7-6 3.9-12.5 7-19.2 9.2-12 4-24.9 5.2-37.5 3.9-6.6-.8-13.2-2.3-19.4-4.5-1.6-.7-3.3-1.1-4.7-1.6-.7-1.2-1.8-1.7-2.9-2.3zM45 266c-.3-.3-.4-.4-.7-.5-1.5-1.4-3-2.8-4.5-4.3s-3-3.2-4.4-4.7c0 0 0-.1-.1-.1l-.8-1.1C11 227.1 7.6 185.7 27.2 154.2c2.8 2.8-1.9 8.1 3.4 11.7 2.3 1.6 4.5 1 4 4-.4 2.9 2.5 2.9 2.9 5.4 1.2 5.6 8.7 8.4 4.4 14.7-4.1 5.6-7.7 12.1-4.5 19.4 1.1 2.6 3.6 5.4 5.5 7.4 3.6 3.6 3.3 1.5 3.3 5.9-.1 1.9 2.3 4 2.2 5.2-.5 3.6-1.4 7.1-1.8 10.7-.8 12.9-.1 25.6 9.6 35.2-3.6-2.2-7.1-4.7-10.3-7.4-.2.3-.5 0-.9-.4z"/>
</svg>
