<svg xmlns="http://www.w3.org/2000/svg" width="512" height="512" viewBox="0 0 512 512">
    <path d="M327.8 172.9c6 11.2 9.4 24.1 9.4 37.6 0 43.9-35.6 79.5-79.5 79.5-18.2 0-34.8-6.1-48.1-16.3l118.2-100.8zm-70-41.9c-43.9 0-79.5 35.6-79.5 79.5 0 14.3 3.8 27.7 10.4 39.3l118.7-101.3a79.014 79.014 0 0 0-49.6-17.5zm67.6 292.8c-11.2-7.8-25.6-13.7-25.9-20.2-.4-3.2-1.5-40.2-1.5-40.2h-80.2s-1.4 36.9-1.5 40.2c-.5 6.4-14.7 12.4-25.9 20.2-11.2 7.8.8 10.7 25.9 11.2h83.2c24.9-.5 36.9-3.5 25.9-11.2zM458.3 82.3V335c0 5.4-4.7 9.9-10.1 9.9H67.5c-5.5 0-10.1-4.4-10.1-9.9V82.3c0-5.4 4.7-9.9 10.1-9.9h380.4c5.5 0 10.1 4.5 10.4 9.9zm-97.2 128.2c0-57.1-46.2-103.3-103.3-103.3s-103.3 46.2-103.3 103.3 46.2 103.3 103.3 103.3 103.3-46.2 103.3-103.3z"/>
</svg>
