<svg xmlns="http://www.w3.org/2000/svg" width="512" height="512" viewBox="0 0 512 512">
    <style>
        .st0{fill:#231f20}
    </style>
    <path d="M287.2 89.4c58.2 14.1 99 67.4 99.2 127.2.2 71.2-59.5 125.3-120.1 127.5l-20.5 46.8c98.8-.3 170.6-76.4 170.3-157.8-.2-72.4-59-137.8-126.4-148.7l-2.5 5zm-62.4 252.1c-58.2-14.1-99-67.4-99.2-127.2-.2-71.2 59.5-125.3 120.1-127.5L266.3 40C163.8 40.3 95.8 116.4 96 197.8c.2 72.4 59 137.8 126.4 148.7l2.4-5z" class="st0"/>
    <circle cx="255.9" cy="215.4" r="76.7" class="st0"/>
</svg>
