<?xml version="1.0" encoding="utf-8"?>
<!-- Generator: Adobe Illustrator 26.0.3, SVG Export Plug-In . SVG Version: 6.00 Build 0)  -->
<svg version="1.1" id="Layer_1" xmlns="http://www.w3.org/2000/svg" xmlns:xlink="http://www.w3.org/1999/xlink" x="0px" y="0px"
	 viewBox="0 0 512 512" style="enable-background:new 0 0 512 512;" xml:space="preserve">
<path d="M376,179.5h-20v-40c0-55-45-100-100-100c-43,0-79.8,27.5-93.9,65.7c6.1,0.9,12.2,1.8,18.3,2.7c4,0.6,8,1.4,12,2.3
	c2.8,0.4,5.6,0.9,8.4,1.3c10.3-20.1,31.3-34,55.2-34c34,0,62,28,62,62h0v40H136c-22,0-40,18-40,40v200c0,22,18,40,40,40h240
	c22,0,40-18,40-40v-200C416,197.5,398,179.5,376,179.5z M256,361.5c-22,0-40-18-40-40s18-40,40-40s40,18,40,40S278,361.5,256,361.5z
	"/>
</svg>
